<svg id="Layer_1" data-name="Layer 1" xmlns="http://www.w3.org/2000/svg" viewBox="0 0 19.91 18.12"><defs><style>.cls-1{fill:#020202;}</style></defs><path class="cls-1" d="M16.47,15.23c-1.19-.11-2-1.14-2-3.16.51-.87,1.09-2,1.75-3.47L19.91.53c-4.33,0-5.82,2.09-6.23,2.87l-.13.3c-.31-2.47-1.31-3.7-3-3.7A8.4,8.4,0,0,0,6.05,1.53a13.54,13.54,0,0,0-4.22,4.6,11.67,11.67,0,0,0-1.83,6,6.21,6.21,0,0,0,1.52,4.32,4.93,4.93,0,0,0,3.85,1.69q5,0,8.18-4.7.19,4.7,2.73,4.7c1.6,0,2.5-1.21,2.73-3.61a3.92,3.92,0,0,1-2.54.72m-6.3-4.38a28.93,28.93,0,0,1-2.63,4.72,2.45,2.45,0,0,1-1.77,1.17c-1.07,0-1.61-1-1.61-2.92A17,17,0,0,1,6.43,6.08q2.28-4.3,4.39-4.31c1.29,0,1.94,1.23,1.94,3.71Z"/></svg>