<svg style="background-color: #259b97" xmlns="http://www.w3.org/2000/svg" viewBox="0 0 960 960"><defs><style>.cls-1{fill:#fff;}</style></defs><g id="Artwork"><path class="cls-1" d="M466.62,507.65H435a10.9,10.9,0,0,1-10.89-10.88V464.05h99v33.22a10.35,10.35,0,0,1-10.33,10.34h-4.51v-2h4.51a8.37,8.37,0,0,0,8.36-8.36V466H426v30.74a8.92,8.92,0,0,0,8.91,8.9h31.67Z"/><rect class="cls-1" x="438.91" y="498.69" width="27.71" height="1.98"/><rect class="cls-1" x="486.41" y="499.68" width="1.98" height="27.71"/><polygon class="cls-1" points="487.4 509.66 479.77 502.12 481.16 500.71 487.4 506.87 493.63 500.71 495.02 502.12 487.4 509.66"/><polygon class="cls-1" points="481.16 526.34 479.77 524.93 487.4 517.4 495.02 524.93 493.63 526.34 487.4 520.18 481.16 526.34"/><rect class="cls-1" x="473.54" y="512.54" width="27.71" height="1.98"/><polygon class="cls-1" points="498.81 521.16 491.28 513.53 498.81 505.91 500.22 507.3 494.06 513.53 500.22 519.77 498.81 521.16"/><polygon class="cls-1" points="476 521.16 474.59 519.77 480.75 513.53 474.59 507.3 476 505.91 483.54 513.53 476 521.16"/><path class="cls-1" d="M716.44,524.42a28.7,28.7,0,1,1,28.7-28.7A28.73,28.73,0,0,1,716.44,524.42Zm0-55.42a26.72,26.72,0,1,0,26.72,26.72A26.75,26.75,0,0,0,716.44,469Z"/><path class="cls-1" d="M708.83,504.73l-1.4-1.4,8-8v-18.6l10.7,10.7Zm8.6-23.25v11.85l5.92-5.92Z"/><path class="cls-1" d="M715.45,514.74V496.13l-8-8,1.4-1.4L726.15,504Zm2-16.63V510l5.92-5.93Z"/><rect class="cls-1" x="480.47" y="644.29" width="20.78" height="1.98"/><rect class="cls-1" x="438.69" y="685.85" width="69.71" height="1.98"/><path class="cls-1" d="M490.86,660.12a11.36,11.36,0,0,1-11.38-11.31V637.36h22.76v11.45A11.35,11.35,0,0,1,490.86,660.12Zm-9.4-20.78v9.47a9.4,9.4,0,0,0,18.8,0v-9.47Z"/><rect class="cls-1" x="489.88" y="659.13" width="1.98" height="24.24"/><rect class="cls-1" x="459.23" y="623.51" width="7.85" height="1.98"/><path class="cls-1" d="M474.52,687.83H451.77V648.48a11.85,11.85,0,0,1,6.93-10.79V616.58h8.91v21.07c4.22,1.66,6.91,5.83,6.91,10.83Zm-20.77-2h18.79V648.48c0-4.46-2.38-8-6.22-9.19l-.69-.21V618.56h-4.95V639l-.64.24a9.83,9.83,0,0,0-6.29,9.2Z"/><rect class="cls-1" x="458.7" y="652.11" width="1.98" height="27.9"/><path class="cls-1" d="M495.32,686.84h-2a2.48,2.48,0,0,0-4.95,0h-2a4.46,4.46,0,0,1,8.91,0Z"/><rect class="cls-1" x="724.11" y="645.3" width="1.98" height="13.8"/><path class="cls-1" d="M729.07,687.83H693.44A10.88,10.88,0,0,1,682.55,677v-32.7h57.39v32.79A10.84,10.84,0,0,1,729.07,687.83Zm-44.55-41.56V677a8.9,8.9,0,0,0,8.92,8.86h35.63a8.76,8.76,0,0,0,8.9-8.78v-30.8Z"/><path class="cls-1" d="M738.93,674v-2a9.4,9.4,0,1,0,0-18.79v-2a11.38,11.38,0,1,1,0,22.75Z"/><path class="cls-1" d="M733.26,674H716.9l4-15.83h8.89Zm-13.82-2h11.35l-2.63-11.88H722.4Z"/><rect class="cls-1" x="689.47" y="652.21" width="1.98" height="20.78"/><path class="cls-1" d="M708.91,639l-.27-.3a6,6,0,0,1,0-8.64l3.79-4.13a4,4,0,0,0,0-6l-1.61-1.75,1.46-1.34,1.61,1.76a6,6,0,0,1,0,8.63l-3.79,4.13a4,4,0,0,0,0,6l.28.3Z"/><path class="cls-1" d="M699.18,639l-.28-.3a6,6,0,0,1,0-8.64l3.78-4.13a4,4,0,0,0,0-6l-1.6-1.75,1.45-1.34,1.61,1.76a6,6,0,0,1,0,8.63l-3.78,4.13a4,4,0,0,0,0,6l.28.3Z"/><path class="cls-1" d="M718.63,639l-.28-.3a6,6,0,0,1,0-8.64l3.78-4.13a4,4,0,0,0,0-6l-1.6-1.75L722,616.9l1.61,1.76a6,6,0,0,1,0,8.63l-3.78,4.13a4,4,0,0,0,0,6l.28.3Z"/><path class="cls-1" d="M708.91,639l-.27-.3a6,6,0,0,1,0-8.64l3.79-4.13a4,4,0,0,0,0-6l-1.61-1.75,1.46-1.34,1.61,1.76a6,6,0,0,1,0,8.63l-3.79,4.13a4,4,0,0,0,0,6l.28.3Z"/><path class="cls-1" d="M703.58,300.86h-2V280.09a7.92,7.92,0,1,1,15.83.1h-2a5.94,5.94,0,1,0-11.87-.1Z"/><path class="cls-1" d="M731.28,300.86h-2V280.09a7.92,7.92,0,1,1,15.83.1h-2a5.94,5.94,0,1,0-11.88-.1Z"/><rect class="cls-1" x="702.59" y="292.95" width="27.71" height="1.98"/><rect class="cls-1" x="702.59" y="286.02" width="27.71" height="1.98"/><path class="cls-1" d="M755,343.42H677.85A10.9,10.9,0,0,1,667,332.53V303.84A10.91,10.91,0,0,1,677.85,293h17.81v2H677.85a8.92,8.92,0,0,0-8.91,8.91v28.69a8.92,8.92,0,0,0,8.91,8.91H755a8.92,8.92,0,0,0,8.91-8.91V303.84a8.92,8.92,0,0,0-8.91-8.91H737.22v-2H755a10.91,10.91,0,0,1,10.89,10.89v28.69A10.9,10.9,0,0,1,755,343.42Z"/><path class="cls-1" d="M732.4,315.74a9.08,9.08,0,0,1-5.27-1.76l-5.3-3.78a6.77,6.77,0,0,0-8.25,0l-5.3,3.78a8.76,8.76,0,0,1-10.54,0l-5.31-3.78a6.75,6.75,0,0,0-8.24,0l-1.81,1.29-1.15-1.61,1.81-1.29a8.75,8.75,0,0,1,10.54,0l5.31,3.79a6.78,6.78,0,0,0,8.24,0l5.31-3.79a8.75,8.75,0,0,1,10.53,0l5.31,3.79a6.78,6.78,0,0,0,8.24,0l5.31-3.79a8.65,8.65,0,0,1,9.75-.48l-1,1.71a6.74,6.74,0,0,0-7.6.39L737.67,314A9.08,9.08,0,0,1,732.4,315.74Z"/><path class="cls-1" d="M732.4,329.61a9.08,9.08,0,0,1-5.27-1.76l-5.3-3.79a6.8,6.8,0,0,0-8.25,0l-5.3,3.79a8.76,8.76,0,0,1-10.54,0l-5.31-3.79a6.78,6.78,0,0,0-8.24,0l-1.81,1.3-1.15-1.61,1.81-1.3a8.76,8.76,0,0,1,10.54,0l5.31,3.79a6.78,6.78,0,0,0,8.24,0l5.31-3.79a8.75,8.75,0,0,1,10.53,0l5.31,3.79a6.78,6.78,0,0,0,8.24,0l5.31-3.79a8.65,8.65,0,0,1,9.75-.48l-1,1.71a6.77,6.77,0,0,0-7.6.38l-5.31,3.79A9.08,9.08,0,0,1,732.4,329.61Z"/><path class="cls-1" d="M286.12,680.9H256.43V665.07h29.69Zm-27.71-2h25.73V667.05H258.41Z"/><rect class="cls-1" x="249.5" y="659.13" width="1.98" height="27.71"/><rect class="cls-1" x="195.07" y="644.29" width="27.71" height="1.98"/><rect class="cls-1" x="229.71" y="665.07" width="13.85" height="1.98"/><rect class="cls-1" x="264.35" y="651.21" width="13.85" height="1.98"/><rect class="cls-1" x="214.87" y="624.5" width="1.98" height="6.93"/><rect class="cls-1" x="214.87" y="652.2" width="1.98" height="6.93"/><path class="cls-1" d="M223.77,687.83H194.08V616.58h29.69Zm-27.71-2h25.73V618.56H196.06Z"/><path class="cls-1" d="M293,687.83H221.79V658.14H293Zm-69.27-2h67.29V660.12H223.77Z"/><path class="cls-1" d="M286.12,639.34H256.43v-1a7.93,7.93,0,0,1,7.92-7.92H278.2a7.93,7.93,0,0,1,7.92,7.92Zm-27.63-2h25.56a5.94,5.94,0,0,0-5.85-5H264.35A6,6,0,0,0,258.49,637.36Z"/><path class="cls-1" d="M279.19,632.41H263.36v-8.9h15.83Zm-13.85-2h11.87v-4.94H265.34Z"/><rect class="cls-1" x="208.62" y="334.8" width="48.49" height="1.98"/><path class="cls-1" d="M258.1,315h-2v-4a8.82,8.82,0,0,0-8.72-8.9H218.33a8.82,8.82,0,0,0-8.72,8.9v4h-2v-4a10.8,10.8,0,0,1,10.7-10.88H247.4a10.8,10.8,0,0,1,10.7,10.88Z"/><polygon class="cls-1" points="258.1 322.93 207.63 322.93 207.63 315.01 209.61 315.01 209.61 320.95 256.12 320.95 256.12 315.01 258.1 315.01 258.1 322.93"/><rect class="cls-1" x="222.48" y="307.33" width="20.78" height="1.98"/><rect class="cls-1" x="207.19" y="338.27" width="9.8" height="1.98" transform="translate(-177.77 249.33) rotate(-45)"/><rect class="cls-1" x="252.66" y="334.36" width="1.98" height="9.8" transform="translate(-165.6 278.72) rotate(-45)"/><rect class="cls-1" x="269.98" y="287.3" width="1.98" height="51.97"/><path class="cls-1" d="M286.42,288.29H255.51l7.92-15.83h15.08Zm-27.71-2h24.51l-5.94-11.87H264.65Z"/><path class="cls-1" d="M275.42,342.73h-2a2.48,2.48,0,0,0-4.95,0h-2a4.46,4.46,0,0,1,8.91,0Z"/><path class="cls-1" d="M256.12,336.78H209.61a8.91,8.91,0,0,1-8.9-8.9v-4.95a8.91,8.91,0,0,1,7.8-8.84l.24,2a6.93,6.93,0,0,0-6.06,6.88v4.95a6.92,6.92,0,0,0,6.92,6.92h46.51a6.93,6.93,0,0,0,6.93-6.92v-4.95a6.94,6.94,0,0,0-6.07-6.88l.25-2a8.92,8.92,0,0,1,7.8,8.84v4.95A8.92,8.92,0,0,1,256.12,336.78Z"/><polygon class="cls-1" points="286.12 486.12 256.43 486.12 256.43 464.34 258.41 464.34 258.41 484.14 284.14 484.14 284.14 464.34 286.12 464.34 286.12 486.12"/><rect class="cls-1" x="256.44" y="477.21" width="28.68" height="1.98"/><path class="cls-1" d="M282.39,520.75H204.74a10.46,10.46,0,0,1-10.66-10.23V491.06h99v19.46A10.46,10.46,0,0,1,282.39,520.75ZM196.06,493v17.48a8.49,8.49,0,0,0,8.68,8.25h77.65a8.49,8.49,0,0,0,8.68-8.25V493Z"/><rect class="cls-1" x="200.57" y="522.24" width="9.8" height="1.98" transform="translate(-309.8 298.53) rotate(-45)"/><rect class="cls-1" x="280.67" y="518.33" width="1.98" height="9.8" transform="translate(-287.48 352.42) rotate(-45)"/><path class="cls-1" d="M229.71,472.26H214.87v-1a7.92,7.92,0,1,1,15.83,0v1Zm-12.78-2h11.71a5.94,5.94,0,0,0-11.71,0Z"/><path class="cls-1" d="M203,492.05h-2V467.81a11.39,11.39,0,0,1,22.12-3.8l-1.87.66A9.41,9.41,0,0,0,203,467.81Z"/><rect class="cls-1" x="250.49" y="463.35" width="41.56" height="1.98"/><rect class="cls-1" x="431.98" y="341.44" width="83.13" height="1.98"/><path class="cls-1" d="M516.1,329.57H431V310.76a10.8,10.8,0,0,1,10.7-10.88H505.4a10.8,10.8,0,0,1,10.7,10.88Zm-83.13-2h81.15V310.76a8.82,8.82,0,0,0-8.72-8.9H441.69a8.82,8.82,0,0,0-8.72,8.9Z"/><path class="cls-1" d="M432,343.42a7.93,7.93,0,0,1-7.92-7.92v-6.93a7.93,7.93,0,0,1,7.92-7.91v2a6,6,0,0,0-5.94,5.93v6.93a6,6,0,0,0,5.94,5.94Z"/><path class="cls-1" d="M515.11,343.42v-2A5.94,5.94,0,0,0,521,335.5v-6.93a5.94,5.94,0,0,0-5.93-5.93v-2a7.92,7.92,0,0,1,7.91,7.91v6.93A7.92,7.92,0,0,1,515.11,343.42Z"/><path class="cls-1" d="M523,294.93H486.41V272.17H523Zm-34.63-2H521v-18.8H488.39Z"/><polygon class="cls-1" points="508.18 288.36 501.25 281.48 495.02 287.71 493.63 286.31 501.25 278.69 508.18 285.56 511.56 282.18 515.79 286.18 514.43 287.62 511.6 284.94 508.18 288.36"/><rect class="cls-1" x="430.99" y="328.58" width="1.98" height="13.85"/><rect class="cls-1" x="514.12" y="328.58" width="1.98" height="13.85"/></g></svg>