<svg style="background-color: #f7f7f7;" id="Layer_1" data-name="Layer 1" xmlns="http://www.w3.org/2000/svg" viewBox="0 0 960 960"><defs><style>.cls-1{fill:none;stroke:#008582;stroke-miterlimit:10;stroke-width:0.25px;}.cls-2{fill:#008582;}</style></defs><line class="cls-1" x1="197.66" y1="278.43" x2="762.34" y2="278.43"/><line class="cls-1" x1="762.34" y1="681.78" x2="197.66" y2="681.78"/><line class="cls-1" x1="191.9" y1="278.43" x2="768.08" y2="278.43"/><line class="cls-1" x1="191.9" y1="318.77" x2="768.08" y2="318.77"/><line class="cls-1" x1="191.9" y1="359.1" x2="768.1" y2="359.1"/><line class="cls-1" x1="191.9" y1="399.44" x2="768.1" y2="399.44"/><line class="cls-1" x1="191.9" y1="439.77" x2="768.1" y2="439.77"/><line class="cls-1" x1="197.66" y1="480.1" x2="762.34" y2="480.1"/><line class="cls-1" x1="191.9" y1="520.44" x2="768.1" y2="520.44"/><line class="cls-1" x1="191.9" y1="560.77" x2="768.1" y2="560.77"/><line class="cls-1" x1="191.9" y1="601.11" x2="768.1" y2="601.11"/><line class="cls-1" x1="191.9" y1="641.44" x2="768.1" y2="641.44"/><line class="cls-1" x1="191.9" y1="681.78" x2="768.08" y2="681.78"/><line class="cls-1" x1="560.67" y1="272.71" x2="560.67" y2="687.5"/><line class="cls-1" x1="520.33" y1="272.71" x2="520.34" y2="687.5"/><line class="cls-1" x1="480" y1="272.71" x2="480" y2="687.5"/><line class="cls-1" x1="439.67" y1="272.71" x2="439.67" y2="687.5"/><line class="cls-1" x1="399.33" y1="272.71" x2="399.33" y2="687.5"/><line class="cls-1" x1="359" y1="272.71" x2="359" y2="687.5"/><line class="cls-1" x1="318.66" y1="272.71" x2="318.66" y2="687.5"/><line class="cls-1" x1="278.33" y1="272.71" x2="278.33" y2="687.5"/><line class="cls-1" x1="237.99" y1="272.71" x2="237.99" y2="687.24"/><line class="cls-1" x1="722.01" y1="272.71" x2="722.01" y2="687.24"/><line class="cls-1" x1="681.67" y1="272.71" x2="681.67" y2="687.5"/><line class="cls-1" x1="641.34" y1="272.71" x2="641.34" y2="687.5"/><line class="cls-1" x1="601" y1="272.71" x2="601" y2="687.5"/><polygon class="cls-2" points="727.77 445.53 554.91 445.53 554.91 318.77 566.43 318.77 566.43 434.01 716.25 434.01 716.25 318.77 727.77 318.77 727.77 445.53"/><rect class="cls-2" x="554.98" y="393.67" width="167.03" height="11.52"/><path class="cls-2" d="M706.06,647.21H253.94c-34.21,0-62.05-26.72-62.05-59.55V474.34H768.11V587.66C768.11,620.49,740.27,647.21,706.06,647.21ZM203.42,485.87V587.66c0,26.48,22.66,48,50.52,48H706.06c27.86,0,50.52-21.54,50.52-48V485.87Z"/><rect class="cls-2" x="227.71" y="656.65" width="59.29" height="11.52" transform="translate(-393.02 376) rotate(-45)"/><rect class="cls-2" x="696.77" y="632.8" width="11.52" height="59" transform="translate(-262.55 690.77) rotate(-45)"/><path class="cls-2" d="M399.33,364.86H312.9V359.1a46.1,46.1,0,1,1,92.19,0v5.76ZM324.9,353.34h68.19a34.58,34.58,0,0,0-68.19,0Z"/><path class="cls-2" d="M243.92,480.1H232.06V340.71A68.22,68.22,0,0,1,364.59,318l-11.19,3.95a56.35,56.35,0,0,0-109.48,18.79Z"/><rect class="cls-2" x="514.57" y="313" width="253.51" height="11.52"/><line class="cls-1" x1="191.9" y1="272.71" x2="768.1" y2="272.71"/><line class="cls-1" x1="191.9" y1="284.22" x2="768.1" y2="284.22"/><line class="cls-1" x1="203.41" y1="272.71" x2="203.41" y2="687.24"/><line class="cls-1" x1="191.9" y1="272.71" x2="191.9" y2="687.24"/><line class="cls-1" x1="243.74" y1="272.71" x2="243.74" y2="687.24"/><line class="cls-1" x1="232.24" y1="272.71" x2="232.24" y2="687.24"/><line class="cls-1" x1="284.08" y1="272.71" x2="284.08" y2="687.24"/><line class="cls-1" x1="272.57" y1="272.71" x2="272.57" y2="687.24"/><line class="cls-1" x1="324.41" y1="272.71" x2="324.41" y2="687.24"/><line class="cls-1" x1="312.9" y1="272.71" x2="312.9" y2="687.24"/><line class="cls-1" x1="364.75" y1="272.71" x2="364.75" y2="687.24"/><line class="cls-1" x1="353.24" y1="272.71" x2="353.24" y2="687.24"/><line class="cls-1" x1="405.08" y1="272.71" x2="405.08" y2="687.24"/><line class="cls-1" x1="393.57" y1="272.71" x2="393.57" y2="687.24"/><line class="cls-1" x1="445.41" y1="272.71" x2="445.41" y2="687.24"/><line class="cls-1" x1="433.9" y1="272.71" x2="433.9" y2="687.24"/><line class="cls-1" x1="485.75" y1="272.71" x2="485.75" y2="687.24"/><line class="cls-1" x1="474.24" y1="272.71" x2="474.24" y2="687.24"/><line class="cls-1" x1="526.08" y1="272.71" x2="526.08" y2="687.24"/><line class="cls-1" x1="514.57" y1="272.71" x2="514.57" y2="687.24"/><line class="cls-1" x1="566.41" y1="272.71" x2="566.41" y2="687.24"/><line class="cls-1" x1="554.91" y1="272.71" x2="554.91" y2="687.24"/><line class="cls-1" x1="606.75" y1="272.71" x2="606.75" y2="687.24"/><line class="cls-1" x1="595.24" y1="272.71" x2="595.24" y2="687.24"/><line class="cls-1" x1="647.08" y1="272.71" x2="647.08" y2="687.24"/><line class="cls-1" x1="635.57" y1="272.71" x2="635.57" y2="687.24"/><line class="cls-1" x1="687.42" y1="272.71" x2="687.41" y2="687.24"/><line class="cls-1" x1="675.91" y1="272.71" x2="675.91" y2="687.24"/><line class="cls-1" x1="727.75" y1="272.71" x2="727.75" y2="687.24"/><line class="cls-1" x1="716.24" y1="272.71" x2="716.24" y2="687.24"/><line class="cls-1" x1="768.08" y1="272.71" x2="768.08" y2="687.24"/><line class="cls-1" x1="756.57" y1="272.71" x2="756.57" y2="687.24"/><line class="cls-1" x1="191.9" y1="313.01" x2="768.1" y2="313.01"/><line class="cls-1" x1="191.9" y1="324.52" x2="768.1" y2="324.52"/><line class="cls-1" x1="191.9" y1="353.31" x2="768.1" y2="353.31"/><line class="cls-1" x1="191.9" y1="364.82" x2="768.1" y2="364.82"/><line class="cls-1" x1="191.9" y1="393.62" x2="768.1" y2="393.62"/><line class="cls-1" x1="191.9" y1="405.13" x2="768.1" y2="405.13"/><line class="cls-1" x1="191.9" y1="433.92" x2="768.1" y2="433.92"/><line class="cls-1" x1="191.9" y1="445.43" x2="768.1" y2="445.43"/><line class="cls-1" x1="191.9" y1="474.22" x2="768.1" y2="474.22"/><line class="cls-1" x1="191.9" y1="485.73" x2="768.1" y2="485.73"/><line class="cls-1" x1="191.9" y1="514.53" x2="768.1" y2="514.53"/><line class="cls-1" x1="191.9" y1="526.03" x2="768.1" y2="526.03"/><line class="cls-1" x1="191.9" y1="554.83" x2="768.1" y2="554.83"/><line class="cls-1" x1="191.9" y1="566.34" x2="768.1" y2="566.34"/><line class="cls-1" x1="191.9" y1="595.13" x2="768.1" y2="595.13"/><line class="cls-1" x1="191.9" y1="606.64" x2="768.1" y2="606.64"/><line class="cls-1" x1="191.9" y1="635.69" x2="768.1" y2="635.69"/><line class="cls-1" x1="191.9" y1="647.2" x2="768.1" y2="647.2"/><line class="cls-1" x1="191.9" y1="675.74" x2="768.1" y2="675.74"/><line class="cls-1" x1="191.9" y1="687.24" x2="768.1" y2="687.24"/><line class="cls-1" x1="762.34" y1="272.96" x2="762.34" y2="687.24"/><line class="cls-1" x1="197.66" y1="687.24" x2="197.66" y2="272.96"/></svg>