<svg id="Layer_1" data-name="Layer 1" xmlns="http://www.w3.org/2000/svg" viewBox="0 0 155.74 155.74" 
      fill="black"
>
  <g>
    <path d="M90.73,91.77c-2.34-.22-3.87-2.24-4-6.24q1.49-2.58,3.44-6.85l7.34-15.92C89,62.76,86,66.88,85.23,68.43L85,69q-.93-7.3-5.87-7.31a16.67,16.67,0,0,0-8.94,3,26.71,26.71,0,0,0-8.31,9.08,23.06,23.06,0,0,0-3.62,11.8,12.28,12.28,0,0,0,3,8.54,9.77,9.77,0,0,0,7.6,3.33q9.81,0,16.14-9.29c.25,6.19,2.06,9.29,5.4,9.29,3.14,0,4.93-2.39,5.38-7.13A7.65,7.65,0,0,1,90.73,91.77ZM78.31,83.14a57.73,57.73,0,0,1-5.19,9.3c-1.21,1.54-2.38,2.31-3.5,2.31q-3.18,0-3.18-5.77,0-6.74,4.49-15.26t8.65-8.52c2.55,0,3.82,2.44,3.82,7.34Z"/>
    <g>
      <path d="M5.45,64.79l8-2L7.4,57.46l14.53-3.71-.53,2-12,3,4.48,3.91L20,61.09l-.53,2-12,3,9.14,8-.09.35Z"/>
      <path d="M7,80.87a2.94,2.94,0,0,1-.35-.16,4.17,4.17,0,0,1-.76-.61A4.66,4.66,0,0,1,5,78.89a6.2,6.2,0,0,1-.83-3.45,4.57,4.57,0,0,1,.49-1.84,4,4,0,0,1,1.09-1.35,5.93,5.93,0,0,1,1.48-.84,3.79,3.79,0,0,1,1.64-.28,5.7,5.7,0,0,1,1.59.33l.3.15a7.73,7.73,0,0,1,.69.46,6.36,6.36,0,0,1,.92.8,5.82,5.82,0,0,1,.84,1.19,5.59,5.59,0,0,1,.59,1.6,6.58,6.58,0,0,1-.23,3,3.27,3.27,0,0,1-.34.8,2,2,0,0,1-.4.49,1.23,1.23,0,0,1-.4.23,1.68,1.68,0,0,1-.31.1H12c-.85,0-1.25-.78-1.22-2.2L11,72.77a4.74,4.74,0,0,0-2-.07,5.83,5.83,0,0,0-2,.65A4.32,4.32,0,0,0,4.86,77a4,4,0,0,0,.52,2A4.41,4.41,0,0,0,7,80.76Zm5.42-7.32a2.83,2.83,0,0,0-1.19-.71l-.08,4v1a.79.79,0,0,0,.33.76.77.77,0,0,0,.73-.05,2,2,0,0,0,.68-.62,3.74,3.74,0,0,0-.48-4.4Z"/>
      <path d="M13.92,87.63a4.92,4.92,0,0,1,.65,1.72,5.91,5.91,0,0,1,0,1.92,7,7,0,0,1-.47,1.78,3.82,3.82,0,0,1-1,1.4,2.78,2.78,0,0,1-1.4.7l-2.64.47-.26,0c-1.69.29-2.55.82-2.58,1.57a4.83,4.83,0,0,1-.06-2.06c.14-.4.54-.67,1.22-.82l1.42-.24,1.18-.17H10a8.73,8.73,0,0,1-4.1-2.25,3.62,3.62,0,0,1-1-1.91,2.59,2.59,0,0,1,.67-2.49,1.92,1.92,0,0,1,2.15-.39,5,5,0,0,1,2.68,3.19.53.53,0,0,1,.06.13c0,.05.07.15.13.31s.13.32.21.48.15.34.26.55.2.41.3.59a6.26,6.26,0,0,0,.31.55,3.31,3.31,0,0,0,.31.46,2.09,2.09,0,0,0,.29.3c.11.07.19.11.27.09,1.06-.15,1.63-.64,1.73-1.46a5.37,5.37,0,0,0-1-3.1l-1.47-2.53ZM7,88.31a1.92,1.92,0,0,0-.6,2.43,5.54,5.54,0,0,0,2.3,2.18,4.62,4.62,0,0,0,2.85.77l.55-.07L12,93.57a2.33,2.33,0,0,1-.23-.23,5.45,5.45,0,0,1-.37-.5,8.69,8.69,0,0,1-.53-1c-.22-.44-.44-.93-.67-1.5a1.37,1.37,0,0,0-.1-.23l-.18-.44c-.07-.15-.16-.32-.27-.53a6.32,6.32,0,0,0-.36-.54,2.69,2.69,0,0,0-.45-.44,1.37,1.37,0,0,0-.54-.27,1.35,1.35,0,0,0-.63,0A1.84,1.84,0,0,0,7,88.31Z"/>
      <path d="M8.06,98.93l5.59-1.72,2.2-.68L16.3,98l-2.66.82a3,3,0,0,1,2,.58,3.64,3.64,0,0,1,1.73,2.17,6.57,6.57,0,0,1,.38,1.48l-1.09-.4a.8.8,0,0,1-.27-.34,2.77,2.77,0,0,1-.24-.57l-.1-.26a6.06,6.06,0,0,0-.75-1.51,2.23,2.23,0,0,0-.82-.79,2.49,2.49,0,0,0-.7-.25,1.39,1.39,0,0,0-.54,0l-4.76,1.47-1,.39L7,99.2Z"/>
      <path d="M15.78,113.71l-.39,0a4.19,4.19,0,0,1-1-.19,4.47,4.47,0,0,1-1.36-.65,6.18,6.18,0,0,1-2.34-2.67,4.42,4.42,0,0,1-.42-1.86,4,4,0,0,1,.33-1.7,5.91,5.91,0,0,1,.92-1.43,3.77,3.77,0,0,1,1.33-1,5.36,5.36,0,0,1,1.56-.45h.33a6.94,6.94,0,0,1,.83.09,6.86,6.86,0,0,1,1.19.28,5.52,5.52,0,0,1,1.29.67,5.3,5.3,0,0,1,1.27,1.14,6.7,6.7,0,0,1,1.21,2.8,3,3,0,0,1,.07.87,1.8,1.8,0,0,1-.13.62,1.36,1.36,0,0,1-.25.39,1.39,1.39,0,0,1-.23.22l-.16.1q-1.15.54-2.1-1.38l-2.24-4.87a4.71,4.71,0,0,0-1.77.84A5.87,5.87,0,0,0,12.35,107a4.33,4.33,0,0,0-.31,4.26,4.07,4.07,0,0,0,1.4,1.54,4.39,4.39,0,0,0,2.29.8Zm1.4-9a3,3,0,0,0-1.39-.07l1.82,3.63.45.85c.19.35.4.52.65.51a.74.74,0,0,0,.62-.37,1.93,1.93,0,0,0,.31-.87,3.33,3.33,0,0,0-.67-2.31A3.41,3.41,0,0,0,17.18,104.7Z"/>
      <path d="M31,125.05l-.06,0a9.16,9.16,0,0,0,1.3-2.92,2.75,2.75,0,0,0-.41-2.51l-.94-1.17L21,126.27,20,125l9.8-7.86L28.91,116a2.75,2.75,0,0,0-2.35-.95,9.37,9.37,0,0,0-3.13.62l-.05-.06,3.87-2.1,6.59,8.22Z"/>
      <path d="M34.63,122.44l2,0-4.41,5.08a5.29,5.29,0,0,1,2.74.24A4.94,4.94,0,0,1,37.1,129a3.24,3.24,0,0,1,.84,2,2.86,2.86,0,0,1-.79,2.13L33,138l-1.11-1,4-4.57a2.85,2.85,0,0,0,.83-2.45,2.67,2.67,0,0,0-1.52-1.89,5,5,0,0,0-3-.42l-4.73,5.43-1.15-1Z"/>
      <path d="M45,142.33a2.76,2.76,0,0,1-.31.23,4,4,0,0,1-.9.37,4.52,4.52,0,0,1-1.49.21,6.12,6.12,0,0,1-3.43-.93,4.55,4.55,0,0,1-1.38-1.31,4,4,0,0,1-.66-1.6,6.1,6.1,0,0,1,0-1.71,3.64,3.64,0,0,1,.55-1.57,5.18,5.18,0,0,1,1-1.23l.27-.2c.12-.07.37-.2.74-.38a6.83,6.83,0,0,1,1.14-.43,5.87,5.87,0,0,1,1.45-.16,6,6,0,0,1,1.68.24,6.88,6.88,0,0,1,2.57,1.67,3,3,0,0,1,.53.69,2.1,2.1,0,0,1,.24.58,1.42,1.42,0,0,1,0,.46,1.1,1.1,0,0,1-.07.32,1.3,1.3,0,0,1-.08.17c-.44.72-1.28.73-2.51,0L39.77,135a4.84,4.84,0,0,0-1,1.68,6.11,6.11,0,0,0-.37,2,4.36,4.36,0,0,0,.52,2,4.31,4.31,0,0,0,1.59,1.67,4.13,4.13,0,0,0,2,.51,4.37,4.37,0,0,0,2.35-.61Zm-3.83-8.27a2.85,2.85,0,0,0-1.19.7l3.52,2,.85.45a.8.8,0,0,0,.83.08.75.75,0,0,0,.3-.66,1.87,1.87,0,0,0-.22-.9,3.72,3.72,0,0,0-4.09-1.69Z"/>
      <path d="M54.44,136.16l-.91-.67,6,2a8.47,8.47,0,0,1,3.56,2,2.6,2.6,0,0,1,.77,2.78A2.52,2.52,0,0,1,62,143.93a5,5,0,0,1-3.09-.1l-.47-.15a4.78,4.78,0,0,1,2.32,1.68,2.73,2.73,0,0,1,.47,2.67,3,3,0,0,1-.85,1.36,2.79,2.79,0,0,1-1.31.67,5.71,5.71,0,0,1-1.43.09,5.28,5.28,0,0,1-1.38-.27L50.54,148Zm1.85,13.49c1.55.51,2.64-.19,3.27-2.12s.08-3.37-1.78-4l-3.54-1.16-2,5.94Zm1.77-6.3a3.6,3.6,0,0,0,2.38,0A2.41,2.41,0,0,0,62,141.75a2.56,2.56,0,0,0-.35-2.55,7.15,7.15,0,0,0-3.32-1.88l-2.19-.72-1.82,5.52Z"/>
      <path d="M63.59,150.64l1-5.77.38-2.26,1.5.25L66,145.6a3,3,0,0,1,1.42-1.55,3.69,3.69,0,0,1,2.73-.56,7,7,0,0,1,1.48.33l-.85.79a.81.81,0,0,1-.42.09,3.13,3.13,0,0,1-.62,0l-.27,0a6.43,6.43,0,0,0-1.69,0,2.27,2.27,0,0,0-1.08.38,2.7,2.7,0,0,0-.54.51,1.41,1.41,0,0,0-.23.48l-.83,4.91L65,152l-1.63-.28Z"/>
      <path d="M72.85,143.87a5,5,0,0,1,1.81-.29,6,6,0,0,1,1.89.33,7.5,7.5,0,0,1,1.65.83A3.94,3.94,0,0,1,79.38,146a2.79,2.79,0,0,1,.4,1.51c0,1.07-.06,2-.07,2.68v.26c-.06,1.72.28,2.67,1,2.85a4.73,4.73,0,0,1-2-.36c-.36-.21-.54-.66-.56-1.36l0-1.44.08-1.18,0,0a8.92,8.92,0,0,1-3,3.57,3.65,3.65,0,0,1-2.08.61A2.59,2.59,0,0,1,70.81,152a1.93,1.93,0,0,1,0-2.19,5.06,5.06,0,0,1,3.67-2l.14,0,.33-.07.51-.1.59-.15.64-.17c.19,0,.39-.12.6-.19s.38-.15.52-.22a2.33,2.33,0,0,0,.35-.22.38.38,0,0,0,.14-.24c.06-1.07-.3-1.74-1.09-2a5.27,5.27,0,0,0-3.22.3l-2.77.93Zm-.74,6.94a1.93,1.93,0,0,0,2.26,1.08,5.57,5.57,0,0,0,2.6-1.81,4.66,4.66,0,0,0,1.33-2.63l0-.56-.06,0-.27.17a5.22,5.22,0,0,1-.57.27,7.45,7.45,0,0,1-1,.33c-.46.12-1,.24-1.59.35l-.26,0-.46.09a5.2,5.2,0,0,0-.57.16,3.4,3.4,0,0,0-.6.24,2.07,2.07,0,0,0-.52.35,1.39,1.39,0,0,0-.38.48,1.43,1.43,0,0,0-.12.62A1.85,1.85,0,0,0,72.11,150.81Z"/>
      <path d="M82.75,153.1l-1.17-9.19,1.54-.19.21,1.76a5.45,5.45,0,0,1,1.56-1.61,4.91,4.91,0,0,1,1.88-.82,4.64,4.64,0,0,1,1.82,0,2.61,2.61,0,0,1,1.48.86,3.13,3.13,0,0,1,.76,1.72l.81,6.34-1.49.19-.76-6a3,3,0,0,0-.84-1.88,2.31,2.31,0,0,0-1.56-.71,3.53,3.53,0,0,0-1.88.53,5.45,5.45,0,0,0-1.75,1.65l.88,7.17Z"/>
      <path d="M92.83,145.76a5.45,5.45,0,0,1,.25-1.45,5.69,5.69,0,0,1,.74-1.51,5.52,5.52,0,0,1,1.23-1.32,4.39,4.39,0,0,1,1.86-.76,6.35,6.35,0,0,1,2.48.08L98,136.13l1-1.72L102.54,146c.5,1.64,1.13,2.43,1.88,2.37-1.55.47-2.56.21-3-.79a4.34,4.34,0,0,1-3,2.84,4,4,0,0,1-1.77.13,3.56,3.56,0,0,1-1.54-.6,5.64,5.64,0,0,1-1.22-1.13,4,4,0,0,1-.78-1.46A5.87,5.87,0,0,1,92.83,145.76ZM94,143.44a3.14,3.14,0,0,0-.14,2.1,5.54,5.54,0,0,0,1,2.17,4.55,4.55,0,0,0,1.93,1.48,3.56,3.56,0,0,0,2.45.12,3,3,0,0,0,2-2l0-.15-1.38-4.71a5.86,5.86,0,0,0-2.17-.82,3.79,3.79,0,0,0-2.19.25A2.76,2.76,0,0,0,94,143.44Z"/>
      <path d="M116,142.79c-.3.18-.59.34-.87.49l-.73.39q-.3.15-.69.3c-.26.09-.45.17-.57.22a4,4,0,0,1-.57.16l-.5.12-.53.11-.5.1-3-4,.09-.06a8.6,8.6,0,0,0,1.61,1.71,5.35,5.35,0,0,0,1.62.91,4.66,4.66,0,0,0,1.61.24,5.33,5.33,0,0,0,1.53-.27,7.15,7.15,0,0,0,1.4-.67,5.37,5.37,0,0,0,1.25-1,2.28,2.28,0,0,0,.56-1,2.69,2.69,0,0,0,0-.88,2.06,2.06,0,0,0-.24-.71,1.81,1.81,0,0,0-1-.81,3.91,3.91,0,0,0-1.56-.17c-.58,0-1.2.12-1.85.23s-1.33.22-2,.32a14.47,14.47,0,0,1-1.92.14,4.17,4.17,0,0,1-1.7-.35,2.79,2.79,0,0,1-1.24-1.12,3.25,3.25,0,0,1-.3-.68,2.8,2.8,0,0,1-.09-1,3.42,3.42,0,0,1,.26-1.15,4.3,4.3,0,0,1,.84-1.26,7.39,7.39,0,0,1,1.59-1.3,21.56,21.56,0,0,1,2-1.14c.72-.36,1.29-.63,1.7-.8l.63-.25,2.64,3.46-.08,0a4.17,4.17,0,0,0-1.51-1.38,4.87,4.87,0,0,0-1.89-.42,6.91,6.91,0,0,0-3.11.63,5.24,5.24,0,0,0-2.28,1.81,1.77,1.77,0,0,0-.13,2.06,2.19,2.19,0,0,0,1.72,1,8.17,8.17,0,0,0,2.52-.17c.91-.19,1.82-.37,2.74-.53a6.45,6.45,0,0,1,2.63,0,3,3,0,0,1,1.93,1.4,2.93,2.93,0,0,1,.28,2.88A5.65,5.65,0,0,1,116,142.79Z"/>
      <path d="M125.68,132a6.74,6.74,0,0,1,0,2.45,3.84,3.84,0,0,1-.79,1.8,3.54,3.54,0,0,1-1.26,1,2.13,2.13,0,0,1-1.47.13,2.59,2.59,0,0,1-1.34-.91l-3.69-4.51-.94.76V128.4l1.42,1.73,3-2.43,0,1.42L118.31,131l4,5a1.3,1.3,0,0,0,1.69.49,3,3,0,0,0,1.44-2.09,6.05,6.05,0,0,0,.12-2.26Z"/>
      <path d="M123.13,127.2a5.06,5.06,0,0,1,1.37-3.62,4.84,4.84,0,0,1,3.47-1.52,4.64,4.64,0,0,1,3.53,1.29,4.45,4.45,0,0,1,1.36,3.47,5.17,5.17,0,0,1-1.43,3.57A4.93,4.93,0,0,1,128,132a4.31,4.31,0,0,1-3.47-1.24A4.64,4.64,0,0,1,123.13,127.2Zm8.29,2.67a2.69,2.69,0,0,0,.74-2.42,5.39,5.39,0,0,0-1.83-2.87A5.14,5.14,0,0,0,127,123a3.38,3.38,0,0,0-2.61,1.06,2.8,2.8,0,0,0-.72,2.55,4.93,4.93,0,0,0,2,2.87,5.21,5.21,0,0,0,3.19,1.33A3.25,3.25,0,0,0,131.42,129.87Z"/>
      <path d="M135.25,123.84l-4.73-3.43-1.87-1.35.89-1.23,2.26,1.63a3.05,3.05,0,0,1-.77-2,3.71,3.71,0,0,1,.7-2.69,6.92,6.92,0,0,1,1-1.19l.34,1.11a.7.7,0,0,1-.11.42,2.82,2.82,0,0,1-.31.54l-.14.23a6.16,6.16,0,0,0-.77,1.51,2.26,2.26,0,0,0-.13,1.13,2.39,2.39,0,0,0,.22.71,1.4,1.4,0,0,0,.33.42l4,2.92.93.6-1,1.34Z"/>
      <path d="M137.12,104.84l2,2.55a59.12,59.12,0,0,1,5.47,7.66,4,4,0,0,1-.43,3.8l-1.77-.92.13-.15a3.62,3.62,0,0,0,.32-.38c.15-.19.29-.39.42-.59a5.66,5.66,0,0,0,.36-.77,3.7,3.7,0,0,0,.21-.89,2.66,2.66,0,0,0-.09-1,3,3,0,0,0-.46-1l-10.54.3.82-1.62,8.54-.17-5.15-6.5Z"/>
      <path d="M146,99.33a6.74,6.74,0,0,1,1.29,2.08,3.9,3.9,0,0,1,.27,2,3.66,3.66,0,0,1-.57,1.51,2.11,2.11,0,0,1-1.18.87,2.59,2.59,0,0,1-1.62-.07l-5.5-1.93-.4,1.14L136,101.23l2.12.74,1.27-3.62.7,1.23-1,2.74,6,2.16a1.28,1.28,0,0,0,1.69-.47,2.93,2.93,0,0,0,.14-2.54,6,6,0,0,0-1.07-2Z"/>
      <path d="M148,89.78a2.7,2.7,0,0,1,.33.21,4.17,4.17,0,0,1,.64.73,4.49,4.49,0,0,1,.7,1.34,6.19,6.19,0,0,1,.25,3.54,4.33,4.33,0,0,1-.78,1.73,4,4,0,0,1-1.29,1.16,6,6,0,0,1-1.6.59,3.77,3.77,0,0,1-1.67,0,5.78,5.78,0,0,1-1.51-.59,2,2,0,0,1-.27-.19,7.31,7.31,0,0,1-.61-.57,6.38,6.38,0,0,1-.78-.94,5.52,5.52,0,0,1-.63-1.31,6,6,0,0,1-.33-1.67,6.74,6.74,0,0,1,.72-3,3.08,3.08,0,0,1,.48-.73,1.89,1.89,0,0,1,.47-.42,1.31,1.31,0,0,1,.43-.16,1.16,1.16,0,0,1,.32,0,.62.62,0,0,1,.19,0c.83.18,1.11,1,.85,2.36l-1.15,5.25a5,5,0,0,0,1.92.39,6.08,6.08,0,0,0,2-.33,4.33,4.33,0,0,0,2.8-3.22,4,4,0,0,0-.18-2.06,4.36,4.36,0,0,0-1.35-2Zm-6.54,6.34a3,3,0,0,0,1.06.9l.74-4,.15-1c.06-.4,0-.66-.21-.81a.77.77,0,0,0-.72-.07,1.9,1.9,0,0,0-.77.5,3.75,3.75,0,0,0-.25,4.42Z"/>
      <path d="M136.2,85.44q6,.82,12,1.35c1.72.15,2.69-.11,2.92-.79a4.84,4.84,0,0,1-.52,2,1.48,1.48,0,0,1-1.39.45L137.38,87.1Z"/>
      <path d="M136.45,81.8q6,.44,12.1.59c1.72,0,2.68-.28,2.86-1a4.91,4.91,0,0,1-.39,2,1.5,1.5,0,0,1-1.37.53l-11.92-.58Z"/>
      <path d="M148.12,70.35a3,3,0,0,1,.36.12,4.15,4.15,0,0,1,.83.52,4.73,4.73,0,0,1,1,1.1,6.17,6.17,0,0,1,1.21,3.33,4.42,4.42,0,0,1-.28,1.89,3.82,3.82,0,0,1-.93,1.46,5.86,5.86,0,0,1-1.37,1,3.8,3.8,0,0,1-1.6.46,5.5,5.5,0,0,1-1.62-.15l-.31-.11c-.13-.06-.38-.18-.74-.38a6.93,6.93,0,0,1-1-.69,5.66,5.66,0,0,1-1-1.09A5.91,5.91,0,0,1,142,76.3a6.86,6.86,0,0,1-.11-3,3.31,3.31,0,0,1,.25-.84,2.11,2.11,0,0,1,.34-.53,1.59,1.59,0,0,1,.37-.27,1.46,1.46,0,0,1,.3-.13.58.58,0,0,1,.19,0c.85,0,1.33.63,1.46,2l.33,5.36A4.68,4.68,0,0,0,147,78.7a5.91,5.91,0,0,0,1.87-.87,4.39,4.39,0,0,0,1.37-1.6,4.18,4.18,0,0,0,.44-2.26A3.93,3.93,0,0,0,150,72a4.37,4.37,0,0,0-1.85-1.57Zm-4.56,7.89a2.79,2.79,0,0,0,1.26.57l-.38-4-.12-1c0-.39-.18-.63-.41-.71a.75.75,0,0,0-.72.13,1.84,1.84,0,0,0-.6.69,3.72,3.72,0,0,0,1,4.32Z"/>
      <path d="M149.5,68.71l-5.76,1-2.26.42-.27-1.5,2.73-.5a3,3,0,0,1-1.95-.81A3.68,3.68,0,0,1,140.53,65a7.56,7.56,0,0,1-.2-1.51l1,.52a.75.75,0,0,1,.22.37,2.83,2.83,0,0,1,.18.59l.07.27a6.62,6.62,0,0,0,.55,1.6,2.49,2.49,0,0,0,.73.88,2.72,2.72,0,0,0,.67.33,1.39,1.39,0,0,0,.53,0l4.9-.9,1.08-.26.3,1.62Z"/>
      <path d="M145.27,61.56a3.53,3.53,0,0,0,2.6-2.74,4,4,0,0,0-.44-2.93,2,2,0,0,0-1.73-1.19,1.45,1.45,0,0,0-.5.08,1.23,1.23,0,0,0-.74,1,8.16,8.16,0,0,0-.23,1.83c0,.69,0,1.39,0,2.09a5.74,5.74,0,0,1-.37,1.91,1.89,1.89,0,0,1-1.06,1.16,2.42,2.42,0,0,1-3.21-1.13,8.72,8.72,0,0,1-1.16-5.2l2.65-.84,0,.11a4.26,4.26,0,0,0-1,.7,4.1,4.1,0,0,0-.78,1.06A3.21,3.21,0,0,0,139,59a5.2,5.2,0,0,0,.46,1.92c.11.22.22.41.31.57a4.6,4.6,0,0,0,.4.53,1.14,1.14,0,0,0,.6.37,1.12,1.12,0,0,0,.73-.08,1.47,1.47,0,0,0,.83-1.07,6.37,6.37,0,0,0,.19-1.86c0-.69,0-1.39,0-2.09a5.11,5.11,0,0,1,.32-1.91,2,2,0,0,1,1.1-1.17A2.48,2.48,0,0,1,145.2,54a3.2,3.2,0,0,1,1.06.31,3.57,3.57,0,0,1,1,.94,4.88,4.88,0,0,1,.73,1.57c.2.65.34,1.2.44,1.66s.23,1.12.38,2l-3.59,1.18Z"/>
    </g>
    <g>
      <path d="M26.12,36.65q.72,2.1,2.22,2.07L27,40.14,22.57,28a2.47,2.47,0,0,0-1.15.18,3.43,3.43,0,0,1-1,.24l2.08-2.16,13.86,4.08L35,31.79l-5-1.53-4.49,4.67Zm-3.21-8.56,2.46,6.56,4.3-4.49Z"/>
      <path d="M28.4,18c2.48,3.18,5,6.31,7.68,9.36,1.12,1.32,2,1.81,2.64,1.48A4.62,4.62,0,0,1,37,29.93c-.4.08-.84-.14-1.31-.65l-7.57-9.23Z"/>
      <path d="M34.9,21.54l-.43,1.14.74-3.38L36,20.51a6,6,0,0,1,1-1.86,4.45,4.45,0,0,1,1.39-1.18A5.26,5.26,0,0,1,40,16.94a3.64,3.64,0,0,1,1.61.07,4.94,4.94,0,0,1,1.46.65,3.81,3.81,0,0,1,1.13,1.22,4.61,4.61,0,0,1,.63,1.73,3.93,3.93,0,0,1,0,.45,7.42,7.42,0,0,1,0,1.09,9.39,9.39,0,0,1-.22,1.48,5.68,5.68,0,0,1-.6,1.44,3.58,3.58,0,0,1-1.11,1.2l-.21.12c-.09.05-.25.13-.5.24a3.57,3.57,0,0,1-.7.23,2,2,0,0,1-.74,0A1.29,1.29,0,0,1,40,26.6l2.8,4.3-.56,1.91ZM39.66,26a1.43,1.43,0,0,0,1.36.68,3.53,3.53,0,0,0,1.75-.6,3.11,3.11,0,0,0,1.44-3.28,5.71,5.71,0,0,0-1.82-3.39A4.31,4.31,0,0,0,39.26,18c-1.37,0-2.41,1-3.12,2.74Z"/>
      <path d="M42.55,11.15l.83-1.87,2.74,6.14A5.38,5.38,0,0,1,47.5,13a5,5,0,0,1,2.08-1.34,3.27,3.27,0,0,1,2.16.08,2.94,2.94,0,0,1,1.61,1.62l2.59,5.84-1.35.6-2.46-5.53a2.86,2.86,0,0,0-1.87-1.79,2.67,2.67,0,0,0-2.36.58,5,5,0,0,0-1.67,2.58l2.93,6.58-1.39.62Z"/>
      <path d="M56.55,9.53a4.84,4.84,0,0,1,1.66-.8,5.9,5.9,0,0,1,1.9-.23,7.7,7.7,0,0,1,1.82.32,3.69,3.69,0,0,1,1.48.85A2.66,2.66,0,0,1,64.23,11c.28,1,.51,1.9.7,2.59l.07.25c.43,1.66,1,2.48,1.79,2.44a4.73,4.73,0,0,1-2.06.24c-.4-.1-.71-.48-.92-1.14L63.45,14l-.27-1.15v.06a9,9,0,0,1-1.88,4.28,3.66,3.66,0,0,1-1.82,1.19,2.59,2.59,0,0,1-2.54-.44,1.93,1.93,0,0,1-.58-2.11,5,5,0,0,1,2.94-3l.12-.07a3.19,3.19,0,0,0,.31-.16,4.92,4.92,0,0,0,.45-.24l.53-.31c.21-.12.39-.24.56-.35l.52-.35a3.52,3.52,0,0,0,.43-.36,1.12,1.12,0,0,0,.27-.32.34.34,0,0,0,.08-.27Q62.2,8.85,61,8.82A5.32,5.32,0,0,0,58,10l-2.39,1.68Zm1.29,6.86a1.92,1.92,0,0,0,2.47.38,5.51,5.51,0,0,0,2-2.48,4.62,4.62,0,0,0,.52-2.9l-.12-.55,0,.05a1.63,1.63,0,0,1-.22.25,5.25,5.25,0,0,1-.46.42,8.18,8.18,0,0,1-.91.61c-.42.25-.89.52-1.43.8l-.23.12-.42.22-.5.31A5.69,5.69,0,0,0,58,14a2.4,2.4,0,0,0-.39.48,1.43,1.43,0,0,0-.23.57,1.38,1.38,0,0,0,.07.62A1.87,1.87,0,0,0,57.84,16.39Z"/>
      <path d="M70.85,8.64A8.87,8.87,0,0,0,71.6,12a6.33,6.33,0,0,0,1.94,2.5,4.16,4.16,0,0,0,2.71.9,7.25,7.25,0,0,0,3.3-.82A13.34,13.34,0,0,0,82.66,12l-.24.51a9.82,9.82,0,0,1-1,1,13.15,13.15,0,0,1-1.34,1,7.39,7.39,0,0,1-1.78.88,7,7,0,0,1-2,.36A7.44,7.44,0,0,1,71.06,14a6.17,6.17,0,0,1-1.78-7.17,6,6,0,0,1,1.42-2.1,8.58,8.58,0,0,1,2.13-1.47,7.34,7.34,0,0,1,2.6-.75,10.65,10.65,0,0,1,2.81.1,10.17,10.17,0,0,1,1.15.24c.36.1.73.21,1.1.34l.61.2.17,3.22a7.77,7.77,0,0,0-1.92-2.44A6,6,0,0,0,77.07,3a5.16,5.16,0,0,0-2.31-.07,4.48,4.48,0,0,0-2,1,5,5,0,0,0-1.4,2A6.77,6.77,0,0,0,70.85,8.64Z"/>
      <path d="M83.52,14.64l.71-5.8.28-2.28,1.5.18L85.68,9.5A3,3,0,0,1,87,7.88a3.71,3.71,0,0,1,2.7-.7,7.2,7.2,0,0,1,1.5.26l-.81.83a.76.76,0,0,1-.42.11,2.55,2.55,0,0,1-.62,0H89.1a5.75,5.75,0,0,0-1.69.06,2.23,2.23,0,0,0-1,.43,2.54,2.54,0,0,0-.52.53,1.5,1.5,0,0,0-.2.5L85,14.83,85,15.94l-1.64-.2Z"/>
      <path d="M99.13,16a3.3,3.3,0,0,1-.22.31,3.58,3.58,0,0,1-.75.62,4.39,4.39,0,0,1-1.36.65,6.14,6.14,0,0,1-3.55.14,4.45,4.45,0,0,1-1.7-.84,3.89,3.89,0,0,1-1.12-1.33,6.11,6.11,0,0,1-.54-1.61,3.89,3.89,0,0,1,0-1.67,6,6,0,0,1,.64-1.49,2.26,2.26,0,0,1,.2-.27c.09-.11.29-.3.59-.59a6.15,6.15,0,0,1,1-.74,5.55,5.55,0,0,1,1.33-.59,5.38,5.38,0,0,1,1.69-.27,6.61,6.61,0,0,1,2.94.82,3.25,3.25,0,0,1,.72.49,2.15,2.15,0,0,1,.4.49,1.36,1.36,0,0,1,.14.43,2,2,0,0,1,0,.33,1.13,1.13,0,0,1,0,.18c-.21.83-1,1.08-2.39.77L92,10.47a4.91,4.91,0,0,0-.45,1.9,6.18,6.18,0,0,0,.26,2.05,4.29,4.29,0,0,0,1.11,1.8,4.4,4.4,0,0,0,2,1.11A3.94,3.94,0,0,0,97,17.21,4.34,4.34,0,0,0,99,15.93ZM93,9.21a3,3,0,0,0-.93,1l4,.87.95.18a.79.79,0,0,0,.81-.18.77.77,0,0,0,.1-.72,2,2,0,0,0-.48-.79,3.3,3.3,0,0,0-2.22-.92A3.35,3.35,0,0,0,93,9.21Z"/>
      <path d="M103.57,11a5,5,0,0,1,1.8.37,6,6,0,0,1,1.65,1,7.23,7.23,0,0,1,1.24,1.36,3.88,3.88,0,0,1,.67,1.57,2.78,2.78,0,0,1-.16,1.55l-1,2.48-.1.24q-1,2.39-.06,3a4.75,4.75,0,0,1-1.77-1.07,1.46,1.46,0,0,1,0-1.46l.55-1.33.5-1.08,0,.05a9,9,0,0,1-4.1,2.25,3.62,3.62,0,0,1-2.16-.16,2.57,2.57,0,0,1-1.75-1.9,1.93,1.93,0,0,1,.82-2,5,5,0,0,1,4.13-.56l.14,0,.34.06.51.08.61.08.65.06.63,0,.56,0a2.09,2.09,0,0,0,.41-.09.34.34,0,0,0,.22-.17,1.71,1.71,0,0,0-.31-2.25,5.31,5.31,0,0,0-3.12-.85l-2.93-.12Zm-3.15,6.23c.22,1.12.8,1.72,1.73,1.81a5.54,5.54,0,0,0,3.07-.78,4.61,4.61,0,0,0,2.18-2l.23-.51h-.07a1.18,1.18,0,0,1-.31.07,5,5,0,0,1-.63.05,7,7,0,0,1-1.09-.07c-.48-.05-1-.13-1.62-.23l-.25,0-.47-.07a4.32,4.32,0,0,0-.59-.06,4.6,4.6,0,0,0-.65,0,3,3,0,0,0-.61.14,1.48,1.48,0,0,0-.52.32,1.33,1.33,0,0,0-.33.53A1.76,1.76,0,0,0,100.42,17.24Z"/>
      <path d="M115,23.94a6.78,6.78,0,0,1-2.3.87,3.91,3.91,0,0,1-2-.12,3.66,3.66,0,0,1-1.37-.85,2.12,2.12,0,0,1-.62-1.33,2.54,2.54,0,0,1,.39-1.57l3-5-1-.62,4-1.48-1.14,1.93,3.3,1.95-1.34.45-2.51-1.47-3.28,5.46a1.29,1.29,0,0,0,.13,1.75,2.92,2.92,0,0,0,2.46.63,6.07,6.07,0,0,0,2.15-.66Z"/>
      <path d="M115.77,26.58l-.58,1-1.36-1,.7-.87L119.19,19l1.24.87Zm4.69-9.17a1,1,0,0,1,.16-.72,1,1,0,0,1,.63-.41.89.89,0,0,1,.72.16.93.93,0,0,1,.41.63,1,1,0,0,1-.16.74.93.93,0,0,1-.63.39,1,1,0,0,1-1.13-.79Z"/>
      <path d="M122,20.77,123.32,22l-1.69,8.7,8.21-3,.22.2-9.88,3.66-.3-.26Z"/>
      <path d="M131.89,39.82l-.36.13a4.14,4.14,0,0,1-1,.07,4.36,4.36,0,0,1-1.49-.25,6.24,6.24,0,0,1-3-1.93,4.42,4.42,0,0,1-.91-1.67,4,4,0,0,1-.15-1.73,6.24,6.24,0,0,1,.5-1.63,3.62,3.62,0,0,1,1-1.33,5.5,5.5,0,0,1,1.38-.86l.31-.1c.14,0,.41-.08.82-.14a8.31,8.31,0,0,1,1.22-.06,5.93,5.93,0,0,1,1.43.29,5.44,5.44,0,0,1,1.53.75,6.61,6.61,0,0,1,1.93,2.37,2.87,2.87,0,0,1,.3.81,1.84,1.84,0,0,1,.05.63,1.32,1.32,0,0,1-.13.44,2,2,0,0,1-.16.29l-.13.13q-1,.84-2.4-.75l-3.49-4.07a5,5,0,0,0-1.47,1.29,6,6,0,0,0-1,1.82,4.25,4.25,0,0,0-.13,2.11,4.18,4.18,0,0,0,1,2.06,4,4,0,0,0,1.76,1.1,4.35,4.35,0,0,0,2.43.14Zm-1.12-9a3,3,0,0,0-1.35.3l2.74,3,.67.7c.27.28.53.39.76.32a.78.78,0,0,0,.5-.53,2,2,0,0,0,.06-.92,3.37,3.37,0,0,0-1.28-2A3.32,3.32,0,0,0,130.77,30.78Z"/>
    </g>
  </g>
</svg>
