<?xml version="1.0" encoding="utf-8"?>
<!-- Generator: Adobe Illustrator 24.1.0, SVG Export Plug-In . SVG Version: 6.00 Build 0)  -->
<svg version="1.1" id="Layer_1" xmlns="http://www.w3.org/2000/svg" xmlns:xlink="http://www.w3.org/1999/xlink" x="0px" y="0px"
	 viewBox="0 0 66.1 65.8" style="enable-background:new 0 0 66.1 65.8;" xml:space="preserve">
<style type="text/css">
	.st0{fill:#fff;}
</style>
<path class="st0" d="M8.3,21.1l-2.8-3.7l0.3-0.5l4.6,0.5l-0.3,0.5l-1.3-0.1l-1,1.8l0.8,1.1L8.3,21.1z M7.4,19.2l0.8-1.5L6,17.4
	L7.4,19.2z"/>
<path class="st0" d="M11.2,16.4l-3.3-2.7l0.3-0.4l2.9,2.4l1.5-1.8l0.4,0.3L11.2,16.4z"/>
<path class="st0" d="M13.9,13.2L11.1,10l1.4-1.3c0.3-0.3,0.6-0.4,1-0.4c0.8,0.1,1.3,0.7,1.3,1.5c0,0.4-0.2,0.8-0.6,1l-1.1,1l1,1.1
	L13.9,13.2z M13,11.4l1.1-0.9c0.2-0.2,0.4-0.4,0.4-0.7c0-0.5-0.4-0.9-0.9-1c-0.3,0-0.5,0.1-0.7,0.3L11.8,10L13,11.4z"/>
<path class="st0" d="M17.6,10.1l-2.2-3.7l0.4-0.2l1,1.6L19,6.6l-1-1.6l0.4-0.2l2.2,3.7l-0.4,0.2l-1-1.6l-2.1,1.2l1,1.6L17.6,10.1z"
	/>
<path class="st0" d="M21.8,7.7L22,3.1l0.6-0.2l3.1,3.4l-0.5,0.2l-0.9-1l-2,0.7l-0.1,1.3L21.8,7.7z M22.4,5.7L24,5.1l-1.5-1.7
	L22.4,5.7z"/>
<path class="st0" d="M31,5.5c-0.4,0-0.8,0-1.1-0.2c-0.3-0.2-0.6-0.4-0.8-0.7c-0.2-0.3-0.3-0.7-0.3-1.1c0-0.4,0.1-0.8,0.2-1.1
	c0.1-0.3,0.4-0.6,0.6-0.9c0.6-0.4,1.3-0.5,2-0.3c0.3,0.1,0.5,0.2,0.7,0.4c0.2,0.2,0.4,0.4,0.5,0.7h-0.5c-0.1-0.2-0.3-0.4-0.5-0.6
	c-0.3-0.1-0.6-0.2-0.9-0.2c-0.3,0-0.6,0.1-0.9,0.3c-0.2,0.2-0.4,0.4-0.5,0.6c-0.2,0.6-0.2,1.2,0.1,1.7c0.1,0.2,0.4,0.4,0.6,0.6
	C30.5,5,30.8,5.1,31.1,5c0.3,0,0.6-0.1,0.9-0.3c0.2-0.2,0.4-0.4,0.5-0.7h0.5c-0.1,0.3-0.2,0.5-0.3,0.7C32.4,5,32.2,5.2,32,5.3
	C31.7,5.4,31.3,5.5,31,5.5z"/>
<path class="st0" d="M34.5,5.4l0.5-4.2l2,0.2c0.4,0,0.7,0.2,1,0.5c0.2,0.3,0.3,0.6,0.3,1c0,0.2-0.1,0.5-0.2,0.6
	c-0.1,0.1-0.3,0.3-0.4,0.3c-0.2,0.1-0.3,0.1-0.5,0.1L38,5.8l-0.6-0.1L36.6,4l-1.5-0.2l-0.2,1.6L34.5,5.4z M35.2,3.4l1.5,0.2
	c0.2,0,0.3,0,0.5,0c0.2,0,0.3-0.1,0.4-0.2c0.1-0.1,0.2-0.3,0.2-0.5c0-0.2,0-0.5-0.2-0.7c-0.2-0.2-0.4-0.3-0.7-0.3l-1.5-0.2L35.2,3.4
	z"/>
<path class="st0" d="M39.5,6.1L40.7,2l3,0.9l-0.1,0.4L41,2.6L40.6,4l2.3,0.7l-0.1,0.4l-2.3-0.7l-0.4,1.4l2.5,0.8l-0.1,0.4L39.5,6.1z
	"/>
<path class="st0" d="M43.5,7.4l3.5-3l0.5,0.3l-0.3,4.6l-0.5-0.2l0.1-1.3L45,6.8l-1,0.9L43.5,7.4z M45.4,6.5l1.5,0.8L47.1,5L45.4,6.5
	z"/>
<path class="st0" d="M48.9,10.5l2.3-3.1l-1.2-0.9l0.3-0.4l2.8,2l-0.3,0.4l-1.2-0.9l-2.3,3.1L48.9,10.5z"/>
<path class="st0" d="M51.5,12.7l2.9-3.1l0.3,0.3L51.9,13L51.5,12.7z"/>
<path class="st0" d="M54,15.3l2.2-4l0.3,0.4l-2,3.5l3.8-1.2l0.3,0.4l-4.4,1.4L54,15.3z"/>
<path class="st0" d="M56.1,18.2l3.7-2.1l1.5,2.8L61,19.1l-1.3-2.3l-1.2,0.7l1.1,2.1l-0.4,0.2L58,17.7l-1.3,0.7l1.3,2.3l-0.4,0.2
	L56.1,18.2z"/>
<path class="st0" d="M1.2,36.7c-0.1-0.3-0.1-0.7,0-1c0.1-0.3,0.2-0.5,0.4-0.7c0.2-0.2,0.4-0.3,0.6-0.3l0.1,0.5
	c-0.2,0-0.4,0.1-0.5,0.3c-0.1,0.2-0.2,0.3-0.2,0.5c0,0.2,0,0.5,0,0.7c0,0.3,0.1,0.6,0.3,0.8c0.1,0.2,0.4,0.3,0.6,0.2
	c0.1,0,0.3-0.1,0.3-0.2C2.9,37.5,3,37.3,3,37.2c0-0.2,0.1-0.4,0.1-0.6c0-0.2,0-0.4,0.1-0.6c0-0.2,0.1-0.4,0.1-0.6
	c0.1-0.2,0.1-0.3,0.3-0.5c0.1-0.1,0.3-0.2,0.5-0.2c0.3-0.1,0.7,0,0.9,0.3c0.3,0.3,0.5,0.7,0.5,1.2c0.1,0.3,0.1,0.7,0,1
	c-0.1,0.2-0.2,0.4-0.4,0.6C4.9,37.9,4.7,38,4.5,38l-0.1-0.5C4.7,37.4,4.9,37.2,5,37c0.1-0.3,0.2-0.6,0.1-0.9c0-0.2-0.1-0.4-0.1-0.6
	c-0.1-0.1-0.1-0.2-0.2-0.3c-0.1-0.1-0.2-0.1-0.2-0.1c-0.1,0-0.2,0-0.2,0c-0.1,0-0.2,0.1-0.3,0.2c-0.1,0.1-0.1,0.3-0.2,0.5
	c0,0.2-0.1,0.4-0.1,0.6c0,0.2,0,0.4-0.1,0.6c0,0.2-0.1,0.4-0.2,0.6c-0.1,0.2-0.2,0.3-0.3,0.5c-0.1,0.1-0.3,0.2-0.5,0.2
	c-0.4,0.1-0.7-0.1-1-0.3C1.4,37.6,1.2,37.2,1.2,36.7z"/>
<path class="st0" d="M1.9,40.1l4.1-1l0.1,0.5l-4.1,1L1.9,40.1z"/>
<path class="st0" d="M2.4,42.2L2.8,42L7,43.4l-1-2.6l0.4-0.2l1.2,3.1L7.2,44L3,42.6l1,2.6l-0.4,0.2L2.4,42.2z"/>
<path class="st0" d="M4.4,47l3.7-2.1l1.5,2.7l-0.4,0.2l-1.3-2.3l-1.2,0.7l1.2,2.1l-0.4,0.2l-1.2-2.1L5,47.2l1.3,2.3l-0.4,0.2L4.4,47
	z"/>
<path class="st0" d="M9.6,54.4c-0.2-0.2-0.4-0.5-0.5-0.8C9,53.4,9,53.1,9,52.9c0-0.3,0.1-0.5,0.2-0.8c0.1-0.3,0.3-0.5,0.5-0.7
	c0.2-0.2,0.5-0.4,0.7-0.5c0.3-0.1,0.5-0.2,0.8-0.2c0.3,0,0.6,0.1,0.8,0.2c0.3,0.1,0.5,0.3,0.7,0.5c0.2,0.2,0.4,0.5,0.5,0.8
	c0.1,0.3,0.1,0.5,0.1,0.8c0,0.3-0.1,0.6-0.2,0.8c-0.1,0.3-0.3,0.5-0.5,0.7c-0.2,0.2-0.5,0.4-0.7,0.5c-0.3,0.1-0.5,0.2-0.8,0.2
	c-0.3,0-0.6-0.1-0.8-0.2C10,54.8,9.8,54.7,9.6,54.4z M9.9,54.1c0.2,0.2,0.5,0.4,0.8,0.5c0.3,0.1,0.6,0.1,0.9,0
	c0.3-0.1,0.6-0.2,0.8-0.4c0.2-0.2,0.4-0.5,0.5-0.7c0.2-0.6,0-1.2-0.4-1.7c-0.2-0.2-0.5-0.4-0.8-0.5c-0.3-0.1-0.6-0.1-0.9,0
	c-0.3,0.1-0.6,0.2-0.8,0.5c-0.2,0.2-0.4,0.5-0.5,0.7c-0.1,0.3-0.1,0.6-0.1,0.8C9.5,53.6,9.7,53.9,9.9,54.1z"/>
<path class="st0" d="M12.5,57.2l2.5-3.4l0.4,0.3v4.4l2.1-2.9L18,56l-2.5,3.4l-0.4-0.3v-4.5l-2.1,2.9L12.5,57.2z"/>
<path class="st0" d="M20.3,62l1.5-3.5l-1.4-0.6l0.2-0.4l3.2,1.3l-0.2,0.4l-1.4-0.6l-1.5,3.5L20.3,62z"/>
<path class="st0" d="M23.7,63.2l1-4.2l0.5,0.1l-0.4,1.8l2.4,0.6l0.4-1.8l0.5,0.1l-1,4.1L26.6,64l0.5-1.8l-2.4-0.6l-0.5,1.8
	L23.7,63.2z"/>
<path class="st0" d="M29.2,64.4l0.3-4.3l3.1,0.2v0.5L30,60.6L29.9,62l2.4,0.2v0.5l-2.4-0.2l-0.1,1.4l2.7,0.2v0.5L29.2,64.4z"/>
<path class="st0" d="M38.3,64.2c-0.3,0.1-0.6,0.1-0.9,0c-0.3-0.1-0.5-0.2-0.8-0.3c-0.2-0.2-0.4-0.4-0.5-0.6
	c-0.1-0.3-0.2-0.5-0.3-0.8c-0.1-0.3-0.1-0.6,0-0.9c0.1-0.3,0.2-0.5,0.3-0.8c0.2-0.2,0.4-0.4,0.6-0.6c0.3-0.2,0.5-0.3,0.8-0.3
	c0.3-0.1,0.6-0.1,0.9,0c0.3,0.1,0.5,0.2,0.8,0.3c0.5,0.4,0.8,0.9,0.8,1.4c0.1,0.3,0.1,0.6,0,0.9c-0.1,0.3-0.2,0.5-0.3,0.8
	c-0.2,0.2-0.4,0.4-0.6,0.6C38.9,64,38.6,64.1,38.3,64.2z M38.2,63.7c0.3,0,0.6-0.2,0.8-0.4c0.2-0.2,0.4-0.4,0.5-0.7
	c0.1-0.3,0.1-0.6,0-0.9c0-0.3-0.2-0.6-0.3-0.8c-0.2-0.2-0.4-0.4-0.7-0.5c-0.3-0.1-0.6-0.1-0.9-0.1c-0.3,0-0.6,0.2-0.8,0.4
	c-0.2,0.2-0.4,0.4-0.5,0.7c-0.1,0.3-0.1,0.6-0.1,0.9c0,0.3,0.2,0.6,0.3,0.8c0.2,0.2,0.4,0.4,0.7,0.5C37.6,63.7,37.9,63.8,38.2,63.7z
	"/>
<path class="st0" d="M43.1,62.9l-1.2-3.6l-1.4,0.5l-0.2-0.4l3.3-1.1l0.1,0.4l-1.4,0.5l1.2,3.6L43.1,62.9z"/>
<path class="st0" d="M46.5,61.6l-2-3.8l0.4-0.2l0.9,1.7l2.2-1.2l-0.9-1.7l0.4-0.2l2,3.8l-0.4,0.2l-0.9-1.7L46,59.7l0.9,1.7
	L46.5,61.6z"/>
<path class="st0" d="M51.3,58.8l-2.6-3.4l2.5-1.9l0.3,0.4l-2.1,1.6l0.9,1.1l1.9-1.5l0.3,0.4L50.6,57l0.9,1.1l2.1-1.6l0.3,0.4
	L51.3,58.8z"/>
<path class="st0" d="M55.2,55.6l-3.1-2.9l1.4-1.5c0.3-0.3,0.6-0.5,1-0.5c0.4,0,0.7,0.1,1,0.4c0.2,0.1,0.3,0.3,0.4,0.6
	c0,0.2,0,0.4,0,0.5c0,0.2-0.1,0.3-0.2,0.5l2,0.4l-0.4,0.4l-1.9-0.4l-1,1.1l1.2,1.1L55.2,55.6z M54,53.8l1-1.1
	c0.1-0.1,0.2-0.2,0.3-0.4c0.1-0.1,0.1-0.3,0.1-0.5c0-0.2-0.1-0.4-0.3-0.5c-0.2-0.2-0.4-0.3-0.7-0.2c-0.3,0-0.5,0.2-0.7,0.4l-1,1.1
	L54,53.8z"/>
<path class="st0" d="M60.8,48.4c-0.2,0.3-0.4,0.6-0.7,0.8c-0.2,0.2-0.4,0.3-0.7,0.3c-0.2,0-0.5,0-0.7-0.1l0.2-0.4
	c0.2,0.1,0.4,0.1,0.5,0.1c0.2-0.1,0.4-0.2,0.5-0.3c0.2-0.2,0.3-0.3,0.4-0.5c0.2-0.3,0.2-0.5,0.3-0.8c0-0.2-0.1-0.4-0.3-0.5
	c-0.1-0.1-0.3-0.1-0.4,0c-0.1,0.1-0.3,0.1-0.4,0.2c-0.1,0.1-0.3,0.3-0.4,0.4l-0.5,0.5c-0.1,0.1-0.3,0.3-0.5,0.4
	c-0.1,0.1-0.3,0.2-0.5,0.2c-0.2,0-0.4,0-0.5-0.1c-0.3-0.2-0.5-0.4-0.5-0.8c0-0.4,0.1-0.9,0.3-1.2c0.1-0.3,0.4-0.5,0.6-0.7
	c0.2-0.1,0.4-0.2,0.7-0.2c0.2,0,0.4,0,0.6,0.1l-0.2,0.4c-0.2-0.1-0.4-0.1-0.6,0c-0.3,0.1-0.5,0.4-0.6,0.6c-0.1,0.2-0.2,0.4-0.2,0.5
	c0,0.1,0,0.3,0,0.4c0,0.1,0.1,0.2,0.1,0.2c0.1,0.1,0.1,0.1,0.2,0.2c0.1,0.1,0.3,0.1,0.4,0c0.1-0.1,0.3-0.1,0.4-0.2
	c0.1-0.1,0.3-0.3,0.4-0.4l0.5-0.5c0.1-0.1,0.3-0.3,0.5-0.4c0.2-0.1,0.3-0.2,0.5-0.2c0.2,0,0.4,0,0.5,0.1c0.3,0.2,0.5,0.5,0.6,0.8
	C61.2,47.6,61.1,48.1,60.8,48.4z"/>
<path class="st0" d="M62.3,45.4l-3.9-1.7l0.2-0.5l3.9,1.7L62.3,45.4z"/>
<path class="st0" d="M63.3,43l-4.1-1.2l0.5-1.7c0.1-0.2,0.2-0.5,0.3-0.7c0.2-0.2,0.4-0.4,0.6-0.5c0.2-0.1,0.5-0.2,0.8-0.2
	c0.3,0,0.6,0,0.9,0.1c0.3,0.1,0.6,0.2,0.8,0.4c0.2,0.2,0.4,0.4,0.5,0.6c0.1,0.2,0.2,0.5,0.2,0.7c0,0.2,0,0.5-0.1,0.7L63.3,43z
	 M63,42.4l0.3-1.2c0.1-0.3,0.1-0.6,0-0.8c-0.1-0.3-0.2-0.5-0.5-0.7c-0.4-0.4-1-0.5-1.6-0.5c-0.3,0-0.5,0.2-0.7,0.3
	c-0.2,0.2-0.4,0.4-0.4,0.7l-0.3,1.2L63,42.4z"/>
<path class="st0" d="M64.6,37.5l-4.2-0.4l0.3-3.1h0.5l-0.3,2.6l1.4,0.2l0.2-2.4l0.5,0l-0.2,2.4l1.4,0.2l0.3-2.6h0.5L64.6,37.5z"/>
</svg>
