<?xml version="1.0" encoding="utf-8"?>
<!-- Generator: Adobe Illustrator 21.1.0, SVG Export Plug-In . SVG Version: 6.00 Build 0)  -->
<svg version="1.1" id="Layer_1" xmlns="http://www.w3.org/2000/svg" xmlns:xlink="http://www.w3.org/1999/xlink" x="0px" y="0px"
	 viewBox="0 0 155.7 155.7" style="enable-background:new 0 0 155.7 155.7;" xml:space="preserve">
<style type="text/css">
	.st0{fill:#fff;}
</style>
<g>
	<g>
		<path class='st0' d="M5.4,64.8l8-2l-6-5.3l14.5-3.7l-0.5,2l-12,3l4.5,3.9l6.1-1.6l-0.5,2l-12,3l9.1,8l-0.1,0.3L5.4,64.8z"/>
		<path class='st0' d="M7,80.9c-0.1,0-0.2-0.1-0.3-0.2c-0.3-0.2-0.5-0.4-0.8-0.6c-0.4-0.4-0.7-0.8-0.9-1.2c-0.6-1-0.9-2.2-0.8-3.4
			c0-0.6,0.2-1.3,0.5-1.8c0.3-0.5,0.6-1,1.1-1.3c0.5-0.3,0.9-0.6,1.5-0.8c0.5-0.2,1.1-0.3,1.6-0.3c0.5,0,1.1,0.1,1.6,0.3l0.3,0.2
			c0.2,0.1,0.5,0.3,0.7,0.5c0.3,0.2,0.6,0.5,0.9,0.8c0.3,0.4,0.6,0.8,0.8,1.2c0.3,0.5,0.5,1,0.6,1.6c0.2,1,0.1,2-0.2,3
			c-0.1,0.3-0.2,0.5-0.3,0.8c-0.1,0.2-0.2,0.3-0.4,0.5c-0.1,0.1-0.3,0.2-0.4,0.2c-0.1,0-0.2,0.1-0.3,0.1H12c-0.9,0-1.2-0.8-1.2-2.2
			l0.2-5.3c-0.7-0.2-1.3-0.2-2-0.1c-0.7,0.1-1.4,0.3-2,0.7c-1.3,0.8-2.1,2.1-2.1,3.7c0,0.7,0.2,1.4,0.5,2c0.4,0.7,0.9,1.3,1.6,1.8
			V80.9z M12.4,73.6c-0.3-0.3-0.7-0.6-1.2-0.7l-0.1,4v1c0,0.3,0.1,0.6,0.3,0.8c0.2,0.1,0.5,0.1,0.7-0.1c0.3-0.2,0.5-0.4,0.7-0.6
			C13.7,76.5,13.5,74.7,12.4,73.6L12.4,73.6z"/>
		<path class='st0' d="M13.9,87.6c0.3,0.5,0.5,1.1,0.6,1.7c0.1,0.6,0.1,1.3,0,1.9c-0.1,0.6-0.2,1.2-0.5,1.8c-0.2,0.5-0.6,1-1,1.4
			c-0.4,0.4-0.9,0.6-1.4,0.7l-2.6,0.5H8.8c-1.7,0.3-2.6,0.8-2.6,1.6c-0.2-0.7-0.2-1.4-0.1-2.1c0.1-0.4,0.5-0.7,1.2-0.8l1.4-0.2
			l1.2-0.2h0c-1.5-0.4-3-1.1-4.1-2.2c-0.5-0.5-0.9-1.2-1-1.9c-0.2-0.9,0-1.8,0.7-2.5c0.6-0.6,1.4-0.7,2.2-0.4
			c1.3,0.6,2.3,1.8,2.7,3.2c0,0,0,0.1,0.1,0.1c0,0.1,0.1,0.2,0.1,0.3s0.1,0.3,0.2,0.5s0.1,0.3,0.3,0.6s0.2,0.4,0.3,0.6
			c0.1,0.2,0.2,0.4,0.3,0.6c0.1,0.2,0.2,0.3,0.3,0.5c0.1,0.1,0.2,0.2,0.3,0.3c0.1,0.1,0.2,0.1,0.3,0.1c1.1-0.2,1.6-0.6,1.7-1.5
			c0-1.1-0.4-2.2-1-3.1l-1.5-2.5L13.9,87.6z M7,88.3c-0.8,0.6-1,1.6-0.6,2.4c0.5,0.9,1.3,1.7,2.3,2.2c0.8,0.6,1.8,0.8,2.8,0.8
			l0.6-0.1l-0.1,0c-0.1-0.1-0.2-0.1-0.2-0.2c-0.1-0.2-0.3-0.3-0.4-0.5c-0.2-0.3-0.4-0.7-0.5-1c-0.2-0.4-0.4-0.9-0.7-1.5
			c0-0.1-0.1-0.2-0.1-0.2l-0.2-0.4c-0.1-0.2-0.2-0.3-0.3-0.5c-0.1-0.2-0.2-0.4-0.4-0.5c-0.1-0.2-0.3-0.3-0.4-0.4
			c-0.2-0.1-0.3-0.2-0.5-0.3c-0.2,0-0.4,0-0.6,0C7.4,88,7.2,88.1,7,88.3z"/>
		<path class='st0' d="M8.1,98.9l5.6-1.7l2.2-0.7l0.4,1.5l-2.7,0.8c0.7-0.1,1.4,0.2,2,0.6c0.8,0.5,1.5,1.2,1.7,2.2c0.2,0.5,0.3,1,0.4,1.5
			l-1.1-0.4c-0.1-0.1-0.2-0.2-0.3-0.3c-0.1-0.2-0.2-0.4-0.2-0.6l-0.1-0.3c-0.2-0.5-0.4-1-0.8-1.5c-0.2-0.3-0.5-0.6-0.8-0.8
			c-0.2-0.1-0.5-0.2-0.7-0.2c-0.2,0-0.4,0-0.5,0l-4.8,1.5l-1,0.4L7,99.2L8.1,98.9z"/>
		<path class='st0' d="M15.8,113.7h-0.4c-0.3,0-0.7-0.1-1-0.2c-0.5-0.1-0.9-0.4-1.4-0.7c-1-0.6-1.8-1.6-2.3-2.7c-0.3-0.6-0.4-1.2-0.4-1.9
			c0-0.6,0.1-1.2,0.3-1.7c0.2-0.5,0.5-1,0.9-1.4c0.4-0.4,0.8-0.8,1.3-1c0.5-0.2,1-0.4,1.6-0.4h0.3c0.3,0,0.6,0,0.8,0.1
			c0.4,0.1,0.8,0.2,1.2,0.3c0.5,0.2,0.9,0.4,1.3,0.7c0.5,0.3,0.9,0.7,1.3,1.1c0.6,0.8,1,1.8,1.2,2.8c0.1,0.3,0.1,0.6,0.1,0.9
			c0,0.2-0.1,0.4-0.1,0.6c-0.1,0.1-0.1,0.3-0.2,0.4c-0.1,0.1-0.1,0.2-0.2,0.2l-0.2,0.1c-0.8,0.4-1.5-0.1-2.1-1.4l-2.2-4.9
			c-0.6,0.2-1.2,0.4-1.8,0.8c-0.5,0.4-1,0.9-1.4,1.5c-0.8,1.3-1,2.9-0.3,4.3c0.3,0.6,0.8,1.2,1.4,1.5c0.7,0.5,1.5,0.8,2.3,0.8
			L15.8,113.7z M17.2,104.7c-0.5-0.1-0.9-0.2-1.4-0.1l1.8,3.6l0.5,0.8c0.2,0.3,0.4,0.5,0.6,0.5c0.3,0,0.5-0.1,0.6-0.4
			c0.2-0.3,0.3-0.6,0.3-0.9c0.1-0.8-0.2-1.7-0.7-2.3C18.5,105.4,17.9,104.9,17.2,104.7L17.2,104.7z"/>
		<path class='st0' d="M31,125.1L31,125.1c0.5-0.9,1-1.9,1.2-2.9c0.3-0.9,0.1-1.8-0.4-2.5l-0.9-1.2l-9.9,7.8l-1-1.3l9.8-7.9l-0.9-1.1
			c-0.6-0.7-1.5-1-2.4-0.9c-1.1,0-2.1,0.2-3.1,0.6l0-0.1l3.9-2.1l6.6,8.2L31,125.1z"/>
		<path class='st0' d="M34.6,122.4h2l-4.4,5.1c0.9-0.2,1.9-0.1,2.7,0.2c0.8,0.2,1.5,0.7,2.1,1.2c0.5,0.6,0.8,1.3,0.8,2c0,0.8-0.2,1.6-0.8,2.1
			L33,138l-1.1-1l4-4.6c0.7-0.6,1-1.5,0.8-2.4c-0.2-0.8-0.7-1.5-1.5-1.9c-0.9-0.4-2-0.6-3-0.4l-4.7,5.4l-1.1-1L34.6,122.4z"/>
		<path class='st0' d="M45,142.3c-0.1,0.1-0.2,0.2-0.3,0.2c-0.3,0.2-0.6,0.3-0.9,0.4c-0.5,0.2-1,0.2-1.5,0.2c-1.2,0-2.4-0.3-3.4-0.9
			c-0.5-0.3-1-0.8-1.4-1.3c-0.3-0.5-0.6-1-0.7-1.6c-0.1-0.6-0.1-1.1,0-1.7c0.1-0.6,0.2-1.1,0.5-1.6c0.3-0.5,0.6-0.9,1-1.2l0.3-0.2
			c0.1-0.1,0.4-0.2,0.7-0.4c0.4-0.2,0.7-0.3,1.1-0.4c0.5-0.1,1-0.2,1.5-0.2c0.6,0,1.1,0.1,1.7,0.2c1,0.4,1.8,0.9,2.6,1.7
			c0.2,0.2,0.4,0.4,0.5,0.7c0.1,0.2,0.2,0.4,0.2,0.6c0,0.2,0,0.3,0,0.5c0,0.1,0,0.2-0.1,0.3c0,0.1,0,0.1-0.1,0.2
			c-0.4,0.7-1.3,0.7-2.5,0l-4.6-2.8c-0.4,0.5-0.8,1.1-1,1.7c-0.2,0.6-0.4,1.3-0.4,2c0,0.7,0.2,1.4,0.5,2c0.4,0.7,0.9,1.3,1.6,1.7
			c0.6,0.3,1.3,0.5,2,0.5c0.8,0,1.6-0.2,2.3-0.6L45,142.3z M41.2,134.1c-0.4,0.1-0.9,0.4-1.2,0.7l3.5,2l0.8,0.4
			c0.2,0.2,0.6,0.2,0.8,0.1c0.2-0.2,0.3-0.4,0.3-0.7c0-0.3-0.1-0.6-0.2-0.9C44.4,134.3,42.8,133.6,41.2,134.1L41.2,134.1z"/>
		<path class='st0' d="M54.4,136.2l-0.9-0.7l6,2c1.3,0.4,2.6,1.1,3.6,2c0.8,0.7,1.1,1.8,0.8,2.8c-0.3,0.8-1,1.5-1.9,1.7c-1,0.3-2.1,0.3-3.1-0.1
			l-0.5-0.1c0.9,0.3,1.7,0.9,2.3,1.7c0.6,0.7,0.8,1.8,0.5,2.7c-0.2,0.5-0.4,1-0.8,1.4c-0.4,0.3-0.8,0.6-1.3,0.7
			c-0.5,0.1-1,0.1-1.4,0.1c-0.5,0-0.9-0.1-1.4-0.3l-5.7-1.9L54.4,136.2z M56.3,149.7c1.5,0.5,2.6-0.2,3.3-2.1s0.1-3.4-1.8-4
			l-3.5-1.2l-2,5.9L56.3,149.7z M58.1,143.4c0.8,0.3,1.6,0.3,2.4,0c0.8-0.2,1.3-0.8,1.6-1.6c0.4-0.9,0.2-1.8-0.3-2.6
			c-0.9-0.9-2.1-1.6-3.3-1.9l-2.2-0.7l-1.8,5.5L58.1,143.4z"/>
		<path class='st0' d="M63.6,150.6l1-5.8l0.4-2.3l1.5,0.2l-0.5,2.7c0.3-0.7,0.8-1.2,1.4-1.6c0.8-0.5,1.8-0.7,2.7-0.6c0.5,0.1,1,0.2,1.5,0.3
			l-0.8,0.8c-0.1,0.1-0.3,0.1-0.4,0.1c-0.2,0-0.4,0-0.6,0h-0.3c-0.6-0.1-1.1-0.1-1.7,0c-0.4,0-0.8,0.2-1.1,0.4
			c-0.2,0.1-0.4,0.3-0.5,0.5c-0.1,0.1-0.2,0.3-0.2,0.5l-0.8,4.9l-0.1,1l-1.6-0.3L63.6,150.6z"/>
		<path class='st0' d="M72.8,143.9c0.6-0.2,1.2-0.3,1.8-0.3c0.6,0,1.3,0.1,1.9,0.3c0.6,0.2,1.1,0.5,1.7,0.8c0.5,0.3,0.9,0.8,1.2,1.3
			c0.3,0.5,0.4,1,0.4,1.5c0,1.1-0.1,2-0.1,2.7v0.3c-0.1,1.7,0.3,2.7,1,2.9c-0.7,0-1.4-0.1-2-0.4c-0.4-0.2-0.5-0.7-0.6-1.4v-1.4
			l0.1-1.2l0,0c-0.7,1.4-1.7,2.7-3,3.6c-0.6,0.4-1.3,0.6-2.1,0.6c-0.9,0.1-1.8-0.4-2.3-1.1c-0.5-0.7-0.5-1.5,0-2.2
			c0.9-1.2,2.2-1.9,3.7-2h0.1l0.3-0.1l0.5-0.1l0.6-0.1l0.6-0.2c0.2,0,0.4-0.1,0.6-0.2s0.4-0.1,0.5-0.2c0.1-0.1,0.2-0.1,0.3-0.2
			c0.1-0.1,0.1-0.1,0.1-0.2c0.1-1.1-0.3-1.7-1.1-2c-1.1-0.2-2.2-0.1-3.2,0.3l-2.8,0.9L72.8,143.9z M72.1,150.8
			c0.4,0.9,1.3,1.3,2.3,1.1c1-0.3,1.9-1,2.6-1.8c0.7-0.7,1.2-1.6,1.3-2.6v-0.6h-0.1l-0.3,0.2c-0.2,0.1-0.4,0.2-0.6,0.3
			c-0.3,0.1-0.7,0.2-1,0.3c-0.5,0.1-1,0.2-1.6,0.4h-0.3l-0.5,0.1c-0.2,0-0.4,0.1-0.6,0.2c-0.2,0.1-0.4,0.1-0.6,0.2
			c-0.2,0.1-0.4,0.2-0.5,0.4c-0.2,0.1-0.3,0.3-0.4,0.5c-0.1,0.2-0.1,0.4-0.1,0.6C71.9,150.2,72,150.5,72.1,150.8z"/>
		<path class='st0' d="M82.8,153.1l-1.2-9.2l1.5-0.2l0.2,1.8c0.4-0.6,0.9-1.2,1.6-1.6c0.6-0.4,1.2-0.7,1.9-0.8c0.6-0.1,1.2-0.1,1.8,0
			c0.6,0.1,1.1,0.4,1.5,0.9c0.4,0.5,0.7,1.1,0.8,1.7l0.8,6.3l-1.5,0.2l-0.8-6c0-0.7-0.3-1.4-0.8-1.9c-0.4-0.4-1-0.7-1.6-0.7
			c-0.7,0-1.3,0.2-1.9,0.5c-0.7,0.4-1.3,1-1.8,1.6l0.9,7.2L82.8,153.1z"/>
		<path class='st0' d="M92.8,145.8c0-0.5,0.1-1,0.2-1.4c0.2-0.5,0.4-1,0.7-1.5c0.3-0.5,0.8-1,1.2-1.3c0.6-0.4,1.2-0.7,1.9-0.8
			c0.8-0.1,1.7-0.1,2.5,0.1l-1.4-4.7l1-1.7l3.5,11.6c0.5,1.6,1.1,2.4,1.9,2.4c-1.6,0.5-2.6,0.2-3-0.8c-0.5,1.4-1.6,2.5-3,2.8
			c-0.6,0.2-1.2,0.2-1.8,0.1c-0.6-0.1-1.1-0.3-1.5-0.6c-0.5-0.3-0.9-0.7-1.2-1.1c-0.4-0.4-0.6-0.9-0.8-1.5
			C92.9,146.8,92.8,146.3,92.8,145.8z M94,143.4c-0.3,0.7-0.3,1.4-0.1,2.1c0.2,0.8,0.5,1.5,1,2.2c0.5,0.7,1.2,1.2,1.9,1.5
			c0.8,0.3,1.6,0.4,2.4,0.1c1-0.3,1.7-1,2-2v-0.1l-1.4-4.7c-0.7-0.4-1.4-0.7-2.2-0.8c-0.7-0.1-1.5,0-2.2,0.2
			C94.8,142.2,94.3,142.7,94,143.4z"/>
		<path class='st0' d="M116,142.8c-0.3,0.2-0.6,0.3-0.9,0.5l-0.7,0.4c-0.2,0.1-0.4,0.2-0.7,0.3c-0.3,0.1-0.4,0.2-0.6,0.2
			c-0.2,0.1-0.4,0.1-0.6,0.2l-0.5,0.1l-0.5,0.1l-0.5,0.1l-3-4l0.1-0.1c0.5,0.6,1,1.2,1.6,1.7c0.5,0.4,1,0.7,1.6,0.9
			c0.5,0.2,1.1,0.3,1.6,0.2c0.5,0,1-0.1,1.5-0.3c0.5-0.2,1-0.4,1.4-0.7c0.5-0.3,0.9-0.6,1.2-1c0.3-0.3,0.5-0.6,0.6-1
			c0-0.3,0-0.6,0-0.9c0-0.2-0.1-0.5-0.2-0.7c-0.2-0.4-0.6-0.7-1-0.8c-0.5-0.2-1-0.2-1.6-0.2c-0.6,0-1.2,0.1-1.8,0.2s-1.3,0.2-2,0.3
			c-0.6,0.1-1.3,0.1-1.9,0.1c-0.6,0-1.2-0.1-1.7-0.4c-0.5-0.2-1-0.6-1.2-1.1c-0.1-0.2-0.2-0.4-0.3-0.7c-0.1-0.3-0.1-0.7-0.1-1
			c0-0.4,0.1-0.8,0.3-1.1c0.2-0.5,0.5-0.9,0.8-1.3c0.5-0.5,1-0.9,1.6-1.3c0.6-0.4,1.3-0.8,2-1.1c0.7-0.4,1.3-0.6,1.7-0.8l0.6-0.2
			l2.6,3.5h-0.1c-0.4-0.6-0.9-1.1-1.5-1.4c-0.6-0.3-1.2-0.4-1.9-0.4c-1.1,0-2.1,0.2-3.1,0.6c-0.9,0.4-1.7,1-2.3,1.8
			c-0.5,0.6-0.5,1.4-0.1,2.1c0.4,0.6,1,1,1.7,1c0.8,0.1,1.7,0,2.5-0.2c0.9-0.2,1.8-0.4,2.7-0.5c0.9-0.2,1.8-0.2,2.6,0
			c0.8,0.2,1.5,0.7,1.9,1.4c0.6,0.8,0.7,1.9,0.3,2.9C117.8,141.4,117,142.2,116,142.8z"/>
		<path class='st0' d="M125.7,132c0.1,0.8,0.1,1.6,0,2.4c-0.1,0.7-0.4,1.3-0.8,1.8c-0.3,0.4-0.8,0.8-1.3,1c-0.5,0.2-1,0.3-1.5,0.1
			c-0.5-0.2-1-0.5-1.3-0.9l-3.7-4.5l-0.9,0.8v-4.3l1.4,1.7l3-2.4v1.4l-2.3,1.9l4,5c0.4,0.6,1.1,0.8,1.7,0.5c0.8-0.4,1.3-1.2,1.4-2.1
			c0.2-0.7,0.2-1.5,0.1-2.3L125.7,132z"/>
		<path class='st0' d="M123.1,127.2c0-1.3,0.5-2.6,1.4-3.6c0.9-1,2.2-1.5,3.5-1.5c1.3-0.1,2.6,0.4,3.5,1.3c0.9,0.9,1.4,2.2,1.4,3.5
			c0,1.3-0.5,2.6-1.4,3.6c-0.9,1-2.1,1.6-3.4,1.6c-1.3,0.1-2.6-0.3-3.5-1.2C123.6,129.8,123.1,128.5,123.1,127.2z M131.4,129.9
			c0.6-0.6,0.9-1.5,0.7-2.4c-0.3-1.1-0.9-2.1-1.8-2.9c-0.9-0.9-2.1-1.5-3.3-1.6c-1,0-1.9,0.3-2.6,1.1c-0.7,0.7-0.9,1.6-0.7,2.6
			c0.3,1.2,1,2.2,2,2.9c0.9,0.8,2,1.3,3.2,1.3C129.8,130.9,130.7,130.5,131.4,129.9z"/>
		<path class='st0' d="M135.2,123.8l-4.7-3.4l-1.9-1.3l0.9-1.2l2.3,1.6c-0.5-0.6-0.8-1.3-0.8-2c-0.1-1,0.1-1.9,0.7-2.7c0.3-0.4,0.6-0.8,1-1.2
			l0.3,1.1c0,0.1,0,0.3-0.1,0.4c-0.1,0.2-0.2,0.4-0.3,0.5l-0.1,0.2c-0.3,0.5-0.6,1-0.8,1.5c-0.1,0.4-0.2,0.7-0.1,1.1
			c0,0.2,0.1,0.5,0.2,0.7c0.1,0.2,0.2,0.3,0.3,0.4l4,2.9l0.9,0.6l-1,1.3L135.2,123.8z"/>
		<path class='st0' d="M137.1,104.8l2,2.6c2,2.4,3.9,5,5.5,7.7c0.5,1.3,0.3,2.7-0.4,3.8l-1.8-0.9l0.1-0.2c0.1-0.1,0.2-0.2,0.3-0.4
			c0.1-0.2,0.3-0.4,0.4-0.6c0.1-0.2,0.3-0.5,0.4-0.8c0.1-0.3,0.2-0.6,0.2-0.9c0-0.3,0-0.7-0.1-1c-0.1-0.4-0.2-0.7-0.5-1l-10.5,0.3
			l0.8-1.6l8.5-0.2l-5.1-6.5L137.1,104.8z"/>
		<path class='st0' d="M146,99.3c0.6,0.6,1,1.3,1.3,2.1c0.3,0.6,0.4,1.3,0.3,2c-0.1,0.5-0.3,1.1-0.6,1.5c-0.3,0.4-0.7,0.7-1.2,0.9
			c-0.5,0.2-1.1,0.1-1.6-0.1l-5.5-1.9l-0.4,1.1l-2.3-3.7l2.1,0.7l1.3-3.6l0.7,1.2l-1,2.7l6,2.2c0.6,0.3,1.3,0.1,1.7-0.5
			c0.4-0.8,0.5-1.7,0.1-2.5c-0.2-0.7-0.6-1.4-1.1-2L146,99.3z"/>
		<path class='st0' d="M148,89.8c0.1,0.1,0.2,0.1,0.3,0.2c0.2,0.2,0.5,0.5,0.6,0.7c0.3,0.4,0.5,0.9,0.7,1.3c0.4,1.1,0.5,2.4,0.2,3.5
			c-0.1,0.6-0.4,1.2-0.8,1.7c-0.3,0.5-0.8,0.9-1.3,1.2c-0.5,0.3-1,0.5-1.6,0.6c-0.5,0.1-1.1,0.1-1.7,0c-0.5-0.1-1-0.3-1.5-0.6
			c-0.1-0.1-0.2-0.1-0.3-0.2c-0.2-0.2-0.4-0.4-0.6-0.6c-0.3-0.3-0.6-0.6-0.8-0.9c-0.3-0.4-0.5-0.8-0.6-1.3c-0.2-0.5-0.3-1.1-0.3-1.7
			c0-1,0.3-2.1,0.7-3c0.1-0.3,0.3-0.5,0.5-0.7c0.1-0.2,0.3-0.3,0.5-0.4c0.1-0.1,0.3-0.1,0.4-0.2c0.1,0,0.2,0,0.3,0
			c0.1,0,0.1,0,0.2,0c0.8,0.2,1.1,1,0.9,2.4l-1.1,5.2c0.6,0.3,1.3,0.4,1.9,0.4c0.7,0,1.4-0.1,2-0.3c1.4-0.5,2.5-1.7,2.8-3.2
			c0.1-0.7,0.1-1.4-0.2-2.1c-0.3-0.8-0.7-1.5-1.4-2L148,89.8z M141.5,96.1c0.3,0.4,0.6,0.7,1.1,0.9l0.7-4l0.1-1
			c0.1-0.4,0-0.7-0.2-0.8c-0.2-0.1-0.5-0.2-0.7-0.1c-0.3,0.1-0.6,0.3-0.8,0.5C140.7,92.9,140.6,94.7,141.5,96.1L141.5,96.1z"/>
		<path class='st0' d="M136.2,85.4c4,0.5,8,1,12,1.3c1.7,0.2,2.7-0.1,2.9-0.8c0,0.7-0.2,1.4-0.5,2c-0.4,0.4-0.9,0.6-1.4,0.4l-11.8-1.3
			L136.2,85.4z"/>
		<path class='st0' d="M136.4,81.8c4,0.3,8,0.5,12.1,0.6c1.7,0,2.7-0.3,2.9-1c0,0.7-0.1,1.4-0.4,2c-0.3,0.4-0.9,0.6-1.4,0.5l-11.9-0.6
			L136.4,81.8z"/>
		<path class='st0' d="M148.1,70.3c0.1,0,0.2,0.1,0.4,0.1c0.3,0.1,0.6,0.3,0.8,0.5c0.4,0.3,0.7,0.7,1,1.1c0.7,1,1.1,2.1,1.2,3.3
			c0,0.6,0,1.3-0.3,1.9c-0.2,0.6-0.5,1.1-0.9,1.5c-0.4,0.4-0.9,0.7-1.4,1c-0.5,0.3-1,0.4-1.6,0.5c-0.5,0-1.1,0-1.6-0.2l-0.3-0.1
			c-0.1-0.1-0.4-0.2-0.7-0.4c-0.4-0.2-0.7-0.4-1-0.7c-0.4-0.3-0.7-0.7-1-1.1c-0.3-0.5-0.5-1-0.7-1.5c-0.3-1-0.3-2-0.1-3
			c0-0.3,0.1-0.6,0.2-0.8c0.1-0.2,0.2-0.4,0.3-0.5c0.1-0.1,0.2-0.2,0.4-0.3c0.1-0.1,0.2-0.1,0.3-0.1c0.1,0,0.1,0,0.2,0
			c0.9,0,1.3,0.6,1.5,2l0.3,5.4c0.6,0.1,1.3,0,1.9-0.2c0.7-0.2,1.3-0.5,1.9-0.9c0.6-0.4,1-1,1.4-1.6c0.4-0.7,0.5-1.5,0.4-2.3
			c0-0.7-0.3-1.4-0.7-2C149.5,71.3,148.9,70.8,148.1,70.3L148.1,70.3z M143.6,78.2c0.4,0.3,0.8,0.5,1.3,0.6l-0.4-4l-0.1-1
			c0-0.4-0.2-0.6-0.4-0.7c-0.2-0.1-0.5,0-0.7,0.1c-0.3,0.2-0.5,0.4-0.6,0.7C141.9,75.4,142.3,77.2,143.6,78.2L143.6,78.2z"/>
		<path class='st0' d="M149.5,68.7l-5.8,1l-2.3,0.4l-0.3-1.5l2.7-0.5c-0.7,0-1.4-0.3-1.9-0.8c-0.8-0.6-1.3-1.4-1.5-2.3c-0.1-0.5-0.2-1-0.2-1.5
			l1,0.5c0.1,0.1,0.2,0.2,0.2,0.4c0.1,0.2,0.1,0.4,0.2,0.6l0.1,0.3c0.1,0.6,0.3,1.1,0.6,1.6c0.2,0.3,0.4,0.6,0.7,0.9
			c0.2,0.1,0.4,0.3,0.7,0.3c0.2,0,0.4,0,0.5,0l4.9-0.9l1.1-0.3l0.3,1.6L149.5,68.7z"/>
		<path class='st0' d="M145.3,61.6c1.3-0.3,2.3-1.4,2.6-2.7c0.2-1,0.1-2-0.4-2.9c-0.3-0.7-1-1.2-1.7-1.2c-0.2,0-0.3,0-0.5,0.1
			c-0.4,0.2-0.7,0.6-0.7,1c-0.1,0.6-0.2,1.2-0.2,1.8c0,0.7,0,1.4,0,2.1c0,0.7-0.1,1.3-0.4,1.9c-0.2,0.5-0.6,0.9-1.1,1.2
			c-1.2,0.6-2.6,0.1-3.2-1.1c-0.9-1.6-1.3-3.4-1.2-5.2l2.6-0.8v0.1c-0.4,0.2-0.7,0.4-1,0.7c-0.3,0.3-0.6,0.7-0.8,1.1
			c-0.2,0.5-0.3,1-0.3,1.5c0,0.7,0.2,1.3,0.5,1.9c0.1,0.2,0.2,0.4,0.3,0.6c0.1,0.2,0.3,0.4,0.4,0.5c0.2,0.2,0.4,0.3,0.6,0.4
			c0.2,0.1,0.5,0,0.7-0.1c0.4-0.2,0.7-0.6,0.8-1.1c0.2-0.6,0.2-1.2,0.2-1.9c0-0.7,0-1.4,0-2.1c0-0.7,0.1-1.3,0.3-1.9
			c0.2-0.5,0.6-1,1.1-1.2c0.4-0.2,0.8-0.3,1.3-0.2c0.4,0,0.7,0.1,1.1,0.3c0.4,0.2,0.7,0.6,1,0.9c0.3,0.5,0.6,1,0.7,1.6
			c0.2,0.7,0.3,1.2,0.4,1.7s0.2,1.1,0.4,2L145.3,61.6L145.3,61.6z"/>
	</g>
	<g>
		<path class='st0' d="M26.1,36.7c0.5,1.4,1.2,2.1,2.2,2.1L27,40.1L22.6,28c-0.4,0-0.8,0-1.1,0.2c-0.3,0.1-0.7,0.2-1,0.2l2.1-2.2l13.9,4.1
			L35,31.8l-5-1.5l-4.5,4.7L26.1,36.7z M22.9,28.1l2.5,6.6l4.3-4.5L22.9,28.1z"/>
		<path class='st0' d="M28.4,18c2.5,3.2,5,6.3,7.7,9.4c1.1,1.3,2,1.8,2.6,1.5c-0.5,0.5-1.1,0.9-1.7,1.1c-0.4,0.1-0.8-0.1-1.3-0.6l-7.6-9.2
			L28.4,18z"/>
		<path class='st0' d="M34.9,21.5l-0.4,1.1l0.7-3.4l0.8,1.2c0.2-0.7,0.6-1.3,1-1.9c0.4-0.5,0.9-0.9,1.4-1.2c0.5-0.3,1-0.4,1.6-0.5
			c0.5-0.1,1.1-0.1,1.6,0.1c0.5,0.1,1,0.4,1.5,0.6c0.5,0.3,0.8,0.7,1.1,1.2c0.3,0.5,0.5,1.1,0.6,1.7c0,0.1,0,0.3,0,0.5
			c0,0.4,0,0.7,0,1.1c0,0.5-0.1,1-0.2,1.5c-0.1,0.5-0.3,1-0.6,1.4c-0.3,0.5-0.7,0.9-1.1,1.2l-0.2,0.1c-0.1,0-0.2,0.1-0.5,0.2
			c-0.2,0.1-0.5,0.2-0.7,0.2c-0.2,0-0.5,0-0.7,0c-0.3,0-0.5-0.1-0.8-0.3l2.8,4.3l-0.6,1.9L34.9,21.5z M39.7,26
			c0.3,0.5,0.8,0.7,1.4,0.7c0.6,0,1.2-0.2,1.8-0.6c1.1-0.7,1.7-2,1.4-3.3c-0.2-1.3-0.8-2.5-1.8-3.4c-0.8-0.9-1.9-1.4-3.1-1.4
			c-1.4,0-2.4,1-3.1,2.7L39.7,26z"/>
		<path class='st0' d="M42.5,11.1l0.8-1.9l2.7,6.1c0.2-0.9,0.7-1.7,1.4-2.4c0.6-0.6,1.3-1.1,2.1-1.3c0.7-0.2,1.5-0.2,2.2,0.1
			c0.7,0.3,1.3,0.9,1.6,1.6l2.6,5.8l-1.3,0.6l-2.5-5.5c-0.3-0.9-1-1.5-1.9-1.8c-0.8-0.2-1.7,0-2.4,0.6c-0.8,0.7-1.4,1.6-1.7,2.6
			l2.9,6.6l-1.4,0.6L42.5,11.1z"/>
		<path class='st0' d="M56.5,9.5c0.5-0.4,1.1-0.6,1.7-0.8c0.6-0.2,1.3-0.3,1.9-0.2c0.6,0,1.2,0.1,1.8,0.3C62.5,9,63,9.3,63.4,9.7
			c0.4,0.4,0.7,0.8,0.8,1.3c0.3,1,0.5,1.9,0.7,2.6l0.1,0.2c0.4,1.7,1,2.5,1.8,2.4c-0.7,0.2-1.4,0.3-2.1,0.2
			c-0.4-0.1-0.7-0.5-0.9-1.1L63.5,14l-0.3-1.1v0.1c-0.2,1.6-0.9,3-1.9,4.3c-0.5,0.6-1.1,1-1.8,1.2c-0.9,0.3-1.8,0.1-2.5-0.4
			c-0.6-0.5-0.8-1.4-0.6-2.1c0.5-1.4,1.6-2.5,2.9-3l0.1-0.1c0.1,0,0.2-0.1,0.3-0.2c0.2-0.1,0.3-0.2,0.5-0.2l0.5-0.3
			c0.2-0.1,0.4-0.2,0.6-0.4l0.5-0.4c0.2-0.1,0.3-0.2,0.4-0.4c0.1-0.1,0.2-0.2,0.3-0.3c0.1-0.1,0.1-0.2,0.1-0.3
			c-0.2-1-0.8-1.6-1.6-1.6c-1.1,0.1-2.1,0.5-3,1.2l-2.4,1.7L56.5,9.5z M57.8,16.4c0.6,0.7,1.7,0.9,2.5,0.4c0.9-0.6,1.6-1.5,2-2.5
			c0.5-0.9,0.7-1.9,0.5-2.9l-0.1-0.6v0.1c-0.1,0.1-0.1,0.2-0.2,0.2c-0.1,0.1-0.3,0.3-0.5,0.4c-0.3,0.2-0.6,0.4-0.9,0.6
			c-0.4,0.2-0.9,0.5-1.4,0.8l-0.2,0.1L59,13.3l-0.5,0.3c-0.2,0.1-0.4,0.2-0.5,0.4c-0.2,0.1-0.3,0.3-0.4,0.5
			c-0.1,0.2-0.2,0.4-0.2,0.6c0,0.2,0,0.4,0.1,0.6C57.5,15.9,57.7,16.2,57.8,16.4z"/>
		<path class='st0' d="M70.8,8.6c0,1.2,0.3,2.3,0.8,3.4c0.4,1,1.1,1.8,1.9,2.5c0.8,0.6,1.7,0.9,2.7,0.9c1.1,0,2.3-0.3,3.3-0.8
			c1.2-0.7,2.2-1.6,3.1-2.6l-0.2,0.5c-0.3,0.4-0.6,0.7-1,1c-0.4,0.4-0.9,0.7-1.3,1c-0.6,0.4-1.1,0.7-1.8,0.9c-0.6,0.2-1.3,0.3-2,0.4
			c-1.9,0.1-3.8-0.5-5.2-1.8c-2.1-1.7-2.8-4.6-1.8-7.2c0.3-0.8,0.8-1.5,1.4-2.1c0.6-0.6,1.3-1.1,2.1-1.5c0.8-0.4,1.7-0.7,2.6-0.8
			c0.9-0.1,1.9-0.1,2.8,0.1c0.4,0.1,0.8,0.1,1.2,0.2c0.4,0.1,0.7,0.2,1.1,0.3l0.6,0.2l0.2,3.2c-0.5-0.9-1.1-1.8-1.9-2.4
			c-0.7-0.5-1.4-0.9-2.3-1.2c-0.8-0.2-1.5-0.2-2.3-0.1c-0.7,0.2-1.4,0.5-2,1c-0.6,0.5-1.1,1.2-1.4,2C71,6.8,70.8,7.7,70.8,8.6z"/>
		<path class='st0' d="M83.5,14.6l0.7-5.8l0.3-2.3L86,6.7l-0.3,2.8c0.2-0.7,0.7-1.3,1.3-1.6c0.8-0.6,1.7-0.8,2.7-0.7c0.5,0,1,0.1,1.5,0.3
			l-0.8,0.8c-0.1,0.1-0.3,0.1-0.4,0.1c-0.2,0-0.4,0-0.6,0h-0.2c-0.6-0.1-1.1,0-1.7,0.1c-0.4,0.1-0.7,0.2-1,0.4
			C86.2,9,86,9.2,85.9,9.4c-0.1,0.2-0.2,0.3-0.2,0.5L85,14.8v1.1l-1.6-0.2L83.5,14.6z"/>
		<path class='st0' d="M99.1,16c-0.1,0.1-0.1,0.2-0.2,0.3c-0.2,0.2-0.5,0.4-0.8,0.6c-0.4,0.3-0.9,0.5-1.4,0.6c-1.1,0.4-2.4,0.4-3.6,0.1
			c-0.6-0.2-1.2-0.4-1.7-0.8c-0.5-0.4-0.9-0.8-1.1-1.3c-0.3-0.5-0.4-1.1-0.5-1.6c-0.1-0.6-0.1-1.1,0-1.7c0.1-0.5,0.4-1,0.6-1.5
			c0.1-0.1,0.1-0.2,0.2-0.3c0.1-0.1,0.3-0.3,0.6-0.6c0.3-0.3,0.6-0.5,1-0.7c0.4-0.3,0.9-0.5,1.3-0.6c0.5-0.2,1.1-0.3,1.7-0.3
			c1,0,2,0.3,2.9,0.8c0.3,0.1,0.5,0.3,0.7,0.5c0.2,0.1,0.3,0.3,0.4,0.5c0.1,0.1,0.1,0.3,0.1,0.4c0,0.1,0,0.2,0,0.3
			c0,0.1,0,0.1,0,0.2c-0.2,0.8-1,1.1-2.4,0.8L92,10.5c-0.3,0.6-0.4,1.2-0.4,1.9c0,0.7,0.1,1.4,0.3,2.1c0.2,0.7,0.6,1.3,1.1,1.8
			c0.6,0.5,1.2,0.9,2,1.1c0.7,0.1,1.4,0.1,2.1-0.1c0.8-0.2,1.5-0.7,2-1.3L99.1,16z M93,9.2c-0.4,0.3-0.7,0.6-0.9,1l4,0.9l0.9,0.2
			c0.3,0.1,0.6,0,0.8-0.2c0.2-0.2,0.2-0.5,0.1-0.7c-0.1-0.3-0.3-0.6-0.5-0.8c-0.6-0.6-1.4-0.9-2.2-0.9C94.4,8.6,93.7,8.8,93,9.2z"/>
		<path class='st0' d="M103.6,11c0.6,0,1.2,0.1,1.8,0.4c0.6,0.2,1.2,0.6,1.7,1c0.5,0.4,0.9,0.9,1.2,1.4c0.3,0.5,0.6,1,0.7,1.6
			c0.1,0.5,0,1.1-0.2,1.5l-1,2.5l-0.1,0.2c-0.7,1.6-0.7,2.6-0.1,3c-0.7-0.2-1.3-0.6-1.8-1.1c-0.3-0.5-0.3-1,0-1.5l0.6-1.3l0.5-1.1v0
			c-1.1,1.1-2.6,1.9-4.1,2.2c-0.7,0.2-1.5,0.1-2.2-0.2c-0.9-0.3-1.6-1-1.8-1.9c-0.2-0.8,0.2-1.6,0.8-2c1.2-0.8,2.7-1,4.1-0.6h0.1
			l0.3,0.1l0.5,0.1l0.6,0.1l0.7,0.1h0.6h0.6c0.1,0,0.3,0,0.4-0.1c0.1,0,0.2-0.1,0.2-0.2c0.5-0.7,0.3-1.7-0.3-2.2
			c-0.9-0.6-2-0.9-3.1-0.9l-2.9-0.1L103.6,11z M100.4,17.2c0.2,1.1,0.8,1.7,1.7,1.8c1.1,0,2.1-0.2,3.1-0.8c0.9-0.4,1.7-1.1,2.2-2
			l0.2-0.5h-0.1c-0.1,0-0.2,0.1-0.3,0.1c-0.2,0-0.4,0-0.6,0.1c-0.4,0-0.7,0-1.1-0.1c-0.5-0.1-1-0.1-1.6-0.2h-0.2l-0.5-0.1
			c-0.2,0-0.4-0.1-0.6-0.1c-0.2,0-0.4,0-0.7,0c-0.2,0-0.4,0.1-0.6,0.1c-0.2,0.1-0.4,0.2-0.5,0.3c-0.2,0.1-0.3,0.3-0.3,0.5
			C100.4,16.7,100.4,17,100.4,17.2L100.4,17.2z"/>
		<path class='st0' d="M115,23.9c-0.7,0.4-1.5,0.7-2.3,0.9c-0.7,0.1-1.4,0.1-2-0.1c-0.5-0.2-1-0.5-1.4-0.9c-0.4-0.4-0.6-0.8-0.6-1.3
			c0-0.6,0.1-1.1,0.4-1.6l3-5l-1-0.6l4-1.5l-1.1,1.9l3.3,2l-1.3,0.5l-2.5-1.5l-3.3,5.5c-0.4,0.5-0.4,1.3,0.1,1.8
			c0.7,0.6,1.6,0.8,2.5,0.6c0.8-0.1,1.5-0.3,2.2-0.7L115,23.9z"/>
		<path class='st0' d="M115.8,26.6l-0.6,1l-1.4-1l0.7-0.9l4.7-6.7l1.2,0.9L115.8,26.6z M120.5,17.4c0-0.3,0-0.5,0.2-0.7c0.1-0.2,0.4-0.4,0.6-0.4
			c0.3-0.1,0.5,0,0.7,0.2c0.2,0.1,0.4,0.4,0.4,0.6c0,0.3,0,0.5-0.2,0.7c-0.1,0.2-0.4,0.4-0.6,0.4C121.1,18.3,120.6,17.9,120.5,17.4z
			"/>
		<path class='st0' d="M122,20.8l1.3,1.2l-1.7,8.7l8.2-3l0.2,0.2l-9.9,3.7l-0.3-0.3L122,20.8z"/>
		<path class='st0' d="M131.9,39.8l-0.4,0.1c-0.3,0.1-0.7,0.1-1,0.1c-0.5,0-1-0.1-1.5-0.2c-1.2-0.3-2.2-1-3-1.9c-0.4-0.5-0.7-1.1-0.9-1.7
			c-0.2-0.6-0.2-1.1-0.2-1.7c0.1-0.6,0.3-1.1,0.5-1.6c0.2-0.5,0.6-1,1-1.3c0.4-0.4,0.9-0.6,1.4-0.9l0.3-0.1c0.1,0,0.4-0.1,0.8-0.1
			c0.4,0,0.8-0.1,1.2-0.1c0.5,0,1,0.1,1.4,0.3c0.5,0.2,1.1,0.4,1.5,0.8c0.8,0.6,1.5,1.4,1.9,2.4c0.1,0.3,0.2,0.5,0.3,0.8
			c0.1,0.2,0.1,0.4,0.1,0.6c0,0.2-0.1,0.3-0.1,0.4c0,0.1-0.1,0.2-0.2,0.3L135,36c-0.7,0.6-1.5,0.3-2.4-0.8l-3.5-4.1
			c-0.6,0.3-1.1,0.8-1.5,1.3c-0.4,0.5-0.8,1.2-1,1.8c-0.2,0.7-0.3,1.4-0.1,2.1c0.1,0.8,0.5,1.5,1,2.1c0.5,0.5,1.1,0.9,1.8,1.1
			c0.8,0.3,1.6,0.3,2.4,0.1L131.9,39.8z M130.8,30.8c-0.5,0-0.9,0.1-1.4,0.3l2.7,3l0.7,0.7c0.3,0.3,0.5,0.4,0.8,0.3
			c0.2-0.1,0.4-0.3,0.5-0.5c0.1-0.3,0.1-0.6,0.1-0.9c-0.2-0.8-0.6-1.5-1.3-2C132.3,31.1,131.6,30.8,130.8,30.8L130.8,30.8z"/>
	</g>
</g>
</svg>
