<?xml version="1.0" encoding="utf-8"?>
<!-- Generator: Adobe Illustrator 24.1.0, SVG Export Plug-In . SVG Version: 6.00 Build 0)  -->
<svg version="1.1" id="Layer_1" xmlns="http://www.w3.org/2000/svg" xmlns:xlink="http://www.w3.org/1999/xlink" x="0px" y="0px"
	 viewBox="0 0 19.9 18.1" style="enable-background:new 0 0 19.9 18.1;" xml:space="preserve">
<style type="text/css">
	.st0{fill:#fff;}
</style>
<path class="st0" d="M15.1,14c-0.9-0.1-1.6-0.9-1.6-2.5c0.4-0.7,0.9-1.6,1.4-2.8l2.9-6.4c-3.4,0-4.6,1.7-4.9,2.3l-0.1,0.2
	c-0.2-2-1-2.9-2.4-2.9C9.1,1.9,7.9,2.3,6.9,3.1C5.5,4,4.3,5.3,3.5,6.7C2.6,8.2,2.1,9.8,2,11.5c0,1.3,0.4,2.5,1.2,3.4
	c0.8,0.9,1.9,1.4,3.1,1.3c2.6,0,4.8-1.2,6.5-3.7c0.1,2.5,0.8,3.7,2.2,3.7c1.3,0,2-1,2.2-2.9C16.6,13.8,15.8,14,15.1,14 M10.1,10.5
	c-0.6,1.3-1.3,2.6-2.1,3.7c-0.3,0.5-0.8,0.8-1.4,0.9c-0.8,0-1.3-0.8-1.3-2.3c0.1-2.2,0.7-4.3,1.8-6.2c1.2-2.3,2.4-3.4,3.5-3.4
	c1,0,1.5,1,1.5,2.9L10.1,10.5z"/>
</svg>