<?xml version="1.0" encoding="utf-8"?>
<!-- Generator: Adobe Illustrator 24.1.0, SVG Export Plug-In . SVG Version: 6.00 Build 0)  -->
<svg version="1.1" id="Layer_1" xmlns="http://www.w3.org/2000/svg" xmlns:xlink="http://www.w3.org/1999/xlink" x="0px" y="0px"
	 viewBox="0 0 350 255.1" style="enable-background:new 0 0 350 255.1;" xml:space="preserve">
<style type="text/css">
	.st0{fill:#A3A3A3;}
	.st1{fill:#8C8C8C;}
	.st2{fill:#787878;}
	.st3{fill:#B7B7B7;}
	.st4{fill:#818181;}
	.st5{fill:#5A5B5E;}
	.st6{fill:#6D6E71;}
</style>
<g>
	<path class="st0" d="M180.6,77.2c-13.9-7-29.6-6.6-42.7-0.5c2.9,14.2,12.1,26.9,26,33.9s29.6,6.6,42.7,0.5
		C203.7,96.9,194.6,84.1,180.6,77.2"/>
	<path class="st1" d="M215.4,88.9c0-0.1,0.1-0.1,0.1-0.2c0.1-0.2,0.3-0.4,0.4-0.6c0,0,0-0.1,0.1-0.1c0.3-0.4,0.7-0.9,1-1.3l0,0
		c0.2-0.2,0.3-0.4,0.5-0.6l0.1-0.1c0.2-0.2,0.3-0.3,0.5-0.5l0.1-0.1c0.2-0.2,0.3-0.3,0.5-0.5l0.1-0.1c0.2-0.1,0.3-0.3,0.5-0.4
		l0.1-0.1c0.2-0.1,0.4-0.3,0.5-0.4c1.2-0.9,2.4-1.6,3.8-2.2l0,0l-9.7-4.5l0,0c-0.4-0.2-0.7-0.3-1.1-0.4c-1.2-0.4-2.4-0.6-3.8-0.6
		c-0.3,0-0.5,0-0.7,0c-0.1,0-0.1,0-0.2,0l0,0c-0.5,0-0.9,0.1-1.4,0.2l0,0c-0.4,0.1-0.9,0.2-1.3,0.3l0,0c-0.1,0-0.1,0-0.2,0.1l0,0
		c-0.7,0.2-1.3,0.5-1.9,0.9c0,0,0,0-0.1,0l0,0c-0.2,0.1-0.3,0.2-0.5,0.3l0,0c0,0-0.1,0-0.1,0.1l0,0c-0.4,0.2-0.7,0.5-1.1,0.8l0,0
		l-0.1,0.1l0,0c-0.1,0.1-0.3,0.2-0.4,0.4l0,0l-0.1,0.1l0,0c-0.3,0.3-0.6,0.7-0.9,1c0,0,0,0-0.1,0.1c-0.1,0.2-0.2,0.3-0.4,0.5l0,0
		c0,0,0,0.1-0.1,0.1l0,0c-0.1,0.2-0.3,0.4-0.4,0.6c0.1-0.1,0.2-0.2,0.2-0.4l0,0L180,111.9l0,0c-6.4,10-16.4,17.5-28.1,20.8
		c4.2,1.2,8.5,1.8,13.1,1.8c22.3,0,41.1-15,47-35.4l0,0c0.1-0.4,0.2-0.9,0.3-1.3c0.1-0.2,0.1-0.4,0.1-0.6s0.1-0.3,0.1-0.5
		c0.1-0.5,0.2-1.1,0.3-1.6l0,0l0,0l0,0c0.4-1.9,1.1-3.7,2.1-5.3c0-0.1,0.1-0.2,0.1-0.2C215.2,89.3,215.3,89.1,215.4,88.9"/>
	<path class="st2" d="M206.6,111c-1.7-8.4-5.6-16.2-11.4-22.7L180,111.9l0,0c-0.7,1.1-1.4,2.1-2.2,3.2
		C187.7,116.7,197.7,115.2,206.6,111L206.6,111"/>
	<path class="st3" d="M171.2,87.2c-15.4-2.2-30.2,3.2-40.6,13.2c7.3,12.5,20,21.6,35.5,23.8c15.4,2.2,30.2-3.2,40.6-13.2
		C199.4,98.5,186.6,89.4,171.2,87.2"/>
	<path class="st4" d="M206.6,111L206.6,111c-3.8-6.5-9.1-12.2-15.5-16.3L180,111.9l0,0c-3.1,4.9-7.1,9.1-11.6,12.6
		C182.9,125.8,196.7,120.6,206.6,111"/>
</g>
<g id="Group_2481" transform="translate(-96.817 -5450.704)">
	<g id="Group_2376" transform="translate(67.108 5400.983)">
		<g id="Group_2397" transform="translate(58.766 105.148)">
			<path id="Path_13135" class="st5" d="M64.6,150.1c-0.9,0-1.8-0.2-2.7-0.5c-0.9-0.3-1.7-0.7-2.4-1.3l0.9-1.3
				c0.6,0.5,1.3,0.9,2.1,1.2c0.7,0.3,1.4,0.4,2.2,0.4c0.6,0,1.3-0.2,1.8-0.5c0.5-0.3,0.7-0.9,0.7-1.4v-0.1c0-0.3-0.1-0.6-0.2-0.8
				c-0.2-0.2-0.4-0.4-0.7-0.6c-0.3-0.2-0.6-0.3-1-0.4c-0.4-0.1-0.7-0.2-1.1-0.4c-0.5-0.1-0.9-0.3-1.4-0.5c-0.5-0.2-0.9-0.4-1.3-0.6
				c-0.4-0.2-0.7-0.6-0.9-0.9c-0.3-0.4-0.4-0.9-0.4-1.4v0c0-0.5,0.1-1,0.3-1.4c0.2-0.4,0.5-0.8,0.9-1.1c0.4-0.3,0.8-0.6,1.3-0.7
				c0.5-0.2,1.1-0.3,1.7-0.2c0.8,0,1.5,0.1,2.3,0.4c0.7,0.2,1.4,0.6,2.1,1l-0.8,1.4c-0.6-0.4-1.2-0.6-1.8-0.9
				c-0.6-0.2-1.2-0.3-1.8-0.3c-0.6,0-1.2,0.1-1.7,0.5c-0.4,0.3-0.6,0.8-0.6,1.3v0c0,0.3,0.1,0.5,0.3,0.7c0.2,0.2,0.4,0.4,0.7,0.6
				c0.3,0.2,0.7,0.3,1,0.4c0.4,0.1,0.8,0.3,1.2,0.4c0.5,0.1,0.9,0.3,1.4,0.5c0.4,0.2,0.9,0.4,1.3,0.7c0.4,0.3,0.7,0.6,0.9,1
				c0.2,0.4,0.4,0.9,0.3,1.4v0c0,0.5-0.1,1.1-0.3,1.5c-0.2,0.4-0.5,0.8-0.9,1.1c-0.4,0.3-0.9,0.6-1.4,0.7
				C65.7,150,65.2,150.1,64.6,150.1z"/>
			<path id="Path_13136" class="st5" d="M75.9,150.1c-0.6,0-1.1-0.1-1.7-0.2c-0.5-0.1-1-0.4-1.5-0.7c-0.4-0.3-0.8-0.7-1-1.2
				c-0.3-0.5-0.4-1.1-0.4-1.7v0c0-0.6,0.1-1.2,0.4-1.7c0.3-0.5,0.6-0.9,1.1-1.2c0.5-0.3,1.1-0.6,1.7-0.8c0.7-0.2,1.4-0.3,2.1-0.3
				c0.7,0,1.4,0,2.1,0.1c0.6,0.1,1.1,0.2,1.7,0.4v-0.4c0.1-0.9-0.3-1.8-1-2.5c-0.8-0.6-1.7-0.9-2.7-0.8c-0.7,0-1.3,0.1-2,0.2
				c-0.6,0.2-1.2,0.4-1.7,0.7l-0.5-1.5c0.7-0.3,1.3-0.6,2-0.8c0.8-0.2,1.6-0.3,2.4-0.3c1.4-0.1,2.9,0.4,3.9,1.3
				c0.9,1,1.3,2.3,1.2,3.6v7.5h-1.7V148c-0.5,0.6-1,1.1-1.7,1.5C77.8,149.9,76.9,150.1,75.9,150.1z M76.3,148.6
				c0.5,0,1.1-0.1,1.6-0.2c0.5-0.2,0.9-0.4,1.3-0.7c0.4-0.3,0.7-0.6,0.9-1c0.2-0.4,0.3-0.9,0.3-1.3v-1.2c-0.5-0.1-1-0.2-1.6-0.4
				c-0.7-0.1-1.3-0.2-2-0.2c-0.9-0.1-1.8,0.2-2.6,0.7c-0.6,0.4-0.9,1.1-0.9,1.8v0c0,0.4,0.1,0.7,0.2,1c0.2,0.3,0.4,0.6,0.7,0.8
				c0.3,0.2,0.6,0.4,1,0.5C75.5,148.6,75.9,148.6,76.3,148.6L76.3,148.6z"/>
			<path id="Path_13137" class="st5" d="M86,132.9h2.1v2H86V132.9z M86.1,137.6h1.8v12.2h-1.8V137.6z"/>
			<path id="Path_13138" class="st5" d="M97.5,153.7c-1,0-2-0.1-2.9-0.4c-0.9-0.3-1.8-0.7-2.6-1.3l0.8-1.4c0.7,0.5,1.4,0.9,2.2,1.2
				c0.8,0.3,1.6,0.4,2.5,0.4c1.2,0.1,2.3-0.3,3.2-1.1c0.9-0.9,1.3-2,1.2-3.3v-1.4c-0.5,0.7-1.2,1.3-2,1.8c-0.8,0.5-1.8,0.8-2.8,0.8
				c-1.5,0-2.9-0.6-4-1.5c-1.2-1.1-1.8-2.6-1.8-4.2v0c0-0.8,0.2-1.7,0.5-2.4c0.3-0.7,0.7-1.3,1.3-1.8c0.5-0.5,1.2-0.9,1.8-1.1
				c1.2-0.5,2.5-0.5,3.7-0.2c0.5,0.1,0.9,0.3,1.3,0.5c0.4,0.2,0.7,0.5,1,0.8c0.3,0.3,0.6,0.6,0.8,0.9v-2.2h1.8v10.1
				c0,0.8-0.1,1.7-0.4,2.5c-0.2,0.7-0.6,1.3-1.2,1.8c-0.6,0.6-1.2,1-2,1.2C99.3,153.5,98.4,153.7,97.5,153.7z M97.5,147.2
				c0.6,0,1.1-0.1,1.7-0.3c0.5-0.2,1-0.5,1.4-0.8c0.4-0.4,0.8-0.8,1-1.3c0.3-0.5,0.4-1.1,0.4-1.7v0c0-0.6-0.1-1.2-0.4-1.7
				c-0.2-0.5-0.6-0.9-1-1.3c-0.4-0.4-0.9-0.6-1.4-0.8c-0.5-0.2-1.1-0.3-1.7-0.3c-0.6,0-1.1,0.1-1.6,0.3c-0.5,0.2-1,0.5-1.3,0.8
				c-0.4,0.4-0.7,0.8-0.9,1.3c-0.2,0.5-0.3,1.1-0.3,1.7v0c0,0.6,0.1,1.1,0.3,1.7c0.2,0.5,0.5,0.9,0.9,1.3
				C95.3,146.8,96.4,147.2,97.5,147.2L97.5,147.2z"/>
			<path id="Path_13139" class="st5" d="M113.3,150.1c-0.9,0-1.7-0.2-2.5-0.5c-0.7-0.3-1.4-0.8-2-1.4c-0.6-0.6-1-1.3-1.3-2
				c-0.3-0.8-0.5-1.6-0.5-2.4v0c0-0.8,0.2-1.7,0.5-2.5c0.3-0.8,0.8-1.4,1.3-2c0.6-0.6,1.3-1.1,2-1.4c2.4-1,5.2-0.5,7.1,1.4
				c0.6,0.6,1,1.3,1.3,2c0.3,0.8,0.5,1.6,0.5,2.4v0c0,0.8-0.2,1.7-0.5,2.5c-0.3,0.8-0.8,1.4-1.3,2c-0.6,0.6-1.3,1.1-2,1.4
				C115.1,149.9,114.2,150.1,113.3,150.1z M113.4,148.5c0.6,0,1.2-0.1,1.8-0.4c0.5-0.2,1-0.6,1.4-1c0.4-0.4,0.7-0.9,0.9-1.5
				c0.2-0.6,0.3-1.2,0.3-1.8v0c0-0.6-0.1-1.3-0.3-1.9c-0.2-0.6-0.5-1.1-1-1.5c-0.4-0.4-0.9-0.8-1.4-1c-0.6-0.3-1.2-0.4-1.8-0.4
				c-0.6,0-1.2,0.1-1.8,0.4c-0.5,0.2-1,0.6-1.4,1c-0.4,0.4-0.7,0.9-0.9,1.5c-0.2,0.6-0.3,1.2-0.3,1.8v0c0,0.6,0.1,1.3,0.3,1.9
				c0.2,0.6,0.5,1.1,0.9,1.5c0.4,0.4,0.9,0.8,1.4,1C112.2,148.4,112.8,148.5,113.4,148.5L113.4,148.5z"/>
			<path id="Path_13140" class="st5" d="M123,137.6h1.8v2.1c0.4-0.7,1-1.2,1.6-1.7c0.8-0.5,1.7-0.7,2.6-0.7c0.7,0,1.3,0.1,2,0.4
				c0.6,0.2,1.1,0.6,1.5,1c0.4,0.4,0.7,1,0.9,1.5c0.2,0.6,0.3,1.3,0.3,2v7.6h-1.8v-7.2c0.1-1-0.3-1.9-0.9-2.7
				c-0.6-0.7-1.6-1.1-2.5-1c-0.5,0-1,0.1-1.4,0.3c-0.4,0.2-0.8,0.4-1.2,0.8c-0.3,0.3-0.6,0.8-0.8,1.2c-0.2,0.5-0.3,1-0.3,1.6v7H123
				L123,137.6z"/>
			<path id="Path_13141" class="st5" d="M149.8,150.1c-0.9,0-1.7-0.2-2.5-0.5c-1.5-0.7-2.7-1.9-3.3-3.4c-0.3-0.8-0.5-1.6-0.5-2.4v0
				c0-1.7,0.6-3.3,1.8-4.5c0.6-0.6,1.2-1.1,2-1.4c0.8-0.3,1.6-0.5,2.5-0.5c0.5,0,1.1,0.1,1.6,0.2c0.4,0.1,0.9,0.3,1.3,0.5
				c0.4,0.2,0.8,0.4,1.1,0.7c0.3,0.3,0.6,0.6,0.9,0.9l-1.2,1.3c-0.5-0.5-1-0.9-1.6-1.3c-0.6-0.4-1.4-0.6-2.1-0.5
				c-0.6,0-1.2,0.1-1.7,0.4c-0.5,0.2-1,0.6-1.4,1c-0.4,0.4-0.7,0.9-0.9,1.5c-0.2,0.6-0.3,1.2-0.3,1.9v0c0,0.6,0.1,1.3,0.3,1.9
				c0.2,0.6,0.5,1.1,0.9,1.5c0.4,0.4,0.9,0.8,1.4,1c0.6,0.2,1.2,0.4,1.8,0.4c0.7,0,1.4-0.2,2.1-0.5c0.6-0.3,1.2-0.8,1.6-1.3l1.2,1.1
				c-0.6,0.7-1.3,1.3-2.1,1.7C151.8,149.9,150.8,150.1,149.8,150.1z"/>
			<path id="Path_13142" class="st5" d="M162.8,150.1c-0.8,0-1.6-0.2-2.4-0.5c-0.7-0.3-1.4-0.7-1.9-1.3c-0.6-0.6-1-1.3-1.3-2
				c-0.3-0.8-0.5-1.7-0.5-2.6v0c0-0.8,0.1-1.7,0.4-2.5c0.3-0.7,0.7-1.4,1.2-2c0.5-0.6,1.1-1,1.9-1.4c1.5-0.7,3.2-0.7,4.8,0
				c0.7,0.3,1.3,0.8,1.8,1.4c0.5,0.6,0.9,1.3,1.1,2c0.3,0.8,0.4,1.7,0.4,2.5v0.3c0,0.1,0,0.2,0,0.3h-9.7c0,0.6,0.2,1.2,0.5,1.8
				c0.2,0.5,0.6,0.9,1,1.3c0.4,0.4,0.8,0.6,1.3,0.8c0.5,0.2,1,0.3,1.6,0.3c0.8,0,1.5-0.1,2.2-0.5c0.6-0.3,1.2-0.8,1.7-1.3l1.1,1
				c-0.6,0.7-1.3,1.2-2.1,1.7C164.8,149.9,163.8,150.1,162.8,150.1z M166.4,143c0-0.5-0.2-1.1-0.3-1.6c-0.2-0.5-0.4-0.9-0.8-1.3
				c-0.3-0.4-0.7-0.7-1.2-0.9c-0.5-0.2-1.1-0.4-1.6-0.3c-0.5,0-1,0.1-1.5,0.3c-0.5,0.2-0.9,0.5-1.2,0.9c-0.4,0.4-0.6,0.8-0.8,1.3
				c-0.2,0.5-0.4,1.1-0.4,1.7H166.4z"/>
			<path id="Path_13143" class="st5" d="M171.4,137.6h1.8v2.1c0.4-0.7,1-1.2,1.6-1.7c0.8-0.5,1.7-0.7,2.6-0.7c0.7,0,1.3,0.1,2,0.4
				c0.6,0.2,1.1,0.6,1.5,1c0.4,0.4,0.7,1,0.9,1.5c0.2,0.6,0.3,1.3,0.3,2v7.6h-1.8v-7.2c0.1-1-0.3-1.9-0.9-2.7
				c-0.6-0.7-1.6-1.1-2.5-1c-0.5,0-1,0.1-1.4,0.3c-0.4,0.2-0.8,0.4-1.2,0.8c-0.3,0.3-0.6,0.8-0.8,1.2c-0.2,0.5-0.3,1-0.3,1.6v7h-1.8
				L171.4,137.6z"/>
			<path id="Path_13144" class="st5" d="M190,150c-0.5,0-0.9-0.1-1.4-0.2c-0.4-0.1-0.8-0.3-1.1-0.6c-0.3-0.3-0.6-0.7-0.7-1.1
				c-0.2-0.5-0.3-1-0.3-1.6v-7.4h-1.7v-1.6h1.7v-3.7h1.8v3.7h3.9v1.6h-3.9v7.1c-0.1,0.6,0.1,1.2,0.6,1.6c0.4,0.3,1,0.5,1.5,0.4
				c0.3,0,0.6,0,0.9-0.1c0.3-0.1,0.6-0.2,0.9-0.3v1.6c-0.3,0.2-0.7,0.3-1,0.4C190.8,150,190.4,150,190,150z"/>
			<path id="Path_13145" class="st5" d="M211.1,150.1c-0.8,0-1.6-0.2-2.4-0.5c-0.7-0.3-1.4-0.7-1.9-1.3c-0.6-0.6-1-1.3-1.3-2
				c-0.3-0.8-0.5-1.7-0.5-2.6v0c0-0.8,0.1-1.7,0.4-2.5c0.3-0.7,0.7-1.4,1.2-2c0.5-0.6,1.1-1,1.9-1.4c1.5-0.7,3.2-0.7,4.8,0
				c0.7,0.3,1.3,0.8,1.8,1.4c0.5,0.6,0.9,1.3,1.1,2c0.3,0.8,0.4,1.7,0.4,2.5v0.3c0,0.1,0,0.2,0,0.3h-9.7c0,0.6,0.2,1.2,0.5,1.8
				c0.2,0.5,0.6,0.9,1,1.3c0.4,0.4,0.8,0.6,1.3,0.8c0.5,0.2,1,0.3,1.6,0.3c0.8,0,1.5-0.1,2.2-0.5c0.6-0.3,1.2-0.8,1.7-1.3l1.1,1
				c-0.6,0.7-1.3,1.2-2.1,1.7C213.1,149.9,212.1,150.1,211.1,150.1z M214.7,143c0-0.5-0.2-1.1-0.3-1.6c-0.2-0.5-0.4-0.9-0.8-1.3
				c-0.3-0.4-0.7-0.7-1.2-0.9c-0.5-0.2-1.1-0.4-1.6-0.3c-0.5,0-1,0.1-1.5,0.3c-0.5,0.2-0.9,0.5-1.2,0.9c-0.4,0.4-0.6,0.8-0.8,1.3
				c-0.2,0.5-0.4,1.1-0.4,1.7H214.7z"/>
			<path id="Path_13146" class="st5" d="M196.3,137.6h1.8v3.2c0.2-0.5,0.5-1,0.8-1.4c0.3-0.4,0.7-0.8,1.1-1.1
				c0.4-0.3,0.9-0.5,1.4-0.7c0.5-0.2,1.1-0.2,1.6-0.2v2h-0.1c-0.6,0-1.3,0.1-1.9,0.4c-0.6,0.2-1.1,0.6-1.5,1.1
				c-0.5,0.5-0.8,1.1-1,1.8c-0.3,0.8-0.4,1.6-0.4,2.4v4.9h-1.8L196.3,137.6z"/>
		</g>
	</g>
	<g id="Group_2480" transform="translate(-734 -187.529)">
		<path id="Path_416" class="st6" d="M861.1,5797h-2.6v-4h2.6v-1.5c-0.1-1.9,0.5-3.7,1.7-5.2c1.3-1.2,3-1.8,4.7-1.7
			c0.7,0,1.5,0,2.2,0.2c0.6,0.1,1.1,0.2,1.7,0.4v4c-0.4-0.2-0.9-0.3-1.4-0.4c-0.5-0.1-1-0.1-1.4-0.1c-1.8,0-2.8,1.1-2.8,3.2v1.2h5.5
			v3.9h-5.4v16.8h-4.8L861.1,5797z"/>
		<path id="Path_417" class="st6" d="M883,5814.2c-2.1,0.1-4.1-0.7-5.5-2.2c-1.4-1.6-2-3.7-1.9-5.8v-13.3h4.8v11.8
			c-0.1,1.4,0.3,2.7,1.2,3.8c0.9,0.9,2.1,1.4,3.3,1.3c1.3,0.1,2.5-0.4,3.4-1.3c0.9-1,1.4-2.4,1.3-3.8v-11.8h4.8v20.9h-4.8v-3.3
			c-0.7,1-1.6,1.9-2.6,2.6C885.8,5813.9,884.4,5814.3,883,5814.2z"/>
		<path id="Path_418" class="st6" d="M908.5,5814.1c-1.6,0-3.1-0.3-4.6-0.8c-1.5-0.5-3-1.3-4.3-2.3l2.1-3.2c1.1,0.8,2.2,1.4,3.5,1.9
			c1.1,0.4,2.2,0.6,3.4,0.7c0.8,0,1.7-0.2,2.4-0.6c0.5-0.4,0.9-1,0.8-1.6v-0.1c0-0.4-0.1-0.7-0.4-1c-0.3-0.3-0.6-0.6-1-0.8
			c-0.5-0.2-1-0.4-1.5-0.6l-1.8-0.6c-0.8-0.2-1.5-0.5-2.3-0.8c-0.8-0.3-1.5-0.7-2.1-1.1c-0.6-0.5-1.1-1-1.5-1.7
			c-0.4-0.8-0.6-1.6-0.6-2.5v-0.1c0-1.8,0.8-3.5,2.1-4.7c0.7-0.6,1.5-1,2.4-1.3c0.9-0.3,1.9-0.4,2.9-0.4c1.4,0,2.7,0.2,4,0.6
			c1.3,0.4,2.5,1,3.7,1.7l-1.9,3.4c-1-0.6-2-1.1-3-1.4c-0.9-0.3-1.9-0.5-2.8-0.5c-0.8,0-1.5,0.2-2.1,0.6c-0.5,0.3-0.8,0.9-0.8,1.5
			v0.1c0,0.4,0.1,0.7,0.4,1c0.3,0.3,0.7,0.6,1,0.8c0.5,0.2,1,0.5,1.5,0.6c0.6,0.2,1.2,0.4,1.8,0.6c0.8,0.2,1.5,0.5,2.3,0.8
			c0.7,0.3,1.4,0.7,2.1,1.2c0.6,0.5,1.1,1,1.5,1.7c0.4,0.7,0.6,1.6,0.6,2.4v0.1c0,1-0.2,2-0.6,2.9c-0.4,0.8-0.9,1.5-1.6,2
			c-0.7,0.6-1.6,1-2.5,1.2C910.5,5814,909.5,5814.2,908.5,5814.1z"/>
		<path id="Path_419" class="st6" d="M922.2,5785.2h5.1v4.5h-5.1V5785.2z M922.4,5792.9h4.8v20.9h-4.8V5792.9z"/>
		<path id="Path_420" class="st6" d="M944.3,5814.2c-1.5,0-3-0.3-4.4-0.8c-1.3-0.5-2.5-1.3-3.5-2.3c-2-2-3.2-4.8-3.1-7.6v-0.1
			c0-1.5,0.3-2.9,0.8-4.2c0.5-1.3,1.3-2.5,2.3-3.5c1-1,2.2-1.8,3.5-2.4c1.4-0.6,2.9-0.9,4.4-0.9c1.5,0,3,0.3,4.4,0.8
			c4,1.7,6.7,5.6,6.7,10v0.1c0,1.4-0.3,2.9-0.9,4.2c-1.1,2.6-3.2,4.7-5.9,5.8C947.3,5814,945.8,5814.3,944.3,5814.2z M944.4,5810.1
			c0.9,0,1.8-0.2,2.6-0.5c0.8-0.3,1.4-0.8,2-1.4c0.6-0.6,1-1.3,1.3-2.1c0.3-0.8,0.4-1.7,0.4-2.6v-0.1c0-0.9-0.2-1.8-0.5-2.6
			c-0.3-0.8-0.7-1.5-1.3-2.1c-0.6-0.6-1.3-1.1-2-1.4c-1.7-0.7-3.5-0.7-5.2,0c-0.8,0.3-1.4,0.8-2,1.4c-0.6,0.6-1,1.3-1.3,2.1
			c-0.3,0.8-0.4,1.7-0.4,2.6v0.1c0,0.9,0.2,1.8,0.5,2.6c0.3,0.8,0.7,1.5,1.3,2.1c0.6,0.6,1.3,1.1,2,1.4
			C942.6,5809.9,943.5,5810.1,944.4,5810.1L944.4,5810.1z"/>
		<path id="Path_421" class="st6" d="M961.3,5792.9h4.8v3.2c0.3-0.5,0.7-0.9,1.1-1.4c0.4-0.5,0.9-0.8,1.4-1.2
			c0.6-0.3,1.2-0.6,1.8-0.8c0.7-0.2,1.4-0.3,2.2-0.3c2.1-0.1,4.1,0.7,5.5,2.2c1.3,1.6,2,3.7,1.9,5.8v13.3h-4.8v-11.9
			c0.1-1.4-0.3-2.7-1.2-3.8c-0.8-0.9-2.1-1.4-3.3-1.3c-1.3-0.1-2.5,0.4-3.4,1.4c-0.9,1-1.4,2.4-1.3,3.8v11.8h-4.8L961.3,5792.9z"/>
		<path id="Path_422" class="st4" d="M996.7,5814.2c-1.5,0-3-0.3-4.4-0.8c-1.3-0.5-2.5-1.3-3.5-2.3c-1-1-1.8-2.2-2.3-3.4
			c-0.6-1.3-0.8-2.7-0.8-4.2v-0.1c0-1.4,0.3-2.9,0.8-4.2c0.5-1.3,1.3-2.5,2.3-3.5c1-1,2.2-1.8,3.5-2.4c1.4-0.6,2.9-0.9,4.4-0.9
			c1.5,0,3,0.3,4.4,0.8c2.6,1.1,4.7,3.1,5.8,5.8c0.6,1.3,0.8,2.8,0.8,4.2v0.1c0,1.4-0.3,2.9-0.8,4.2c-1.1,2.6-3.2,4.7-5.9,5.8
			C999.7,5814,998.2,5814.2,996.7,5814.2z M996.8,5810.1c1.7,0,3.4-0.7,4.6-2c0.6-0.6,1-1.3,1.3-2.1c0.3-0.8,0.4-1.7,0.4-2.6v-0.1
			c0-0.9-0.2-1.8-0.5-2.6c-0.3-0.8-0.7-1.5-1.3-2.1c-0.6-0.6-1.3-1.1-2-1.4c-1.7-0.7-3.5-0.7-5.2,0c-0.8,0.3-1.4,0.8-2,1.4
			c-0.6,0.6-1,1.3-1.3,2.1c-0.3,0.8-0.4,1.7-0.4,2.6v0.1c0,0.9,0.2,1.8,0.5,2.6c0.3,0.8,0.8,1.5,1.3,2.1c0.6,0.6,1.2,1.1,2,1.4
			C995,5809.9,995.9,5810.1,996.8,5810.1L996.8,5810.1z"/>
		<path id="Path_423" class="st4" d="M1013.7,5792.9h4.8v4.7c0.6-1.5,1.6-2.8,2.8-3.8c1.3-1,2.9-1.4,4.6-1.3v5.1h-0.3
			c-1,0-2,0.2-2.9,0.5c-0.9,0.3-1.6,0.9-2.3,1.5c-0.7,0.7-1.2,1.6-1.5,2.6c-0.4,1.2-0.5,2.4-0.5,3.6v7.9h-4.8L1013.7,5792.9z"/>
		<path id="Path_424" class="st4" d="M1031.1,5785.2h5.1v4.5h-5.1L1031.1,5785.2z M1031.3,5792.9h4.8v20.9h-4.8V5792.9z"/>
		<path id="Path_425" class="st4" d="M1052.6,5820.1c-3.3,0.1-6.5-0.8-9.3-2.5l1.8-3.6c1.1,0.7,2.3,1.2,3.5,1.6
			c1.3,0.4,2.6,0.6,3.9,0.6c1.8,0.1,3.5-0.5,4.9-1.6c1.2-1.3,1.8-3,1.7-4.8v-1.6c-0.8,1.1-1.9,2-3,2.8c-1.3,0.8-2.8,1.1-4.3,1.1
			c-1.2,0-2.4-0.2-3.6-0.7c-1.1-0.4-2.1-1.1-3-1.9c-0.9-0.9-1.6-1.9-2.1-3.1c-0.5-1.3-0.8-2.7-0.8-4.1v-0.1c0-1.4,0.2-2.8,0.8-4.1
			c0.5-1.2,1.2-2.2,2.1-3.1c0.9-0.8,1.9-1.5,3-1.9c1.1-0.4,2.3-0.7,3.5-0.7c1.5-0.1,3,0.3,4.4,1c1.1,0.7,2.1,1.5,3,2.5v-3.1h4.8
			v16.6c0.2,2.9-0.7,5.7-2.6,7.9c-1,1-2.2,1.7-3.6,2.1C1056,5820,1054.3,5820.2,1052.6,5820.1z M1052.9,5808c0.8,0,1.6-0.1,2.4-0.4
			c0.7-0.3,1.4-0.7,2-1.2c1.2-1.1,1.8-2.6,1.8-4.1v-0.1c0-1.6-0.7-3.1-1.8-4.1c-0.6-0.5-1.2-0.9-2-1.2c-0.8-0.3-1.6-0.4-2.4-0.4
			c-0.8,0-1.6,0.1-2.3,0.4c-0.7,0.3-1.3,0.7-1.9,1.2c-0.5,0.5-1,1.1-1.3,1.8c-0.3,0.7-0.5,1.5-0.5,2.3v0.1c0,0.8,0.2,1.6,0.5,2.3
			c0.3,0.7,0.7,1.3,1.3,1.8c0.5,0.5,1.2,0.9,1.9,1.2C1051.4,5807.9,1052.1,5808,1052.9,5808L1052.9,5808z"/>
		<path id="Path_426" class="st4" d="M1070.9,5785.2h5.1v4.5h-5.1V5785.2z M1071.1,5792.9h4.8v20.9h-4.8V5792.9z"/>
		<path id="Path_427" class="st4" d="M1083,5792.9h4.8v3.2c0.3-0.5,0.7-0.9,1.1-1.4c0.4-0.5,0.9-0.8,1.4-1.2
			c0.6-0.3,1.2-0.6,1.8-0.8c0.7-0.2,1.5-0.3,2.2-0.3c2.1-0.1,4.1,0.7,5.5,2.2c1.4,1.6,2,3.7,1.9,5.8v13.3h-4.8v-11.9
			c0.1-1.4-0.3-2.7-1.2-3.8c-0.8-0.9-2.1-1.4-3.3-1.3c-1.3,0-2.5,0.4-3.4,1.4c-0.9,1.1-1.4,2.4-1.3,3.8v11.8h-4.8L1083,5792.9z"/>
		<path id="Path_428" class="st4" d="M1114.5,5814.2c-1,0-1.9-0.1-2.8-0.4c-0.9-0.2-1.7-0.7-2.3-1.2c-0.7-0.6-1.2-1.2-1.6-2
			c-0.4-0.9-0.6-1.8-0.6-2.8v-0.1c0-1,0.2-2,0.6-3c0.4-0.8,1-1.6,1.8-2.1c0.8-0.6,1.7-1,2.7-1.2c1.1-0.3,2.3-0.4,3.5-0.4
			c1,0,2.1,0.1,3.1,0.2c0.9,0.2,1.7,0.4,2.5,0.6v-0.5c0.1-1.3-0.4-2.5-1.3-3.4c-1.1-0.8-2.5-1.2-3.9-1.1c-1.1,0-2.1,0.1-3.1,0.4
			c-1,0.2-1.9,0.6-2.8,0.9l-1.3-3.8c1.1-0.5,2.3-0.9,3.6-1.2c1.4-0.3,2.8-0.5,4.3-0.5c2.5-0.2,5,0.6,6.9,2.3
			c0.8,0.8,1.4,1.7,1.7,2.8c0.4,1.2,0.6,2.4,0.6,3.7v12.4h-4.7v-2.6c-0.8,0.9-1.7,1.6-2.7,2.1
			C1117.3,5813.9,1115.9,5814.2,1114.5,5814.2z M1115.9,5810.7c0.7,0,1.5-0.1,2.2-0.3c0.6-0.2,1.2-0.5,1.8-0.9
			c0.5-0.4,0.9-0.9,1.2-1.4c0.3-0.6,0.4-1.2,0.4-1.8v-1.4c-0.7-0.3-1.4-0.5-2.1-0.6c-0.9-0.2-1.7-0.2-2.6-0.2
			c-1.3-0.1-2.5,0.2-3.6,0.9c-0.8,0.6-1.3,1.5-1.3,2.6v0.1c0,0.9,0.4,1.8,1.2,2.3C1113.8,5810.5,1114.8,5810.8,1115.9,5810.7
			L1115.9,5810.7z"/>
		<path id="Path_429" class="st4" d="M1133,5784.9h4.8v28.8h-4.8V5784.9z"/>
	</g>
</g>
</svg>
