<?xml version="1.0" encoding="utf-8"?>
<!-- Generator: Adobe Illustrator 24.1.0, SVG Export Plug-In . SVG Version: 6.00 Build 0)  -->
<svg version="1.1" id="Layer_1" xmlns="http://www.w3.org/2000/svg" xmlns:xlink="http://www.w3.org/1999/xlink" x="0px" y="0px"
	 viewBox="0 0 350 255.1" style="enable-background:new 0 0 350 255.1;" xml:space="preserve">
<style type="text/css">
	.st0{fill:#656868;}
</style>
<g>
	<path class="st0" d="M59.4,148.5l-0.9,0.5c-0.2-0.3-0.3-0.5-0.5-0.6s-0.4-0.2-0.6-0.2c-0.3,0-0.6,0.1-0.8,0.3s-0.3,0.4-0.3,0.7
		c0,0.4,0.3,0.7,0.8,0.9l0.7,0.3c0.6,0.2,1,0.5,1.3,0.9c0.3,0.3,0.4,0.8,0.4,1.3c0,0.7-0.2,1.2-0.7,1.7c-0.5,0.4-1,0.7-1.7,0.7
		c-0.6,0-1.2-0.2-1.6-0.6c-0.4-0.4-0.7-0.9-0.8-1.6l1.1-0.2c0.1,0.4,0.1,0.7,0.3,0.9c0.2,0.3,0.6,0.5,1,0.5c0.3,0,0.6-0.1,0.9-0.3
		c0.2-0.2,0.3-0.5,0.3-0.9c0-0.1,0-0.3-0.1-0.4c0-0.1-0.1-0.2-0.2-0.3c-0.1-0.1-0.2-0.2-0.3-0.3s-0.3-0.2-0.5-0.3l-0.7-0.3
		c-1-0.4-1.5-1.1-1.5-1.9c0-0.6,0.2-1,0.6-1.4c0.4-0.4,1-0.6,1.6-0.6C58.3,147.2,58.9,147.6,59.4,148.5z"/>
	<path class="st0" d="M65.3,147.2v4.6c0,0.6,0.1,1.1,0.3,1.4c0.3,0.4,0.7,0.6,1.3,0.6c0.6,0,1-0.2,1.3-0.6c0.2-0.3,0.3-0.7,0.3-1.4
		v-4.6h1.1v4.9c0,0.8-0.2,1.4-0.7,1.9c-0.5,0.6-1.2,0.8-2,0.8s-1.5-0.3-2-0.8s-0.7-1.1-0.7-1.9v-4.9H65.3z"/>
	<path class="st0" d="M78.8,148.5l-0.9,0.5c-0.2-0.3-0.3-0.5-0.5-0.6s-0.4-0.2-0.6-0.2c-0.3,0-0.6,0.1-0.8,0.3
		c-0.2,0.2-0.3,0.4-0.3,0.7c0,0.4,0.3,0.7,0.8,0.9l0.7,0.3c0.6,0.2,1,0.5,1.3,0.9c0.3,0.3,0.4,0.8,0.4,1.3c0,0.7-0.2,1.2-0.7,1.7
		c-0.5,0.4-1,0.7-1.7,0.7c-0.6,0-1.2-0.2-1.6-0.6c-0.4-0.4-0.7-0.9-0.8-1.6l1.1-0.2c0.1,0.4,0.1,0.7,0.3,0.9c0.2,0.3,0.6,0.5,1,0.5
		c0.3,0,0.6-0.1,0.9-0.3c0.2-0.2,0.3-0.5,0.3-0.9c0-0.1,0-0.3-0.1-0.4c0-0.1-0.1-0.2-0.2-0.3s-0.2-0.2-0.3-0.3
		c-0.1-0.1-0.3-0.2-0.5-0.3l-0.7-0.3c-1-0.4-1.5-1.1-1.5-1.9c0-0.6,0.2-1,0.6-1.4s1-0.6,1.6-0.6C77.7,147.2,78.3,147.6,78.8,148.5z"
		/>
	<path class="st0" d="M84.7,150.2h3.2v-3H89v7.7h-1.1v-3.6h-3.2v3.6h-1.1v-7.7h1.1C84.7,147.2,84.7,150.2,84.7,150.2z"/>
	<path class="st0" d="M95.1,147.2v7.7H94v-7.7H95.1z"/>
	<path class="st0" d="M110.5,148.3h-3v1.9h2.9v1h-2.9v2.6h3v1h-4.1v-7.7h4.1V148.3z"/>
	<path class="st0" d="M129.1,148.3h-3v1.9h2.9v1h-2.9v2.6h3v1H125v-7.7h4.1V148.3z"/>
	<path class="st0" d="M280.2,148.3h-3v1.9h2.9v1h-2.9v2.6h3v1h-4.1v-7.7h4.1V148.3z"/>
	<path class="st0" d="M115.6,147.2l2,4.8l2.1-4.8h1.2l-3.3,7.7l-3.2-7.7H115.6z"/>
	<path class="st0" d="M133.8,154.9v-7.7l5.4,5v-5h1.1v7.7l-5.4-4.9v4.9H133.8z"/>
	<path class="st0" d="M213,154.9v-7.7l5.4,5v-5h1.1v7.7l-5.4-4.9v4.9H213z"/>
	<path class="st0" d="M147.4,148.3v6.6h-1.1v-6.6h-1.7v-1h4.5v1H147.4z"/>
	<path class="st0" d="M226.5,148.3v6.6h-1.1v-6.6h-1.7v-1h4.5v1H226.5z"/>
	<path class="st0" d="M240.8,148.3v6.6h-1.1v-6.6H238v-1h4.5v1H240.8z"/>
	<path class="st0" d="M191.7,148.5l-0.9,0.5c-0.2-0.3-0.3-0.5-0.5-0.6s-0.4-0.2-0.6-0.2c-0.3,0-0.6,0.1-0.8,0.3s-0.3,0.4-0.3,0.7
		c0,0.4,0.3,0.7,0.8,0.9l0.7,0.3c0.6,0.2,1,0.5,1.3,0.9c0.3,0.3,0.4,0.8,0.4,1.3c0,0.7-0.2,1.2-0.7,1.7c-0.5,0.4-1,0.7-1.7,0.7
		c-0.6,0-1.2-0.2-1.6-0.6c-0.4-0.4-0.7-0.9-0.8-1.6l1.1-0.2c0.1,0.4,0.1,0.7,0.3,0.9c0.2,0.3,0.6,0.5,1,0.5c0.3,0,0.6-0.1,0.9-0.3
		c0.2-0.2,0.3-0.5,0.3-0.9c0-0.1,0-0.3-0.1-0.4c0-0.1-0.1-0.2-0.2-0.3c-0.1-0.1-0.2-0.2-0.3-0.3s-0.3-0.2-0.5-0.3l-0.7-0.3
		c-1-0.4-1.5-1.1-1.5-1.9c0-0.6,0.2-1,0.6-1.4c0.4-0.4,1-0.6,1.6-0.6C190.5,147.2,191.2,147.6,191.7,148.5z"/>
	<path class="st0" d="M200.7,153.3h-3.2l-0.7,1.6h-1.2l3.6-7.7l3.4,7.7h-1.2L200.7,153.3z M200.3,152.2l-1.1-2.5l-1.1,2.5H200.3z"/>
	<path class="st0" d="M208,147.2v7.7h-1.1v-7.7H208z"/>
	<path class="st0" d="M249.2,151.4l2.3,3.4h-1.4l-2.1-3.2h-0.2v3.3h-1.1v-7.7h1.3c1,0,1.7,0.2,2.1,0.6c0.5,0.4,0.7,0.9,0.7,1.6
		c0,0.5-0.2,1-0.4,1.3C250.1,151.1,249.7,151.3,249.2,151.4z M247.8,150.6h0.4c1.1,0,1.6-0.4,1.6-1.2s-0.5-1.1-1.5-1.1h-0.4v2.3
		H247.8z"/>
	<path class="st0" d="M255.3,151c0-1,0.4-1.9,1.1-2.7c0.8-0.7,1.7-1.1,2.7-1.1c1.1,0,2,0.4,2.7,1.1c0.8,0.8,1.1,1.7,1.1,2.7
		c0,1.1-0.4,2-1.1,2.7c-0.8,0.7-1.7,1.1-2.8,1.1c-1,0-1.8-0.3-2.6-1C255.7,153.2,255.3,152.2,255.3,151z M256.4,151
		c0,0.8,0.3,1.5,0.8,2s1.2,0.8,1.9,0.8c0.8,0,1.4-0.3,2-0.8c0.5-0.5,0.8-1.2,0.8-2s-0.3-1.4-0.8-2c-0.5-0.5-1.2-0.8-1.9-0.8
		c-0.8,0-1.4,0.3-1.9,0.8C256.7,149.6,256.4,150.2,256.4,151z"/>
	<path class="st0" d="M268.8,151.6v3.3h-1.1v-7.7h1.3c0.6,0,1.1,0,1.4,0.1s0.6,0.2,0.8,0.5c0.4,0.4,0.6,0.9,0.6,1.6
		c0,0.7-0.2,1.2-0.7,1.6c-0.5,0.4-1.1,0.6-1.8,0.6L268.8,151.6L268.8,151.6z M268.8,150.6h0.4c1,0,1.5-0.4,1.5-1.2s-0.5-1.1-1.6-1.1
		h-0.4v2.3H268.8z"/>
	<path class="st0" d="M286.2,153.8h3.5v1h-5.4l3.5-6.6h-3v-1h4.9L286.2,153.8z"/>
	<path class="st0" d="M54.9,135.9v-29.8L76.6,125v-18.9h4.5v29.8l-21.7-18.8v18.8H54.9z"/>
	<path class="st0" d="M100.7,135.9h-4.8l14.7-29.8l14.2,29.8h-4.9l-9.4-19.7L100.7,135.9z"/>
	<path class="st0" d="M265.7,135.9h-4.8l14.7-29.8l14.2,29.8h-4.9l-9.4-19.7L265.7,135.9z"/>
	<path class="st0" d="M237.6,123l-9.7-16.9h5.2l6.8,11.9l6.8-11.9h5.2l-9.8,16.9v12.9h-4.5V123z"/>
	<path class="st0" d="M158.1,120.4h9.3v0.9c0,2.1-0.3,4-0.8,5.7c-0.5,1.5-1.3,3-2.5,4.3c-2.6,3-6,4.5-10.1,4.5
		c-4,0-7.4-1.4-10.3-4.3c-2.8-2.9-4.3-6.4-4.3-10.4c0-4.1,1.4-7.6,4.3-10.5c2.9-2.9,6.4-4.3,10.6-4.3c2.2,0,4.3,0.5,6.2,1.4
		c1.8,0.9,3.7,2.4,5.4,4.4l-3.1,2.9c-2.3-3.1-5.2-4.7-8.6-4.7c-3,0-5.5,1-7.6,3.1c-2,2-3.1,4.6-3.1,7.7c0,3.2,1.1,5.8,3.4,7.9
		c2.1,1.9,4.4,2.9,6.9,2.9c2.1,0,4-0.7,5.7-2.1c1.7-1.4,2.6-3.2,2.8-5.2L158.1,120.4z"/>
	<g>
		<path class="st0" d="M212,122.3c-5,0-9.9-1.7-14.3-4.9h-0.1h-0.1c-4.3,3.2-9.3,4.9-14.3,4.9c-0.4,0-0.8,0-1.1,0
			c0.1,1.3,0.3,2.6,0.7,3.8c0.2,0,0.3,0,0.5,0c5,0,9.9-1.4,14.3-4.2c4.4,2.7,9.3,4.2,14.3,4.2c0.2,0,0.3,0,0.5,0
			c0.4-1.2,0.6-2.5,0.7-3.8C212.7,122.3,212.3,122.3,212,122.3z"/>
		<path class="st0" d="M183.7,114.8c4.9-0.1,9.6-1.5,14-4.2c4.3,2.7,9.1,4.1,14,4.2c-0.7-1.5-1.6-2.8-2.8-4
			c-3.9-0.6-7.7-2.1-11.1-4.7h-0.1h-0.1c-3.4,2.5-7.2,4.1-11.1,4.7C185.3,112,184.4,113.3,183.7,114.8z"/>
		<path class="st0" d="M197.7,128.7C197.7,128.7,197.7,128.6,197.7,128.7c-0.1,0-0.1,0-0.1,0c-3.1,2.3-6.6,3.8-10.1,4.5
			c1.3,1.1,2.8,2.1,4.4,2.7c2-0.7,3.9-1.6,5.7-2.7c1.8,1.1,3.8,2,5.7,2.7c1.6-0.7,3.1-1.6,4.4-2.7
			C204.3,132.5,200.8,131,197.7,128.7z"/>
	</g>
	<rect x="167.7" y="147.2" class="st0" width="0.7" height="7.7"/>
</g>
</svg>
