<?xml version="1.0" encoding="utf-8"?>
<!-- Generator: Adobe Illustrator 24.1.0, SVG Export Plug-In . SVG Version: 6.00 Build 0)  -->
<svg version="1.1" id="Layer_1" xmlns="http://www.w3.org/2000/svg" xmlns:xlink="http://www.w3.org/1999/xlink" x="0px" y="0px"
	 viewBox="0 0 350 255.1" style="enable-background:new 0 0 350 255.1;" xml:space="preserve">
<style type="text/css">
	.st0{fill:#656868;}
</style>
<g>
	<g>
		<path class="st0" d="M171.8,115.6c0.7,0.2,0.8,1.2,0.2,1.6c-0.5,0.3-0.9,0.6-1.3,0.9c-0.2,0.2-0.4,0.3-0.6,0.5
			c-1.1,0.8-2.1,1.7-3.1,2.6c-3.5,3.3-6.5,7.1-8.7,11.5c0,0,0,0.1-0.1,0.1c-0.3,0.5-1,0.8-1.6,0.5c-0.7-0.3-1.1-1.1-0.8-1.8
			c0-0.1,0.1-0.2,0.1-0.3c1.7-3.4,3.9-6.5,6.4-9.3c0.2-0.3,0-0.7-0.3-0.7c-2.5,0.3-5,0.8-7.4,1.5c-0.3,0.1-0.5,0.3-0.6,0.6
			c-0.6,1.9-1.4,3.8-2.2,5.6c0,0.1-0.1,0.2-0.1,0.2l-0.1,0.1c-0.4,0.5-1,0.7-1.6,0.5c-0.7-0.3-1.1-1.1-0.8-1.8v-0.1c0,0,0,0,0-0.1
			c0.4-0.9,0.9-1.9,1.2-2.8c0.1-0.4-0.2-0.7-0.6-0.6c-1.1,0.5-2.3,1-3.3,1.6l-0.1,0.1c-0.3,0.1-0.7,0.2-1,0
			c-0.7-0.3-1.1-1.1-0.8-1.8c0.1-0.3,0.3-0.5,0.6-0.7l0.1-0.1c2.1-1.2,4.3-2.1,6.6-2.9c1-0.4,2-0.7,3.1-1c3.4-0.9,7-1.5,10.7-1.6
			c0.2,0,0.4-0.1,0.6-0.2l0.7-0.6c0.2-0.2,0.1-0.6-0.2-0.7c-3.7-0.9-7.4-1.2-11-1.1c-0.9,0-1.9,0.1-2.8,0.2c-2,0.2-3.9,0.5-5.8,1
			c-0.7,0.2-1.4,0.4-2.1,0.6c-0.2,0.1-0.3,0.1-0.4,0.1c-0.2,0-0.4,0-0.6-0.1c-0.7-0.3-1.1-1.1-0.8-1.8c0.1-0.4,0.4-0.6,0.7-0.8l0,0
			c0.1,0,0.1,0,0.2,0l0,0c2.9-0.9,6-1.5,9.1-1.7c0.9-0.1,1.8-0.1,2.8-0.1c4-0.1,8,0.3,12,1.3c0.8,0.2,1.5,0.4,2.2,0.6
			C170.8,115.3,171.3,115.5,171.8,115.6z"/>
		<path class="st0" d="M186.6,110c0.7-0.3,1.4,0.2,1.3,1c-0.1,0.5-0.2,1.1-0.3,1.6c0,0.3-0.1,0.5-0.1,0.8c-0.2,1.3-0.3,2.7-0.3,4
			c-0.2,4.8,0.5,9.6,2,14.3v0.1c0.1,0.6-0.2,1.3-0.8,1.6c-0.7,0.3-1.5,0-1.8-0.7c0-0.1-0.1-0.2-0.1-0.3c-1.2-3.6-1.8-7.3-2-11.1
			c0-0.4-0.5-0.5-0.7-0.2c-1.6,2-3,4.1-4.1,6.3c-0.1,0.3-0.1,0.6,0,0.8c0.9,1.8,1.7,3.7,2.4,5.5c0,0.1,0.1,0.2,0.1,0.2s0,0.1,0,0.2
			c0.1,0.6-0.2,1.2-0.8,1.5c-0.7,0.3-1.5,0-1.8-0.7v-0.1c0,0,0,0,0-0.1c-0.3-1-0.7-1.9-1.1-2.9c-0.2-0.4-0.7-0.3-0.8,0
			c-0.5,1.2-0.9,2.3-1.2,3.5c0,0.1,0,0.1,0,0.2c-0.1,0.3-0.4,0.6-0.7,0.8c-0.7,0.3-1.5,0-1.8-0.7c-0.1-0.3-0.2-0.6-0.1-0.9
			c0-0.1,0-0.1,0-0.2c0.7-2.3,1.5-4.6,2.6-6.7c0.5-1,1-1.9,1.5-2.8c1.8-3.1,3.9-6,6.4-8.7c0.1-0.1,0.2-0.3,0.2-0.5l0.1-1
			c0-0.3-0.3-0.5-0.6-0.4c-3.2,2-6.1,4.4-8.6,7c-0.6,0.7-1.3,1.4-1.8,2.1c-1.3,1.5-2.4,3.1-3.4,4.8c-0.4,0.6-0.8,1.3-1.1,1.9
			c-0.1,0.2-0.2,0.3-0.2,0.3c-0.1,0.1-0.3,0.3-0.5,0.3c-0.7,0.3-1.5,0-1.8-0.7c-0.2-0.4-0.2-0.7,0-1.1l0,0c0-0.1,0.1-0.1,0.1-0.2
			l0,0c1.5-2.7,3.2-5.3,5.2-7.6c0.6-0.7,1.2-1.4,1.8-2.1c2.7-2.9,5.9-5.4,9.5-7.6c0.7-0.4,1.3-0.8,2-1.1
			C185.6,110.5,186.1,110.2,186.6,110z"/>
		<path class="st0" d="M193,95.5c0.2-0.7,1.2-0.8,1.6-0.2c0.3,0.5,0.6,0.9,0.9,1.3c0.2,0.2,0.3,0.4,0.5,0.6c0.8,1.1,1.7,2.1,2.6,3.1
			c3.3,3.5,7.1,6.5,11.5,8.7c0,0,0.1,0,0.1,0.1c0.5,0.3,0.8,1,0.5,1.6c-0.3,0.7-1.1,1.1-1.8,0.8c-0.1,0-0.2-0.1-0.3-0.1
			c-3.4-1.7-6.5-3.9-9.3-6.4c-0.3-0.2-0.7,0-0.7,0.3c0.3,2.5,0.8,5,1.5,7.4c0.1,0.3,0.3,0.5,0.6,0.6c1.9,0.6,3.8,1.4,5.6,2.2
			c0.1,0,0.2,0.1,0.2,0.1l0.1,0.1c0.5,0.4,0.7,1,0.5,1.6c-0.3,0.7-1.1,1.1-1.8,0.8h-0.1c0,0,0,0-0.1,0c-0.9-0.4-1.9-0.9-2.8-1.2
			c-0.4-0.1-0.7,0.2-0.6,0.6c0.5,1.1,1,2.3,1.6,3.3l0.1,0.1c0.1,0.3,0.2,0.7,0,1c-0.3,0.7-1.1,1.1-1.8,0.8c-0.3-0.1-0.5-0.3-0.7-0.6
			l-0.1-0.1c-1.2-2.1-2.1-4.3-2.9-6.6c-0.4-1-0.7-2-1-3.1c-0.9-3.4-1.5-7-1.6-10.7c0-0.2-0.1-0.4-0.2-0.6l-0.6-0.7
			c-0.2-0.2-0.6-0.1-0.7,0.2c-0.9,3.7-1.2,7.4-1.1,11c0,0.9,0.1,1.9,0.2,2.8c0.2,2,0.5,3.9,1,5.8c0.2,0.7,0.4,1.4,0.6,2.1
			c0.1,0.2,0.1,0.3,0.1,0.4c0,0.2,0,0.4-0.1,0.6c-0.3,0.7-1.1,1.1-1.8,0.8c-0.4-0.1-0.6-0.4-0.8-0.7l0,0c0-0.1,0-0.1,0-0.2l0,0
			c-0.9-2.9-1.5-6-1.7-9.1c-0.1-0.9-0.1-1.8-0.1-2.8c-0.1-4,0.3-8,1.3-12c0.2-0.8,0.4-1.5,0.6-2.2C192.7,96.5,192.9,96,193,95.5z"/>
		<path class="st0" d="M187.4,80.7c-0.3-0.7,0.2-1.4,1-1.3c0.5,0.1,1.1,0.2,1.6,0.3c0.3,0,0.5,0.1,0.8,0.1c1.3,0.2,2.7,0.3,4,0.3
			c4.8,0.2,9.6-0.5,14.3-2h0.1c0.6-0.1,1.3,0.2,1.6,0.8c0.3,0.7,0,1.5-0.7,1.8c-0.1,0-0.2,0.1-0.3,0.1c-3.6,1.2-7.3,1.8-11.1,2
			c-0.4,0-0.5,0.5-0.2,0.7c2,1.6,4.1,3,6.3,4.1c0.3,0.1,0.6,0.1,0.8,0c1.8-0.9,3.7-1.7,5.5-2.4c0.1,0,0.2-0.1,0.2-0.1s0.1,0,0.2,0
			c0.6-0.1,1.2,0.2,1.5,0.8c0.3,0.7,0,1.5-0.7,1.8h-0.1c0,0,0,0-0.1,0c-1,0.3-1.9,0.7-2.9,1.1c-0.4,0.2-0.3,0.7,0,0.8
			c1.2,0.5,2.3,0.9,3.5,1.2c0.1,0,0.1,0,0.2,0c0.3,0.1,0.6,0.4,0.8,0.7c0.3,0.7,0,1.5-0.7,1.8c-0.3,0.1-0.6,0.2-0.9,0.1
			c-0.1,0-0.1,0-0.2,0c-2.3-0.7-4.6-1.5-6.7-2.6c-1-0.5-1.9-1-2.8-1.5c-3.1-1.8-6-3.9-8.7-6.4c-0.1-0.1-0.3-0.2-0.5-0.2l-1-0.1
			c-0.3,0-0.5,0.3-0.4,0.6c2,3.2,4.4,6.1,7,8.6c0.7,0.6,1.4,1.3,2.1,1.8c1.5,1.3,3.1,2.4,4.8,3.4c0.6,0.4,1.3,0.8,1.9,1.1
			c0.2,0.1,0.3,0.2,0.3,0.2c0.1,0.1,0.3,0.3,0.3,0.5c0.3,0.7,0,1.5-0.7,1.8c-0.4,0.2-0.7,0.2-1.1,0l0,0c-0.1,0-0.1-0.1-0.2-0.1l0,0
			c-2.7-1.5-5.3-3.2-7.6-5.2c-0.7-0.6-1.4-1.2-2.1-1.8c-2.9-2.7-5.4-5.9-7.6-9.5c-0.4-0.7-0.8-1.3-1.1-2
			C187.9,81.7,187.6,81.2,187.4,80.7z"/>
		<path class="st0" d="M172.9,74.3c-0.7-0.2-0.8-1.2-0.2-1.6c0.5-0.3,0.9-0.6,1.3-0.9c0.2-0.2,0.4-0.3,0.6-0.5
			c1.1-0.8,2.1-1.7,3.1-2.6c3.5-3.3,6.5-7.1,8.7-11.5c0,0,0-0.1,0.1-0.1c0.3-0.5,1-0.8,1.6-0.5c0.7,0.3,1.1,1.1,0.8,1.8
			c0,0.1-0.1,0.2-0.1,0.3c-1.7,3.4-3.9,6.5-6.4,9.3c-0.2,0.3,0,0.7,0.3,0.7c2.5-0.3,5-0.8,7.4-1.5c0.3-0.1,0.5-0.3,0.6-0.6
			c0.6-1.9,1.4-3.8,2.2-5.6c0-0.1,0.1-0.2,0.1-0.2l0.1-0.1c0.4-0.5,1-0.7,1.6-0.5c0.7,0.3,1.1,1.1,0.8,1.8v0.1c0,0,0,0,0,0.1
			c-0.4,0.9-0.9,1.9-1.2,2.8c-0.1,0.4,0.2,0.7,0.6,0.6c1.1-0.5,2.3-1,3.3-1.6l0.1-0.1c0.3-0.1,0.7-0.2,1,0c0.7,0.3,1.1,1.1,0.8,1.8
			c-0.1,0.3-0.3,0.5-0.6,0.7l-0.1,0.1c-2.1,1.2-4.3,2.1-6.6,2.9c-1,0.4-2,0.7-3.1,1c-3.4,0.9-7,1.5-10.7,1.6c-0.2,0-0.4,0.1-0.6,0.2
			l-0.7,0.6c-0.2,0.2-0.1,0.6,0.2,0.7c3.7,0.9,7.4,1.2,11,1.1c0.9,0,1.9-0.1,2.8-0.2c2-0.2,3.9-0.5,5.8-1c0.7-0.2,1.4-0.4,2.1-0.6
			c0.2-0.1,0.3-0.1,0.4-0.1c0.2,0,0.4,0,0.6,0.1c0.7,0.3,1.1,1.1,0.8,1.8c-0.1,0.4-0.4,0.6-0.7,0.8l0,0c-0.1,0-0.1,0-0.2,0l0,0
			c-2.9,0.9-6,1.5-9.1,1.7c-0.9,0.1-1.8,0.1-2.8,0.1c-4,0.1-8-0.3-12-1.3c-0.8-0.2-1.5-0.4-2.2-0.6
			C173.9,74.6,173.4,74.5,172.9,74.3z"/>
		<path class="st0" d="M158.1,79.9c-0.7,0.3-1.4-0.2-1.3-1c0.1-0.5,0.2-1.1,0.3-1.6c0-0.3,0.1-0.5,0.1-0.8c0.2-1.3,0.3-2.7,0.3-4
			c0.2-4.8-0.5-9.6-2-14.3v-0.1c-0.1-0.6,0.2-1.3,0.8-1.6c0.7-0.3,1.5,0,1.8,0.7c0,0.1,0.1,0.2,0.1,0.3c1.2,3.6,1.8,7.3,2,11.1
			c0,0.4,0.5,0.5,0.7,0.2c1.6-2,3-4.1,4.1-6.3c0.1-0.3,0.1-0.6,0-0.8c-0.9-1.8-1.7-3.7-2.4-5.5c0-0.1-0.1-0.2-0.1-0.2s0-0.1,0-0.2
			c-0.1-0.6,0.2-1.2,0.8-1.5c0.7-0.3,1.5,0,1.8,0.7v0.1c0,0,0,0,0,0.1c0.3,1,0.7,1.9,1.1,2.9c0.2,0.4,0.7,0.3,0.8,0
			c0.5-1.2,0.9-2.3,1.2-3.5c0-0.1,0-0.1,0-0.2c0.1-0.3,0.4-0.6,0.7-0.8c0.7-0.3,1.5,0,1.8,0.7c0.1,0.3,0.2,0.6,0.1,0.9
			c0,0.1,0,0.1,0,0.2c-0.7,2.3-1.5,4.6-2.6,6.7c-0.5,1-1,1.9-1.5,2.8c-1.8,3.1-3.9,6-6.4,8.7c-0.1,0.1-0.2,0.3-0.2,0.5l-0.1,1
			c0,0.3,0.3,0.5,0.6,0.4c3.2-2,6.1-4.4,8.6-7c0.6-0.7,1.3-1.4,1.8-2.1c1.3-1.5,2.4-3.1,3.4-4.8c0.4-0.6,0.8-1.3,1.1-1.9
			c0.1-0.2,0.2-0.3,0.2-0.3c0.1-0.1,0.3-0.3,0.5-0.3c0.7-0.3,1.5,0,1.8,0.7c0.2,0.4,0.2,0.7,0,1.1l0,0c0,0.1-0.1,0.1-0.1,0.2l0,0
			c-1.5,2.7-3.2,5.3-5.2,7.6c-0.6,0.7-1.2,1.4-1.8,2.1c-2.7,2.9-5.9,5.4-9.5,7.6c-0.7,0.4-1.3,0.8-2,1.1
			C159.1,79.5,158.6,79.7,158.1,79.9z"/>
		<path class="st0" d="M151.7,94.4c-0.2,0.7-1.2,0.8-1.6,0.2c-0.3-0.5-0.6-0.9-0.9-1.3c-0.2-0.2-0.3-0.4-0.5-0.6
			c-0.8-1.1-1.7-2.1-2.6-3.1c-3.3-3.5-7.1-6.5-11.5-8.7c0,0-0.1,0-0.1-0.1c-0.5-0.3-0.8-1-0.5-1.6c0.3-0.7,1.1-1.1,1.8-0.8
			c0.1,0,0.2,0.1,0.3,0.1c3.4,1.7,6.5,3.9,9.3,6.4c0.3,0.2,0.7,0,0.7-0.3c-0.3-2.5-0.8-5-1.5-7.4c-0.1-0.3-0.3-0.5-0.6-0.6
			c-1.9-0.6-3.8-1.4-5.6-2.2c-0.1,0-0.2-0.1-0.2-0.1l-0.1-0.1c-0.5-0.4-0.7-1-0.5-1.6c0.3-0.7,1.1-1.1,1.8-0.8h0.1c0,0,0,0,0.1,0
			c0.9,0.4,1.9,0.9,2.8,1.2c0.4,0.1,0.7-0.2,0.6-0.6c-0.5-1.1-1-2.3-1.6-3.3l-0.1-0.1c-0.1-0.3-0.2-0.7,0-1c0.3-0.7,1.1-1.1,1.8-0.8
			c0.3,0.1,0.5,0.3,0.7,0.6l0.1,0.1c1.2,2.1,2.1,4.3,2.9,6.6c0.4,1,0.7,2,1,3.1c0.9,3.4,1.5,7,1.6,10.7c0,0.2,0.1,0.4,0.2,0.6
			l0.6,0.7c0.2,0.2,0.6,0.1,0.7-0.2c0.9-3.7,1.2-7.4,1.1-11c0-0.9-0.1-1.9-0.2-2.8c-0.2-2-0.5-3.9-1-5.8c-0.2-0.7-0.4-1.4-0.6-2.1
			c-0.1-0.2-0.1-0.3-0.1-0.4c0-0.2,0-0.4,0.1-0.6c0.3-0.7,1.1-1.1,1.8-0.8c0.4,0.1,0.6,0.4,0.8,0.7l0,0c0,0.1,0,0.1,0,0.2l0,0
			c0.9,2.9,1.5,6,1.7,9.1c0.1,0.9,0.1,1.8,0.1,2.8c0.1,4-0.3,8-1.3,12c-0.2,0.8-0.4,1.5-0.6,2.2C152,93.4,151.9,93.9,151.7,94.4z"/>
		<path class="st0" d="M157.3,109.2c0.3,0.7-0.2,1.4-1,1.3c-0.5-0.1-1.1-0.2-1.6-0.3c-0.3,0-0.5-0.1-0.8-0.1c-1.3-0.2-2.7-0.3-4-0.3
			c-4.8-0.2-9.6,0.5-14.3,2h-0.1c-0.6,0.1-1.3-0.2-1.6-0.8c-0.3-0.7,0-1.5,0.7-1.8c0.1,0,0.2-0.1,0.3-0.1c3.6-1.2,7.3-1.8,11.1-2
			c0.4,0,0.5-0.5,0.2-0.7c-2-1.6-4.1-3-6.3-4.1c-0.3-0.1-0.6-0.1-0.8,0c-1.8,0.9-3.7,1.7-5.5,2.4c-0.1,0-0.2,0.1-0.2,0.1
			s-0.1,0-0.2,0c-0.6,0.1-1.2-0.2-1.5-0.8c-0.3-0.7,0-1.5,0.7-1.8h0.1c0,0,0,0,0.1,0c1-0.3,1.9-0.7,2.9-1.1c0.4-0.2,0.3-0.7,0-0.8
			c-1.2-0.5-2.3-0.9-3.5-1.2c-0.1,0-0.1,0-0.2,0c-0.3-0.1-0.6-0.4-0.8-0.7c-0.3-0.7,0-1.5,0.7-1.8c0.3-0.1,0.6-0.2,0.9-0.1
			c0.1,0,0.1,0,0.2,0c2.3,0.7,4.6,1.5,6.7,2.6c1,0.5,1.9,1,2.8,1.5c3.1,1.8,6,3.9,8.7,6.4c0.1,0.1,0.3,0.2,0.5,0.2l1,0.1
			c0.3,0,0.5-0.3,0.4-0.6c-2-3.2-4.4-6.1-7-8.6c-0.7-0.6-1.4-1.3-2.1-1.8c-1.5-1.3-3.1-2.4-4.8-3.4c-0.6-0.4-1.3-0.8-1.9-1.1
			c-0.2-0.1-0.3-0.2-0.3-0.2c-0.1-0.1-0.3-0.3-0.3-0.5c-0.3-0.7,0-1.5,0.7-1.8c0.4-0.2,0.7-0.2,1.1,0l0,0c0.1,0,0.1,0.1,0.2,0.1l0,0
			c2.7,1.5,5.3,3.2,7.6,5.2c0.7,0.6,1.4,1.2,2.1,1.8c2.9,2.7,5.4,5.9,7.6,9.5c0.4,0.7,0.8,1.3,1.1,2
			C156.9,108.2,157.1,108.7,157.3,109.2z"/>
	</g>
	<g>
		<path class="st0" d="M124.3,183.5h1.4v2.5h2.6v-2.5h1.4v6.4h-1.4v-2.6h-2.6v2.6h-1.4V183.5z"/>
		<path class="st0" d="M131.3,186.7L131.3,186.7c0-1.8,1.4-3.3,3.4-3.3s3.4,1.5,3.4,3.3l0,0c0,1.8-1.4,3.3-3.4,3.3
			C132.7,190,131.3,188.6,131.3,186.7z M136.6,186.7L136.6,186.7c0-1.1-0.8-2-1.9-2s-1.9,0.9-1.9,2l0,0c0,1.1,0.8,2,1.9,2
			S136.6,187.8,136.6,186.7z"/>
		<path class="st0" d="M140.9,184.8h-2v-1.3h5.3v1.3h-2v5.1h-1.4L140.9,184.8L140.9,184.8z"/>
		<path class="st0" d="M145.6,183.5h4.9v1.3H147v1.3h3v1.3h-3v1.4h3.5v1.3h-4.9V183.5z"/>
		<path class="st0" d="M152,183.5h1.4v5.1h3.2v1.3H152V183.5z"/>
		<path class="st0" d="M161,183.5h1.3l3,4v-4h1.4v6.4h-1.2l-3.1-4.1v4.1H161V183.5z"/>
		<path class="st0" d="M168.5,183.5h1.4v2.5h2.6v-2.5h1.4v6.4h-1.4v-2.6H170v2.6h-1.4v-6.4H168.5z"/>
		<path class="st0" d="M178,183.5h1.3l2.8,6.5h-1.5l-0.6-1.4h-2.7l-0.6,1.4h-1.4L178,183.5z M179.5,187.2l-0.9-2.1l-0.9,2.1H179.5z"
			/>
		<path class="st0" d="M187.9,184.8h-2v-1.3h5.3v1.3h-2v5.1h-1.4L187.9,184.8L187.9,184.8z"/>
		<path class="st0" d="M192.6,183.5h2.9c0.8,0,1.4,0.2,1.9,0.7c0.4,0.4,0.6,0.9,0.6,1.5l0,0c0,1-0.6,1.7-1.4,2l1.6,2.3h-1.7
			l-1.4-2.1H194v2.1h-1.4V183.5z M195.4,186.6c0.7,0,1.1-0.4,1.1-0.9l0,0c0-0.6-0.4-0.9-1.1-0.9H194v1.8L195.4,186.6L195.4,186.6z"
			/>
		<path class="st0" d="M201.7,183.5h1.3l2.8,6.5h-1.5l-0.6-1.4H201l-0.6,1.4H199L201.7,183.5z M203.2,187.2l-0.9-2.1l-0.9,2.1H203.2
			z"/>
		<path class="st0" d="M207,183.5h1.3l3,4v-4h1.4v6.4h-1.2l-3.1-4.1v4.1H207V183.5z"/>
		<path class="st0" d="M214.3,186.7L214.3,186.7c0-1.8,1.4-3.3,3.4-3.3c1.1,0,1.9,0.3,2.5,0.9l-0.9,1.1c-0.5-0.4-0.9-0.7-1.7-0.7
			c-1,0-1.8,0.9-1.8,2l0,0c0,1.2,0.8,2,1.9,2c0.5,0,1-0.1,1.3-0.4v-0.9h-1.4v-1.2h2.8v2.8c-0.7,0.6-1.6,1-2.7,1
			C215.7,190,214.3,188.6,214.3,186.7z"/>
	</g>
	<g>
		<path class="st0" d="M121.8,167.4c0-4.5-3.2-6.1-8.3-7.3c-4.2-1.1-6.2-1.6-6.2-4c0-2.2,1.5-3.5,4.9-3.5c2.6,0,5,1.1,6.2,2
			c0.3,0.3,0.8,0.2,1-0.2l1.1-2c0.2-0.3,0.1-0.7-0.2-0.9c-2.1-1.4-4.9-2.5-8-2.5c-5.2,0-9.2,2.7-9.2,7.7c0,4,2.5,5.4,7.5,6.7
			c4.3,1.1,6.9,1.9,6.9,4.4c0,2.1-1.8,3.2-4.9,3.2c-3.3,0-6.5-1.5-8-2.7c-0.3-0.3-0.8-0.2-1,0.2l-1.1,2.2c-0.2,0.3-0.1,0.7,0.2,0.9
			c2.8,2,6.3,3.1,9.9,3.1C117.6,174.6,121.8,172.5,121.8,167.4z"/>
		<path class="st0" d="M136.3,163.2h9.9c0.4,0,0.7-0.3,0.7-0.7v-2c0-0.4-0.3-0.7-0.7-0.7h-9.9c-0.4,0-0.7-0.3-0.7-0.7v-5.8
			c0-0.4,0.3-0.7,0.7-0.7h11.6c0.4,0,0.7-0.3,0.7-0.7v-2.2c0-0.4-0.3-0.7-0.7-0.7h-15.6c-0.4,0-0.7,0.3-0.7,0.7v23.8
			c0,0.4,0.3,0.7,0.7,0.7h15.9c0.4,0,0.7-0.3,0.7-0.7v-2.2c0-0.4-0.3-0.7-0.7-0.7h-12c-0.4,0-0.7-0.3-0.7-0.7v-6.4
			C135.6,163.5,135.9,163.2,136.3,163.2z"/>
		<path class="st0" d="M193.9,158.1l12.9,16c0.1,0.2,0.3,0.3,0.5,0.3h2.3c0.4,0,0.7-0.3,0.7-0.7v-23.8c0-0.4-0.3-0.7-0.7-0.7h-2.7
			c-0.4,0-0.7,0.3-0.7,0.7v15.5c0,0.6-0.8,0.9-1.2,0.4l-13-16.4c-0.1-0.2-0.3-0.3-0.5-0.3h-2.1c-0.4,0-0.7,0.3-0.7,0.7v23.8
			c0,0.4,0.3,0.7,0.7,0.7h2.6c0.4,0,0.7-0.3,0.7-0.7v-15C192.7,157.9,193.5,157.6,193.9,158.1z"/>
		<path class="st0" d="M179.4,173.5c0.2,0.4-0.2,0.9-0.6,0.9h-2.6c-0.3,0-0.7-0.2-0.8-0.5l-1-2.8c-0.1-0.2-0.2-0.3-0.4-0.4
			c-0.8-0.4-1.7-0.6-2.6-0.8c-0.2,0-0.4-0.1-0.5-0.1l0,0c-0.1,0-0.3-0.1-0.4-0.1c-0.2,0-0.4-0.1-0.6-0.1c-0.2,0-0.4-0.2-0.5-0.4
			l-0.2-0.5c-0.2-0.4-0.1-0.2-0.3-0.7l-0.4-1c-0.2-0.5,0.2-0.9,0.7-0.9c0.9,0,1.7,0.1,2.5,0.3l0.4,0.1c0.3,0.1,0.6-0.3,0.5-0.6
			l-0.4-1.2l-0.3-0.9l-2.5-6.8l-0.6-1.5c-0.2-0.6-1-0.6-1.3,0l-3.5,9.2l0,0l-3.5,9.3c-0.1,0.3-0.4,0.5-0.8,0.5h-2.3
			c-0.5,0-0.8-0.5-0.6-0.9l9.5-23.8c0.1-0.3,0.3-0.4,0.6-0.4h2.6c0.3,0,0.5,0.2,0.6,0.4l1.1,2.7l5.3,13.4l1,2.6l1.3,3.2L179.4,173.5
			z"/>
		<path class="st0" d="M242.3,173.5c0.2,0.4-0.2,0.9-0.6,0.9h-2.6c-0.3,0-0.7-0.2-0.8-0.5l-1-2.8c-0.1-0.2-0.2-0.3-0.4-0.4
			c-0.8-0.4-1.7-0.6-2.6-0.8c-0.2,0-0.4-0.1-0.5-0.1l0,0c-0.1,0-0.3-0.1-0.4-0.1c-0.2,0-0.4-0.1-0.6-0.1c-0.2,0-0.4-0.2-0.5-0.4
			l-0.3-0.6c-0.2-0.4-0.1-0.2-0.3-0.7l-0.4-1c-0.2-0.5,0.2-0.9,0.7-0.9c0.9,0,1.7,0.1,2.5,0.3l0.4,0.1c0.3,0.1,0.6-0.3,0.5-0.6
			l-0.4-1.2l-0.3-0.9l-2.5-6.8l-0.6-1.5c-0.2-0.6-1-0.6-1.3,0l-3.5,9.2l0,0l-3.5,9.3c-0.1,0.3-0.4,0.5-0.8,0.5h-2.3
			c-0.5,0-0.8-0.5-0.6-0.9l9.5-23.8c0.1-0.3,0.3-0.4,0.6-0.4h2.6c0.3,0,0.5,0.2,0.6,0.4l1.1,2.7l5.3,13.4l1,2.6l1.3,3.2L242.3,173.5
			z"/>
	</g>
</g>
</svg>
