<?xml version="1.0" encoding="utf-8"?>
<!-- Generator: Adobe Illustrator 24.1.0, SVG Export Plug-In . SVG Version: 6.00 Build 0)  -->
<svg version="1.1" id="Layer_1" xmlns="http://www.w3.org/2000/svg" xmlns:xlink="http://www.w3.org/1999/xlink" x="0px" y="0px"
	 viewBox="0 0 350 255.1" style="enable-background:new 0 0 350 255.1;" xml:space="preserve">
<style type="text/css">
	.st0{fill:#656868;}
</style>
<path class="st0" d="M177.2,66.8c30.1,0,54.8,22.8,57.2,51.9c-0.9,1.2-2.3,1.9-3.7,2.2c-5.1,1.1-6.7-3.3-10.9-6.1
	c-4.3-2.8-8.2-3.9-12.1-7.8c-1.6-1.6-2-4.3-3.6-5.9c-2.1-2.2-3.4-2.9-6.2-4c-5-1.9-9.3-3.4-13.4-6.8c-0.7-0.6-2.4-1.4-3.9-1.6
	c-0.7-0.1-1,0-1.2,0.2c-0.6,0.8-1.2,1.7-1.7,2.6c-0.2,0.3-0.7,1-1.1,1.4c-0.8,0.7-1.8,1.6-2.6,2.1c-4.2,2.5-9.7,4.7-12.1,9
	c-0.5,0.8-5,2.9-6.1,3.8c-1.7,1.3-3.3,2.7-5,4c-1.6,1.2-3.8,3-5.5,4.3c-0.9-0.3-1.8-0.6-2.6-0.8c-2-0.4-3.6-1.9-5.3-2.9
	c-2.2-1.3-2-1.5-2.7-1.9c-0.6-0.3-0.9-0.5-1.1-0.7c-1.6-0.9-1.7,0-4,1.4c-1.9,1.2-4.1,3.1-5.7,4.7c-1.3,1.2-2.6,2.5-4,3.9
	C121.9,90.1,146.8,66.8,177.2,66.8 M130.8,156.5c-4.4-6-7.7-12.8-9.4-20.3c0.5,0.1,1.1,0.3,2.2,0.6c3.4,1.1,9.7,3.2,14.3,1.1
	c2.9-1.4,8-2.5,9.9-3.2c1.8-0.7,5.7,1,1.1-2.1l0,0c-0.1-0.1-0.1-0.1-0.2-0.1c-0.1-0.1-0.3-0.1-0.5-0.1c-0.5-0.1-4.1,0.6-5,0.5
	c-0.3-0.1-0.5-0.2-0.7-0.3c-2-1.1,6.5-7.7,6.8-9.4c-2.4,0.3-4.5,1.8-6.7,2.8c-2.6,1.1-5.4,1.2-8.2,1.2c-3.1,0-5.6,2.5-8.4,3.6
	c-1.4,0.6-3.8,1.2-5.4,2.2c-0.1-0.7-0.2-1.4-0.3-2.1c0.1-1.2,0.2-2.6,0.5-4.3c0.6-3.6,2.1-6.4,5.4-10.7c0,0,3.2-3.8,5-5
	c0.7-0.5,1.5-1.2,2.3-0.7s-0.2,3.6,1.9,4.2c1.3,0.3,0.2,2.5,0.6,3.7c0.5,1.3-5.4,6.5-3.8,7.1c0.9,0.4,4.7-1.6,6.8-2.3
	c1.8-0.6,3.8-0.6,5.7-2.5c2-1.9,4.1-3,4.1-3c1.7-1.4,3.3-2.8,4.9-4.3c1.6-1.4,3.1-2.8,4.7-4.3c1-0.9,5.4-3.3,5.8-4.2
	c2-4.4,7.4-7,11.4-9.8c0.7-0.5,1.5-1.6,2-2.2s0.9-1.5,1.2-1.8c0.5-0.6,0.6-1,1.2-1.3c0.2-0.1,1.1-0.1,1.5,0.3c1.3,1.4,3,2.6,3.1,4
	c0.1,2.2,6.3,4.2,7.8,5.9c0.6,0.7,0.9,1.4,1.2,2.1c-1.1-0.5-2.2-1-3.1-1.7c-0.6-0.4-2.1-0.3-2.9-0.5c-2.1-0.4-1.7,0.6-0.5,1.9
	s2.6,2.4,3.8,3.8c1.3,1.6,1.2,2.9,1.5,4.8c0.4,2,1.6,3.8,2.6,5.6s0.9,3.7,1.5,5.7c0.6,1.9,2.2,3.6,3.6,5c1.2,1.2,3.8,4.2,5.3,3.6
	c1.5-0.7,3.5,1.2,4,0.7c0.6-0.5-1.6-3-0.7-3.8c0.8-0.8,4.4,0.4,5.1,2.7c0.8,2.6,0.7,2.9,0.6,4.8c-0.1,1.2-0.6,2.3-1.4,3.1
	c-1,1.1-3.5,2.8-3,4.6c2.2-1.2,4.7-1.3,7.2-1.2c2.4,0.1,4.2-0.9,5.8-2.7c0.7-0.8,2.8-3.2,3.9-2c0.7,0.7-1.4,3.7,0.9,3.1
	c1.5-0.4,2.9-1.6,4.3-2.3c0.4-0.2,0.7-0.4,1-0.6c-1.8,7.6-5.1,14.5-9.7,20.6l1.7,1.4c8-10.3,12.9-23.3,12.9-37.3
	c0-33.5-27.2-60.7-60.7-60.7s-60.7,27.2-60.7,60.7c0,14,4.7,26.8,12.6,37.1L130.8,156.5z M155.5,156.5c-0.1,0.7-1,6.2-2,12.4
	c-1.8-0.4-3.6-1.1-5.6-2.2c-2-1.1-3.5-2.3-4.8-3.6c4.7-4.1,9-7.8,9.5-8.2c1.3-1.1,1.9-1.3,2.5-1
	C155.6,154.2,155.7,154.9,155.5,156.5z M159,147.5c0,0-0.1-0.1-0.3-0.2c-0.2-0.1-0.3-0.2-0.3-0.2l0,0c-2.8-1.6-5.7-1.5-8.9,0.9
	c-4.5,3.3-26,21.5-26,21.5l6.2,5.3c0,0,3.5-3,7.7-6.7c2.1,1.8,4.4,3.5,7,5s5.3,2.6,7.9,3.3c-0.9,5.6-1.6,10.1-1.6,10.1l7.8,2.5
	c0,0,4.1-28,4.5-33.5C163.2,151.5,161.8,149.1,159,147.5z M172.9,190.1h8v-39.9h-8V190.1z M205.7,166.8c-2,1.1-3.8,1.8-5.6,2.2
	c-1-6.1-1.9-11.7-2-12.4c-0.2-1.6-0.1-2.3,0.5-2.6s1.2-0.1,2.5,1c0.5,0.5,4.8,4.2,9.5,8.3C209.2,164.5,207.7,165.6,205.7,166.8z
	 M195.2,147.1c0,0-0.1,0.1-0.3,0.2c-0.2,0.1-0.3,0.2-0.3,0.2l0,0c-2.8,1.6-4.3,4-4,8c0.4,5.5,4.5,33.5,4.5,33.5l7.8-2.5
	c0,0-0.7-4.5-1.6-10.1c2.7-0.8,5.3-1.9,8-3.3c2.6-1.5,5-3.1,7-4.9c4.2,3.7,7.7,6.7,7.7,6.7l6.2-5.3c0,0-21.5-18.3-26-21.6
	C200.9,145.7,198.1,145.6,195.2,147.1z M196.9,135.7c-1.4-2.7-6.3-0.6-8.9-2.9c-0.7-0.6-2.2-2-2.9-4.2s-1.8-3.9-3.6-5.3
	c-3.2-2.5-10.8-6.3-10.3-11.5c0.2-2.3,3-2.8,4.1-4.5c0.7-1,0.8-2.3,1.6-3.2c0.9-1-0.4-1.1-1.3-1.1c-1.9-0.1-3.4,2-4.9,2.9
	c-2.6,1.4-5,3.3-7.9,4c-0.9,0.2-5.3,1.6-2.4,2.3c2,0.5,4.2,0.4,5.8,1.8c2.1,1.8,3.8,4.1,5.9,5.9c1.1,0.9,2.1,1.8,3,2.9
	c1,1.3,0.9,2.8,1.6,4.1c0.7,1.3,2.1,0.1,3,0.8c2.9,2.4-1.1,3.6-2.2,4.7c-1.3,1.5-1.6,2.4-4.1,3.4c-1.1,0.4-8.1,1.3-9,1.9
	c-0.9,0.7-0.4,0.9-0.2,1.1c0.2,0.3,1.5,0.6,2,0.7c3,0.3,12.1,2,14-0.3c1.3-1.6,3.2-1.8,5.3-1.2c1.5,0.4,4.4,0.1,7-0.9
	C194,136.4,198.1,136.3,196.9,135.7z"/>
</svg>
