<?xml version="1.0" encoding="utf-8"?>
<!-- Generator: Adobe Illustrator 21.1.0, SVG Export Plug-In . SVG Version: 6.00 Build 0)  -->
<svg version="1.1" id="Layer_1" xmlns="http://www.w3.org/2000/svg" xmlns:xlink="http://www.w3.org/1999/xlink" x="0px" y="0px"
	 viewBox="0 0 350 255.1" style="enable-background:new 0 0 350 255.1;" xml:space="preserve">
<style type="text/css">
	.st0{fill:#1F191A;}
</style>
<path class="st0" d="M114,168.4h-2.7v-4h2.7v-1.5c0-2.3,0.5-4.1,1.7-5.2c1.1-1.1,2.7-1.7,4.8-1.7c0.8,0,1.6,0.1,2.2,0.2
	c0.6,0.1,1.1,0.2,1.7,0.4v4.1c-0.5-0.2-0.9-0.3-1.4-0.4s-0.9-0.2-1.5-0.2c-1.8,0-2.8,1.1-2.8,3.2v1.1h5.6v4h-5.5v17H114V168.4z"/>
<path class="st0" d="M136.2,185.8c-2.4,0-4.3-0.8-5.6-2.2c-1.3-1.5-2-3.4-2-5.9v-13.5h4.8v12c0,1.7,0.4,2.9,1.1,3.8
	c0.8,0.8,1.9,1.3,3.4,1.3c1.4,0,2.5-0.5,3.4-1.4s1.3-2.2,1.3-3.8v-12h4.8v21.2h-4.8V182c-0.7,1-1.5,1.9-2.6,2.7
	C139.2,185.5,137.9,185.8,136.2,185.8"/>
<path class="st0" d="M162.1,185.8c-1.5,0-3.1-0.3-4.6-0.8c-1.5-0.5-3-1.3-4.4-2.4l2.1-3.3c1.1,0.8,2.4,1.5,3.5,1.9
	c1.1,0.5,2.3,0.7,3.4,0.7s1.8-0.2,2.5-0.6c0.5-0.4,0.8-1,0.8-1.7v-0.1c0-0.4-0.2-0.8-0.4-1.1c-0.2-0.3-0.6-0.5-1.1-0.8
	c-0.5-0.2-0.9-0.4-1.5-0.6c-0.5-0.2-1.1-0.4-1.8-0.5c-0.8-0.2-1.5-0.5-2.4-0.8c-0.8-0.3-1.5-0.7-2.1-1.1c-0.6-0.5-1.1-1.1-1.5-1.8
	c-0.4-0.7-0.6-1.5-0.6-2.5v-0.1c0-1,0.2-1.9,0.6-2.7c0.4-0.8,0.9-1.5,1.6-2.1c0.7-0.5,1.5-1,2.4-1.3c0.9-0.3,1.9-0.5,2.9-0.5
	c1.3,0,2.7,0.2,4.1,0.6c1.4,0.5,2.6,1,3.8,1.8l-1.9,3.4c-1-0.6-2.1-1.1-3.1-1.5c-1.1-0.4-2-0.5-2.9-0.5s-1.7,0.2-2.2,0.6
	c-0.5,0.4-0.8,0.9-0.8,1.5v0.1c0,0.4,0.2,0.8,0.4,1c0.3,0.3,0.6,0.5,1.1,0.8s0.9,0.5,1.5,0.6c0.5,0.2,1.1,0.4,1.8,0.6
	c0.8,0.2,1.5,0.5,2.3,0.8s1.5,0.7,2.1,1.1s1.1,1.1,1.5,1.7c0.4,0.7,0.6,1.5,0.6,2.5v0.1c0,1.1-0.2,2.1-0.6,2.9
	c-0.4,0.8-0.9,1.5-1.7,2.1c-0.7,0.5-1.5,1-2.5,1.2C164.2,185.6,163.2,185.8,162.1,185.8"/>
<path class="st0" d="M176,156.3h5.2v4.6H176V156.3z M176.2,164.2h4.8v21.2h-4.8V164.2z"/>
<path class="st0" d="M198.5,185.8c-1.6,0-3.1-0.3-4.4-0.8c-1.4-0.5-2.5-1.4-3.6-2.4c-1-1-1.8-2.1-2.4-3.5c-0.5-1.3-0.8-2.8-0.8-4.2
	v-0.1c0-1.5,0.3-3,0.8-4.3c0.5-1.3,1.4-2.5,2.4-3.5s2.2-1.8,3.6-2.4c1.4-0.6,2.9-0.8,4.5-0.8c1.6,0,3.1,0.3,4.5,0.8
	c1.4,0.5,2.5,1.4,3.6,2.4c1,1,1.8,2.1,2.4,3.5c0.5,1.3,0.8,2.8,0.8,4.3v0.1c0,1.5-0.3,2.9-0.8,4.2c-0.5,1.3-1.4,2.5-2.4,3.5
	c-1,1-2.2,1.8-3.6,2.4C201.6,185.5,200.1,185.8,198.5,185.8 M198.5,181.6c1,0,1.8-0.2,2.7-0.5c0.8-0.4,1.5-0.8,2-1.5
	c0.5-0.6,1-1.3,1.3-2.1c0.3-0.8,0.5-1.7,0.5-2.6v-0.1c0-0.9-0.2-1.8-0.5-2.7c-0.3-0.8-0.8-1.5-1.4-2.1c-0.5-0.6-1.2-1.1-2.1-1.5
	c-0.8-0.4-1.7-0.5-2.6-0.5c-1,0-1.8,0.2-2.6,0.5c-0.8,0.4-1.5,0.8-2,1.5c-0.5,0.6-1,1.3-1.3,2.1c-0.3,0.8-0.5,1.7-0.5,2.6v0.1
	c0,0.9,0.2,1.8,0.5,2.6c0.3,0.8,0.8,1.5,1.4,2.1c0.5,0.6,1.2,1.1,2.1,1.5C196.7,181.4,197.5,181.6,198.5,181.6"/>
<path class="st0" d="M215.7,164.2h4.8v3.2c0.3-0.5,0.7-0.9,1.1-1.4c0.4-0.5,0.9-0.8,1.5-1.1c0.5-0.3,1.1-0.6,1.8-0.8
	c0.7-0.2,1.4-0.3,2.2-0.3c2.4,0,4.3,0.8,5.6,2.2c1.3,1.5,2,3.4,2,5.9v13.5H230v-12c0-1.7-0.4-2.9-1.1-3.8s-1.9-1.4-3.4-1.4
	c-1.4,0-2.5,0.5-3.4,1.4s-1.3,2.2-1.3,3.8v12h-4.8v-21.2H215.7z"/>
<path class="st0" d="M133.1,72.6c14-6.3,29.8-6,43.6,0.9c5.5,2.8,10.4,6.4,14.6,10.9l-3.3,4.9c-6.2-3.9-13.3-6.5-20.7-7.5
	c-10.1-1.4-20.1,0.1-29.1,4.1C135.9,81.8,134.2,77.3,133.1,72.6"/>
<path class="st0" d="M125.4,97.4C136.6,87,151.7,82.2,167,84.3c15,2.1,28.2,10.7,36.2,23.9c-11.2,10.4-26.3,15.2-41.4,13.1
	C146.6,119.2,133.4,110.5,125.4,97.4"/>
<path class="st0" d="M160.5,132.1c-3.1,0-6.2-0.3-9.2-0.9c4.7-1.8,9.1-4.2,13.2-7.2c1.5,0.2,2.9,0.2,4.3,0.2c10.5,0,20.7-3.2,29.4-9
	C188.9,125.7,175.2,132.1,160.5,132.1"/>
<path class="st0" d="M218.6,78.7c-0.2,0.2-0.4,0.3-0.8,0.5l-0.7,0.6c-0.2,0.2-0.4,0.3-0.7,0.6c-0.2,0.2-0.4,0.4-0.7,0.7
	c-0.2,0.2-0.4,0.5-0.5,0.5l-0.2,0.2c-0.4,0.5-0.8,0.9-1.2,1.5c-0.2,0.2-0.3,0.5-0.5,0.8l-0.2,0.2l-0.4,0.7c-1.1,1.9-1.9,3.9-2.4,6
	c0,0-0.7,2.9-0.9,3.9l-0.2,0.2v0.3c-1.1,3.8-2.6,7.4-4.6,10.7c-3.9-6.2-8.9-11.4-14.7-15.5l8.5-13.1c0.1-0.1,0.2-0.2,0.2-0.4
	l0.6-0.5c0.3-0.3,0.5-0.7,0.9-1.1l0.5-0.5c0.3-0.3,0.7-0.5,1.2-0.9l0.5-0.3c0.6-0.3,1.2-0.6,2-0.9c0.4-0.2,0.9-0.2,1.2-0.3
	c0.5-0.1,0.9-0.2,1.5-0.2c1.5-0.1,2.9,0.1,4.3,0.5c0.4,0.2,0.7,0.2,1,0.4l1.1,0.5l0,0l6.9,3.2C219.9,77.8,219.2,78.2,218.6,78.7"/>
</svg>
