<?xml version="1.0" encoding="utf-8"?>
<!-- Generator: Adobe Illustrator 21.1.0, SVG Export Plug-In . SVG Version: 6.00 Build 0)  -->
<svg version="1.1" id="Layer_1" xmlns="http://www.w3.org/2000/svg" xmlns:xlink="http://www.w3.org/1999/xlink" x="0px" y="0px"
	 viewBox="0 0 350 255.1" style="enable-background:new 0 0 350 255.1;" xml:space="preserve">
<style type="text/css">
	.st0{fill:#1F191A;}
</style>
<path class="st0" d="M136,77.6c14-6.3,29.8-6,43.6,0.9c5.5,2.8,10.4,6.4,14.5,10.9l-3.2,5c-6.2-3.9-13.2-6.5-20.7-7.5
	c-10.1-1.4-20.1,0.1-29.1,4.1C138.8,86.8,137.1,82.3,136,77.6"/>
<path class="st0" d="M128.3,102.4c11.3-10.4,26.3-15.1,41.6-13c15,2.1,28.2,10.8,36.1,23.9c-11.2,10.4-26.2,15.1-41.3,13
	C149.5,124.2,136.3,115.5,128.3,102.4"/>
<path class="st0" d="M163.4,137.1c-3.1,0-6.2-0.3-9.2-0.8c4.7-1.8,9.1-4.2,13.2-7.2c1.5,0.1,2.9,0.2,4.4,0.2c10.5,0,20.7-3.2,29.4-9
	C191.7,130.7,178.1,137.1,163.4,137.1"/>
<path class="st0" d="M221.5,83.7c-0.2,0.2-0.4,0.3-0.8,0.6l-0.7,0.6c-0.2,0.2-0.4,0.3-0.7,0.6c-0.2,0.2-0.4,0.4-0.7,0.7
	c-0.2,0.2-0.4,0.4-0.4,0.5l-0.2,0.2c-0.4,0.5-0.8,1-1.2,1.6c-0.2,0.2-0.3,0.4-0.5,0.8l-0.2,0.2l-0.4,0.7c-1.1,1.9-1.9,3.9-2.4,6
	c0,0-0.7,2.9-0.9,3.9l-0.1,0.1v0.3c-1.1,3.8-2.7,7.4-4.5,10.7c-3.9-6.2-8.9-11.4-14.7-15.4l8.5-13.1c0.1-0.1,0.1-0.2,0.2-0.4
	l0.4-0.5c0.3-0.3,0.6-0.7,1-1.1l0.5-0.4c0.3-0.3,0.7-0.5,1.1-0.8l0.5-0.3c0.6-0.3,1.2-0.6,2-0.9c0.4-0.1,0.8-0.2,1.3-0.3
	s0.9-0.1,1.5-0.2c1.5-0.1,2.9,0.1,4.3,0.6c0.4,0.1,0.7,0.3,1,0.4l1.1,0.5v0l6.9,3.2C222.7,82.8,222.1,83.2,221.5,83.7"/>
<path class="st0" d="M40.3,167.1h-2.9v-4.4h2.9V161c-0.2-2.1,0.5-4.2,1.9-5.7c1.4-1.3,3.3-2,5.2-1.9c0.8,0,1.6,0,2.4,0.2
	c0.6,0.1,1.3,0.3,1.9,0.4v4.5c-0.5-0.2-1-0.3-1.5-0.4c-0.5-0.1-1.1-0.2-1.6-0.2c-2,0-3.1,1.2-3.1,3.5v1.3h6.1v4.3h-6.1v18.6h-5.3
	V167.1z"/>
<path class="st0" d="M65.3,186.2c-2.3,0.1-4.5-0.7-6.1-2.4c-1.5-1.8-2.3-4.1-2.2-6.5v-14.7h5.3v13.1c-0.1,1.5,0.4,3,1.3,4.2
	c0.9,1,2.3,1.5,3.7,1.4c1.4,0.1,2.8-0.5,3.8-1.5c1-1.1,1.6-2.7,1.5-4.2v-13.1h5.3v23.2h-5.3V182c-0.8,1.1-1.7,2.1-2.9,2.9
	C68.4,185.8,66.8,186.2,65.3,186.2"/>
<path class="st0" d="M94.2,186.1c-1.7,0-3.4-0.3-5.1-0.9c-1.7-0.6-3.3-1.5-4.8-2.6l2.4-3.6c1.2,0.9,2.5,1.6,3.9,2.1
	c1.2,0.5,2.5,0.7,3.7,0.7c0.9,0.1,1.9-0.2,2.7-0.7c0.6-0.4,1-1.1,0.9-1.8v-0.1c0-0.4-0.1-0.8-0.4-1.1c-0.3-0.4-0.7-0.6-1.1-0.8
	c-0.5-0.3-1.1-0.5-1.7-0.7c-0.6-0.2-1.3-0.4-2-0.6c-0.8-0.2-1.7-0.5-2.6-0.8c-0.8-0.3-1.6-0.7-2.3-1.2c-0.7-0.5-1.3-1.2-1.7-1.9
	c-0.5-0.9-0.7-1.8-0.7-2.8v-0.1c0-2,0.8-3.9,2.4-5.2c0.8-0.6,1.7-1.1,2.6-1.4c1-0.3,2.1-0.5,3.2-0.5c1.5,0,3,0.2,4.4,0.7
	c1.4,0.5,2.8,1.1,4.1,1.9l-2.1,3.8c-1.1-0.7-2.2-1.2-3.4-1.6c-1-0.4-2.1-0.6-3.2-0.6c-0.8,0-1.7,0.2-2.4,0.6c-0.5,0.4-0.9,1-0.9,1.6
	v0.1c0,0.4,0.1,0.8,0.4,1.1c0.3,0.3,0.7,0.6,1.2,0.8c0.5,0.3,1.1,0.5,1.7,0.7c0.6,0.2,1.3,0.4,2,0.6c0.8,0.3,1.7,0.6,2.5,0.9
	c0.8,0.3,1.6,0.8,2.3,1.3c0.7,0.5,1.3,1.1,1.7,1.9c0.5,0.8,0.7,1.7,0.7,2.7v0.1c0,1.1-0.2,2.2-0.7,3.2c-0.4,0.9-1,1.7-1.8,2.3
	c-0.8,0.6-1.7,1.1-2.7,1.4C96.4,186,95.3,186.1,94.2,186.1"/>
<path class="st0" d="M110,153.9h5.7v5H110V153.9z M110.2,162.5h5.3v23.2h-5.3V162.5z"/>
<path class="st0" d="M135.2,186.2c-1.7,0-3.3-0.3-4.9-0.9c-1.5-0.6-2.8-1.5-3.9-2.6c-1.1-1.1-2-2.4-2.6-3.8
	c-0.6-1.5-0.9-3.1-0.9-4.7v-0.1c0-1.6,0.3-3.2,0.9-4.7c0.6-1.4,1.5-2.7,2.6-3.8c1.1-1.1,2.4-2,3.9-2.6c1.6-0.7,3.2-1,4.9-1
	c1.7,0,3.4,0.3,4.9,0.9c2.9,1.2,5.3,3.5,6.5,6.4c0.6,1.5,0.9,3.1,0.9,4.7v0.1c0,1.6-0.3,3.2-0.9,4.7c-0.6,1.4-1.5,2.7-2.6,3.8
	c-1.1,1.1-2.5,2-3.9,2.6C138.6,185.9,136.9,186.2,135.2,186.2 M135.3,181.6c1,0,2-0.2,2.9-0.6c0.8-0.4,1.6-0.9,2.2-1.6
	c0.6-0.7,1.1-1.5,1.4-2.3c0.3-0.9,0.5-1.9,0.5-2.8v-0.1c0-1-0.2-2-0.5-2.9c-0.3-0.9-0.8-1.7-1.5-2.4c-0.6-0.7-1.4-1.2-2.2-1.6
	c-1.8-0.8-3.9-0.8-5.8,0c-0.8,0.4-1.6,0.9-2.2,1.6c-0.6,0.7-1.1,1.5-1.4,2.3c-0.3,0.9-0.5,1.9-0.5,2.9v0.1c0,1,0.2,2,0.5,2.9
	c0.3,0.9,0.8,1.7,1.5,2.4c0.6,0.7,1.4,1.2,2.2,1.6C133.3,181.4,134.3,181.6,135.3,181.6L135.3,181.6z"/>
<path class="st0" d="M154.7,162.5h5.3v3.6c0.4-0.5,0.8-1,1.3-1.5c0.5-0.5,1-0.9,1.6-1.3c0.6-0.4,1.3-0.7,2-0.9
	c0.8-0.2,1.6-0.3,2.4-0.3c2.3-0.1,4.5,0.7,6.1,2.4c1.5,1.8,2.3,4.1,2.2,6.4v14.8h-5.3v-13.1c0.1-1.5-0.4-3-1.3-4.2
	c-0.9-1-2.3-1.6-3.7-1.5c-1.4-0.1-2.8,0.5-3.8,1.5c-1,1.2-1.5,2.7-1.5,4.2v13.1h-5.3V162.5z"/>
<path class="st0" d="M191.6,186.1c-1.7,0-3.4-0.3-5.1-0.9c-1.7-0.6-3.3-1.5-4.8-2.6l2.4-3.6c1.2,0.9,2.5,1.6,3.9,2.1
	c1.2,0.5,2.5,0.7,3.7,0.7c0.9,0.1,1.9-0.2,2.7-0.7c0.6-0.4,1-1.1,0.9-1.8v-0.1c0-0.4-0.1-0.8-0.4-1.1c-0.3-0.4-0.7-0.6-1.1-0.8
	c-0.5-0.3-1.1-0.5-1.7-0.7c-0.6-0.2-1.3-0.4-2-0.6c-0.8-0.2-1.7-0.5-2.6-0.8c-0.8-0.3-1.6-0.7-2.3-1.2c-0.7-0.5-1.3-1.2-1.7-1.9
	c-0.5-0.9-0.7-1.8-0.7-2.8v-0.1c0-2,0.8-3.9,2.4-5.2c0.8-0.6,1.7-1.1,2.6-1.4c1-0.3,2.1-0.5,3.2-0.5c1.5,0,3,0.2,4.4,0.7
	c1.4,0.4,2.8,1.1,4.1,1.9l-2.1,3.8c-1.1-0.6-2.2-1.2-3.4-1.6c-1-0.4-2.1-0.6-3.2-0.6c-0.8-0.1-1.7,0.2-2.4,0.6
	c-0.5,0.4-0.9,1-0.9,1.6v0.1c0,0.4,0.1,0.8,0.4,1.1c0.3,0.3,0.7,0.6,1.2,0.8c0.5,0.3,1.1,0.5,1.7,0.7c0.6,0.2,1.3,0.4,2,0.6
	c0.8,0.3,1.7,0.6,2.5,0.9c0.8,0.3,1.6,0.8,2.3,1.3c0.7,0.5,1.3,1.1,1.7,1.9c0.5,0.8,0.7,1.7,0.7,2.7v0.1c0,1.1-0.2,2.2-0.7,3.2
	c-0.4,0.9-1,1.7-1.8,2.3c-0.8,0.6-1.7,1.1-2.7,1.4C193.8,186,192.7,186.1,191.6,186.1"/>
<path class="st0" d="M215.3,186.2c-2.3,0.1-4.5-0.7-6.1-2.4c-1.5-1.8-2.3-4.1-2.1-6.5v-14.7h5.3v13.1c-0.1,1.5,0.4,3,1.3,4.2
	c0.9,1,2.3,1.5,3.7,1.4c1.4,0.1,2.8-0.5,3.8-1.5c1-1.2,1.5-2.7,1.4-4.2v-13.1h5.3v23.2h-5.3V182c-0.8,1.1-1.7,2.1-2.8,2.9
	C218.4,185.8,216.9,186.2,215.3,186.2"/>
<path class="st0" d="M236.3,153.9h5.7v5h-5.7V153.9z M236.5,162.5h5.3v23.2h-5.3V162.5z"/>
<path class="st0" d="M258.3,186.1c-0.9,0-1.8-0.1-2.7-0.3c-0.8-0.2-1.5-0.6-2.1-1.1c-0.6-0.6-1.1-1.3-1.4-2.1
	c-0.4-1-0.5-2.1-0.5-3.2v-12.2h-2.9v-4.6h2.9v-6.4h5.3v6.4h6.2v4.6h-6.2v11.4c-0.1,0.8,0.2,1.6,0.8,2.2c0.6,0.5,1.3,0.7,2.1,0.7
	c1.1,0,2.3-0.3,3.3-0.8v4.3c-0.7,0.4-1.4,0.7-2.1,0.9C260,186,259.1,186.1,258.3,186.1"/>
<path class="st0" d="M280.2,186.2c-1.6,0-3.2-0.3-4.7-0.9c-1.4-0.6-2.7-1.4-3.8-2.5c-1.1-1.1-2-2.4-2.5-3.8c-0.6-1.6-1-3.2-0.9-4.9
	v-0.1c0-1.6,0.3-3.2,0.8-4.7c0.5-1.4,1.3-2.7,2.4-3.8c1-1.1,2.2-2,3.6-2.6c1.4-0.6,3-1,4.6-0.9c1.7,0,3.3,0.3,4.9,1
	c1.3,0.6,2.5,1.6,3.5,2.7c0.9,1.2,1.6,2.5,2.1,4c0.5,1.5,0.7,3.2,0.7,4.8c0,0.2,0,0.5,0,0.7c0,0.2,0,0.5-0.1,0.8h-17
	c0.2,1.7,1,3.2,2.3,4.4c1.2,1,2.8,1.6,4.4,1.5c1.2,0,2.4-0.2,3.4-0.7c1.1-0.5,2-1.2,2.9-2.1l3.1,2.8c-1.1,1.3-2.5,2.4-4,3.2
	C284,185.8,282.1,186.3,280.2,186.2 M285.5,172.5c-0.1-0.8-0.3-1.6-0.6-2.4c-0.3-0.7-0.7-1.4-1.2-1.9c-0.5-0.5-1.1-1-1.8-1.3
	c-0.7-0.3-1.5-0.5-2.3-0.5c-1.5,0-3,0.6-4,1.7c-1.1,1.2-1.8,2.8-1.9,4.4H285.5z"/>
<path class="st0" d="M305.7,186.1c-1.7,0-3.4-0.3-5.1-0.9c-1.7-0.6-3.3-1.5-4.8-2.6l2.4-3.6c1.2,0.9,2.5,1.6,3.9,2.1
	c1.2,0.5,2.5,0.7,3.7,0.7c0.9,0.1,1.9-0.2,2.7-0.7c0.6-0.4,1-1.1,0.9-1.8v-0.1c0-0.4-0.1-0.8-0.4-1.1c-0.3-0.4-0.7-0.6-1.1-0.8
	c-0.5-0.3-1.1-0.5-1.7-0.7c-0.6-0.2-1.3-0.4-1.9-0.6c-0.8-0.2-1.7-0.5-2.6-0.8c-0.8-0.3-1.6-0.7-2.3-1.2c-0.7-0.5-1.3-1.2-1.7-1.9
	c-0.5-0.9-0.7-1.8-0.7-2.8v-0.1c0-1,0.2-2,0.6-2.9c0.4-0.9,1-1.6,1.8-2.2c0.8-0.6,1.7-1.1,2.6-1.4c1-0.3,2.1-0.5,3.2-0.5
	c1.5,0,3,0.2,4.4,0.7c1.4,0.5,2.8,1.1,4.1,1.9l-2.1,3.8c-1.1-0.6-2.2-1.2-3.4-1.6c-1-0.4-2.1-0.6-3.2-0.6c-0.8,0-1.7,0.2-2.4,0.6
	c-0.5,0.4-0.9,1-0.9,1.6v0.1c0,0.4,0.1,0.8,0.4,1.1c0.3,0.3,0.7,0.6,1.2,0.8c0.5,0.3,1.1,0.5,1.7,0.7c0.6,0.2,1.3,0.4,1.9,0.6
	c0.9,0.3,1.7,0.6,2.5,0.9c0.8,0.3,1.6,0.8,2.3,1.3c0.7,0.5,1.3,1.1,1.7,1.9c0.5,0.8,0.7,1.7,0.7,2.7v0.1c0,1.1-0.2,2.2-0.7,3.2
	c-0.4,0.9-1,1.7-1.8,2.3c-0.8,0.6-1.7,1.1-2.7,1.4C308,186,306.9,186.1,305.7,186.1"/>
</svg>
