<?xml version="1.0" encoding="utf-8"?>
<!-- Generator: Adobe Illustrator 21.1.0, SVG Export Plug-In . SVG Version: 6.00 Build 0)  -->
<svg version="1.1" id="Layer_1" xmlns="http://www.w3.org/2000/svg" xmlns:xlink="http://www.w3.org/1999/xlink" x="0px" y="0px"
	 viewBox="0 0 350 255.1" style="enable-background:new 0 0 350 255.1;" xml:space="preserve">
<style type="text/css">
	.st0{fill:#1F191A;}
</style>
<path class="st0" d="M30.4,167.2h-2.6v-3.9h2.6v-1.5c0-2.3,0.6-3.9,1.7-5s2.6-1.6,4.6-1.6c0.8,0,1.5,0.1,2.1,0.2
	c0.6,0.1,1.1,0.2,1.7,0.4v3.9c-0.5-0.2-0.9-0.3-1.3-0.4c-0.4-0.1-0.9-0.1-1.4-0.1c-1.8,0-2.7,1-2.7,3.1v1.1h5.4v3.8H35v16.4h-4.7
	v-16.4H30.4z"/>
<path class="st0" d="M51.9,184c-2.3,0-4.1-0.7-5.4-2.1c-1.3-1.4-1.9-3.3-1.9-5.7v-13h4.7v11.6c0,1.6,0.4,2.8,1.1,3.7
	c0.8,0.9,1.8,1.3,3.2,1.3s2.5-0.4,3.3-1.3c0.9-0.9,1.3-2.1,1.3-3.7v-11.5h4.7v20.4h-4.7v-3.2c-0.7,1-1.5,1.8-2.5,2.6
	C54.7,183.7,53.4,184,51.9,184"/>
<path class="st0" d="M76.8,184c-1.5,0-3-0.3-4.5-0.8s-2.9-1.3-4.2-2.3l2.1-3.2c1.1,0.8,2.3,1.5,3.4,1.9s2.2,0.6,3.3,0.6
	c1,0,1.8-0.2,2.3-0.6c0.6-0.4,0.8-0.9,0.8-1.6l0,0c0-0.4-0.1-0.7-0.4-1c-0.2-0.3-0.6-0.5-1-0.7s-0.9-0.4-1.5-0.6
	c-0.6-0.2-1.1-0.4-1.7-0.5c-0.7-0.2-1.5-0.5-2.3-0.7c-0.8-0.3-1.4-0.7-2-1.1c-0.6-0.5-1.1-1-1.5-1.7s-0.6-1.5-0.6-2.5v-0.1
	c0-1,0.2-1.8,0.6-2.6s0.9-1.4,1.5-2c0.7-0.5,1.4-1,2.3-1.2c0.9-0.3,1.8-0.4,2.8-0.4c1.3,0,2.6,0.2,3.9,0.6c1.3,0.4,2.5,1,3.6,1.7
	l-1.9,3.3c-1-0.6-2-1.1-3-1.4c-1-0.3-1.9-0.5-2.8-0.5s-1.6,0.2-2.1,0.6c-0.5,0.4-0.8,0.9-0.8,1.4v0.1c0,0.4,0.1,0.7,0.4,1
	s0.6,0.5,1,0.7s0.9,0.4,1.5,0.6c0.6,0.2,1.1,0.4,1.7,0.6c0.7,0.2,1.5,0.5,2.2,0.8s1.4,0.7,2,1.1c0.6,0.5,1.1,1,1.5,1.6
	s0.6,1.4,0.6,2.4v0.1c0,1.1-0.2,2-0.6,2.8s-0.9,1.5-1.6,2s-1.5,0.9-2.4,1.2C78.8,183.9,77.8,184,76.8,184"/>
<path class="st0" d="M90.2,155.6h5v4.4h-5V155.6z M90.4,163.2h4.7v20.4h-4.7V163.2z"/>
<path class="st0" d="M111.9,184.1c-1.5,0-3-0.3-4.3-0.8c-1.3-0.6-2.5-1.3-3.4-2.3c-1-1-1.7-2.1-2.3-3.4c-0.5-1.3-0.8-2.7-0.8-4.1
	v-0.1c0-1.5,0.3-2.8,0.8-4.1c0.6-1.3,1.3-2.4,2.3-3.4s2.1-1.7,3.4-2.3s2.8-0.9,4.4-0.9s3,0.3,4.4,0.8c1.3,0.6,2.5,1.3,3.4,2.3
	c1,1,1.7,2.1,2.3,3.4c0.5,1.3,0.8,2.6,0.8,4.1v0.1c0,1.4-0.3,2.8-0.8,4.1c-0.6,1.3-1.3,2.4-2.3,3.4s-2.1,1.7-3.5,2.3
	C114.9,183.8,113.4,184.1,111.9,184.1 M111.9,180c1,0,1.8-0.2,2.6-0.5c0.8-0.3,1.4-0.8,2-1.4c0.5-0.6,1-1.3,1.2-2
	c0.3-0.8,0.4-1.6,0.4-2.5v-0.1c0-0.9-0.2-1.8-0.5-2.6s-0.7-1.5-1.3-2.1c-0.6-0.6-1.2-1.1-2-1.4c-0.8-0.3-1.6-0.5-2.5-0.5
	s-1.8,0.2-2.5,0.5c-0.8,0.4-1.4,0.8-2,1.4c-0.5,0.6-1,1.3-1.2,2.1c-0.3,0.8-0.4,1.6-0.4,2.5v0.1c0,0.9,0.2,1.7,0.5,2.5
	s0.7,1.5,1.3,2.1c0.6,0.6,1.2,1.1,2,1.4C110.2,179.8,111,180,111.9,180"/>
<path class="st0" d="M128.5,163.2h4.7v3.1c0.3-0.5,0.7-0.9,1.1-1.4c0.4-0.4,0.9-0.8,1.4-1.1s1.1-0.6,1.7-0.8
	c0.6-0.2,1.3-0.3,2.1-0.3c2.3,0,4.1,0.7,5.4,2.1c1.3,1.4,1.9,3.3,1.9,5.7v13h-4.7V172c0-1.6-0.4-2.8-1.1-3.7
	c-0.8-0.9-1.8-1.3-3.2-1.3s-2.5,0.4-3.3,1.3c-0.9,0.9-1.3,2.1-1.3,3.7v11.5h-4.7L128.5,163.2L128.5,163.2z"/>
<path class="st0" d="M163.2,184.1c-1.5,0-3-0.3-4.3-0.8c-1.3-0.6-2.5-1.3-3.4-2.3c-1-1-1.7-2.1-2.3-3.4c-0.5-1.3-0.8-2.7-0.8-4.1
	v-0.1c0-1.5,0.3-2.8,0.8-4.1c0.6-1.3,1.3-2.4,2.3-3.4s2.1-1.7,3.4-2.3c1.3-0.6,2.8-0.9,4.4-0.9c1.6,0,3,0.3,4.4,0.8
	c1.3,0.6,2.5,1.3,3.4,2.3c1,1,1.7,2.1,2.3,3.4c0.5,1.3,0.8,2.6,0.8,4.1v0.1c0,1.4-0.3,2.8-0.8,4.1c-0.6,1.3-1.3,2.4-2.3,3.4
	s-2.1,1.7-3.5,2.3C166.2,183.8,164.8,184.1,163.2,184.1 M163.3,180c1,0,1.8-0.2,2.6-0.5s1.4-0.8,2-1.4c0.5-0.6,1-1.3,1.2-2
	c0.3-0.8,0.4-1.6,0.4-2.5v-0.1c0-0.9-0.2-1.8-0.5-2.6s-0.7-1.5-1.3-2.1s-1.2-1.1-2-1.4c-0.8-0.3-1.6-0.5-2.5-0.5s-1.8,0.2-2.5,0.5
	c-0.8,0.4-1.4,0.8-2,1.4c-0.5,0.6-1,1.3-1.2,2.1c-0.3,0.8-0.4,1.6-0.4,2.5v0.1c0,0.9,0.2,1.7,0.5,2.5s0.7,1.5,1.3,2.1s1.2,1.1,2,1.4
	C161.5,179.8,162.4,180,163.3,180"/>
<path class="st0" d="M179.9,163.2h4.7v4.6c0.6-1.5,1.6-2.8,2.7-3.7c1.2-0.9,2.7-1.4,4.5-1.3v4.9h-0.3c-1,0-2,0.2-2.8,0.5
	s-1.6,0.8-2.2,1.5c-0.6,0.7-1.1,1.5-1.4,2.5c-0.3,1-0.5,2.2-0.5,3.5v7.8h-4.7V163.2z"/>
<path class="st0" d="M196.9,155.6h5v4.4h-5V155.6z M197.1,163.2h4.7v20.4h-4.7V163.2z"/>
<path class="st0" d="M217.9,189.9c-3.4,0-6.4-0.8-9.1-2.5l1.7-3.5c1.1,0.7,2.2,1.2,3.4,1.6c1.2,0.4,2.5,0.6,3.8,0.6
	c2.1,0,3.7-0.5,4.8-1.6s1.7-2.6,1.7-4.7v-1.6c-0.9,1.1-1.8,2-3,2.7c-1.1,0.7-2.5,1-4.2,1c-1.2,0-2.4-0.2-3.5-0.7
	c-1.1-0.4-2.1-1.1-3-1.9c-0.9-0.8-1.6-1.8-2.1-3s-0.8-2.5-0.8-4v-0.1c0-1.5,0.3-2.8,0.8-4s1.2-2.2,2.1-3c0.9-0.8,1.9-1.4,3-1.9
	c1.1-0.4,2.3-0.7,3.5-0.7c1.7,0,3.2,0.3,4.3,1s2.1,1.5,2.9,2.5V163h4.7v16.2c0,3.4-0.9,6-2.6,7.7c-0.9,0.9-2.1,1.6-3.5,2.1
	C221.4,189.7,219.8,189.9,217.9,189.9 M218.3,178c0.8,0,1.6-0.1,2.3-0.4c0.7-0.3,1.4-0.7,1.9-1.1c0.5-0.5,1-1.1,1.3-1.8
	s0.5-1.5,0.5-2.3v-0.1c0-0.8-0.2-1.6-0.5-2.3s-0.8-1.3-1.3-1.8s-1.2-0.9-1.9-1.1c-0.7-0.3-1.5-0.4-2.3-0.4s-1.6,0.1-2.3,0.4
	c-0.7,0.3-1.3,0.7-1.8,1.1c-0.5,0.5-0.9,1.1-1.2,1.8s-0.4,1.5-0.4,2.3v0.1c0,0.8,0.2,1.6,0.5,2.3s0.7,1.3,1.2,1.8s1.1,0.9,1.8,1.1
	C216.7,177.9,217.5,178,218.3,178"/>
<path class="st0" d="M235.8,155.6h5v4.4h-5V155.6z M236,163.2h4.7v20.4H236V163.2z"/>
<path class="st0" d="M247.8,163.2h4.7v3.1c0.3-0.5,0.7-0.9,1.1-1.4c0.4-0.4,0.9-0.8,1.4-1.1s1.1-0.6,1.7-0.8s1.3-0.3,2.1-0.3
	c2.3,0,4.1,0.7,5.4,2.1c1.3,1.4,1.9,3.3,1.9,5.7v13h-4.7V172c0-1.6-0.4-2.8-1.1-3.7c-0.8-0.9-1.8-1.3-3.2-1.3
	c-1.4,0-2.5,0.4-3.3,1.3c-0.9,0.9-1.3,2.1-1.3,3.7v11.5h-4.7L247.8,163.2L247.8,163.2z"/>
<path class="st0" d="M278.6,184c-1,0-1.9-0.1-2.7-0.4c-0.9-0.3-1.6-0.7-2.3-1.2c-0.7-0.5-1.2-1.2-1.6-2s-0.6-1.7-0.6-2.7v-0.1
	c0-1.1,0.2-2.1,0.6-2.9c0.4-0.8,1-1.5,1.7-2s1.6-0.9,2.7-1.2c1-0.3,2.2-0.4,3.4-0.4c1.2,0,2.2,0.1,3,0.2c0.8,0.2,1.7,0.4,2.5,0.6
	v-0.5c0-1.5-0.4-2.6-1.3-3.3s-2.1-1.1-3.8-1.1c-1.2,0-2.2,0.1-3.1,0.4c-0.9,0.2-1.8,0.5-2.7,0.9l-1.2-3.7c1.1-0.5,2.3-0.9,3.5-1.2
	s2.6-0.4,4.2-0.4c3,0,5.3,0.8,6.8,2.3c0.7,0.7,1.3,1.7,1.7,2.7c0.4,1.1,0.5,2.3,0.5,3.6v12.1h-4.6v-2.6c-0.7,0.8-1.6,1.5-2.7,2.1
	C281.5,183.8,280.2,184,278.6,184 M279.9,180.6c0.8,0,1.5-0.1,2.2-0.3s1.2-0.5,1.7-0.9s0.9-0.8,1.1-1.4c0.3-0.5,0.4-1.1,0.4-1.8
	v-1.4c-0.6-0.2-1.3-0.4-2.1-0.6c-0.8-0.2-1.6-0.2-2.6-0.2c-1.5,0-2.7,0.3-3.5,0.9c-0.8,0.6-1.3,1.4-1.3,2.5v0.1c0,1,0.4,1.7,1.1,2.3
	C277.8,180.4,278.8,180.6,279.9,180.6"/>
<rect x="296.7" y="155.4" class="st0" width="4.7" height="28.2"/>
<path class="st0" d="M315.4,184c-1.5,0-3-0.3-4.5-0.8s-2.9-1.3-4.2-2.3l2.1-3.2c1.1,0.8,2.3,1.5,3.4,1.9s2.2,0.6,3.3,0.6
	c1,0,1.8-0.2,2.3-0.6c0.6-0.4,0.8-0.9,0.8-1.6l0,0c0-0.4-0.1-0.7-0.4-1c-0.2-0.3-0.6-0.5-1-0.7s-0.9-0.4-1.5-0.6
	c-0.6-0.2-1.1-0.4-1.7-0.5c-0.7-0.2-1.5-0.5-2.3-0.7c-0.8-0.3-1.4-0.7-2-1.1c-0.6-0.5-1.1-1-1.5-1.7s-0.6-1.5-0.6-2.5v-0.1
	c0-1,0.2-1.8,0.6-2.6s0.9-1.4,1.5-2c0.7-0.5,1.4-1,2.3-1.2c0.9-0.3,1.8-0.4,2.8-0.4c1.3,0,2.6,0.2,3.9,0.6c1.3,0.4,2.5,1,3.6,1.7
	l-1.9,3.3c-1-0.6-2-1.1-3-1.4c-1-0.3-1.9-0.5-2.8-0.5s-1.6,0.2-2.1,0.6c-0.5,0.4-0.8,0.9-0.8,1.4v0.1c0,0.4,0.1,0.7,0.4,1
	s0.6,0.5,1,0.7s0.9,0.4,1.5,0.6c0.6,0.2,1.1,0.4,1.7,0.6c0.7,0.2,1.5,0.5,2.2,0.8s1.4,0.7,2,1.1c0.6,0.5,1.1,1,1.5,1.6
	s0.6,1.4,0.6,2.4v0.1c0,1.1-0.2,2-0.6,2.8s-0.9,1.5-1.6,2s-1.5,0.9-2.4,1.2C317.5,183.9,316.5,184,315.4,184"/>
<path class="st0" d="M135.7,77.4c14-6.3,29.8-6,43.5,0.9c5.5,2.7,10.3,6.5,14.5,11l-3.2,4.9c-6.2-3.9-13.2-6.5-20.6-7.5
	c-10-1.4-20.1,0.1-29.1,4.1C138.4,86.5,136.7,82,135.7,77.4"/>
<path class="st0" d="M128,102.2c11.3-10.5,26.3-15.2,41.5-13.1c15,2.1,28.1,10.8,36.1,23.8c-11.2,10.4-26.2,15.2-41.3,13.1
	C149.1,123.9,135.9,115.3,128,102.2"/>
<path class="st0" d="M163,136.9c-3.1,0-6.2-0.3-9.2-0.8c4.7-1.8,9.1-4.2,13.2-7.2c1.5,0.1,2.9,0.2,4.4,0.2c10.5,0,20.7-3.1,29.4-9
	C191.3,130.5,177.7,136.9,163,136.9"/>
<path class="st0" d="M221,83.5c-0.2,0.1-0.4,0.3-0.7,0.6l-0.7,0.6c-0.2,0.2-0.4,0.3-0.6,0.6c-0.2,0.2-0.4,0.4-0.6,0.6
	c-0.2,0.2-0.4,0.4-0.4,0.5l-0.2,0.2c-0.4,0.5-0.8,0.9-1.3,1.6c-0.1,0.2-0.3,0.4-0.5,0.7l-0.2,0.2l-0.4,0.6c-1.1,1.9-1.9,3.9-2.4,6
	c0,0-0.7,2.9-0.9,3.9l-0.1,0.1v0.3c-1,3.8-2.6,7.4-4.5,10.8c-3.9-6.2-8.9-11.4-14.6-15.5l8.5-13.1c0.1-0.1,0.1-0.2,0.2-0.3l0.4-0.5
	c0.3-0.3,0.5-0.6,0.9-1l0.5-0.4c0.3-0.3,0.6-0.5,1.1-0.8l0.5-0.3c0.6-0.3,1.3-0.6,2-0.9c0.4-0.1,0.8-0.2,1.3-0.3
	c0.4-0.1,0.8-0.1,1.5-0.2c1.5-0.1,2.9,0.1,4.3,0.6c0.3,0.1,0.7,0.3,1,0.4l1.1,0.5l0,0l6.9,3.1C222.2,82.5,221.6,82.9,221,83.5"/>
</svg>
