<?xml version="1.0" encoding="utf-8"?>
<!-- Generator: Adobe Illustrator 24.3.0, SVG Export Plug-In . SVG Version: 6.00 Build 0)  -->
<svg version="1.1" id="Layer_1" xmlns="http://www.w3.org/2000/svg" xmlns:xlink="http://www.w3.org/1999/xlink" x="0px" y="0px"
	 viewBox="0 0 350 255.1" style="enable-background:new 0 0 350 255.1;" xml:space="preserve">
<style type="text/css">
	.st0{fill:#A4A4A4;}
	.st1{fill:#8C8C8C;}
	.st2{fill:#767676;}
	.st3{fill:#BBBBBB;}
	.st4{fill:#848484;}
</style>
<path class="st0" d="M176.1,77.5c-13.9-6.9-29.4-6.6-42.4-0.5c2.9,14.1,12,26.7,25.8,33.7c13.9,6.9,29.4,6.6,42.4,0.5
	C199.1,97,190,84.4,176.1,77.5"/>
<path class="st1" d="M210.7,89.2c0-0.1,0.1-0.1,0.1-0.2c0.1-0.2,0.3-0.4,0.4-0.6c0,0,0-0.1,0.1-0.1c0.3-0.4,0.7-0.9,1-1.3l0,0
	c0.2-0.2,0.3-0.4,0.5-0.6l0.1-0.1c0.2-0.2,0.3-0.3,0.5-0.5l0.1-0.1c0.2-0.2,0.3-0.3,0.5-0.5l0.1-0.1c0.2-0.1,0.3-0.3,0.5-0.4
	l0.1-0.1c0.2-0.1,0.4-0.3,0.5-0.4c1.2-0.9,2.4-1.6,3.8-2.1l-9.6-4.4l0,0c-0.3-0.2-0.7-0.3-1.1-0.4c-1.2-0.4-2.4-0.6-3.7-0.6
	c-0.2,0-0.5,0-0.7,0c-0.1,0-0.1,0-0.2,0l0,0c-0.5,0-0.9,0.1-1.4,0.2l0,0c-0.4,0.1-0.9,0.2-1.3,0.3l0,0c-0.1,0-0.1,0-0.2,0.1l0,0
	c-0.7,0.2-1.3,0.5-1.9,0.9c0,0,0,0-0.1,0l0,0c-0.2,0.1-0.3,0.2-0.5,0.3l0,0c0,0-0.1,0-0.1,0.1l0,0c-0.4,0.2-0.7,0.5-1.1,0.8l0,0
	l-0.1,0.1l0,0c-0.1,0.1-0.3,0.2-0.4,0.4l0,0l-0.1,0.1l0,0c-0.3,0.3-0.6,0.7-0.9,1c0,0,0,0,0,0.1l0,0c-0.1,0.2-0.2,0.3-0.4,0.5l0,0
	c0,0,0,0.1-0.1,0.1c-0.1,0.2-0.2,0.4-0.4,0.6c0.1-0.1,0.2-0.2,0.2-0.4l0,0l-19.6,30.3l0,0c-6.4,9.9-16.2,17.4-27.9,20.6
	c4.1,1.1,8.5,1.8,13,1.8c22.2,0,40.9-14.9,46.7-35.2l0,0c0.1-0.4,0.2-0.9,0.3-1.3c0-0.2,0.1-0.4,0.1-0.6s0.1-0.3,0.1-0.5
	c0.1-0.5,0.2-1.1,0.3-1.6l0,0l0,0l0,0c0.4-1.9,1.1-3.7,2.1-5.3c0-0.1,0.1-0.2,0.1-0.2C210.5,89.5,210.6,89.3,210.7,89.2"/>
<path class="st2" d="M201.9,111.1c-1.7-8.3-5.6-16.1-11.3-22.6l-15.2,23.4l0,0c-0.7,1.1-1.4,2.1-2.2,3.2
	C183.1,116.8,193.1,115.3,201.9,111.1L201.9,111.1"/>
<path class="st3" d="M166.7,87.5c-15.3-2.1-30,3.1-40.4,13.1c7.2,12.4,19.9,21.5,35.2,23.6s30-3.1,40.4-13.1
	C194.7,98.7,182.1,89.6,166.7,87.5"/>
<path class="st4" d="M201.9,111.1L201.9,111.1c-2.4-4.1-5.4-7.9-8.9-11.2c-2-1.9-4.2-3.6-6.5-5.1l-11.1,17.1l0,0
	c-3.1,4.8-7,9.1-11.6,12.5C178.4,125.8,192.1,120.6,201.9,111.1"/>
<g id="Group_375" transform="translate(0 31.64)">
	<path id="Path_582" class="st4" d="M36.4,127h-2.7v-4h2.7v-1.6c-0.1-1.9,0.5-3.8,1.7-5.3c1.3-1.2,3-1.8,4.8-1.7
		c0.7,0,1.5,0,2.2,0.2c0.6,0.1,1.2,0.2,1.7,0.4v4.1c-0.5-0.2-1-0.3-1.4-0.4c-0.5-0.1-1-0.1-1.5-0.1c-1.9,0-2.8,1.1-2.8,3.3v1.2h5.7
		v4h-5.6v17.1h-4.9L36.4,127z"/>
	<path id="Path_583" class="st4" d="M59.1,144.5c-2.1,0.1-4.2-0.7-5.6-2.2c-1.4-1.7-2.1-3.8-2-6v-13.6h4.9v12.1
		c-0.1,1.4,0.3,2.7,1.2,3.8c0.9,0.9,2.1,1.4,3.4,1.3c1.3,0.1,2.6-0.4,3.5-1.4c0.9-1.1,1.4-2.4,1.3-3.9v-12h4.9v21.3h-4.9v-3.4
		c-0.7,1-1.6,2-2.6,2.7C62,144.2,60.6,144.6,59.1,144.5z"/>
	<path id="Path_584" class="st4" d="M85.4,144.5c-1.6,0-3.2-0.3-4.7-0.8c-1.6-0.5-3.1-1.3-4.4-2.4l2.2-3.3c1.1,0.8,2.3,1.5,3.5,1.9
		c1.1,0.4,2.3,0.7,3.4,0.7c0.9,0.1,1.7-0.2,2.4-0.6c0.6-0.4,0.9-1,0.9-1.7v-0.1c0-0.4-0.1-0.8-0.4-1.1c-0.3-0.3-0.7-0.6-1.1-0.8
		c-0.5-0.2-1-0.4-1.5-0.6c-0.6-0.2-1.2-0.4-1.8-0.6c-0.8-0.2-1.6-0.5-2.4-0.8c-0.8-0.3-1.5-0.7-2.1-1.1c-0.6-0.5-1.2-1.1-1.6-1.8
		c-0.4-0.8-0.6-1.7-0.6-2.6v-0.1c0-0.9,0.2-1.9,0.6-2.7c0.4-0.8,0.9-1.5,1.6-2.1c0.7-0.6,1.5-1,2.4-1.3c1-0.3,2-0.5,3-0.4
		c1.4,0,2.8,0.2,4.1,0.6c1.3,0.4,2.6,1,3.7,1.8l-1.9,3.5c-1-0.6-2-1.1-3.1-1.5c-0.9-0.3-1.9-0.5-2.9-0.6c-0.8,0-1.5,0.2-2.2,0.6
		c-0.5,0.3-0.8,0.9-0.8,1.5v0.1c0,0.4,0.1,0.8,0.4,1c0.3,0.3,0.7,0.6,1.1,0.8c0.5,0.2,1,0.5,1.5,0.6c0.6,0.2,1.2,0.4,1.8,0.6
		c0.8,0.2,1.6,0.5,2.3,0.9c0.8,0.3,1.5,0.7,2.1,1.2c0.6,0.5,1.2,1,1.6,1.7c0.4,0.7,0.6,1.6,0.6,2.5v0.1c0,1-0.2,2-0.6,2.9
		c-0.4,0.8-1,1.5-1.7,2.1c-0.8,0.6-1.6,1-2.5,1.2C87.5,144.3,86.4,144.5,85.4,144.5z"/>
	<path id="Path_585" class="st4" d="M99.7,114.9h5.2v4.6h-5.2V114.9z M99.9,122.8h4.9v21.3h-4.9V122.8z"/>
	<path id="Path_586" class="st4" d="M122.6,144.6c-1.5,0-3.1-0.3-4.5-0.9c-1.3-0.5-2.6-1.3-3.6-2.4c-1-1-1.8-2.2-2.4-3.5
		c-0.6-1.4-0.9-2.8-0.9-4.3v-0.1c0-1.5,0.3-3,0.9-4.3c0.6-1.3,1.4-2.5,2.4-3.5c2.2-2.1,5.1-3.3,8.1-3.3c1.6,0,3.1,0.3,4.5,0.9
		c1.3,0.5,2.6,1.4,3.6,2.4c2.1,2.1,3.2,4.9,3.2,7.8v0.1c0,1.5-0.3,2.9-0.9,4.3c-1.1,2.7-3.3,4.8-6,5.9
		C125.7,144.3,124.1,144.6,122.6,144.6z M122.6,140.3c0.9,0,1.8-0.2,2.7-0.6c0.8-0.4,1.5-0.8,2-1.5c0.6-0.6,1-1.3,1.3-2.1
		c0.3-0.8,0.4-1.7,0.4-2.6v-0.1c0-0.9-0.2-1.8-0.5-2.7c-0.3-0.8-0.8-1.5-1.4-2.2c-0.6-0.6-1.3-1.1-2.1-1.5c-1.7-0.7-3.6-0.7-5.3,0
		c-0.8,0.3-1.5,0.8-2,1.5c-0.6,0.6-1,1.4-1.3,2.2c-0.3,0.8-0.5,1.7-0.4,2.6v0.1c0,0.9,0.2,1.8,0.5,2.6c0.3,0.8,0.8,1.5,1.4,2.2
		c0.6,0.6,1.3,1.1,2.1,1.5C120.9,140.1,121.7,140.3,122.6,140.3L122.6,140.3z"/>
	<path id="Path_587" class="st4" d="M140.2,122.8h4.9v3.3c0.4-0.5,0.7-1,1.2-1.4c0.4-0.5,0.9-0.9,1.5-1.2c0.6-0.3,1.2-0.6,1.8-0.8
		c0.7-0.2,1.5-0.3,2.2-0.3c2.1-0.1,4.2,0.7,5.6,2.2c1.4,1.7,2.1,3.8,2,5.9v13.6h-4.9V132c0.1-1.4-0.3-2.8-1.2-3.9
		c-0.9-0.9-2.1-1.4-3.4-1.4c-1.3-0.1-2.6,0.5-3.5,1.4c-0.9,1.1-1.4,2.5-1.3,3.9v12h-4.9L140.2,122.8z"/>
	<path id="Path_588" class="st4" d="M166.6,122.8h4.9v4.8c0.6-1.5,1.6-2.9,2.9-3.9c1.3-1,3-1.5,4.7-1.3v5.2h-0.3c-1,0-2,0.2-2.9,0.5
		c-0.9,0.3-1.7,0.9-2.3,1.6c-0.7,0.8-1.2,1.7-1.5,2.6c-0.4,1.2-0.5,2.4-0.5,3.7v8.1h-4.9L166.6,122.8z"/>
	<path id="Path_589" class="st4" d="M193.6,144.6c-1.5,0-2.9-0.3-4.3-0.8c-2.6-1-4.7-3.1-5.8-5.8c-0.6-1.4-0.9-3-0.9-4.5v-0.1
		c0-1.5,0.2-2.9,0.8-4.3c0.5-1.3,1.2-2.5,2.2-3.5c0.9-1,2-1.8,3.3-2.4c1.3-0.6,2.8-0.9,4.2-0.9c1.5,0,3.1,0.3,4.5,0.9
		c1.2,0.6,2.3,1.4,3.2,2.5c0.9,1.1,1.5,2.3,1.9,3.7c0.4,1.4,0.7,2.9,0.7,4.4c0,0.2,0,0.4,0,0.7c0,0.2,0,0.5-0.1,0.7h-15.7
		c0.2,1.6,0.9,3,2.1,4c1.1,0.9,2.6,1.4,4.1,1.4c1.1,0,2.2-0.2,3.2-0.6c1-0.5,1.9-1.1,2.6-1.9l2.9,2.5c-1,1.2-2.3,2.2-3.7,2.9
		C197.1,144.2,195.3,144.6,193.6,144.6z M198.4,131.9c-0.1-0.8-0.3-1.5-0.5-2.2c-0.2-0.7-0.6-1.3-1.1-1.8c-1-1.1-2.3-1.7-3.8-1.6
		c-1.4,0-2.8,0.5-3.7,1.6c-1,1.1-1.6,2.5-1.8,4.1L198.4,131.9z"/>
	<path id="Path_590" class="st4" d="M216.8,144.5c-1.6,0-3.2-0.3-4.7-0.8c-1.6-0.5-3.1-1.3-4.4-2.4l2.2-3.3c1.1,0.8,2.3,1.5,3.5,1.9
		c1.1,0.4,2.3,0.7,3.4,0.7c0.9,0.1,1.7-0.2,2.5-0.6c0.6-0.4,0.9-1,0.9-1.7v-0.1c0-0.4-0.1-0.8-0.4-1.1c-0.3-0.3-0.7-0.6-1.1-0.8
		c-0.5-0.2-1-0.4-1.5-0.6c-0.6-0.2-1.2-0.4-1.8-0.6c-0.8-0.2-1.6-0.5-2.4-0.8c-0.8-0.3-1.5-0.7-2.1-1.1c-0.6-0.5-1.2-1.1-1.6-1.8
		c-0.4-0.8-0.6-1.7-0.6-2.6v-0.1c0-0.9,0.2-1.9,0.6-2.7c0.4-0.8,0.9-1.5,1.6-2.1c0.7-0.6,1.5-1,2.4-1.3c1-0.3,2-0.5,3-0.4
		c1.4,0,2.8,0.2,4.1,0.6c1.3,0.4,2.6,1,3.7,1.8l-1.9,3.5c-1-0.6-2-1.1-3.1-1.5c-0.9-0.3-1.9-0.5-2.9-0.6c-0.8,0-1.5,0.2-2.2,0.6
		c-0.5,0.3-0.8,0.9-0.8,1.5v0.1c0,0.4,0.1,0.8,0.4,1c0.3,0.3,0.7,0.6,1.1,0.8c0.5,0.2,1,0.5,1.5,0.6c0.6,0.2,1.2,0.4,1.8,0.6
		c0.8,0.2,1.6,0.5,2.3,0.9c0.8,0.3,1.5,0.7,2.1,1.2c0.6,0.5,1.2,1,1.6,1.7c0.4,0.7,0.6,1.6,0.6,2.5v0.1c0,1-0.2,2-0.6,2.9
		c-0.4,0.8-1,1.5-1.7,2.1c-0.8,0.6-1.6,1-2.5,1.3C218.8,144.3,217.8,144.5,216.8,144.5z"/>
	<path id="Path_591" class="st4" d="M302.2,144.5c-1.6,0-3.2-0.3-4.7-0.8c-1.6-0.5-3.1-1.3-4.4-2.4l2.2-3.3c1.1,0.8,2.3,1.5,3.6,1.9
		c1.1,0.4,2.3,0.7,3.4,0.7c0.9,0.1,1.7-0.2,2.4-0.6c0.5-0.4,0.9-1,0.9-1.7v-0.1c0-0.4-0.1-0.8-0.4-1.1c-0.3-0.3-0.7-0.6-1.1-0.8
		c-0.5-0.2-1-0.4-1.5-0.6c-0.6-0.2-1.2-0.4-1.8-0.6c-0.8-0.2-1.6-0.5-2.4-0.8c-0.8-0.3-1.5-0.7-2.1-1.1c-0.6-0.5-1.2-1.1-1.6-1.8
		c-0.4-0.8-0.6-1.7-0.6-2.6v-0.1c0-0.9,0.2-1.9,0.6-2.7c0.4-0.8,0.9-1.5,1.6-2.1c0.7-0.6,1.5-1,2.4-1.3c1-0.3,2-0.5,3-0.4
		c1.4,0,2.8,0.2,4.1,0.6c1.3,0.4,2.6,1,3.7,1.8l-1.9,3.5c-1-0.6-2-1.1-3.1-1.5c-0.9-0.3-1.9-0.5-2.9-0.6c-0.8,0-1.5,0.2-2.2,0.6
		c-0.5,0.3-0.8,0.9-0.8,1.5v0.1c0,0.4,0.1,0.8,0.4,1c0.3,0.3,0.7,0.6,1.1,0.8c0.5,0.2,1,0.5,1.5,0.6c0.6,0.2,1.2,0.4,1.8,0.6
		c0.8,0.2,1.6,0.5,2.3,0.9c0.8,0.3,1.5,0.7,2.1,1.2c0.6,0.5,1.2,1,1.6,1.7c0.4,0.8,0.6,1.6,0.6,2.5v0.1c0,1-0.2,2-0.6,2.9
		c-0.4,0.8-1,1.5-1.7,2.1c-0.8,0.6-1.6,1-2.5,1.2C304.3,144.3,303.2,144.5,302.2,144.5z"/>
	<path id="Path_592" class="st4" d="M241.1,144.6c-1.5,0-3.1-0.3-4.5-0.9c-1.3-0.5-2.6-1.3-3.6-2.4c-1-1-1.8-2.2-2.4-3.5
		c-0.6-1.4-0.8-2.8-0.8-4.3v-0.1c0-1.5,0.3-3,0.9-4.3c1.1-2.7,3.3-4.8,6-5.9c1.4-0.6,3-0.9,4.5-0.9c1.6,0,3.1,0.3,4.5,0.9
		c4.1,1.7,6.8,5.7,6.8,10.2v0.1c0,1.5-0.3,2.9-0.9,4.3c-1.1,2.7-3.3,4.8-6,5.9C244.2,144.3,242.6,144.6,241.1,144.6z M241.2,140.3
		c0.9,0,1.8-0.2,2.7-0.6c0.8-0.4,1.5-0.8,2-1.5c0.6-0.6,1-1.3,1.3-2.1c0.3-0.8,0.4-1.7,0.4-2.6v-0.1c0-0.9-0.2-1.8-0.5-2.7
		c-0.3-0.8-0.8-1.5-1.4-2.2c-0.6-0.6-1.3-1.1-2.1-1.5c-1.7-0.7-3.6-0.7-5.3,0c-0.8,0.3-1.5,0.8-2,1.5c-0.6,0.6-1,1.4-1.3,2.2
		c-0.3,0.8-0.4,1.7-0.4,2.6v0.1c0,0.9,0.2,1.8,0.5,2.6c0.3,0.8,0.8,1.5,1.4,2.2c0.6,0.6,1.3,1.1,2.1,1.5
		C239.4,140.1,240.3,140.3,241.2,140.3z"/>
	<path id="Path_593" class="st4" d="M258.8,122.8h4.9v4.8c0.6-1.5,1.6-2.9,2.9-3.9c1.3-1,3-1.5,4.7-1.3v5.2h-0.3c-1,0-2,0.2-2.9,0.5
		c-0.9,0.3-1.7,0.9-2.3,1.6c-0.7,0.8-1.2,1.7-1.5,2.6c-0.4,1.2-0.5,2.4-0.5,3.7v8.1h-4.9L258.8,122.8z"/>
	<path id="Path_594" class="st4" d="M283.9,144.4c-0.8,0-1.7-0.1-2.5-0.3c-0.7-0.2-1.4-0.6-1.9-1.1c-0.6-0.5-1-1.2-1.3-1.9
		c-0.3-1-0.5-2-0.4-3V127H275v-4.2h2.7v-5.8h4.9v5.8h5.7v4.2h-5.7v10.4c-0.1,0.7,0.2,1.5,0.7,2c0.5,0.4,1.2,0.7,1.9,0.6
		c1.1,0,2.1-0.3,3-0.7v4c-0.6,0.4-1.3,0.6-1.9,0.8C285.5,144.4,284.7,144.4,283.9,144.4z"/>
</g>
</svg>
