<?xml version="1.0" encoding="utf-8"?>
<!-- Generator: Adobe Illustrator 24.1.0, SVG Export Plug-In . SVG Version: 6.00 Build 0)  -->
<svg version="1.1" id="Layer_1" xmlns="http://www.w3.org/2000/svg" xmlns:xlink="http://www.w3.org/1999/xlink" x="0px" y="0px"
	 viewBox="0 0 350 255.1" style="enable-background:new 0 0 350 255.1;" xml:space="preserve">
<style type="text/css">
	.st0{fill:#A3A3A3;}
	.st1{fill:#8C8C8C;}
	.st2{fill:#787878;}
	.st3{fill:#B7B7B7;}
	.st4{fill:#818181;}
	.st5{fill:#6E6E6E;}
</style>
<g>
	<path class="st0" d="M180.6,77.2c-13.9-7-29.6-6.6-42.7-0.5c2.9,14.2,12.1,26.9,26,33.9s29.6,6.6,42.7,0.5
		C203.7,96.9,194.6,84.1,180.6,77.2"/>
	<path class="st1" d="M215.4,88.9c0-0.1,0.1-0.1,0.1-0.2c0.1-0.2,0.3-0.4,0.4-0.6c0,0,0-0.1,0.1-0.1c0.3-0.4,0.7-0.9,1-1.3l0,0
		c0.2-0.2,0.3-0.4,0.5-0.6l0.1-0.1c0.2-0.2,0.3-0.3,0.5-0.5l0.1-0.1c0.2-0.2,0.3-0.3,0.5-0.5l0.1-0.1c0.2-0.1,0.3-0.3,0.5-0.4
		l0.1-0.1c0.2-0.1,0.4-0.3,0.5-0.4c1.2-0.9,2.4-1.6,3.8-2.2l0,0l-9.7-4.5l0,0c-0.4-0.2-0.7-0.3-1.1-0.4c-1.2-0.4-2.4-0.6-3.8-0.6
		c-0.3,0-0.5,0-0.7,0c-0.1,0-0.1,0-0.2,0l0,0c-0.5,0-0.9,0.1-1.4,0.2l0,0c-0.4,0.1-0.9,0.2-1.3,0.3l0,0c-0.1,0-0.1,0-0.2,0.1l0,0
		c-0.7,0.2-1.3,0.5-1.9,0.9c0,0,0,0-0.1,0l0,0c-0.2,0.1-0.3,0.2-0.5,0.3l0,0c0,0-0.1,0-0.1,0.1l0,0c-0.4,0.2-0.7,0.5-1.1,0.8l0,0
		l-0.1,0.1l0,0c-0.1,0.1-0.3,0.2-0.4,0.4l0,0l-0.1,0.1l0,0c-0.3,0.3-0.6,0.7-0.9,1c0,0,0,0-0.1,0.1c-0.1,0.2-0.2,0.3-0.4,0.5l0,0
		c0,0,0,0.1-0.1,0.1l0,0c-0.1,0.2-0.3,0.4-0.4,0.6c0.1-0.1,0.2-0.2,0.2-0.4l0,0L180,111.9l0,0c-6.4,10-16.4,17.5-28.1,20.8
		c4.2,1.2,8.5,1.8,13.1,1.8c22.3,0,41.1-15,47-35.4l0,0c0.1-0.4,0.2-0.9,0.3-1.3c0.1-0.2,0.1-0.4,0.1-0.6s0.1-0.3,0.1-0.5
		c0.1-0.5,0.2-1.1,0.3-1.6l0,0l0,0l0,0c0.4-1.9,1.1-3.7,2.1-5.3c0-0.1,0.1-0.2,0.1-0.2C215.2,89.3,215.3,89.1,215.4,88.9"/>
	<path class="st2" d="M206.6,111c-1.7-8.4-5.6-16.2-11.4-22.7L180,111.9l0,0c-0.7,1.1-1.4,2.1-2.2,3.2
		C187.7,116.7,197.7,115.2,206.6,111L206.6,111"/>
	<path class="st3" d="M171.2,87.2c-15.4-2.2-30.2,3.2-40.6,13.2c7.3,12.5,20,21.6,35.5,23.8c15.4,2.2,30.2-3.2,40.6-13.2
		C199.4,98.5,186.6,89.4,171.2,87.2"/>
	<path class="st4" d="M206.6,111L206.6,111c-3.8-6.5-9.1-12.2-15.5-16.3L180,111.9l0,0c-3.1,4.9-7.1,9.1-11.6,12.6
		C182.9,125.8,196.7,120.6,206.6,111"/>
	<path class="st5" d="M54.8,159.2h-2.7v-4h2.7v-1.6c0-2.3,0.6-4,1.7-5.2c1.1-1.1,2.7-1.7,4.7-1.7c0.8,0,1.6,0.1,2.2,0.2
		c0.6,0.1,1.2,0.2,1.7,0.4v4c-0.5-0.2-0.9-0.3-1.4-0.4c-0.4-0.1-0.9-0.1-1.4-0.1c-1.8,0-2.8,1.1-2.8,3.2v1.2H65v3.9h-5.5v16.8h-4.8
		L54.8,159.2L54.8,159.2z"/>
	<path class="st5" d="M77.4,176.5c-2.4,0-4.2-0.7-5.5-2.2s-1.9-3.4-1.9-5.9v-13.3h4.8V167c0,1.6,0.4,2.9,1.2,3.8
		c0.8,0.9,1.9,1.3,3.3,1.3s2.5-0.4,3.4-1.3c0.9-0.9,1.3-2.2,1.3-3.8v-11.8h4.8v20.9H84v-3.3c-0.7,1-1.5,1.9-2.6,2.6
		C80.4,176.1,79,176.5,77.4,176.5"/>
	<path class="st5" d="M103.5,176.4c-1.5,0-3-0.3-4.6-0.8c-1.5-0.5-3-1.3-4.3-2.3l2.1-3.2c1.2,0.8,2.3,1.5,3.5,1.9s2.3,0.7,3.4,0.7
		c1,0,1.8-0.2,2.4-0.6c0.6-0.4,0.9-1,0.9-1.6v-0.1c0-0.4-0.1-0.7-0.4-1s-0.6-0.5-1-0.8c-0.4-0.2-0.9-0.4-1.5-0.6
		c-0.6-0.2-1.2-0.4-1.8-0.6c-0.8-0.2-1.5-0.5-2.3-0.8s-1.5-0.7-2.1-1.1c-0.6-0.5-1.1-1-1.5-1.7s-0.6-1.5-0.6-2.5v-0.1
		c0-1,0.2-1.9,0.6-2.7s0.9-1.5,1.6-2c0.7-0.6,1.5-1,2.4-1.3s1.9-0.4,2.9-0.4c1.3,0,2.7,0.2,4,0.6c1.3,0.4,2.6,1,3.7,1.7l-1.9,3.4
		c-1-0.6-2-1.1-3-1.4c-1-0.4-2-0.5-2.9-0.5s-1.6,0.2-2.2,0.6s-0.8,0.9-0.8,1.5v0.1c0,0.4,0.1,0.7,0.4,1s0.6,0.5,1,0.8
		c0.4,0.2,0.9,0.4,1.5,0.6c0.6,0.2,1.2,0.4,1.8,0.6c0.8,0.2,1.5,0.5,2.3,0.8s1.5,0.7,2.1,1.2s1.1,1,1.5,1.7s0.6,1.5,0.6,2.4v0.1
		c0,1.1-0.2,2.1-0.6,2.9c-0.4,0.8-0.9,1.5-1.6,2s-1.5,1-2.5,1.2C105.6,176.3,104.6,176.4,103.5,176.4"/>
	<path class="st5" d="M118,155.1h4.8V176H118V155.1z M117.8,147.3h5.1v4.6h-5.1V147.3z"/>
	<path class="st5" d="M140.6,172.3c1,0,1.9-0.2,2.6-0.5c0.8-0.4,1.4-0.8,2-1.4c0.6-0.6,1-1.3,1.3-2.1s0.4-1.7,0.4-2.6v-0.1
		c0-0.9-0.2-1.8-0.5-2.6s-0.8-1.5-1.3-2.1c-0.6-0.6-1.2-1.1-2-1.4c-0.8-0.4-1.6-0.5-2.6-0.5s-1.8,0.2-2.6,0.5
		c-0.8,0.4-1.4,0.8-2,1.4c-0.6,0.6-1,1.3-1.3,2.1s-0.4,1.7-0.4,2.6v0.1c0,0.9,0.2,1.8,0.5,2.6s0.8,1.5,1.3,2.1
		c0.6,0.6,1.2,1.1,2,1.4S139.7,172.3,140.6,172.3 M140.5,176.5c-1.6,0-3.1-0.3-4.4-0.9c-1.4-0.6-2.5-1.3-3.5-2.3s-1.8-2.1-2.3-3.4
		c-0.6-1.3-0.8-2.7-0.8-4.2v-0.1c0-1.5,0.3-2.9,0.9-4.2c0.6-1.3,1.3-2.5,2.3-3.5s2.2-1.8,3.5-2.4c1.4-0.6,2.8-0.9,4.5-0.9
		c1.6,0,3.1,0.3,4.5,0.9c1.4,0.6,2.5,1.3,3.5,2.3s1.8,2.1,2.3,3.4c0.6,1.3,0.8,2.7,0.8,4.2v0.1c0,1.5-0.3,2.9-0.9,4.2
		c-0.6,1.3-1.3,2.5-2.3,3.5s-2.2,1.8-3.5,2.4C143.6,176.2,142.1,176.5,140.5,176.5"/>
	<path class="st5" d="M158.1,155.1h4.8v3.2c0.3-0.5,0.7-0.9,1.1-1.4c0.4-0.4,0.9-0.8,1.4-1.2c0.5-0.3,1.1-0.6,1.8-0.8
		c0.6-0.2,1.4-0.3,2.2-0.3c2.4,0,4.2,0.7,5.5,2.2s1.9,3.4,1.9,5.8v13.3H172V164c0-1.6-0.4-2.9-1.2-3.8c-0.8-0.9-1.9-1.3-3.3-1.3
		c-1.4,0-2.5,0.5-3.4,1.4s-1.3,2.2-1.3,3.8v11.8H158v-20.8H158.1z"/>
	<path class="st4" d="M191.4,176.4c-1.5,0-3-0.3-4.6-0.8c-1.5-0.5-3-1.3-4.3-2.3l2.1-3.2c1.2,0.8,2.3,1.5,3.5,1.9s2.3,0.7,3.4,0.7
		c1,0,1.8-0.2,2.4-0.6c0.6-0.4,0.9-1,0.9-1.6v-0.1c0-0.4-0.1-0.7-0.4-1c-0.3-0.3-0.6-0.5-1-0.8c-0.4-0.2-0.9-0.4-1.5-0.6
		c-0.6-0.2-1.2-0.4-1.8-0.6c-0.8-0.2-1.5-0.5-2.3-0.8s-1.5-0.7-2.1-1.1c-0.6-0.5-1.1-1-1.5-1.7s-0.6-1.5-0.6-2.5v-0.1
		c0-1,0.2-1.9,0.6-2.7c0.4-0.8,0.9-1.5,1.6-2c0.7-0.6,1.5-1,2.4-1.3s1.9-0.4,2.9-0.4c1.3,0,2.7,0.2,4,0.6c1.3,0.4,2.6,1,3.7,1.7
		l-1.9,3.4c-1-0.6-2-1.1-3-1.4c-1-0.4-2-0.5-2.9-0.5s-1.6,0.2-2.2,0.6s-0.8,0.9-0.8,1.5v0.1c0,0.4,0.1,0.7,0.4,1
		c0.3,0.3,0.6,0.5,1,0.8c0.4,0.2,0.9,0.4,1.5,0.6c0.6,0.2,1.2,0.4,1.8,0.6c0.8,0.2,1.5,0.5,2.3,0.8s1.5,0.7,2.1,1.2s1.1,1,1.5,1.7
		s0.6,1.5,0.6,2.4v0.1c0,1.1-0.2,2.1-0.6,2.9c-0.4,0.8-0.9,1.5-1.6,2s-1.5,1-2.5,1.2C193.5,176.3,192.5,176.4,191.4,176.4"/>
	<path class="st4" d="M212.8,176.5c-2.4,0-4.2-0.7-5.5-2.2s-1.9-3.4-1.9-5.9v-13.3h4.8V167c0,1.6,0.4,2.9,1.2,3.8
		c0.8,0.9,1.9,1.3,3.3,1.3c1.4,0,2.5-0.4,3.4-1.3c0.9-0.9,1.3-2.2,1.3-3.8v-11.8h4.8v20.9h-4.8v-3.3c-0.7,1-1.5,1.9-2.6,2.6
		S214.4,176.5,212.8,176.5"/>
	<path class="st4" d="M232,155.1h4.8V176H232V155.1z M231.8,147.3h5.1v4.6h-5.1V147.3z"/>
	<path class="st4" d="M251.6,176.4c-0.9,0-1.7-0.1-2.4-0.3s-1.4-0.6-1.9-1c-0.5-0.5-1-1.1-1.2-1.9c-0.3-0.8-0.4-1.7-0.4-2.9v-11H243
		v-4.1h2.7v-5.7h4.8v5.7h5.6v4.1h-5.6v10.3c0,0.9,0.2,1.6,0.7,2c0.4,0.4,1.1,0.6,1.9,0.6c1,0,2-0.2,3-0.7v3.9
		c-0.6,0.3-1.2,0.6-1.9,0.8C253.3,176.3,252.5,176.4,251.6,176.4"/>
	<path class="st4" d="M276.1,164.1c-0.1-0.8-0.3-1.5-0.5-2.2c-0.3-0.7-0.6-1.3-1.1-1.7c-0.4-0.5-1-0.9-1.6-1.2s-1.3-0.4-2.1-0.4
		c-1.5,0-2.7,0.5-3.6,1.5c-1,1-1.5,2.3-1.8,4L276.1,164.1L276.1,164.1z M271.4,176.5c-1.5,0-2.9-0.3-4.2-0.8
		c-1.3-0.5-2.4-1.3-3.4-2.2c-1-1-1.7-2.1-2.3-3.4c-0.6-1.3-0.8-2.8-0.8-4.4v-0.1c0-1.5,0.3-2.9,0.8-4.2s1.2-2.5,2.1-3.5
		s2-1.8,3.2-2.3c1.2-0.6,2.6-0.9,4.1-0.9c1.7,0,3.1,0.3,4.4,0.9c1.3,0.6,2.3,1.4,3.1,2.5c0.8,1,1.5,2.2,1.9,3.6
		c0.4,1.4,0.6,2.8,0.6,4.3c0,0.2,0,0.4,0,0.7c0,0.2,0,0.5-0.1,0.7h-15.4c0.3,1.7,0.9,3,2,3.9s2.4,1.4,4,1.4c1.2,0,2.2-0.2,3.1-0.6
		c0.9-0.4,1.7-1,2.6-1.9l2.8,2.5c-1,1.2-2.2,2.1-3.6,2.9S273.4,176.5,271.4,176.5"/>
	<path class="st4" d="M294.4,176.4c-1.5,0-3-0.3-4.6-0.8c-1.5-0.5-3-1.3-4.3-2.3l2.1-3.2c1.2,0.8,2.3,1.5,3.5,1.9s2.3,0.7,3.4,0.7
		c1,0,1.8-0.2,2.4-0.6c0.6-0.4,0.9-1,0.9-1.6v-0.1c0-0.4-0.1-0.7-0.4-1s-0.6-0.5-1-0.8c-0.4-0.2-0.9-0.4-1.5-0.6
		c-0.6-0.2-1.2-0.4-1.8-0.6c-0.8-0.2-1.5-0.5-2.3-0.8s-1.5-0.7-2.1-1.1c-0.6-0.5-1.1-1-1.5-1.7s-0.6-1.5-0.6-2.5v-0.1
		c0-1,0.2-1.9,0.6-2.7s0.9-1.5,1.6-2c0.7-0.6,1.5-1,2.4-1.3s1.9-0.4,2.9-0.4c1.3,0,2.7,0.2,4,0.6c1.3,0.4,2.6,1,3.7,1.7l-1.9,3.4
		c-1-0.6-2-1.1-3-1.4c-1-0.4-2-0.5-2.9-0.5s-1.6,0.2-2.2,0.6c-0.5,0.4-0.8,0.9-0.8,1.5v0.1c0,0.4,0.1,0.7,0.4,1s0.6,0.5,1,0.8
		c0.4,0.2,0.9,0.4,1.5,0.6c0.6,0.2,1.2,0.4,1.8,0.6c0.8,0.2,1.5,0.5,2.3,0.8s1.5,0.7,2.1,1.2s1.1,1,1.5,1.7s0.6,1.5,0.6,2.4v0.1
		c0,1.1-0.2,2.1-0.6,2.9c-0.4,0.8-0.9,1.5-1.6,2s-1.5,1-2.5,1.2C296.5,176.3,295.5,176.4,294.4,176.4"/>
</g>
</svg>
