<?xml version="1.0" encoding="utf-8"?>
<!-- Generator: Adobe Illustrator 24.1.0, SVG Export Plug-In . SVG Version: 6.00 Build 0)  -->
<svg version="1.1" id="Layer_1" xmlns="http://www.w3.org/2000/svg" xmlns:xlink="http://www.w3.org/1999/xlink" x="0px" y="0px"
	 viewBox="0 0 350 255.1" style="enable-background:new 0 0 350 255.1;" xml:space="preserve">
<style type="text/css">
	.st0{fill:#656868;}
</style>
<g>
	<polygon class="st0" points="92.8,163.8 86.3,153.3 84.9,153.3 84.9,169.7 86.9,169.7 86.9,158 92.8,167.7 98.7,158 98.7,169.7 
		100.8,169.7 100.8,153.3 99.3,153.3 	"/>
	<path class="st0" d="M110.1,163.4l3-6.9l3.1,6.9H110.1z M112.3,153.3l-7.3,16.5h2.3l1.9-4.4h7.9l1.9,4.4h2.3l-7.3-16.5H112.3z"/>
	<rect x="125.4" y="153.3" class="st0" width="2.2" height="16.5"/>
	<path class="st0" d="M136.7,163.4l3-6.9l3.1,6.9H136.7z M139,153.3l-7.3,16.5h2.3l1.9-4.4h7.9l1.9,4.4h2.3l-7.3-16.5H139z"/>
	<path class="st0" d="M164.2,155.2h4.4c3.1,0,3.9,1.8,3.9,3.4c0,2.5-1.5,3.8-4.4,3.8h-3.9V155.2z M174.7,158.8
		c0-3.4-2.3-5.5-5.8-5.5h-6.5v16.5h2.2v-5.3h3.9c0.3,0,0.8,0,1,0l3.9,5.3h2.6l-4.2-5.7C173.5,163.1,174.7,161.2,174.7,158.8"/>
	<polygon class="st0" points="182,162.7 189.9,162.7 189.9,160.7 182,160.7 182,155.2 191,155.2 191,153.3 179.8,153.3 179.8,169.7 
		191.6,169.7 191.6,167.7 182,167.7 	"/>
	<path class="st0" d="M202.6,160.5c-3-0.8-4.5-1.4-4.5-2.7c0-1.5,1.5-2.5,3.8-2.5c1.6,0,3.4,0.3,4.6,1l0.6,0.3l1-1.8l-0.5-0.2
		c-1.4-0.8-3.7-1.3-5.6-1.3c-3.4,0-5.7,1.8-5.7,4.6c0,3.2,3.4,4.1,6.1,4.7c2.7,0.6,4.1,1.3,4.1,2.7c0,1.6-1.5,2.6-4,2.6
		c-2.2,0-3-0.1-5.2-1.3l-0.6-0.2l-0.9,1.8l0.6,0.2c2.5,1.3,3.7,1.5,6.1,1.5c3.7,0,6-1.8,6-4.7C208.4,161.9,204.9,161,202.6,160.5"/>
	<path class="st0" d="M221.4,167.7c-3.7,0-6.5-2.7-6.5-6.2c0-3.4,2.9-6.2,6.5-6.2s6.5,2.7,6.5,6.2
		C227.9,165,225.1,167.7,221.4,167.7 M221.4,153.1c-4.7,0-8.6,3.8-8.6,8.4s3.9,8.4,8.6,8.4c4.7,0,8.6-3.8,8.6-8.4
		S226.2,153.1,221.4,153.1"/>
	<path class="st0" d="M237.4,155.2h4.4c3.1,0,3.9,1.8,3.9,3.4c0,2.5-1.5,3.8-4.4,3.8h-3.9V155.2z M247.6,158.8
		c0-3.4-2.3-5.5-5.8-5.5h-6.5v16.5h2.2v-5.3h3.9c0.3,0,0.8,0,1,0l3.9,5.3h2.6l-4.2-5.7C246.5,163.1,247.6,161.2,247.6,158.8"/>
	<polygon class="st0" points="252.1,153.3 252.1,155.2 257.6,155.2 257.6,169.7 259.6,169.7 259.6,155.2 265.1,155.2 265.1,153.3 	
		"/>
	<path class="st0" d="M134.3,186.8l-1,1.1l0.5,0.5c-0.3,0.1-0.9,0.2-1.4,0.2c-1.9,0-3.4-1.5-3.4-3.3c0-1.8,1.6-3.3,3.4-3.3
		c1.9,0,3.4,1.5,3.4,3.3c0,0.9-0.3,1.6-0.9,2.3L134.3,186.8z M132.6,180.3c-2.9,0-5.2,2.3-5.2,4.8c0,2.7,2.3,4.8,5.2,4.8
		c1,0,1.8-0.2,2.6-0.8l1.1,0.9l0.9-1.1l-0.9-0.8c0.9-0.9,1.3-1.9,1.3-3.2C137.5,182.6,135.4,180.3,132.6,180.3"/>
	<path class="st0" d="M148.7,186c0,1.6-0.9,2.6-2.5,2.6c-1.5,0-2.5-1-2.5-2.6v-5.7h-1.5v5.7c0,2.5,1.6,4.1,4,4.1s4-1.6,4-4.1v-5.7
		h-1.5V186z"/>
	<polygon class="st0" points="158.4,185 155.6,180.3 153.8,180.3 157.7,186.6 157.7,190.1 159.3,190.1 159.3,186.6 163.2,180.3 
		161.3,180.3 	"/>
	<polygon class="st0" points="181,187.2 175.5,180.3 174.9,180.3 174.9,180.2 174.9,180.3 174.4,180.3 174.4,190.1 175.9,190.1 
		175.9,183.3 181.5,190.1 182,190.1 182.1,190.2 182.1,190.1 182.6,190.1 182.6,180.3 181,180.3 	"/>
	<polygon class="st0" points="193.7,184.9 189.1,184.9 189.1,180.3 187.5,180.3 187.5,190.1 189.1,190.1 189.1,186.4 193.7,186.4 
		193.7,190.1 195.2,190.1 195.2,180.3 193.7,180.3 	"/>
	<path class="st0" d="M204.8,188.6c-1.9,0-3.4-1.5-3.4-3.3s1.6-3.3,3.4-3.3c1.9,0,3.4,1.5,3.4,3.3S206.7,188.6,204.8,188.6
		 M204.8,180.3c-2.9,0-5.2,2.3-5.2,4.8c0,2.7,2.3,4.8,5.2,4.8s5.2-2.3,5.2-4.8C209.9,182.6,207.5,180.3,204.8,180.3"/>
	<polygon class="st0" points="221,180.3 221,187.2 215.4,180.3 214.9,180.3 214.7,180.2 214.7,180.3 214.4,180.3 214.4,190.1 
		215.9,190.1 215.9,183.3 221.4,190.1 222.1,190.1 222.2,190.2 222.2,190.1 222.5,190.1 222.5,180.3 	"/>
	<path class="st0" d="M178.1,78.7c1.7,2.3,1.4,5.5-0.9,7.2c-0.8,0.6-1.6,0.9-2.5,1c-0.1,0-0.3,0-0.6,0l0,0c-1.5,0.2-3,0.8-4.4,1.8
		c-3.2,2.5-4.2,6.9-2.6,10.4l0,0c0.1,0.5,0,1.1-0.3,1.5c-0.5,0.3-1.1,0.3-1.6,0l0,0l-0.1-0.1l0,0c-0.1-0.2-0.3-0.3-0.5-0.6
		c-4.8-6.2-3.9-15.3,2.5-20.4c1.7-1.4,3.8-2.3,5.8-2.7l0,0c0.3-0.1,0.6-0.1,1-0.1l0,0C175.3,76.7,176.9,77.3,178.1,78.7"/>
	<path class="st0" d="M197.2,103.2c-2.3,1.7-5.5,1.4-7.2-0.9c-0.6-0.8-0.9-1.6-1-2.5c0-0.1,0-0.3,0-0.6l0,0c-0.2-1.5-0.8-3-1.8-4.4
		c-2.5-3.2-6.9-4.2-10.4-2.6l0,0c-0.5,0.1-1.1,0-1.5-0.3c-0.3-0.5-0.3-1.1,0-1.6l0,0l0.1-0.1l0,0c0.2-0.1,0.3-0.3,0.6-0.5
		c6.2-4.8,15.3-3.9,20.4,2.5c1.4,1.7,2.3,3.8,2.7,5.8l0,0c0.1,0.3,0.1,0.6,0.1,1l0,0C199.3,100.4,198.6,102.1,197.2,103.2"/>
	<path class="st0" d="M172.8,121.9c-1.8-2.4-1.5-5.6,0.8-7.3c0.8-0.6,1.6-0.9,2.5-1c0.2,0,0.3,0,0.6,0l0,0c1.5-0.1,3-0.8,4.4-1.7
		c3.2-2.5,4.1-6.9,2.5-10.7l0,0c-0.2-0.5,0-1.1,0.3-1.5c0.5-0.3,1.1-0.3,1.6,0.1l0,0l0.1,0.1l0,0c0.2,0.2,0.3,0.5,0.6,0.6
		c5.2,6.5,4.1,15.7-1.9,20.6c-1.7,1.4-3.8,2.3-5.7,2.6l0,0c-0.3,0.1-0.6,0.1-1,0.1l0,0C175.6,124.2,174,123.4,172.8,121.9"/>
	<path class="st0" d="M153.7,97.8c2.3-1.7,5.5-1.4,7.2,0.9c0.6,0.8,0.9,1.6,1,2.5c0,0.1,0,0.3,0,0.6l0,0c0.2,1.5,0.8,3,1.8,4.4
		c2.5,3.2,6.9,4.2,10.4,2.6l0,0c0.5-0.1,1.1,0,1.4,0.3c0.3,0.5,0.3,1.1,0,1.6l0,0l-0.1,0.1l0,0c-0.2,0.1-0.3,0.3-0.6,0.5
		c-6.2,4.8-15.3,3.9-20.4-2.5c-1.4-1.7-2.3-3.8-2.7-5.8l0,0c-0.1-0.3-0.1-0.6-0.1-1l0,0C151.6,100.6,152.3,99,153.7,97.8"/>
	<path class="st0" d="M208.4,87c-1.5,2.5-4.6,3.2-7.1,1.7c-0.8-0.5-1.4-1.1-1.8-1.8c-0.1-0.1-0.1-0.3-0.2-0.5l0,0
		c-0.8-1.4-1.8-2.6-3.2-3.3c-3.4-2.2-8-1.5-10.8,1.3l0,0c-0.3,0.3-1,0.3-1.5,0.1c-0.5-0.3-0.8-1-0.5-1.5l0,0c0-0.1,0.1-0.1,0.1-0.2
		l0,0c0.1-0.2,0.2-0.5,0.3-0.8c4.1-6.9,12.9-9,19.8-5c1.8,1.1,3.4,2.6,4.6,4.5l0,0c0.1,0.2,0.3,0.5,0.5,0.9l0,0
		C209.2,83.8,209.2,85.5,208.4,87"/>
	<path class="st0" d="M191.4,132.8c-2.6-1.1-3.9-4.1-2.7-6.8c0.3-0.9,1-1.6,1.6-2.2c0.1-0.1,0.3-0.2,0.5-0.3l0,0
		c1.3-0.9,2.3-2.2,3-3.8c1.6-3.8,0.3-8.1-2.7-10.4l0,0c-0.3-0.3-0.5-1-0.3-1.5c0.2-0.6,0.9-0.9,1.5-0.8l0,0c0.1,0,0.1,0,0.2,0.1l0,0
		c0.2,0.1,0.5,0.2,0.8,0.2c7.3,3.1,10.8,11.6,7.6,19c-0.9,2.2-2.3,3.9-3.8,5.3l0,0c-0.2,0.2-0.5,0.3-0.8,0.6l0,0
		C194.8,133.2,193,133.4,191.4,132.8"/>
	<path class="st0" d="M144,118.6c1-2.6,4-4,6.6-3.1c0.9,0.3,1.6,0.9,2.2,1.5c0.1,0.1,0.2,0.2,0.3,0.5l0,0c1,1.3,2.3,2.2,3.9,2.7
		c3.9,1.4,8.1,0,10.3-3.2l0,0c0.3-0.3,0.9-0.6,1.5-0.3s0.9,0.8,0.9,1.4l0,0c0,0.1,0,0.1,0,0.2l0,0c-0.1,0.2-0.1,0.5-0.2,0.8
		c-2.7,7.4-11.1,11.3-18.6,8.6c-2.2-0.8-3.9-1.9-5.4-3.4l0,0c-0.2-0.2-0.3-0.5-0.6-0.8l0,0C143.6,122,143.3,120.3,144,118.6"/>
	<path class="st0" d="M157.2,69.2c2.6,1,4,4,3,6.6c-0.3,0.9-0.9,1.6-1.6,2.2c-0.1,0.1-0.2,0.2-0.5,0.3l0,0c-1.3,1-2.3,2.3-2.9,3.8
		c-1.5,3.9-0.1,8.1,3.1,10.3l0,0c0.3,0.3,0.6,0.9,0.3,1.5c-0.2,0.6-0.9,0.9-1.4,0.8l0,0c-0.1,0-0.1,0-0.2-0.1l0,0
		c-0.2-0.1-0.5-0.1-0.8-0.2c-7.4-2.9-11.1-11.2-8.2-18.7c0.8-2.2,1.9-3.9,3.7-5.4l0,0c0.2-0.2,0.5-0.3,0.8-0.6l0,0
		C153.8,68.8,155.6,68.5,157.2,69.2"/>
	<path class="st0" d="M204.8,116.2c-2.9-0.5-4.7-3.1-4.2-5.8c0.1-0.9,0.5-1.7,1.1-2.4c0.1-0.1,0.2-0.2,0.3-0.3l0,0
		c1-1.3,1.7-2.6,1.9-4.2c0.6-4.1-1.6-8-5.3-9.5l0,0c-0.5-0.2-0.8-0.8-0.6-1.4c0.1-0.6,0.6-1,1.3-1.1l0,0c0.1,0,0.1,0,0.2,0l0,0
		c0.2,0,0.5,0.1,0.9,0.1c7.9,1.3,13.2,8.6,12,16.6c-0.3,2.3-1.3,4.2-2.4,6l0,0c-0.1,0.2-0.3,0.5-0.6,0.8l0,0
		C208.2,115.8,206.6,116.5,204.8,116.2"/>
	<path class="st0" d="M163.7,132.8c-0.1-2.9,2.2-5.3,4.8-5.4c1,0,1.8,0.1,2.6,0.6c0.1,0.1,0.3,0.2,0.5,0.2l0,0c1.4,0.8,3,1.1,4.6,1
		c4.1-0.1,7.4-3.1,8.2-7l0,0c0.1-0.5,0.6-0.9,1.1-0.9c0.6,0,1.1,0.3,1.3,1l0,0c0,0.1,0,0.1,0,0.2l0,0c0,0.2,0,0.6,0,0.9
		c0.3,8-5.8,14.8-13.9,15.1c-2.3,0.1-4.4-0.3-6.4-1.1l0,0c-0.2-0.1-0.6-0.2-0.9-0.3l0,0C164.8,136.1,163.8,134.5,163.7,132.8"/>
	<path class="st0" d="M143.6,88.6c2.9,0,5.2,2.3,5.2,5.2c0,1-0.2,1.8-0.6,2.6c-0.1,0.1-0.2,0.3-0.2,0.5l0,0
		c-0.8,1.4-1.3,2.9-1.3,4.6c0,4.1,2.9,7.6,6.6,8.6l0,0c0.5,0.1,0.9,0.6,0.9,1.3s-0.5,1.1-1,1.3l0,0c-0.1,0-0.1,0-0.2,0l0,0
		c-0.2,0-0.6,0-0.9,0c-8,0-14.4-6.4-14.4-14.3c0-2.3,0.5-4.4,1.4-6.2l0,0c0.1-0.2,0.2-0.6,0.5-0.9l0,0
		C140.2,89.5,141.8,88.6,143.6,88.6"/>
	<path class="st0" d="M189.2,70.2c-0.3,2.9-2.9,4.8-5.7,4.6c-0.9-0.1-1.7-0.5-2.5-1c-0.1-0.1-0.2-0.2-0.5-0.3l0,0
		c-1.3-1-2.7-1.6-4.4-1.7c-4.1-0.5-7.9,1.9-9.3,5.6l0,0c-0.2,0.5-0.8,0.8-1.3,0.8c-0.6-0.1-1.1-0.6-1.1-1.1l0,0c0-0.1,0-0.1,0-0.2
		l0,0c0-0.2,0-0.6,0.1-0.9c0.9-8,8-13.6,15.9-12.7c2.3,0.2,4.2,1,6.1,2.2l0,0c0.2,0.1,0.5,0.3,0.8,0.5l0,0
		C188.7,66.8,189.4,68.4,189.2,70.2"/>
</g>
</svg>
