<?xml version="1.0" encoding="utf-8"?>
<!-- Generator: Adobe Illustrator 24.1.0, SVG Export Plug-In . SVG Version: 6.00 Build 0)  -->
<svg version="1.1" id="Layer_1" xmlns="http://www.w3.org/2000/svg" xmlns:xlink="http://www.w3.org/1999/xlink" x="0px" y="0px"
	 viewBox="0 0 350 255.1" style="enable-background:new 0 0 350 255.1;" xml:space="preserve">
<style type="text/css">
	.st0{fill-rule:evenodd;clip-rule:evenodd;fill:#B7B7B7;}
	.st1{fill-rule:evenodd;clip-rule:evenodd;fill:#656868;}
</style>
<g>
	<path class="st0" d="M172.4,53.7c27.1,0,49.2,22.1,49.2,49.2s-22.1,49.2-49.2,49.2s-49.2-22.1-49.2-49.2S145.3,53.7,172.4,53.7
		L172.4,53.7z"/>
	<path class="st1" d="M176.6,151.9c-1.4,0.1-2.8,0.2-4.2,0.2c-1.5,0-3-0.1-4.5-0.2l0.3-9.2l-31.9-6.9h32.2l0.2-4.8l-26-6.9H169
		l0.2-4.6l-21.6-5.5h21.8l0.2-4.5l-18-4.7h18.2l0.2-4.6L155.1,96h15l0.2-4.1l-12.6-4h12.8l0.1-3.8l-10.7-3.4h10.8l0.1-3.3l-6.9-2.9
		h7.1l0.1-3.6l-5.1-2.5h5.2l0.1-3.6l-3.5-2.1h3.6l0.1-3.2l-1.6-1.2h1.6l0.2-4.4l0.2,4.4h1.7l-1.6,1.2l0.2,3.2h3.8l-3.7,2l0.2,3.7
		h5.1l-4.9,2.5l0.2,3.6h7.4l-7.2,2.9l0.2,3.4h10.5l-10.3,3.1l0.2,4.1h13l-12.9,3.7l0.2,4.4h16l-15.8,4.2l0.2,4.7h19l-18.8,4.9
		l0.2,4.2h22.4l-22.1,5.9l0.2,4.2H202l-26.4,6.8l0.3,5h32.6l-32.3,6.9L176.6,151.9L176.6,151.9z"/>
	<path class="st1" d="M104.7,171.4L104.7,171.4L104.7,171.4c0.6,0,1,0,1,0c2.7,0,6,1.4,6,4.5c0,2.2-1.6,3.6-3.6,4.2
		c1.2,2.1,2.7,5.2,4.4,6.9c0.5,0.5,1.4,0.7,2.1,0.9v1c-1.7-0.1-3.5-0.2-5.5,0l-4.2-7.6c-0.1-0.2-0.2-0.2-0.3-0.3
		c-0.6-0.4-1.6-0.3-2.3-0.3c0,1.7,0,3.4,0,5.2c0,1.6,1.1,1.8,2.3,2v1.1c-2.3-0.2-6-0.2-8.3,0v-1.1c1.3-0.2,2.3-0.4,2.3-2
		c0-2.4,0-4.8,0-7.1l0,0v-4.2c0-1.6-1.1-1.8-2.3-2c0-0.4,0-0.7,0-1.1C99.3,171.7,102,171.5,104.7,171.4L104.7,171.4z M107.5,176
		L107.5,176L107.5,176c0-2.9-2.4-3.4-5.1-3.3c0,2.3,0,4.5,0,6.8C105.1,179.6,107.4,179.1,107.5,176
		C107.5,176.1,107.5,176.1,107.5,176L107.5,176z"/>
	<path class="st1" d="M47.4,169.3c0-0.4,0-0.7-0.1-1.1c2.4,0.2,4.8,0.2,7.2,0l15.3,15.2v-12c0-1.1-0.4-1.5-1.1-1.8
		c-0.6-0.2-1.3-0.3-2-0.4c0-0.3,0-0.7,0-1l0,0l0,0c0.1,0,0.2,0,0.4,0c2.2,0.2,5.2,0.2,7.4,0c0,0.3,0,0.7,0,1
		c-1.6,0.3-3.1,0.2-3.1,2.1v17.6c-0.8-0.1-1.5-0.1-2.3,0l-16.2-16c0,3.5,0,7,0,10.5l0,0c0,0.8,0,1.5,0,2.3c0,2,1.5,1.9,3.1,2.2
		c0,0.3,0,0.7,0,1c-2.3-0.3-5.5-0.3-7.8,0c0-0.3,0-0.7,0-1c1.6-0.3,3.1-0.2,3.1-2.2c0-0.4,0-0.9,0-1.3l0,0c0-3.5,0-7,0-10.6
		C51.4,170.5,50.4,169.6,47.4,169.3L47.4,169.3z"/>
	<path class="st1" d="M116.9,188.9L116.9,188.9c-0.1,0-0.1,0-0.2,0v-1.1c1.2-0.2,2.2-0.4,2.3-1.9l0.1-10.1l0,0v-1.3
		c0-1.6-1.1-1.8-2.3-2c0-0.4,0-0.7,0-1.1c4.8,0.3,9.9,0.2,14.3,0c0.1,1.3,0.2,2.6,0.2,3.9c-0.3-0.1-0.7,0-1,0
		c-0.2-0.7-0.6-1.8-1.3-2.2c-1-0.6-5.2-0.4-6.1,0.1c-0.1,0.1-0.1,0.2-0.1,0.4c0,2.8,0,4.3,0,5.1c0,0.5,0.1,0.6,0.5,0.6
		c1.2,0,2.6,0,3.7-0.1c1.5-0.2,1.5-1,1.6-2.5h1.2c0,1,0,2.1,0,3.1l0,0l0,0l0,0l0,0l0,0c0,1,0,2.1,0,3.1h-1.2
		c-0.1-1.5-0.1-2.3-1.6-2.5c-1.1-0.1-2.5-0.1-3.8-0.1c-0.4,0-0.5,0.1-0.5,0.5c0,0.9,0,2.3,0,4.9c0,0.1,0,0.3,0,0.4
		c0.2,1.2,1.2,1.4,2.3,1.6v1.1c-2-0.2-5.2-0.2-7.5-0.1C117.3,188.9,117.1,188.9,116.9,188.9L116.9,188.9z M129.7,179.8
		C129.7,179.9,129.7,179.9,129.7,179.8L129.7,179.8L129.7,179.8z"/>
	<path class="st1" d="M157,185.1v-10.6l0,0l0,0c0-1.6-1.1-1.8-2.3-2v-1.1c2.3,0.2,6,0.2,8.3,0v1.1c-1.3,0.2-2.3,0.4-2.3,2
		c0,0.2,0,0.4,0,0.6l0,0v11.8c0,0.3,0.2,0.5,0.3,0.5c1.9,0.1,4.3,0.3,6.1-0.4c1.7-0.7,2.1-1.6,2.6-3.1c0-0.1,1,0,1.1,0.1
		c-0.3,1.6-0.4,3.3-0.4,4.9c-4.7-0.2-10.4-0.3-15.6,0c0-0.4,0-0.7,0-1.1c1.3-0.2,2.3-0.4,2.3-2v-0.7H157z"/>
	<path class="st1" d="M178,186c0.1,1.5,1.1,1.7,2.3,1.9v1.1c-2.3-0.2-6-0.2-8.3,0v-1.1c1.3-0.2,2.3-0.4,2.3-2c0-0.2,0-0.4,0-0.6l0,0
		v-10l0,0c0-0.2,0-0.4,0-0.6l0,0c0-0.2,0-0.5-0.1-0.7c-0.3-1-1.2-1.2-2.2-1.4v-1.1c2.3,0.2,6,0.2,8.3,0v1.1c-1.3,0.2-2.3,0.4-2.3,2
		c0,0.2,0,0.3,0,0.5l0,0v4.4c1.6-1.6,5.4-4.8,6.1-6.5l-0.1-0.1c-0.7-0.1-1.6-0.2-2.2-0.2c0-0.1,0-0.5,0-0.9c0-0.1,0-0.1,0-0.2
		c2.5,0.2,5,0.3,7.6-0.1c0,0.4,0,0.7,0,1.1c-0.1,0-0.4,0.1-0.9,0.2c-3.3,1-5.4,3.1-7.7,5.7c2.2,2.6,4.4,5.1,6.5,7.8
		c0.9,1,1.4,1.5,2.8,1.7v1.1c-2.3-0.2-6.1-0.2-8.4,0V188c1.1-0.2,2.5-0.2,1.4-1.6c-1.7-2-3.5-4-5.2-6L178,186L178,186L178,186z"/>
	<path class="st1" d="M217,169.8c0.1,1.1,0.3,3,0.4,4.2c-0.4,0-0.8,0-1.1-0.1c-0.6-2.3-3.4-4.1-6.5-4.1c-4.8,0-6.5,5.1-6.5,9.1
		c0,4.1,2.1,8.6,6.7,8.6c0.9,0,2.4-0.1,3.1-0.8c0.7-1,0.5-3.1,0.5-4.4c0-1.8-1.2-2.1-2.6-2.3v-1.2c2.6,0.2,6.8,0.2,9.3,0v1.2
		c-1.4,0.2-2.6,0.5-2.6,2.3c0,1.4-0.1,2.9-0.1,4.3c0,0.4-0.4,0.8-0.5,0.9c-0.3,0.3-0.8,0.4-2.3,0.8c-1.5,0.4-3.2,0.5-5.2,0.5
		c-6.1,0-11-3.5-11-10.2c0-6.4,5.3-10.6,11.3-10.6c0.2,0,0.5,0,1,0.1C212.8,168.2,215.1,168.7,217,169.8L217,169.8z"/>
	<path class="st1" d="M229.5,171.4L229.5,171.4L229.5,171.4c0.6,0,0.9,0,1,0c2.7,0,6,1.4,6,4.5c0,2.2-1.6,3.6-3.6,4.2
		c1.2,2.1,2.7,5.2,4.4,6.9c0.5,0.5,1.4,0.7,2.1,0.9v1c-1.7-0.1-3.5-0.2-5.5,0l-4.2-7.6c-0.1-0.2-0.2-0.2-0.3-0.3
		c-0.6-0.4-1.6-0.3-2.3-0.3c0,1.7,0,3.4,0,5.2c0,1.6,1.1,1.8,2.3,2v1.1c-2.3-0.2-6-0.2-8.3,0v-1.1c1.3-0.2,2.3-0.4,2.3-2
		c0-2.4,0-4.8,0-7.1l0,0v-4.2c0-1.6-1.1-1.8-2.3-2c0-0.4,0-0.7,0-1.1C224.1,171.7,226.8,171.5,229.5,171.4L229.5,171.4z M232.3,176
		L232.3,176L232.3,176c0-2.9-2.4-3.4-5.1-3.3c0,2.3,0,4.5,0,6.8C229.9,179.6,232.2,179.1,232.3,176
		C232.3,176.1,232.3,176.1,232.3,176L232.3,176z"/>
	<path class="st1" d="M272,187.7c3.1,0,4.7-1.5,4.8-4.6v-8.4c0-2-1.5-1.9-3.1-2.2v-1c2.3,0.3,5.5,0.3,7.8,0v1
		c-1.6,0.3-3.1,0.2-3.1,2.2v8.5c-0.2,4.5-3.5,5.8-7.5,5.8c-3.9-0.1-7.2-2.4-7-7c0-1.8,0-7.2,0-7.4c0-1.6-1.1-1.8-2.3-2v-1.1
		c2.3,0.2,6,0.2,8.3,0v1.1c-1.3,0.2-2.3,0.4-2.3,2c0,0.2,0,7.7,0,8C267.5,185.4,268.8,187.7,272,187.7L272,187.7z"/>
	<path class="st1" d="M290.4,171.4L290.4,171.4L290.4,171.4c0.6,0,0.9,0,1,0c2.7,0,6,1.4,6,4.5c0,2.2-1.6,3.6-3.6,4.2
		c-1.8,0.4-3.2,0.5-4.9,0.5c0-0.4-0.4-0.8-0.4-1.1c2.5,0,4.6-0.6,4.6-3.4c0,0,0,0,0-0.1l0,0l0,0c0-2.9-2.4-3.4-5.1-3.3
		c0,4.9,0,8.4,0,13.1c0,1.6,1.1,1.8,2.3,2v1.1c-2.3-0.2-6-0.2-8.3,0v-1.1c1.3-0.2,2.3-0.4,2.3-2c0-2.4,0-4.8,0-7.1l0,0
		c0-1.4,0-2.8,0-4.2c0-1.6-1.1-1.8-2.3-2c0-0.4,0-0.7,0-1.1C284.9,171.7,287.6,171.5,290.4,171.4L290.4,171.4z"/>
	<path class="st1" d="M249.8,172.8c-3.7,0-5.1,4.2-5.1,7.2c0,3.2,1,7.8,5,7.8s5.3-3.5,5.3-7C255,177.1,254.5,172.8,249.8,172.8
		L249.8,172.8z M240.6,180.1c0-5.3,4.5-8.5,9.3-8.5c4.9,0,9.3,3.3,9.3,8.5c0,5.4-4.2,8.9-9.5,8.9
		C244.7,188.9,240.6,185.8,240.6,180.1L240.6,180.1z"/>
	<path class="st1" d="M142.8,172.8c-3.7,0-5.1,4.2-5.1,7.2c0,3.2,1,7.8,5,7.8s5.3-3.5,5.3-7C148,177.1,147.5,172.8,142.8,172.8
		L142.8,172.8z M133.6,180.1c0-5.3,4.5-8.5,9.3-8.5c4.9,0,9.3,3.3,9.3,8.5c0,5.4-4.2,8.9-9.5,8.9
		C137.7,188.9,133.6,185.8,133.6,180.1L133.6,180.1z"/>
	<path class="st1" d="M85.5,172.8c-3.7,0-5.1,4.2-5.1,7.2c0,3.2,1,7.8,5,7.8s5.3-3.5,5.3-7C90.7,177.1,90.2,172.8,85.5,172.8
		L85.5,172.8z M76.3,180.1c0-5.3,4.5-8.5,9.3-8.5c4.9,0,9.3,3.3,9.3,8.5c0,5.4-4.2,8.9-9.5,8.9C80.4,188.9,76.3,185.8,76.3,180.1
		L76.3,180.1z"/>
</g>
</svg>
