<?xml version="1.0" encoding="utf-8"?>
<!-- Generator: Adobe Illustrator 24.1.0, SVG Export Plug-In . SVG Version: 6.00 Build 0)  -->
<svg version="1.1" id="Layer_1" xmlns="http://www.w3.org/2000/svg" xmlns:xlink="http://www.w3.org/1999/xlink" x="0px" y="0px"
	 viewBox="0 0 350 255.1" style="enable-background:new 0 0 350 255.1;" xml:space="preserve">
<style type="text/css">
	.st0{fill:#656868;}
</style>
<g>
	<path class="st0" d="M274.8,142.5c5.5-0.8,9-4.2,9-8.5c0-4.5-3.4-8.2-10.3-8.2H250v28.1h6.3v-23H272c3,0,5,1.3,5,4.1
		c0,2.5-2,4.3-5.8,4.3h-9.4v4.7h3.3c3.9,0,6.2,1,8.2,3.4l5.4,6.4h8.1l-7-8.4C278.5,144,276.9,142.9,274.8,142.5"/>
	<path class="st0" d="M165.7,132.1c-3.9-3.7-10.6-6.8-18.3-6.8c-12,0-20.3,6-20.3,14.6s8.2,14.7,20.1,14.7c7.8,0,14.4-2.6,18.4-6.8
		l-4.6-3.9c-3,3-7.7,5.4-13.7,5.4c-7.6,0-13.2-3.5-13.2-9.4c0-5.7,5.5-9.2,13.1-9.2c6.1,0,10.7,2.3,13.8,5.4L165.7,132.1"/>
	<path class="st0" d="M204.9,132.1c-3.9-3.7-10.7-6.8-18.3-6.8c-12,0-20.3,6-20.3,14.6s8.2,14.7,20.1,14.7c7.8,0,14.4-2.6,18.4-6.8
		l-4.6-3.9c-3,3-7.7,5.4-13.7,5.4c-7.6,0-13.2-3.5-13.2-9.4c0-5.7,5.5-9.2,13-9.2c6.1,0,10.7,2.3,13.8,5.4L204.9,132.1"/>
	<path class="st0" d="M109.1,148.7l3.3-5.1h-10c-2.2,0-3.6,0.2-5,1.6l9.9-14.1l16.3,22.8h7.5l-20.2-28.1h-6.6L84,153.9h7.3l2.2-3.1
		c1.1-1.6,2-2.1,3.9-2.1L109.1,148.7"/>
	<path class="st0" d="M226.1,125.2c-11.6,0-20.5,5.8-20.5,14.6c0,8.9,8.9,14.7,20.5,14.7c12.4,0,21.2-5.8,21.2-14.8
		C247.4,131.1,238.6,125.2,226.1,125.2 M226.1,149.2c-7.3,0-13.4-3.4-13.4-9.4c0-5.7,6-9.2,13.4-9.2c8.2,0,14.2,3.5,14.2,9.1
		C240.3,145.9,234.2,149.2,226.1,149.2z"/>
	<path class="st0" d="M75.9,110.2c-6.3,2-11.3,5.3-18.7,7.6c-0.2,0.1-0.3,0.1-0.3,0.3s0.2,0.2,0.4,0.2c9.5-0.2,20.1,1.9,28.2,0.5
		c13.6-2.4,11.5-8.6,31.6-12.3l4.5-0.8c0.2,0,0.4-0.1,0.4-0.3c0,0,0-0.1-0.3-0.2l-4.6-1.1c-0.5-1.5-2.2-2.3-4.7-1.8
		c-5,0.9-8.9,5.7-15,5.1c-1.3-7.5-8.9-12.3-18.5-13.5c-12.1-1.5-16.1-3-19.1-4.7c-0.3-0.2-0.6-0.4-0.9-0.3c-0.2,0-0.4,0.4-0.3,0.9
		C59.7,96,74.2,100.5,75.9,110.2"/>
	<path class="st0" d="M110.3,113.6c-0.1,0-0.2,0.1-0.2,0.2c0,0.1,0.1,0.1,0.2,0.2c4.2,0.1,10.2-0.3,16-1.3
		c19.5-3.4,14.3-9.6,33.2-12.8l4-0.7c0.2,0,0.4-0.1,0.4-0.2s-0.3-0.1-0.4-0.2l-3-0.8c-0.4-1.3-1.8-1.8-3.7-1.4
		c-3.8,0.7-6.1,3.4-11.7,2.7c-2.1-4.1-8.3-6.9-15-7.7c-7.8-0.9-12.3-1.7-17.2-3.4c-0.1,0-0.3-0.1-0.5-0.1c-0.3,0-0.3,0.3-0.3,0.6
		c1,5.9,12.8,8.3,14,15c3.5-0.5,6-3.1,9.3-3.7c1.9-0.3,3.3,0.1,3.8,1.5l3.6,0.8c0.2,0,0.4,0.1,0.4,0.2s0,0.2-0.3,0.2l-4.5,0.8
		c-5.3,0.9-10,2.7-15.7,5.6C119.1,111,114.4,112.7,110.3,113.6"/>
</g>
</svg>
