<?xml version="1.0" encoding="utf-8"?>
<!-- Generator: Adobe Illustrator 24.1.0, SVG Export Plug-In . SVG Version: 6.00 Build 0)  -->
<svg version="1.1" id="Layer_1" xmlns="http://www.w3.org/2000/svg" xmlns:xlink="http://www.w3.org/1999/xlink" x="0px" y="0px"
	 viewBox="0 0 350 255.1" style="enable-background:new 0 0 350 255.1;" xml:space="preserve">
<style type="text/css">
	.st0{fill:#656868;}
</style>
<g>
	<g>
		<path class="st0" d="M176.3,68.5c0,2.2-1.8,3.9-3.9,3.9c-2.2,0-3.9-1.7-3.9-3.9s1.8-3.9,3.9-3.9C174.5,64.7,176.3,66.4,176.3,68.5
			"/>
		<path class="st0" d="M211.7,76.6c-0.9-2.2-2.3-4.1-4.2-5.6l-0.6-0.4l0,0c-1.9-1.4-4.2-2.2-6.6-2.5c-2.2-0.2-4.5,0.1-6.5,0.9
			s-3.9,2.1-5.3,3.8l-0.1,0.1l-8.4,11l-3.7-4.8l-4.1-5.3l-4.1,5.3l-3.7,4.8l-8.4-11l-0.1-0.1c-1.4-1.7-3.3-3-5.3-3.8
			c-2.1-0.8-4.3-1.1-6.5-0.9c-2.3,0.2-4.6,1.1-6.6,2.5h-0.1l-0.6,0.4c-1.9,1.5-3.3,3.4-4.2,5.6c-0.7,1.6-1,3.4-1,5.1
			c0,0.4,0,0.9,0.1,1.4c0,0,0,0,0,0.1c0.3,2.4,1.2,4.8,2.7,6.7l0,0l12.6,16.5l-6.4,8.4c-0.4,0.4-0.7,0.9-1.1,1.4
			c-1.2,1.8-2,3.9-2.2,6.1c0,0.5-0.1,0.9-0.1,1.4c0,3.8,1.6,7.4,4.4,10c0.7,0.6,1.5,1.2,2.3,1.7c1.1,0.6,2.2,1.1,3.4,1.5
			c1.2,0.3,2.4,0.5,3.7,0.5c2.5,0,4.9-0.7,7.1-2c1.3-0.8,2.4-1.8,3.4-2.9c1,1.1,2.1,2.1,3.4,2.9c2.1,1.3,4.6,2,7.1,2s4.9-0.7,7.1-2
			c1.3-0.8,2.4-1.8,3.4-2.9c1,1.1,2.1,2.1,3.4,2.9c2.1,1.3,4.6,2,7.1,2c1.3,0,2.5-0.2,3.7-0.5s2.3-0.8,3.4-1.5
			c0.8-0.5,1.6-1.1,2.3-1.7c2.8-2.6,4.4-6.2,4.4-10c0-0.5,0-0.9-0.1-1.4c-0.2-2.2-1-4.3-2.2-6.1c-0.3-0.5-0.7-1-1.1-1.4l-6.4-8.4
			l12.6-16.5l0,0c1.5-2,2.4-4.3,2.7-6.7c0,0,0,0,0-0.1c0-0.5,0.1-0.9,0.1-1.4C212.7,80,212.3,78.3,211.7,76.6 M164.6,94.5l4.1-5.4
			l3.6-4.7l3.1,4.1l4.6,6l0.3,0.3l8.9,11.7l-3.7,4.8l-2.7,3.6l-5.9-7.8l-0.5-0.6l-2.8-3.6l-1.3-1.7l-1.3,1.7l-4.4,5.8l-4.8,6.3
			l-2.7-3.6l-3.7-4.8L164.6,94.5L164.6,94.5z M140.2,86.4c-0.1-0.1-0.2-0.3-0.3-0.4c-0.9-1.2-1.3-2.7-1.3-4.2c0-2.2,1-4.3,2.8-5.7
			c0.1-0.1,0.1-0.1,0.2-0.2c1.3-0.9,2.7-1.4,4.3-1.4c2.1,0,4.1,0.9,5.5,2.5c0.2,0.3,0.4,0.5,0.6,0.8l0.1,0.1l8.5,11.2l-9.2,12
			l-2.6-3.5l0,0L140.2,86.4z M152.3,131c-0.3,0-0.6,0.1-0.9,0.1c-2.2,0-4.1-0.9-5.4-2.4c-1.2-1.3-1.9-3-1.9-4.8
			c0-1.4,0.4-2.7,1.1-3.9l6.2-8.1l3.7,4.8l2.4,3.1c0.6,0.9,1,1.9,1.1,2.9l0,0c0,0.4,0,0.7,0,1.1c0,0.4,0,0.7,0,1.1
			C158.1,128.1,155.5,130.7,152.3,131 M172.3,131.1c-3.7,0-6.7-2.7-7.2-6.2c0-0.4,0-0.7,0-1.1c0-0.4,0-0.7-0.1-1.1
			c0.2-1,0.5-1.9,1-2.8l6.2-8.1l6.1,8c0.6,0.9,1,1.9,1.2,3c0,0.3,0,0.7,0,1s0,0.7,0,1C179.1,128.4,176,131.1,172.3,131.1 M199.5,120
			c0.7,1.2,1.1,2.5,1.1,3.9c0,1.9-0.7,3.5-1.9,4.8c-1.3,1.5-3.3,2.4-5.4,2.4c-0.3,0-0.6,0-0.9-0.1c-3.3-0.4-5.9-3-6.4-6.2
			c0-0.3,0-0.7,0-1s0-0.7,0-1v-0.1c0.2-1,0.6-2,1.1-2.9l2.4-3.1l3.7-4.8L199.5,120z M204.9,85.9c-0.1,0.2-0.2,0.3-0.3,0.4L196,97.7
			l0,0l-2.6,3.5l-9.2-12l8.5-11.2l0.1-0.1c0.2-0.3,0.4-0.6,0.6-0.8c1.4-1.6,3.4-2.5,5.5-2.5c1.5,0,3,0.5,4.3,1.4
			c0.1,0.1,0.1,0.1,0.2,0.2c1.8,1.4,2.8,3.5,2.8,5.7C206.2,83.3,205.8,84.7,204.9,85.9"/>
	</g>
	<rect x="47.4" y="155.9" class="st0" width="5.6" height="28"/>
	<path class="st0" d="M56.8,162.9h5.6v1.8l1.4-1.8H68c0.8,0,1.4,0.3,2,1s0.8,1.5,0.8,2.5v17.5h-5.6v-15.7h-2.8v15.7h-5.6
		C56.8,183.9,56.8,162.9,56.8,162.9z"/>
	<path class="st0" d="M75.5,182.8c-0.6-0.7-0.8-1.5-0.8-2.5v-14c0-0.9,0.3-1.8,0.8-2.5c0.6-0.7,1.2-1,2-1h5.6v-7h5.6v28h-5.6v-1.7
		l-1.4,1.7h-4.2C76.7,183.8,76,183.5,75.5,182.8 M83.1,168.1h-2.8v10.5h2.8V168.1z"/>
	<path class="st0" d="M93.4,182.8c-0.6-0.7-0.8-1.5-0.8-2.5v-14c0-0.9,0.3-1.8,0.8-2.5c0.6-0.7,1.2-1,2-1h8.5c0.8,0,1.4,0.3,2,1
		s0.8,1.5,0.8,2.5v14c0,0.9-0.3,1.8-0.8,2.5c-0.6,0.7-1.2,1-2,1h-8.5C94.6,183.8,93.9,183.5,93.4,182.8 M101,168.1h-2.8v10.5h2.8
		V168.1z"/>
	<path class="st0" d="M111.3,182.8c-0.6-0.7-0.8-1.5-0.8-2.5v-14c0-0.9,0.3-1.8,0.8-2.5c0.6-0.7,1.2-1,2-1h8.5c0.8,0,1.4,0.3,2,1
		s0.8,1.5,0.8,2.5v5.2H119V168h-2.8v10.6h2.8v-3.5h5.6v5.2c0,0.9-0.3,1.8-0.8,2.5c-0.6,0.7-1.2,1-2,1h-8.5
		C112.5,183.8,111.8,183.5,111.3,182.8"/>
	<path class="st0" d="M128.3,155.9h5.6v8.7l1.4-1.8h4.2c0.8,0,1.4,0.3,2,1s0.8,1.5,0.8,2.5v17.5h-5.6v-15.7H134v15.7h-5.6
		L128.3,155.9L128.3,155.9z"/>
	<path class="st0" d="M146.2,155.9h5.6v5.2h-5.6V155.9z M146.2,162.9h5.6v21h-5.6V162.9z"/>
	<path class="st0" d="M155.6,162.9h5.6v1.8l1.4-1.8h4.2c0.8,0,1.4,0.3,2,1s0.8,1.5,0.8,2.5v17.5H164v-15.7h-2.8v15.7h-5.6
		L155.6,162.9L155.6,162.9z"/>
	<path class="st0" d="M174.4,182.8c-0.6-0.7-0.8-1.5-0.8-2.5v-14c0-0.9,0.3-1.8,0.8-2.5c0.6-0.7,1.2-1,2-1h8.5c0.8,0,1.4,0.3,2,1
		s0.8,1.5,0.8,2.5v8.7h-8.5v3.5h2.8v-1.8h5.6v3.5c0,0.9-0.3,1.8-0.8,2.5c-0.6,0.7-1.2,1-2,1h-8.5
		C175.6,183.8,174.9,183.5,174.4,182.8 M182,168.1h-2.8v1.7h2.8V168.1z"/>
	<path class="st0" d="M200.8,155.9h9.9c1.2,0,2.2,0.5,3,1.5s1.2,2.3,1.2,3.7v8.7c0,1.5-0.4,2.7-1.2,3.7s-1.8,1.5-3,1.5h-4.2v8.7
		h-5.6L200.8,155.9L200.8,155.9z M209.3,161.1h-2.8v8.7h2.8V161.1z"/>
	<path class="st0" d="M219.6,182.8c-0.6-0.7-0.8-1.5-0.8-2.5v-7c0-0.9,0.3-1.8,0.8-2.5c0.6-0.7,1.2-1,2-1h5.6v-1.7h-8.5v-5.2H230
		c0.8,0,1.4,0.3,2,1s0.8,1.5,0.8,2.5v17.5h-3.5l-0.7-1.7l-1.4,1.7h-5.6C220.8,183.8,220.1,183.5,219.6,182.8 M227.2,175.1h-2.8v3.5
		h2.8V175.1z"/>
	<path class="st0" d="M237.4,182.8c-0.6-0.7-0.8-1.5-0.8-2.5v-24.5h5.6v22.8h1.4v5.2h-4.2C238.7,183.8,238,183.5,237.4,182.8"/>
	<path class="st0" d="M248.3,182.8c-0.6-0.7-0.8-1.5-0.8-2.5v-7c0-0.9,0.3-1.8,0.8-2.5c0.6-0.7,1.2-1,2-1h5.6v-1.7h-8.5v-5.2h11.3
		c0.8,0,1.4,0.3,2,1s0.8,1.5,0.8,2.5v17.5H258l-0.7-1.7l-1.4,1.7h-5.6C249.5,183.8,248.8,183.5,248.3,182.8 M255.9,175.1h-2.8v3.5
		h2.8V175.1z"/>
	<path class="st0" d="M266.2,182.8c-0.6-0.7-0.8-1.5-0.8-2.5v-14c0-0.9,0.3-1.8,0.8-2.5c0.6-0.7,1.2-1,2-1h8.5c0.8,0,1.4,0.3,2,1
		s0.8,1.5,0.8,2.5v5.2h-5.6V168H271v10.6h2.8v-3.5h5.6v5.2c0,0.9-0.3,1.8-0.8,2.5c-0.6,0.7-1.2,1-2,1h-8.5
		C267.4,183.8,266.7,183.5,266.2,182.8"/>
	<path class="st0" d="M284.1,182.8c-0.6-0.7-0.8-1.5-0.8-2.5v-14c0-0.9,0.3-1.8,0.8-2.5c0.6-0.7,1.2-1,2-1h8.5c0.8,0,1.4,0.3,2,1
		s0.8,1.5,0.8,2.5v8.7h-8.5v3.5h2.8v-1.8h5.6v3.5c0,0.9-0.3,1.8-0.8,2.5c-0.6,0.7-1.2,1-2,1H286
		C285.3,183.8,284.6,183.5,284.1,182.8 M291.7,168.1h-2.8v1.7h2.8V168.1z"/>
</g>
</svg>
