<?xml version="1.0" encoding="utf-8"?>
<!-- Generator: Adobe Illustrator 24.1.0, SVG Export Plug-In . SVG Version: 6.00 Build 0)  -->
<svg version="1.1" id="Layer_1" xmlns="http://www.w3.org/2000/svg" xmlns:xlink="http://www.w3.org/1999/xlink" x="0px" y="0px"
	 viewBox="0 0 350 255.1" style="enable-background:new 0 0 350 255.1;" xml:space="preserve">
<style type="text/css">
	.st0{fill:#656868;}
</style>
<g>
	<polygon class="st0" points="67,146.4 67,140.3 67.9,140.3 67.9,145.7 72,145.7 72,146.4 	"/>
	<path class="st0" d="M76.8,146.4c-0.5,0-1-0.1-1.4-0.3s-0.8-0.4-1.1-0.7c-0.3-0.3-0.5-0.6-0.7-1s-0.2-0.7-0.2-1.1
		c0-0.4,0.1-0.8,0.3-1.2c0.2-0.4,0.4-0.7,0.7-1c0.3-0.3,0.7-0.5,1.1-0.7s0.9-0.3,1.4-0.3s1,0.1,1.4,0.3s0.8,0.4,1.1,0.7
		c0.3,0.3,0.5,0.6,0.7,1s0.2,0.7,0.2,1.1c0,0.4-0.1,0.8-0.3,1.2c-0.2,0.4-0.4,0.7-0.7,1c-0.3,0.3-0.7,0.5-1.1,0.7
		S77.3,146.4,76.8,146.4 M74.3,143.3c0,0.3,0.1,0.6,0.2,0.9s0.3,0.5,0.5,0.8c0.2,0.2,0.5,0.4,0.8,0.5s0.6,0.2,1,0.2s0.7-0.1,1-0.2
		c0.3-0.1,0.6-0.3,0.8-0.5c0.2-0.2,0.4-0.5,0.5-0.8s0.2-0.6,0.2-0.9c0-0.3-0.1-0.6-0.2-0.9c-0.1-0.3-0.3-0.5-0.5-0.8
		c-0.2-0.2-0.5-0.4-0.8-0.5s-0.6-0.2-1-0.2s-0.7,0.1-1.1,0.2c-0.3,0.1-0.6,0.3-0.8,0.5c-0.2,0.2-0.4,0.5-0.5,0.8
		C74.4,142.7,74.3,143,74.3,143.3"/>
	<polygon class="st0" points="83.7,141.7 83.7,146.4 82.8,146.4 82.8,140.3 83.5,140.3 88.1,145 88.1,140.3 89,140.3 89,146.4 
		88.2,146.4 	"/>
	<path class="st0" d="M97.2,145.5c-0.6,0.6-1.4,0.9-2.2,0.9c-0.5,0-0.9-0.1-1.4-0.3c-0.4-0.2-0.8-0.4-1.1-0.7
		c-0.3-0.3-0.5-0.6-0.7-1s-0.3-0.7-0.3-1.1c0-0.4,0.1-0.8,0.3-1.2c0.2-0.4,0.4-0.7,0.7-1c0.3-0.3,0.7-0.5,1.1-0.7s0.9-0.2,1.4-0.2
		c0.7,0,1.3,0.1,1.7,0.4c0.5,0.2,0.8,0.6,1,1L97,142c-0.2-0.4-0.5-0.6-0.9-0.8s-0.8-0.3-1.2-0.3c-0.4,0-0.7,0.1-1,0.2
		c-0.3,0.1-0.6,0.3-0.8,0.5c-0.2,0.2-0.4,0.5-0.5,0.8s-0.2,0.6-0.2,0.9c0,0.3,0.1,0.6,0.2,0.9c0.1,0.3,0.3,0.5,0.5,0.8
		c0.2,0.2,0.5,0.4,0.8,0.5s0.6,0.2,1,0.2c0.8,0,1.5-0.3,2.1-1v-0.8h-1.6v-0.6h2.4v3H97v-0.8H97.2z"/>
	<polygon class="st0" points="110.3,140.3 110.3,146.4 109.4,146.4 109.4,143.6 105.3,143.6 105.3,146.4 104.4,146.4 104.4,140.3 
		105.3,140.3 105.3,142.9 109.4,142.9 109.4,140.3 	"/>
	<path class="st0" d="M112.5,146.4l3-6h0.8l3,6h-1l-0.9-1.8h-3.1l-0.9,1.8H112.5z M115.9,141.2l-1.4,2.8h2.7L115.9,141.2z"/>
	<rect x="121.5" y="140.3" class="st0" width="0.9" height="6"/>
	<rect x="132.8" y="140.3" class="st0" width="0.6" height="6"/>
	<polygon class="st0" points="144.1,140.3 146.6,145.4 149,140.3 149.9,140.3 147,146.4 146.2,146.4 143.2,140.3 	"/>
	<rect x="152.1" y="140.3" class="st0" width="0.9" height="6"/>
	<polygon class="st0" points="156.1,146.4 156.1,140.3 157,140.3 157,145.7 161.1,145.7 161.1,146.4 	"/>
	<polygon class="st0" points="163.4,146.4 163.4,140.3 164.3,140.3 164.3,145.7 168.4,145.7 168.4,146.4 	"/>
	<path class="st0" d="M169.9,146.4l3-6h0.8l3,6h-1l-0.9-1.8h-3.1l-0.9,1.8H169.9z M173.3,141.2l-1.4,2.8h2.7L173.3,141.2z"/>
	<path class="st0" d="M183.1,141.6c-0.1-0.1-0.2-0.2-0.3-0.2c-0.1-0.1-0.3-0.1-0.5-0.2c-0.2-0.1-0.4-0.1-0.6-0.1
		c-0.2,0-0.4-0.1-0.6-0.1c-0.6,0-1,0.1-1.3,0.3s-0.4,0.4-0.4,0.7c0,0.2,0,0.3,0.1,0.4c0.1,0.1,0.2,0.2,0.4,0.3s0.4,0.1,0.6,0.2
		c0.2,0.1,0.5,0.1,0.9,0.2c0.4,0.1,0.7,0.1,1,0.2c0.3,0.1,0.6,0.2,0.8,0.3s0.4,0.3,0.5,0.5s0.2,0.4,0.2,0.7s-0.1,0.5-0.2,0.8
		c-0.1,0.2-0.3,0.4-0.6,0.5c-0.2,0.1-0.5,0.2-0.8,0.3s-0.7,0.1-1,0.1c-0.6,0-1.1-0.1-1.6-0.2c-0.5-0.1-1-0.4-1.4-0.6l0.4-0.6
		c0.1,0.1,0.3,0.2,0.4,0.3c0.2,0.1,0.4,0.2,0.6,0.3c0.2,0.1,0.5,0.1,0.7,0.2c0.3,0,0.5,0.1,0.8,0.1c0.5,0,0.9-0.1,1.2-0.2
		c0.3-0.2,0.4-0.4,0.4-0.7c0-0.2,0-0.3-0.1-0.4c-0.1-0.1-0.2-0.2-0.4-0.3s-0.4-0.2-0.7-0.2c-0.3-0.1-0.6-0.1-0.9-0.2
		c-0.4-0.1-0.7-0.2-1-0.2c-0.3-0.1-0.5-0.2-0.7-0.3s-0.3-0.3-0.4-0.4c-0.1-0.2-0.1-0.4-0.1-0.6c0-0.3,0.1-0.5,0.2-0.8
		c0.1-0.2,0.3-0.4,0.5-0.6c0.2-0.2,0.5-0.3,0.8-0.3c0.3-0.1,0.7-0.1,1-0.1c0.5,0,0.9,0.1,1.3,0.2c0.4,0.1,0.7,0.3,1.1,0.5
		L183.1,141.6z"/>
	<path class="st0" d="M195,146.4l-0.8-0.7c-0.3,0.2-0.6,0.4-1,0.5s-0.8,0.2-1.2,0.2c-0.3,0-0.7,0-0.9-0.1c-0.3-0.1-0.5-0.2-0.7-0.4
		c-0.2-0.1-0.4-0.3-0.5-0.5s-0.2-0.4-0.2-0.7c0-0.2,0-0.4,0.1-0.5c0.1-0.2,0.2-0.3,0.3-0.5c0.1-0.1,0.3-0.3,0.5-0.4
		c0.2-0.1,0.4-0.2,0.6-0.4c-0.2-0.2-0.3-0.3-0.4-0.4c-0.1-0.1-0.2-0.2-0.3-0.4c-0.1-0.1-0.1-0.2-0.2-0.3c0-0.1-0.1-0.2-0.1-0.3
		c0-0.2,0-0.4,0.1-0.5c0.1-0.2,0.2-0.3,0.4-0.4c0.2-0.1,0.4-0.2,0.6-0.3c0.2-0.1,0.5-0.1,0.7-0.1s0.5,0,0.7,0.1s0.4,0.1,0.6,0.2
		c0.2,0.1,0.3,0.2,0.4,0.4c0.1,0.2,0.1,0.3,0.1,0.5s0,0.3-0.1,0.5c-0.1,0.1-0.2,0.3-0.3,0.4c-0.1,0.1-0.3,0.2-0.5,0.4
		c-0.2,0.1-0.4,0.2-0.6,0.3l1.9,1.6c0.1-0.2,0.2-0.4,0.3-0.7c0.1-0.2,0.1-0.5,0.1-0.8h0.7c0,0.4-0.1,0.7-0.2,1
		c-0.1,0.3-0.3,0.6-0.5,0.9l1.4,1.2h-1V146.4z M192.2,145.8c0.3,0,0.6-0.1,0.9-0.2c0.3-0.1,0.5-0.2,0.7-0.4l-2.1-1.8
		c-0.3,0.2-0.6,0.4-0.8,0.6c-0.2,0.2-0.3,0.4-0.3,0.7c0,0.2,0,0.3,0.1,0.5c0.1,0.1,0.2,0.2,0.4,0.3c0.1,0.1,0.3,0.2,0.5,0.2
		C191.8,145.8,192,145.8,192.2,145.8 M191.1,141.6c0,0.1,0,0.1,0,0.2c0,0.1,0.1,0.1,0.1,0.2c0.1,0.1,0.1,0.2,0.2,0.3
		c0.1,0.1,0.2,0.2,0.4,0.4c0.4-0.2,0.6-0.4,0.9-0.5c0.2-0.2,0.3-0.4,0.3-0.6c0-0.2-0.1-0.4-0.3-0.5s-0.4-0.2-0.7-0.2
		s-0.6,0.1-0.8,0.2C191.2,141.2,191.1,141.4,191.1,141.6"/>
	<path class="st0" d="M207.9,144.8c0,0.2-0.1,0.4-0.2,0.6c-0.1,0.2-0.3,0.4-0.5,0.5s-0.4,0.2-0.7,0.3s-0.5,0.1-0.8,0.1h-3.5v-6h3.6
		c0.3,0,0.5,0,0.7,0.1s0.4,0.2,0.5,0.4c0.1,0.1,0.3,0.3,0.3,0.5c0.1,0.2,0.1,0.4,0.1,0.6c0,0.3-0.1,0.6-0.3,0.8
		c-0.2,0.3-0.4,0.4-0.8,0.6c0.4,0.1,0.7,0.3,1,0.6C207.7,144.1,207.9,144.4,207.9,144.8 M203.2,141v2h2.3c0.2,0,0.3,0,0.5-0.1
		c0.1-0.1,0.3-0.1,0.4-0.2c0.1-0.1,0.2-0.2,0.2-0.3c0.1-0.1,0.1-0.3,0.1-0.4c0-0.1,0-0.3-0.1-0.4c-0.1-0.1-0.1-0.2-0.2-0.3
		c-0.1-0.1-0.2-0.2-0.3-0.2c-0.1-0.1-0.3-0.1-0.4-0.1H203.2z M206.9,144.7c0-0.1,0-0.3-0.1-0.4c-0.1-0.1-0.1-0.2-0.2-0.3
		c-0.1-0.1-0.2-0.2-0.4-0.2c-0.1-0.1-0.3-0.1-0.5-0.1h-2.6v2.1h2.5c0.2,0,0.3,0,0.5-0.1c0.1-0.1,0.3-0.1,0.4-0.2
		c0.1-0.1,0.2-0.2,0.3-0.3C206.9,144.9,206.9,144.8,206.9,144.7"/>
	<polygon class="st0" points="215.4,145.7 215.4,146.4 210.4,146.4 210.4,140.3 215.3,140.3 215.3,141 211.3,141 211.3,142.9 
		214.8,142.9 214.8,143.6 211.3,143.6 211.3,145.7 	"/>
	<path class="st0" d="M217.2,146.4l3-6h0.8l3,6h-1l-0.9-1.8H219l-0.9,1.8H217.2z M220.5,141.2l-1.4,2.8h2.7L220.5,141.2z"/>
	<path class="st0" d="M225.7,143.3c0-0.4,0.1-0.7,0.2-1.1c0.2-0.4,0.4-0.7,0.7-1s0.7-0.5,1.1-0.7c0.4-0.2,0.9-0.3,1.5-0.3
		c0.7,0,1.2,0.1,1.7,0.4c0.5,0.2,0.8,0.6,1,1l-0.7,0.4c-0.1-0.2-0.2-0.4-0.4-0.5s-0.3-0.2-0.5-0.3s-0.4-0.1-0.6-0.2
		c-0.2,0-0.4-0.1-0.6-0.1c-0.4,0-0.8,0.1-1.1,0.2c-0.3,0.1-0.6,0.3-0.8,0.5s-0.4,0.5-0.5,0.8s-0.2,0.6-0.2,0.8
		c0,0.3,0.1,0.6,0.2,0.9c0.1,0.3,0.3,0.5,0.5,0.8c0.2,0.2,0.5,0.4,0.8,0.5s0.6,0.2,1,0.2c0.2,0,0.4,0,0.6-0.1c0.2,0,0.4-0.1,0.6-0.2
		c0.2-0.1,0.4-0.2,0.5-0.3c0.2-0.1,0.3-0.3,0.4-0.5l0.8,0.3c-0.1,0.2-0.3,0.4-0.5,0.6c-0.2,0.2-0.4,0.3-0.7,0.4
		c-0.3,0.1-0.5,0.2-0.8,0.3s-0.6,0.1-0.9,0.1c-0.5,0-1-0.1-1.4-0.3s-0.8-0.4-1.1-0.7s-0.5-0.6-0.7-1
		C225.8,144.1,225.7,143.7,225.7,143.3"/>
	<polygon class="st0" points="240.3,140.3 240.3,146.4 239.4,146.4 239.4,143.6 235.3,143.6 235.3,146.4 234.4,146.4 234.4,140.3 
		235.3,140.3 235.3,142.9 239.4,142.9 239.4,140.3 	"/>
	<path class="st0" d="M246.6,143.3c0-0.4,0.1-0.7,0.2-1.1c0.2-0.4,0.4-0.7,0.7-1s0.7-0.5,1.1-0.7c0.4-0.2,0.9-0.3,1.5-0.3
		c0.7,0,1.2,0.1,1.7,0.4c0.5,0.2,0.8,0.6,1,1l-0.7,0.4c-0.1-0.2-0.2-0.4-0.4-0.5s-0.3-0.2-0.5-0.3s-0.4-0.1-0.6-0.2
		c-0.2,0-0.4-0.1-0.6-0.1c-0.4,0-0.8,0.1-1.1,0.2c-0.3,0.1-0.6,0.3-0.8,0.5s-0.4,0.5-0.5,0.8s-0.2,0.6-0.2,0.8
		c0,0.3,0.1,0.6,0.2,0.9c0.1,0.3,0.3,0.5,0.5,0.8c0.2,0.2,0.5,0.4,0.8,0.5s0.6,0.2,1,0.2c0.2,0,0.4,0,0.6-0.1c0.2,0,0.4-0.1,0.6-0.2
		c0.2-0.1,0.4-0.2,0.5-0.3c0.2-0.1,0.3-0.3,0.4-0.5l0.8,0.3c-0.1,0.2-0.3,0.4-0.5,0.6c-0.2,0.2-0.4,0.3-0.7,0.4
		c-0.3,0.1-0.5,0.2-0.8,0.3s-0.6,0.1-0.9,0.1c-0.5,0-1-0.1-1.4-0.3s-0.8-0.4-1.1-0.7s-0.5-0.6-0.7-1
		C246.7,144.1,246.6,143.7,246.6,143.3"/>
	<polygon class="st0" points="255.3,146.4 255.3,140.3 256.3,140.3 256.3,145.7 260.3,145.7 260.3,146.4 	"/>
	<path class="st0" d="M265.2,145.7c0.4,0,0.8-0.1,1.1-0.2c0.3-0.1,0.5-0.3,0.7-0.5s0.3-0.5,0.4-0.8s0.1-0.6,0.1-0.9v-3.1h0.9v3.1
		c0,0.4-0.1,0.8-0.2,1.2s-0.3,0.7-0.5,1s-0.6,0.5-1,0.7s-0.9,0.2-1.4,0.2c-0.6,0-1.1-0.1-1.5-0.3s-0.7-0.4-1-0.7
		c-0.2-0.3-0.4-0.6-0.5-1s-0.2-0.7-0.2-1.1v-3.1h0.9v3.1c0,0.3,0,0.6,0.1,0.9c0.1,0.3,0.2,0.5,0.4,0.7c0.2,0.2,0.4,0.4,0.7,0.5
		C264.5,145.6,264.8,145.7,265.2,145.7"/>
	<path class="st0" d="M276.8,144.8c0,0.2-0.1,0.4-0.2,0.6c-0.1,0.2-0.3,0.4-0.5,0.5s-0.4,0.2-0.7,0.3c-0.3,0.1-0.5,0.1-0.8,0.1h-3.5
		v-6h3.6c0.3,0,0.5,0,0.7,0.1s0.4,0.2,0.5,0.4c0.1,0.1,0.3,0.3,0.3,0.5c0.1,0.2,0.1,0.4,0.1,0.6c0,0.3-0.1,0.6-0.3,0.8
		c-0.2,0.3-0.4,0.4-0.8,0.6c0.4,0.1,0.8,0.3,1,0.6C276.7,144.1,276.8,144.4,276.8,144.8 M272.2,141v2h2.3c0.2,0,0.3,0,0.5-0.1
		c0.1-0.1,0.3-0.1,0.4-0.2c0.1-0.1,0.2-0.2,0.2-0.3c0.1-0.1,0.1-0.3,0.1-0.4c0-0.1,0-0.3-0.1-0.4c-0.1-0.1-0.1-0.2-0.2-0.3
		s-0.2-0.2-0.3-0.2c-0.1-0.1-0.3-0.1-0.4-0.1H272.2z M275.9,144.7c0-0.1,0-0.3-0.1-0.4c-0.1-0.1-0.1-0.2-0.2-0.3s-0.2-0.2-0.4-0.2
		c-0.1-0.1-0.3-0.1-0.5-0.1h-2.6v2.1h2.5c0.2,0,0.3,0,0.5-0.1c0.1-0.1,0.3-0.1,0.4-0.2c0.1-0.1,0.2-0.2,0.3-0.3
		C275.9,144.9,275.9,144.8,275.9,144.7"/>
	<path class="st0" d="M130.8,128.2h16.5c0.7,0,1.6-0.1,2.4-0.7c0.7-0.6,0.7-1.8,0.7-2v-6.4c0-2.4-2-4.5-4.4-4.5l0,0h-16.5
		c-2.4,0-4.3,2.1-4.4,4.5l0,0v13.4l0,0c0,2.4,2,4.5,4.4,4.5l0,0H150v-3.9l0,0c0-0.1,0-0.7-0.4-1c-0.3-0.2-0.8-0.2-0.8-0.2h-18V128.2
		z M130.8,119.7h13.1c1,0,1.5,0.8,1.5,1.9c0,1.1-0.5,1.9-1.5,1.9h-13.1V119.7z"/>
	<path class="st0" d="M174,123.5h-16.5c-0.7,0-1.6,0.1-2.4,0.7c-0.7,0.6-0.7,1.8-0.7,2v6.4c0,2.4,2,4.5,4.4,4.5l0,0h16.5
		c2.4,0,4.3-2.1,4.4-4.5l0,0v-13.4l0,0c0-2.4-2-4.5-4.4-4.5l0,0h-20.4v3.9l0,0c0,0.1,0,0.7,0.4,1c0.3,0.2,0.8,0.2,0.8,0.2h18
		L174,123.5z M173.9,132h-13.1c-1,0-1.5-0.8-1.5-1.9c0-1.1,0.5-1.9,1.5-1.9h13.1V132z"/>
	<path class="st0" d="M232.3,123.5h-16.5c-0.7,0-1.6,0.1-2.4,0.7c-0.7,0.6-0.7,1.8-0.7,2v6.4c0,2.4,2,4.5,4.4,4.5l0,0h16.5
		c2.4,0,4.3-2.1,4.4-4.5l0,0v-13.4l0,0c0-2.4-2-4.5-4.4-4.5l0,0h-20.4v3.9l0,0c0,0.1,0,0.7,0.4,1c0.3,0.2,0.8,0.2,0.8,0.2h18
		L232.3,123.5z M232.3,132h-13.1c-1,0-1.5-0.8-1.5-1.9c0-1.1,0.5-1.9,1.5-1.9h13.1V132z"/>
	<path class="st0" d="M251.8,128.8c0,3.1,0,6.6,0,6.9c0,0.2,0,1.4,1.1,1.4h0.2h0.3h4.1v-8.2v-8.5v-0.1c0,0,0-0.7,0.6-0.6h0.1h3.5
		v16.8c0,0.6,0.6,0.6,0.7,0.6h0.1h4.9v-17.9l0,0c0-2.4-2-4.5-4.4-4.5c0,0-16.4,0-16.5,0l0,0c-2.4,0-4.3,2.1-4.4,4.5l0,0v17.9h4.9
		h0.1c0,0,0.7,0,0.6-0.6v-16.8h3.5h0.1c0.6,0,0.6,0.6,0.6,0.6v0.1v3L251.8,128.8z"/>
	<path class="st0" d="M66.8,128.8c0,1.3,0,2.7,0,3.9c0,2.3,2,4.2,4.4,4.3h8.2h8.2c2.4-0.1,4.4-1.9,4.4-4.3v-3.9v-5v-4.6l0,0
		c0-2.4-2-4.5-4.4-4.5h-0.2h-8h-8h-0.2c-2.4,0-4.3,2.1-4.4,4.5l0,0v4.6V128.8z M72.4,120.8c0-0.7,0.5-1.2,1.2-1.2h0.1
		c0.1,0,0.1,0,0.1,0c0.1,0,2.7,0,5.6,0s5.5,0,5.5,0H85h0.1c0.7,0,1.3,0.6,1.3,1.3v9.7c0,0.3-0.1,0.6-0.3,0.8
		c-0.1,0.2-0.3,0.3-0.5,0.4c-0.2,0.1-0.4,0.1-0.6,0.1l0,0c-0.1,0-0.1,0-0.1,0c-0.1,0-2.4,0-2.4,0h-6.3c0,0-2.3,0-2.4,0h-0.1h-0.1
		c-0.7,0-1.3-0.6-1.3-1.3v-9.8H72.4z"/>
	<path class="st0" d="M275.7,114.6h-4.5v5.6l0,0v0.1v3v5.5c0,3.1,0,6.6,0,6.9c0,0.2,0,1.4,1.1,1.4h0.2h0.3h4.1v-8.2v-7.4v-1.1v-0.1
		l0,0v-4.5C276.8,115.1,276.3,114.6,275.7,114.6"/>
	<path class="st0" d="M208.7,119.1c0-2.4-2-4.5-4.4-4.5c0,0-16.4,0-16.5,0l0,0c-2.4,0-4.3,2.1-4.4,4.5l0,0V137h4.9h0.1
		c0,0,0.7,0,0.6-0.6v-16.8h3.4h0.1h0.1l0,0h6.8l0,0h0.1h2.3c0.7,0,1.2,0.6,1.2,1.2v15.6c0,0.6,0.6,0.6,0.6,0.6h0.1h4.9L208.7,119.1
		L208.7,119.1z"/>
	<path class="st0" d="M121.2,135.3v-2.4c0-0.5-0.4-0.9-0.9-0.9h-5.2l0,0c-2.5,0-11.9,0-12,0c-0.2,0-1.4,0-1.4-1.1v-0.2v-1.3v-1v-5.5
		v-1v-1.3v-0.2c0-1.1,1.1-1.1,1.4-1.1c0.1,0,9.6,0,12,0l0,0h5.2c0.5,0,0.9-0.4,0.9-0.9V116c0-0.9-0.7-1.6-1.6-1.7h-12h-7h-0.1
		c-1.2,0-2.2,0.5-3,1.2c-0.9,0.8-1.4,2-1.4,3.3l0,0v6.7v6.7l0,0c0,1.3,0.6,2.5,1.4,3.3c0.8,0.7,1.9,1.2,3,1.2h0.1h7h12
		C120.5,136.9,121.2,136.2,121.2,135.3"/>
</g>
</svg>
