<?xml version="1.0" encoding="utf-8"?>
<!-- Generator: Adobe Illustrator 24.1.0, SVG Export Plug-In . SVG Version: 6.00 Build 0)  -->
<svg version="1.1" id="Layer_1" xmlns="http://www.w3.org/2000/svg" xmlns:xlink="http://www.w3.org/1999/xlink" x="0px" y="0px"
	 viewBox="0 0 350 255.1" style="enable-background:new 0 0 350 255.1;" xml:space="preserve">
<style type="text/css">
	.st0{fill:#656868;}
</style>
<g>
	<g>
		<path class="st0" d="M147.2,103.7h-0.1c-0.3-0.1-0.4-0.3-0.4-0.6c0.3-3.2,0.6-5.9-5-14c-4.9-7.1-6.6-13.2-5.1-18.6
			c1.6-5.9,6.9-11.1,16-15.4c0.2-0.1,0.6,0,0.7,0.2c0.2,0.2,0.1,0.5-0.1,0.7c-0.2,0.1-15.1,12.9-8.6,25.7c5,9.7,5.9,15.8,3.2,21.7
			C147.6,103.6,147.4,103.7,147.2,103.7z M149.8,57.7c-6.8,3.8-10.9,8.2-12.2,13c-1.4,5.1,0.3,10.9,5,17.7c3.7,5.4,4.9,8.6,5.2,11
			c0.9-4.6-0.4-9.8-4.3-17.3C138.4,72.2,145.6,62.3,149.8,57.7z"/>
		<path class="st0" d="M145.3,102.4c-0.2,0-0.5-0.2-0.5-0.4c-0.2-0.7-0.3-1.3-0.4-1.9c-0.5-2.8-0.8-4.6-9.7-9.4
			c-5.5-3-6.7-6.9-6.7-9.6c0-4.4,3.1-8.3,6-10c0.2-0.1,0.5-0.1,0.7,0.1s0.2,0.4,0.1,0.7c-0.2,0.3-4.1,7.3,2.6,13.9
			c7.3,7.2,9.1,10.7,8.4,16.1C145.8,102.1,145.6,102.3,145.3,102.4L145.3,102.4z M133.1,73.1c-2.1,1.8-4,4.8-4,8
			c0,3.4,2.1,6.4,6.1,8.6c5.6,3.1,8,5.1,9.1,6.8c-1-2.7-3.3-5.6-7.7-9.9C131.4,81.4,132.2,75.9,133.1,73.1z"/>
		<path class="st0" d="M209.3,106.9c-0.1,0-0.2,0-0.3-0.1c-0.3-0.1-0.4-0.4-0.3-0.7c2-5.1,4.8-6.8,12.3-11
			c7.1-3.9,5.1-12.9,5.1-12.9c-0.1-0.3,0.1-0.5,0.3-0.6s0.5,0,0.7,0.2c1.8,2.6,2.9,7.4,1.4,11.3c-1.2,3.3-4,5.5-8,6.5
			c-6.6,1.6-9.1,4.5-10.8,7.1C209.7,106.8,209.5,106.9,209.3,106.9z M227.6,85.1c0,3.3-0.9,8.3-5.9,11c-4.1,2.2-6.7,3.8-8.5,5.5
			c1.7-1.2,4-2.2,7.2-3c3.7-0.9,6.1-2.9,7.2-5.8C228.5,90.2,228.3,87.4,227.6,85.1z"/>
		<path class="st0" d="M123.7,97.9L123.7,97.9c-0.3,0-0.5-0.2-0.5-0.5c-0.5-3.7,1.2-9.9,3.9-13.5c0.1-0.2,0.4-0.3,0.6-0.2
			c0.2,0.1,0.4,0.3,0.4,0.5s-0.1,5.6,8.1,8c0.3,0.1,0.4,0.4,0.4,0.6c-0.1,0.3-0.3,0.5-0.6,0.4c-1.2-0.1-2.6-0.2-3.9-0.2
			c-4.2,0-6.5,1.3-7.7,4.5C124.1,97.8,123.9,97.9,123.7,97.9z M127.1,85.8c-1.6,2.8-2.8,6.5-2.9,9.5c2-2.9,5.1-3.3,7.8-3.3
			c0.2,0,0.3,0,0.5,0C128.7,90.1,127.5,87.5,127.1,85.8z"/>
		<path class="st0" d="M207.9,138.9L207.9,138.9c-3,0-6.2-0.6-9.6-1.7c-7.1-2.4-24.2-16.5-40.4-40.5c0.4,5,0.4,16.3-6.5,22.1
			c-5.4,4.5-11.7,5-14.2,5c-0.7,0-1.3,0-1.6-0.1c-1-0.1-2.9-0.9-4.3-1.6c-0.6-0.3-2.1-1.1-2.8-1.7c-0.9-0.8-1.9-1.9-2.3-2.5
			c-0.7-1.1-1.3-2.4-1.8-3.7c-1.1-2.8-2.2-9.3,1.3-14.2c1.5-2.1,4-4.9,7.2-5.7c3.3-0.9,5.5-0.5,7.8,1.1c1.4,1,2.8,3.4,2.6,5.9
			c-0.1,1.4-0.7,3.3-3.1,4.6c-1.7,1-4,0.6-5.4-0.8c-1.1-1.1-1.4-2.4-0.8-3.8c0.5-1.2,1.6-2.2,2.7-2.4c-0.1-0.2-0.3-0.4-0.8-0.5
			c-1.5-0.4-5.1,1.1-6.1,6c-0.6,2.8,0,5.5,1.5,7.4c2.2,2.7,6,3.3,10.3,1.5c7.5-3.1,9.8-12.8,8.8-20.5c-0.4-2.9-0.8-5.8-1.3-8.5
			c-0.8-4.9-1.4-9.1-1.3-11.2c1.3-17.7,15.9-24,28-24c1.2,0,2.5,0.1,3.7,0.2c0.2,0,0.4,0.2,0.5,0.5c0,0.2-0.1,0.5-0.3,0.6
			c-5.6,2.5-12.3,8.3-14.4,15.7c-1.7,5.9-0.4,12,3.8,18.1c1,1.5,2,3,3,4.4c5.6,8.3,10.4,15.6,19.9,23.9c0.2,0.2,0.5,0.4,0.7,0.7
			c3.2,2.8,10.6,9.5,17.3,9.5c1.2,0,2.3-0.2,3.4-0.7c4.2-1.8,6.3-4.1,6.5-7.1c0.1-1-0.3-2.1-1.1-2.9c-0.9-0.9-2.1-1.5-3.2-1.5
			c-0.6,0-1.3,0.2-1.8,0.7c0.7,0,1.4,0.5,1.8,1.2c0.4,0.7,0.5,1.6,0.2,2.2c-0.8,1.4-1.9,2.2-3.2,2.2s-2.6-0.9-3.5-2.4
			c-0.1-0.1-1.2-2.1-0.4-4.4c0.7-2.1,2.6-3.7,5.6-5c0.8-0.3,1.7-0.5,2.6-0.5c3.9,0,8.5,2.7,10,5.9c2.1,4.5,4,11.7-3.7,21.3
			C219.1,136.5,214.1,138.9,207.9,138.9z M157.2,94c0.2,0,0.4,0.1,0.5,0.2c16.5,24.9,33.9,39.5,41.1,41.9c10,3.3,18,1.6,23.3-5.1
			c7.3-9,5.7-15.5,3.6-20.2c-1.3-2.8-5.5-5.3-9-5.3c-0.8,0-1.6,0.1-2.2,0.4c-2.7,1.1-4.4,2.6-4.9,4.3c-0.6,1.9,0.3,3.5,0.3,3.6
			c0.7,1.2,1.6,1.9,2.5,1.9s1.7-0.6,2.2-1.6c0.1-0.3,0.1-0.7-0.2-1.1c-0.3-0.5-1-1-1.7-0.4c-0.2,0.2-0.5,0.2-0.7,0
			c-0.2-0.1-0.3-0.4-0.2-0.6c0.6-1.7,1.8-2.7,3.5-2.7c1.4,0,3,0.7,4,1.9c1,1.1,1.5,2.4,1.4,3.8c-0.3,5.1-5.5,7.3-7.2,8.1
			c-1.2,0.5-2.5,0.8-3.8,0.8c-7.1,0-14.8-6.9-18-9.8c-0.3-0.3-0.5-0.5-0.7-0.7c-9.6-8.4-14.7-16-20.1-24.1c-1-1.4-2-2.9-3-4.4
			c-4.4-6.4-5.7-12.8-3.9-19c2.1-7.4,8.1-12.7,13.2-15.5c-0.5,0-1,0-1.5,0c-11.6,0-25.6,6-26.9,23c-0.1,2,0.5,6.1,1.3,10.9
			c0.4,2.7,0.9,5.7,1.3,8.6c1.1,8.4-1.4,18.4-9.5,21.7c-4.7,1.9-9.1,1.2-11.6-1.9c-1.8-2.2-2.4-5.2-1.7-8.3c1.1-5,4.7-6.9,6.7-6.9
			c0.3,0,0.6,0,0.8,0.1c1.6,0.4,1.7,1.6,1.7,2.2c0,0.2-0.1,0.3-0.2,0.4c-0.1,0.1-0.3,0.1-0.5,0.1H137c-0.6,0-1.6,0.7-2,1.7
			c-0.3,0.6-0.4,1.6,0.6,2.6c1.1,1.1,2.8,1.4,4.1,0.7c1.6-0.9,2.4-2.2,2.5-3.7c0.1-2-1-4.1-2.2-5c-2-1.4-3.9-1.7-6.9-0.9
			c-2.8,0.7-5.1,3.3-6.6,5.3c-3,4.2-2.4,10.2-1.2,13.2c0.5,1.2,1.1,2.5,1.7,3.5c0.3,0.4,1.1,1.4,2.1,2.3c0.4,0.3,1.3,0.9,2.5,1.5
			c1.6,0.8,3.2,1.4,3.9,1.5c0.2,0,0.7,0.1,1.5,0.1c2.3,0,8.4-0.5,13.5-4.7c8.5-7.1,5.9-23.2,5.9-23.3c0-0.3,0.1-0.5,0.3-0.6
			C157,94,157.1,94,157.2,94z"/>
		<path class="st0" d="M167.4,155.5L167.4,155.5c-9.1-0.8-15.3-4.5-17.5-10.6c-2.2-5.9,0-12.5,3.2-15.9c6.2-6.4,8-17,5.8-22.9
			c-0.1-0.2,0-0.4,0.1-0.6c0.2-0.2,0.4-0.2,0.6-0.1c1.4,0.6,6.2,3,8.1,8.6c1.7,5,0.5,11.2-3.5,18.2c-3.4,5.9-4.4,11-3,15.2
			c1.6,4.7,5.7,6.8,6.2,7c0.2,0.1,0.4,0.3,0.4,0.5C168,155.3,167.7,155.5,167.4,155.5L167.4,155.5z M160.4,107
			c1.7,6.3-0.2,16.4-6.4,22.8c-3,3.1-5,9.2-3,14.7c1.4,3.6,4.9,8.1,14,9.6c-1.6-1.2-3.6-3.2-4.7-6.3c-1.5-4.5-0.5-10,3.1-16.1
			c3.9-6.7,5-12.5,3.4-17.3C165.4,110.3,162.2,108,160.4,107z"/>
		<path class="st0" d="M208.3,119.9c-1,0-2.1-0.1-3-0.3c-6-1.4-10.6-6.4-11.8-12.6c-1.3-6.6,1.5-13,7.3-17.1
			c12.9-9,16.2-12.6,16.6-23.2c0-0.2,0.2-0.4,0.4-0.5s0.5,0,0.6,0.2c0.2,0.3,0.4,0.6,0.6,0.9c3.1,4.7,11.5,17.3-6.6,31.6
			c-6.6,5.3-8,9.4-8,11.9c0,2,0.9,3.9,2.6,5.2c2.2,1.7,5.9,1.4,6,1.4c0.2,0,0.5,0.1,0.6,0.3s0,0.5-0.1,0.6
			C212.1,119.7,209.6,119.9,208.3,119.9z M218.5,68.4c-0.8,9.7-4.6,13.8-17,22.4c-5.5,3.8-8.1,9.8-6.9,16c1.1,5.8,5.4,10.5,11,11.8
			c1.7,0.4,3.9,0.4,5.4,0c-1.4-0.1-3.2-0.5-4.5-1.6c-1.9-1.5-3-3.6-3-6c0-2.8,1.4-7.3,8.4-12.8C228.6,84.8,221.7,73.2,218.5,68.4z"
			/>
		<path class="st0" d="M148.2,148.1c-0.1,0-0.1,0-0.2,0c-5-1.6-7.9-4.4-8-7.8c-0.1-4.3,3.2-7.4,9.6-9c0.2-0.1,0.5,0.1,0.6,0.3
			s0.1,0.5-0.1,0.7c-7.9,6.7-1.8,14.6-1.5,14.9c0.2,0.2,0.2,0.5,0,0.7C148.5,148,148.3,148.1,148.2,148.1z M147.8,133
			c-3.5,1.2-6.8,3.3-6.7,7.3c0.1,3.2,3.2,5.2,5.7,6.2C145.4,143.9,143.2,138.3,147.8,133z"/>
		<path class="st0" d="M177,157.1L177,157.1c-6.3-0.7-10.3-3.3-12.2-7.9c-0.6-1.4-2-5-0.3-10.5c0.5-1.6,1.4-3,2.3-4.4
			c1.3-2.1,2.7-4.2,3.2-7.1c1-5.8-0.4-9.2-0.4-9.3c-0.1-0.2,0-0.5,0.2-0.7c0.2-0.1,0.5-0.1,0.7,0c0.1,0.1,9.2,7.8,5.9,18.8
			c-4,13.5-3.9,16.1,0.8,20c0.2,0.1,0.3,0.3,0.3,0.5C177.6,156.8,177.4,157.1,177,157.1L177,157.1z M171.3,119.5
			c0.3,1.7,0.5,4.4-0.1,7.9c-0.5,3.2-2,5.5-3.3,7.5c-0.9,1.4-1.7,2.7-2.2,4.2c-1.6,5-0.3,8.3,0.2,9.7c1.6,3.8,4.6,6.1,9.4,7
			c-4.1-4-3.5-8,0.1-20C177.7,128,173.6,122.1,171.3,119.5z"/>
		<path class="st0" d="M183.9,157c-0.1,0-0.2,0-0.3-0.1c-5.4-3.8-7.5-8.5-6-13.6l0.1-0.3c1.5-5,3.1-10.6-0.4-15.9
			c-0.1-0.2-0.1-0.5,0.1-0.7c0.2-0.2,0.4-0.2,0.7-0.1c0.1,0,9.2,5.1,7.7,16.1c-0.2,1.2-0.5,2.4-0.7,3.5c-1,4.6-1.9,8.6-0.7,10
			c0.1,0.1,0.2,0.3,0.2,0.5C184.5,156.8,184.3,157,183.9,157L183.9,157z M179.4,128.7c2.2,5,0.7,10.1-0.7,14.6l-0.1,0.3
			c-1.5,5,1.1,8.7,4,11.2c-0.3-2.1,0.4-5.2,1.2-9c0.2-1.1,0.5-2.3,0.7-3.5C185.6,135.2,181.9,130.7,179.4,128.7z"/>
		<path class="st0" d="M188.9,93.6c-5,0-9.4-3.8-11-7.3c-2.1-4.6-6.3-10-10.6-11c-0.2-0.1-0.4-0.2-0.4-0.5c0-0.2,0.1-0.4,0.3-0.6
			c0.7-0.4,2.6-1.3,5.1-1.3c3.2,0,7.8,1.5,11.9,8.5c3.3,5.8,7.1,7,9.7,7c2.2,0,3.8-0.8,3.8-0.9c0.2-0.1,0.5-0.1,0.7,0.1
			s0.2,0.5,0,0.7C195.5,91.8,192.3,93.6,188.9,93.6z M168.8,74.6c4.1,1.8,7.9,6.7,10,11.2c1.3,2.8,5.2,6.7,10,6.7
			c2.6,0,4.9-1.1,7.1-3.3c-0.6,0.1-1.4,0.3-2.2,0.3c-2.9,0-7.1-1.3-10.7-7.5c-3.8-6.5-8-7.9-10.9-7.9
			C170.8,74,169.7,74.3,168.8,74.6z"/>
		<path class="st0" d="M199,83.5c-1.8,0-3.6-0.4-5.4-1.3c-4.6-2.2-7.2-4.9-9.6-7.2c-1.8-1.8-3.5-3.5-5.9-4.8c-3.3-1.8-6.2-2.2-8-2.2
			c-1.1,0-1.7,0.1-1.7,0.1c-0.3,0.1-0.5-0.1-0.6-0.3c-0.1-0.2,0-0.5,0.2-0.7c0.3-0.2,6.9-4.6,14.5-4.6c4.2,0,7.8,1.3,10.8,4
			c8.4,7.4,14.9,9.3,19.1,5.5c0.2-0.2,0.5-0.2,0.7,0s0.3,0.5,0.1,0.7C209.3,79.7,204.3,83.5,199,83.5z M170.7,66.9
			c2,0.1,4.9,0.5,8.1,2.3c2.5,1.4,4.3,3.2,6.1,5c2.3,2.4,4.8,4.8,9.2,7c1.6,0.8,3.3,1.2,4.9,1.2c5.4,0,9.5-4.4,11.9-8.1
			c-4.5,2.1-10.8-0.2-18.4-7c-2.8-2.5-6.2-3.7-10.1-3.7C177.7,63.6,173.2,65.6,170.7,66.9z"/>
		<path class="st0" d="M208.1,68c-1.9,0-3.7-0.6-5.4-1.8l-0.9-0.7c-3.4-2.5-7.3-5.3-13.1-5.3h-0.2c-0.2,0-0.5-0.1-0.5-0.4
			c-0.1-0.2,0-0.5,0.2-0.6c0.1-0.1,2.8-2,7.5-2c2.9,0,5.9,0.7,8.9,2.2c0.9,0.5,1.8,1.1,2.6,1.6c3.5,2.1,6.5,3.9,7.8,3.4
			c0.3-0.1,0.6,0,0.7,0.2c0.1,0.2,0.1,0.6-0.2,0.7C212.9,67.1,210.5,68,208.1,68z M190.6,59.3c5.2,0.5,8.9,3.2,11.9,5.4l0.9,0.6
			c2.9,2.1,6.3,2.1,9.9,0.1c-1.7-0.4-4-1.8-6.7-3.5c-0.8-0.5-1.7-1-2.5-1.5c-2.8-1.4-5.7-2.1-8.4-2.1
			C193.5,58.4,191.8,58.8,190.6,59.3z"/>
		<path class="st0" d="M135.1,138.6c-0.2,0-0.3-0.1-0.4-0.2c-0.1-0.1-2.3-3.3-1.1-6.8c1-2.9,4.1-5.1,9.1-6.5
			c6.9-2.1,10.6-3.4,14.3-10.3c0.1-0.3,0.4-0.4,0.7-0.3c0.3,0.1,0.4,0.4,0.3,0.7c-2,7.2-5,14.1-12.6,16.4L144,132
			c-5.7,1.7-7.4,2.2-8.2,6.1c0,0.2-0.2,0.4-0.4,0.4C135.2,138.6,135.1,138.6,135.1,138.6z M155.5,119.1c-3.2,4.1-7,5.5-12.6,7.1
			c-4.7,1.3-7.5,3.2-8.4,5.7c-0.6,1.8-0.1,3.5,0.4,4.6c1.2-3.4,3.6-4.1,8.6-5.6l1.4-0.4C149.8,129.1,153,125.7,155.5,119.1z"/>
		<path class="st0" d="M130.6,129.4c-1.1,0-1.9-0.8-2.5-2.3c-1-2.6-0.9-3.4-0.6-3.7c0.2-0.2,0.5-0.4,0.7-0.3c0.1,0,0.2,0.1,0.2,0.1
			s2.9,2.9,5.6,2.9c0.2,0,0.4,0,0.7-0.1s0.5,0.1,0.6,0.3s0,0.5-0.2,0.7c-0.3,0.2-0.7,0.4-1,0.6C132.8,128.6,131.7,129.4,130.6,129.4
			z M128.5,124.7c0.1,0.4,0.3,1.1,0.6,2c0.6,1.6,1.2,1.6,1.4,1.6c0.6,0,1.5-0.5,2.5-1.2C131.2,126.7,129.5,125.5,128.5,124.7z"/>
		<path class="st0" d="M199.9,148h-0.3c-10.6-0.2-11.4-12.2-11.4-12.3c0-0.2,0.1-0.3,0.2-0.4c0.1-0.1,0.3-0.2,0.5-0.1
			c0.1,0,2.5,0.4,4.8,3.3c1.6,2,2.8,3,6.5,4.5c1.2,0.5,2.7,0.7,4.3,0.7c3.8,0,7.7-1.5,10.5-4.1c0.2-0.2,0.5-0.2,0.8,0
			c0.2,0.2,0.2,0.5,0,0.8C215.4,140.6,208.9,148,199.9,148z M189.4,136.4c0.3,2.6,2,10.3,10.2,10.5h0.2c3.8,0,7.1-1.4,9.7-3
			c-3.2,1.1-7,1.1-9.8,0c-3.9-1.5-5.3-2.7-7-4.8C191.5,137.5,190.2,136.7,189.4,136.4z"/>
		<path class="st0" d="M193.4,153.7c-1.7,0-3.2-0.6-4.2-1.7c-1.4-1.6-1.9-4.2-1.6-7.7c0-0.3,0.2-0.5,0.5-0.5c0.2,0,0.5,0.1,0.6,0.4
			c0,0.1,2.5,6.8,8.6,6.8c0.5,0,1,0,1.6-0.1c0.3,0,0.5,0.1,0.6,0.3s0,0.5-0.2,0.7C197.9,152.7,195.6,153.7,193.4,153.7z
			 M188.6,146.5c0,2.2,0.5,3.8,1.4,4.8c0.8,0.9,1.9,1.3,3.3,1.3c1.1,0,2.1-0.2,3.1-0.6C192.3,151.6,189.9,148.6,188.6,146.5z"/>
		<path class="st0" d="M229.4,112.5L229.4,112.5c-0.3,0-0.5-0.2-0.5-0.5c-0.6-4.8-2-7-9.1-7.9c-0.3,0-0.5-0.2-0.5-0.5
			s0.2-0.5,0.4-0.6c0.1,0,8.8-2.5,9.1-7.5c0-0.3,0.2-0.5,0.5-0.5s0.5,0.2,0.6,0.4l0.3,1.2c1.3,5.5,1.8,8-0.3,15.4
			C229.9,112.3,229.7,112.5,229.4,112.5z M222.1,103.4c4.7,1,6.6,2.9,7.4,6c1.2-5,0.8-7.5-0.2-11.6
			C227.9,100.7,224.4,102.5,222.1,103.4z"/>
		<path class="st0" d="M176.9,60.3c-1.6,0-2.8-0.6-3.4-1.8c-0.1-0.2-0.1-0.5,0.1-0.6c0.3-0.3,6.4-6.4,16.2-6.4
			c4.9,0,9.8,1.5,14.7,4.6c0.2,0.1,0.3,0.5,0.2,0.7c-0.1,0.3-0.4,0.4-0.7,0.3c-2.9-1-6.4-2.1-10.4-2.1c-4.5,0-8.9,1.4-13.4,4.4
			C179.4,60,178.1,60.3,176.9,60.3z M174.8,58.4c0.6,0.7,1.5,0.9,2.2,0.9c1.1,0,2.1-0.4,2.7-0.8c4.7-3.1,9.3-4.6,14-4.6
			c1.8,0,3.6,0.2,5.2,0.6c-3-1.2-6-1.8-9-1.8C181.7,52.6,176.1,57.1,174.8,58.4z"/>
		<path class="st0" d="M189.7,103.9c-0.1,0-0.1,0-0.2,0c-3.8-1.4-6.5-5.3-8.4-8.5c-0.1-0.2-0.1-0.5,0.1-0.7c0.2-0.2,0.5-0.2,0.7,0
			c0,0,3.3,2.7,7,2.7c0.9,0,1.7-0.1,2.5-0.4c0.2-0.1,0.5,0,0.7,0.2c0.1,0.2,0.1,0.5-0.1,0.7c-1.7,1.6-2.3,3.3-1.7,5.2
			c0.1,0.1,0.1,0.2,0.1,0.3C190.3,103.6,190,103.9,189.7,103.9L189.7,103.9z M183.4,96.9c1.5,2.2,3.3,4.3,5.6,5.5
			c-0.2-1.4,0.2-2.8,1-4c-0.4,0-0.7,0.1-1.1,0.1C186.7,98.4,184.8,97.7,183.4,96.9z"/>
	</g>
	<g>
		<g>
			<path class="st0" d="M116.3,168.6l-2.8,0.1c-1.1,0-1.5,0.1-1.8,0.5c-0.2,0.3-0.3,0.5-0.3,0.7c0,0.1-0.1,0.2-0.2,0.2
				s-0.2-0.1-0.2-0.3c0-0.3,0.4-2,0.4-2.1c0.1-0.2,0.1-0.4,0.2-0.4c0.2,0,0.3,0.2,0.8,0.2c0.5,0.1,1.3,0.1,1.9,0.1h7.4
				c0.6,0,1-0.1,1.3-0.1c0.3-0.1,0.4-0.1,0.5-0.1s0.1,0.1,0.1,0.4c0,0.4-0.1,1.7-0.1,2.2c0,0.2-0.1,0.3-0.2,0.3s-0.2-0.1-0.2-0.4
				v-0.2c0-0.5-0.5-1-2.2-1l-2.4-0.1v7.7c0,1.7,0,3.2,0.1,4c0.1,0.5,0.2,0.9,0.7,1c0.3,0,0.7,0.1,1,0.1c0.2,0,0.3,0.1,0.3,0.1
				c0,0.1-0.1,0.2-0.4,0.2c-1.2,0-2.4-0.1-2.9-0.1c-0.4,0-1.6,0.1-2.4,0.1c-0.2,0-0.4-0.1-0.4-0.2c0-0.1,0.1-0.1,0.3-0.1
				c0.3,0,0.5,0,0.7-0.1c0.4-0.1,0.5-0.5,0.5-1c0.1-0.8,0.1-2.3,0.1-4v-7.7H116.3z"/>
			<path class="st0" d="M135.3,174.9c0,0,0.1,0,0.1-0.1v-0.3c0-2.4,0-3,0-3.5s-0.2-0.7-0.7-0.9c-0.1,0-0.4-0.1-0.6-0.1
				c-0.2,0-0.3-0.1-0.3-0.2c0-0.1,0.1-0.1,0.4-0.1c0.9,0,2,0,2.5,0c0.4,0,1.5,0,2.1,0c0.2,0,0.4,0,0.4,0.1s-0.1,0.2-0.3,0.2
				c-0.1,0-0.3,0-0.5,0.1c-0.4,0.1-0.6,0.3-0.6,0.9c0,0.5,0,1,0,3.4v2.8c0,1.5,0,2.7,0.1,3.4c0.1,0.4,0.1,0.7,0.7,0.8
				c0.2,0,0.6,0.1,0.8,0.1s0.3,0.1,0.3,0.2c0,0.1-0.1,0.2-0.3,0.2c-1.1,0-2.1-0.1-2.6-0.1c-0.4,0-1.5,0.1-2.2,0.1
				c-0.2,0-0.4-0.1-0.4-0.2c0-0.1,0.1-0.2,0.3-0.2c0.3,0,0.4,0,0.6-0.1c0.3-0.1,0.4-0.4,0.5-0.8c0.1-0.7,0.1-1.9,0.1-3.3v-1.2
				c0-0.1-0.1-0.1-0.1-0.1h-6.2c-0.1,0-0.1,0-0.1,0.1v1.2c0,1.5,0,2.7,0.1,3.4c0.1,0.4,0.2,0.7,0.6,0.8c0.2,0,0.6,0.1,0.8,0.1
				s0.3,0.1,0.3,0.2c0,0.1-0.1,0.2-0.3,0.2c-1.1,0-2.2-0.1-2.7-0.1c-0.4,0-1.5,0.1-2.1,0.1c-0.2,0-0.3-0.1-0.3-0.2
				c0-0.1,0.1-0.2,0.3-0.2c0.2,0,0.4,0,0.6-0.1c0.3-0.1,0.4-0.4,0.5-0.8c0.1-0.7,0.1-1.9,0.1-3.4v-2.8c0-2.4,0-2.9,0-3.4
				s-0.2-0.7-0.7-0.9c-0.1,0-0.4-0.1-0.7-0.1c-0.2,0-0.3-0.1-0.3-0.2c0-0.1,0.1-0.1,0.4-0.1c0.9,0,2,0,2.4,0s1.5,0,2.2,0
				c0.2,0,0.3,0,0.3,0.1s-0.1,0.2-0.3,0.2c-0.1,0-0.3,0-0.5,0.1c-0.4,0.1-0.6,0.3-0.6,0.9c0,0.5,0,1.1,0,3.5v0.3
				c0,0.1,0.1,0.1,0.1,0.1L135.3,174.9L135.3,174.9z"/>
			<path class="st0" d="M142.9,174.3c0-2.4,0-2.9,0-3.4s-0.2-0.7-0.7-0.9c-0.1,0-0.4-0.1-0.7-0.1c-0.2,0-0.3-0.1-0.3-0.2
				c0-0.1,0.1-0.1,0.4-0.1c0.9,0,1.9,0,2.4,0s4.2,0,4.5,0s0.6-0.1,0.7-0.1c0.1,0,0.2-0.1,0.3-0.1s0.1,0.1,0.1,0.2
				c0,0.1-0.1,0.3-0.1,1c0,0.2-0.1,0.9-0.1,1s-0.1,0.3-0.2,0.3c-0.1,0-0.1-0.1-0.1-0.2c0-0.1,0-0.4-0.1-0.6
				c-0.1-0.3-0.3-0.5-1.1-0.6c-0.3,0-2.2-0.1-2.6-0.1c-0.1,0-0.1,0.1-0.1,0.1v3.9c0,0.1,0,0.2,0.1,0.2c0.4,0,2.5,0,2.9,0
				s0.6-0.1,0.8-0.2c0.1-0.1,0.2-0.2,0.3-0.2s0.1,0.1,0.1,0.2c0,0.1,0,0.4-0.1,1.2c0,0.3-0.1,1-0.1,1.1s0,0.4-0.2,0.4
				c-0.1,0-0.2-0.1-0.2-0.1c0-0.2,0-0.4-0.1-0.6c-0.1-0.3-0.3-0.6-0.9-0.6c-0.3,0-2.2-0.1-2.6-0.1c-0.1,0-0.1,0.1-0.1,0.2v1.3
				c0,0.5,0,1.9,0,2.4c0,1.1,0.5,1.3,2.2,1.3c0.4,0,1.1,0,1.6-0.2c0.4-0.2,0.6-0.5,0.7-1.2c0-0.2,0.1-0.2,0.2-0.2
				c0.1,0,0.2,0.2,0.2,0.4c0,0.4-0.1,1.4-0.2,1.8c-0.1,0.4-0.3,0.4-0.9,0.4c-1.2,0-2.2,0-3-0.1c-0.8,0-1.4,0-1.9,0
				c-0.2,0-0.5,0-0.9,0s-0.8,0-1.1,0c-0.2,0-0.3-0.1-0.3-0.2c0-0.1,0.1-0.2,0.3-0.2s0.4,0,0.6-0.1c0.3-0.1,0.4-0.4,0.5-0.8
				c0.1-0.7,0.1-1.9,0.1-3.4v-2.8H142.9z"/>
			<path class="st0" d="M160.4,176.9c-0.1,0-0.1,0-0.2,0.2l-1,2.6c-0.2,0.5-0.3,0.9-0.3,1.1c0,0.3,0.2,0.6,0.7,0.6h0.3
				c0.2,0,0.3,0,0.3,0.1c0,0.2-0.1,0.2-0.3,0.2c-0.6,0-1.4-0.1-2-0.1c-0.2,0-1.2,0.1-2.2,0.1c-0.2,0-0.4,0-0.4-0.2
				c0-0.1,0.1-0.1,0.2-0.1c0.2,0,0.4,0,0.6,0c0.9-0.1,1.2-0.7,1.6-1.7l4.7-11.6c0.2-0.5,0.3-0.7,0.5-0.7s0.3,0.2,0.5,0.6
				c0.4,1,3.4,8.5,4.6,11.4c0.7,1.7,1.3,1.9,1.6,2s0.6,0.1,0.8,0.1c0.1,0,0.2,0,0.2,0.1c0,0.2-0.2,0.2-0.9,0.2s-2,0-3.5,0
				c-0.3,0-0.6,0-0.6-0.2c0-0.1,0.1-0.1,0.3-0.2c0.1,0,0.3-0.2,0.2-0.4l-1.5-3.9c0-0.1-0.1-0.1-0.2-0.1h-4V176.9z M164.3,176
				c0.1,0,0.1-0.1,0.1-0.1l-1.7-4.6c0-0.1,0-0.2-0.1-0.2s-0.1,0.1-0.1,0.2l-1.7,4.6c0,0.1,0,0.1,0.1,0.1H164.3z"/>
			<path class="st0" d="M172.4,174.3c0-2.4,0-2.9,0-3.4s-0.2-0.7-0.7-0.9c-0.1,0-0.4-0.1-0.7-0.1c-0.2,0-0.3-0.1-0.3-0.2
				c0-0.1,0.1-0.1,0.4-0.1c0.9,0,1.9,0,2.2,0c0.6,0,2.1,0,2.6,0c1,0,2.2,0.1,3.1,0.7c0.5,0.3,1.2,1.1,1.2,2.2c0,1.2-0.7,2.2-2.3,3.5
				c1.5,1.8,2.6,3.2,3.6,4.2c0.9,0.9,1.5,1,1.8,1c0.2,0,0.3,0,0.4,0c0.1,0,0.2,0.1,0.2,0.2c0,0.1-0.1,0.2-0.3,0.2H182
				c-0.9,0-1.4-0.1-1.8-0.3c-0.7-0.4-1.3-1.1-2.2-2.3c-0.7-0.9-1.3-1.9-1.6-2.2c-0.1-0.1-0.2-0.1-0.3-0.1h-1.5c-0.1,0-0.1,0-0.1,0.1
				v0.2c0,1.5,0,2.7,0.1,3.4c0.1,0.5,0.1,0.8,0.6,0.8c0.2,0,0.6,0.1,0.8,0.1c0.1,0,0.2,0.1,0.2,0.2c0,0.1-0.1,0.2-0.3,0.2
				c-1,0-2.3-0.1-2.6-0.1s-1.4,0.1-2,0.1c-0.2,0-0.3-0.1-0.3-0.2c0-0.1,0.1-0.2,0.3-0.2s0.4,0,0.6-0.1c0.3-0.1,0.4-0.4,0.5-0.8
				c0.1-0.7,0.1-1.9,0.1-3.4v-2.7H172.4z M174.5,175.5c0,0.2,0,0.2,0.1,0.3c0.4,0.1,0.8,0.2,1.3,0.2c0.7,0,0.9-0.1,1.2-0.3
				c0.5-0.4,1.1-1,1.1-2.4c0-2.2-1.5-2.8-2.5-2.8c-0.4,0-0.8,0-1,0.1c-0.1,0-0.1,0.1-0.1,0.2v4.7H174.5z"/>
			<path class="st0" d="M186.7,170.7l-2.5,0.1c-1,0-1.3,0.1-1.6,0.5c-0.2,0.2-0.2,0.4-0.3,0.5c0,0.1-0.1,0.2-0.2,0.2
				c-0.1,0-0.1-0.1-0.1-0.3c0-0.3,0.3-1.8,0.4-1.9c0-0.2,0.1-0.3,0.2-0.3c0.1,0,0.3,0.1,0.7,0.2c0.5,0.1,1.1,0.1,1.6,0.1h6.7
				c0.5,0,0.9,0,1.1-0.1c0.3,0,0.4-0.1,0.4-0.1c0.1,0,0.1,0.1,0.1,0.3c0,0.3,0,1.5,0,1.9c0,0.2-0.1,0.3-0.1,0.3
				c-0.1,0-0.2-0.1-0.2-0.3v-0.2c0-0.4-0.5-0.9-1.9-0.9h-2.1v6.4c0,1.5,0,2.7,0.1,3.4c0.1,0.4,0.2,0.7,0.6,0.8
				c0.2,0,0.6,0.1,0.8,0.1s0.3,0.1,0.3,0.2c0,0.1-0.1,0.2-0.3,0.2c-1.1,0-2.2-0.1-2.7-0.1c-0.4,0-1.5,0.1-2.1,0.1
				c-0.2,0-0.3-0.1-0.3-0.2c0-0.1,0.1-0.2,0.3-0.2s0.4,0,0.6-0.1c0.3-0.1,0.4-0.4,0.5-0.8c0.1-0.7,0.1-1.9,0.1-3.4v-6.4H186.7z"/>
			<path class="st0" d="M197.8,179.2c0,1.5,0.3,1.9,0.7,2.1c0.3,0.1,0.7,0.1,1,0.1c0.2,0,0.3,0,0.3,0.1c0,0.2-0.2,0.2-0.4,0.2
				c-1.2,0-2-0.1-2.3-0.1c-0.2,0-1,0.1-2,0.1c-0.2,0-0.4,0-0.4-0.2c0-0.1,0.1-0.1,0.3-0.1s0.6,0,0.8-0.1c0.5-0.1,0.6-0.7,0.6-2.3
				l0.2-11c0-0.4,0.1-0.6,0.2-0.6c0.2,0,0.4,0.2,0.7,0.6c0.2,0.2,3.1,3.2,5.8,5.9c1.3,1.3,3.8,4,4.1,4.3h0.1l-0.2-8.4
				c0-1.1-0.2-1.5-0.6-1.7c-0.3-0.1-0.7-0.1-1-0.1c-0.2,0-0.3-0.1-0.3-0.2c0-0.1,0.2-0.2,0.5-0.2c1,0,1.9,0.1,2.3,0.1
				c0.2,0,0.9-0.1,1.8-0.1c0.2,0,0.4,0,0.4,0.2c0,0.1-0.1,0.2-0.3,0.2s-0.3,0-0.6,0.1c-0.5,0.1-0.7,0.5-0.7,1.6l-0.2,11.8
				c0,0.4-0.1,0.6-0.2,0.6c-0.2,0-0.4-0.2-0.6-0.4c-1.2-1.1-3.6-3.6-5.5-5.5c-2-2-4.1-4.3-4.4-4.7h-0.1L197.8,179.2z"/>
			<path class="st0" d="M213.7,174.3c0-2.4,0-2.9,0-3.4s-0.2-0.7-0.7-0.9c-0.1,0-0.4-0.1-0.7-0.1c-0.2,0-0.3-0.1-0.3-0.2
				c0-0.1,0.1-0.1,0.4-0.1c0.9,0,1.9,0,2.4,0s4.2,0,4.5,0s0.6-0.1,0.7-0.1c0.1,0,0.2-0.1,0.3-0.1s0.1,0.1,0.1,0.2
				c0,0.1-0.1,0.3-0.1,1c0,0.2-0.1,0.9-0.1,1s-0.1,0.3-0.2,0.3c-0.1,0-0.1-0.1-0.1-0.2c0-0.1,0-0.4-0.1-0.6
				c-0.1-0.3-0.3-0.5-1.1-0.6c-0.3,0-2.2-0.1-2.6-0.1c-0.1,0-0.1,0.1-0.1,0.1v3.9c0,0.1,0,0.2,0.1,0.2c0.4,0,2.5,0,2.9,0
				s0.6-0.1,0.8-0.2c0.1-0.1,0.2-0.2,0.3-0.2s0.1,0.1,0.1,0.2c0,0.1,0,0.4-0.1,1.2c0,0.3-0.1,1-0.1,1.1s0,0.4-0.2,0.4
				c-0.1,0-0.1-0.1-0.1-0.1c0-0.2,0-0.4-0.1-0.6c-0.1-0.3-0.3-0.6-0.9-0.6c-0.3,0-2.2-0.1-2.6-0.1c-0.1,0-0.1,0.1-0.1,0.2v1.3
				c0,0.5,0,1.9,0,2.4c0,1.1,0.5,1.3,2.2,1.3c0.4,0,1.1,0,1.6-0.2c0.4-0.2,0.6-0.5,0.7-1.2c0-0.2,0.1-0.2,0.2-0.2
				c0.1,0,0.1,0.2,0.1,0.4c0,0.4-0.1,1.4-0.2,1.8c-0.1,0.4-0.3,0.4-0.9,0.4c-1.2,0-2.2,0-3-0.1c-0.8,0-1.4,0-1.9,0
				c-0.2,0-0.5,0-0.9,0s-0.8,0-1.1,0c-0.2,0-0.3-0.1-0.3-0.2c0-0.1,0.1-0.2,0.3-0.2s0.4,0,0.6-0.1c0.3-0.1,0.4-0.4,0.5-0.8
				c0.1-0.7,0.1-1.9,0.1-3.4v-2.8H213.7z"/>
			<path class="st0" d="M223.6,181.5c-0.3-0.1-0.3-0.2-0.3-0.5c0-0.9,0.1-1.9,0.1-2.1c0-0.2,0.1-0.4,0.2-0.4c0.1,0,0.2,0.1,0.2,0.3
				s0.1,0.5,0.2,0.8c0.4,1.2,1.6,1.6,2.6,1.6c1.4,0,2.3-0.9,2.3-2c0-0.7-0.2-1.4-1.6-2.2l-1-0.6c-1.9-1.1-2.6-2.2-2.6-3.6
				c0-1.9,1.9-3.2,4.1-3.2c1.1,0,1.9,0.1,2.3,0.3c0.1,0,0.2,0.1,0.2,0.2c0,0.2-0.1,0.7-0.1,1.9c0,0.3-0.1,0.5-0.2,0.5
				c-0.1,0-0.2-0.1-0.2-0.3c0-0.1-0.1-0.6-0.4-1c-0.2-0.3-0.8-0.7-1.8-0.7c-1.2,0-2.2,0.6-2.2,1.7c0,0.7,0.3,1.3,1.7,2.1l0.7,0.4
				c2.2,1.2,2.8,2.4,2.8,3.9c0,1.2-0.4,2.1-1.6,3c-0.8,0.6-1.9,0.7-2.7,0.7C225.3,181.9,224.3,181.8,223.6,181.5z"/>
			<path class="st0" d="M236.7,170.7l-2.4,0.1c-1,0-1.3,0.1-1.6,0.5c-0.2,0.2-0.2,0.4-0.3,0.5c0,0.1-0.1,0.2-0.2,0.2
				c-0.1,0-0.1-0.1-0.1-0.3c0-0.3,0.3-1.8,0.4-1.9c0-0.2,0.1-0.3,0.2-0.3c0.1,0,0.3,0.1,0.7,0.2c0.5,0.1,1.1,0.1,1.6,0.1h6.7
				c0.5,0,0.9,0,1.1-0.1c0.3,0,0.4-0.1,0.4-0.1c0.1,0,0.1,0.1,0.1,0.3c0,0.3,0,1.5,0,1.9c0,0.2-0.1,0.3-0.1,0.3
				c-0.1,0-0.2-0.1-0.2-0.3v-0.2c0-0.4-0.5-0.9-1.9-0.9H239v6.4c0,1.5,0,2.7,0.1,3.4c0.1,0.4,0.1,0.7,0.6,0.8c0.2,0,0.6,0.1,0.8,0.1
				s0.3,0.1,0.3,0.2c0,0.1-0.1,0.2-0.3,0.2c-1.1,0-2.2-0.1-2.7-0.1c-0.4,0-1.5,0.1-2.1,0.1c-0.2,0-0.3-0.1-0.3-0.2
				c0-0.1,0.1-0.2,0.3-0.2s0.4,0,0.6-0.1c0.3-0.1,0.4-0.4,0.5-0.8c0.1-0.7,0.1-1.9,0.1-3.4v-6.4H236.7z"/>
		</g>
		<g>
			<path class="st0" d="M134.3,190.5L134.3,190.5v-0.2c0-1.3,0-1.5,0-1.8s-0.1-0.4-0.4-0.5c-0.1,0-0.2,0-0.3,0s-0.1,0-0.1-0.1
				s0.1-0.1,0.2-0.1c0.4,0,1,0,1.2,0s0.7,0,1,0c0.1,0,0.2,0,0.2,0.1s0,0.1-0.1,0.1s-0.1,0-0.2,0c-0.2,0-0.3,0.2-0.3,0.5s0,0.5,0,1.8
				v1.5c0,0.8,0,1.4,0,1.8c0,0.2,0.1,0.4,0.3,0.4c0.1,0,0.3,0,0.4,0c0.1,0,0.1,0,0.1,0.1s-0.1,0.1-0.2,0.1c-0.5,0-1.1,0-1.3,0
				s-0.7,0-1,0c-0.1,0-0.2,0-0.2-0.1c0,0,0-0.1,0.1-0.1s0.2,0,0.3,0c0.2,0,0.2-0.2,0.2-0.5s0-1,0-1.8V191l0,0H131l0,0v0.7
				c0,0.8,0,1.4,0,1.8c0,0.2,0.1,0.4,0.3,0.4c0.1,0,0.3,0,0.4,0c0.1,0,0.1,0,0.1,0.1s-0.1,0.1-0.2,0.1c-0.5,0-1.1,0-1.3,0
				s-0.7,0-1,0c-0.1,0-0.2,0-0.2-0.1c0,0,0-0.1,0.1-0.1s0.2,0,0.3,0c0.2,0,0.2-0.2,0.2-0.5s0-1,0-1.8v-1.5c0-1.3,0-1.5,0-1.8
				s-0.1-0.4-0.4-0.5c-0.1,0-0.2,0-0.3,0s-0.1,0-0.1-0.1s0.1-0.1,0.2-0.1c0.4,0,1,0,1.2,0s0.7,0,1,0c0.1,0,0.2,0,0.2,0.1
				s0,0.1-0.1,0.1s-0.1,0-0.2,0c-0.2,0-0.3,0.2-0.3,0.5s0,0.5,0,1.8v0.2v0.1h3.4V190.5z"/>
			<path class="st0" d="M137.1,191c0-1.4,0.9-3.2,3.4-3.2c2.1,0,3.3,1.2,3.3,3.1c0,1.9-1.3,3.4-3.4,3.4
				C138,194.2,137.1,192.4,137.1,191z M142.7,191.1c0-1.9-1.1-3-2.4-3c-1,0-2,0.5-2,2.6c0,1.7,1,3.1,2.5,3.1
				C141.3,193.8,142.7,193.5,142.7,191.1z"/>
			<path class="st0" d="M146.6,188.3h-1.2c-0.5,0-0.7,0.1-0.8,0.2c-0.1,0.1-0.1,0.2-0.1,0.3s0,0.1-0.1,0.1s-0.1,0-0.1-0.1
				s0.2-0.9,0.2-1s0-0.2,0.1-0.2s0.1,0.1,0.4,0.1c0.2,0,0.6,0,0.8,0h3.3c0.3,0,0.4,0,0.6,0c0.1,0,0.2,0,0.2,0c0.1,0,0.1,0,0.1,0.2
				s0,0.7,0,1c0,0.1,0,0.1-0.1,0.1s-0.1,0-0.1-0.2v-0.1c0-0.2-0.2-0.4-1-0.5h-1v3.4c0,0.8,0,1.4,0,1.8c0,0.2,0.1,0.4,0.3,0.4
				c0.1,0,0.3,0,0.4,0c0.1,0,0.1,0,0.1,0.1s-0.1,0.1-0.2,0.1c-0.5,0-1.1,0-1.3,0s-0.7,0-1,0c-0.1,0-0.2,0-0.2-0.1c0,0,0-0.1,0.1-0.1
				s0.2,0,0.3,0c0.2,0,0.2-0.2,0.2-0.5s0-1,0-1.8v-3.2H146.6z"/>
			<path class="st0" d="M151.3,190.3c0-1.3,0-1.5,0-1.8s-0.1-0.4-0.4-0.5c-0.1,0-0.2,0-0.3,0s-0.1,0-0.1-0.1s0.1-0.1,0.2-0.1
				c0.2,0,0.5,0,0.7,0s0.4,0,0.5,0c0.3,0,1.9,0,2.1,0c0.2,0,0.3,0,0.4,0h0.1c0,0,0,0,0,0.1s0,0.2-0.1,0.5c0,0.1,0,0.4,0,0.5
				c0,0,0,0.1-0.1,0.1s-0.1,0-0.1-0.1s0-0.2,0-0.3c-0.1-0.1-0.1-0.2-0.6-0.3c-0.1,0-1,0-1.2,0c0,0-0.1,0-0.1,0.1v2.1
				c0,0.1,0,0.1,0.1,0.1c0.2,0,1.1,0,1.3,0s0.3,0,0.4-0.1c0.1-0.1,0.1-0.1,0.1-0.1s0.1,0,0.1,0.1c0,0,0,0.2-0.1,0.6
				c0,0.2,0,0.5,0,0.6s0,0.2-0.1,0.2s-0.1,0-0.1-0.1s0-0.2,0-0.3c0-0.2-0.2-0.3-0.5-0.3c-0.2,0-1,0-1.2,0c0,0,0,0,0,0.1v0.7
				c0,0.3,0,1,0,1.3c0,0.6,0.1,0.7,1,0.7c0.2,0,0.6,0,0.8-0.1s0.3-0.3,0.4-0.6c0-0.1,0-0.1,0.1-0.1s0.1,0.1,0.1,0.1
				c0,0.2-0.1,0.8-0.1,0.9c-0.1,0.2-0.1,0.2-0.4,0.2c-0.6,0-1.1,0-1.4,0c-0.4,0-0.6,0-0.9,0c-0.1,0-0.3,0-0.5,0s-0.4,0-0.6,0
				c-0.1,0-0.2,0-0.2-0.1c0,0,0-0.1,0.1-0.1s0.2,0,0.3,0c0.2,0,0.2-0.2,0.2-0.5s0-1,0-1.8v-1.6H151.3z"/>
			<path class="st0" d="M157.6,191.7c0,1.1,0,1.6,0.2,1.8c0.1,0.1,0.4,0.2,1,0.2c0.4,0,0.8,0,1-0.2c0.1-0.1,0.2-0.3,0.2-0.5
				c0-0.1,0-0.1,0.1-0.1s0.1,0,0.1,0.1s-0.1,0.7-0.1,1c0,0.2-0.1,0.2-0.5,0.2c-0.6,0-1,0-1.4,0s-0.7,0-1,0c-0.1,0-0.3,0-0.5,0
				s-0.4,0-0.6,0c-0.1,0-0.2,0-0.2-0.1c0,0,0-0.1,0.1-0.1s0.2,0,0.3,0c0.2,0,0.2-0.2,0.2-0.5s0-1,0-1.8v-1.5c0-1.3,0-1.5,0-1.8
				s-0.1-0.4-0.4-0.5c-0.1,0-0.2,0-0.3,0s-0.1,0-0.1-0.1s0.1-0.1,0.2-0.1c0.4,0,0.9,0,1.1,0c0.2,0,0.8,0,1.1,0c0.1,0,0.2,0,0.2,0.1
				s0,0.1-0.1,0.1s-0.2,0-0.3,0c-0.2,0-0.3,0.2-0.3,0.5s0,0.5,0,1.8V191.7z"/>
			<path class="st0" d="M165.6,191.5c0.1,0,0.3,0,0.3,0.1s-0.1,0.1-0.4,0.2c-0.3,0-1.8,0.3-2.1,0.4c-0.2,0-0.3,0.1-0.4,0.1
				c-0.1,0-0.1-0.1-0.1-0.1l0.1-0.6c0-0.1,0.1-0.1,0.2-0.1L165.6,191.5L165.6,191.5z"/>
			<path class="st0" d="M170.5,193c0,0.6,0.1,0.9,0.3,0.9c0.1,0,0.3,0.1,0.4,0.1c0.1,0,0.1,0,0.1,0.1s-0.1,0.1-0.2,0.1
				c-0.5,0-0.9,0-1,0s-0.5,0-0.9,0c-0.1,0-0.2,0-0.2-0.1c0,0,0-0.1,0.1-0.1s0.3,0,0.4,0c0.2-0.1,0.2-0.3,0.3-1l0.1-4.9
				c0-0.2,0-0.3,0.1-0.3s0.2,0.1,0.3,0.3c0.1,0.1,1.4,1.4,2.6,2.6c0.6,0.6,1.7,1.8,1.8,1.9l0,0l-0.1-3.7c0-0.5-0.1-0.7-0.3-0.7
				c-0.1-0.1-0.3-0.1-0.4-0.1c-0.1,0-0.1,0-0.1-0.1s0.1-0.1,0.2-0.1c0.4,0,0.8,0,1,0c0.1,0,0.4,0,0.8,0c0.1,0,0.2,0,0.2,0.1
				c0,0,0,0.1-0.1,0.1s-0.1,0-0.2,0c-0.2,0.1-0.3,0.2-0.3,0.7l-0.1,5.2c0,0.2,0,0.3-0.1,0.3s-0.2-0.1-0.3-0.2
				c-0.5-0.5-1.6-1.6-2.4-2.4c-0.9-0.9-1.8-1.9-2-2.1l0,0L170.5,193z"/>
			<path class="st0" d="M182.1,190.5L182.1,190.5l0.1-0.2c0-1.3,0-1.5,0-1.8s-0.1-0.4-0.4-0.5c-0.1,0-0.2,0-0.3,0s-0.1,0-0.1-0.1
				s0.1-0.1,0.2-0.1c0.4,0,1,0,1.2,0s0.7,0,1,0c0.1,0,0.2,0,0.2,0.1s0,0.1-0.1,0.1s-0.1,0-0.2,0c-0.2,0-0.3,0.2-0.3,0.5s0,0.5,0,1.8
				v1.5c0,0.8,0,1.4,0,1.8c0,0.2,0.1,0.4,0.3,0.4c0.1,0,0.3,0,0.4,0c0.1,0,0.1,0,0.1,0.1s-0.1,0.1-0.2,0.1c-0.5,0-1.1,0-1.3,0
				s-0.7,0-1,0c-0.1,0-0.2,0-0.2-0.1c0,0,0-0.1,0.1-0.1s0.2,0,0.3,0c0.2,0,0.2-0.2,0.2-0.5s0-1,0-1.8V191c0,0,0,0-0.1,0h-3.2h-0.1
				v0.7c0,0.8,0,1.4,0,1.8c0,0.2,0.1,0.4,0.3,0.4c0.1,0,0.3,0,0.4,0c0.1,0,0.1,0,0.1,0.1s-0.1,0.1-0.2,0.1c-0.5,0-1.1,0-1.3,0
				s-0.7,0-1,0c-0.1,0-0.2,0-0.2-0.1c0,0,0-0.1,0.1-0.1s0.2,0,0.3,0c0.2,0,0.2-0.2,0.2-0.5s0-1,0-1.8v-1.5c0-1.3,0-1.5,0-1.8
				s-0.1-0.4-0.4-0.5c-0.1,0-0.2,0-0.3,0s-0.1,0-0.1-0.1s0.1-0.1,0.2-0.1c0.4,0,1,0,1.2,0s0.7,0,1,0c0.1,0,0.2,0,0.2,0.1
				s0,0.1-0.1,0.1s-0.1,0-0.2,0c-0.2,0-0.3,0.2-0.3,0.5s0,0.5,0,1.8v0.2c0,0,0,0.1,0.1,0.1h3.4V190.5z"/>
			<path class="st0" d="M186.2,192C186.2,192,186.1,192,186.2,192l-0.5,1.2c-0.1,0.2-0.1,0.4-0.1,0.5s0.1,0.3,0.3,0.3h0.1
				c0.1,0,0.1,0,0.1,0.1s0,0.1-0.1,0.1c-0.3,0-0.6,0-0.9,0c-0.1,0-0.5,0-1,0c-0.1,0-0.2,0-0.2-0.1c0,0,0-0.1,0.1-0.1s0.2,0,0.3,0
				c0.4-0.1,0.5-0.3,0.7-0.7l2.1-5.1c0.1-0.2,0.1-0.3,0.2-0.3c0.1,0,0.1,0.1,0.2,0.3c0.2,0.5,1.5,3.8,2,5c0.3,0.7,0.6,0.9,0.7,0.9
				c0.1,0,0.2,0,0.3,0s0.1,0,0.1,0.1s-0.1,0.1-0.4,0.1c-0.3,0-0.9,0-1.6,0c-0.1,0-0.2,0-0.2-0.1c0,0,0-0.1,0.1-0.1s0.1-0.1,0.1-0.2
				l-0.7-1.7c0,0,0-0.1-0.1-0.1L186.2,192L186.2,192z M187.9,191.6L187.9,191.6l-0.7-2.1v-0.1c0,0,0,0-0.1,0.1l-0.8,2v0.1H187.9z"/>
			<path class="st0" d="M195.2,188.3H194c-0.5,0-0.7,0.1-0.8,0.2c-0.1,0.1-0.1,0.2-0.1,0.3s0,0.1-0.1,0.1s-0.1,0-0.1-0.1
				s0.2-0.9,0.2-1s0.1-0.2,0.1-0.2c0.1,0,0.1,0.1,0.4,0.1c0.2,0,0.6,0,0.8,0h3.3c0.3,0,0.4,0,0.6,0c0.1,0,0.2,0,0.2,0
				c0.1,0,0.1,0,0.1,0.2s0,0.7,0,1c0,0.1,0,0.1-0.1,0.1s-0.1,0-0.1-0.2v-0.1c0-0.2-0.2-0.4-1-0.5h-1v3.4c0,0.8,0,1.4,0,1.8
				c0,0.2,0.1,0.4,0.3,0.4c0.1,0,0.3,0,0.4,0c0.1,0,0.1,0,0.1,0.1s-0.1,0.1-0.2,0.1c-0.5,0-1.1,0-1.3,0s-0.7,0-1,0
				c-0.1,0-0.2,0-0.2-0.1c0,0,0-0.1,0.1-0.1s0.2,0,0.3,0c0.2,0,0.2-0.2,0.2-0.5s0-1,0-1.8v-3.2H195.2z"/>
			<path class="st0" d="M200,190.3c0-1.3,0-1.5,0-1.8s-0.1-0.4-0.4-0.5c-0.1,0-0.2,0-0.3,0s-0.1,0-0.1-0.1s0.1-0.1,0.2-0.1
				c0.4,0,1,0,1.1,0c0.3,0,0.9,0,1.2,0c0.5,0,1.1,0,1.5,0.4c0.2,0.2,0.6,0.6,0.6,1.1c0,0.6-0.3,1.2-1.1,1.9c0.7,0.9,1.3,1.7,1.8,2.2
				s0.8,0.5,0.9,0.6c0.1,0,0.2,0,0.2,0c0.1,0,0.1,0,0.1,0.1s-0.1,0.1-0.2,0.1h-0.8c-0.5,0-0.7,0-0.9-0.2c-0.4-0.2-0.7-0.6-1.1-1.2
				c-0.3-0.5-0.7-1-0.8-1.1l-0.1-0.1h-0.7c0,0-0.1,0-0.1,0.1v0.1c0,0.8,0,1.4,0,1.8c0,0.2,0.1,0.4,0.3,0.5c0.1,0,0.3,0,0.4,0
				c0.1,0,0.1,0,0.1,0.1s-0.1,0.1-0.2,0.1c-0.5,0-1.1,0-1.2,0c-0.2,0-0.7,0-1,0c-0.1,0-0.2,0-0.2-0.1c0,0,0-0.1,0.1-0.1s0.2,0,0.3,0
				c0.2,0,0.2-0.2,0.2-0.5s0-1,0-1.8v-1.5H200z M201,190.9c0,0.1,0,0.1,0.1,0.1c0.2,0.1,0.4,0.1,0.6,0.1c0.3,0,0.4,0,0.6-0.1
				c0.2-0.2,0.5-0.6,0.5-1.2c0-1.2-0.8-1.5-1.3-1.5c-0.2,0-0.4,0-0.4,0c-0.1,0-0.1,0-0.1,0.1L201,190.9L201,190.9z"/>
			<path class="st0" d="M206.6,192C206.5,192,206.5,192,206.6,192l-0.5,1.2c-0.1,0.2-0.1,0.4-0.1,0.5s0.1,0.3,0.3,0.3h0.1
				c0.1,0,0.1,0,0.1,0.1s-0.1,0.1-0.1,0.1c-0.3,0-0.6,0-0.9,0c-0.1,0-0.5,0-1,0c-0.1,0-0.2,0-0.2-0.1c0,0,0-0.1,0.1-0.1s0.2,0,0.3,0
				c0.4-0.1,0.5-0.3,0.7-0.7l2.1-5.1c0.1-0.2,0.1-0.3,0.2-0.3c0.1,0,0.1,0.1,0.2,0.3c0.2,0.5,1.5,3.8,2,5c0.3,0.7,0.6,0.9,0.7,0.9
				c0.1,0,0.2,0,0.3,0s0.1,0,0.1,0.1s-0.1,0.1-0.4,0.1c-0.3,0-0.9,0-1.6,0c-0.1,0-0.2,0-0.2-0.1c0,0,0-0.1,0.1-0.1s0.1-0.1,0.1-0.2
				l-0.7-1.7c0,0,0-0.1-0.1-0.1L206.6,192L206.6,192z M208.3,191.6L208.3,191.6l-0.7-2.1v-0.1c0,0,0,0,0,0.1l-0.8,2v0.1H208.3z"/>
			<path class="st0" d="M212.5,193c0,0.6,0.1,0.9,0.3,0.9c0.1,0,0.3,0.1,0.4,0.1c0.1,0,0.1,0,0.1,0.1s-0.1,0.1-0.2,0.1
				c-0.5,0-0.9,0-1,0s-0.5,0-0.9,0c-0.1,0-0.2,0-0.2-0.1c0,0,0-0.1,0.1-0.1s0.3,0,0.4,0c0.2-0.1,0.2-0.3,0.3-1l0.1-4.9
				c0-0.2,0-0.3,0.1-0.3s0.2,0.1,0.3,0.3c0.1,0.1,1.4,1.4,2.6,2.6c0.6,0.6,1.7,1.8,1.8,1.9l0,0l-0.1-3.7c0-0.5-0.1-0.7-0.3-0.7
				c-0.1-0.1-0.3-0.1-0.4-0.1c-0.1,0-0.1,0-0.1-0.1s0.1-0.1,0.2-0.1c0.4,0,0.8,0,1,0c0.1,0,0.4,0,0.8,0c0.1,0,0.2,0,0.2,0.1
				c0,0,0,0.1-0.1,0.1s-0.1,0-0.2,0c-0.2,0.1-0.3,0.2-0.3,0.7l-0.1,5.2c0,0.2,0,0.3-0.1,0.3s-0.2-0.1-0.3-0.2
				c-0.5-0.5-1.6-1.6-2.4-2.4c-0.9-0.9-1.8-1.9-2-2.1l0,0L212.5,193z"/>
			<path class="st0" d="M224.8,193.5c0,0.2,0,0.2-0.1,0.3c-0.5,0.3-1.3,0.4-2,0.4c-2,0-3.8-1-3.8-3.2c0-1.3,0.7-2.2,1.4-2.7
				c0.8-0.5,1.5-0.5,2.2-0.5c0.6,0,1.3,0.1,1.5,0.1s0.5,0.1,0.7,0.1c0.1,0,0.1,0,0.1,0.1s-0.1,0.3-0.1,1.4c0,0.1,0,0.2-0.1,0.2
				s-0.1,0-0.1-0.1c0-0.2-0.1-0.5-0.3-0.7c-0.2-0.3-0.9-0.6-1.8-0.6c-0.5,0-1.1,0-1.6,0.5c-0.5,0.4-0.8,1-0.8,2
				c0,1.8,1.1,3.1,2.9,3.1c0.2,0,0.5,0,0.7-0.1c0.1-0.1,0.2-0.2,0.2-0.3v-0.9c0-0.4,0-0.7,0-1s-0.1-0.4-0.4-0.5c-0.1,0-0.2,0-0.3,0
				s-0.1,0-0.1-0.1s0.1-0.1,0.2-0.1c0.4,0,0.9,0,1.2,0s0.7,0,1,0c0.1,0,0.2,0,0.2,0.1c0,0,0,0.1-0.1,0.1s-0.1,0-0.2,0
				c-0.2,0-0.3,0.2-0.3,0.5c0,0.2,0,0.6,0,1v0.9H224.8z"/>
		</g>
	</g>
</g>
</svg>
