<?xml version="1.0" encoding="utf-8"?>
<!-- Generator: Adobe Illustrator 21.1.0, SVG Export Plug-In . SVG Version: 6.00 Build 0)  -->
<svg version="1.1" id="Layer_1" xmlns="http://www.w3.org/2000/svg" xmlns:xlink="http://www.w3.org/1999/xlink" x="0px" y="0px"
	 viewBox="0 0 350 255.1" style="enable-background:new 0 0 350 255.1;" xml:space="preserve">
<style type="text/css">
	.st0{fill:#1F191A;}
</style>
<path class="st0" d="M131.1,154.1h-1.9v-2.8h1.9v-1.1c0-1.6,0.4-2.9,1.2-3.7c0.8-0.8,1.9-1.2,3.4-1.2c0.6,0,1.1,0.1,1.6,0.1
	c0.4,0.1,0.8,0.1,1.2,0.3v2.9c-0.4-0.1-0.6-0.2-1-0.3c-0.4-0.1-0.6-0.1-1.1-0.1c-1.3,0-2,0.8-2,2.3v0.8h4v2.8h-3.9v12.1h-3.4V154.1z
	"/>
<path class="st0" d="M146.9,166.4c-1.7,0-3.1-0.6-4-1.6c-0.9-1.1-1.4-2.4-1.4-4.2v-9.6h3.4v8.5c0,1.2,0.3,2.1,0.8,2.7
	c0.6,0.6,1.3,0.9,2.4,0.9c1,0,1.8-0.4,2.4-1c0.6-0.6,0.9-1.6,0.9-2.7V151h3.4v15h-3.4v-2.3c-0.5,0.7-1.1,1.3-1.8,1.9
	C149,166.2,148.1,166.4,146.9,166.4"/>
<path class="st0" d="M165.3,166.4c-1.1,0-2.2-0.2-3.3-0.6s-2.1-0.9-3.1-1.7l1.5-2.3c0.8,0.6,1.7,1.1,2.5,1.3
	c0.8,0.4,1.6,0.5,2.4,0.5s1.3-0.1,1.8-0.4c0.4-0.3,0.6-0.7,0.6-1.2V162c0-0.3-0.1-0.6-0.3-0.8s-0.4-0.4-0.8-0.6
	c-0.4-0.1-0.6-0.3-1.1-0.4c-0.4-0.1-0.8-0.3-1.3-0.4c-0.6-0.1-1.1-0.4-1.7-0.6c-0.6-0.2-1.1-0.5-1.5-0.8c-0.4-0.4-0.8-0.8-1.1-1.3
	c-0.3-0.5-0.4-1.1-0.4-1.8v-0.1c0-0.7,0.1-1.3,0.4-1.9c0.3-0.6,0.6-1.1,1.1-1.5c0.5-0.4,1.1-0.7,1.7-0.9c0.6-0.2,1.3-0.4,2.1-0.4
	c0.9,0,1.9,0.1,2.9,0.4c1,0.4,1.8,0.7,2.7,1.3l-1.3,2.4c-0.7-0.4-1.5-0.8-2.2-1.1c-0.8-0.3-1.4-0.4-2.1-0.4c-0.6,0-1.2,0.1-1.6,0.4
	c-0.4,0.3-0.6,0.6-0.6,1.1v0.1c0,0.3,0.1,0.6,0.3,0.7c0.2,0.2,0.4,0.4,0.8,0.6s0.6,0.4,1.1,0.4c0.4,0.1,0.8,0.3,1.3,0.4
	c0.6,0.1,1.1,0.4,1.6,0.6c0.6,0.2,1.1,0.5,1.5,0.8s0.8,0.8,1.1,1.2c0.3,0.5,0.4,1.1,0.4,1.8v0.1c0,0.8-0.1,1.5-0.4,2.1
	c-0.3,0.6-0.6,1.1-1.2,1.5c-0.5,0.4-1.1,0.7-1.8,0.9C166.8,166.3,166,166.4,165.3,166.4"/>
<path class="st0" d="M175.1,145.5h3.7v3.3h-3.7V145.5z M175.3,151.1h3.4v15h-3.4V151.1z"/>
<path class="st0" d="M191.1,166.4c-1.1,0-2.2-0.2-3.1-0.6c-1-0.4-1.8-1-2.6-1.7c-0.7-0.7-1.3-1.5-1.7-2.5c-0.4-0.9-0.6-2-0.6-3v-0.1
	c0-1.1,0.2-2.1,0.6-3.1c0.4-0.9,1-1.8,1.7-2.5c0.7-0.7,1.6-1.3,2.6-1.7c1-0.4,2.1-0.6,3.2-0.6c1.1,0,2.2,0.2,3.2,0.6
	c1,0.4,1.8,1,2.6,1.7c0.7,0.7,1.3,1.5,1.7,2.5c0.4,0.9,0.6,2,0.6,3.1v0.1c0,1.1-0.2,2.1-0.6,3c-0.4,0.9-1,1.8-1.7,2.5
	c-0.7,0.7-1.6,1.3-2.6,1.7C193.3,166.2,192.2,166.4,191.1,166.4 M191.1,163.5c0.7,0,1.3-0.1,1.9-0.4c0.6-0.3,1.1-0.6,1.4-1.1
	c0.4-0.4,0.7-0.9,0.9-1.5c0.2-0.6,0.4-1.2,0.4-1.8v-0.1c0-0.6-0.1-1.3-0.4-1.9c-0.2-0.6-0.6-1.1-1-1.5c-0.4-0.4-0.9-0.8-1.5-1.1
	c-0.6-0.3-1.2-0.4-1.8-0.4c-0.7,0-1.3,0.1-1.8,0.4c-0.6,0.3-1.1,0.6-1.4,1.1c-0.4,0.4-0.7,0.9-0.9,1.5s-0.4,1.2-0.4,1.8v0.1
	c0,0.6,0.1,1.3,0.4,1.8s0.6,1.1,1,1.5c0.4,0.4,0.9,0.8,1.5,1.1C189.8,163.3,190.4,163.5,191.1,163.5"/>
<path class="st0" d="M203.3,151.1h3.4v2.3c0.2-0.4,0.5-0.6,0.8-1c0.3-0.4,0.6-0.6,1.1-0.8c0.4-0.2,0.8-0.4,1.3-0.6
	c0.5-0.1,1-0.2,1.6-0.2c1.7,0,3.1,0.6,4,1.6c0.9,1.1,1.4,2.4,1.4,4.2v9.6h-3.3v-8.5c0-1.2-0.3-2.1-0.8-2.7c-0.5-0.6-1.3-1-2.4-1
	c-1,0-1.8,0.4-2.4,1c-0.6,0.6-0.9,1.6-0.9,2.7v8.5h-3.4v-15H203.3L203.3,151.1z"/>
<path class="st0" d="M144.7,89.6c9.9-4.5,21.2-4.3,30.9,0.6c3.9,2,7.4,4.5,10.4,7.7l-2.3,3.5c-4.4-2.8-9.4-4.6-14.7-5.3
	c-7.2-1-14.3,0.1-20.7,2.9C146.7,96.2,145.5,93,144.7,89.6"/>
<path class="st0" d="M139.2,107.2c7.9-7.4,18.7-10.8,29.5-9.3c10.6,1.5,20,7.6,25.7,17c-7.9,7.4-18.7,10.8-29.4,9.3
	C154.3,122.7,144.9,116.5,139.2,107.2"/>
<path class="st0" d="M164.1,131.9c-2.2,0-4.4-0.2-6.5-0.6c3.3-1.3,6.5-3,9.4-5.1c1.1,0.1,2.1,0.1,3.1,0.1c7.5,0,14.7-2.3,20.9-6.4
	C184.3,127.3,174.6,131.9,164.1,131.9"/>
<path class="st0" d="M205.4,94c-0.1,0.1-0.3,0.2-0.6,0.4l-0.5,0.4c-0.1,0.1-0.3,0.2-0.5,0.4c-0.1,0.1-0.3,0.3-0.5,0.5
	c-0.1,0.1-0.3,0.4-0.4,0.4l-0.1,0.1c-0.3,0.4-0.6,0.6-0.9,1.1c-0.1,0.1-0.2,0.4-0.4,0.6l-0.1,0.1l-0.3,0.5c-0.8,1.3-1.3,2.8-1.7,4.3
	c0,0-0.5,2.1-0.6,2.8l-0.1,0.1v0.2c-0.8,2.7-1.8,5.3-3.3,7.6c-2.8-4.4-6.3-8.1-10.4-11l6-9.3c0.1-0.1,0.1-0.1,0.1-0.3l0.4-0.4
	c0.2-0.2,0.4-0.5,0.6-0.8l0.4-0.4c0.2-0.2,0.5-0.4,0.9-0.6l0.4-0.2c0.4-0.2,0.9-0.4,1.4-0.6c0.3-0.1,0.6-0.1,0.9-0.2
	c0.4-0.1,0.6-0.1,1.1-0.1c1.1-0.1,2.1,0.1,3.1,0.4c0.3,0.1,0.5,0.1,0.7,0.3l0.8,0.4l0,0l4.9,2.3C206.3,93.3,205.8,93.6,205.4,94"/>
</svg>
