<?xml version="1.0" encoding="utf-8"?>
<!-- Generator: Adobe Illustrator 21.1.0, SVG Export Plug-In . SVG Version: 6.00 Build 0)  -->
<svg version="1.1" id="Layer_1" xmlns="http://www.w3.org/2000/svg" xmlns:xlink="http://www.w3.org/1999/xlink" x="0px" y="0px"
	 viewBox="0 0 350 255.1" style="enable-background:new 0 0 350 255.1;" xml:space="preserve">
<style type="text/css">
	.st0{fill:#1F191A;}
</style>
<g>
	<path class="st0" d="M190,117.4C190,117.4,189.9,117.4,190,117.4l-0.4-1.5v-2.2c0,0,0,0,0-0.1v-0.1l0,0c0,0,0,0,0-0.1l0,0l-1.1-1.2
		l-0.5-2.7l0,0l0,0v-0.1l0,0c0,0,0-0.1-0.1-0.1l0,0l-1.7-1.4l-1.4-2.9l0,0c0,0,0,0-0.1-0.1l0,0l-0.1-0.1l0,0l-2.4-1.3l-2.5-3l0,0
		l-0.1-0.1l0,0l-3.2-2.1l0,0c0,0,0,0-0.1,0c-0.1-0.1-0.2-0.1-0.4,0c0,0,0,0-0.1,0l0,0l-3.2,2.1l0,0c0,0,0,0-0.1,0.1l0,0l-2.5,3
		l-2.4,1.3l0,0c0,0-0.1,0-0.1,0.1l0,0c0,0,0,0.1-0.1,0.1l0,0c-0.1,0.1-0.1,0.1-0.1,0.1l-1.4,2.7c-0.1,0-0.1,0.1-0.1,0.1l-1.6,1.3
		l0,0l0,0l-0.1,0.1l0,0v0.1c0,0,0,0,0,0.1v0.1v0.1l-0.4,2.5l-1.1,1.2l0,0c0,0,0,0,0,0.1l0,0c0,0,0,0,0,0.1v0.1v2.2l-0.4,1.4
		c0,0,0,0,0,0.1c0,0,0,0,0,0.1c0,0,0,0,0,0.1l0.4,1.8v1.2c0,0,0,0,0,0.1v0.1l0,0l0.8,1.5l0.1,0.9l0,0l0,0c0,0.1,0,0.2,0.1,0.2h0.1
		l0.8,1l0.4,0.7c0,0,0,0,0,0.1l0.1,0.1l0,0l0,0l1.2,0.9l0,0l1.9,1.4c0.1,0,0.1,0.1,0.2,0.1c0,0,3.3,0.7,3.3,0.6h0.1
		c0.1-0.1,0.2-0.2,0.1-0.2v-0.1c-0.1-0.3-0.1-0.6-0.2-0.9c0-0.1,0-0.2,0-0.3c0-0.1,0-0.1,0-0.2c0-0.1,0-0.2,0.1-0.4
		c0-0.2,0.1-0.3,0.1-0.5c0.1-0.1,0.1-0.3,0.1-0.4s0.1-0.3,0.2-0.4c0.1-0.2,0.2-0.4,0.3-0.5c0.1-0.1,0.2-0.2,0.2-0.4
		c0.1-0.1,0.2-0.2,0.3-0.4c0.1-0.1,0.2-0.2,0.4-0.3c0.2-0.2,0.4-0.3,0.7-0.4c0.1-0.1,0.2-0.1,0.4-0.2c0.4-0.1,0.7-0.2,1.2-0.2
		c0.1,0,0.2,0,0.4,0h0.1c0.4,0,0.8,0.1,1.2,0.2c0.1,0.1,0.3,0.1,0.4,0.1c0.2,0.1,0.5,0.2,0.7,0.4c0.1,0.1,0.2,0.2,0.4,0.2
		c0.1,0.1,0.2,0.2,0.4,0.4c0.1,0.1,0.2,0.2,0.3,0.4c0.1,0.2,0.2,0.4,0.4,0.6c0.1,0.1,0.1,0.2,0.2,0.4c0.1,0.1,0.1,0.3,0.2,0.4
		c0.1,0.1,0.1,0.3,0.1,0.4c0,0.1,0.1,0.3,0.1,0.4s0,0.2,0,0.4c0,0.1,0,0.1,0,0.1c0,0.4-0.1,0.7-0.2,1v0.1c-0.1,0.1,0,0.2,0.1,0.2
		h0.1l3.1-0.6c0.1,0,0.1-0.1,0.1-0.1l1.9-1.4l0,0l0,0l1.2-0.9l0,0c0,0,0-0.1,0.1-0.1c0,0,0,0,0-0.1l0.4-0.7l0.9-1.2l0,0l0,0l0,0
		c0,0,0.1-0.1,0.1-0.1l0,0l0.1-0.9l0.8-1.5l0,0v-0.1c0,0,0,0,0-0.1v-1.2L190,117.4L190,117.4L190,117.4
		C190,117.4,190,117.4,190,117.4L190,117.4 M189.1,113.7C189.1,113.7,189.1,113.7,189.1,113.7l-6.5,7.3c-0.1,0.1-0.1,0.2,0,0.3
		c0.1,0.1,0.1,0.1,0.1,0.1c0.1,0,0.1,0,0.2-0.1l6.2-7v1.6c0,0,0,0-0.1,0l-8.7,8.3c-0.1-0.2-0.2-0.4-0.4-0.6l8.2-10.8L189.1,113.7z
		 M187.4,109.6l-6.2,10.1c-0.1,0.1-0.1,0.2,0.1,0.3c0.1,0,0.1,0.1,0.1,0.1c0.1,0,0.1-0.1,0.2-0.1l6-9.7l0.4,2.1l0,0l-8.3,10.9
		c-0.1-0.1-0.3-0.3-0.5-0.4l6.8-14.2L187.4,109.6z M179.7,119L179.7,119c0.1,0,0.2-0.1,0.2-0.1l4.6-13.1l1.2,2.3l-6.8,14.4
		c-0.2-0.2-0.6-0.3-0.9-0.4l4.1-17.9l2,1.1l-4.6,13.4C179.6,118.9,179.6,119,179.7,119 M179.3,100.9l-2.1,17.3
		c0,0.1,0.1,0.2,0.2,0.2l0,0c0.1,0,0.2-0.1,0.2-0.2l2-16.9l2.1,2.6l0,0l-4.1,18c-0.4-0.1-0.9-0.2-1.3-0.2V98.9L179.3,100.9z
		 M172.6,101.4l2.1,16.8c0,0.1,0.1,0.2,0.2,0.2l0,0c0.1,0,0.2-0.1,0.2-0.2l-2.2-17.3l0,0l2.9-1.9v22.7c-0.4,0.1-0.9,0.1-1.3,0.2
		l-4.1-17.9L172.6,101.4z M167.8,105.9l4.7,13.2c0.1,0.1,0.1,0.1,0.2,0.1h0.1c0.1-0.1,0.2-0.2,0.1-0.3l-4.9-13.6l2-1.1l4.1,17.9
		c-0.3,0.1-0.6,0.3-0.8,0.5l-6.8-14.4L167.8,105.9z M164.4,112.4l0.4-2l6.1,9.8c0.1,0.1,0.1,0.1,0.2,0.1c0.1,0,0.1,0,0.1-0.1
		c0.1-0.1,0.1-0.2,0.1-0.3l-6.4-10.2l0,0l1.5-1.2l6.8,14.4c-0.1,0.1-0.3,0.2-0.4,0.4L164.4,112.4L164.4,112.4 M164.1,112.8l8.3,10.9
		c-0.1,0.2-0.2,0.4-0.4,0.6l-8.8-8.4v-1.5l6.4,7c0.1,0.1,0.1,0.1,0.2,0.1c0.1,0,0.1,0,0.1-0.1c0.1-0.1,0.1-0.2,0-0.3l-6.7-7.3
		L164.1,112.8z M163.3,119.2C163.3,119.2,163.3,119.1,163.3,119.2l-0.2-1.2l5.8,4.7c0.1,0.1,0.1,0.1,0.1,0.1c0.1,0,0.1,0,0.2-0.1
		c0.1-0.1,0.1-0.2-0.1-0.3l-6.2-5.1l0,0l0.2-0.9l8.8,8.3c-0.1,0.2-0.1,0.3-0.2,0.5L163.3,119.2z M163.3,119.7l8.3,5.9
		c0,0.2-0.1,0.3-0.1,0.5l-7.2-3.3l-0.1-0.1l-0.1-0.9l4.3,2.3c0.1,0,0.1,0,0.1,0c0.1,0,0.1-0.1,0.2-0.1c0.1-0.1,0-0.2-0.1-0.3
		l-4.7-2.7c0,0,0,0-0.1,0l-0.5-0.9L163.3,119.7L163.3,119.7z M168.6,127l-1.9-1.4l0,0l2.7,1h0.1c0.1,0,0.2-0.1,0.2-0.1
		c0.1-0.1,0-0.2-0.1-0.3l-3.8-1.4h-0.1l-0.1-0.1l-0.4-0.7c0,0,0,0,0-0.1l-0.2-0.3l6.6,3c0,0.4,0.1,0.7,0.1,1L168.6,127z
		 M181.1,126.5l6.5-3l-0.3,0.4c0,0,0,0,0,0.1l-0.4,0.7l-0.1,0.1c-0.1,0-0.1,0-0.1,0l-3.8,1.4c-0.1,0.1-0.2,0.2-0.1,0.3
		c0.1,0.1,0.1,0.1,0.2,0.1h0.1l2.9-1l-0.1,0.1l-1.9,1.4l-2.8,0.6c0.1-0.4,0.1-0.7,0.1-1.1C181.1,126.5,181.1,126.5,181.1,126.5
		 M189.1,120.4l-0.5,0.9c-0.1,0-0.1,0-0.2,0l-4.3,2.3c-0.1,0.1-0.1,0.2-0.1,0.3c0.1,0.1,0.1,0.1,0.2,0.1s0.1,0,0.1,0l3.9-2.2
		c0,0,0,0,0,0.1l-0.1,0.9l0,0L181,126c0-0.2-0.1-0.4-0.1-0.6l8.1-5.8L189.1,120.4L189.1,120.4z M189.1,119.1
		C189.1,119.1,189.1,119.1,189.1,119.1l-8.2,5.9c-0.1-0.2-0.1-0.4-0.2-0.5l8.6-8.1l0.2,1c-0.1,0-0.1,0-0.1,0.1l-5.8,4.9
		c-0.1,0.1-0.1,0.2,0,0.3c0.1,0.1,0.1,0.1,0.2,0.1c0.1,0,0.1,0,0.1-0.1l5.6-4.6L189.1,119.1z"/>
	<path class="st0" d="M176.3,144.6c-0.1,0-0.1-0.1-0.1-0.1c-0.1-0.6-0.3-1.7-0.3-1.8c0-0.7-0.1-3.7-0.1-6.5c0-3.2-0.4-5.2-1.9-6.4
		c-0.1-0.1-0.2-0.2-0.2-0.3v-0.4c0-0.3,0.1-0.3,0.2-0.3h2.4"/>
	<path class="st0" d="M176.3,128.9h2.4c0.1,0,0.2,0,0.2,0.3v0.4c0,0.1-0.1,0.2-0.2,0.3c-1.4,1.1-1.9,3.1-1.9,6.4
		c0,2.8-0.1,5.8-0.1,6.5c0,0.1-0.2,1.2-0.3,1.8c0,0.1-0.1,0.1-0.1,0.1"/>
	<path class="st0" d="M95.8,144.3V144c1.9,0,2.2-0.5,2.2-2.6v-3.3h-7.4v3.3c0,2.2,0.4,2.6,2.2,2.6v0.2h-6.9V144
		c1.9,0,2.2-0.5,2.2-2.6V135c0-2.2-0.4-2.6-2.2-2.6v-0.2h6.9v0.2c-1.9,0-2.2,0.5-2.2,2.6v2.5H98V135c0-2.2-0.4-2.6-2.2-2.6v-0.2h6.9
		v0.2c-1.9,0-2.2,0.5-2.2,2.6v6.4c0,2.2,0.4,2.6,2.2,2.6v0.2L95.8,144.3L95.8,144.3z"/>
	<path class="st0" d="M119.4,144.2v-0.2c1.8,0,2.1-0.5,2.1-2.7v-6.5c0-2.2-0.4-2.7-2.1-2.7v-0.2h6.7v0.2c-1.8,0-2.2,0.5-2.2,2.7v6.5
		c0,2.2,0.4,2.7,2.2,2.7v0.2H119.4z"/>
	<path class="st0" d="M135.5,144.2v-0.2c1,0,1.6-0.2,1.8-0.6c0.2-0.4,0.1-0.9-0.1-1.3l-1-2.1h-4.7l-1,2.1c-0.2,0.6-0.3,1-0.1,1.3
		c0.2,0.4,0.7,0.6,1.8,0.6v0.2h-5.1v-0.2c1.5,0,2-0.4,2.7-1.9l4.8-10.3h0.2l4.8,10.3c0.6,1.3,1,1.9,2.7,1.9v0.2H135.5z M131.8,139.4
		h4.1l-2-4.5L131.8,139.4z"/>
	<path class="st0" d="M155.9,144.6l-9.5-10.3v7.2c0,2.1,0.4,2.5,2.2,2.5v0.2h-4.9v-0.2c1.8,0,2.1-0.5,2.1-2.5v-6.3
		c0-2.1-0.4-2.5-2.1-2.5v-0.2h4.3l7.7,8.4v-5.6c0-2.1-0.4-2.5-2.2-2.5v-0.2h4.9v0.2c-1.8,0-2.2,0.5-2.2,2.5v9.4L155.9,144.6
		L155.9,144.6z"/>
	<path class="st0" d="M166.4,144.2v-0.2c1,0,1.6-0.2,1.8-0.6c0.2-0.4,0.1-0.9-0.1-1.3l-1-2.1h-4.7l-1,2.1c-0.2,0.6-0.3,1-0.1,1.3
		c0.2,0.4,0.7,0.6,1.8,0.6v0.2H158v-0.2c1.5,0,2-0.4,2.7-1.9l4.8-10.3h0.2l4.8,10.3c0.6,1.3,1,1.9,2.7,1.9v0.2H166.4z M162.6,139.4
		h4.1l-2-4.5L162.6,139.4z"/>
	<path class="st0" d="M186.1,144.6c-1.1,0-2-0.4-2.7-0.7c-0.3-0.1-0.6-0.2-0.9-0.3h-0.1l-0.1,0.1c-0.3,0.2-0.6,0.6-0.7,0.9h-0.4
		v-4.2h0.4c0.5,2.1,2.3,3.6,4.3,3.6c1.5,0,2.4-0.9,2.4-2.2c0-0.9-0.7-1.7-1.8-2.2l-2.2-1c-1.9-0.9-3-1.8-3-3.8
		c0-1.6,1.7-2.9,3.8-2.9c1.4,0,2,0.4,2.7,0.8l0.1,0.1l0.1-0.1c0.2-0.2,0.6-0.5,0.7-0.9h0.3v4.2h-0.3c-0.2-2.3-1.5-3.5-3.4-3.5
		c-1,0-2,0.6-2,1.9c0,0.7,0.7,1.7,1.9,2.3l2.2,1c1.8,0.9,2.8,2.1,2.8,3.5C190.4,143.2,188.3,144.6,186.1,144.6"/>
	<path class="st0" d="M201.8,144.2v-0.2c1.9,0,2.2-0.5,2.2-2.7V138h-7.4v3.3c0,2.2,0.4,2.6,2.2,2.7v0.2h-6.9v-0.2
		c1.9,0,2.2-0.5,2.2-2.7v-6.4c0-2.2-0.4-2.6-2.2-2.7V132h6.9v0.2c-1.9,0-2.2,0.5-2.2,2.7v2.5h7.4v-2.5c0-2.2-0.4-2.6-2.2-2.7V132h7
		v0.2c-1.9,0-2.2,0.5-2.2,2.7v6.4c0,2.2,0.4,2.6,2.2,2.7v0.2H201.8z"/>
	<path class="st0" d="M235.2,144.2l-4.1-5.5h-0.9v2.7c0,2.2,0.4,2.6,2.2,2.7v0.2h-6.9V144c1.9,0,2.2-0.5,2.2-2.7v-6.4
		c0-2.2-0.4-2.6-2.2-2.7V132h7.5c2.6,0,4.5,1.4,4.5,3.3c0,1.8-1.5,3.1-3.9,3.3l-0.4,0.1l2.5,2.5c1.9,1.9,2.8,2.5,4.3,2.7v0.2H235.2z
		 M230.1,138.1h1.4c2.3,0,3.1-1.4,3.1-2.8c0-1.4-0.8-2.8-3.1-2.8h-1.4V138.1z"/>
	<path class="st0" d="M241.9,144.2v-0.2c1.9,0,2.2-0.5,2.2-2.7v-6.4c0-2.2-0.4-2.6-2.2-2.7V132h11.5l0.2,2.6h-0.4l-0.1-0.3
		c-0.4-1.2-0.7-1.7-2.8-1.7h-3.7v4.9h1.4c2.2,0,2.8-0.2,2.8-2h0.3v4.6h-0.3c-0.1-1.8-0.6-2-2.8-2h-1.4v3c0,2.2,0.4,2.7,2.4,2.7h2.1
		c2.2,0,2.5-0.5,2.8-1.7l0.1-0.3h0.4l-0.2,2.6L241.9,144.2L241.9,144.2z"/>
	<path class="st0" d="M261.7,144.6c-1.2,0-2-0.4-2.7-0.7c-0.3-0.1-0.6-0.2-0.9-0.3h-0.1l-0.1,0.1c-0.3,0.2-0.6,0.6-0.7,0.9H257v-4.3
		h0.4c0.5,2.1,2.3,3.7,4.4,3.7c1.5,0,2.5-0.9,2.5-2.3c0-0.9-0.7-1.8-1.8-2.3l-2.2-1c-1.9-0.9-3-1.8-3-3.8c0-1.7,1.7-3,3.8-3
		c1.4,0,2.1,0.4,2.7,0.9l0.1,0.1l0.1-0.1c0.2-0.2,0.6-0.5,0.7-0.9h0.3v4.3h-0.3c-0.2-2.3-1.5-3.6-3.5-3.6c-1,0-2,0.7-2,1.9
		c0,0.7,0.7,1.7,1.9,2.3l2.2,1c1.9,0.9,2.9,2.2,2.9,3.6C266.1,143.2,263.9,144.6,261.7,144.6"/>
	<path class="st0" d="M111,144.6c-4.1,0-7.3-2.8-7.3-6.4s3.3-6.4,7.3-6.4c4,0,7.3,2.8,7.3,6.4C118.2,141.7,115,144.6,111,144.6
		 M111,132.5c-3.2,0-4.6,3-4.6,5.7s1.5,5.7,4.6,5.7c3.2,0,4.6-3,4.6-5.7S114.1,132.5,111,132.5"/>
	<path class="st0" d="M217.2,144.6c-4.1,0-7.3-2.8-7.3-6.4s3.3-6.4,7.3-6.4c4,0,7.3,2.8,7.3,6.4
		C224.5,141.7,221.2,144.6,217.2,144.6 M217.2,132.5c-3.2,0-4.6,3-4.6,5.7s1.5,5.7,4.6,5.7c3.2,0,4.6-3,4.6-5.7
		S220.4,132.5,217.2,132.5"/>
	<path class="st0" d="M206,157.5h0.6c1.6,0,1.8-0.2,2-1l0.1-0.4h0.4l-0.2,2h-7.1v-0.4c1.2,0,1.4-0.3,1.4-1.9v-2.8
		c0-1.5-0.2-1.8-1.4-1.9v-0.4h4.4v0.4c-1.2,0-1.4,0.2-1.4,1.8v2.6C204.6,157.2,204.8,157.5,206,157.5"/>
	<path class="st0" d="M197.3,158.2h-4.4v-0.4c1.2,0,1.4-0.3,1.4-1.9v-2.8c0-1.5-0.2-1.9-1.4-1.9v-0.4h4.4v0.4
		c-1.2,0-1.4,0.2-1.4,1.8v2.6c0,1.5,0.3,2,1.4,2.1"/>
	<path class="st0" d="M217.2,157.5h0.6c1.6,0,1.8-0.2,2-1l0.1-0.4h0.4l-0.2,2h-7.1v-0.4c1.2,0,1.4-0.3,1.4-1.9v-2.8
		c0-1.5-0.2-1.8-1.4-1.9v-0.4h4.4v0.4c-1.2,0-1.4,0.2-1.4,1.8v2.6C215.9,157.2,216.1,157.5,217.2,157.5"/>
	<path class="st0" d="M228.7,158.1v-0.1c0.6,0,0.9-0.1,1-0.3s0.1-0.5-0.1-0.7l-0.6-1.2h-2.7l-0.6,1.2c-0.1,0.4-0.2,0.6-0.1,0.7
		c0.1,0.2,0.4,0.3,1,0.3v0.1h-2.9v-0.1c0.9,0,1.2-0.2,1.5-1.1l2.8-6h0.1l2.8,6c0.4,0.7,0.6,1.1,1.5,1.1v0.1H228.7z M226.5,155.4h2.3
		l-1.2-2.6L226.5,155.4z"/>
	<path class="st0" d="M232.7,158.2h-4.2v-0.4h0.1c0.6,0,0.9-0.1,0.9-0.2c0.1-0.2,0-0.4-0.1-0.6l-0.6-1.2h-2.5l-0.5,1.2
		c-0.2,0.4-0.1,0.6-0.1,0.6c0.1,0.2,0.4,0.2,0.9,0.2h0.1v0.4h-3.1v-0.4h0.1c0.8,0,1.1-0.2,1.5-1l2.8-6h0.2l2.8,6
		c0.4,0.7,0.5,1,1.5,1h0.1v0.4H232.7z M229.3,157.9h2.7c-0.6-0.1-0.8-0.5-1-1.1l-2.7-5.9l0,0l-2.7,5.9c-0.3,0.7-0.6,1-1,1.1h1.7
		c-0.2-0.1-0.4-0.2-0.5-0.3c-0.1-0.2-0.1-0.5,0.1-0.9l0.6-1.2h2.8l0.6,1.2c0.1,0.2,0.2,0.6,0.1,0.9
		C229.7,157.8,229.6,157.9,229.3,157.9 M229.1,155.4h-2.7l1.4-3L229.1,155.4z M226.7,155.2h2l-1-2.2L226.7,155.2z"/>
	<path class="st0" d="M186.4,153.7l-1.2,2.6l-1.2-2.6l-0.2-0.4l-0.6-1.2c-0.1-0.2-0.2-0.6-0.1-0.7c0.1-0.2,0.4-0.3,1-0.3V151H180
		v0.1c1,0,1.2,0.4,1.6,1.1l2.8,6h0.1l2.8-6c0.4-0.9,0.7-1.1,1.6-1.1V151h-3v0.1c0.6,0,0.9,0.1,1,0.3c0.1,0.2,0.1,0.4-0.1,0.7
		l-0.6,1.2L186.4,153.7z"/>
	<path class="st0" d="M184.7,158.3h-0.3l-2.8-6c-0.4-0.7-0.6-1-1.5-1h-0.1v-0.4h4.3v0.4h-0.1c-0.6,0-0.9,0.1-1,0.2
		c-0.1,0.2,0,0.4,0.1,0.6l0.7,1.5l1.1,2.4l1.9-3.9c0.2-0.4,0.1-0.6,0.1-0.6c-0.1-0.2-0.4-0.2-1-0.2h-0.1v-0.4h3.2v0.4H189
		c-0.8,0-1.1,0.2-1.5,1L184.7,158.3z M184.6,158.1L184.6,158.1l2.8-5.9c0.3-0.7,0.6-1,1.1-1.1h-1.7c0.2,0.1,0.4,0.2,0.5,0.3
		c0.1,0.2,0.1,0.5-0.1,0.9l-2.1,4.4l-1.5-3.1l-0.6-1.2c-0.1-0.2-0.2-0.6-0.1-0.9c0.1-0.1,0.2-0.2,0.5-0.3h-2.8
		c0.6,0.1,0.8,0.5,1.1,1.1L184.6,158.1z"/>
	<path class="st0" d="M239,158.3c-0.7,0-1.2-0.2-1.5-0.4c-0.2-0.1-0.4-0.2-0.5-0.2h-0.1h-0.1c-0.2,0.1-0.3,0.3-0.4,0.6h-0.2v-2.5
		h0.2c0.2,1.2,1.4,2.1,2.5,2.1c0.9,0,1.4-0.5,1.4-1.3c0-0.5-0.4-1-1-1.3l-1.3-0.6c-1.1-0.5-1.7-1-1.7-2.2c0-0.9,1-1.7,2.2-1.7
		c0.8,0,1.2,0.2,1.5,0.5l0.1,0.1l0.1-0.1c0.1-0.1,0.3-0.3,0.4-0.6h0.2v2.5h-0.2c-0.2-1.4-0.9-2.1-2-2.1c-0.6,0-1.2,0.4-1.2,1
		c0,0.4,0.4,1,1.1,1.4l1.3,0.6c1,0.5,1.7,1.2,1.7,2C241.6,157.5,240.3,158.3,239,158.3"/>
	<path class="st0" d="M239,158.4c-0.7,0-1.2-0.2-1.6-0.4c-0.2-0.1-0.4-0.1-0.5-0.2c-0.2,0.1-0.3,0.3-0.4,0.5v0.1h-0.4v-2.7h0.4v0.1
		c0.2,1.2,1.3,2,2.4,2c0.8,0,1.4-0.4,1.4-1.2c0-0.5-0.4-0.9-1-1.2l-1.3-0.6c-1.1-0.5-1.8-1.1-1.8-2.3c0-1,1-1.9,2.3-1.9
		c0.8,0,1.2,0.2,1.6,0.5c0.1-0.1,0.3-0.2,0.4-0.5v-0.1h0.4v2.7h-0.4v-0.1c-0.1-1.3-0.8-2-1.9-2c-0.5,0-1,0.3-1,1
		c0,0.4,0.4,0.9,1,1.2l1.3,0.6c1.1,0.5,1.7,1.3,1.7,2.2C241.7,157.6,240.3,158.4,239,158.4 M236.9,157.6L236.9,157.6
		c0.2,0.1,0.4,0.1,0.6,0.2c0.4,0.2,0.9,0.4,1.5,0.4c1.2,0,2.5-0.7,2.5-2c0-0.7-0.6-1.5-1.6-2l-1.3-0.6c-0.8-0.4-1.2-1-1.2-1.4
		c0-0.7,0.7-1.2,1.3-1.2c1.2,0,1.9,0.7,2.1,2v-2.2l0,0c-0.1,0.2-0.2,0.4-0.4,0.5l-0.1,0.1l-0.1-0.1c-0.4-0.2-0.7-0.4-1.5-0.4
		c-1.2,0-2.1,0.7-2.1,1.6c0,1.1,0.6,1.6,1.7,2.1l1.3,0.6c0.7,0.3,1.1,0.9,1.1,1.4c0,0.9-0.6,1.4-1.5,1.4c-1.2,0-2.3-0.9-2.7-2.1l0,0
		v2.2l0,0C236.5,158,236.7,157.8,236.9,157.6L236.9,157.6z"/>
	<path class="st0" d="M120.9,154.6c0-2.2,1.9-3.9,4.1-3.9c0.9,0,1.8,0.4,2.3,1c0.1-0.2,0.2-0.5,0.3-0.7h0.4v3h-0.4
		c-0.4-1.6-1.3-2.6-2.6-2.6c-2,0-2.5,1.9-2.5,3.3c0,1.4,0.6,3.3,2.5,3.3c1.1,0,2-0.4,2-1.4c0-0.7-0.3-1-1.4-1V155h4.1v0.4
		c-1.2,0-1.4,0.2-1.4,1.8v0.7c-0.9,0-2.5,0.7-3.4,0.7C122.8,158.5,120.9,156.7,120.9,154.6"/>
	<path class="st0" d="M139.8,158.5c-2.4,0-4.4-1.8-4.4-3.9s2-3.9,4.4-3.9c2.4,0,4.4,1.8,4.4,3.9
		C144.2,156.7,142.2,158.5,139.8,158.5 M139.8,151.3c-2,0-2.7,1.8-2.7,3.3c0,1.4,0.7,3.3,2.7,3.3c2,0,2.7-1.8,2.7-3.3
		C142.5,153.1,141.9,151.3,139.8,151.3"/>
	<path class="st0" d="M153.8,157.5h0.7c1.6,0,1.8-0.2,2-1l0.1-0.4h0.4l-0.1,2h-7.3v-0.4c1.2,0,1.4-0.3,1.4-1.9v-2.8
		c0-1.5-0.2-1.8-1.4-1.8v-0.4h4.4v0.4c-1.2,0-1.4,0.2-1.4,1.8v2.6C152.5,157.3,152.7,157.5,153.8,157.5"/>
	<path class="st0" d="M166.8,157.8v0.4h-4.4v-0.4c1.2,0,1.4-0.3,1.4-1.9v-2.8c0-1.5-0.2-1.8-1.4-1.8v-0.4h6.7l0.2,2h-0.4l-0.1-0.4
		c-0.2-0.7-0.4-1-2-1h-1.4v2.5c1.7,0,1.9-0.2,1.9-1.3h0.4v3.3h-0.4c0-1.1-0.1-1.3-1.9-1.3v1.2C165.4,157.5,165.6,157.8,166.8,157.8"
		/>
</g>
</svg>
