<?xml version="1.0" encoding="utf-8"?>
<!-- Generator: Adobe Illustrator 21.1.0, SVG Export Plug-In . SVG Version: 6.00 Build 0)  -->
<svg version="1.1" id="Layer_1" xmlns="http://www.w3.org/2000/svg" xmlns:xlink="http://www.w3.org/1999/xlink" x="0px" y="0px"
	 viewBox="0 0 350 255.1" style="enable-background:new 0 0 350 255.1;" xml:space="preserve">
<style type="text/css">
	.st0{fill:#1F191A;}
	.st1{fill:#FFFFFF;}
</style>
<g>
	<path class="st0" d="M57,223.6l-19.9-20.6v7.8c0,5.2,0.2,8.9,0.4,9.7c0.4,1.3,0.9,1.8,4.6,1.9v0.7c-1.8,0-3.6-0.1-5.3-0.1
		c-1.8,0-3.5,0-5.4,0.1v-0.7c2.6,0,3.4-0.7,3.7-1.8c0.3-1,0.3-4.6,0.3-9.8v-9.5c-1.8-1.9-2.8-2.7-4.4-3.3v-0.7
		c1.1,0,2.3,0.1,3.5,0.1c2.3,0,4.6-0.1,6.6-0.2c2.5,3,9.7,11.4,14.5,16.1v-3.6c0-5.2-0.2-8.9-0.5-9.7c-0.5-1.3-1-1.8-4.6-1.9v-0.7
		c1.8,0,3.5,0.1,5.3,0.1c1.7,0,3.1,0,5-0.1v0.7c-2.3,0-3,0.7-3.3,1.8c-0.4,1-0.4,4.7-0.3,9.8l0,13.9L57,223.6z"/>
	<path class="st0" d="M84.8,212.5c0,6.2-5.6,10.9-11.7,10.9c-6.1,0-11.7-4.6-11.7-10.8c0-6.2,5.6-10.9,11.7-10.9
		C79.3,201.7,84.8,206.2,84.8,212.5 M78.8,212.6c0-6-2.4-10.1-5.7-10.1c-3.3,0-5.7,3.9-5.7,9.9c0,6,2.4,10.1,5.7,10.1
		C76.4,222.5,78.8,218.6,78.8,212.6"/>
	<path class="st0" d="M106.3,223.6c-3.4,0-5.4-0.9-6.9-2.9c-1.6-2.1-2.4-5.1-3-7.2l-2.9-0.1c0,5.2,0,7.2,0.3,8
		c0.2,0.8,0.8,1.2,2.5,1.2v0.5c-1.5,0-3.4-0.1-5.3-0.1s-3.8,0-5.3,0.1v-0.5c1.8,0,2.3-0.4,2.5-1.2c0.3-0.8,0.3-2.8,0.3-8.3v-0.9
		c0-5.5,0-7.5-0.3-8.3c-0.3-0.8-0.9-1.2-2.6-1.2V202c1.3,0,2.8,0.1,4.3,0.1c2.2,0,4.3-0.1,6.3-0.1c5.2,0,8.8,1.9,8.8,5.6
		c0,3-2.6,4.7-5,5.2c1.3,2.3,3.3,5.3,4.5,6.5c1.9,1.9,3.4,3.3,5.5,3.3v0.2C109.4,223.2,107.7,223.6,106.3,223.6 M93.5,212.6l3.3-0.1
		c1.1,0,3-1.8,3-4.7c0-3-1.9-4.9-4.6-4.9c-0.5,0-1.6,0.1-1.6,0.1c-0.1,2.2-0.1,4.6-0.1,8.8V212.6z"/>
	<path class="st0" d="M121,223.1c-1.9,0-4.1-0.1-6.2-0.1c-2,0-3.9,0-5.4,0.1v-0.5c1.8,0,2.3-0.4,2.5-1.2c0.3-0.8,0.3-2.8,0.3-8.3
		V212c0-5.5,0-7.5-0.3-8.3c-0.2-0.8-0.8-1.2-2.6-1.2V202h9c6.9,0,8.3-0.2,8.3-0.2c0.1,2.5,0.2,4.6,0.5,6.5l-0.3,0.1
		c-1-3.2-2-5.4-6.6-5.4c-1.2,0-1.6,0.1-2.8,0.3c-0.1,2.2-0.2,4.3-0.2,8.7v0.2h1.3c3.3,0,4-0.7,4.1-3.2h0.5c-0.1,1.1-0.1,2.2-0.1,3.6
		c0,1.4,0,2.5,0.1,3.6h-0.5c-0.1-2.5-0.8-3.2-4.1-3.2l-1.3,0c0,4.2,0.1,7.4,0.2,8c0.3,0.9,0.8,1.4,3.5,1.5V223.1z"/>
	<path class="st0" d="M151.2,212.5c0,6.2-5.6,10.9-11.7,10.9c-6.1,0-11.7-4.6-11.7-10.8c0-6.2,5.6-10.9,11.7-10.9
		C145.6,201.7,151.2,206.2,151.2,212.5 M145.2,212.6c0-6-2.4-10.1-5.7-10.1c-3.3,0-5.7,3.9-5.7,9.9c0,6,2.4,10.1,5.7,10.1
		C142.8,222.5,145.2,218.6,145.2,212.6"/>
	<path class="st0" d="M152.1,222.5c1.8,0,2.3-0.4,2.5-1.2c0.3-0.8,0.3-2.8,0.3-8.3v-0.9c0-5.5,0-7.5-0.3-8.3
		c-0.2-0.8-0.8-1.2-2.5-1.2V202c1.5,0,3.4,0.1,5.3,0.1c1.9,0,3.9,0,5.3-0.1v0.5c-1.8,0-2.3,0.4-2.5,1.2c-0.3,0.8-0.3,2.8-0.3,8.3
		v7.3c0,2.2,1.9,2.6,4.2,2.6c3,0,5.2-1.8,6.9-6.8l0.4,0.1c-0.5,3.1-0.8,6-1,7.8c-5.2,0-8.7-0.1-11.4-0.1s-4.7,0-6.9,0.1V222.5z"/>
	<path class="st0" d="M195.9,223.1c-1.9,0-3.7-0.1-5.5-0.1c-1.8,0-3.5,0-5,0.1v-0.6c1-0.1,1.4-0.3,1.4-0.8c0-0.3-0.1-0.6-0.3-0.9
		l-4.2-6.4c-1.1-1.6-1.8-2-2.5-2v0.7c0,5.5,0,7.5,0.3,8.3c0.2,0.7,0.8,1.2,2.5,1.2v0.5c-1.5,0-3.4-0.1-5.3-0.1c-1.9,0-3.8,0-5.3,0.1
		v-0.5c1.8,0,2.3-0.4,2.5-1.2c0.3-0.8,0.3-2.8,0.3-8.3V212c0-5.5,0-7.5-0.3-8.3c-0.2-0.8-0.8-1.2-2.5-1.2V202c1.5,0,3.4,0.1,5.3,0.1
		c1.9,0,3.9,0,5.3-0.1v0.5c-1.8,0-2.3,0.4-2.5,1.2c-0.3,0.8-0.3,2.8-0.3,8.1c0.8,0,1.7-0.2,2.9-1.4l6.1-6.1c0.4-0.4,0.6-0.8,0.6-1
		c0-0.4-0.3-0.6-2.7-0.7V202c1.4,0,2.7,0.1,3.9,0.1c1.3,0,2.5,0,3.9-0.1v0.6c-1.8,0.1-2.8,0.7-4.7,2.5l-4.9,4.6l7.6,10.6
		c1.2,1.7,1.9,2.1,3.5,2.2V223.1z"/>
	<path class="st0" d="M228.3,219.9c-4.3,2.6-8.4,3.6-12.2,3.6c-7.4,0-14.3-4.6-14.3-12.6c0-9.1,7.9-14,15.1-14c3,0,5.2,0.7,7.8,1.9
		l0.9,6.6l-0.4,0.2c-0.7-1.9-1.7-3.7-2.8-4.9c-1.2-1.4-2.9-2.4-5.3-2.4c-4.7,0-8.2,4.6-8.2,11.2c0,6.5,3.5,11.8,10,11.8
		c0.1,0,0.7,0,1.2,0l0-2.5c0-2.9-0.1-4.9-0.7-5.6c-0.6-0.7-1.2-0.9-3.2-1v-0.7c1.8,0,4.1,0.1,6.5,0.1c2.3,0,4.6,0,6.5-0.1v0.7
		c-1.8,0.1-2.4,0.3-2.8,1c-0.2,0.4-0.3,0.9-0.3,3.1v3.7l2.1-0.9L228.3,219.9z"/>
	<path class="st0" d="M250.6,223.6c-3.4,0-5.4-0.9-6.9-2.9c-1.6-2.1-2.4-5.1-3-7.2l-2.9-0.1c0,5.2,0,7.2,0.3,8
		c0.2,0.8,0.8,1.2,2.5,1.2v0.5c-1.5,0-3.4-0.1-5.3-0.1c-1.9,0-3.8,0-5.3,0.1v-0.5c1.8,0,2.3-0.4,2.5-1.2c0.3-0.8,0.3-2.8,0.3-8.3
		v-0.9c0-5.5,0-7.5-0.3-8.3c-0.2-0.8-0.8-1.2-2.6-1.2V202c1.3,0,2.8,0.1,4.3,0.1c2.2,0,4.3-0.1,6.3-0.1c5.2,0,8.8,1.9,8.8,5.6
		c0,3-2.6,4.7-5,5.2c1.3,2.3,3.3,5.3,4.5,6.5c1.9,1.9,3.4,3.3,5.5,3.3v0.2C253.8,223.2,252,223.6,250.6,223.6 M237.9,212.6l3.3-0.1
		c1.1,0,3-1.8,3-4.7c0-3-1.9-4.9-4.6-4.9c-0.5,0-1.6,0.1-1.6,0.1c-0.1,2.2-0.1,4.6-0.1,8.8V212.6z"/>
	<path class="st0" d="M276.4,212.5c0,6.2-5.6,10.9-11.7,10.9s-11.7-4.6-11.7-10.8c0-6.2,5.6-10.9,11.7-10.9S276.4,206.2,276.4,212.5
		 M270.4,212.6c0-6-2.4-10.1-5.7-10.1s-5.7,3.9-5.7,9.9c0,6,2.4,10.1,5.7,10.1S270.4,218.6,270.4,212.6"/>
	<path class="st0" d="M295.7,204.1c-0.4-1-0.8-1.5-3.8-1.6V202c1.4,0,2.9,0.1,4.4,0.1c1.4,0,2.5,0,4.1-0.1v0.5c-2,0-2.5,0.6-2.7,1.5
		c-0.3,0.8-0.4,3.8-0.3,8v3.1c0,5.2-3.7,8.3-8.9,8.3c-4.4,0-8.7-2.5-8.7-8.2V212c0-5.5,0-7.5-0.3-8.3c-0.2-0.8-0.8-1.2-2.5-1.2V202
		c1.5,0,3.4,0.1,5.3,0.1c1.9,0,3.9,0,5.3-0.1v0.5c-1.8,0-2.3,0.4-2.5,1.2c-0.3,0.8-0.3,2.8-0.3,8.3v2.2c0,4.2,2.2,6.5,5.6,6.5
		c3,0,5.8-2,5.8-6.5V212C296,207.8,296,204.8,295.7,204.1"/>
	<path class="st0" d="M300.7,222.5c1.8,0,2.3-0.4,2.5-1.2c0.3-0.8,0.3-2.8,0.3-8.3v-0.9c0-5.5,0-7.5-0.3-8.3
		c-0.2-0.8-0.8-1.2-2.6-1.2V202c1.3,0,2.8,0.1,4.3,0.1c2.2,0,4.2-0.1,5.8-0.1c5.5,0,9.2,2.1,9.2,5.8c0,4.3-4.1,6.1-8.5,6.1
		c-1,0-1.5-0.1-2.2-0.2v-0.3c4.1,0,5.3-2.6,5.3-5.5c0-3.1-1.9-4.8-4.6-4.8c-0.6,0-1.4,0.1-1.4,0.1c-0.1,2.4-0.1,4.8-0.1,9.1v0.9
		c0,4.2,0.1,7.4,0.2,8c0.2,0.9,0.8,1.4,3.5,1.5v0.5c-1.9,0-4.2-0.1-6.2-0.1c-2,0-3.9,0-5.4,0.1V222.5z"/>
	<path class="st0" d="M247,105.7c0,37.7-29,68.7-65.9,71.8c-2,0.2-4.1,0.3-6.1,0.3c-2.1,0-4.1-0.1-6.1-0.3
		c-36.9-3.1-65.9-34.1-65.9-71.8c0-39.8,32.2-72,72-72C214.8,33.7,247,66,247,105.7"/>
	<path class="st1" d="M221.9,153.8l-40.9,9.1c-0.3,0.1-0.5,0.3-0.5,0.6l0.5,14c-2,0.2-4.1,0.3-6.1,0.3c-2.1,0-4.1-0.1-6.1-0.3
		l0.5-14c0-0.3-0.2-0.5-0.5-0.6l-40.9-9.1c-0.7-0.2-0.6-1.2,0.1-1.2h41.1c0.3,0,0.6-0.2,0.6-0.6l0.3-7c0-0.3-0.2-0.5-0.5-0.6
		l-32.8-7.3c-0.7-0.2-0.6-1.2,0.1-1.2H170c0.3,0,0.6-0.3,0.6-0.6l0.3-6.5c0-0.3-0.2-0.6-0.5-0.6l-26.1-5.8c-0.7-0.2-0.6-1.2,0.1-1.2
		h26.2c0.3,0,0.6-0.3,0.6-0.6l0.3-6.5c0-0.3-0.2-0.5-0.5-0.6l-20.6-4.6c-0.7-0.2-0.6-1.2,0.1-1.2h20.6c0.3,0,0.6-0.2,0.6-0.6
		l0.3-6.9c0-0.3-0.2-0.6-0.5-0.6l-16.1-3.6c-0.7-0.2-0.6-1.2,0.1-1.2h16.1c0.3,0,0.6-0.3,0.6-0.6l0.3-6.4c0-0.3-0.2-0.5-0.5-0.6
		l-12.4-2.7c-0.7-0.2-0.6-1.2,0.1-1.2h12.4c0.3,0,0.6-0.3,0.6-0.6l0.3-6.4c0-0.3-0.2-0.6-0.5-0.6l-9.4-2.1c-0.7-0.2-0.6-1.2,0.1-1.2
		h9.3c0.3,0,0.6-0.3,0.6-0.6l0.2-4.9c0-0.3-0.2-0.5-0.5-0.6l-6.9-1.5c-0.7-0.2-0.6-1.2,0.1-1.2h6.8c0.3,0,0.6-0.2,0.6-0.6l0.2-5.4
		c0-0.3-0.2-0.5-0.5-0.6l-4.9-1.1c-0.7-0.2-0.6-1.2,0.1-1.2h4.8c0.3,0,0.6-0.2,0.6-0.6l0.2-5.1c0-0.3-0.2-0.6-0.5-0.6l-3.2-0.7
		c-0.7-0.2-0.6-1.2,0.1-1.2h3.1c0.3,0,0.6-0.2,0.6-0.6l0.2-4.1c0-0.3-0.2-0.6-0.5-0.6l-1.9-0.4c-0.7-0.2-0.6-1.2,0.1-1.2h1.7
		c0.3,0,0.6-0.3,0.6-0.6l0.3-5.7l0.3,5.7c0,0.3,0.3,0.6,0.6,0.6h1.7c0.7,0,0.8,1,0.1,1.2l-1.9,0.4c-0.3,0.1-0.5,0.3-0.5,0.6l0.2,4.1
		c0,0.3,0.3,0.6,0.6,0.6h3.1c0.7,0,0.8,1,0.1,1.2l-3.2,0.7c-0.3,0.1-0.5,0.3-0.5,0.6l0.2,5.1c0,0.3,0.3,0.6,0.6,0.6h4.8
		c0.7,0,0.8,1,0.1,1.2l-4.9,1.1c-0.3,0.1-0.5,0.3-0.5,0.6l0.2,5.4c0,0.3,0.3,0.6,0.6,0.6h6.8c0.7,0,0.8,1,0.1,1.2l-6.9,1.5
		c-0.3,0.1-0.5,0.3-0.5,0.6l0.2,4.9c0,0.3,0.3,0.6,0.6,0.6h9.3c0.7,0,0.8,1,0.1,1.2l-9.4,2.1c-0.3,0.1-0.5,0.3-0.5,0.6l0.3,6.4
		c0,0.3,0.3,0.6,0.6,0.6h12.4c0.7,0,0.8,1,0.1,1.2l-12.4,2.7c-0.3,0.1-0.5,0.3-0.5,0.6l0.3,6.4c0,0.3,0.3,0.6,0.6,0.6h16.1
		c0.7,0,0.8,1,0.1,1.2l-16.1,3.6c-0.3,0.1-0.5,0.3-0.5,0.6l0.3,6.9c0,0.3,0.3,0.6,0.6,0.6h20.6c0.7,0,0.8,1,0.1,1.2l-20.6,4.6
		c-0.3,0.1-0.5,0.3-0.5,0.6l0.3,6.5c0,0.3,0.3,0.6,0.6,0.6h26.2c0.7,0,0.8,1,0.1,1.2l-26.1,5.8c-0.3,0.1-0.5,0.3-0.5,0.6l0.3,6.5
		c0,0.3,0.3,0.6,0.6,0.6h32.9c0.7,0,0.8,1,0.1,1.2l-32.8,7.3c-0.3,0.1-0.5,0.3-0.5,0.6l0.3,7c0,0.3,0.3,0.6,0.6,0.6h41.1
		C222.5,152.6,222.6,153.7,221.9,153.8"/>
</g>
</svg>
