<?xml version="1.0" encoding="utf-8"?>
<!-- Generator: Adobe Illustrator 21.1.0, SVG Export Plug-In . SVG Version: 6.00 Build 0)  -->
<svg version="1.1" id="Layer_1" xmlns="http://www.w3.org/2000/svg" xmlns:xlink="http://www.w3.org/1999/xlink" x="0px" y="0px"
	 viewBox="0 0 350 255.1" style="enable-background:new 0 0 350 255.1;" xml:space="preserve">
<style type="text/css">
	.st0{fill:#1F191A;}
	.st1{fill:#FFFFFF;}
</style>
<g>
	<path class="st0" d="M125.7,168.5l-8.4-8.7v3.3c0,2.2,0.1,3.7,0.2,4.1c0.2,0.5,0.4,0.8,1.9,0.8v0.3c-0.8,0-1.5,0-2.2,0
		c-0.8,0-1.5,0-2.3,0v-0.3c1.1,0,1.4-0.3,1.6-0.8c0.1-0.4,0.1-1.9,0.1-4.1v-4c-0.8-0.8-1.2-1.1-1.8-1.4v-0.3c0.5,0,1,0,1.5,0
		c1,0,1.9,0,2.8-0.1c1.1,1.3,4.1,4.8,6.1,6.8v-1.5c0-2.2-0.1-3.7-0.2-4.1c-0.2-0.5-0.4-0.8-1.9-0.8v-0.3c0.8,0,1.5,0,2.2,0
		c0.7,0,1.3,0,2.1,0v0.3c-1,0-1.3,0.3-1.4,0.8c-0.2,0.4-0.2,2-0.1,4.1L125.7,168.5L125.7,168.5z"/>
	<path class="st0" d="M137.3,163.8c0,2.6-2.4,4.6-4.9,4.6c-2.6,0-4.9-1.9-4.9-4.5s2.4-4.6,4.9-4.6
		C135,159.2,137.3,161.1,137.3,163.8 M134.8,163.8c0-2.5-1-4.2-2.4-4.2s-2.4,1.6-2.4,4.2s1,4.2,2.4,4.2S134.8,166.3,134.8,163.8"/>
	<path class="st0" d="M146.4,168.5c-1.4,0-2.3-0.4-2.9-1.2c-0.7-0.9-1-2.1-1.3-3l-1.2,0c0,2.2,0,3,0.1,3.4c0.1,0.3,0.3,0.5,1.1,0.5
		v0.2c-0.6,0-1.4,0-2.2,0c-0.8,0-1.6,0-2.2,0V168c0.8,0,1-0.2,1.1-0.5c0.1-0.3,0.1-1.2,0.1-3.5v-0.4c0-2.3,0-3.2-0.1-3.5
		c-0.1-0.3-0.4-0.5-1.1-0.5v-0.3c0.5,0,1.2,0,1.8,0c0.9,0,1.8,0,2.6,0c2.2,0,3.7,0.8,3.7,2.4c0,1.3-1.1,2-2.1,2.2
		c0.5,1,1.4,2.2,1.9,2.7c0.8,0.8,1.4,1.4,2.3,1.4v0.1C147.7,168.3,147,168.5,146.4,168.5 M141,163.8l1.4,0c0.5,0,1.3-0.8,1.3-2
		c0-1.3-0.8-2.1-1.9-2.1c-0.2,0-0.7,0-0.7,0c0,0.9,0,1.9,0,3.7C141,163.5,141,163.8,141,163.8z"/>
	<path class="st0" d="M152.6,168.2c-0.8,0-1.7,0-2.6,0c-0.8,0-1.6,0-2.3,0V168c0.8,0,1-0.2,1.1-0.5c0.1-0.3,0.1-1.2,0.1-3.5v-0.5
		c0-2.3,0-3.2-0.1-3.5c-0.1-0.3-0.3-0.5-1.1-0.5v-0.2h3.8c2.9,0,3.5-0.1,3.5-0.1c0,1.1,0.1,1.9,0.2,2.7l-0.1,0
		c-0.4-1.3-0.8-2.3-2.8-2.3c-0.5,0-0.7,0-1.2,0.1c0,0.9-0.1,1.8-0.1,3.7v0.1h0.5c1.4,0,1.7-0.3,1.7-1.3h0.2c0,0.5,0,0.9,0,1.5
		c0,0.6,0,1.1,0,1.5h-0.2c0-1.1-0.3-1.3-1.7-1.3H151c0,1.8,0,3.1,0.1,3.4c0.1,0.4,0.3,0.6,1.5,0.6L152.6,168.2L152.6,168.2z"/>
	<path class="st0" d="M165.3,163.8c0,2.6-2.4,4.6-4.9,4.6c-2.6,0-4.9-1.9-4.9-4.5s2.4-4.6,4.9-4.6S165.3,161.1,165.3,163.8
		 M162.7,163.8c0-2.5-1-4.2-2.4-4.2s-2.4,1.6-2.4,4.2s1,4.2,2.4,4.2S162.7,166.3,162.7,163.8"/>
	<path class="st0" d="M165.6,168c0.8,0,1-0.2,1.1-0.5c0.1-0.3,0.1-1.2,0.1-3.5v-0.4c0-2.3,0-3.2-0.1-3.5c-0.1-0.3-0.3-0.5-1.1-0.5
		v-0.3c0.6,0,1.4,0,2.2,0c0.8,0,1.6,0,2.2,0v0.2c-0.8,0-1,0.2-1.1,0.5c-0.1,0.3-0.1,1.2-0.1,3.5v3.1c0,0.9,0.8,1.1,1.8,1.1
		c1.3,0,2.2-0.8,2.9-2.9l0.2,0c-0.2,1.3-0.3,2.5-0.4,3.3c-2.2,0-3.7,0-4.8,0c-1.1,0-2,0-2.9,0V168z"/>
	<path class="st0" d="M184,168.2c-0.8,0-1.6,0-2.3,0c-0.8,0-1.5,0-2.1,0V168c0.4,0,0.6-0.1,0.6-0.3c0-0.1,0-0.3-0.1-0.4l-1.8-2.7
		c-0.5-0.7-0.8-0.8-1.1-0.8v0.3c0,2.3,0,3.2,0.1,3.5c0.1,0.3,0.3,0.5,1.1,0.5v0.2c-0.6,0-1.4,0-2.2,0c-0.8,0-1.6,0-2.2,0V168
		c0.8,0,1-0.2,1.1-0.5c0.1-0.3,0.1-1.2,0.1-3.5v-0.5c0-2.3,0-3.2-0.1-3.5c-0.1-0.3-0.3-0.5-1.1-0.5v-0.2c0.6,0,1.4,0,2.2,0
		s1.6,0,2.2,0v0.2c-0.8,0-1,0.2-1.1,0.5c-0.1,0.3-0.1,1.2-0.1,3.4c0.3,0,0.7-0.1,1.2-0.6l2.6-2.6c0.2-0.2,0.3-0.3,0.3-0.4
		c0-0.2-0.1-0.3-1.1-0.3v-0.3c0.6,0,1.1,0,1.6,0c0.5,0,1.1,0,1.6,0v0.3c-0.8,0-1.2,0.3-2,1.1l-2.1,1.9l3.2,4.5
		c0.5,0.7,0.8,0.9,1.5,0.9L184,168.2L184,168.2z"/>
	<path class="st0" d="M197.7,166.9c-1.8,1.1-3.5,1.5-5.1,1.5c-3.1,0-6-1.9-6-5.3c0-3.8,3.3-5.9,6.3-5.9c1.3,0,2.2,0.3,3.3,0.8
		l0.4,2.8l-0.2,0.1c-0.3-0.8-0.7-1.6-1.2-2.1c-0.5-0.6-1.2-1-2.2-1c-2,0-3.4,1.9-3.4,4.7c0,2.7,1.5,5,4.2,5c0,0,0.3,0,0.5,0v-1.1
		c0-1.2,0-2.1-0.3-2.4c-0.3-0.3-0.5-0.4-1.3-0.4v-0.3c0.8,0,1.7,0,2.7,0c1,0,1.9,0,2.7,0v0.3c-0.8,0-1,0.1-1.2,0.4
		c-0.1,0.2-0.1,0.4-0.1,1.3v1.6l0.9-0.4L197.7,166.9z"/>
	<path class="st0" d="M207,168.5c-1.4,0-2.3-0.4-2.9-1.2c-0.7-0.9-1-2.1-1.3-3l-1.2,0c0,2.2,0,3,0.1,3.4c0.1,0.3,0.3,0.5,1.1,0.5
		v0.2c-0.6,0-1.4,0-2.2,0c-0.8,0-1.6,0-2.2,0V168c0.8,0,1-0.2,1.1-0.5c0.1-0.3,0.1-1.2,0.1-3.5v-0.4c0-2.3,0-3.2-0.1-3.5
		c-0.1-0.3-0.3-0.5-1.1-0.5v-0.3c0.5,0,1.2,0,1.8,0c0.9,0,1.8,0,2.6,0c2.2,0,3.7,0.8,3.7,2.4c0,1.3-1.1,2-2.1,2.2
		c0.5,1,1.4,2.2,1.9,2.7c0.8,0.8,1.4,1.4,2.3,1.4v0.1C208.4,168.3,207.6,168.5,207,168.5 M201.7,163.8l1.4,0c0.5,0,1.3-0.8,1.3-2
		c0-1.3-0.8-2.1-1.9-2.1c-0.2,0-0.7,0-0.7,0c0,0.9,0,1.9,0,3.7V163.8L201.7,163.8z"/>
	<path class="st0" d="M217.9,163.8c0,2.6-2.4,4.6-4.9,4.6s-4.9-1.9-4.9-4.5s2.4-4.6,4.9-4.6S217.9,161.1,217.9,163.8 M215.4,163.8
		c0-2.5-1-4.2-2.4-4.2c-1.4,0-2.4,1.6-2.4,4.2s1,4.2,2.4,4.2C214.4,168,215.4,166.3,215.4,163.8"/>
	<path class="st0" d="M226,160.3c-0.2-0.4-0.3-0.6-1.6-0.7v-0.2c0.6,0,1.2,0,1.8,0c0.6,0,1.1,0,1.7,0v0.2c-0.8,0-1.1,0.3-1.1,0.6
		c-0.1,0.3-0.2,1.6-0.1,3.4v1.3c0,2.2-1.6,3.5-3.7,3.5c-1.8,0-3.7-1.1-3.7-3.4v-1.3c0-2.3,0-3.2-0.1-3.5c-0.1-0.3-0.3-0.5-1.1-0.5
		v-0.2c0.6,0,1.4,0,2.2,0s1.6,0,2.2,0v0.2c-0.8,0-1,0.2-1.1,0.5c-0.1,0.3-0.1,1.2-0.1,3.5v0.9c0,1.8,0.9,2.7,2.4,2.7
		c1.3,0,2.4-0.8,2.4-2.7v-0.9C226.1,161.8,226.1,160.5,226,160.3"/>
	<path class="st0" d="M228.1,168c0.8,0,1-0.2,1.1-0.5c0.1-0.3,0.1-1.2,0.1-3.5v-0.4c0-2.3,0-3.2-0.1-3.5c-0.1-0.3-0.3-0.5-1.1-0.5
		v-0.3c0.5,0,1.2,0,1.8,0c0.9,0,1.8,0,2.4,0c2.3,0,3.9,0.9,3.9,2.4c0,1.8-1.7,2.6-3.6,2.6c-0.4,0-0.6,0-0.9-0.1v-0.1
		c1.7,0,2.2-1.1,2.2-2.3c0-1.3-0.8-2-1.9-2c-0.3,0-0.6,0-0.6,0c0,1,0,2,0,3.8v0.4c0,1.8,0,3.1,0.1,3.4c0.1,0.4,0.3,0.6,1.5,0.6v0.2
		c-0.8,0-1.8,0-2.6,0c-0.8,0-1.6,0-2.3,0L228.1,168L228.1,168z"/>
	<path class="st0" d="M205.5,118.9c0,15.8-12.2,28.9-27.7,30.2c-0.8,0.1-1.7,0.1-2.6,0.1c-0.9,0-1.7,0-2.6-0.1
		c-15.5-1.3-27.7-14.3-27.7-30.2c0-16.7,13.5-30.3,30.3-30.3C192,88.6,205.5,102.2,205.5,118.9"/>
	<path class="st1" d="M195,139.1l-17.2,3.8c-0.1,0-0.2,0.1-0.2,0.3l0.2,5.9c-0.8,0.1-1.7,0.1-2.6,0.1c-0.9,0-1.7,0-2.6-0.1l0.2-5.9
		c0-0.1-0.1-0.2-0.2-0.3l-17.2-3.8c-0.3-0.1-0.3-0.5,0-0.5h17.3c0.1,0,0.3-0.1,0.3-0.3l0.1-2.9c0-0.1-0.1-0.2-0.2-0.3l-13.8-3.1
		c-0.3-0.1-0.3-0.5,0-0.5h14c0.1,0,0.3-0.1,0.3-0.3l0.1-2.7c0-0.1-0.1-0.3-0.2-0.3l-11-2.4c-0.3-0.1-0.3-0.5,0-0.5h11
		c0.1,0,0.3-0.1,0.3-0.3l0.1-2.7c0-0.1-0.1-0.2-0.2-0.3l-8.7-1.9c-0.3-0.1-0.3-0.5,0-0.5h8.7c0.1,0,0.3-0.1,0.3-0.3l0.1-2.9
		c0-0.1-0.1-0.3-0.2-0.3l-6.8-1.5c-0.3-0.1-0.3-0.5,0-0.5h6.8c0.1,0,0.3-0.1,0.3-0.3l0.1-2.7c0-0.1-0.1-0.2-0.2-0.3l-5.2-1.1
		c-0.3-0.1-0.3-0.5,0-0.5h5.2c0.1,0,0.3-0.1,0.3-0.3l0.1-2.7c0-0.1-0.1-0.3-0.2-0.3l-4-0.9c-0.3-0.1-0.3-0.5,0-0.5h3.9
		c0.1,0,0.3-0.1,0.3-0.3l0.1-2.1c0-0.1-0.1-0.2-0.2-0.3l-2.9-0.6c-0.3-0.1-0.3-0.5,0-0.5h2.9c0.1,0,0.3-0.1,0.3-0.3l0.1-2.3
		c0-0.1-0.1-0.2-0.2-0.3l-2.1-0.5c-0.3-0.1-0.3-0.5,0-0.5h2c0.1,0,0.3-0.1,0.3-0.3l0.1-2.1c0-0.1-0.1-0.3-0.2-0.3l-1.3-0.3
		c-0.3-0.1-0.3-0.5,0-0.5h1.3c0.1,0,0.3-0.1,0.3-0.3l0.1-1.7c0-0.1-0.1-0.3-0.2-0.3l-0.8-0.2c-0.3-0.1-0.3-0.5,0-0.5h0.7
		c0.1,0,0.3-0.1,0.3-0.3l0.1-2.4l0.1,2.4c0,0.1,0.1,0.3,0.3,0.3h0.7c0.3,0,0.3,0.4,0,0.5l-0.8,0.2c-0.1,0-0.2,0.1-0.2,0.3l0.1,1.7
		c0,0.1,0.1,0.3,0.3,0.3h1.3c0.3,0,0.3,0.4,0,0.5l-1.3,0.3c-0.1,0-0.2,0.1-0.2,0.3l0.1,2.1c0,0.1,0.1,0.3,0.3,0.3h2
		c0.3,0,0.3,0.4,0,0.5l-2.1,0.5c-0.1,0-0.2,0.1-0.2,0.3l0.1,2.3c0,0.1,0.1,0.3,0.3,0.3h2.9c0.3,0,0.3,0.4,0,0.5l-2.9,0.6
		c-0.1,0-0.2,0.1-0.2,0.3l0.1,2.1c0,0.1,0.1,0.3,0.3,0.3h3.9c0.3,0,0.3,0.4,0,0.5l-4,0.9c-0.1,0-0.2,0.1-0.2,0.3l0.1,2.7
		c0,0.1,0.1,0.3,0.3,0.3h5.2c0.3,0,0.3,0.4,0,0.5l-5.2,1.1c-0.1,0-0.2,0.1-0.2,0.3l0.1,2.7c0,0.1,0.1,0.3,0.3,0.3h6.8
		c0.3,0,0.3,0.4,0,0.5l-6.8,1.5c-0.1,0-0.2,0.1-0.2,0.3l0.1,2.9c0,0.1,0.1,0.3,0.3,0.3h8.7c0.3,0,0.3,0.4,0,0.5l-8.7,1.9
		c-0.1,0-0.2,0.1-0.2,0.3l0.1,2.7c0,0.1,0.1,0.3,0.3,0.3h11c0.3,0,0.3,0.4,0,0.5l-11,2.4c-0.1,0-0.2,0.1-0.2,0.3l0.1,2.7
		c0,0.1,0.1,0.3,0.3,0.3h13.8c0.3,0,0.3,0.4,0,0.5l-13.8,3.1c-0.1,0-0.2,0.1-0.2,0.3l0.1,2.9c0,0.1,0.1,0.3,0.3,0.3h17.3
		C195.2,138.6,195.3,139.1,195,139.1"/>
</g>
</svg>
