<?xml version="1.0" encoding="utf-8"?>
<!-- Generator: Adobe Illustrator 21.1.0, SVG Export Plug-In . SVG Version: 6.00 Build 0)  -->
<svg version="1.1" id="Layer_1" xmlns="http://www.w3.org/2000/svg" xmlns:xlink="http://www.w3.org/1999/xlink" x="0px" y="0px"
	 viewBox="0 0 350 255.1" style="enable-background:new 0 0 350 255.1;" xml:space="preserve">
<style type="text/css">
	.st0{fill:#1F191A;}
	.st1{fill:#FFFFFF;}
</style>
<g>
	<path class="st0" d="M56.1,224.6l-20.1-20.9v7.9c0,5.2,0.2,9,0.4,9.8c0.4,1.3,0.9,1.8,4.7,1.9v0.7c-1.8,0-3.6-0.1-5.4-0.1
		c-1.8,0-3.6,0-5.4,0.1v-0.7c2.7,0,3.4-0.7,3.8-1.8c0.3-1,0.3-4.7,0.3-9.9v-9.6c-1.9-1.9-2.8-2.7-4.4-3.4v-0.7
		c1.1,0,2.3,0.1,3.5,0.1c2.4,0,4.7-0.1,6.6-0.2c2.6,3.1,9.8,11.5,14.6,16.2v-3.7c0-5.2-0.2-9-0.5-9.8c-0.5-1.3-1-1.8-4.7-1.9v-0.7
		c1.8,0,3.6,0.1,5.4,0.1c1.7,0,3.1,0,5.1-0.1v0.7c-2.3,0-3.1,0.7-3.4,1.8c-0.4,1-0.4,4.7-0.4,9.9l0,14.1L56.1,224.6z"/>
	<path class="st0" d="M84.2,213.4c0,6.3-5.6,11-11.8,11s-11.8-4.6-11.8-10.9c0-6.3,5.6-11,11.8-11S84.2,207.1,84.2,213.4
		 M78.1,213.5c0-6-2.4-10.2-5.8-10.2s-5.8,3.9-5.8,10c0,6,2.4,10.2,5.8,10.2S78.1,219.6,78.1,213.5"/>
	<path class="st0" d="M105.9,224.6c-3.5,0-5.4-0.9-7-3c-1.6-2.1-2.4-5.2-3-7.3l-2.9-0.1c0,5.3,0,7.2,0.3,8c0.3,0.8,0.8,1.2,2.6,1.2
		v0.5c-1.5,0-3.5-0.1-5.4-0.1c-1.9,0-3.9,0-5.4,0.1v-0.5c1.8,0,2.3-0.4,2.6-1.2c0.3-0.8,0.3-2.9,0.3-8.4V213c0-5.6,0-7.6-0.3-8.4
		c-0.3-0.8-0.9-1.2-2.7-1.2v-0.5c1.3,0,2.8,0.1,4.4,0.1c2.2,0,4.4-0.1,6.4-0.1c5.3,0,8.9,1.9,8.9,5.7c0,3-2.6,4.7-5,5.2
		c1.3,2.3,3.4,5.4,4.6,6.6c1.9,1.9,3.5,3.4,5.6,3.4v0.2C109.1,224.2,107.3,224.6,105.9,224.6 M93,213.6l3.3-0.1c1.1,0,3-1.8,3-4.8
		c0-3.1-1.9-4.9-4.6-4.9c-0.5,0-1.7,0.1-1.7,0.1c-0.1,2.2-0.1,4.6-0.1,8.9V213.6z"/>
	<path class="st0" d="M120.7,224.1c-2,0-4.2-0.1-6.2-0.1c-2,0-3.9,0-5.5,0.1v-0.5c1.8,0,2.3-0.4,2.6-1.2c0.3-0.8,0.3-2.9,0.3-8.4v-1
		c0-5.6,0-7.6-0.3-8.4c-0.3-0.8-0.8-1.2-2.7-1.2v-0.5h9.1c7,0,8.4-0.2,8.4-0.2c0.1,2.5,0.2,4.6,0.5,6.6l-0.3,0.1
		c-1-3.3-2.1-5.4-6.7-5.4c-1.2,0-1.7,0.1-2.8,0.4c-0.1,2.3-0.2,4.4-0.2,8.8v0.2h1.3c3.3,0,4-0.7,4.1-3.2h0.5
		c-0.1,1.1-0.1,2.3-0.1,3.7c0,1.4,0,2.5,0.1,3.7h-0.5c-0.1-2.5-0.8-3.2-4.1-3.2l-1.3,0c0,4.3,0.1,7.4,0.3,8.1c0.3,1,0.8,1.4,3.5,1.5
		V224.1z"/>
	<path class="st0" d="M151.3,213.4c0,6.3-5.6,11-11.8,11c-6.2,0-11.8-4.6-11.8-10.9c0-6.3,5.6-11,11.8-11
		C145.7,202.5,151.3,207.1,151.3,213.4 M145.2,213.5c0-6-2.4-10.2-5.8-10.2s-5.8,3.9-5.8,10c0,6,2.4,10.2,5.8,10.2
		S145.2,219.6,145.2,213.5"/>
	<path class="st0" d="M152.2,223.5c1.8,0,2.3-0.4,2.6-1.2c0.3-0.8,0.3-2.9,0.3-8.4v-1c0-5.6,0-7.6-0.3-8.4c-0.3-0.8-0.8-1.2-2.6-1.2
		v-0.5c1.5,0,3.5,0.1,5.4,0.1c1.9,0,3.9,0,5.4-0.1v0.5c-1.8,0-2.3,0.4-2.6,1.2c-0.3,0.8-0.3,2.9-0.3,8.4v7.3c0,2.2,1.9,2.6,4.3,2.6
		c3,0,5.3-1.8,6.9-6.8l0.4,0.1c-0.5,3.1-0.8,6.1-1,7.9c-5.3,0-8.8-0.1-11.6-0.1s-4.8,0-7,0.1V223.5z"/>
	<path class="st0" d="M196.5,224.1c-1.9,0-3.8-0.1-5.6-0.1c-1.8,0-3.5,0-5.1,0.1v-0.6c1-0.1,1.4-0.4,1.4-0.8c0-0.3-0.1-0.6-0.4-1
		l-4.3-6.5c-1.1-1.7-1.8-2-2.5-2v0.7c0,5.6,0,7.6,0.3,8.4c0.3,0.8,0.8,1.2,2.6,1.2v0.5c-1.5,0-3.5-0.1-5.4-0.1c-1.9,0-3.9,0-5.4,0.1
		v-0.5c1.8,0,2.3-0.4,2.6-1.2c0.3-0.8,0.3-2.9,0.3-8.4v-1c0-5.6,0-7.6-0.3-8.4c-0.3-0.8-0.8-1.2-2.6-1.2v-0.5c1.5,0,3.5,0.1,5.4,0.1
		c1.9,0,3.9,0,5.4-0.1v0.5c-1.8,0-2.3,0.4-2.6,1.2c-0.3,0.8-0.3,2.9-0.3,8.2c0.8,0,1.7-0.2,2.9-1.4l6.2-6.2c0.4-0.4,0.6-0.8,0.6-1
		c0-0.4-0.3-0.6-2.7-0.7v-0.6c1.4,0,2.7,0.1,3.9,0.1c1.3,0,2.5,0,3.9-0.1v0.6c-1.8,0.1-2.8,0.7-4.8,2.6l-4.9,4.6l7.7,10.7
		c1.2,1.8,2,2.1,3.6,2.2V224.1z"/>
	<path class="st0" d="M233.5,224.1c-1.8,0-4.2-0.1-6.6-0.1c-2.4,0-4.7,0-6.6,0.1v-0.7c2.2,0,2.8-0.5,3.1-1.5c0.4-1,0.4-3.5,0.4-10.3
		v-0.3c-1.6,0-3,0-4.7,0h-3.3c-1.5,0-2.7,0-4,0v0.3c0,6.8,0,9.3,0.4,10.3c0.3,0.9,0.9,1.4,3.1,1.5v0.7c-1.8,0-4.2-0.1-6.6-0.1
		c-2.4,0-4.7,0-6.6,0.1v-0.7c2.2,0,2.8-0.5,3.1-1.5c0.4-1,0.4-3.5,0.4-10.3v-1.2c0-6.8,0-9.3-0.4-10.3c-0.3-0.9-0.9-1.4-3.1-1.5
		v-0.7c1.9,0,4.2,0.1,6.6,0.1c2.4,0,4.8,0,6.6-0.1v0.7c-2.2,0-2.8,0.5-3.1,1.5c-0.4,1-0.4,3.5-0.4,9.9c1.3,0,2.6,0,4,0h3.3
		c1.7,0,3.1,0,4.7,0c0-6.5,0-8.9-0.4-9.9c-0.3-0.9-0.9-1.4-3.1-1.5v-0.7c1.9,0,4.2,0.1,6.6,0.1c2.4,0,4.8,0,6.6-0.1v0.7
		c-2.2,0-2.8,0.5-3.1,1.5c-0.4,1-0.4,3.5-0.4,10.3v1.2c0,6.8,0,9.3,0.4,10.3c0.3,0.9,0.9,1.4,3.1,1.5V224.1z"/>
	<path class="st0" d="M258.1,213.4c0,6.3-5.6,11-11.8,11s-11.8-4.6-11.8-10.9c0-6.3,5.6-11,11.8-11S258.1,207.1,258.1,213.4
		 M252.1,213.5c0-6-2.4-10.2-5.8-10.2s-5.8,3.9-5.8,10c0,6,2.4,10.2,5.8,10.2S252.1,219.6,252.1,213.5"/>
	<path class="st0" d="M276,224.1c-1.7,0-3.8-0.1-5.8-0.1c-2.1,0-4.1,0-5.8,0.1v-0.6c2.2,0,2.8-0.4,3-1.3c0.2-0.7,0.2-3.9,0.2-8.2
		v-4.2c0-3.6-0.1-6.1-0.1-6.1l-2.4,0.1c-2.9,0.1-4.7,2.4-5.8,6.3l-0.4-0.1c0.2-1.8,0.5-5.1,0.5-7.4c0,0,1.7,0.3,5.9,0.3h9.5
		c4.3,0,5.9-0.3,5.9-0.3c0,2.4,0.3,5.6,0.5,7.4L281,210c-1.1-3.8-3-6.2-5.8-6.3l-2.4-0.1c0,0-0.1,2.6-0.1,6.1v4.2
		c0,4.3,0,7.5,0.2,8.2c0.3,1,0.8,1.3,3.1,1.3V224.1z"/>
	<path class="st0" d="M300.9,224.1c-4.8,0-8.4-0.1-11.4-0.1c-3,0-5.3,0-7.5,0.1v-0.5c1.8,0,2.3-0.4,2.6-1.2c0.3-0.8,0.3-2.9,0.3-8.4
		v-1c0-5.6,0-7.6-0.3-8.4c-0.3-0.8-0.8-1.2-2.7-1.2v-0.5h9.4c6.9,0,8.3-0.2,8.3-0.2c0.1,2.5,0.2,4.1,0.5,6.1l-0.4,0.1
		c-1-3.4-2.6-4.9-6.6-4.9c-1.2,0-1.9,0.1-3.1,0.4c-0.1,2.3-0.1,4.4-0.1,8.7l1.5,0c3.3,0,4-0.7,4.1-3.2h0.5c-0.1,1.1-0.1,2.3-0.1,3.7
		c0,1.4,0,2.5,0.1,3.7h-0.5c-0.1-2.5-0.8-3.2-4.1-3.2l-1.5,0v6.6c0,2.2,1.9,2.6,4.3,2.6c3.4,0,5.9-2.2,7.2-6.5l0.4,0.1
		C301.3,219.6,301.1,222.3,300.9,224.1"/>
	<path class="st0" d="M302.5,223.5c1.8,0,2.3-0.4,2.6-1.2c0.3-0.8,0.3-2.9,0.3-8.4v-1c0-5.6,0-7.6-0.3-8.4c-0.3-0.8-0.8-1.2-2.6-1.2
		v-0.5c1.5,0,3.5,0.1,5.4,0.1s3.9,0,5.4-0.1v0.5c-1.8,0-2.3,0.4-2.6,1.2c-0.3,0.8-0.3,2.9-0.3,8.4v7.3c0,2.2,1.9,2.6,4.3,2.6
		c3,0,5.3-1.8,6.9-6.8l0.4,0.1c-0.5,3.1-0.8,6.1-1,7.9c-5.3,0-8.8-0.1-11.6-0.1s-4.8,0-7,0.1V223.5z"/>
	<path class="st0" d="M248.1,105.5c0,38.1-29.3,69.4-66.6,72.5c-2,0.2-4.1,0.3-6.2,0.3c-2.1,0-4.2-0.1-6.2-0.3
		c-37.3-3.1-66.6-34.4-66.6-72.5c0-40.2,32.6-72.8,72.8-72.8C215.5,32.7,248.1,65.3,248.1,105.5"/>
	<path class="st1" d="M222.8,154.1l-41.3,9.2c-0.3,0.1-0.5,0.3-0.5,0.6l0.6,14.2c-2,0.2-4.1,0.3-6.2,0.3c-2.1,0-4.1-0.1-6.2-0.3
		l0.5-14.2c0-0.3-0.2-0.5-0.5-0.6l-41.3-9.2c-0.7-0.2-0.6-1.2,0.1-1.2h41.5c0.3,0,0.6-0.3,0.6-0.6l0.3-7.1c0-0.3-0.2-0.6-0.5-0.6
		l-33.1-7.3c-0.7-0.2-0.6-1.2,0.1-1.2h33.3c0.3,0,0.6-0.3,0.6-0.6l0.3-6.6c0-0.3-0.2-0.6-0.5-0.6l-26.4-5.8
		c-0.7-0.2-0.6-1.2,0.1-1.2h26.5c0.3,0,0.6-0.3,0.6-0.6l0.3-6.5c0-0.3-0.2-0.6-0.5-0.6l-20.8-4.6c-0.7-0.2-0.6-1.2,0.1-1.2h20.8
		c0.3,0,0.6-0.3,0.6-0.6l0.3-6.9c0-0.3-0.2-0.6-0.5-0.6L155.7,96c-0.7-0.2-0.6-1.2,0.1-1.2h16.3c0.3,0,0.6-0.3,0.6-0.6l0.3-6.4
		c0-0.3-0.2-0.6-0.5-0.6l-12.5-2.8c-0.7-0.2-0.6-1.2,0.1-1.2h12.5c0.3,0,0.6-0.3,0.6-0.6l0.3-6.5c0-0.3-0.2-0.6-0.5-0.6l-9.5-2.1
		c-0.7-0.2-0.6-1.2,0.1-1.2h9.4c0.3,0,0.6-0.3,0.6-0.6l0.2-5c0-0.3-0.2-0.5-0.5-0.6l-7-1.5c-0.7-0.2-0.6-1.2,0.1-1.2h6.9
		c0.3,0,0.6-0.3,0.6-0.6l0.2-5.5c0-0.3-0.2-0.5-0.5-0.6l-4.9-1.1c-0.7-0.2-0.6-1.2,0.1-1.2h4.8c0.3,0,0.6-0.3,0.6-0.6l0.2-5.2
		c0-0.3-0.2-0.6-0.5-0.6l-3.3-0.7c-0.7-0.2-0.6-1.2,0.1-1.2h3.2c0.3,0,0.6-0.3,0.6-0.6l0.2-4.1c0-0.3-0.2-0.6-0.5-0.6l-1.9-0.4
		c-0.7-0.2-0.6-1.2,0.1-1.2h1.8c0.3,0,0.6-0.3,0.6-0.6l0.3-5.8l0.3,5.8c0,0.3,0.3,0.6,0.6,0.6h1.8c0.7,0,0.8,1,0.1,1.2l-1.9,0.4
		c-0.3,0.1-0.5,0.3-0.5,0.6l0.2,4.1c0,0.3,0.3,0.6,0.6,0.6h3.2c0.7,0,0.8,1,0.1,1.2l-3.3,0.7c-0.3,0.1-0.5,0.3-0.5,0.6l0.2,5.2
		c0,0.3,0.3,0.6,0.6,0.6h4.8c0.7,0,0.8,1,0.1,1.2l-4.9,1.1c-0.3,0.1-0.5,0.3-0.5,0.6l0.2,5.5c0,0.3,0.3,0.6,0.6,0.6h6.9
		c0.7,0,0.8,1,0.1,1.2l-7,1.5c-0.3,0.1-0.5,0.3-0.5,0.6l0.2,5c0,0.3,0.3,0.6,0.6,0.6h9.4c0.7,0,0.8,1,0.1,1.2l-9.5,2.1
		c-0.3,0.1-0.5,0.3-0.5,0.6l0.3,6.5c0,0.3,0.3,0.6,0.6,0.6h12.5c0.7,0,0.8,1,0.1,1.2l-12.5,2.8c-0.3,0.1-0.5,0.3-0.5,0.6l0.3,6.4
		c0,0.3,0.3,0.6,0.6,0.6h16.3c0.7,0,0.8,1,0.1,1.2l-16.3,3.6c-0.3,0.1-0.5,0.3-0.5,0.6l0.3,6.9c0,0.3,0.3,0.6,0.6,0.6H200
		c0.7,0,0.8,1,0.1,1.2l-20.8,4.6c-0.3,0.1-0.5,0.3-0.5,0.6l0.3,6.5c0,0.3,0.3,0.6,0.6,0.6h26.5c0.7,0,0.8,1,0.1,1.2l-26.4,5.8
		c-0.3,0.1-0.5,0.3-0.5,0.6l0.3,6.6c0,0.3,0.3,0.6,0.6,0.6h33.3c0.7,0,0.8,1,0.1,1.2l-33.1,7.3c-0.3,0.1-0.5,0.3-0.5,0.6l0.3,7.1
		c0,0.3,0.3,0.6,0.6,0.6h41.5C223.4,152.9,223.5,153.9,222.8,154.1"/>
</g>
</svg>
