<?xml version="1.0" encoding="utf-8"?>
<!-- Generator: Adobe Illustrator 21.1.0, SVG Export Plug-In . SVG Version: 6.00 Build 0)  -->
<svg version="1.1" id="Layer_1" xmlns="http://www.w3.org/2000/svg" xmlns:xlink="http://www.w3.org/1999/xlink" x="0px" y="0px"
	 viewBox="0 0 350 255.1" style="enable-background:new 0 0 350 255.1;" xml:space="preserve">
<style type="text/css">
	.st0{fill:#1F191A;}
	.st1{fill:#FFFFFF;}
</style>
<g>
	<path class="st0" d="M126,168.6l-8.4-8.7v3.3c0,2.2,0.1,3.8,0.2,4.1c0.2,0.5,0.4,0.8,2,0.8v0.3c-0.8,0-1.5,0-2.3,0s-1.5,0-2.3,0
		v-0.3c1.1,0,1.4-0.3,1.6-0.8c0.1-0.4,0.1-2,0.1-4.1v-4c-0.8-0.8-1.2-1.1-1.8-1.4v-0.3c0.5,0,1,0,1.5,0c1,0,2,0,2.8-0.1
		c1.1,1.3,4.1,4.8,6.1,6.8v-1.5c0-2.2-0.1-3.8-0.2-4.1c-0.2-0.5-0.4-0.8-2-0.8v-0.3c0.8,0,1.5,0,2.3,0c0.7,0,1.3,0,2.1,0v0.3
		c-1,0-1.3,0.3-1.4,0.8c-0.2,0.4-0.2,2-0.2,4.1L126,168.6L126,168.6z"/>
	<path class="st0" d="M137.7,164c0,2.6-2.3,4.6-4.9,4.6c-2.6,0-4.9-1.9-4.9-4.5c0-2.6,2.3-4.6,4.9-4.6
		C135.4,159.4,137.7,161.4,137.7,164 M135.2,164c0-2.5-1-4.3-2.4-4.3c-1.4,0-2.4,1.6-2.4,4.2c0,2.5,1,4.3,2.4,4.3
		C134.2,168.2,135.2,166.6,135.2,164"/>
	<path class="st0" d="M146.8,168.6c-1.5,0-2.3-0.4-2.9-1.3c-0.7-0.9-1-2.2-1.3-3l-1.2,0c0,2.2,0,3,0.1,3.3c0.1,0.3,0.3,0.5,1.1,0.5
		v0.2c-0.6,0-1.5,0-2.3,0s-1.6,0-2.3,0v-0.2c0.8,0,1-0.2,1.1-0.5c0.1-0.3,0.1-1.2,0.1-3.5v-0.3c0-2.3,0-3.2-0.1-3.5
		c-0.1-0.3-0.4-0.5-1.1-0.5v-0.2c0.5,0,1.2,0,1.8,0c0.9,0,1.8,0,2.7,0c2.2,0,3.7,0.8,3.7,2.4c0,1.3-1.1,2-2.1,2.2
		c0.5,1,1.4,2.3,1.9,2.8c0.8,0.8,1.5,1.4,2.3,1.4v0.1C148.1,168.5,147.4,168.6,146.8,168.6 M141.4,164.1l1.4,0c0.5,0,1.3-0.8,1.3-2
		c0-1.3-0.8-2-1.9-2c-0.2,0-0.7,0-0.7,0c0,0.9,0,1.9,0,3.7L141.4,164.1L141.4,164.1z"/>
	<path class="st0" d="M152.9,168.4c-0.8,0-1.8,0-2.6,0c-0.8,0-1.6,0-2.3,0v-0.2c0.8,0,1-0.2,1.1-0.5c0.1-0.3,0.1-1.2,0.1-3.5v-0.4
		c0-2.3,0-3.2-0.1-3.5c-0.1-0.3-0.3-0.5-1.1-0.5v-0.2h3.8c2.9,0,3.5-0.1,3.5-0.1c0,1,0.1,1.9,0.2,2.8l-0.1,0
		c-0.4-1.4-0.9-2.3-2.8-2.3c-0.5,0-0.7,0-1.2,0.2c0,1-0.1,1.8-0.1,3.7v0.1h0.5c1.4,0,1.7-0.3,1.7-1.3h0.2c0,0.5,0,1,0,1.5s0,1,0,1.5
		h-0.2c0-1-0.3-1.3-1.7-1.3h-0.5c0,1.8,0,3.1,0.1,3.4C151.6,168.2,151.8,168.4,152.9,168.4C152.9,168.4,152.9,168.4,152.9,168.4z"/>
	<path class="st0" d="M165.7,164c0,2.6-2.3,4.6-4.9,4.6c-2.6,0-4.9-1.9-4.9-4.5c0-2.6,2.3-4.6,4.9-4.6
		C163.4,159.4,165.7,161.4,165.7,164 M163.2,164c0-2.5-1-4.3-2.4-4.3c-1.4,0-2.4,1.6-2.4,4.2c0,2.5,1,4.3,2.4,4.3
		C162.2,168.2,163.2,166.6,163.2,164"/>
	<path class="st0" d="M166.1,168.2c0.8,0,1-0.2,1.1-0.5c0.1-0.3,0.1-1.2,0.1-3.5v-0.4c0-2.3,0-3.2-0.1-3.5c-0.1-0.3-0.3-0.5-1.1-0.5
		v-0.2c0.6,0,1.5,0,2.3,0c0.8,0,1.6,0,2.3,0v0.2c-0.8,0-1,0.2-1.1,0.5s-0.1,1.2-0.1,3.5v3c0,0.9,0.8,1.1,1.8,1.1
		c1.3,0,2.2-0.8,2.9-2.8l0.2,0c-0.2,1.3-0.3,2.5-0.4,3.3c-2.2,0-3.7,0-4.8,0c-1.2,0-2,0-2.9,0L166.1,168.2L166.1,168.2z"/>
	<path class="st0" d="M184.5,168.4c-0.8,0-1.6,0-2.3,0c-0.8,0-1.5,0-2.1,0v-0.3c0.4,0,0.6-0.2,0.6-0.3c0-0.1,0-0.3-0.2-0.4l-1.8-2.7
		c-0.5-0.7-0.8-0.8-1-0.8v0.3c0,2.3,0,3.2,0.1,3.5c0.1,0.3,0.3,0.5,1.1,0.5v0.2c-0.6,0-1.5,0-2.3,0c-0.8,0-1.6,0-2.3,0v-0.2
		c0.8,0,1-0.2,1.1-0.5c0.1-0.3,0.1-1.2,0.1-3.5v-0.4c0-2.3,0-3.2-0.1-3.5c-0.1-0.3-0.3-0.5-1.1-0.5v-0.2c0.6,0,1.5,0,2.3,0
		c0.8,0,1.6,0,2.3,0v0.2c-0.8,0-1,0.2-1.1,0.5c-0.1,0.3-0.1,1.2-0.1,3.4c0.3,0,0.7-0.1,1.2-0.6l2.6-2.6c0.2-0.2,0.3-0.3,0.3-0.4
		c0-0.2-0.1-0.3-1.1-0.3v-0.3c0.6,0,1.1,0,1.6,0c0.5,0,1,0,1.6,0v0.3c-0.8,0-1.2,0.3-2,1.1l-2,1.9l3.2,4.5c0.5,0.8,0.8,0.9,1.5,0.9
		L184.5,168.4L184.5,168.4z"/>
	<path class="st0" d="M200,168.4c-0.8,0-1.8,0-2.8,0s-2,0-2.8,0v-0.3c0.9,0,1.2-0.2,1.3-0.6c0.2-0.4,0.2-1.5,0.2-4.3v-0.1
		c-0.7,0-1.3,0-2,0h-1.4c-0.6,0-1.1,0-1.7,0v0.1c0,2.8,0,3.9,0.2,4.3c0.1,0.4,0.4,0.6,1.3,0.6v0.3c-0.8,0-1.8,0-2.8,0
		c-1,0-2,0-2.8,0v-0.3c0.9,0,1.2-0.2,1.3-0.6c0.2-0.4,0.2-1.5,0.2-4.3v-0.5c0-2.8,0-3.9-0.2-4.3c-0.1-0.4-0.4-0.6-1.3-0.6v-0.3
		c0.8,0,1.8,0,2.8,0s2,0,2.8,0v0.3c-0.9,0-1.2,0.2-1.3,0.6c-0.2,0.4-0.2,1.5-0.2,4.1c0.5,0,1.1,0,1.7,0h1.4c0.7,0,1.3,0,2,0
		c0-2.7,0-3.7-0.2-4.1c-0.1-0.4-0.4-0.6-1.3-0.6v-0.3c0.8,0,1.8,0,2.8,0c1,0,2,0,2.8,0v0.3c-0.9,0-1.2,0.2-1.3,0.6
		c-0.2,0.4-0.2,1.5-0.2,4.3v0.5c0,2.8,0,3.9,0.2,4.3c0.1,0.4,0.4,0.6,1.3,0.6V168.4z"/>
	<path class="st0" d="M210.2,164c0,2.6-2.3,4.6-4.9,4.6c-2.6,0-4.9-1.9-4.9-4.5c0-2.6,2.3-4.6,4.9-4.6
		C207.9,159.4,210.2,161.4,210.2,164 M207.7,164c0-2.5-1-4.3-2.4-4.3c-1.4,0-2.4,1.6-2.4,4.2c0,2.5,1,4.3,2.4,4.3
		C206.7,168.2,207.7,166.6,207.7,164"/>
	<path class="st0" d="M217.7,168.4c-0.7,0-1.6,0-2.4,0c-0.9,0-1.7,0-2.4,0v-0.3c0.9,0,1.2-0.2,1.3-0.5c0.1-0.3,0.1-1.6,0.1-3.4v-1.8
		c0-1.5,0-2.5,0-2.5l-1,0c-1.2,0-2,1-2.4,2.6l-0.2,0c0.1-0.8,0.2-2.1,0.2-3.1c0,0,0.7,0.1,2.5,0.1h4c1.8,0,2.5-0.1,2.5-0.1
		c0,1,0.1,2.3,0.2,3.1h-0.1c-0.5-1.6-1.3-2.6-2.4-2.6l-1,0c0,0,0,1.1,0,2.5v1.8c0,1.8,0,3.1,0.1,3.4c0.1,0.4,0.3,0.5,1.3,0.5
		L217.7,168.4L217.7,168.4z"/>
	<path class="st0" d="M228.1,168.4c-2,0-3.5,0-4.8,0s-2.2,0-3.1,0v-0.2c0.8,0,1-0.2,1.1-0.5c0.1-0.3,0.1-1.2,0.1-3.5v-0.4
		c0-2.3,0-3.2-0.1-3.5c-0.1-0.3-0.3-0.5-1.1-0.5v-0.2h3.9c2.9,0,3.5-0.1,3.5-0.1c0,1,0.1,1.7,0.2,2.5l-0.2,0c-0.4-1.4-1.1-2-2.8-2
		c-0.5,0-0.8,0-1.3,0.2c0,1,0,1.8,0,3.6h0.6c1.4,0,1.7-0.3,1.7-1.3h0.2c0,0.5,0,1,0,1.5c0,0.6,0,1,0,1.5h-0.2c0-1-0.3-1.3-1.7-1.3
		h-0.6v2.8c0,0.9,0.8,1.1,1.8,1.1c1.4,0,2.5-0.9,3-2.7l0.2,0C228.2,166.6,228.2,167.7,228.1,168.4"/>
	<path class="st0" d="M228.7,168.2c0.8,0,1-0.2,1.1-0.5c0.1-0.3,0.1-1.2,0.1-3.5v-0.4c0-2.3,0-3.2-0.1-3.5c-0.1-0.3-0.3-0.5-1.1-0.5
		v-0.2c0.6,0,1.5,0,2.3,0c0.8,0,1.6,0,2.3,0v0.2c-0.8,0-1,0.2-1.1,0.5s-0.1,1.2-0.1,3.5v3c0,0.9,0.8,1.1,1.8,1.1
		c1.3,0,2.2-0.8,2.9-2.8l0.2,0c-0.2,1.3-0.3,2.5-0.4,3.3c-2.2,0-3.7,0-4.8,0s-2,0-2.9,0L228.7,168.2L228.7,168.2z"/>
	<path class="st0" d="M206.1,119c0,15.9-12.2,28.9-27.8,30.2c-0.8,0.1-1.7,0.1-2.6,0.1s-1.8,0-2.6-0.1
		c-15.5-1.3-27.8-14.3-27.8-30.2c0-16.8,13.6-30.3,30.3-30.3S206.1,102.2,206.1,119"/>
	<path class="st1" d="M195.5,139.3l-17.2,3.8c-0.1,0-0.2,0.1-0.2,0.3l0.3,5.9c-0.8,0.1-1.7,0.1-2.6,0.1s-1.7,0-2.6-0.1l0.2-5.9
		c0-0.1-0.1-0.2-0.2-0.3l-17.2-3.8c-0.3-0.1-0.3-0.5,0-0.5h17.3c0.1,0,0.3-0.1,0.3-0.3l0.1-3c0-0.1-0.1-0.3-0.2-0.3l-13.8-3
		c-0.3-0.1-0.3-0.5,0-0.5h13.9c0.1,0,0.3-0.1,0.3-0.3l0.1-2.8c0-0.1-0.1-0.3-0.2-0.3l-11-2.4c-0.3-0.1-0.3-0.5,0-0.5h11
		c0.1,0,0.3-0.1,0.3-0.3l0.1-2.7c0-0.1-0.1-0.3-0.2-0.3l-8.7-1.9c-0.3-0.1-0.3-0.5,0-0.5h8.7c0.1,0,0.3-0.1,0.3-0.3l0.1-2.9
		c0-0.1-0.1-0.3-0.2-0.3l-6.7-1.5c-0.3-0.1-0.3-0.5,0-0.5h6.8c0.1,0,0.3-0.1,0.3-0.3l0.1-2.7c0-0.1-0.1-0.3-0.2-0.3l-5.2-1.2
		c-0.3-0.1-0.3-0.5,0-0.5h5.2c0.1,0,0.3-0.1,0.3-0.3l0.1-2.7c0-0.1-0.1-0.3-0.2-0.3l-4-0.9c-0.3-0.1-0.3-0.5,0-0.5h3.9
		c0.1,0,0.3-0.1,0.3-0.3l0.1-2.1c0-0.1-0.1-0.2-0.2-0.3l-2.9-0.6c-0.3-0.1-0.3-0.5,0-0.5h2.9c0.1,0,0.3-0.1,0.3-0.3l0.1-2.3
		c0-0.1-0.1-0.2-0.2-0.3l-2-0.5c-0.3-0.1-0.3-0.5,0-0.5h2c0.1,0,0.3-0.1,0.3-0.3l0.1-2.2c0-0.1-0.1-0.3-0.2-0.3l-1.4-0.3
		c-0.3-0.1-0.3-0.5,0-0.5h1.3c0.1,0,0.3-0.1,0.3-0.3l0.1-1.7c0-0.1-0.1-0.3-0.2-0.3l-0.8-0.2c-0.3-0.1-0.3-0.5,0-0.5h0.8
		c0.1,0,0.3-0.1,0.3-0.3l0.1-2.4l0.1,2.4c0,0.1,0.1,0.3,0.3,0.3h0.8c0.3,0,0.3,0.4,0,0.5L176,92c-0.1,0-0.2,0.1-0.2,0.3l0.1,1.7
		c0,0.1,0.1,0.3,0.3,0.3h1.3c0.3,0,0.3,0.4,0,0.5l-1.4,0.3c-0.1,0-0.2,0.1-0.2,0.3l0.1,2.2c0,0.1,0.1,0.3,0.3,0.3h2
		c0.3,0,0.3,0.4,0,0.5l-2,0.5c-0.1,0-0.2,0.1-0.2,0.3l0.1,2.3c0,0.1,0.1,0.3,0.3,0.3h2.9c0.3,0,0.3,0.4,0,0.5l-2.9,0.6
		c-0.1,0-0.2,0.1-0.2,0.3l0.1,2.1c0,0.1,0.1,0.3,0.3,0.3h3.9c0.3,0,0.3,0.4,0,0.5l-4,0.9c-0.1,0-0.2,0.1-0.2,0.3l0.1,2.7
		c0,0.1,0.1,0.3,0.3,0.3h5.2c0.3,0,0.3,0.4,0,0.5l-5.2,1.2c-0.1,0-0.2,0.1-0.2,0.3l0.1,2.7c0,0.1,0.1,0.3,0.3,0.3h6.8
		c0.3,0,0.3,0.4,0,0.5l-6.8,1.5c-0.1,0-0.2,0.1-0.2,0.3l0.1,2.9c0,0.1,0.1,0.3,0.3,0.3h8.9c0.3,0,0.3,0.4,0,0.5l-8.7,1.9
		c-0.1,0-0.2,0.1-0.2,0.3l0.1,2.7c0,0.1,0.1,0.3,0.3,0.3h11c0.3,0,0.3,0.4,0,0.5l-11,2.4c-0.1,0-0.2,0.1-0.2,0.3l0.1,2.8
		c0,0.1,0.1,0.3,0.3,0.3h13.9c0.3,0,0.3,0.4,0,0.5l-13.8,3c-0.1,0-0.2,0.1-0.2,0.3l0.1,3c0,0.1,0.1,0.3,0.3,0.3h17.3
		C195.8,138.8,195.8,139.2,195.5,139.3"/>
</g>
</svg>
