<?xml version="1.0" encoding="utf-8"?>
<!-- Generator: Adobe Illustrator 21.1.0, SVG Export Plug-In . SVG Version: 6.00 Build 0)  -->
<svg version="1.1" id="Layer_1" xmlns="http://www.w3.org/2000/svg" xmlns:xlink="http://www.w3.org/1999/xlink" x="0px" y="0px"
	 viewBox="0 0 350 255.1" style="enable-background:new 0 0 350 255.1;" xml:space="preserve">
<style type="text/css">
	.st0{fill:#1F191A;}
	.st1{fill:none;}
	.st2{fill:#FFFFFF;}
</style>
<g>
	<path class="st0" d="M125.3,156.4l-7.2-7.4v2.8c0,1.9,0.1,3.2,0.2,3.5c0.1,0.5,0.3,0.7,1.7,0.7v0.2c-0.7,0-1.3,0-1.9,0
		c-0.7,0-1.3,0-1.9,0V156c0.9,0,1.2-0.2,1.3-0.7c0.1-0.4,0.1-1.7,0.1-3.6v-3.4c-0.7-0.7-1-1-1.6-1.2v-0.2c0.4,0,0.8,0,1.3,0
		c0.9,0,1.7,0,2.4-0.1c0.9,1.1,3.5,4.1,5.2,5.8v-1.3c0-1.9,0-3.2-0.2-3.5c-0.2-0.4-0.3-0.7-1.7-0.7v-0.2c0.7,0,1.3,0,1.9,0
		c0.6,0,1.1,0,1.8,0v0.2c-0.8,0-1.1,0.2-1.2,0.7c-0.1,0.4-0.1,1.7-0.1,3.6v5H125.3z"/>
	<path class="st0" d="M135.3,152.4c0,2.2-2,3.9-4.2,3.9s-4.2-1.6-4.2-3.9c0-2.2,2-3.9,4.2-3.9S135.3,150.2,135.3,152.4 M133.2,152.5
		c0-2.2-0.9-3.6-2-3.6s-2,1.4-2,3.6s0.9,3.6,2,3.6S133.2,154.7,133.2,152.5"/>
	<path class="st0" d="M143.1,156.5c-1.2,0-1.9-0.3-2.5-1.1c-0.6-0.7-0.9-1.8-1.1-2.6l-1,0c0,1.9,0,2.6,0.1,2.9
		c0.1,0.3,0.3,0.4,0.9,0.4v0.2c-0.5,0-1.2,0-1.9,0s-1.4,0-1.9,0v-0.2c0.7,0,0.8-0.2,0.9-0.4c0.1-0.3,0.1-1,0.1-3v-0.3
		c0-2,0-2.7-0.1-3c-0.1-0.3-0.3-0.4-0.9-0.4v-0.2c0.4,0,1,0,1.6,0c0.8,0,1.6,0,2.3,0c1.9,0,3.2,0.7,3.2,2c0,1.1-0.9,1.7-1.8,1.8
		c0.4,0.8,1.2,1.9,1.6,2.4c0.7,0.7,1.2,1.2,2,1.2v0.1C144.2,156.3,143.5,156.5,143.1,156.5 M138.5,152.5l1.2,0
		c0.4,0,1.1-0.7,1.1-1.7c0-1.1-0.7-1.8-1.6-1.8c-0.2,0-0.6,0-0.6,0c0,0.8,0,1.6,0,3.2V152.5z"/>
	<path class="st0" d="M148.3,156.2c-0.7,0-1.5,0-2.2,0c-0.7,0-1.4,0-2,0V156c0.7,0,0.8-0.2,0.9-0.4c0.1-0.3,0.1-1,0.1-3v-0.3
		c0-2,0-2.7-0.1-3c-0.1-0.3-0.3-0.4-0.9-0.4v-0.2h3.2c2.5,0,3-0.1,3-0.1c0,0.9,0.1,1.6,0.2,2.3l-0.1,0c-0.4-1.2-0.7-1.9-2.4-1.9
		c-0.4,0-0.6,0-1,0.1c0,0.8,0,1.6,0,3.1v0.1h0.5c1.2,0,1.4-0.2,1.5-1.1h0.2c0,0.4,0,0.8,0,1.3c0,0.5,0,0.9,0,1.3h-0.2
		c0-0.9-0.3-1.1-1.5-1.1H147c0,1.5,0,2.7,0.1,2.9c0.1,0.3,0.3,0.5,1.3,0.5L148.3,156.2L148.3,156.2z"/>
	<path class="st0" d="M159.2,152.4c0,2.2-2,3.9-4.2,3.9c-2.2,0-4.2-1.6-4.2-3.9c0-2.2,2-3.9,4.2-3.9
		C157.2,148.5,159.2,150.2,159.2,152.4 M157.1,152.5c0-2.2-0.9-3.6-2-3.6c-1.2,0-2,1.4-2,3.6s0.9,3.6,2,3.6
		C156.2,156,157.1,154.7,157.1,152.5"/>
	<path class="st0" d="M159.6,156c0.7,0,0.8-0.2,0.9-0.4c0.1-0.3,0.1-1,0.1-3v-0.3c0-2,0-2.7-0.1-3c-0.1-0.3-0.3-0.4-0.9-0.4v-0.2
		c0.5,0,1.2,0,1.9,0s1.4,0,1.9,0v0.2c-0.7,0-0.8,0.2-0.9,0.4c-0.1,0.3-0.1,1-0.1,3v2.6c0,0.8,0.7,0.9,1.5,0.9c1.1,0,1.9-0.7,2.5-2.5
		l0.1,0c-0.2,1.1-0.3,2.2-0.4,2.8c-1.9,0-3.1,0-4.1,0c-1,0-1.7,0-2.5,0L159.6,156L159.6,156z"/>
	<path class="st0" d="M175.4,156.2c-0.7,0-1.3,0-2,0s-1.3,0-1.8,0V156c0.4,0,0.5-0.1,0.5-0.3c0-0.1,0-0.2-0.1-0.3l-1.5-2.3
		c-0.4-0.6-0.7-0.7-0.9-0.7v0.2c0,2,0,2.7,0.1,3c0.1,0.3,0.3,0.4,0.9,0.4v0.2c-0.5,0-1.2,0-1.9,0c-0.7,0-1.4,0-1.9,0V156
		c0.7,0,0.8-0.2,0.9-0.4c0.1-0.3,0.1-1,0.1-3v-0.3c0-2,0-2.7-0.1-3c-0.1-0.3-0.3-0.4-0.9-0.4v-0.2c0.5,0,1.2,0,1.9,0
		c0.7,0,1.4,0,1.9,0v0.2c-0.7,0-0.8,0.2-0.9,0.4s-0.1,1-0.1,2.9c0.3,0,0.6-0.1,1-0.5l2.2-2.2c0.1-0.1,0.2-0.3,0.2-0.4
		c0-0.2-0.1-0.2-1-0.2v-0.2c0.5,0,1,0,1.4,0c0.4,0,0.9,0,1.4,0v0.2c-0.7,0-1,0.2-1.7,0.9l-1.8,1.6l2.7,3.8c0.4,0.6,0.7,0.7,1.3,0.8
		L175.4,156.2L175.4,156.2z"/>
	<path class="st0" d="M183.1,156.2L183.1,156.2l-3.1-8.1l-0.7,6.2c0,0.2,0,0.4,0,0.6c0,0.8,0.3,0.9,1.6,1v0.2c-0.7,0-1.3,0-1.9,0
		c-0.6,0-1.1,0-1.6,0V156c1,0,1.3-0.4,1.4-1.5l0.7-5.7c0-0.2,0-0.3,0-0.5c0-0.8-0.2-1.2-1.3-1.2v-0.2c0.5,0,1.3,0,2,0s1.4,0,1.8,0
		l2,5.6l1.9-5.6c0.4,0,1.1,0,2,0c0.5,0,1.1,0,1.8,0v0.2c-1.1,0-1.3,0.4-1.3,1.2c0,0.1,0,0.3,0,0.5l0.6,5.6c0.1,1.1,0.2,1.5,1.3,1.5
		v0.2c-0.6,0-1.6,0-2.5,0c-0.9,0-1.8,0-2.3,0V156c0.9,0,1.1-0.2,1.1-0.9c0-0.2,0-0.4,0-0.7l-0.7-6.2L183.1,156.2z"/>
	<path class="st0" d="M198.4,156.2c-0.3,0-1,0-1.8,0c-0.7,0-1.5,0-2,0V156c0.7,0,0.9-0.1,0.9-0.4c0-0.2-0.1-0.5-0.2-1l-0.5-1.4h-2.1
		l-0.4,1.3c-0.2,0.4-0.2,0.8-0.2,1c0,0.4,0.2,0.5,1,0.5v0.2c-0.5,0-1,0-1.4,0s-0.9,0-1.3,0V156c0.7,0,0.9-0.2,1.3-1.1l1.9-5.2
		l-0.2-0.6c0.6-0.1,1.4-0.5,1.7-0.7c0,0,0.4,1.3,0.9,2.9l1.3,3.6c0.3,0.9,0.4,1.2,1.1,1.2L198.4,156.2L198.4,156.2z M194.7,152.9
		l-0.9-2.7l-0.9,2.7H194.7z"/>
	<path class="st0" d="M206.1,156.4l-5.9-6.1v2.3c0,1.5,0,2.6,0.1,2.9c0.1,0.4,0.3,0.5,1.4,0.6v0.2c-0.5,0-1.1,0-1.6,0s-1.1,0-1.6,0
		V156c0.8,0,1-0.2,1.1-0.5c0.1-0.3,0.1-1.4,0.1-2.9v-2.8c-0.5-0.6-0.8-0.8-1.3-1v-0.2c0.3,0,0.7,0,1,0c0.7,0,1.3,0,1.9,0
		c0.7,0.9,2.9,3.3,4.3,4.7v-1.1c0-1.5,0-2.6-0.1-2.9c-0.2-0.4-0.3-0.5-1.4-0.6v-0.2c0.5,0,1.1,0,1.6,0c0.5,0,0.9,0,1.5,0v0.2
		c-0.7,0-0.9,0.2-1,0.5c-0.1,0.3-0.1,1.4-0.1,2.9V156.4L206.1,156.4z"/>
	<path class="st0" d="M207.5,155.6l-0.1-1.8l0.1,0c0.4,1.5,1.3,2.2,2.5,2.2c0.8,0,1.3-0.4,1.3-1.2c0-1.6-3.6-1.3-3.6-3.8
		c0-1.4,1.3-2.3,2.8-2.3c0.8,0,1.5,0.2,2,0.7l0.1,1.6l-0.1,0c-0.3-1.1-1-1.9-2.1-1.9c-0.7,0-1.1,0.4-1.1,1.1c0,1.6,3.6,1.4,3.6,3.9
		c0,1.5-1.3,2.4-3,2.4C209,156.4,208,156,207.5,155.6"/>
	<path class="st0" d="M216.1,152.6c0,2,0,2.7,0.1,3c0.1,0.3,0.3,0.4,0.9,0.4v0.2c-0.5,0-1.2,0-1.9,0c-0.7,0-1.4,0-1.9,0V156
		c0.7,0,0.8-0.2,0.9-0.4c0.1-0.3,0.1-1,0.1-3v-0.3c0-2,0-2.7-0.1-3c-0.1-0.3-0.3-0.4-0.9-0.4v-0.2c0.5,0,1.2,0,1.9,0
		c0.7,0,1.4,0,1.9,0v0.2c-0.7,0-0.8,0.2-0.9,0.4c-0.1,0.3-0.1,1-0.1,3V152.6z"/>
	<path class="st0" d="M225.9,152.4c0,2.2-2,3.9-4.2,3.9s-4.2-1.6-4.2-3.9c0-2.2,2-3.9,4.2-3.9S225.9,150.2,225.9,152.4 M223.7,152.5
		c0-2.2-0.9-3.6-2-3.6s-2,1.4-2,3.6s0.9,3.6,2,3.6S223.7,154.7,223.7,152.5"/>
	<path class="st0" d="M233.7,156.4l-5.9-6.1v2.3c0,1.5,0,2.6,0.1,2.9c0.1,0.4,0.3,0.5,1.4,0.6v0.2c-0.5,0-1.1,0-1.6,0
		c-0.5,0-1.1,0-1.6,0V156c0.8,0,1-0.2,1.1-0.5c0.1-0.3,0.1-1.4,0.1-2.9v-2.8c-0.5-0.6-0.8-0.8-1.3-1v-0.2c0.3,0,0.7,0,1,0
		c0.7,0,1.3,0,1.9,0c0.7,0.9,2.9,3.3,4.3,4.7v-1.1c0-1.5,0-2.6-0.1-2.9c-0.2-0.4-0.3-0.5-1.4-0.6v-0.2c0.5,0,1.1,0,1.6,0
		c0.5,0,0.9,0,1.5,0v0.2c-0.7,0-0.9,0.2-1,0.5c-0.1,0.3-0.1,1.4-0.1,2.9L233.7,156.4L233.7,156.4z"/>
	<polygon class="st0" points="136.4,162.6 136.9,162.6 136.9,166.3 139,166.3 139,166.8 136.4,166.8 	"/>
	<path class="st0" d="M140.6,163.8v2c0,0.2,0,0.3,0.1,0.4c0.1,0.2,0.2,0.3,0.5,0.3c0.3,0,0.6-0.2,0.7-0.5c0.1-0.2,0.1-0.4,0.1-0.7
		v-1.5h0.5v3H142v-0.4c-0.1,0.1-0.2,0.2-0.2,0.3c-0.2,0.2-0.4,0.2-0.7,0.2c-0.4,0-0.7-0.2-0.9-0.4c-0.1-0.2-0.1-0.4-0.1-0.6v-2
		L140.6,163.8L140.6,163.8z"/>
	<polygon class="st0" points="143.6,163.8 144.3,163.8 145,164.8 145.7,163.8 146.3,163.8 145.3,165.2 146.4,166.8 145.7,166.8 
		144.9,165.6 144.2,166.8 143.6,166.8 144.6,165.2 	"/>
	<path class="st0" d="M147.9,163.8v2c0,0.2,0,0.3,0.1,0.4c0.1,0.2,0.2,0.3,0.5,0.3c0.3,0,0.6-0.2,0.7-0.5c0.1-0.2,0.1-0.4,0.1-0.7
		v-1.5h0.5v3h-0.5v-0.4c-0.1,0.1-0.2,0.2-0.2,0.3c-0.2,0.2-0.4,0.2-0.7,0.2c-0.4,0-0.7-0.2-0.9-0.4c-0.1-0.2-0.1-0.4-0.1-0.6v-2
		L147.9,163.8L147.9,163.8z"/>
	<path class="st0" d="M151.2,163.8h0.5v0.5c0-0.1,0.1-0.2,0.3-0.4c0.2-0.2,0.3-0.2,0.5-0.2h0c0,0,0.1,0,0.1,0v0.5c0,0,0,0-0.1,0
		s0,0-0.1,0c-0.2,0-0.4,0.1-0.6,0.2c-0.1,0.2-0.2,0.4-0.2,0.6v1.8h-0.5L151.2,163.8L151.2,163.8z"/>
	<path class="st0" d="M155.6,163.8h0.6c-0.1,0.2-0.2,0.7-0.5,1.3c-0.2,0.5-0.3,0.9-0.4,1.3c-0.3,0.8-0.5,1.2-0.6,1.4
		c-0.1,0.2-0.3,0.2-0.6,0.2c-0.1,0-0.1,0-0.2,0s-0.1,0-0.1,0v-0.4c0.1,0,0.2,0,0.2,0c0,0,0.1,0,0.1,0c0.1,0,0.2,0,0.2,0
		s0.1-0.1,0.1-0.1c0,0,0-0.1,0.1-0.2c0-0.1,0.1-0.2,0.1-0.3l-1.1-3.1h0.6l0.8,2.5L155.6,163.8z"/>
	<path class="st0" d="M159.9,165.4c0,0.2,0.1,0.4,0.2,0.6c0.2,0.3,0.5,0.4,0.9,0.4c0.2,0,0.4,0,0.6-0.1c0.3-0.1,0.5-0.3,0.5-0.6
		c0-0.2-0.1-0.4-0.2-0.5c-0.1-0.1-0.4-0.2-0.7-0.2l-0.5-0.1c-0.4-0.1-0.6-0.2-0.7-0.3c-0.2-0.2-0.4-0.4-0.4-0.8
		c0-0.4,0.1-0.7,0.4-0.9c0.2-0.2,0.6-0.4,1.1-0.4c0.4,0,0.8,0.1,1.1,0.3c0.3,0.2,0.4,0.5,0.4,1H162c0-0.2-0.1-0.4-0.2-0.5
		c-0.2-0.2-0.4-0.3-0.8-0.3c-0.3,0-0.5,0.1-0.7,0.2c-0.1,0.1-0.2,0.3-0.2,0.5c0,0.2,0.1,0.4,0.2,0.4c0.1,0,0.4,0.1,0.7,0.2l0.6,0.1
		c0.3,0.1,0.5,0.2,0.6,0.2c0.2,0.2,0.4,0.5,0.4,0.9c0,0.4-0.2,0.8-0.5,1c-0.3,0.2-0.7,0.3-1.1,0.3c-0.5,0-0.9-0.1-1.2-0.4
		c-0.3-0.2-0.4-0.6-0.4-1.1L159.9,165.4L159.9,165.4z"/>
	<path class="st0" d="M165.8,163.8c0.2,0.1,0.4,0.2,0.4,0.4s0.2,0.3,0.2,0.5c0,0.1,0,0.4,0,0.7h-2.2c0,0.3,0.1,0.6,0.2,0.7
		c0.1,0.2,0.3,0.3,0.6,0.3c0.2,0,0.5-0.1,0.6-0.2c0.1-0.1,0.2-0.2,0.2-0.4h0.5c0,0.1,0,0.2-0.1,0.4c-0.1,0.1-0.2,0.2-0.2,0.3
		c-0.2,0.2-0.3,0.2-0.6,0.3c-0.1,0-0.2,0-0.4,0c-0.4,0-0.7-0.1-0.9-0.4s-0.4-0.7-0.4-1.1c0-0.5,0.1-0.9,0.4-1.2
		c0.2-0.3,0.6-0.4,1-0.4C165.4,163.7,165.6,163.7,165.8,163.8 M166,165c0-0.2-0.1-0.4-0.1-0.5c-0.1-0.2-0.4-0.4-0.7-0.4
		c-0.2,0-0.4,0.1-0.6,0.2c-0.2,0.2-0.2,0.4-0.2,0.7L166,165L166,165z"/>
	<path class="st0" d="M167.7,163.8h0.5v0.5c0-0.1,0.1-0.2,0.3-0.4c0.2-0.2,0.3-0.2,0.5-0.2h0c0,0,0,0,0.1,0v0.5c0,0,0,0-0.1,0
		s0,0-0.1,0c-0.2,0-0.4,0.1-0.6,0.2c-0.1,0.2-0.2,0.4-0.2,0.6v1.8h-0.5L167.7,163.8L167.7,163.8z"/>
	<polygon class="st0" points="170.5,163.8 171.3,166.2 172.1,163.8 172.7,163.8 171.6,166.8 171,166.8 169.9,163.8 	"/>
	<path class="st0" d="M173.7,162.6h0.5v0.6h-0.5V162.6z M173.7,163.8h0.5v3h-0.5V163.8z"/>
	<path class="st0" d="M177.6,163.9c0.2,0.2,0.3,0.4,0.4,0.9h-0.5c0-0.2-0.1-0.3-0.2-0.4s-0.3-0.2-0.5-0.2c-0.3,0-0.6,0.2-0.7,0.5
		c-0.1,0.2-0.1,0.4-0.1,0.8c0,0.3,0.1,0.6,0.2,0.8s0.3,0.3,0.6,0.3c0.2,0,0.4-0.1,0.5-0.2s0.2-0.3,0.2-0.5h0.5
		c0,0.4-0.2,0.7-0.4,0.9c-0.2,0.2-0.5,0.3-0.9,0.3c-0.4,0-0.7-0.2-0.9-0.4c-0.2-0.3-0.4-0.7-0.4-1.1c0-0.5,0.1-0.9,0.4-1.2
		c0.2-0.3,0.6-0.4,1-0.4C177.1,163.6,177.4,163.7,177.6,163.9"/>
	<path class="st0" d="M181,163.8c0.2,0.1,0.4,0.2,0.4,0.4s0.2,0.3,0.2,0.5c0,0.1,0,0.4,0,0.7h-2.2c0,0.3,0.1,0.6,0.2,0.7
		c0.1,0.2,0.3,0.3,0.6,0.3c0.2,0,0.5-0.1,0.6-0.2c0.1-0.1,0.2-0.2,0.2-0.4h0.5c0,0.1,0,0.2-0.1,0.4c-0.1,0.1-0.2,0.2-0.2,0.3
		c-0.2,0.2-0.3,0.2-0.6,0.3c-0.1,0-0.2,0-0.4,0c-0.4,0-0.7-0.1-0.9-0.4c-0.2-0.3-0.4-0.7-0.4-1.1c0-0.5,0.1-0.9,0.4-1.2
		c0.2-0.3,0.6-0.4,1-0.4C180.5,163.7,180.7,163.7,181,163.8 M181.2,165c0-0.2-0.1-0.4-0.1-0.5c-0.1-0.2-0.4-0.4-0.7-0.4
		c-0.2,0-0.4,0.1-0.6,0.2c-0.2,0.2-0.2,0.4-0.2,0.7L181.2,165L181.2,165z"/>
	<path class="st0" d="M184.6,163.8c0.1,0,0.2,0.2,0.3,0.3v-1.5h0.5v4.2H185v-0.4c-0.1,0.2-0.2,0.3-0.4,0.4s-0.3,0.1-0.6,0.1
		c-0.3,0-0.6-0.1-0.9-0.4c-0.2-0.3-0.4-0.7-0.4-1.1c0-0.4,0.1-0.8,0.3-1.1c0.2-0.3,0.5-0.5,1-0.5
		C184.2,163.7,184.4,163.7,184.6,163.8 M183.4,166.1c0.1,0.2,0.4,0.3,0.7,0.3c0.2,0,0.4-0.1,0.6-0.3c0.2-0.2,0.2-0.5,0.2-0.9
		s-0.1-0.7-0.2-0.9c-0.2-0.2-0.3-0.3-0.6-0.3s-0.4,0.1-0.6,0.3c-0.2,0.2-0.2,0.5-0.2,0.9C183.2,165.6,183.3,165.9,183.4,166.1"/>
	<path class="st0" d="M189.9,162.6h0.7l1.5,4.2h-0.6l-0.4-1.2h-1.6l-0.4,1.2h-0.6L189.9,162.6z M190.8,165.1l-0.7-1.8l-0.7,1.8
		H190.8z"/>
	<path class="st0" d="M193,163.8h0.5v0.4c0.1-0.1,0.2-0.2,0.3-0.3c0.2-0.1,0.4-0.2,0.6-0.2c0.3,0,0.7,0.1,0.9,0.4
		c0.2,0.2,0.4,0.7,0.4,1.1c0,0.7-0.2,1.1-0.5,1.4c-0.2,0.2-0.5,0.3-0.8,0.3c-0.2,0-0.4,0-0.6-0.2c-0.1,0-0.2-0.2-0.3-0.3v1.6H193
		V163.8L193,163.8z M195,166.1c0.2-0.2,0.2-0.5,0.2-0.9c0-0.2,0-0.4-0.1-0.6c-0.1-0.3-0.4-0.5-0.7-0.5c-0.4,0-0.6,0.2-0.7,0.5
		c-0.1,0.2-0.1,0.4-0.1,0.7c0,0.2,0,0.4,0.1,0.6c0.1,0.3,0.4,0.4,0.7,0.4C194.6,166.4,194.8,166.3,195,166.1"/>
	<path class="st0" d="M198.5,164.9c0.1,0,0.2-0.1,0.2-0.2c0,0,0-0.1,0-0.2c0-0.2-0.1-0.3-0.2-0.4c-0.1-0.1-0.3-0.1-0.5-0.1
		s-0.4,0.1-0.6,0.2c-0.1,0.1-0.1,0.2-0.1,0.4h-0.5c0-0.4,0.1-0.7,0.4-0.8c0.2-0.2,0.5-0.2,0.8-0.2c0.4,0,0.7,0.1,0.9,0.2
		c0.2,0.1,0.3,0.3,0.3,0.6v1.8c0,0,0,0.1,0,0.1c0,0,0.1,0,0.1,0c0,0,0,0,0.1,0c0,0,0,0,0.1,0v0.4c-0.1,0-0.1,0-0.2,0s-0.1,0-0.2,0
		c-0.2,0-0.3-0.1-0.4-0.2c0-0.1-0.1-0.2-0.1-0.3c-0.1,0.1-0.2,0.2-0.4,0.4c-0.2,0.1-0.4,0.2-0.7,0.2c-0.3,0-0.5-0.1-0.7-0.2
		s-0.3-0.4-0.3-0.7s0.1-0.5,0.2-0.7s0.4-0.2,0.7-0.3L198.5,164.9z M197.5,166.3c0.1,0.1,0.2,0.1,0.4,0.1c0.2,0,0.4,0,0.5-0.1
		c0.3-0.1,0.4-0.4,0.4-0.7v-0.4c-0.1,0-0.1,0.1-0.2,0.1c-0.1,0-0.2,0-0.3,0l-0.3,0c-0.2,0-0.3,0.1-0.4,0.1c-0.2,0.1-0.2,0.2-0.2,0.4
		C197.3,166.1,197.3,166.2,197.5,166.3"/>
	<path class="st0" d="M200.7,163.8h0.5v0.5c0-0.1,0.1-0.2,0.3-0.4c0.2-0.2,0.3-0.2,0.5-0.2h0c0,0,0,0,0.1,0v0.5c0,0,0,0-0.1,0
		s0,0-0.1,0c-0.2,0-0.4,0.1-0.6,0.2c-0.1,0.2-0.2,0.4-0.2,0.6v1.8h-0.5L200.7,163.8L200.7,163.8z"/>
	<path class="st0" d="M203.3,162.9h0.5v0.9h0.5v0.4h-0.5v2c0,0.1,0,0.2,0.1,0.2c0,0,0.1,0,0.2,0c0,0,0,0,0.1,0s0,0,0.1,0v0.4
		c0,0-0.1,0-0.2,0c-0.1,0-0.1,0-0.2,0c-0.2,0-0.4,0-0.5-0.2c-0.1-0.1-0.1-0.3-0.1-0.5v-2h-0.4v-0.4h0.4V162.9z"/>
	<path class="st0" d="M205.4,163.8h0.5v0.4c0.1-0.2,0.2-0.2,0.3-0.3c0.2-0.1,0.4-0.2,0.6-0.2c0.2,0,0.4,0,0.6,0.2
		c0.1,0.1,0.2,0.2,0.2,0.3c0.1-0.2,0.2-0.3,0.4-0.4c0.2-0.1,0.3-0.1,0.5-0.1c0.4,0,0.7,0.2,0.8,0.4c0.1,0.2,0.1,0.4,0.1,0.7v2H209
		v-2.1c0-0.2,0-0.3-0.2-0.4c-0.1-0.1-0.2-0.1-0.4-0.1c-0.2,0-0.4,0.1-0.5,0.2s-0.2,0.4-0.2,0.7v1.8h-0.5v-2c0-0.2,0-0.4-0.1-0.4
		c-0.1-0.1-0.2-0.2-0.4-0.2c-0.2,0-0.4,0.1-0.5,0.2c-0.2,0.2-0.2,0.4-0.2,0.8v1.6h-0.5L205.4,163.8L205.4,163.8z"/>
	<path class="st0" d="M212.7,163.8c0.2,0.1,0.4,0.2,0.4,0.4s0.2,0.3,0.2,0.5c0,0.1,0,0.4,0,0.7h-2.2c0,0.3,0.1,0.6,0.2,0.7
		c0.1,0.2,0.3,0.3,0.6,0.3c0.2,0,0.5-0.1,0.6-0.2c0.1-0.1,0.2-0.2,0.2-0.4h0.5c0,0.1,0,0.2-0.1,0.4c-0.1,0.1-0.2,0.2-0.2,0.3
		c-0.2,0.2-0.3,0.2-0.6,0.3c-0.1,0-0.2,0-0.4,0c-0.4,0-0.7-0.1-0.9-0.4c-0.2-0.3-0.4-0.7-0.4-1.1c0-0.5,0.1-0.9,0.4-1.2
		c0.2-0.3,0.6-0.4,1-0.4C212.3,163.7,212.5,163.7,212.7,163.8 M212.9,165c0-0.2-0.1-0.4-0.1-0.5c-0.1-0.2-0.4-0.4-0.7-0.4
		c-0.2,0-0.4,0.1-0.6,0.2c-0.2,0.2-0.2,0.4-0.2,0.7L212.9,165L212.9,165z"/>
	<path class="st0" d="M214.6,163.8h0.5v0.4c0.1-0.2,0.3-0.3,0.4-0.4c0.2-0.1,0.3-0.1,0.5-0.1c0.4,0,0.7,0.2,0.9,0.4
		c0.1,0.2,0.1,0.4,0.1,0.7v2h-0.5v-1.9c0-0.2,0-0.3-0.1-0.4c-0.1-0.2-0.2-0.3-0.5-0.3c-0.1,0-0.2,0-0.3,0c-0.1,0-0.2,0.1-0.4,0.2
		c-0.1,0.1-0.1,0.2-0.2,0.3c0,0.1,0,0.2,0,0.4v1.6h-0.5V163.8L214.6,163.8z"/>
	<path class="st0" d="M218.6,162.9h0.5v0.9h0.5v0.4h-0.5v2c0,0.1,0,0.2,0.1,0.2c0,0,0.1,0,0.2,0c0,0,0,0,0.1,0c0,0,0,0,0.1,0v0.4
		c0,0-0.1,0-0.2,0c-0.1,0-0.1,0-0.2,0c-0.2,0-0.4,0-0.5-0.2c-0.1-0.1-0.1-0.3-0.1-0.5v-2h-0.4v-0.4h0.4L218.6,162.9L218.6,162.9z"/>
	<path class="st0" d="M221,165.8c0,0.2,0,0.3,0.1,0.4c0.1,0.2,0.4,0.2,0.7,0.2c0.2,0,0.4,0,0.5-0.1c0.2-0.1,0.2-0.2,0.2-0.4
		c0-0.1,0-0.2-0.2-0.3c-0.1,0-0.2-0.1-0.4-0.2l-0.4-0.1c-0.2-0.1-0.4-0.1-0.6-0.2c-0.2-0.1-0.3-0.3-0.3-0.6c0-0.3,0.1-0.5,0.3-0.7
		c0.2-0.2,0.5-0.2,0.9-0.2c0.4,0,0.8,0.1,1,0.4c0.1,0.2,0.2,0.4,0.2,0.5h-0.5c0-0.1,0-0.2-0.1-0.3c-0.1-0.1-0.3-0.2-0.6-0.2
		c-0.2,0-0.3,0-0.4,0.1c-0.1,0.1-0.2,0.2-0.2,0.3s0.1,0.2,0.2,0.3c0.1,0,0.2,0.1,0.3,0.1l0.3,0.1c0.4,0.1,0.6,0.2,0.7,0.2
		c0.2,0.1,0.3,0.3,0.3,0.6s-0.1,0.5-0.3,0.7c-0.2,0.2-0.5,0.3-0.9,0.3c-0.4,0-0.8-0.1-1-0.3c-0.2-0.2-0.3-0.4-0.3-0.8L221,165.8
		L221,165.8z"/>
	<line class="st1" x1="144.6" y1="159.7" x2="214.5" y2="159.7"/>
	<path class="st0" d="M214.6,159.8h-70c-0.1,0-0.1,0-0.1-0.1c0-0.1,0-0.1,0.1-0.1h70c0.1,0,0.1,0,0.1,0.1
		C214.7,159.7,214.6,159.8,214.6,159.8"/>
	<path class="st0" d="M200.6,114c0,13.6-10.5,24.7-23.7,25.8c-0.7,0.1-1.5,0.1-2.2,0.1s-1.5,0-2.2-0.1
		c-13.3-1.1-23.7-12.3-23.7-25.8c0-14.3,11.6-25.9,25.9-25.9C189,88.1,200.6,99.6,200.6,114"/>
	<path class="st2" d="M191.6,131.3l-14.7,3.3c-0.1,0-0.2,0.1-0.2,0.2l0.2,5.1c-0.7,0.1-1.5,0.1-2.2,0.1c-0.7,0-1.5,0-2.2-0.1
		l0.2-5.1c0-0.1-0.1-0.2-0.2-0.2l-14.7-3.3c-0.2,0-0.2-0.4,0-0.4h14.8c0.1,0,0.2-0.1,0.2-0.2l0.1-2.5c0-0.1-0.1-0.2-0.2-0.2
		l-11.8-2.6c-0.2,0-0.2-0.4,0-0.4h11.8c0.1,0,0.2-0.1,0.2-0.2l0.1-2.3c0-0.1-0.1-0.2-0.2-0.2l-9.4-2.1c-0.2,0-0.2-0.4,0-0.4h9.4
		c0.1,0,0.2-0.1,0.2-0.2l0.1-2.3c0-0.1-0.1-0.2-0.2-0.2l-7.4-1.6c-0.2,0-0.2-0.4,0-0.4h7.4c0.1,0,0.2-0.1,0.2-0.2l0.1-2.6
		c0-0.1-0.1-0.2-0.2-0.2l-5.8-1.3c-0.2,0-0.2-0.4,0-0.4h5.8c0.1,0,0.2-0.1,0.2-0.2l0.1-2.3c0-0.1-0.1-0.2-0.2-0.2l-4.5-1
		c-0.2,0-0.2-0.4,0-0.4h4.5c0.1,0,0.2-0.1,0.2-0.2l0.1-2.3c0-0.1-0.1-0.2-0.2-0.2l-3.4-0.7c-0.2,0-0.2-0.4,0-0.4h3.3
		c0.1,0,0.2-0.1,0.2-0.2l0.1-1.8c0-0.1-0.1-0.2-0.2-0.2l-2.5-0.5c-0.2,0-0.2-0.4,0-0.4h2.5c0.1,0,0.2-0.1,0.2-0.2l0.1-2
		c0-0.1-0.1-0.2-0.2-0.2l-1.8-0.4c-0.2,0-0.2-0.4,0-0.4h1.7c0.1,0,0.2-0.1,0.2-0.2l0.1-1.8c0-0.1-0.1-0.2-0.2-0.2l-1.2-0.2
		c-0.2,0-0.2-0.4,0-0.4h1.1c0.1,0,0.2-0.1,0.2-0.2l0-1.5c0-0.1-0.1-0.2-0.2-0.2l-0.7-0.2c-0.2,0-0.2-0.4,0-0.4h0.6
		c0.1,0,0.2-0.1,0.2-0.2l0.1-2l0.1,2c0,0.1,0.1,0.2,0.2,0.2h0.6c0.2,0,0.3,0.4,0,0.4l-0.7,0.2c-0.1,0-0.2,0.1-0.2,0.2l0.1,1.5
		c0,0.1,0.1,0.2,0.2,0.2h1.1c0.2,0,0.3,0.4,0,0.4l-1.2,0.2c-0.1,0-0.2,0.1-0.2,0.2l0.1,1.8c0,0.1,0.1,0.2,0.2,0.2h1.7
		c0.2,0,0.3,0.4,0,0.4l-1.8,0.4c-0.1,0-0.2,0.1-0.2,0.2l0.1,2c0,0.1,0.1,0.2,0.2,0.2h2.5c0.2,0,0.3,0.4,0,0.4l-2.5,0.5
		c-0.1,0-0.2,0.1-0.2,0.2l0.1,1.8c0,0.1,0.1,0.2,0.2,0.2h3.3c0.2,0,0.3,0.4,0,0.4l-3.4,0.7c-0.1,0-0.2,0.1-0.2,0.2l0.1,2.3
		c0,0.1,0.1,0.2,0.2,0.2h4.5c0.2,0,0.3,0.4,0,0.4l-4.5,1c-0.1,0-0.2,0.1-0.2,0.2l0.1,2.3c0,0.1,0.1,0.2,0.2,0.2h5.8
		c0.2,0,0.3,0.4,0,0.4l-5.8,1.3c-0.1,0-0.2,0.1-0.2,0.2l0.1,2.5c0,0.1,0.1,0.2,0.2,0.2h7.4c0.2,0,0.3,0.4,0,0.4l-7.4,1.6
		c-0.1,0-0.2,0.1-0.2,0.2l0.1,2.3c0,0.1,0.1,0.2,0.2,0.2h9.4c0.2,0,0.3,0.4,0,0.4l-9.4,2.1c-0.1,0-0.2,0.1-0.2,0.2l0.1,2.3
		c0,0.1,0.1,0.2,0.2,0.2h11.8c0.2,0,0.3,0.4,0,0.4l-11.8,2.6c-0.1,0-0.2,0.1-0.2,0.2l0.1,2.5c0,0.1,0.1,0.2,0.2,0.2H191
		C191.8,130.9,191.8,131.3,191.6,131.3"/>
</g>
</svg>
