<?xml version="1.0" encoding="utf-8"?>
<!-- Generator: Adobe Illustrator 21.1.0, SVG Export Plug-In . SVG Version: 6.00 Build 0)  -->
<svg version="1.1" id="Layer_1" xmlns="http://www.w3.org/2000/svg" xmlns:xlink="http://www.w3.org/1999/xlink" x="0px" y="0px"
	 viewBox="0 0 350 255.1" style="enable-background:new 0 0 350 255.1;" xml:space="preserve">
<style type="text/css">
	.st0{fill:#1F191A;}
	.st1{fill:#FFFFFF;}
</style>
<g>
	<path class="st0" d="M52.7,197.5l-17.6-18.2v6.9c0,4.6,0.2,7.8,0.4,8.5c0.3,1.2,0.8,1.6,4.1,1.7v0.6c-1.6,0-3.2-0.1-4.7-0.1
		c-1.6,0-3.1,0-4.7,0.1v-0.6c2.3,0,3-0.6,3.3-1.6c0.3-0.9,0.3-4.1,0.3-8.7v-8.3c-1.6-1.7-2.4-2.4-3.9-3v-0.6c1,0,2,0.1,3.1,0.1
		c2.1,0,4.1-0.1,5.8-0.2c2.2,2.7,8.6,10,12.8,14.2v-3.2c0-4.6-0.1-7.8-0.4-8.5c-0.4-1.1-0.8-1.6-4.1-1.7v-0.6c1.6,0,3.1,0.1,4.7,0.1
		c1.5,0,2.7,0,4.4-0.1v0.6c-2,0-2.7,0.6-2.9,1.6c-0.3,0.9-0.3,4.1-0.3,8.7l0,12.3L52.7,197.5z"/>
	<path class="st0" d="M77.3,187.7c0,5.5-4.9,9.6-10.3,9.6c-5.4,0-10.3-4-10.3-9.5c0-5.5,4.9-9.6,10.3-9.6
		C72.4,178.2,77.3,182.2,77.3,187.7 M72,187.9c0-5.3-2.1-8.9-5-8.9c-2.9,0-5,3.4-5,8.7c0,5.3,2.1,8.9,5,8.9
		C69.9,196.6,72,193.2,72,187.9"/>
	<path class="st0" d="M96.2,197.6c-3,0-4.7-0.8-6.1-2.6c-1.4-1.8-2.1-4.5-2.6-6.3l-2.5-0.1c0,4.6,0,6.3,0.3,7c0.2,0.7,0.7,1,2.2,1.1
		v0.5c-1.3,0-3-0.1-4.7-0.1c-1.7,0-3.4,0-4.7,0.1v-0.5c1.6,0,2-0.4,2.2-1.1c0.3-0.7,0.3-2.5,0.3-7.3v-0.8c0-4.9,0-6.6-0.3-7.3
		c-0.2-0.7-0.7-1-2.3-1.1v-0.5c1.1,0,2.4,0.1,3.8,0.1c1.9,0,3.8-0.1,5.6-0.1c4.6,0,7.8,1.6,7.8,5c0,2.6-2.3,4.1-4.4,4.5
		c1.1,2,2.9,4.7,4,5.8c1.6,1.7,3,2.9,4.9,2.9v0.2C99,197.2,97.4,197.6,96.2,197.6 M85,187.9l2.9-0.1c1,0,2.6-1.6,2.6-4.2
		c0-2.7-1.6-4.3-4-4.3c-0.4,0-1.4,0.1-1.4,0.1c-0.1,1.9-0.1,4-0.1,7.8V187.9z"/>
	<path class="st0" d="M109.1,197.1c-1.7,0-3.7-0.1-5.4-0.1c-1.8,0-3.4,0-4.8,0.1v-0.5c1.6,0,2-0.4,2.2-1.1c0.3-0.7,0.3-2.5,0.3-7.3
		v-0.8c0-4.9,0-6.6-0.3-7.3c-0.2-0.7-0.7-1-2.3-1.1v-0.5h7.9c6.1,0,7.3-0.2,7.3-0.2c0.1,2.2,0.2,4,0.4,5.7l-0.3,0.1
		c-0.9-2.9-1.8-4.7-5.8-4.7c-1,0-1.4,0.1-2.4,0.3c-0.1,2-0.1,3.8-0.1,7.7v0.2h1.2c2.9,0,3.5-0.6,3.6-2.8h0.5c-0.1,1-0.1,2-0.1,3.2
		c0,1.2,0,2.2,0.1,3.2h-0.5c-0.1-2.2-0.7-2.8-3.6-2.8l-1.2,0c0,3.7,0.1,6.5,0.2,7.1c0.2,0.8,0.7,1.2,3.1,1.3V197.1z"/>
	<path class="st0" d="M135.8,187.7c0,5.5-4.9,9.6-10.3,9.6c-5.4,0-10.3-4-10.3-9.5c0-5.5,4.9-9.6,10.3-9.6
		C130.9,178.2,135.8,182.2,135.8,187.7 M130.5,187.9c0-5.3-2.1-8.9-5-8.9c-2.9,0-5,3.4-5,8.7c0,5.3,2.1,8.9,5,8.9
		C128.4,196.6,130.5,193.2,130.5,187.9"/>
	<path class="st0" d="M136.6,196.6c1.6,0,2-0.4,2.2-1.1c0.2-0.7,0.3-2.5,0.3-7.3v-0.8c0-4.9,0-6.6-0.3-7.3c-0.2-0.7-0.7-1-2.2-1.1
		v-0.5c1.3,0,3,0.1,4.7,0.1c1.7,0,3.4,0,4.7-0.1v0.5c-1.6,0-2,0.4-2.2,1.1c-0.2,0.7-0.3,2.5-0.3,7.3v6.4c0,1.9,1.7,2.3,3.7,2.3
		c2.6,0,4.6-1.6,6-6l0.3,0.1c-0.5,2.7-0.7,5.3-0.9,6.9c-4.6,0-7.7-0.1-10.1-0.1c-2.4,0-4.2,0-6.1,0.1V196.6z"/>
	<path class="st0" d="M175.3,197.1c-1.7,0-3.3-0.1-4.9-0.1c-1.6,0-3.1,0-4.4,0.1v-0.5c0.9-0.1,1.2-0.3,1.2-0.7
		c0-0.2-0.1-0.5-0.3-0.8l-3.7-5.7c-0.9-1.4-1.6-1.7-2.2-1.8v0.6c0,4.9,0,6.6,0.3,7.3c0.2,0.7,0.7,1,2.2,1.1v0.5
		c-1.3,0-3-0.1-4.7-0.1c-1.7,0-3.4,0-4.7,0.1v-0.5c1.6,0,2-0.4,2.2-1.1c0.3-0.7,0.3-2.5,0.3-7.3v-0.8c0-4.9,0-6.6-0.3-7.3
		c-0.2-0.7-0.7-1-2.2-1.1v-0.5c1.3,0,3,0.1,4.7,0.1c1.7,0,3.4,0,4.7-0.1v0.5c-1.6,0-2,0.4-2.2,1.1c-0.2,0.7-0.3,2.5-0.3,7.1
		c0.7,0,1.5-0.2,2.5-1.2l5.4-5.4c0.3-0.3,0.6-0.7,0.6-0.9c0-0.4-0.3-0.5-2.4-0.6v-0.5c1.3,0,2.4,0.1,3.4,0.1c1.1,0,2.2,0,3.4-0.1
		v0.5c-1.6,0.1-2.4,0.6-4.2,2.2l-4.3,4l6.7,9.4c1.1,1.5,1.7,1.8,3.1,1.9V197.1z"/>
	<path class="st0" d="M194.2,197.1H194l-7.4-19.8l-1.7,15.2c-0.1,0.5-0.1,1.1-0.1,1.5c0,1.9,0.8,2.3,3.8,2.4v0.6
		c-1.8,0-3.3-0.1-4.7-0.1c-1.4,0-2.7,0-3.9,0.1v-0.5c2.4-0.1,3.1-1.1,3.4-3.6l1.8-13.9c0-0.4,0.1-0.8,0.1-1.2c0-2-0.6-2.9-3.2-2.9
		v-0.6c1.3,0,3.1,0,4.8,0s3.4,0,4.5-0.1l4.9,13.8l4.7-13.8c1.1,0,2.7,0.1,4.8,0.1c1.3,0,2.7,0,4.3,0v0.6c-2.7,0-3.3,0.9-3.3,2.9
		c0,0.3,0,0.8,0.1,1.2l1.5,13.8c0.3,2.7,0.6,3.6,3.3,3.7v0.6c-1.5,0-3.8-0.1-6-0.1c-2.2,0-4.3,0-5.6,0.1v-0.6
		c2.3-0.1,2.8-0.6,2.8-2.1c0-0.4,0-1-0.1-1.6l-1.7-15.3L194.2,197.1z"/>
	<path class="st0" d="M231.8,197.1c-0.8,0-2.5-0.1-4.3-0.1c-1.8,0-3.7,0-5,0.1v-0.5c1.7-0.1,2.2-0.2,2.2-1.1c0-0.5-0.2-1.3-0.6-2.4
		l-1.2-3.4h-5.1l-1.1,3.2c-0.4,1.1-0.6,1.9-0.6,2.4c0,1,0.6,1.2,2.5,1.2v0.5c-1.3,0-2.4-0.1-3.4-0.1c-1,0-2.2,0-3.1,0.1v-0.4
		c1.8-0.1,2.3-0.6,3.1-2.8l4.7-12.7l-0.5-1.4c1.4-0.3,3.4-1.2,4.2-1.8c0,0,0.9,3.3,2.3,7l3.2,8.8c0.8,2.2,1.1,2.9,2.8,2.9V197.1z
		 M222.6,188.9l-2.3-6.5l-2.2,6.5H222.6z"/>
	<path class="st0" d="M250.5,197.4l-14.4-14.9v5.7c0,3.7,0.1,6.4,0.3,7c0.3,0.9,0.7,1.3,3.4,1.4v0.5c-1.3,0-2.6-0.1-3.9-0.1
		c-1.3,0-2.6,0-3.9,0.1v-0.5c1.9,0,2.4-0.5,2.7-1.3c0.2-0.7,0.2-3.4,0.2-7.1v-6.8c-1.3-1.4-2-1.9-3.2-2.4v-0.5
		c0.8,0,1.6,0.1,2.5,0.1c1.7,0,3.3-0.1,4.7-0.1c1.8,2.2,7,8.2,10.5,11.6v-2.6c0-3.7-0.1-6.4-0.3-7c-0.4-0.9-0.7-1.3-3.4-1.4v-0.5
		c1.3,0,2.6,0.1,3.9,0.1c1.2,0,2.2,0,3.6-0.1v0.5c-1.7,0-2.2,0.5-2.4,1.3c-0.3,0.7-0.3,3.4-0.3,7.1l0,10L250.5,197.4z"/>
	<path class="st0" d="M253.9,195.4l-0.3-4.4l0.3-0.1c1,3.6,3.2,5.4,6,5.4c2,0,3.3-1.1,3.3-3c0-3.9-8.7-3.1-8.7-9.4
		c0-3.4,3.2-5.7,6.8-5.7c1.9,0,3.7,0.6,5,1.6l0.3,3.9l-0.3,0.1c-0.8-2.7-2.4-4.6-5.1-4.6c-1.6,0-2.8,1.1-2.8,2.7
		c0,4,8.9,3.4,8.9,9.6c0,3.6-3.3,5.9-7.3,5.9C257.7,197.4,255.3,196.6,253.9,195.4"/>
	<path class="st0" d="M275.1,188.2c0,4.9,0,6.6,0.3,7.3c0.2,0.7,0.7,1,2.2,1.1v0.5c-1.3,0-3-0.1-4.7-0.1c-1.7,0-3.4,0-4.7,0.1v-0.5
		c1.6,0,2-0.4,2.2-1.1c0.3-0.7,0.3-2.5,0.3-7.3v-0.8c0-4.9,0-6.6-0.3-7.3c-0.2-0.7-0.7-1-2.2-1.1v-0.5c1.3,0,3,0.1,4.7,0.1
		c1.7,0,3.4,0,4.7-0.1v0.5c-1.6,0-2,0.4-2.2,1.1c-0.2,0.7-0.3,2.5-0.3,7.3V188.2z"/>
	<path class="st0" d="M299,187.7c0,5.5-4.9,9.6-10.3,9.6c-5.4,0-10.3-4-10.3-9.5c0-5.5,4.9-9.6,10.3-9.6
		C294.1,178.2,299,182.2,299,187.7 M293.7,187.9c0-5.3-2.1-8.9-5-8.9c-2.9,0-5,3.4-5,8.7c0,5.3,2.1,8.9,5,8.9
		C291.6,196.6,293.7,193.2,293.7,187.9"/>
	<path class="st0" d="M318.2,197.4l-14.4-14.9v5.7c0,3.7,0.1,6.4,0.3,7c0.3,0.9,0.7,1.3,3.4,1.4v0.5c-1.3,0-2.6-0.1-3.9-0.1
		c-1.3,0-2.6,0-3.9,0.1v-0.5c1.9,0,2.4-0.5,2.7-1.3c0.2-0.7,0.2-3.4,0.2-7.1v-6.8c-1.3-1.4-2-1.9-3.2-2.4v-0.5
		c0.8,0,1.6,0.1,2.5,0.1c1.7,0,3.3-0.1,4.7-0.1c1.8,2.2,7,8.2,10.5,11.6v-2.6c0-3.7-0.1-6.4-0.3-7c-0.4-0.9-0.7-1.3-3.4-1.4v-0.5
		c1.3,0,2.6,0.1,3.9,0.1c1.2,0,2.2,0,3.6-0.1v0.5c-1.7,0-2.2,0.5-2.4,1.3c-0.3,0.7-0.3,3.4-0.3,7.1l0,10L318.2,197.4z"/>
	<polygon class="st0" points="79.8,212.7 81.2,212.7 81.2,221.7 86.3,221.7 86.3,222.9 79.8,222.9 	"/>
	<path class="st0" d="M90.2,215.5v4.9c0,0.4,0.1,0.7,0.2,0.9c0.2,0.4,0.6,0.7,1.2,0.7c0.8,0,1.4-0.4,1.7-1.2c0.2-0.4,0.3-1,0.3-1.7
		v-3.6h1.2v7.4h-1.2l0-1.1c-0.2,0.3-0.4,0.5-0.6,0.7c-0.5,0.4-1,0.6-1.7,0.6c-1,0-1.7-0.4-2.1-1.1c-0.2-0.4-0.3-0.9-0.3-1.5v-5H90.2
		z"/>
	<polygon class="st0" points="97.6,215.5 99.2,215.5 100.9,218.1 102.6,215.5 104.2,215.5 101.7,219.1 104.3,222.9 102.7,222.9 
		100.8,220.1 99.1,222.9 97.5,222.9 100.1,219.1 	"/>
	<path class="st0" d="M108.1,215.5v4.9c0,0.4,0.1,0.7,0.2,0.9c0.2,0.4,0.6,0.7,1.2,0.7c0.8,0,1.4-0.4,1.7-1.2c0.2-0.4,0.3-1,0.3-1.7
		v-3.6h1.2v7.4h-1.2l0-1.1c-0.2,0.3-0.4,0.5-0.6,0.7c-0.5,0.4-1,0.6-1.7,0.6c-1,0-1.7-0.4-2.1-1.1c-0.2-0.4-0.3-0.9-0.3-1.5v-5
		H108.1z"/>
	<path class="st0" d="M116.2,215.5h1.2v1.3c0.1-0.2,0.3-0.6,0.7-0.9c0.4-0.4,0.8-0.5,1.3-0.5c0,0,0.1,0,0.1,0c0.1,0,0.2,0,0.3,0v1.3
		c-0.1,0-0.1,0-0.2,0c-0.1,0-0.1,0-0.2,0c-0.6,0-1.1,0.2-1.4,0.6c-0.3,0.4-0.5,0.9-0.5,1.4v4.3h-1.2V215.5z"/>
	<path class="st0" d="M127,215.5h1.4c-0.2,0.5-0.6,1.6-1.2,3.3c-0.4,1.3-0.8,2.3-1.1,3.1c-0.7,1.9-1.2,3-1.5,3.5
		c-0.3,0.4-0.8,0.6-1.5,0.6c-0.2,0-0.3,0-0.4,0c-0.1,0-0.2,0-0.3-0.1v-1.1c0.2,0.1,0.4,0.1,0.5,0.1c0.1,0,0.2,0,0.3,0
		c0.2,0,0.4,0,0.5-0.1c0.1-0.1,0.2-0.2,0.3-0.3c0,0,0.1-0.2,0.2-0.6c0.1-0.3,0.2-0.6,0.3-0.8l-2.7-7.6h1.4l2,6L127,215.5z"/>
	<path class="st0" d="M137.4,219.6c0,0.6,0.2,1,0.4,1.4c0.4,0.7,1.2,1,2.3,1c0.5,0,1-0.1,1.4-0.2c0.8-0.3,1.2-0.8,1.2-1.5
		c0-0.6-0.2-1-0.5-1.2c-0.3-0.2-0.9-0.4-1.6-0.6l-1.3-0.3c-0.9-0.2-1.5-0.4-1.8-0.7c-0.6-0.4-0.9-1.1-0.9-1.9c0-0.9,0.3-1.7,0.9-2.3
		c0.6-0.6,1.5-0.9,2.6-0.9c1,0,1.9,0.3,2.6,0.8c0.7,0.5,1.1,1.3,1.1,2.5h-1.3c-0.1-0.5-0.2-1-0.4-1.3c-0.4-0.5-1.1-0.8-2-0.8
		c-0.8,0-1.3,0.2-1.7,0.5c-0.3,0.3-0.5,0.7-0.5,1.2c0,0.5,0.2,0.9,0.6,1.1c0.3,0.1,0.9,0.3,1.8,0.6l1.4,0.3c0.7,0.2,1.2,0.4,1.5,0.6
		c0.6,0.5,0.9,1.2,0.9,2.1c0,1.1-0.4,1.9-1.2,2.4c-0.8,0.5-1.7,0.7-2.8,0.7c-1.2,0-2.2-0.3-2.9-1c-0.7-0.6-1-1.5-1-2.6H137.4z"/>
	<path class="st0" d="M151.8,215.7c0.5,0.2,0.9,0.6,1.1,1c0.2,0.4,0.4,0.8,0.5,1.3c0.1,0.3,0.1,0.9,0.1,1.6h-5.4
		c0,0.8,0.2,1.4,0.5,1.8c0.3,0.5,0.8,0.7,1.5,0.7c0.6,0,1.2-0.2,1.5-0.6c0.2-0.3,0.4-0.5,0.5-0.9h1.2c0,0.3-0.1,0.6-0.3,0.9
		c-0.2,0.3-0.4,0.6-0.6,0.8c-0.4,0.4-0.8,0.6-1.4,0.7c-0.3,0.1-0.6,0.1-1,0.1c-0.9,0-1.7-0.3-2.3-1c-0.6-0.7-1-1.6-1-2.8
		c0-1.2,0.3-2.2,1-2.9c0.6-0.7,1.5-1.1,2.5-1.1C150.8,215.3,151.3,215.4,151.8,215.7 M152.3,218.6c-0.1-0.5-0.2-1-0.3-1.3
		c-0.3-0.6-0.9-0.9-1.7-0.9c-0.6,0-1,0.2-1.4,0.6c-0.4,0.4-0.6,0.9-0.6,1.6H152.3z"/>
	<path class="st0" d="M156.6,215.5h1.2v1.3c0.1-0.2,0.3-0.6,0.7-0.9c0.4-0.4,0.8-0.5,1.3-0.5c0,0,0.1,0,0.1,0c0.1,0,0.1,0,0.3,0v1.3
		c-0.1,0-0.1,0-0.2,0c-0.1,0-0.1,0-0.2,0c-0.6,0-1.1,0.2-1.4,0.6c-0.3,0.4-0.5,0.9-0.5,1.4v4.3h-1.2V215.5z"/>
	<polygon class="st0" points="163.4,215.5 165.4,221.5 167.4,215.5 168.8,215.5 166,222.9 164.7,222.9 161.9,215.5 	"/>
	<path class="st0" d="M171.3,212.7h1.3v1.4h-1.3V212.7z M171.3,215.5h1.3v7.4h-1.3V215.5z"/>
	<path class="st0" d="M180.8,215.8c0.5,0.4,0.8,1.1,0.9,2.1h-1.2c-0.1-0.5-0.2-0.8-0.5-1.1c-0.3-0.3-0.7-0.5-1.3-0.5
		c-0.8,0-1.4,0.4-1.7,1.2c-0.2,0.5-0.3,1.1-0.3,1.9c0,0.7,0.2,1.4,0.5,1.9c0.3,0.5,0.8,0.8,1.5,0.8c0.5,0,0.9-0.2,1.2-0.5
		c0.3-0.3,0.5-0.7,0.6-1.3h1.2c-0.1,1-0.5,1.7-1,2.2c-0.5,0.5-1.3,0.7-2.1,0.7c-1,0-1.7-0.4-2.3-1.1c-0.6-0.7-0.9-1.6-0.9-2.7
		c0-1.3,0.3-2.3,1-3c0.6-0.7,1.4-1.1,2.4-1.1C179.6,215.2,180.3,215.4,180.8,215.8"/>
	<path class="st0" d="M189,215.7c0.5,0.2,0.9,0.6,1.1,1c0.2,0.4,0.4,0.8,0.5,1.3c0.1,0.3,0.1,0.9,0.1,1.6h-5.4
		c0,0.8,0.2,1.4,0.5,1.8c0.3,0.5,0.8,0.7,1.5,0.7c0.6,0,1.2-0.2,1.5-0.6c0.2-0.3,0.4-0.5,0.5-0.9h1.2c0,0.3-0.1,0.6-0.3,0.9
		c-0.2,0.3-0.4,0.6-0.6,0.8c-0.4,0.4-0.8,0.6-1.4,0.7c-0.3,0.1-0.6,0.1-1,0.1c-0.9,0-1.7-0.3-2.3-1c-0.6-0.7-1-1.6-1-2.8
		c0-1.2,0.3-2.2,1-2.9c0.6-0.7,1.5-1.1,2.5-1.1C188,215.3,188.5,215.4,189,215.7 M189.5,218.6c-0.1-0.5-0.2-1-0.3-1.3
		c-0.3-0.6-0.9-0.9-1.7-0.9c-0.6,0-1,0.2-1.4,0.6c-0.4,0.4-0.6,0.9-0.6,1.6H189.5z"/>
	<path class="st0" d="M197.9,215.7c0.2,0.1,0.5,0.4,0.8,0.7v-3.7h1.2v10.2h-1.1v-1c-0.3,0.5-0.6,0.8-1,1c-0.4,0.2-0.8,0.3-1.4,0.3
		c-0.8,0-1.5-0.3-2.1-1c-0.6-0.7-0.9-1.6-0.9-2.8c0-1.1,0.3-2,0.8-2.8c0.5-0.8,1.3-1.2,2.4-1.2C197,215.3,197.5,215.4,197.9,215.7
		 M195.1,221.2c0.3,0.5,0.9,0.8,1.6,0.8c0.6,0,1-0.2,1.4-0.7c0.4-0.5,0.6-1.2,0.6-2.1c0-0.9-0.2-1.6-0.6-2.1
		c-0.4-0.4-0.8-0.7-1.4-0.7c-0.6,0-1.1,0.2-1.5,0.7c-0.4,0.5-0.6,1.2-0.6,2.1C194.6,220,194.8,220.7,195.1,221.2"/>
	<path class="st0" d="M210.9,212.7h1.6l3.7,10.2h-1.5l-1.1-3h-4l-1.1,3h-1.4L210.9,212.7z M213.2,218.7l-1.6-4.5l-1.6,4.5H213.2z"/>
	<path class="st0" d="M218.6,215.5h1.2v1c0.3-0.3,0.5-0.6,0.8-0.8c0.4-0.3,0.9-0.4,1.5-0.4c0.8,0,1.6,0.3,2.1,1
		c0.6,0.6,0.9,1.6,0.9,2.8c0,1.6-0.4,2.8-1.3,3.5c-0.5,0.4-1.2,0.7-1.9,0.7c-0.6,0-1-0.1-1.4-0.4c-0.2-0.1-0.5-0.4-0.7-0.7v3.8h-1.2
		V215.5z M223.3,221.3c0.4-0.5,0.6-1.2,0.6-2.2c0-0.6-0.1-1.1-0.3-1.5c-0.3-0.8-0.9-1.2-1.8-1.2c-0.9,0-1.5,0.4-1.8,1.3
		c-0.2,0.5-0.3,1-0.3,1.8c0,0.6,0.1,1.1,0.3,1.5c0.3,0.8,0.9,1.1,1.8,1.1C222.4,222,222.9,221.8,223.3,221.3"/>
	<path class="st0" d="M232,218.4c0.3,0,0.5-0.2,0.6-0.4c0.1-0.1,0.1-0.3,0.1-0.5c0-0.4-0.2-0.7-0.5-0.9c-0.3-0.2-0.7-0.3-1.3-0.3
		c-0.6,0-1.1,0.2-1.4,0.5c-0.2,0.2-0.3,0.5-0.3,0.9h-1.2c0-0.9,0.3-1.6,0.9-1.9c0.6-0.4,1.2-0.5,2-0.5c0.9,0,1.6,0.2,2.1,0.5
		c0.5,0.3,0.8,0.8,0.8,1.5v4.3c0,0.1,0,0.2,0.1,0.3c0.1,0.1,0.2,0.1,0.3,0.1c0.1,0,0.1,0,0.2,0c0.1,0,0.1,0,0.2,0v0.9
		c-0.2,0.1-0.3,0.1-0.4,0.1s-0.2,0-0.4,0c-0.4,0-0.7-0.2-0.9-0.5c-0.1-0.2-0.2-0.4-0.2-0.7c-0.3,0.3-0.6,0.6-1.1,0.9
		c-0.5,0.2-1,0.4-1.6,0.4c-0.7,0-1.3-0.2-1.7-0.6c-0.4-0.4-0.7-0.9-0.7-1.6c0-0.7,0.2-1.2,0.6-1.6c0.4-0.4,1-0.6,1.7-0.7L232,218.4z
		 M229.4,221.7c0.3,0.2,0.6,0.3,0.9,0.3c0.4,0,0.9-0.1,1.3-0.3c0.7-0.3,1-0.9,1-1.6v-1c-0.2,0.1-0.3,0.2-0.6,0.2
		c-0.2,0.1-0.5,0.1-0.7,0.1l-0.8,0.1c-0.4,0.1-0.8,0.2-1,0.3c-0.4,0.2-0.6,0.6-0.6,1C229,221.3,229.1,221.5,229.4,221.7"/>
	<path class="st0" d="M237.4,215.5h1.2v1.3c0.1-0.2,0.3-0.6,0.7-0.9c0.4-0.4,0.8-0.5,1.3-0.5c0,0,0.1,0,0.1,0c0.1,0,0.1,0,0.3,0v1.3
		c-0.1,0-0.1,0-0.2,0c-0.1,0-0.1,0-0.2,0c-0.6,0-1.1,0.2-1.4,0.6c-0.3,0.4-0.5,0.9-0.5,1.4v4.3h-1.2V215.5z"/>
	<path class="st0" d="M243.8,213.4h1.3v2.1h1.2v1H245v4.8c0,0.3,0.1,0.4,0.3,0.5c0.1,0,0.3,0.1,0.5,0.1c0.1,0,0.1,0,0.2,0
		c0.1,0,0.1,0,0.2,0v1c-0.1,0-0.3,0.1-0.4,0.1c-0.2,0-0.3,0-0.5,0c-0.6,0-1-0.1-1.2-0.4c-0.2-0.3-0.3-0.7-0.3-1.2v-4.9h-1v-1h1
		V213.4z"/>
	<path class="st0" d="M248.9,215.5h1.2v1.1c0.3-0.4,0.6-0.6,0.8-0.8c0.4-0.3,0.9-0.4,1.4-0.4c0.6,0,1.1,0.1,1.4,0.4
		c0.2,0.2,0.4,0.4,0.6,0.7c0.3-0.4,0.6-0.7,1-0.9c0.4-0.2,0.8-0.3,1.3-0.3c1,0,1.7,0.4,2,1.1c0.2,0.4,0.3,0.9,0.3,1.6v4.9h-1.3v-5.1
		c0-0.5-0.1-0.8-0.4-1c-0.2-0.2-0.5-0.3-0.9-0.3c-0.5,0-0.9,0.2-1.3,0.5c-0.4,0.3-0.5,0.9-0.5,1.6v4.3h-1.3V218
		c0-0.5-0.1-0.9-0.2-1.1c-0.2-0.3-0.5-0.5-1.1-0.5c-0.5,0-0.9,0.2-1.3,0.5c-0.4,0.4-0.6,1-0.6,2v3.9h-1.2V215.5z"/>
	<path class="st0" d="M266.8,215.7c0.5,0.2,0.9,0.6,1.1,1c0.2,0.4,0.4,0.8,0.5,1.3c0.1,0.3,0.1,0.9,0.1,1.6h-5.4
		c0,0.8,0.2,1.4,0.5,1.8c0.3,0.5,0.8,0.7,1.5,0.7c0.6,0,1.2-0.2,1.5-0.6c0.2-0.3,0.4-0.5,0.5-0.9h1.2c0,0.3-0.1,0.6-0.3,0.9
		c-0.2,0.3-0.4,0.6-0.6,0.8c-0.4,0.4-0.8,0.6-1.4,0.7c-0.3,0.1-0.6,0.1-1,0.1c-0.9,0-1.7-0.3-2.3-1c-0.6-0.7-1-1.6-1-2.8
		c0-1.2,0.3-2.2,1-2.9c0.6-0.7,1.5-1.1,2.5-1.1C265.8,215.3,266.3,215.4,266.8,215.7 M267.2,218.6c0-0.5-0.2-1-0.3-1.3
		c-0.3-0.6-0.9-0.9-1.7-0.9c-0.6,0-1,0.2-1.4,0.6c-0.4,0.4-0.6,0.9-0.6,1.6H267.2z"/>
	<path class="st0" d="M271.5,215.5h1.2v1.1c0.3-0.4,0.7-0.7,1.1-0.9c0.4-0.2,0.8-0.3,1.3-0.3c1.1,0,1.8,0.4,2.1,1.1
		c0.2,0.4,0.3,1,0.3,1.7v4.8h-1.3v-4.7c0-0.5-0.1-0.8-0.2-1.1c-0.2-0.5-0.6-0.7-1.2-0.7c-0.3,0-0.5,0-0.7,0.1
		c-0.3,0.1-0.6,0.3-0.9,0.6c-0.2,0.2-0.3,0.5-0.4,0.8c-0.1,0.3-0.1,0.6-0.1,1.1v3.9h-1.2V215.5z"/>
	<path class="st0" d="M281.1,213.4h1.3v2.1h1.2v1h-1.2v4.8c0,0.3,0.1,0.4,0.3,0.5c0.1,0,0.3,0.1,0.5,0.1c0.1,0,0.1,0,0.2,0
		c0.1,0,0.1,0,0.2,0v1c-0.1,0-0.3,0.1-0.4,0.1c-0.2,0-0.3,0-0.5,0c-0.6,0-1-0.1-1.2-0.4c-0.2-0.3-0.3-0.7-0.3-1.2v-4.9h-1v-1h1
		V213.4z"/>
	<path class="st0" d="M287,220.5c0,0.4,0.1,0.7,0.3,1c0.3,0.4,0.9,0.6,1.7,0.6c0.5,0,0.9-0.1,1.2-0.3c0.4-0.2,0.5-0.5,0.5-0.9
		c0-0.3-0.1-0.6-0.4-0.7c-0.2-0.1-0.5-0.2-1.1-0.4l-1-0.2c-0.6-0.2-1.1-0.3-1.4-0.5c-0.5-0.3-0.8-0.8-0.8-1.4c0-0.7,0.3-1.3,0.8-1.7
		c0.5-0.4,1.2-0.6,2.1-0.6c1.1,0,1.9,0.3,2.4,1c0.3,0.4,0.5,0.9,0.5,1.3h-1.2c0-0.3-0.1-0.5-0.3-0.8c-0.3-0.3-0.8-0.5-1.5-0.5
		c-0.5,0-0.8,0.1-1.1,0.3s-0.4,0.4-0.4,0.7c0,0.3,0.2,0.6,0.5,0.8c0.2,0.1,0.5,0.2,0.8,0.3l0.8,0.2c0.9,0.2,1.5,0.4,1.8,0.6
		c0.5,0.3,0.7,0.8,0.7,1.5c0,0.7-0.3,1.2-0.8,1.7c-0.5,0.5-1.3,0.7-2.3,0.7c-1.1,0-1.9-0.2-2.4-0.7c-0.5-0.5-0.7-1.1-0.7-1.9H287z"
		/>
	<line class="st0" x1="99.9" y1="205.5" x2="271.2" y2="205.5"/>
	<path class="st0" d="M271.3,205.8H99.9c-0.2,0-0.3-0.1-0.3-0.3c0-0.2,0.1-0.3,0.3-0.3h171.3c0.2,0,0.3,0.1,0.3,0.3
		C271.6,205.6,271.4,205.8,271.3,205.8"/>
	<path class="st0" d="M237.1,93.6c0,33.3-25.6,60.5-58.1,63.3c-1.8,0.2-3.6,0.2-5.4,0.2c-1.8,0-3.6-0.1-5.4-0.2
		c-32.6-2.7-58.1-30-58.1-63.3c0-35.1,28.4-63.5,63.5-63.5C208.7,30.1,237.1,58.5,237.1,93.6"/>
	<path class="st1" d="M215,136l-36,8c-0.2,0.1-0.4,0.3-0.4,0.5l0.5,12.4c-1.8,0.2-3.6,0.2-5.4,0.2c-1.8,0-3.6-0.1-5.4-0.2l0.5-12.4
		c0-0.3-0.2-0.5-0.4-0.5l-36-8c-0.6-0.1-0.5-1,0.1-1h36.2c0.3,0,0.5-0.2,0.5-0.5l0.3-6.2c0-0.3-0.2-0.5-0.4-0.5l-28.9-6.4
		c-0.6-0.1-0.5-1,0.1-1h29c0.3,0,0.5-0.2,0.5-0.5l0.2-5.7c0-0.3-0.2-0.5-0.4-0.5l-23-5.1c-0.6-0.1-0.5-1.1,0.1-1.1h23.1
		c0.3,0,0.5-0.2,0.5-0.5l0.2-5.7c0-0.3-0.2-0.5-0.4-0.5l-18.2-4c-0.6-0.1-0.5-1,0.1-1h18.2c0.3,0,0.5-0.2,0.5-0.5L171,89
		c0-0.3-0.2-0.5-0.4-0.5l-14.2-3.1c-0.6-0.1-0.5-1,0.1-1h14.2c0.3,0,0.5-0.2,0.5-0.5l0.2-5.6c0-0.3-0.2-0.5-0.4-0.5l-10.9-2.4
		c-0.6-0.1-0.5-1,0.1-1h10.9c0.3,0,0.5-0.2,0.5-0.5l0.2-5.7c0-0.3-0.2-0.5-0.4-0.5l-8.3-1.8c-0.6-0.1-0.5-1.1,0.1-1.1h8.2
		c0.3,0,0.5-0.2,0.5-0.5l0.2-4.3c0-0.3-0.2-0.5-0.4-0.5l-6.1-1.3c-0.6-0.1-0.5-1.1,0.1-1.1h6c0.3,0,0.5-0.2,0.5-0.5l0.2-4.8
		c0-0.3-0.2-0.5-0.4-0.5l-4.3-1c-0.6-0.1-0.5-1.1,0.1-1.1h4.2c0.3,0,0.5-0.2,0.5-0.5l0.2-4.5c0-0.3-0.2-0.5-0.4-0.5l-2.9-0.6
		c-0.6-0.1-0.5-1,0.1-1h2.7c0.3,0,0.5-0.2,0.5-0.5l0.1-3.6c0-0.3-0.2-0.5-0.4-0.5l-1.7-0.4c-0.6-0.1-0.5-1,0.1-1h1.5
		c0.3,0,0.5-0.2,0.5-0.5l0.2-5l0.2,5c0,0.3,0.2,0.5,0.5,0.5h1.5c0.6,0,0.7,0.9,0.1,1l-1.7,0.4c-0.3,0.1-0.4,0.3-0.4,0.5l0.2,3.6
		c0,0.3,0.2,0.5,0.5,0.5h2.7c0.6,0,0.7,0.9,0.1,1l-2.9,0.6c-0.2,0.1-0.4,0.3-0.4,0.5l0.2,4.5c0,0.3,0.2,0.5,0.5,0.5h4.2
		c0.6,0,0.7,0.9,0.1,1.1l-4.3,1c-0.3,0.1-0.4,0.3-0.4,0.5l0.2,4.8c0,0.3,0.2,0.5,0.5,0.5h6c0.6,0,0.7,0.9,0.1,1.1l-6.1,1.3
		c-0.2,0.1-0.4,0.3-0.4,0.5l0.2,4.3c0,0.3,0.2,0.5,0.5,0.5h8.2c0.6,0,0.7,0.9,0.1,1.1l-8.3,1.8c-0.3,0.1-0.4,0.3-0.4,0.5l0.2,5.7
		c0,0.3,0.2,0.5,0.5,0.5h10.9c0.6,0,0.7,0.9,0.1,1l-10.9,2.4c-0.3,0.1-0.4,0.3-0.4,0.5l0.2,5.6c0,0.3,0.2,0.5,0.5,0.5h14.2
		c0.6,0,0.7,0.9,0.1,1l-14.2,3.1c-0.2,0.1-0.4,0.3-0.4,0.5l0.3,6.1c0,0.3,0.2,0.5,0.5,0.5h18.2c0.6,0,0.7,0.9,0.1,1l-18.1,4
		c-0.2,0.1-0.4,0.3-0.4,0.5l0.2,5.7c0,0.3,0.2,0.5,0.5,0.5h23.1c0.6,0,0.7,0.9,0.1,1.1l-23,5.1c-0.3,0.1-0.4,0.3-0.4,0.5l0.2,5.7
		c0,0.3,0.2,0.5,0.5,0.5h29c0.6,0,0.7,0.9,0.1,1l-28.9,6.4c-0.3,0.1-0.4,0.3-0.4,0.5l0.3,6.2c0,0.3,0.2,0.5,0.5,0.5h36.2
		C215.5,135,215.6,135.9,215,136"/>
</g>
</svg>
