<?xml version="1.0" encoding="utf-8"?>
<!-- Generator: Adobe Illustrator 21.1.0, SVG Export Plug-In . SVG Version: 6.00 Build 0)  -->
<svg version="1.1" id="Layer_1" xmlns="http://www.w3.org/2000/svg" xmlns:xlink="http://www.w3.org/1999/xlink" x="0px" y="0px"
	 viewBox="0 0 350 255.1" style="enable-background:new 0 0 350 255.1;" xml:space="preserve">
<style type="text/css">
	.st0{fill:#1F191A;}
</style>
<g>
	<path class="st0" d="M177.7,91.1c0,1.4-1.2,2.6-2.6,2.6c-1.4,0-2.7-1.2-2.7-2.6c0-1.4,1.2-2.6,2.7-2.6
		C176.4,88.5,177.7,89.6,177.7,91.1"/>
	<path class="st0" d="M201.4,96.5c-0.6-1.4-1.6-2.8-2.8-3.8l-0.4-0.3h-0.1c-1.3-0.9-2.8-1.5-4.4-1.7c-1.5-0.2-3,0.1-4.4,0.6
		s-2.6,1.4-3.6,2.5l-0.1,0.1l-5.5,7.3l-2.4-3.2l-2.7-3.6l-2.7,3.6l-2.4,3.2l-5.6-7.3l-0.1-0.1c-1-1.1-2.2-2-3.6-2.5
		c-1.4-0.6-2.9-0.8-4.4-0.6c-1.6,0.2-3.1,0.8-4.4,1.7h-0.1l-0.4,0.3c-1.3,1-2.2,2.3-2.8,3.8c-0.5,1.1-0.7,2.3-0.7,3.4
		c0,0.3,0,0.6,0.1,0.9c0,0,0,0,0,0.1c0.2,1.6,0.8,3.2,1.8,4.5l0,0l8.4,11.1l-4.3,5.7c-0.2,0.3-0.5,0.6-0.7,0.9
		c-0.8,1.2-1.3,2.7-1.4,4.1c-0.1,0.3-0.1,0.6-0.1,0.9c0,2.5,1.1,5,3,6.7c0.5,0.5,1,0.8,1.6,1.2c0.7,0.4,1.5,0.8,2.3,1
		c0.8,0.2,1.6,0.3,2.5,0.3c1.7,0,3.3-0.5,4.7-1.3c0.9-0.5,1.6-1.2,2.3-1.9c0.6,0.8,1.4,1.4,2.3,1.9c1.4,0.9,3.1,1.3,4.7,1.3
		s3.3-0.5,4.7-1.3c0.9-0.5,1.6-1.2,2.3-1.9c0.6,0.8,1.4,1.4,2.3,1.9c1.4,0.9,3.1,1.3,4.7,1.3c0.8,0,1.7-0.1,2.5-0.3
		c0.8-0.2,1.6-0.5,2.3-1c0.6-0.3,1-0.7,1.6-1.2c1.9-1.7,3-4.2,3-6.7c0-0.3,0-0.6-0.1-0.9c-0.2-1.4-0.6-2.9-1.4-4.1
		c-0.2-0.3-0.5-0.6-0.7-0.9l-4.3-5.7l8.4-11.1l0,0c1-1.3,1.6-2.9,1.8-4.5v-0.1c0.1-0.3,0.1-0.6,0.1-0.9
		C202.1,98.7,201.8,97.6,201.4,96.5 M169.9,108.5l2.8-3.6l2.4-3.2l2.1,2.7l3.1,4l0.2,0.2l6,7.9l-2.5,3.2l-1.9,2.4l-4-5.3l-0.3-0.4
		l-1.9-2.4l-0.9-1.2l-0.9,1.2l-3,3.9l-3.2,4.2l-1.9-2.4l-2.5-3.2L169.9,108.5L169.9,108.5z M153.4,103c-0.1-0.1-0.2-0.2-0.2-0.3
		c-0.6-0.8-0.9-1.8-0.9-2.8c0-1.5,0.7-2.9,1.9-3.8c0.1-0.1,0.1-0.1,0.2-0.1c0.9-0.6,1.9-0.9,2.9-0.9c1.4,0,2.8,0.6,3.7,1.7
		c0.2,0.2,0.3,0.3,0.4,0.6l0.1,0.1l5.7,7.5l-6.1,8l-1.8-2.3l0,0L153.4,103z M161.5,133c-0.2,0-0.4,0.1-0.6,0.1
		c-1.4,0-2.8-0.6-3.6-1.6c-0.8-0.9-1.3-2-1.3-3.2c0-0.9,0.3-1.8,0.8-2.6l4.2-5.4l2.5,3.2l1.6,2.1c0.4,0.6,0.6,1.3,0.8,2l0,0
		c0,0.2-0.1,0.5-0.1,0.8c0,0.2,0,0.5,0.1,0.7C165.5,131,163.7,132.7,161.5,133 M175,133c-2.4,0-4.5-1.8-4.9-4.2
		c0-0.2,0.1-0.5,0.1-0.7c0-0.2,0-0.5-0.1-0.8c0.1-0.6,0.3-1.3,0.7-1.9l4.2-5.4l4,5.3c0.4,0.6,0.7,1.3,0.8,2c0,0.2,0,0.5,0,0.7
		c0,0.2,0,0.5,0,0.6C179.5,131.2,177.5,133,175,133 M193.2,125.6c0.5,0.8,0.8,1.7,0.8,2.6c0,1.3-0.5,2.4-1.3,3.2
		c-0.9,1-2.2,1.6-3.6,1.6c-0.2,0-0.4,0-0.6-0.1c-2.2-0.3-4-2-4.3-4.2c0-0.2,0-0.5,0-0.6c0-0.2,0-0.5,0-0.7v-0.1
		c0.1-0.7,0.3-1.3,0.8-2l1.6-2.1l2.5-3.2L193.2,125.6z M196.8,102.7c-0.1,0.1-0.2,0.2-0.2,0.3l-5.8,7.6l0,0L189,113l-6.1-8l5.7-7.5
		l0.1-0.1c0.1-0.2,0.3-0.4,0.4-0.6c0.9-1,2.3-1.7,3.7-1.7c1,0,2,0.3,2.9,0.9c0.1,0.1,0.1,0.1,0.2,0.1c1.2,0.9,1.9,2.3,1.9,3.8
		C197.7,100.9,197.4,101.9,196.8,102.7"/>
	<rect x="91.1" y="149.7" class="st0" width="3.8" height="18.7"/>
	<path class="st0" d="M97.4,154.3h3.8v1.2l0.9-1.2h2.9c0.5,0,1,0.2,1.3,0.7c0.4,0.5,0.6,1,0.6,1.6v11.7h-3.8v-10.5h-1.9v10.5h-3.8
		V154.3z"/>
	<path class="st0" d="M110,167.7c-0.3-0.5-0.6-1-0.6-1.6v-9.4c0-0.6,0.2-1.2,0.6-1.6c0.4-0.5,0.8-0.7,1.3-0.7h3.8v-4.7h3.8v18.7
		h-3.8v-1.2l-0.9,1.2h-2.8C110.8,168.4,110.4,168.2,110,167.7 M115.1,157.9h-1.9v7.1h1.9V157.9z"/>
	<path class="st0" d="M122,167.7c-0.4-0.5-0.6-1-0.6-1.6v-9.4c0-0.6,0.2-1.2,0.6-1.6c0.3-0.5,0.8-0.7,1.3-0.7h5.7
		c0.5,0,0.9,0.2,1.3,0.7c0.4,0.5,0.6,1,0.6,1.6v9.4c0,0.6-0.2,1.2-0.6,1.6c-0.4,0.5-0.8,0.7-1.3,0.7h-5.7
		C122.8,168.4,122.4,168.2,122,167.7 M127.2,157.9h-1.9v7.1h1.9V157.9z"/>
	<path class="st0" d="M134,167.7c-0.3-0.5-0.6-1-0.6-1.7v-9.4c0-0.6,0.2-1.2,0.6-1.7c0.3-0.5,0.8-0.7,1.3-0.7h5.7
		c0.5,0,1,0.2,1.3,0.7c0.4,0.5,0.6,1,0.6,1.7v3.5h-3.8v-2.4h-1.9v7.1h1.9v-2.3h3.8v3.5c0,0.6-0.2,1.2-0.6,1.7
		c-0.3,0.5-0.8,0.7-1.3,0.7h-5.7C134.9,168.4,134.4,168.2,134,167.7"/>
	<path class="st0" d="M145.4,149.7h3.8v5.8l0.9-1.2h2.8c0.5,0,1,0.2,1.3,0.7c0.4,0.5,0.6,1,0.6,1.6v11.7h-3.8v-10.5h-1.9v10.5h-3.8
		C145.4,168.4,145.4,149.7,145.4,149.7z"/>
	<path class="st0" d="M157.5,149.7h3.8v3.5h-3.8V149.7z M157.5,154.3h3.8v14.1h-3.8V154.3z"/>
	<path class="st0" d="M163.8,154.3h3.8v1.2l0.9-1.2h2.8c0.5,0,1,0.2,1.3,0.7c0.4,0.5,0.6,1,0.6,1.6v11.7h-3.8v-10.5h-1.9v10.5h-3.8
		V154.3z"/>
	<path class="st0" d="M176.4,167.7c-0.3-0.5-0.6-1-0.6-1.6v-9.4c0-0.6,0.2-1.2,0.6-1.6c0.3-0.5,0.8-0.7,1.3-0.7h5.7
		c0.5,0,1,0.2,1.3,0.7c0.4,0.5,0.6,1,0.6,1.6v5.8h-5.7v2.4h1.9v-1.2h3.8v2.4c0,0.6-0.2,1.2-0.6,1.6c-0.3,0.5-0.8,0.7-1.3,0.7h-5.7
		C177.2,168.4,176.7,168.2,176.4,167.7 M181.5,157.9h-1.9v1.2h1.9V157.9z"/>
	<path class="st0" d="M194.1,149.7h6.7c0.8,0,1.4,0.3,2,1s0.8,1.5,0.8,2.5v5.8c0,1-0.3,1.8-0.8,2.5c-0.6,0.7-1.2,1-2,1h-2.8v5.8
		h-3.8V149.7z M199.8,153.2h-1.9v5.8h1.9V153.2z"/>
	<path class="st0" d="M206.7,167.7c-0.3-0.5-0.6-1-0.6-1.6v-4.7c0-0.6,0.2-1.2,0.6-1.7c0.4-0.5,0.8-0.7,1.3-0.7h3.8v-1.2h-5.7v-3.5
		h7.6c0.5,0,1,0.2,1.3,0.7c0.3,0.5,0.6,1,0.6,1.6v11.7h-2.4l-0.5-1.2l-0.9,1.2h-3.8C207.5,168.4,207,168.2,206.7,167.7 M211.8,162.5
		h-1.9v2.4h1.9V162.5z"/>
	<path class="st0" d="M218.7,167.7c-0.3-0.5-0.6-1-0.6-1.7v-16.4h3.8v15.2h0.9v3.5h-2.8C219.5,168.4,219.1,168.2,218.7,167.7"/>
	<path class="st0" d="M226,167.7c-0.3-0.5-0.6-1-0.6-1.6v-4.7c0-0.6,0.2-1.2,0.6-1.7c0.4-0.5,0.8-0.7,1.3-0.7h3.8v-1.2h-5.7v-3.5
		h7.6c0.5,0,1,0.2,1.3,0.7c0.3,0.5,0.6,1,0.6,1.6v11.7h-2.4l-0.5-1.2l-0.9,1.2h-3.8C226.8,168.4,226.3,168.2,226,167.7 M231.1,162.5
		h-1.9v2.4h1.9V162.5z"/>
	<path class="st0" d="M237.9,167.7c-0.4-0.5-0.6-1-0.6-1.7v-9.4c0-0.6,0.2-1.2,0.6-1.7c0.3-0.5,0.8-0.7,1.3-0.7h5.7
		c0.5,0,0.9,0.2,1.3,0.7c0.4,0.5,0.6,1,0.6,1.7v3.5H243v-2.4h-1.9v7.1h1.9v-2.3h3.8v3.5c0,0.6-0.2,1.2-0.6,1.7
		c-0.4,0.5-0.8,0.7-1.3,0.7h-5.7C238.8,168.4,238.3,168.2,237.9,167.7"/>
	<path class="st0" d="M250,167.7c-0.3-0.5-0.6-1-0.6-1.6v-9.4c0-0.6,0.2-1.2,0.6-1.6c0.3-0.5,0.8-0.7,1.3-0.7h5.7
		c0.5,0,0.9,0.2,1.3,0.7c0.3,0.5,0.6,1,0.6,1.6v5.8h-5.7v2.4h1.9v-1.2h3.8v2.4c0,0.6-0.2,1.2-0.6,1.6c-0.4,0.5-0.8,0.7-1.3,0.7h-5.7
		C250.8,168.4,250.4,168.2,250,167.7 M255.1,157.9h-1.9v1.2h1.9V157.9z"/>
</g>
</svg>
