<?xml version="1.0" encoding="utf-8"?>
<!-- Generator: Adobe Illustrator 21.1.0, SVG Export Plug-In . SVG Version: 6.00 Build 0)  -->
<svg version="1.1" id="Layer_1" xmlns="http://www.w3.org/2000/svg" xmlns:xlink="http://www.w3.org/1999/xlink" x="0px" y="0px"
	 viewBox="0 0 350 255.1" style="enable-background:new 0 0 350 255.1;" xml:space="preserve">
<style type="text/css">
	.st0{clip-path:url(#SVGID_2_);}
	.st1{clip-path:url(#SVGID_39_);}
	.st2{clip-path:url(#SVGID_40_);}
	.st3{clip-path:url(#SVGID_41_);}
	.st4{clip-path:url(#SVGID_42_);}
	.st5{clip-path:url(#SVGID_43_);}
	.st6{clip-path:url(#SVGID_44_);}
	.st7{clip-path:url(#SVGID_45_);}
	.st8{clip-path:url(#SVGID_46_);}
	.st9{clip-path:url(#SVGID_47_);}
	.st10{clip-path:url(#SVGID_48_);}
	.st11{clip-path:url(#SVGID_49_);}
	.st12{clip-path:url(#SVGID_50_);}
	.st13{clip-path:url(#SVGID_51_);}
	.st14{clip-path:url(#SVGID_52_);}
	.st15{clip-path:url(#SVGID_53_);}
	.st16{clip-path:url(#SVGID_54_);}
	.st17{clip-path:url(#SVGID_55_);}
	.st18{clip-path:url(#SVGID_56_);}
	.st19{clip-path:url(#SVGID_57_);}
	.st20{clip-path:url(#SVGID_58_);}
	.st21{clip-path:url(#SVGID_59_);}
	.st22{clip-path:url(#SVGID_60_);}
	.st23{clip-path:url(#SVGID_61_);}
	.st24{clip-path:url(#SVGID_62_);}
	.st25{clip-path:url(#SVGID_63_);}
	.st26{clip-path:url(#SVGID_64_);}
	.st27{clip-path:url(#SVGID_65_);}
	.st28{clip-path:url(#SVGID_66_);}
	.st29{clip-path:url(#SVGID_67_);}
	.st30{clip-path:url(#SVGID_68_);}
	.st31{clip-path:url(#SVGID_69_);}
	.st32{clip-path:url(#SVGID_70_);}
	.st33{clip-path:url(#SVGID_71_);}
	.st34{clip-path:url(#SVGID_72_);}
	.st35{clip-path:url(#SVGID_73_);}
	.st36{clip-path:url(#SVGID_74_);fill:#FFFFFF;}
	.st37{clip-path:url(#SVGID_74_);}
</style>
<g>
	<g>
		<defs>
			<rect id="SVGID_1_" x="135.9" y="88.4" width="80" height="80"/>
		</defs>
		<clipPath id="SVGID_2_">
			<use xlink:href="#SVGID_1_"  style="overflow:visible;"/>
		</clipPath>
		<g class="st0">
			<g>
				<defs>
					<rect id="SVGID_3_" x="135.9" y="88.4" width="80" height="80"/>
				</defs>
				<defs>
					<rect id="SVGID_4_" x="135.9" y="88.4" width="80" height="80"/>
				</defs>
				<defs>
					<rect id="SVGID_5_" x="135.9" y="88.4" width="80" height="80"/>
				</defs>
				<defs>
					<rect id="SVGID_6_" x="135.9" y="88.4" width="80" height="80"/>
				</defs>
				<defs>
					<rect id="SVGID_7_" x="135.9" y="88.4" width="80" height="80"/>
				</defs>
				<defs>
					<rect id="SVGID_8_" x="135.9" y="88.4" width="80" height="80"/>
				</defs>
				<defs>
					<rect id="SVGID_9_" x="135.9" y="88.4" width="80" height="80"/>
				</defs>
				<defs>
					<rect id="SVGID_10_" x="135.9" y="88.4" width="80" height="80"/>
				</defs>
				<defs>
					<rect id="SVGID_11_" x="135.9" y="88.4" width="80" height="80"/>
				</defs>
				<defs>
					<rect id="SVGID_12_" x="135.9" y="88.4" width="80" height="80"/>
				</defs>
				<defs>
					<rect id="SVGID_13_" x="135.9" y="88.4" width="80" height="80"/>
				</defs>
				<defs>
					<rect id="SVGID_14_" x="135.9" y="88.4" width="80" height="80"/>
				</defs>
				<defs>
					<rect id="SVGID_15_" x="135.9" y="88.4" width="80" height="80"/>
				</defs>
				<defs>
					<rect id="SVGID_16_" x="135.9" y="88.4" width="80" height="80"/>
				</defs>
				<defs>
					<rect id="SVGID_17_" x="135.9" y="88.4" width="80" height="80"/>
				</defs>
				<defs>
					<rect id="SVGID_18_" x="135.9" y="88.4" width="80" height="80"/>
				</defs>
				<defs>
					<rect id="SVGID_19_" x="135.9" y="88.4" width="80" height="80"/>
				</defs>
				<defs>
					<rect id="SVGID_20_" x="135.9" y="88.4" width="80" height="80"/>
				</defs>
				<defs>
					<rect id="SVGID_21_" x="135.9" y="88.4" width="80" height="80"/>
				</defs>
				<defs>
					<rect id="SVGID_22_" x="135.9" y="88.4" width="80" height="80"/>
				</defs>
				<defs>
					<rect id="SVGID_23_" x="135.9" y="88.4" width="80" height="80"/>
				</defs>
				<defs>
					<rect id="SVGID_24_" x="135.9" y="88.4" width="80" height="80"/>
				</defs>
				<defs>
					<rect id="SVGID_25_" x="135.9" y="88.4" width="80" height="80"/>
				</defs>
				<defs>
					<rect id="SVGID_26_" x="135.9" y="88.4" width="80" height="80"/>
				</defs>
				<defs>
					<rect id="SVGID_27_" x="135.9" y="88.4" width="80" height="80"/>
				</defs>
				<defs>
					<rect id="SVGID_28_" x="135.9" y="88.4" width="80" height="80"/>
				</defs>
				<defs>
					<rect id="SVGID_29_" x="135.9" y="88.4" width="80" height="80"/>
				</defs>
				<defs>
					<rect id="SVGID_30_" x="135.9" y="88.4" width="80" height="80"/>
				</defs>
				<defs>
					<rect id="SVGID_31_" x="135.9" y="88.4" width="80" height="80"/>
				</defs>
				<defs>
					<rect id="SVGID_32_" x="135.9" y="88.4" width="80" height="80"/>
				</defs>
				<defs>
					<rect id="SVGID_33_" x="135.9" y="88.4" width="80" height="80"/>
				</defs>
				<defs>
					<rect id="SVGID_34_" x="135.9" y="88.4" width="80" height="80"/>
				</defs>
				<defs>
					<rect id="SVGID_35_" x="135.9" y="88.4" width="80" height="80"/>
				</defs>
				<defs>
					<rect id="SVGID_36_" x="135.9" y="88.4" width="80" height="80"/>
				</defs>
				<defs>
					<rect id="SVGID_37_" x="135.9" y="88.4" width="80" height="80"/>
				</defs>
				<defs>
					<rect id="SVGID_38_" x="135.9" y="88.4" width="80" height="80"/>
				</defs>
				<clipPath id="SVGID_39_">
					<use xlink:href="#SVGID_3_"  style="overflow:visible;"/>
				</clipPath>
				<clipPath id="SVGID_40_" class="st1">
					<use xlink:href="#SVGID_4_"  style="overflow:visible;"/>
				</clipPath>
				<clipPath id="SVGID_41_" class="st2">
					<use xlink:href="#SVGID_5_"  style="overflow:visible;"/>
				</clipPath>
				<clipPath id="SVGID_42_" class="st3">
					<use xlink:href="#SVGID_6_"  style="overflow:visible;"/>
				</clipPath>
				<clipPath id="SVGID_43_" class="st4">
					<use xlink:href="#SVGID_7_"  style="overflow:visible;"/>
				</clipPath>
				<clipPath id="SVGID_44_" class="st5">
					<use xlink:href="#SVGID_8_"  style="overflow:visible;"/>
				</clipPath>
				<clipPath id="SVGID_45_" class="st6">
					<use xlink:href="#SVGID_9_"  style="overflow:visible;"/>
				</clipPath>
				<clipPath id="SVGID_46_" class="st7">
					<use xlink:href="#SVGID_10_"  style="overflow:visible;"/>
				</clipPath>
				<clipPath id="SVGID_47_" class="st8">
					<use xlink:href="#SVGID_11_"  style="overflow:visible;"/>
				</clipPath>
				<clipPath id="SVGID_48_" class="st9">
					<use xlink:href="#SVGID_12_"  style="overflow:visible;"/>
				</clipPath>
				<clipPath id="SVGID_49_" class="st10">
					<use xlink:href="#SVGID_13_"  style="overflow:visible;"/>
				</clipPath>
				<clipPath id="SVGID_50_" class="st11">
					<use xlink:href="#SVGID_14_"  style="overflow:visible;"/>
				</clipPath>
				<clipPath id="SVGID_51_" class="st12">
					<use xlink:href="#SVGID_15_"  style="overflow:visible;"/>
				</clipPath>
				<clipPath id="SVGID_52_" class="st13">
					<use xlink:href="#SVGID_16_"  style="overflow:visible;"/>
				</clipPath>
				<clipPath id="SVGID_53_" class="st14">
					<use xlink:href="#SVGID_17_"  style="overflow:visible;"/>
				</clipPath>
				<clipPath id="SVGID_54_" class="st15">
					<use xlink:href="#SVGID_18_"  style="overflow:visible;"/>
				</clipPath>
				<clipPath id="SVGID_55_" class="st16">
					<use xlink:href="#SVGID_19_"  style="overflow:visible;"/>
				</clipPath>
				<clipPath id="SVGID_56_" class="st17">
					<use xlink:href="#SVGID_20_"  style="overflow:visible;"/>
				</clipPath>
				<clipPath id="SVGID_57_" class="st18">
					<use xlink:href="#SVGID_21_"  style="overflow:visible;"/>
				</clipPath>
				<clipPath id="SVGID_58_" class="st19">
					<use xlink:href="#SVGID_22_"  style="overflow:visible;"/>
				</clipPath>
				<clipPath id="SVGID_59_" class="st20">
					<use xlink:href="#SVGID_23_"  style="overflow:visible;"/>
				</clipPath>
				<clipPath id="SVGID_60_" class="st21">
					<use xlink:href="#SVGID_24_"  style="overflow:visible;"/>
				</clipPath>
				<clipPath id="SVGID_61_" class="st22">
					<use xlink:href="#SVGID_25_"  style="overflow:visible;"/>
				</clipPath>
				<clipPath id="SVGID_62_" class="st23">
					<use xlink:href="#SVGID_26_"  style="overflow:visible;"/>
				</clipPath>
				<clipPath id="SVGID_63_" class="st24">
					<use xlink:href="#SVGID_27_"  style="overflow:visible;"/>
				</clipPath>
				<clipPath id="SVGID_64_" class="st25">
					<use xlink:href="#SVGID_28_"  style="overflow:visible;"/>
				</clipPath>
				<clipPath id="SVGID_65_" class="st26">
					<use xlink:href="#SVGID_29_"  style="overflow:visible;"/>
				</clipPath>
				<clipPath id="SVGID_66_" class="st27">
					<use xlink:href="#SVGID_30_"  style="overflow:visible;"/>
				</clipPath>
				<clipPath id="SVGID_67_" class="st28">
					<use xlink:href="#SVGID_31_"  style="overflow:visible;"/>
				</clipPath>
				<clipPath id="SVGID_68_" class="st29">
					<use xlink:href="#SVGID_32_"  style="overflow:visible;"/>
				</clipPath>
				<clipPath id="SVGID_69_" class="st30">
					<use xlink:href="#SVGID_33_"  style="overflow:visible;"/>
				</clipPath>
				<clipPath id="SVGID_70_" class="st31">
					<use xlink:href="#SVGID_34_"  style="overflow:visible;"/>
				</clipPath>
				<clipPath id="SVGID_71_" class="st32">
					<use xlink:href="#SVGID_35_"  style="overflow:visible;"/>
				</clipPath>
				<clipPath id="SVGID_72_" class="st33">
					<use xlink:href="#SVGID_36_"  style="overflow:visible;"/>
				</clipPath>
				<clipPath id="SVGID_73_" class="st34">
					<use xlink:href="#SVGID_37_"  style="overflow:visible;"/>
				</clipPath>
				<clipPath id="SVGID_74_" class="st35">
					<use xlink:href="#SVGID_38_"  style="overflow:visible;"/>
				</clipPath>
				<path class="st36" d="M135.9,88.4h80v80h-80V88.4z M192.4,130.8c0.2,0.1,0.4,0.1,0.6,0.2c0.1,0,0.3-0.1,0.4-0.1
					c1,0,1.9-0.3,2.6-1c0.1-0.1,0.1-0.1,0.2-0.1c0.1,0,0.2-0.1,0.3-0.1c0.3-0.3,0.5-0.7,0.6-1.1c0.2-0.5,0.3-1,0.3-1.5
					c0-0.3-0.1-0.5-0.2-0.8c-0.1-0.5-0.3-0.9-0.6-1.3c-0.2-0.3-0.5-0.6-0.9-0.8c-0.3-0.2-0.6-0.3-1-0.3c-0.5,0-1.1,0.1-1.6,0.2
					c-1,0.3-1.9,0.8-2.4,1.8c0,0-0.1,0.1-0.1,0.1c0.2-0.9,0.6-1.6,1.2-2.3c-0.4,0-0.5,0.1-0.7,0.3c-0.1,0.1-0.2,0.2-0.3,0.3
					c-0.5,0.3-0.7,0.8-1.2,1.1c0,0,0,0.1,0,0.1c-0.3,0.8-0.4,1.6-0.4,2.4c0,0.7,0.4,1.3,0.7,1.9c0,0.1,0.1,0.2,0.2,0.2
					c0.3,0.2,0.6,0.4,0.9,0.7c0.3,0.2,0.6,0.4,0.9,0.3c0,0.3,0.2,0.2,0.4,0.2C192.4,130.9,192.4,130.9,192.4,130.8 M161.1,130.3
					L161.1,130.3c0.2-0.1,0.4-0.2,0.6-0.2c0.1-0.1,0.2-0.3,0.2-0.3c0.6-0.6,0.9-1.3,1-2.1c0-0.3,0-0.6,0.2-0.8c0,0,0-0.1,0-0.2
					c0-0.3-0.1-0.7-0.3-1c-0.2-0.6-0.5-1.1-1-1.6c-0.4-0.3-0.8-0.5-1.3-0.5c-0.5,0.1-1,0.1-1.6,0.2c-1,0.3-1.8,0.8-2.3,1.8
					c0,0,0,0.1,0,0.1c0,0-0.1-0.1-0.1-0.1c0.3-0.9,0.7-1.7,1.4-2.3c-0.5,0.1-0.8,0.4-1.2,0.7c-0.2,0.1-0.3,0.3-0.4,0.5
					c-0.3,0.3-0.5,0.7-0.7,1.1c-0.1,0.2-0.1,0.3-0.1,0.5c0,0.1,0,0.3,0,0.4c0,0.1,0,0.2,0,0.3c0,0.3-0.1,0.7,0,1c0,0,0,0.1,0,0.1
					c0,0.1,0,0.2,0,0.3c0.2,0.6,0.5,1,0.9,1.5c0.3,0.3,0.7,0.7,1.1,0.9c0.3,0.1,0.6,0.3,0.9,0.3c0.2,0.1,0.3,0.1,0.5,0.1
					c0.3,0,0.7-0.1,1-0.1c0.5,0,0.8-0.3,1.2-0.4c0.1,0,0.1-0.1,0.1-0.1C161.3,130.4,161.2,130.4,161.1,130.3 M186.8,112.7
					c-0.1-0.1-0.2-0.1-0.3-0.2c-0.3-0.2-0.6-0.5-1-0.7c-0.1-0.1-0.3-0.1-0.4-0.1c-0.5,0-1,0.1-1.5,0.2c-1.1,0.3-2,0.8-2.5,1.9
					c0,0,0,0-0.1,0.1c0.1-0.4,0.3-0.9,0.5-1.2c0.2-0.4,0.5-0.7,0.8-1.1c-0.4,0.2-0.9,0.4-1.2,0.7c-0.3,0.3-0.5,0.6-0.7,0.9
					c-0.2,0.4-0.4,0.8-0.5,1.2c-0.1,0.6-0.2,1.2,0.1,1.7c0,0,0,0.1,0,0.2c-0.1,0.2,0,0.3,0.1,0.4c0.2,0.3,0.4,0.7,0.6,1
					c0.1,0.2,0.3,0.3,0.5,0.5c0.3,0.3,0.7,0.5,1,0.7c0.2,0.1,0.4,0.2,0.6,0.1c0.1,0,0.2,0,0.3,0c0.3,0,0.6,0.1,1,0.1
					c0.1,0,0.3-0.1,0.4-0.1c0.2,0.1,0.4,0,0.6-0.1c0.4-0.3,0.8-0.5,1.2-0.8c0.4-0.3,0.7-0.6,1-1.1c0.2-0.3,0.2-0.7,0.4-1
					c0.1-0.2,0.1-0.4,0.1-0.6c0-0.4-0.1-0.8-0.1-1.1c0-0.4-0.3-0.7-0.4-1.1c0-0.1-0.1-0.1-0.1-0.1c0,0,0,0-0.1,0
					c0.1,0.1,0.1,0.3,0.2,0.4c0,0-0.1,0-0.1,0C187,113.3,186.9,113,186.8,112.7 M172.6,101.7C172.6,101.7,172.6,101.7,172.6,101.7
					c0,0.3,0,0.6-0.2,0.8c0,0.2,0.1,0.3,0.1,0.4c0,1,0.3,1.8,1,2.5c0.1,0.1,0.2,0.2,0.2,0.2c0,0.2,0.1,0.2,0.2,0.3
					c0.3,0.3,0.8,0.5,1.2,0.7c0.5,0.2,1,0.3,1.6,0.2c0.2-0.1,0.4-0.1,0.6-0.2c0.3-0.1,0.7-0.2,1-0.3c0.5-0.3,0.9-0.6,1.2-1.1
					c0.1-0.2,0.1-0.5,0.4-0.6c0,0,0.1-0.1,0.1-0.2c0.1-0.4,0.2-0.9,0.2-1.3c0-0.2,0-0.3,0-0.5c-0.1-0.4-0.2-0.8-0.3-1.2
					c-0.1-0.3-0.1-0.5-0.4-0.6c-0.1,0-0.2-0.2-0.2-0.2c-0.2-0.3-0.4-0.5-0.6-0.7c-0.2-0.2-0.3-0.3-0.6-0.4c-0.9,0-1.7,0-2.5,0.3
					c-0.8,0.3-1.5,0.8-1.9,1.6c0,0.1-0.1,0.1-0.1,0.2c0.2-0.9,0.6-1.7,1.3-2.4c-0.1,0-0.2,0-0.2,0c-0.2,0.1-0.3,0.2-0.5,0.3
					c-0.3,0.1-0.5,0.2-0.6,0.4c-0.2,0.3-0.4,0.5-0.6,0.8c-0.2,0.2-0.3,0.4-0.3,0.7c0,0.1-0.1,0.1-0.1,0.2c-0.1,0.1-0.1,0.2,0,0.4
					C172.5,101.9,172.5,101.8,172.6,101.7 M170.1,118.7c0.3,0,0.6-0.1,0.7-0.4c0-0.1,0.1-0.2,0.2-0.2c0.2-0.2,0.4-0.3,0.6-0.5
					c0.2-0.1,0.3-0.3,0.4-0.5c0.1-0.1,0.1-0.1,0.2-0.2c0.2-0.4,0.3-0.9,0.3-1.4c0-0.3,0.1-0.6,0.1-1c0-0.4-0.1-0.8-0.3-1.2
					c-0.1-0.2-0.2-0.4-0.3-0.6s-0.2-0.4-0.3-0.5c-0.3-0.3-0.6-0.5-0.9-0.7c-0.2-0.1-0.4-0.3-0.6-0.3c-0.1,0-0.2-0.1-0.2-0.1
					c-0.1-0.1-0.2-0.1-0.4-0.1c0,0.2,0.3,0,0.3,0.3c-0.3-0.1-0.6-0.2-0.9-0.3c-0.1,0-0.3,0.1-0.4,0.1c-1,0-1.8,0.4-2.5,1
					c-0.1,0.1-0.1,0.1-0.2,0.1c-0.2,0-0.2,0.1-0.3,0.2c-0.3,0.3-0.4,0.6-0.5,1c-0.2,0.5-0.3,1-0.3,1.6c0,0.3,0.1,0.5,0.2,0.8
					c0.1,0.6,0.4,1.2,0.8,1.7c0.5,0.5,1,1,1.8,0.9c0.4,0,0.8-0.1,1.1-0.1c1.2-0.3,2.2-0.8,2.7-1.9c0,0,0,0,0.1-0.1
					C171.2,117.2,170.8,118,170.1,118.7 M178.5,129.8c0.1-0.1,0.1-0.2,0.2-0.3c0.7-0.7,1-1.6,1.1-2.6c0-0.1,0-0.2,0-0.2
					c0.2-0.3,0.1-0.5,0-0.8c-0.1-0.5-0.3-0.9-0.6-1.3c-0.3-0.4-0.6-0.7-1-1c-0.3-0.2-0.7-0.4-1.1-0.6c-0.4-0.1-0.8-0.2-1.3-0.2
					c-0.4,0-0.9,0.3-1.3,0.2c0,0-0.1,0-0.1,0.1c-0.6,0.3-1.2,0.7-1.7,1.3c-0.2,0.3-0.4,0.7-0.6,1c-0.1,0.1,0,0.3-0.1,0.4
					c0,0.2,0,0.3,0,0.5c0,0.3,0,0.6-0.1,1c0,0.1,0.1,0.3,0.1,0.4c-0.1,0.2,0,0.3,0.1,0.4c0.1,0.2,0.2,0.3,0.3,0.5
					c0.2,0.4,0.6,0.8,0.9,1.1c0.3,0.3,0.5,0.5,1,0.5c0.7,0,1.4,0,2.1-0.2c1-0.3,1.7-0.8,2.2-1.7c0-0.1,0.1-0.1,0.1-0.2
					c-0.1,0.7-0.4,1.3-0.8,2C178.1,130,178.3,129.9,178.5,129.8 M186.6,139.3L186.6,139.3c0.1,0.1,0.2,0.1,0.3,0.1
					c0.3,0.1,0.4,0.2,0.4,0.4c0,0.1,0,0.2,0,0.3c0,1.2,0.1,2.5,0.1,3.7c0,0.2,0,0.4,0,0.7c-0.1-0.1-0.2-0.1-0.3-0.2
					c-1-1-2.1-2.1-3.2-3.2c-0.6-0.6-1.2-1.2-1.7-1.9c-0.1-0.1-0.1-0.2-0.3-0.2c0,0.1,0,0.1,0,0.2c0,0.9,0,1.7,0,2.6c0,1,0,2-0.1,3
					c0,0.7-0.1,0.7-0.6,1c0.4,0.1,0.7,0,1.1,0c0.3,0,0.7,0.1,1.1,0c-0.1,0-0.1-0.1-0.2-0.1c-0.7-0.2-0.8-0.3-0.8-1
					c0-1.4-0.1-2.8-0.1-4.2c0,0,0-0.1,0-0.1c0,0,0.1,0,0.1,0c0.1,0.1,0.2,0.2,0.3,0.3c1.6,1.7,3.3,3.3,4.8,5
					c0.1,0.1,0.1,0.1,0.2,0.2c0-0.2,0-0.3,0-0.3c0-0.7,0-1.4,0-2.1c0-1.2,0.1-2.4,0.1-3.6c0-0.4,0.1-0.8,0.5-0.9c0,0,0,0,0-0.1
					L186.6,139.3L186.6,139.3z M159.8,146.1C159.8,146,159.9,146,159.8,146.1c-0.5-0.1-0.7-0.5-1-0.9c-0.3-0.4-0.5-0.8-0.8-1.2
					c-0.3-0.5-0.7-1.1-1-1.7c0.6-0.9,1.2-1.7,1.8-2.6c0.2-0.2,0.3-0.3,0.6-0.4c0.1,0,0.1-0.1,0.2-0.1c-0.5-0.1-1.7,0-1.8,0
					c0,0,0.1,0,0.1,0c0.3,0.1,0.3,0.2,0.2,0.4c0,0,0,0.1-0.1,0.1c-0.4,0.7-0.7,1.3-1.1,2c0,0-0.1,0.1-0.1,0.1
					c-0.4-0.7-0.8-1.5-1.2-2.2c-0.1-0.3-0.1-0.3,0.2-0.4c0.1,0,0.1-0.1,0.2-0.1c0,0,0,0,0-0.1h-0.7c-0.3,0-0.5,0-0.7,0
					c-0.2,0-0.5-0.1-0.7,0.1c0.3,0.1,0.6,0.3,0.8,0.5c0.6,0.9,1.2,1.8,1.8,2.8c0,0,0,0,0,0.1c-0.6,0.9-1.2,1.7-1.8,2.6
					c-0.2,0.3-0.5,0.6-1,0.7c0,0,0,0-0.1,0.1h2.1c-0.1-0.1-0.1-0.1-0.1-0.1c-0.5-0.1-0.5-0.2-0.3-0.7c0,0,0,0,0-0.1
					c0.4-0.7,0.8-1.3,1.1-2c0.1-0.1,0.1-0.2,0.2-0.3c0.5,0.8,1,1.6,1.4,2.4c0,0,0,0.1,0.1,0.1c0.1,0.2,0.1,0.3-0.2,0.4
					c-0.1,0-0.1,0.1-0.2,0.1L159.8,146.1L159.8,146.1z M202.5,140.6C202.5,140.6,202.5,140.6,202.5,140.6c0.1-0.1,0.1-0.1,0.1-0.2
					c0-0.2,0-0.3,0.1-0.5c0.1-0.7,0.1-0.7-0.6-0.7c-1.1,0-2.2,0-3.3,0c-0.1,0-0.1,0-0.2,0c0.1,0.1,0.2,0.1,0.3,0.1
					c0.3,0.1,0.4,0.2,0.5,0.5c0,0.2,0,0.3,0,0.5c0,1.3,0,2.6,0,3.9c0,0.4,0,0.8-0.1,1.2c0,0.3-0.2,0.4-0.4,0.5c-0.1,0-0.2,0-0.3,0.1
					c0.1,0.1,0.2,0.1,0.3,0.1c0.9,0,1.7,0,2.6,0c0.4,0,0.8,0,1.1,0c0.4,0,0.5-0.1,0.5-0.5c0-0.3,0-0.7,0-1c0-0.1,0-0.1,0-0.2
					c-0.1,0.2-0.2,0.4-0.3,0.6c-0.1,0.3-0.3,0.6-0.7,0.6c-0.6,0.1-1.1,0.1-1.7,0c-0.2,0-0.3-0.1-0.3-0.3c0-0.1,0-0.2,0-0.3
					c0-0.7,0-1.4,0-2.1c0-0.1,0-0.1,0-0.2c0.4,0,0.9,0,1.4,0c0.4,0,0.5,0,0.6,0.4c0,0,0,0,0.1,0c0.1-0.3,0.1-0.6,0.2-1
					c-0.5,0.2-1.9,0.2-2.2,0v-2.7c0.6,0,1.1,0,1.7,0.1c0.3,0.1,0.5,0.3,0.5,0.6C202.5,140.3,202.5,140.5,202.5,140.6 M178.2,144.4
					C178.2,144.4,178.2,144.4,178.2,144.4c-0.1,0.2-0.2,0.3-0.2,0.5c-0.1,0.3-0.3,0.7-0.7,0.8c-0.6,0.2-1.2,0.1-1.7,0
					c-0.2,0-0.3-0.2-0.3-0.3c0-0.1,0-0.2,0-0.3c0-0.7,0-1.4,0-2.1c0-0.1,0-0.2,0-0.3c0.5,0,1,0,1.5,0c0.2,0,0.3,0.1,0.4,0.3
					c0,0.1,0,0.1,0.1,0.2c0.2-0.3,0.2-0.6,0.2-1c-0.8,0.2-1.5,0.1-2.2,0.1c-0.1-0.4-0.1-2.5,0-2.8c0.4,0,0.9,0,1.3,0
					c0.6,0,0.8,0.2,0.9,0.8c0,0.1,0,0.1,0.1,0.2c0,0,0.1,0,0.1,0c0-0.3,0.1-0.5,0.1-0.8c0-0.5,0-0.5-0.5-0.5c-1.1,0-2.3,0-3.4,0
					c-0.1,0-0.1,0-0.2,0c0.1,0.1,0.2,0.1,0.2,0.1c0.3,0.1,0.5,0.2,0.5,0.5c0,0.2,0,0.3,0,0.5c0,1.5,0,3,0,4.5c0,0.2,0,0.3,0,0.4
					c0,0.3-0.2,0.5-0.5,0.6c-0.1,0-0.1,0-0.2,0.1c0,0,0,0.1,0,0.1c0.1,0,0.3,0,0.4,0c0.3,0,0.6,0,1,0c0.8,0,1.6,0,2.4,0
					c0.2,0,0.3,0,0.5,0c0.2,0,0.3-0.2,0.3-0.3C178.3,145.3,178.2,144.9,178.2,144.4 M142,144.2c-0.1,0.3-0.2,0.6-0.2,1
					c0,0.5,0.2,0.7,0.6,0.9c0.7,0.2,1.3,0.3,2,0c0.8-0.3,1.3-0.9,1.3-1.7c0-0.7-0.2-1.2-0.7-1.6c-0.3-0.3-0.7-0.5-1.1-0.7
					c-0.3-0.2-0.6-0.4-0.9-0.6c-0.4-0.3-0.5-0.8-0.4-1.3c0.1-0.5,0.3-0.8,0.8-0.9c0.8-0.2,1.5,0.2,1.7,1c0,0.1,0.1,0.2,0.1,0.3
					c0,0,0.1,0,0.1,0c0-0.3,0.1-0.6,0.1-0.9c0-0.3-0.1-0.5-0.4-0.6c-0.5-0.2-1.1-0.2-1.6-0.1c-0.7,0.2-1.2,0.6-1.3,1.3
					c-0.1,0.7,0,1.3,0.5,1.8c0.3,0.3,0.6,0.4,0.9,0.6c0.3,0.2,0.5,0.3,0.8,0.4c0.2,0.2,0.5,0.3,0.6,0.6c0.6,0.8,0.3,1.8-0.7,2.1
					c-1,0.3-1.8-0.2-2-1.1c0-0.1,0-0.3-0.1-0.4C142,144.4,142,144.3,142,144.2 M209.7,140.7L209.7,140.7c0.1-0.3,0.2-0.6,0.2-0.9
					c0-0.3-0.1-0.5-0.4-0.6c-0.5-0.2-1-0.2-1.6-0.1c-0.7,0.2-1.2,0.6-1.3,1.3c-0.1,0.7,0.1,1.4,0.6,1.9c0.2,0.2,0.5,0.3,0.8,0.5
					c0.3,0.2,0.5,0.3,0.7,0.4c0.3,0.2,0.5,0.4,0.7,0.6c0.6,0.8,0.2,1.8-0.7,2.1c-0.2,0.1-0.4,0.1-0.7,0c-0.5,0-0.9-0.3-1.1-0.8
					c-0.1-0.3-0.2-0.5-0.2-0.8c0-0.1,0-0.1-0.1-0.3c-0.2,0.4-0.2,0.7-0.2,1c0,0.5,0.2,0.7,0.6,0.9c0.6,0.2,1.3,0.3,1.9,0
					c1.4-0.4,1.8-2.2,0.7-3.2c-0.3-0.3-0.6-0.4-0.9-0.6c-0.3-0.2-0.6-0.3-0.9-0.5c-0.3-0.2-0.5-0.4-0.7-0.8
					c-0.3-0.5-0.1-1.2,0.3-1.6c0.7-0.5,1.7-0.2,2,0.6C209.6,140.4,209.6,140.5,209.7,140.7 M195.1,140.7
					C195.1,140.7,195.2,140.7,195.1,140.7c0.1-0.3,0.2-0.6,0.2-0.9c0-0.3-0.1-0.5-0.4-0.6c-0.6-0.2-1.2-0.2-1.8,0
					c-0.6,0.2-1,0.7-1.1,1.3c-0.1,0.7,0.1,1.3,0.5,1.7c0.3,0.3,0.6,0.4,0.9,0.7c0.3,0.2,0.6,0.3,0.8,0.5c0.2,0.1,0.3,0.3,0.5,0.4
					c0.3,0.4,0.4,0.9,0.2,1.4s-0.6,0.7-1.1,0.8c-0.1,0-0.3,0-0.4,0c-0.5,0-0.8-0.3-1-0.7c-0.1-0.2-0.2-0.5-0.3-0.7
					c0-0.1-0.1-0.2-0.1-0.3c-0.2,0.3-0.2,0.7-0.2,1c0,0.5,0.2,0.7,0.6,0.9c0.6,0.2,1.3,0.2,1.9,0.1c1-0.3,1.5-1,1.4-2
					c0-0.5-0.3-1-0.7-1.2c-0.3-0.3-0.8-0.5-1.1-0.7c-0.3-0.2-0.7-0.4-0.9-0.6c-0.4-0.4-0.5-0.9-0.3-1.4c0.1-0.4,0.3-0.6,0.7-0.8
					c0.8-0.3,1.5,0.1,1.7,1C195,140.5,195.1,140.6,195.1,140.7 M170.2,140.7C170.2,140.7,170.2,140.7,170.2,140.7
					c0.1-0.3,0.2-0.6,0.2-0.9c0-0.4-0.1-0.5-0.4-0.6c-0.5-0.1-1-0.2-1.5-0.1c-0.7,0.1-1.2,0.5-1.4,1.2c-0.2,0.8,0,1.5,0.6,2
					c0.3,0.2,0.5,0.4,0.8,0.6c0.2,0.1,0.5,0.3,0.7,0.4c0.2,0.2,0.4,0.3,0.6,0.5c0.5,0.6,0.6,1.9-0.6,2.2c-1,0.3-1.7-0.2-2-1.2
					c0-0.1,0-0.2-0.1-0.3c0-0.1,0-0.1-0.1-0.3c-0.1,0.1-0.1,0.1-0.1,0.2c0,0.3-0.1,0.6-0.1,0.9c0,0.5,0.2,0.7,0.6,0.9
					c0.6,0.2,1.3,0.2,1.9,0c1.5-0.4,1.9-2.1,0.8-3.2c-0.3-0.3-0.8-0.6-1.2-0.8c-0.3-0.1-0.5-0.3-0.8-0.5c-0.3-0.2-0.4-0.5-0.5-0.8
					c-0.2-0.7,0.1-1.4,0.8-1.5c0.8-0.2,1.4,0.2,1.7,1C170.1,140.4,170.1,140.6,170.2,140.7 M151.1,146.1
					C151.1,146,151.1,146,151.1,146.1c-0.1-0.1-0.1-0.1-0.2-0.1c-0.4-0.1-0.5-0.2-0.6-0.6c0-0.2,0-0.4,0-0.6c0-1.1,0-2.3,0-3.4
					c0-0.5,0-1,0.1-1.6c0-0.3,0.2-0.4,0.4-0.5c0,0,0.1,0,0.1-0.1v0h-2.2c0,0.1,0.1,0.1,0.1,0.1c0.3,0,0.5,0.3,0.5,0.5
					c0,0.3,0.1,0.6,0.1,1c0,1.2,0,2.5,0,3.7c0,0.3,0,0.6-0.1,0.9s-0.2,0.5-0.5,0.6c-0.1,0-0.1,0-0.2,0.1c0,0,0,0,0,0.1H151.1z
					 M177.7,154.3c0.1,0.2,0.1,0.4,0.1,0.5c0,0.7,0,1.4,0,2.2c0,0.3,0,0.3-0.3,0.6c0.5,0,1,0.1,1.4,0.1c0.3,0,0.5,0,0.7-0.1
					c0.7-0.2,1.1-0.9,1.1-1.7c0-0.8-0.5-1.3-1.2-1.5C179,154.2,178.3,154.3,177.7,154.3 M170.2,156.3c0-1.4-0.7-2.1-1.7-2
					c-0.3,0-0.6,0.1-0.9,0.2c-1.1,0.5-1.4,2.2-0.4,2.9c0.6,0.4,1.3,0.5,2,0.2C169.9,157.2,170.2,156.6,170.2,156.3 M187,157.7
					c1,0,1.8-0.7,1.8-1.7c0-1-0.7-1.7-1.7-1.7c-1.1,0-1.8,0.7-1.9,1.7C185.3,157,186,157.7,187,157.7 M171.6,154.3
					C171.6,154.3,171.6,154.3,171.6,154.3c-0.1,0.2-0.1,0.3-0.1,0.4c0,0.8,0,1.5,0,2.3c0,0.2-0.1,0.4-0.1,0.6h0.7
					c-0.3-0.2-0.3-0.2-0.3-0.6c0-0.3,0-0.6,0-0.9s0-0.6,0-1c0.9,0.8,1.7,1.7,2.6,2.6c0-0.2,0-0.2,0-0.3c0-0.8,0-1.7,0.1-2.5
					c0-0.2,0.1-0.4,0.1-0.6H174c0,0.2,0.1,0.4,0.1,0.6c0,0.3,0,0.6,0,0.9c0,0.3,0,0.7,0,1c0,0-0.1,0-0.1,0
					C173.2,156,172.4,155.2,171.6,154.3 M184.7,157.6c-0.2-0.1-0.3-0.3-0.4-0.6c-0.3-0.8-0.6-1.6-0.9-2.4c0-0.1-0.1-0.2-0.2-0.4
					c-0.1,0.2-0.1,0.3-0.2,0.4c-0.3,0.6-0.5,1.2-0.7,1.8c-0.2,0.4-0.3,0.9-0.7,1.2h0.7c0-0.1-0.1-0.3-0.1-0.3
					c0.1-0.3,0.2-0.6,0.3-0.9h1.1c0.1,0.4,0.4,0.8,0.3,1.3H184.7z M165.7,155.2c0-0.2,0-0.3,0.1-0.4c0-0.3,0-0.4-0.3-0.5
					c-0.5-0.1-0.9-0.1-1.4,0c-0.7,0.2-1.1,0.6-1.2,1.3c0,0.2,0,0.4,0,0.6c0.1,0.6,0.4,1,1,1.3c0.5,0.2,1,0.2,1.5,0.1
					c0.5-0.1,0.6-0.4,0.4-0.9c-0.1,0.3-0.2,0.6-0.6,0.7c-0.7,0.3-1.5-0.1-1.8-0.8c-0.2-0.4-0.2-0.8-0.1-1.2c0.1-0.6,0.5-1,1.1-1.1
					C165,154.3,165.4,154.5,165.7,155.2 M178.2,130.2C178.2,130.2,178.2,130.1,178.2,130.2c-0.3,0.1-0.7,0.1-0.9,0.4
					c0.2-0.2,0.4-0.3,0.6-0.3C178.1,130.3,178.2,130.2,178.2,130.2"/>
				<path class="st37" d="M186.8,112.7c0.2,0.3,0.3,0.6,0.4,0.8c0,0,0.1,0,0.1,0c-0.1-0.1-0.1-0.3-0.2-0.4c0,0,0,0,0.1,0
					c0.1,0,0.1,0.1,0.1,0.1c0,0.4,0.4,0.7,0.4,1.1c0,0.4,0.1,0.8,0.1,1.1c0,0.2,0,0.4-0.1,0.6c-0.2,0.3-0.2,0.7-0.4,1
					c-0.3,0.4-0.6,0.8-1,1.1c-0.3,0.3-0.8,0.5-1.2,0.8c-0.2,0.1-0.3,0.2-0.6,0.1c-0.1,0-0.3,0.1-0.4,0.1c-0.3,0-0.6-0.1-1-0.1
					c-0.1,0-0.3,0-0.3,0c-0.3,0.1-0.4,0-0.6-0.1c-0.3-0.3-0.7-0.5-1-0.7c-0.2-0.1-0.3-0.3-0.5-0.5c-0.2-0.3-0.4-0.6-0.6-1
					c-0.1-0.1-0.1-0.3-0.1-0.4c0,0,0-0.1,0-0.2c-0.3-0.6-0.3-1.2-0.1-1.7c0.1-0.4,0.3-0.8,0.5-1.2c0.2-0.3,0.4-0.6,0.7-0.9
					c0.3-0.3,0.7-0.5,1.2-0.7c-0.3,0.4-0.5,0.7-0.8,1.1c-0.2,0.3-0.4,0.8-0.5,1.2c0.1,0,0.1,0,0.1-0.1c0.5-1,1.4-1.6,2.5-1.9
					c0.5-0.1,1-0.1,1.5-0.2c0.1,0,0.3,0,0.4,0.1c0.3,0.2,0.6,0.5,1,0.7C186.6,112.6,186.7,112.6,186.8,112.7 M187.5,114.5
					C187.5,114.5,187.6,114.5,187.5,114.5c0-0.2,0.1-0.4-0.1-0.6C187.5,114.2,187.5,114.3,187.5,114.5"/>
				<path class="st37" d="M172.6,101.7c0,0.1-0.1,0.2-0.1,0.3C172.4,101.8,172.4,101.8,172.6,101.7c-0.1-0.1,0-0.2,0-0.2
					c0-0.3,0.2-0.5,0.3-0.7c0.2-0.3,0.4-0.5,0.6-0.8c0.2-0.2,0.4-0.3,0.6-0.4c0.2-0.1,0.3-0.2,0.5-0.3c0.1,0,0.1,0,0.2,0
					c-0.7,0.7-1.1,1.5-1.3,2.4c0-0.1,0.1-0.1,0.1-0.2c0.4-0.8,1-1.3,1.9-1.6c0.8-0.3,1.7-0.4,2.5-0.3c0.3,0,0.4,0.2,0.6,0.4
					c0.3,0.2,0.4,0.5,0.6,0.7c0.1,0.1,0.1,0.2,0.2,0.2c0.3,0.1,0.3,0.3,0.4,0.6c0.1,0.4,0.2,0.8,0.3,1.2c0,0.2,0,0.3,0,0.5
					c-0.1,0.4-0.2,0.9-0.2,1.3c0,0.1,0,0.2-0.1,0.2c-0.3,0.1-0.3,0.4-0.4,0.6c-0.3,0.5-0.7,0.8-1.2,1.1c-0.3,0.2-0.7,0.3-1,0.3
					c-0.2,0.1-0.4,0.1-0.6,0.2c-0.5,0.1-1.1,0-1.6-0.2c-0.4-0.2-0.9-0.3-1.2-0.7c-0.1-0.1-0.2-0.1-0.2-0.3c0-0.1-0.1-0.2-0.2-0.2
					c-0.7-0.7-1-1.6-1-2.5c0-0.1-0.1-0.3-0.1-0.4c0.2-0.2,0.2-0.5,0.3-0.8C172.6,101.7,172.6,101.7,172.6,101.7 M173.2,100.8
					C173.1,100.8,173.1,100.7,173.2,100.8c-0.1,0.2-0.4,0.3-0.4,0.5C172.9,101.1,173,100.9,173.2,100.8"/>
				<path class="st37" d="M161.1,130.3c0.1,0,0.1,0.1,0.2,0.1c-0.1,0.1-0.1,0.1-0.1,0.1c-0.4,0.1-0.8,0.4-1.2,0.4
					c-0.3,0-0.7,0.1-1,0.1c-0.2,0-0.4,0-0.5-0.1c-0.3-0.1-0.6-0.3-0.9-0.3c-0.5-0.2-0.8-0.6-1.1-0.9c-0.4-0.4-0.7-0.9-0.9-1.5
					c0-0.1,0-0.2,0-0.3c0,0,0-0.1,0-0.1c-0.1-0.3,0-0.7,0-1c0-0.1,0-0.2,0-0.3c0-0.1,0-0.3,0-0.4c-0.1-0.2,0-0.3,0.1-0.5
					c0.3-0.4,0.5-0.7,0.7-1.1c0.1-0.2,0.3-0.3,0.4-0.5c0.4-0.3,0.7-0.6,1.2-0.7c-0.7,0.7-1.1,1.5-1.4,2.3c0,0,0.1,0.1,0.1,0.1
					c0,0,0-0.1,0-0.1c0.4-1,1.3-1.6,2.3-1.8c0.5-0.1,1-0.2,1.6-0.2c0.5-0.1,1,0.2,1.3,0.5c0.5,0.4,0.8,1,1,1.6
					c0.1,0.3,0.3,0.6,0.3,1c0,0.1,0,0.1,0,0.2c-0.2,0.3-0.1,0.5-0.2,0.8c-0.1,0.8-0.5,1.5-1,2.1c-0.1,0.1-0.1,0.2-0.2,0.3
					C161.6,130.2,161.3,130.3,161.1,130.3c-0.1,0.1-0.2,0.2-0.2,0.2C161.1,130.6,161.2,130.6,161.1,130.3 M160.5,130.8L160.5,130.8
					l-0.6,0c0,0,0,0,0,0.1C160.1,130.9,160.3,130.9,160.5,130.8"/>
				<path class="st37" d="M170.1,118.7c0.7-0.7,1.1-1.5,1.3-2.4c-0.1,0.1-0.1,0.1-0.1,0.1c-0.5,1.1-1.5,1.7-2.7,1.9
					c-0.4,0.1-0.8,0.1-1.1,0.1c-0.8,0.1-1.4-0.3-1.8-0.9c-0.4-0.5-0.7-1-0.8-1.7c-0.1-0.3-0.1-0.5-0.2-0.8c-0.1-0.5,0.1-1,0.3-1.6
					c0.1-0.3,0.3-0.7,0.5-1c0.1-0.1,0.2-0.2,0.3-0.2c0.1,0,0.1-0.1,0.2-0.1c0.7-0.7,1.6-1,2.5-1c0.1,0,0.3-0.1,0.4-0.1
					c0.3,0.1,0.6,0.2,0.9,0.3c0-0.3-0.3-0.1-0.3-0.3c0.2,0,0.3,0,0.4,0.1c0.1,0.1,0.2,0.1,0.2,0.1c0.3,0,0.4,0.1,0.6,0.3
					c0.3,0.2,0.6,0.4,0.9,0.7c0.2,0.1,0.3,0.3,0.3,0.5s0.2,0.4,0.3,0.6c0.1,0.4,0.3,0.8,0.3,1.2c0,0.3,0,0.6-0.1,1
					c0,0.5-0.2,0.9-0.3,1.4c0,0.1-0.1,0.1-0.2,0.2c-0.1,0.2-0.3,0.3-0.4,0.5c-0.2,0.2-0.4,0.3-0.6,0.5c-0.1,0.1-0.2,0.1-0.2,0.2
					C170.7,118.6,170.4,118.7,170.1,118.7 M170.9,111.9C170.9,111.9,170.9,111.9,170.9,111.9c-0.1-0.1-0.2-0.2-0.3-0.3
					c-0.1-0.1-0.1-0.2-0.3-0.1C170.6,111.7,170.7,111.8,170.9,111.9"/>
				<path class="st37" d="M192,130.8c-0.3,0-0.7-0.1-0.9-0.3c-0.3-0.2-0.6-0.4-0.9-0.7c-0.1-0.1-0.2-0.2-0.2-0.2
					c-0.3-0.6-0.6-1.2-0.7-1.9c0-0.8,0.1-1.7,0.4-2.4c0,0,0-0.1,0-0.1c0.4-0.3,0.7-0.8,1.2-1.1c0.1-0.1,0.2-0.2,0.3-0.3
					c0.2-0.3,0.2-0.3,0.7-0.3c-0.7,0.7-1,1.4-1.2,2.3c0,0,0.1,0,0.1-0.1c0.5-1,1.3-1.5,2.4-1.8c0.5-0.1,1.1-0.2,1.6-0.2
					c0.4,0,0.7,0.1,1,0.3c0.3,0.2,0.6,0.5,0.9,0.8c0.3,0.4,0.5,0.9,0.6,1.3c0,0.3,0.1,0.5,0.2,0.8c0.1,0.5-0.1,1-0.3,1.5
					c-0.2,0.4-0.3,0.8-0.6,1.1c-0.1,0.1-0.2,0.1-0.3,0.1c-0.1,0-0.1,0.1-0.2,0.1c-0.7,0.7-1.6,1-2.6,1c-0.1,0-0.2,0-0.4,0.1
					c-0.2-0.1-0.4-0.1-0.6-0.2l0,0c-0.1,0-0.2-0.1-0.3-0.1C192.1,130.7,192,130.8,192,130.8L192,130.8z M191.1,130.2L191.1,130.2
					c0,0.1,0.1,0.1,0.2,0.2l0,0C191.2,130.3,191.1,130.2,191.1,130.2 M191.4,130.5L191.4,130.5c0,0.1,0,0.1,0,0.1s0.1,0,0.1,0v-0.1
					C191.5,130.5,191.5,130.5,191.4,130.5"/>
				<path class="st37" d="M178.5,129.8c-0.2,0.1-0.4,0.2-0.6,0.3c0.4-0.6,0.7-1.2,0.8-2c0,0.1-0.1,0.1-0.1,0.2
					c-0.4,0.9-1.2,1.4-2.2,1.7c-0.7,0.2-1.4,0.3-2.1,0.2c-0.4,0-0.7-0.2-1-0.5c-0.3-0.3-0.7-0.7-0.9-1.1c-0.1-0.2-0.2-0.3-0.3-0.5
					c-0.1-0.1-0.1-0.2-0.1-0.4c0-0.1-0.1-0.3-0.1-0.4c0-0.3,0-0.6,0.1-1c0-0.2,0-0.3,0-0.5c0-0.1,0-0.3,0.1-0.4
					c0.2-0.3,0.4-0.7,0.6-1c0.4-0.6,1-1,1.7-1.3c0,0,0.1-0.1,0.1-0.1c0.5,0.1,0.9-0.2,1.3-0.2c0.4,0,0.9,0.1,1.3,0.2
					c0.4,0.1,0.8,0.3,1.1,0.6c0.4,0.2,0.7,0.6,1,1c0.3,0.4,0.4,0.9,0.6,1.3c0.1,0.3,0.2,0.5,0,0.8c0,0,0,0.1,0,0.2
					c-0.1,1-0.4,1.9-1.1,2.6C178.7,129.5,178.6,129.7,178.5,129.8"/>
				<path class="st37" d="M186.6,139.3h1.8c0,0,0,0.1,0,0.1c-0.4,0.1-0.5,0.5-0.5,0.9c0,1.2-0.1,2.4-0.1,3.6c0,0.7,0,1.4,0,2.1
					c0,0.1,0,0.2,0,0.3c-0.1-0.1-0.2-0.1-0.2-0.2c-1.5-1.7-3.2-3.4-4.8-5c-0.1-0.1-0.2-0.2-0.3-0.3c0,0,0,0-0.1,0c0,0,0,0.1,0,0.1
					c0,1.4,0,2.8,0.1,4.2c0,0.7,0.2,0.8,0.8,1c0,0,0.1,0,0.2,0.1c-0.4,0.1-0.8,0-1.1,0c-0.3,0-0.7,0.1-1.1,0c0.6-0.3,0.6-0.3,0.6-1
					c0.1-1,0.1-2,0.1-3c0-0.9,0-1.7,0-2.6c0-0.1,0-0.1,0-0.2c0.2-0.1,0.2,0.1,0.3,0.2c0.6,0.6,1.1,1.2,1.7,1.9
					c1,1.1,2.1,2.1,3.2,3.2c0.1,0.1,0.1,0.1,0.3,0.2c0-0.3,0-0.5,0-0.7c0-1.2,0-2.5-0.1-3.7c0-0.1,0-0.2,0-0.3
					c0-0.3-0.2-0.4-0.4-0.4C186.8,139.4,186.7,139.4,186.6,139.3L186.6,139.3z"/>
				<path class="st37" d="M159.8,146.1h-2.2c0.1-0.1,0.2-0.1,0.2-0.1c0.2-0.1,0.3-0.2,0.2-0.4c0,0,0-0.1-0.1-0.1
					c-0.5-0.8-1-1.6-1.4-2.4c-0.1,0.1-0.2,0.2-0.2,0.3c-0.4,0.7-0.8,1.3-1.1,2c0,0,0,0,0,0.1c-0.2,0.4-0.2,0.5,0.3,0.7
					c0,0,0,0,0.1,0.1h-2.2c0.1-0.1,0.1-0.1,0.1-0.1c0.4-0.1,0.7-0.3,1-0.7c0.6-0.9,1.2-1.7,1.8-2.6c0-0.1,0-0.1,0-0.1
					c-0.6-0.9-1.2-1.8-1.7-2.8c-0.2-0.3-0.4-0.5-0.8-0.5c0.2-0.1,0.5-0.1,0.7-0.1c0.3,0,0.5,0,0.7,0h0.7c0,0,0,0,0,0.1
					c-0.1,0-0.1,0.1-0.2,0.1c-0.3,0.1-0.3,0.2-0.2,0.4c0.4,0.7,0.8,1.5,1.2,2.2c0.1,0,0.1-0.1,0.1-0.1c0.4-0.7,0.7-1.3,1.1-2
					c0,0,0-0.1,0.1-0.1c0.1-0.3,0.1-0.3-0.2-0.4c0,0-0.1,0-0.1,0c0.2-0.1,1.4-0.1,1.8,0c-0.1,0.1-0.2,0.1-0.2,0.1
					c-0.3,0-0.4,0.2-0.6,0.4c-0.6,0.9-1.2,1.7-1.8,2.6c0.3,0.6,0.7,1.1,1,1.7c0.3,0.4,0.5,0.8,0.8,1.2
					C159.1,145.7,159.4,146,159.8,146.1C159.9,146,159.8,146,159.8,146.1"/>
				<path class="st37" d="M202.5,140.6c0-0.1,0-0.3-0.1-0.3c-0.1-0.3-0.2-0.5-0.5-0.6c-0.6-0.1-1.1-0.1-1.7-0.1v2.7
					c0.3,0.1,1.7,0.1,2.2,0c0,0.3-0.1,0.7-0.2,1c0,0-0.1,0-0.1,0c-0.2-0.4-0.2-0.4-0.6-0.4c-0.4,0-0.9,0-1.4,0c0,0.1,0,0.2,0,0.2
					c0,0.7,0,1.4,0,2.1c0,0.1,0,0.2,0,0.3c0,0.2,0.1,0.3,0.3,0.3c0.6,0.1,1.1,0.1,1.7,0c0.3-0.1,0.5-0.3,0.7-0.6
					c0.1-0.2,0.1-0.4,0.3-0.6c0,0.1,0,0.1,0,0.2c0,0.3,0,0.7,0,1c0,0.4-0.1,0.5-0.5,0.5c-0.4,0-0.8,0-1.1,0c-0.9,0-1.7,0-2.6,0
					c-0.1,0-0.2,0-0.3-0.1c0.1,0,0.2,0,0.3-0.1c0.3-0.1,0.4-0.2,0.4-0.5c0-0.4,0.1-0.8,0.1-1.2c0-1.3,0-2.6,0-3.9c0-0.2,0-0.3,0-0.5
					c0-0.3-0.2-0.4-0.5-0.5c-0.1,0-0.2-0.1-0.3-0.1c0.1,0,0.1,0,0.2,0c1.1,0,2.2,0,3.3,0c0.6,0,0.7,0,0.6,0.7c0,0.2,0,0.3-0.1,0.5
					C202.6,140.5,202.5,140.5,202.5,140.6C202.5,140.6,202.5,140.6,202.5,140.6"/>
				<path class="st37" d="M178.2,144.4c0,0.4,0,0.9,0,1.3c0,0.2-0.1,0.3-0.3,0.3c-0.2,0-0.3,0-0.5,0c-0.8,0-1.6,0-2.4,0
					c-0.3,0-0.6,0-1,0c-0.1,0-0.3,0-0.4,0c0,0,0,0,0-0.1c0.1,0,0.1-0.1,0.2-0.1c0.3-0.1,0.5-0.3,0.5-0.6c0-0.2,0-0.3,0-0.4
					c0-1.5,0-3,0-4.5c0-0.2,0-0.3,0-0.5c0-0.3-0.2-0.5-0.5-0.5c-0.1,0-0.2,0-0.2-0.1c0.1,0,0.1,0,0.2,0c1.1,0,2.3,0,3.4,0
					c0.5,0,0.5,0,0.5,0.5c0,0.3-0.1,0.5-0.1,0.8c0,0-0.1,0-0.1,0c0-0.1-0.1-0.1-0.1-0.2c-0.1-0.6-0.3-0.8-0.9-0.8
					c-0.4,0-0.9,0-1.3,0c-0.1,0.3-0.1,2.3,0,2.8c0.7,0,1.4,0.1,2.2-0.1c0,0.3,0,0.6-0.2,1c0,0,0-0.1-0.1-0.2c0-0.2-0.2-0.3-0.4-0.3
					c-0.5,0-1,0-1.6,0c0,0.1,0,0.2,0,0.3c0,0.7,0,1.4,0,2.1c0,0.1,0,0.2,0,0.3c0,0.2,0.1,0.3,0.3,0.3c0.6,0.1,1.2,0.1,1.7,0
					c0.4-0.1,0.6-0.4,0.7-0.8c0.1-0.2,0.1-0.3,0.1-0.5C178.2,144.4,178.2,144.4,178.2,144.4"/>
				<path class="st37" d="M142,144.2c0,0.1,0.1,0.2,0.1,0.2c0,0.1,0,0.3,0.1,0.4c0.2,0.9,1,1.4,2,1.1c0.9-0.3,1.2-1.3,0.7-2.1
					c-0.2-0.2-0.4-0.4-0.6-0.6c-0.3-0.2-0.5-0.3-0.8-0.4c-0.3-0.2-0.6-0.4-0.9-0.6c-0.5-0.5-0.6-1.1-0.5-1.8
					c0.1-0.7,0.6-1.1,1.3-1.3c0.5-0.1,1.1-0.1,1.6,0.1c0.3,0.1,0.4,0.3,0.4,0.6s-0.1,0.6-0.1,0.9c0,0-0.1,0-0.1,0
					c0-0.1-0.1-0.2-0.1-0.3c-0.2-0.9-0.9-1.3-1.7-1c-0.4,0.1-0.7,0.4-0.8,0.9c-0.1,0.5,0,1,0.4,1.3c0.3,0.2,0.6,0.4,0.9,0.6
					c0.4,0.3,0.8,0.4,1.1,0.7c0.5,0.4,0.8,1,0.7,1.6c-0.1,0.8-0.5,1.4-1.3,1.7c-0.7,0.2-1.3,0.2-2,0c-0.4-0.2-0.6-0.4-0.6-0.9
					C141.8,144.8,141.8,144.5,142,144.2"/>
				<path class="st37" d="M209.7,140.7c0-0.2-0.1-0.3-0.1-0.5c-0.3-0.8-1.3-1.1-2-0.6c-0.4,0.3-0.6,1-0.3,1.6
					c0.2,0.3,0.4,0.6,0.7,0.8c0.3,0.2,0.6,0.3,0.9,0.5c0.3,0.2,0.6,0.4,0.9,0.6c1.1,1,0.7,2.7-0.7,3.2c-0.6,0.2-1.3,0.2-1.9,0
					c-0.5-0.2-0.6-0.4-0.6-0.9c0-0.3,0-0.7,0.2-1c0,0.1,0.1,0.2,0.1,0.3c0.1,0.3,0.1,0.6,0.2,0.8c0.2,0.5,0.6,0.7,1.1,0.8
					c0.2,0,0.4,0,0.7,0c1-0.2,1.3-1.3,0.7-2.1c-0.2-0.3-0.4-0.4-0.7-0.6c-0.2-0.2-0.5-0.3-0.7-0.4c-0.3-0.2-0.5-0.3-0.8-0.5
					c-0.6-0.5-0.8-1.1-0.6-1.9c0.1-0.8,0.6-1.2,1.3-1.3c0.5-0.1,1-0.1,1.6,0.1c0.3,0.1,0.5,0.3,0.4,0.6
					C209.8,140.1,209.8,140.4,209.7,140.7L209.7,140.7z"/>
				<path class="st37" d="M195.1,140.7c0-0.1-0.1-0.2-0.1-0.3c-0.2-0.8-0.9-1.2-1.7-1c-0.4,0.1-0.6,0.3-0.7,0.8
					c-0.1,0.5,0,1,0.3,1.4c0.3,0.3,0.6,0.4,0.9,0.6c0.4,0.3,0.8,0.5,1.1,0.7c0.4,0.3,0.6,0.7,0.7,1.2c0.1,1-0.4,1.7-1.4,2
					c-0.6,0.2-1.3,0.2-1.9-0.1c-0.5-0.2-0.6-0.4-0.6-0.9c0-0.3,0-0.7,0.2-1c0,0.1,0,0.2,0.1,0.3c0.1,0.3,0.1,0.5,0.3,0.7
					c0.2,0.4,0.6,0.6,1,0.7c0.1,0,0.3,0,0.4,0c0.5-0.1,0.9-0.3,1.1-0.8s0.2-1-0.2-1.4c-0.1-0.2-0.3-0.3-0.5-0.4
					c-0.3-0.2-0.5-0.3-0.8-0.5c-0.3-0.2-0.6-0.4-0.9-0.7c-0.5-0.4-0.7-1-0.5-1.7c0.1-0.7,0.5-1.1,1.1-1.3c0.6-0.2,1.2-0.2,1.8,0
					c0.3,0.1,0.4,0.3,0.4,0.6C195.2,140.1,195.2,140.4,195.1,140.7C195.2,140.7,195.1,140.7,195.1,140.7"/>
				<path class="st37" d="M170.2,140.7c0-0.1-0.1-0.3-0.1-0.3c-0.2-0.8-0.9-1.1-1.7-1c-0.7,0.2-1,0.8-0.8,1.5
					c0.1,0.3,0.3,0.6,0.5,0.8c0.2,0.2,0.5,0.3,0.8,0.5c0.4,0.2,0.9,0.5,1.2,0.8c1.1,1,0.7,2.8-0.8,3.2c-0.6,0.2-1.3,0.2-1.9,0
					c-0.5-0.2-0.6-0.4-0.6-0.9c0-0.3,0.1-0.6,0.1-0.9c0,0,0-0.1,0.1-0.2c0,0.1,0,0.2,0.1,0.3c0,0.1,0,0.2,0.1,0.3c0.3,1,1,1.4,2,1.2
					c1.2-0.3,1.2-1.6,0.6-2.2c-0.2-0.2-0.4-0.3-0.6-0.5c-0.2-0.2-0.4-0.3-0.7-0.4c-0.3-0.2-0.6-0.3-0.8-0.6c-0.6-0.5-0.8-1.3-0.6-2
					c0.2-0.7,0.7-1,1.4-1.2c0.5-0.1,1-0.1,1.5,0.1c0.4,0.1,0.5,0.3,0.4,0.6C170.3,140,170.3,140.3,170.2,140.7
					C170.2,140.7,170.2,140.7,170.2,140.7"/>
				<path class="st37" d="M151.1,146.1h-2.3c0,0,0,0,0-0.1c0.1,0,0.1,0,0.2-0.1c0.3-0.1,0.5-0.3,0.5-0.6c0-0.3,0.1-0.6,0.1-0.9
					c0-1.2,0-2.5,0-3.7c0-0.3,0-0.6-0.1-1c0-0.3-0.2-0.5-0.5-0.5c-0.1,0-0.1,0-0.1-0.1h2.1c0,0,0,0,0,0c0,0-0.1,0.1-0.1,0.1
					c-0.3,0-0.4,0.2-0.4,0.5c0,0.5-0.1,1-0.1,1.6c0,1.1,0,2.3,0,3.4c0,0.2,0,0.4,0,0.6c0.1,0.4,0.2,0.5,0.6,0.6
					C151,146,151.1,146,151.1,146.1C151.1,146,151.1,146.1,151.1,146.1"/>
				<path class="st37" d="M177.7,154.3c0.6,0,1.3-0.1,1.9,0c0.7,0.2,1.2,0.7,1.2,1.5c0,0.8-0.4,1.5-1.1,1.7
					c-0.2,0.1-0.5,0.1-0.7,0.1c-0.5,0-1,0-1.4-0.1c0.3-0.2,0.3-0.2,0.3-0.6c0-0.7,0-1.4,0-2.2C177.9,154.7,177.8,154.5,177.7,154.3
					 M178.3,154.5c0,0.3,0,0.5,0,0.7c0,0.6,0,1.3,0,1.9c0,0.2,0,0.3,0.2,0.3c0.6,0.2,1.2,0.1,1.6-0.4c0.5-0.5,0.5-1.6,0-2.1
					c0,0-0.1-0.1-0.1-0.1C179.4,154.4,178.9,154.4,178.3,154.5"/>
				<path class="st37" d="M170.2,156.3c0,0.3-0.3,0.9-1,1.2c-0.7,0.3-1.4,0.3-2-0.2c-1-0.7-0.7-2.4,0.4-2.9c0.3-0.1,0.6-0.2,0.9-0.2
					C169.5,154.2,170.2,154.9,170.2,156.3 M169.8,156.1c0-0.5-0.1-0.9-0.4-1.2c-0.5-0.7-1.7-0.7-2.1,0.1c-0.3,0.6-0.3,1.3,0,1.9
					c0.4,0.8,1.6,0.9,2.2,0.1C169.7,156.8,169.8,156.5,169.8,156.1"/>
				<path class="st37" d="M187,157.7c-1.1,0-1.7-0.7-1.7-1.8c0-1,0.8-1.7,1.9-1.7c1,0,1.7,0.7,1.7,1.7
					C188.8,157,188.1,157.7,187,157.7 M185.7,155.9c0,0.3,0.1,0.7,0.3,1c0.3,0.5,0.7,0.7,1.2,0.7c0.5,0,0.9-0.3,1.1-0.8
					c0.3-0.7,0.2-1.4-0.3-2c-0.3-0.4-0.8-0.5-1.3-0.3c-0.4,0.1-0.7,0.5-0.8,0.9C185.8,155.5,185.8,155.7,185.7,155.9"/>
				<path class="st37" d="M171.7,154.3c0.8,0.9,1.6,1.7,2.5,2.5c0,0,0.1,0,0.1,0c0-0.3,0-0.7,0-1c0-0.3,0-0.6,0-0.9
					c0-0.2-0.1-0.4-0.1-0.6h0.5c0,0.2-0.1,0.4-0.1,0.6c0,0.8,0,1.7-0.1,2.5c0,0.1,0,0.1,0,0.3c-0.9-0.9-1.7-1.8-2.6-2.6
					c0,0.3,0,0.6,0,1c0,0.3,0,0.6,0,0.9c0,0.4,0,0.4,0.3,0.6h-0.7c0-0.2,0.1-0.4,0.1-0.6c0-0.8,0-1.5,0-2.3c0-0.1,0-0.3,0-0.4
					C171.6,154.3,171.6,154.3,171.7,154.3"/>
				<path class="st37" d="M184.7,157.6h-0.8c0.1-0.5-0.2-0.8-0.3-1.3h-1.1c-0.1,0.3-0.2,0.6-0.3,0.9c0,0.1,0,0.2,0.1,0.3h-0.7
					c0.4-0.3,0.5-0.8,0.7-1.2c0.3-0.6,0.5-1.2,0.7-1.8c0-0.1,0.1-0.2,0.2-0.4c0.1,0.2,0.1,0.3,0.2,0.4c0.3,0.8,0.6,1.6,0.9,2.4
					C184.3,157.2,184.4,157.5,184.7,157.6 M183.5,156.2c-0.2-0.4-0.3-0.8-0.5-1.2c-0.2,0.4-0.3,0.8-0.4,1.2H183.5z"/>
				<path class="st37" d="M165.7,155.2c-0.3-0.7-0.7-0.9-1.4-0.8c-0.6,0.1-1,0.5-1.1,1.1c0,0.4,0,0.8,0.1,1.2c0.3,0.7,1.1,1,1.8,0.8
					c0.3-0.1,0.5-0.4,0.6-0.7c0.2,0.5,0.1,0.8-0.4,0.9c-0.5,0.1-1,0.1-1.5-0.1c-0.6-0.2-0.9-0.7-1-1.3c0-0.2,0-0.4,0-0.6
					c0.1-0.7,0.5-1.1,1.2-1.3c0.5-0.1,0.9-0.1,1.4,0c0.3,0.1,0.4,0.2,0.3,0.5C165.7,154.9,165.7,155,165.7,155.2"/>
				<path class="st37" d="M178.2,130.2c-0.1,0-0.2,0.1-0.2,0.1c-0.3,0-0.4,0.1-0.6,0.3c0.2-0.3,0.5-0.3,0.8-0.5
					C178.2,130.1,178.2,130.2,178.2,130.2"/>
				<path class="st37" d="M192.4,130.8c0,0.1,0,0.1,0,0.2c-0.2,0-0.3,0.1-0.4-0.2l0,0C192.1,130.8,192.2,130.8,192.4,130.8
					L192.4,130.8z"/>
				<path class="st36" d="M187.5,114.5c0-0.2-0.1-0.4-0.1-0.6C187.6,114.1,187.5,114.3,187.5,114.5
					C187.5,114.5,187.5,114.5,187.5,114.5"/>
				<path class="st36" d="M173.2,100.8c-0.1,0.2-0.3,0.3-0.4,0.5C172.8,101,173,100.9,173.2,100.8
					C173.1,100.7,173.1,100.7,173.2,100.8"/>
				<path class="st36" d="M160.5,130.8c-0.2,0-0.4,0.1-0.6,0.1c0,0,0,0,0-0.1L160.5,130.8L160.5,130.8z"/>
				<path class="st36" d="M161.1,130.3c0.1,0.2-0.1,0.2-0.2,0.2C161,130.5,161.1,130.4,161.1,130.3
					C161.1,130.4,161.1,130.3,161.1,130.3"/>
				<path class="st36" d="M170.9,111.9c-0.2-0.1-0.3-0.2-0.5-0.3c0.2-0.1,0.2,0.1,0.3,0.1C170.8,111.7,170.9,111.8,170.9,111.9
					C170.9,111.9,170.9,111.9,170.9,111.9"/>
				<path class="st36" d="M192.4,130.8c-0.1,0-0.3,0-0.4,0c0,0,0.1-0.1,0.1-0.1C192.2,130.8,192.3,130.8,192.4,130.8"/>
				<path class="st36" d="M191.1,130.2c0.1,0,0.1,0.1,0.2,0.1l0,0C191.2,130.3,191.1,130.3,191.1,130.2L191.1,130.2z"/>
				<path class="st36" d="M191.4,130.5c0.1,0,0.1,0.1,0.2,0.1v0.1c0,0-0.1,0-0.1,0S191.5,130.6,191.4,130.5
					C191.4,130.5,191.4,130.5,191.4,130.5"/>
				<path class="st36" d="M178.3,154.5c0.6-0.1,1.2,0,1.7,0.3c0,0,0.1,0.1,0.1,0.1c0.5,0.5,0.5,1.6,0,2.1c-0.4,0.4-1,0.5-1.6,0.4
					c-0.2-0.1-0.2-0.2-0.2-0.3c0-0.6,0-1.3,0-1.9C178.3,155,178.3,154.7,178.3,154.5"/>
				<path class="st36" d="M169.8,156.1c0,0.3-0.1,0.6-0.3,0.9c-0.5,0.8-1.7,0.7-2.2-0.1c-0.3-0.6-0.3-1.3,0-1.9
					c0.4-0.8,1.6-0.9,2.1-0.1C169.7,155.2,169.8,155.7,169.8,156.1"/>
				<path class="st36" d="M185.7,155.9c0-0.2,0-0.4,0.1-0.6c0.1-0.4,0.3-0.8,0.8-0.9c0.5-0.1,1-0.1,1.3,0.3c0.5,0.6,0.6,1.3,0.3,2
					c-0.2,0.5-0.6,0.7-1.1,0.8c-0.5,0-1-0.2-1.2-0.7C185.8,156.6,185.7,156.2,185.7,155.9"/>
				<path class="st36" d="M183.5,156.2h-0.9c0.2-0.4,0.3-0.8,0.4-1.2C183.3,155.4,183.4,155.8,183.5,156.2"/>
			</g>
		</g>
	</g>
</g>
</svg>
