<svg id="Layer_1" data-name="Layer 1" xmlns="http://www.w3.org/2000/svg" xmlns:xlink="http://www.w3.org/1999/xlink" viewBox="0 0 350 255.1"><defs><style>.cls-1,.cls-2,.cls-3{fill:none;}.cls-2{clip-path:url(#clip-path);}.cls-3,.cls-4{clip-path:url(#clip-path-4);}.cls-5{fill:#fff;}</style><clipPath id="clip-path"><rect class="cls-3" x="120.8" y="73.3" width="110.2" height="110.2"/></clipPath><clipPath id="clip-path-4"><rect class="cls-2" x="120.8" y="73.3" width="110.2" height="110.2"/></clipPath></defs><title>1_15</title><g class="cls-4"><g class="cls-4"><path class="cls-5" d="M120.8,73.3H231V183.5H120.8Zm77.83,58.41c.28.14.55.14.83.28s.41-.14.55-.14a4.88,4.88,0,0,0,3.58-1.38c.14-.14.14-.14.28-.14s.28-.14.41-.14a3.28,3.28,0,0,0,.83-1.52,5.53,5.53,0,0,0,.41-2.07,3.24,3.24,0,0,0-.28-1.1,4.27,4.27,0,0,0-.83-1.79,3.25,3.25,0,0,0-1.24-1.1,2.33,2.33,0,0,0-1.38-.41,12.06,12.06,0,0,0-2.2.28,5,5,0,0,0-3.31,2.48l-.14.14a7,7,0,0,1,1.65-3.17,1.07,1.07,0,0,0-1,.41l-.41.41c-.69.41-1,1.1-1.65,1.52v.14a9.26,9.26,0,0,0-.55,3.31,6,6,0,0,0,1,2.62.3.3,0,0,0,.28.28,7.57,7.57,0,0,1,1.24,1c.41.28.83.55,1.24.41,0,.41.28.28.55.28.14-.41.14-.41.14-.55M155.51,131h0a2,2,0,0,1,.83-.28,2,2,0,0,0,.28-.41,4.76,4.76,0,0,0,1.38-2.89,1.48,1.48,0,0,1,.28-1.1v-.28a2.66,2.66,0,0,0-.41-1.38,5.39,5.39,0,0,0-1.38-2.2,2.9,2.9,0,0,0-1.79-.69c-.69.14-1.38.14-2.2.28a4.78,4.78,0,0,0-3.17,2.48v.14l-.14-.14a6.82,6.82,0,0,1,1.93-3.17,4,4,0,0,0-1.65,1,1.38,1.38,0,0,0-.55.69,5.69,5.69,0,0,0-1,1.52,1.24,1.24,0,0,0-.14.69v1a4.62,4.62,0,0,0,0,1.38v.55a6.36,6.36,0,0,0,1.24,2.07,6.63,6.63,0,0,0,1.52,1.24,4.38,4.38,0,0,0,1.24.41,1.24,1.24,0,0,0,.69.14c.41,0,1-.14,1.38-.14.69,0,1.1-.41,1.65-.55a.13.13,0,0,0,.14-.14c.14,0,0,0-.14-.14m35.4-24.24c-.14-.14-.28-.14-.41-.28a11.92,11.92,0,0,0-1.38-1,.83.83,0,0,0-.55-.14,10.63,10.63,0,0,0-2.07.28,4.79,4.79,0,0,0-3.44,2.62l-.14.14a6,6,0,0,1,.69-1.65,10.51,10.51,0,0,1,1.1-1.52,6.51,6.51,0,0,0-1.65,1,7.57,7.57,0,0,0-1,1.24,8.43,8.43,0,0,0-.69,1.65,3.39,3.39,0,0,0,.14,2.34v.28c-.14.28,0,.41.14.55.28.41.55,1,.83,1.38s.41.41.69.69a8.36,8.36,0,0,0,1.38,1,.91.91,0,0,0,.83.14h.41c.41,0,.83.14,1.38.14.14,0,.41-.14.55-.14a.91.91,0,0,0,.83-.14c.55-.41,1.1-.69,1.65-1.1a4.91,4.91,0,0,0,1.38-1.52c.28-.41.28-1,.55-1.38a1.75,1.75,0,0,0,.14-.83c0-.55-.14-1.1-.14-1.52s-.41-1-.55-1.52a.13.13,0,0,0-.14-.14h-.14c.14.14.14.41.28.55h-.14a2.77,2.77,0,0,1-.55-1.1M171.35,91.62h0a1.48,1.48,0,0,1-.28,1.1c0,.28.14.41.14.55a4.57,4.57,0,0,0,1.38,3.44l.28.28c0,.28.14.28.28.41a6.51,6.51,0,0,0,1.65,1,3.93,3.93,0,0,0,2.2.28c.28-.14.55-.14.83-.28s1-.28,1.38-.41a4.38,4.38,0,0,0,1.65-1.52c.14-.28.14-.69.55-.83a.48.48,0,0,0,.14-.28,8.06,8.06,0,0,0,.28-1.79v-.69l-.41-1.65c-.14-.41-.14-.69-.55-.83-.14,0-.28-.28-.28-.28a6,6,0,0,0-.83-1,1.76,1.76,0,0,0-.83-.55,9.47,9.47,0,0,0-3.44.41,4.59,4.59,0,0,0-2.62,2.2c0,.14-.14.14-.14.28a6.53,6.53,0,0,1,1.79-3.31h-.28c-.28.14-.41.28-.69.41a1.26,1.26,0,0,0-.83.55c-.28.41-.55.69-.83,1.1a1.25,1.25,0,0,0-.41,1c0,.14-.14.14-.14.28s-.14.28,0,.55a.26.26,0,0,1,0-.41M167.91,115a.92.92,0,0,0,1-.55.3.3,0,0,1,.28-.28c.28-.28.55-.41.83-.69a1.38,1.38,0,0,0,.55-.69l.28-.28a4.4,4.4,0,0,0,.41-1.93c0-.41.14-.83.14-1.38a3.67,3.67,0,0,0-.41-1.65l-.41-.83a3,3,0,0,0-.41-.69,7.57,7.57,0,0,0-1.24-1c-.28-.14-.55-.41-.83-.41a.48.48,0,0,1-.28-.14c-.14-.14-.28-.14-.55-.14,0,.28.41,0,.41.41l-1.24-.41c-.14,0-.41.14-.55.14a5.15,5.15,0,0,0-3.44,1.38c-.14.14-.14.14-.28.14s-.28.14-.41.28a2.62,2.62,0,0,0-.69,1.38,5.71,5.71,0,0,0-.41,2.2,3.24,3.24,0,0,0,.28,1.1,5.24,5.24,0,0,0,1.1,2.34,3,3,0,0,0,2.48,1.24c.55,0,1.1-.14,1.52-.14a5,5,0,0,0,3.72-2.62l.14-.14a8.06,8.06,0,0,1-1.93,3.31m11.57,15.29c.14-.14.14-.28.28-.41a5.64,5.64,0,0,0,1.52-3.58v-.28c.28-.41.14-.69,0-1.1a4.27,4.27,0,0,0-.83-1.79,6.53,6.53,0,0,0-1.38-1.38,15,15,0,0,0-1.52-.83,7,7,0,0,0-1.79-.28c-.55,0-1.24.41-1.79.28a.13.13,0,0,0-.14.14,7.1,7.1,0,0,0-2.34,1.79c-.28.41-.55,1-.83,1.38-.14.14,0,.41-.14.55v.69a5.17,5.17,0,0,1-.14,1.38c0,.14.14.41.14.55s0,.41.14.55.28.41.41.69a6.63,6.63,0,0,0,1.24,1.52,1.7,1.7,0,0,0,1.38.69,10.31,10.31,0,0,0,2.89-.28,4.75,4.75,0,0,0,3-2.34c0-.14.14-.14.14-.28a7.71,7.71,0,0,1-1.1,2.76l.83-.41m11.16,13.09h0a.51.51,0,0,0,.41.14c.41.14.55.28.55.55v.41c0,1.65.14,3.44.14,5.1v1c-.14-.14-.28-.14-.41-.28l-4.41-4.41a21.17,21.17,0,0,1-2.34-2.62c-.14-.14-.14-.28-.41-.28v3.86c0,1.38,0,2.76-.14,4.13,0,1-.14,1-.83,1.38a5.58,5.58,0,0,0,1.52,0,5.56,5.56,0,0,0,1.52,0c-.14,0-.14-.14-.28-.14-1-.28-1.1-.41-1.1-1.38,0-1.93-.14-3.86-.14-5.79v-.14h.14l.41.41c2.2,2.34,4.55,4.55,6.61,6.89l.28.28V149.2c0-1.65.14-3.31.14-5,0-.55.14-1.1.69-1.24v-.14l-2.34.55Zm-36.92,9.37c0-.14.14-.14,0,0-.69-.14-1-.69-1.38-1.24s-.69-1.1-1.1-1.65-1-1.52-1.38-2.34c.83-1.24,1.65-2.34,2.48-3.58a1.76,1.76,0,0,1,.83-.55c.14,0,.14-.14.28-.14a14.49,14.49,0,0,0-2.48,0h.14c.41.14.41.28.28.55a.13.13,0,0,1-.14.14c-.55,1-1,1.79-1.52,2.76l-.14.14c-.55-1-1.1-2.07-1.65-3-.14-.41-.14-.41.28-.55.14,0,.14-.14.28-.14V143h-1.93c-.28,0-.69-.14-1,.14a3,3,0,0,1,1.1.69c.83,1.24,1.65,2.48,2.48,3.86v.14c-.83,1.24-1.65,2.34-2.48,3.58a2.11,2.11,0,0,1-1.38,1l-.14.14h2.89l-.14-.14c-.69-.14-.69-.28-.41-1v-.14a27.32,27.32,0,0,0,1.52-2.76c.14-.14.14-.28.28-.41.69,1.1,1.38,2.2,1.93,3.31a.13.13,0,0,0,.14.14c.14.28.14.41-.28.55-.14,0-.14.14-.28.14l2.89.55Zm58.82-7.58h0c.14-.14.14-.14.14-.28a1.24,1.24,0,0,1,.14-.69c.14-1,.14-1-.83-1h-4.82a.51.51,0,0,0,.41.14.88.88,0,0,1,.69.69v6.06a6.71,6.71,0,0,1-.14,1.65c0,.41-.28.55-.55.69a.23.23,0,1,0,0,.28h5.1c.55,0,.69-.14.69-.69v-1.65l-.41.83a1,1,0,0,1-1,.83,6.69,6.69,0,0,1-2.34,0,.37.37,0,0,1-.41-.41V148.1h1.93c.55,0,.69,0,.83.55h.14c.14-.41.14-.83.28-1.38a5.63,5.63,0,0,1-3,0v-3.72a13.36,13.36,0,0,1,2.34.14.87.87,0,0,1,.69.83,1.5,1.5,0,0,1,.14.69m-33.47,5.23h0c-.14.28-.28.41-.28.69a1.54,1.54,0,0,1-1,1.1,4.49,4.49,0,0,1-2.34,0,.44.44,0,0,1-.41-.41V148.1h2.07c.28,0,.41.14.55.41s0,.14.14.28a2.27,2.27,0,0,0,.28-1.38,11.44,11.44,0,0,1-3,.14,18,18,0,0,1,0-3.86h1.79c.83,0,1.1.28,1.24,1.1,0,.14,0,.14.14.28h.14c0-.41.14-.69.14-1.1,0-.69,0-.69-.69-.69h-5a.43.43,0,0,0,.28.14c.41.14.69.28.69.69v7.44a.87.87,0,0,1-.69.83c-.14,0-.14,0-.28.14v.14h5.92a.44.44,0,0,0,.41-.41c0-.55-.14-1.1-.14-1.79m-49.87-.28a4.08,4.08,0,0,0-.28,1.38,1.2,1.2,0,0,0,.83,1.24,3.8,3.8,0,0,0,2.76,0,2.48,2.48,0,0,0,1.79-2.34,2.57,2.57,0,0,0-1-2.2,5.69,5.69,0,0,0-1.52-1l-1.24-.83a1.72,1.72,0,0,1-.55-1.79,1.32,1.32,0,0,1,1.1-1.24,1.83,1.83,0,0,1,2.34,1.38c0,.14.14.28.14.41h.14c0-.41.14-.83.14-1.24a.76.76,0,0,0-.55-.83,4,4,0,0,0-2.2-.14,2.19,2.19,0,0,0-1.79,1.79,2.7,2.7,0,0,0,.69,2.48,6.47,6.47,0,0,0,1.24.83,4.12,4.12,0,0,0,1.1.55c.28.28.69.41.83.83a1.78,1.78,0,0,1-1,2.89,2,2,0,0,1-2.76-1.52.83.83,0,0,0-.14-.55c-.14.14-.14,0-.14-.14m93.26-4.82h0a4,4,0,0,0,.28-1.24.76.76,0,0,0-.55-.83,3.93,3.93,0,0,0-2.2-.14,2.19,2.19,0,0,0-1.79,1.79,3,3,0,0,0,.83,2.62,7.69,7.69,0,0,0,1.1.69,7.9,7.9,0,0,0,1,.55,6,6,0,0,1,1,.83,1.83,1.83,0,0,1-1,2.89,1.16,1.16,0,0,1-1,0,1.61,1.61,0,0,1-1.52-1.1,3.24,3.24,0,0,1-.28-1.1c0-.14,0-.14-.14-.41a2.72,2.72,0,0,0-.28,1.38,1.2,1.2,0,0,0,.83,1.24,3.44,3.44,0,0,0,2.62,0,2.58,2.58,0,0,0,1-4.41,6.47,6.47,0,0,0-1.24-.83c-.41-.28-.83-.41-1.24-.69a2.55,2.55,0,0,1-1-1.1,1.9,1.9,0,0,1,.41-2.2,1.82,1.82,0,0,1,2.76.83,11.7,11.7,0,0,0,.41,1.24m-20.11,0h0a4,4,0,0,0,.28-1.24.76.76,0,0,0-.55-.83,3.82,3.82,0,0,0-2.48,0,2.25,2.25,0,0,0-1.52,1.79,2.69,2.69,0,0,0,.69,2.34c.41.41.83.55,1.24,1a7.69,7.69,0,0,1,1.1.69c.28.14.41.41.69.55a1.93,1.93,0,0,1,.28,1.93,1.83,1.83,0,0,1-1.52,1.1H200a1.5,1.5,0,0,1-1.38-1c-.14-.28-.28-.69-.41-1s-.14-.28-.14-.41a2.48,2.48,0,0,0-.28,1.38,1.2,1.2,0,0,0,.83,1.24,5.63,5.63,0,0,0,2.62.14,2.44,2.44,0,0,0,1.93-2.76,1.91,1.91,0,0,0-1-1.65,9.26,9.26,0,0,0-1.52-1,9.66,9.66,0,0,1-1.24-.83,1.71,1.71,0,0,1-.41-1.93,1.54,1.54,0,0,1,1-1.1,1.68,1.68,0,0,1,2.34,1.38c-.14-.14,0,0,0,.14m-34.3,0h0a4,4,0,0,0,.28-1.24c0-.55-.14-.69-.55-.83a5.25,5.25,0,0,0-2.07-.14,2.2,2.2,0,0,0-1.93,1.65,2.57,2.57,0,0,0,.83,2.76c.41.28.69.55,1.1.83s.69.41,1,.55.55.41.83.69a1.83,1.83,0,0,1-.83,3,2.07,2.07,0,0,1-2.76-1.65.51.51,0,0,0-.14-.41c0-.14,0-.14-.14-.41-.14.14-.14.14-.14.28,0,.41-.14.83-.14,1.24a1.2,1.2,0,0,0,.83,1.24,4.25,4.25,0,0,0,2.62,0,2.55,2.55,0,0,0,1.1-4.41,6.92,6.92,0,0,0-1.65-1.1,4.83,4.83,0,0,1-1.1-.69,1.89,1.89,0,0,1-.69-1.1,1.51,1.51,0,0,1,1.1-2.07,1.89,1.89,0,0,1,2.34,1.38.68.68,0,0,0,.14.41m-26.31,7.44h0c-.14-.14-.14-.14-.28-.14-.55-.14-.69-.28-.83-.83v-5.51a12.6,12.6,0,0,1,.14-2.2c0-.41.28-.55.55-.69a.13.13,0,0,0,.14-.14h-3a.13.13,0,0,0,.14.14.74.74,0,0,1,.69.69c0,.41.14.83.14,1.38v5.1a3.81,3.81,0,0,1-.14,1.24c-.14.41-.28.69-.69.83-.14,0-.14,0-.28.14v.14h3.44Zm36.64,11.3a1.5,1.5,0,0,1,.14.69v3c0,.41,0,.41-.41.83.69,0,1.38.14,1.93.14a2,2,0,0,0,1-.14,2.29,2.29,0,0,0,1.52-2.34,2.08,2.08,0,0,0-1.65-2.07,7.31,7.31,0,0,0-2.48-.14M168,166.83c0-1.93-1-2.89-2.34-2.76a4,4,0,0,0-1.24.28,2.41,2.41,0,0,0-.55,4,2.81,2.81,0,0,0,2.76.28,2.51,2.51,0,0,0,1.38-1.79m23.14,1.93a2.36,2.36,0,0,0,2.48-2.34,2.24,2.24,0,0,0-2.34-2.34,2.48,2.48,0,0,0-2.62,2.34,2.44,2.44,0,0,0,2.48,2.34M170,164.08h0a1,1,0,0,0-.14.55v3.17c0,.28-.14.55-.14.83h1c-.41-.28-.41-.28-.41-.83v-2.62c1.24,1.1,2.34,2.34,3.58,3.58v-.41a28.79,28.79,0,0,1,.14-3.44c0-.28.14-.55.14-.83h-.83c0,.28.14.55.14.83v2.62h-.14c-1.1-1.1-2.2-2.2-3.31-3.44m18,4.55a1.26,1.26,0,0,1-.55-.83l-1.24-3.31c0-.14-.14-.28-.28-.55-.14.28-.14.41-.28.55a18.4,18.4,0,0,0-1,2.48,4,4,0,0,1-1,1.65h1a1.39,1.39,0,0,0-.14-.41L185,167h1.52c.14.55.55,1.1.41,1.79H188Zm-26.17-3.31c0-.28,0-.41.14-.55,0-.41,0-.55-.41-.69a4.55,4.55,0,0,0-1.93,0,2,2,0,0,0-1.65,1.79v.83a2.28,2.28,0,0,0,1.38,1.79,3.54,3.54,0,0,0,2.07.14c.69-.14.83-.55.55-1.24-.14.41-.28.83-.83,1a1.93,1.93,0,0,1-2.48-1.1,2.3,2.3,0,0,1-.14-1.65,1.75,1.75,0,0,1,1.52-1.52,1.72,1.72,0,0,1,1.79,1.24m17.22-34.44h0c-.41.14-1,.14-1.24.55a1.19,1.19,0,0,1,.83-.41.6.6,0,0,0,.41-.14"/><path d="M190.91,106.77a8.12,8.12,0,0,1,.55,1.1h.14c-.14-.14-.14-.41-.28-.55h.14a.13.13,0,0,1,.14.14c0,.55.55,1,.55,1.52s.14,1.1.14,1.52a1.75,1.75,0,0,1-.14.83c-.28.41-.28,1-.55,1.38a7.22,7.22,0,0,1-1.38,1.52,17.2,17.2,0,0,1-1.65,1.1.85.85,0,0,1-.83.14c-.14,0-.41.14-.55.14-.41,0-.83-.14-1.38-.14h-.41a.85.85,0,0,1-.83-.14,8.36,8.36,0,0,0-1.38-1c-.28-.14-.41-.41-.69-.69a12.12,12.12,0,0,1-.83-1.38.83.83,0,0,1-.14-.55v-.28a2.82,2.82,0,0,1-.14-2.34,8.43,8.43,0,0,1,.69-1.65,7.57,7.57,0,0,1,1-1.24,4.76,4.76,0,0,1,1.65-1c-.41.55-.69,1-1.1,1.52a6,6,0,0,0-.69,1.65c.14,0,.14,0,.14-.14a5.16,5.16,0,0,1,3.44-2.62c.69-.14,1.38-.14,2.07-.28a.83.83,0,0,1,.55.14,11.92,11.92,0,0,0,1.38,1c.14.14.28.14.41.28m1,2.48h0c0-.28.14-.55-.14-.83a2,2,0,0,1,.14.83"/><path d="M171.35,91.62c0,.14-.14.28-.14.41-.14-.28-.14-.28.14-.41a.19.19,0,0,1,0-.28,2.06,2.06,0,0,1,.41-1c.28-.41.55-.69.83-1.1a2.88,2.88,0,0,1,.83-.55c.28-.14.41-.28.69-.41h.28a6.53,6.53,0,0,0-1.79,3.31c0-.14.14-.14.14-.28a4.2,4.2,0,0,1,2.62-2.2,7.43,7.43,0,0,1,3.44-.41c.41,0,.55.28.83.55s.55.69.83,1,.14.28.28.28c.41.14.41.41.55.83l.41,1.65v.69a8.06,8.06,0,0,0-.28,1.79c0,.14,0,.28-.14.28-.41.14-.41.55-.55.83a4.38,4.38,0,0,1-1.65,1.52,2.66,2.66,0,0,1-1.38.41c-.28.14-.55.14-.83.28a4.09,4.09,0,0,1-2.2-.28,4,4,0,0,1-1.65-1c-.14-.14-.28-.14-.28-.41a.3.3,0,0,0-.28-.28,4.78,4.78,0,0,1-1.38-3.44c0-.14-.14-.41-.14-.55.28-.28.28-.69.41-1.1v-.14m.83-1.24c-.14,0-.14-.14,0,0-.14.28-.55.41-.55.69a1.38,1.38,0,0,1,.55-.69"/><path d="M155.51,131c.14,0,.14.14.28.14l-.14.14a7.77,7.77,0,0,1-1.65.55c-.41,0-1,.14-1.38.14a1,1,0,0,1-.69-.14,4.38,4.38,0,0,0-1.24-.41,4.59,4.59,0,0,1-1.52-1.24,5.19,5.19,0,0,1-1.24-2.07v-.55a4.62,4.62,0,0,1,0-1.38v-1c-.14-.28,0-.41.14-.69a9.26,9.26,0,0,0,1-1.52c.14-.28.41-.41.55-.69a4,4,0,0,1,1.65-1,8.55,8.55,0,0,0-1.93,3.17l.14.14v-.14a4.18,4.18,0,0,1,3.17-2.48,10.71,10.71,0,0,1,2.2-.28,2.12,2.12,0,0,1,1.79.69,4.63,4.63,0,0,1,1.38,2.2,4,4,0,0,1,.41,1.38v.28c-.28.41-.14.69-.28,1.1a5.67,5.67,0,0,1-1.38,2.89c-.14.14-.14.28-.28.41a2.55,2.55,0,0,1-1,.28l-.28.28c.28.14.41.14.28-.28m-.83.69h-.83v.14a1.75,1.75,0,0,0,.83-.14"/><path d="M167.91,115a6.53,6.53,0,0,0,1.79-3.31l-.14.14a4.69,4.69,0,0,1-3.72,2.62,6.18,6.18,0,0,1-1.52.14,2.52,2.52,0,0,1-2.48-1.24,4.64,4.64,0,0,1-1.1-2.34c-.14-.41-.14-.69-.28-1.1a4.45,4.45,0,0,1,.41-2.2,6.44,6.44,0,0,1,.69-1.38c.14-.14.28-.28.41-.28s.14-.14.28-.14a4.78,4.78,0,0,1,3.44-1.38c.14,0,.41-.14.55-.14l1.24.41c0-.41-.41-.14-.41-.41.28,0,.41,0,.55.14a.43.43,0,0,0,.28.14,1,1,0,0,1,.83.41,7.57,7.57,0,0,1,1.24,1,.76.76,0,0,1,.41.69c0,.28.28.55.41.83a7.26,7.26,0,0,1,.41,1.65,5.17,5.17,0,0,1-.14,1.38,9.65,9.65,0,0,1-.41,1.93c0,.14-.14.14-.28.28s-.41.41-.55.69-.55.41-.83.69-.28.14-.28.28c0,.41-.41.55-.83.55m1.1-9.37h0l-.41-.41c-.14-.14-.14-.28-.41-.14a8.44,8.44,0,0,0,.83.55"/><path d="M198.08,131.71a1.92,1.92,0,0,1-1.24-.41,7.57,7.57,0,0,1-1.24-1l-.28-.28a8.53,8.53,0,0,1-1-2.62,8.78,8.78,0,0,1,.55-3.31V124a18,18,0,0,1,1.65-1.52l.41-.41c.28-.41.28-.41,1-.41a5.9,5.9,0,0,0-1.65,3.17.13.13,0,0,0,.14-.14,4.73,4.73,0,0,1,3.31-2.48,12.06,12.06,0,0,1,2.2-.28,2.33,2.33,0,0,1,1.38.41,8.91,8.91,0,0,1,1.24,1.1,5.22,5.22,0,0,1,.83,1.79,3.24,3.24,0,0,0,.28,1.1,3.73,3.73,0,0,1-.41,2.07,5.35,5.35,0,0,1-.83,1.52.51.51,0,0,1-.41.14c-.14,0-.14.14-.28.14a4.88,4.88,0,0,1-3.58,1.38,1,1,0,0,0-.55.14c-.28-.14-.55-.14-.83-.28h0c-.14,0-.28-.14-.41-.14a1.7,1.7,0,0,1-.28.41Zm-1.24-.83h0c0,.14.14.14.28.28h0l-.28-.28m.41.41h0v.14h.14v-.14h-.14"/><path d="M179.48,130.33l-.83.41a6.13,6.13,0,0,0,1.1-2.76c0,.14-.14.14-.14.28a4.43,4.43,0,0,1-3,2.34,6.92,6.92,0,0,1-2.89.28,1.91,1.91,0,0,1-1.38-.69,6.63,6.63,0,0,1-1.24-1.52c-.14-.28-.28-.41-.41-.69s-.14-.28-.14-.55-.14-.41-.14-.55a5.17,5.17,0,0,1,.14-1.38v-.69a.83.83,0,0,1,.14-.55c.28-.41.55-1,.83-1.38a5.11,5.11,0,0,1,2.34-1.79L174,121c.69.14,1.24-.28,1.79-.28a8.06,8.06,0,0,1,1.79.28,3.28,3.28,0,0,1,1.52.83,4.38,4.38,0,0,1,1.38,1.38,10.39,10.39,0,0,1,.83,1.79c.14.41.28.69,0,1.1v.28a5.64,5.64,0,0,1-1.52,3.58,2,2,0,0,1-.28.41"/><path d="M190.64,143.41h2.48v.14c-.55.14-.69.69-.69,1.24,0,1.65-.14,3.31-.14,5v3.31c-.14-.14-.28-.14-.28-.28-2.07-2.34-4.41-4.68-6.61-6.89l-.41-.41h-.14v.14c0,1.93,0,3.86.14,5.79,0,1,.28,1.1,1.1,1.38a.43.43,0,0,1,.28.14,5.56,5.56,0,0,1-1.52,0,5.56,5.56,0,0,1-1.52,0c.83-.41.83-.41.83-1.38.14-1.38.14-2.76.14-4.13v-3.86c.28-.14.28.14.41.28.83.83,1.52,1.65,2.34,2.62,1.38,1.52,2.89,2.89,4.41,4.41a1.06,1.06,0,0,0,.41.28v-1c0-1.65,0-3.44-.14-5.1v-.41a.5.5,0,0,0-.55-.55,1.55,1.55,0,0,0-.55-.69Z"/><path d="M153.72,152.78h-3a.43.43,0,0,1,.28-.14c.28-.14.41-.28.28-.55a.13.13,0,0,0-.14-.14c-.69-1.1-1.38-2.2-1.93-3.31-.14.14-.28.28-.28.41a27.32,27.32,0,0,0-1.52,2.76V152c-.28.55-.28.69.41,1l.14.14h-3l.14-.14a2.33,2.33,0,0,0,1.38-1c.83-1.24,1.65-2.34,2.48-3.58v-.14a35.9,35.9,0,0,1-2.34-3.86,1.23,1.23,0,0,0-1.1-.69,2.34,2.34,0,0,1,1-.14h1.93v.14c-.14,0-.14.14-.28.14-.41.14-.41.28-.28.55.55,1,1.1,2.07,1.65,3a.13.13,0,0,0,.14-.14c.55-1,1-1.79,1.52-2.76a.13.13,0,0,1,.14-.14c.14-.41.14-.41-.28-.55h-.14a7.44,7.44,0,0,1,2.48,0,.43.43,0,0,1-.28.14c-.41,0-.55.28-.83.55-.83,1.24-1.65,2.34-2.48,3.58.41.83,1,1.52,1.38,2.34.41.55.69,1.1,1.1,1.65.55.14,1,.55,1.52.69.14-.14,0-.14,0,0"/><path d="M212.54,145.21c0-.14,0-.41-.14-.41-.14-.41-.28-.69-.69-.83a13.36,13.36,0,0,0-2.34-.14v3.72a11.11,11.11,0,0,0,3,0,4.89,4.89,0,0,1-.28,1.38H212c-.28-.55-.28-.55-.83-.55h-1.93V152a.37.37,0,0,0,.41.41,6.69,6.69,0,0,0,2.34,0,1.85,1.85,0,0,0,1-.83c.14-.28.14-.55.41-.83v1.65c0,.55-.14.69-.69.69h-5.1a.51.51,0,0,1-.41-.14.51.51,0,0,0,.41-.14c.41-.14.55-.28.55-.69s.14-1.1.14-1.65v-6.06c0-.41-.28-.55-.69-.69-.14,0-.28-.14-.41-.14H212c.83,0,1,0,.83,1a1.24,1.24,0,0,1-.14.69c0-.14-.14-.14-.14,0h0"/><path d="M179.07,150.44v1.79a.37.37,0,0,1-.41.41h-5.92v-.14c.14,0,.14-.14.28-.14a.87.87,0,0,0,.69-.83V144.1a.65.65,0,0,0-.69-.69c-.14,0-.28,0-.28-.14h5c.69,0,.69,0,.69.69,0,.41-.14.69-.14,1.1h-.14c0-.14-.14-.14-.14-.28-.14-.83-.41-1.1-1.24-1.1h-1.79a18,18,0,0,0,0,3.86,11.44,11.44,0,0,0,3-.14,2.72,2.72,0,0,1-.28,1.38.43.43,0,0,0-.14-.28c0-.28-.28-.41-.55-.41h-2.2v3.72a.37.37,0,0,0,.41.41,6.67,6.67,0,0,0,2.34,0,1.33,1.33,0,0,0,1-1.1,1.24,1.24,0,0,0,.14-.69h.41"/><path d="M129.2,150.16a.48.48,0,0,0,.14.28.83.83,0,0,0,.14.55,2,2,0,0,0,2.76,1.52,1.9,1.9,0,0,0,1-2.89l-.83-.83a4.12,4.12,0,0,0-1.1-.55l-1.24-.83a2.7,2.7,0,0,1-.69-2.48,2.19,2.19,0,0,1,1.79-1.79,4,4,0,0,1,2.2.14.76.76,0,0,1,.55.83c0,.41-.14.83-.14,1.24h-.14c0-.14-.14-.28-.14-.41a1.68,1.68,0,0,0-2.34-1.38,1.48,1.48,0,0,0-1.1,1.24,1.72,1.72,0,0,0,.55,1.79l1.24.83a14.52,14.52,0,0,1,1.52,1,2.38,2.38,0,0,1,1,2.2,2.67,2.67,0,0,1-1.79,2.34,4.7,4.7,0,0,1-2.76,0,1.2,1.2,0,0,1-.83-1.24,2.5,2.5,0,0,1,.28-1.52"/><path d="M222.46,145.34c0-.28-.14-.41-.14-.69a1.74,1.74,0,1,0-3.17,1.38,3.71,3.71,0,0,0,1,1.1c.41.28.83.41,1.24.69l1.24.83a2.59,2.59,0,0,1-1,4.41,4.25,4.25,0,0,1-2.62,0,1.07,1.07,0,0,1-.83-1.24,2.48,2.48,0,0,1,.28-1.38c0,.14.14.28.14.41.14.41.14.83.28,1.1a1.83,1.83,0,0,0,1.52,1.1h1a1.76,1.76,0,0,0,1-2.89,2.8,2.8,0,0,0-1-.83,3.45,3.45,0,0,0-1-.55c-.41-.28-.69-.41-1.1-.69a2.36,2.36,0,0,1-.83-2.62,1.92,1.92,0,0,1,1.79-1.79,4.09,4.09,0,0,1,2.2.14c.41.14.69.41.55.83-.41-.14-.41.28-.55.69Z"/><path d="M202.35,145.34c0-.14-.14-.28-.14-.41a1.83,1.83,0,0,0-2.34-1.38,1.18,1.18,0,0,0-1,1.1,2.39,2.39,0,0,0,.41,1.93,6.47,6.47,0,0,0,1.24.83c.55.41,1.1.69,1.52,1a2.55,2.55,0,0,1,1,1.65,2.44,2.44,0,0,1-1.93,2.76,3.46,3.46,0,0,1-2.62-.14,1.07,1.07,0,0,1-.83-1.24,2.48,2.48,0,0,1,.28-1.38.51.51,0,0,0,.14.41c.14.41.14.69.41,1a2,2,0,0,0,1.38,1h.55a1.83,1.83,0,0,0,1.52-1.1,1.67,1.67,0,0,0-.28-1.93,1.38,1.38,0,0,0-.69-.55c-.41-.28-.69-.41-1.1-.69a7.57,7.57,0,0,1-1.24-1,2.1,2.1,0,0,1-.69-2.34,2.07,2.07,0,0,1,1.52-1.79,3.82,3.82,0,0,1,2.48,0,.76.76,0,0,1,.55.83,4.71,4.71,0,0,1-.14,1.52h0"/><path d="M168,145.34a1.39,1.39,0,0,0-.14-.41,1.93,1.93,0,0,0-2.34-1.38,1.55,1.55,0,0,0-1.1,2.07,3,3,0,0,0,.69,1.1,7.69,7.69,0,0,0,1.1.69,6.92,6.92,0,0,1,1.65,1.1,2.56,2.56,0,0,1-1.1,4.41,4.25,4.25,0,0,1-2.62,0,1.07,1.07,0,0,1-.83-1.24c0-.41.14-.83.14-1.24a.43.43,0,0,1,.14-.28,2000219.3,2000219.3,0,0,1,.28.83,2.16,2.16,0,0,0,2.76,1.65,1.78,1.78,0,0,0,.83-3c-.28-.28-.55-.41-.83-.69a2.22,2.22,0,0,0-1-.55,3.32,3.32,0,0,1-1.1-.83,2.64,2.64,0,0,1-.83-2.76,2.4,2.4,0,0,1,1.93-1.65,3.54,3.54,0,0,1,2.07.14c.55.14.69.41.55.83a8.78,8.78,0,0,0-.28,1.24h0"/><path d="M141.74,152.78h-3.17v-.14c.14,0,.14,0,.28-.14a.87.87,0,0,0,.69-.83c0-.41.14-.83.14-1.24v-5.1a5.17,5.17,0,0,0-.14-1.38.65.65,0,0,0-.69-.69c-.14,0-.14,0-.14-.14h2.89l-.14.14c-.41,0-.55.28-.55.69,0,.69-.14,1.38-.14,2.2v5.51c.14.55.28.69.83.83,0,.14.14.14.14.28h0"/><path d="M178.38,164.08a16.6,16.6,0,0,1,2.62,0,2.08,2.08,0,0,1,1.65,2.07,2.29,2.29,0,0,1-1.52,2.34,2.34,2.34,0,0,1-1,.14,8.47,8.47,0,0,1-1.93-.14c.41-.28.41-.28.41-.83v-3l-.28-.55m.83.28v3.58c0,.28,0,.41.28.41a1.9,1.9,0,0,0,2.2-.55,2.28,2.28,0,0,0,0-2.89l-.14-.14a2.9,2.9,0,0,0-2.34-.41"/><path d="M168,166.83a2.14,2.14,0,0,1-1.38,1.65,2.51,2.51,0,0,1-2.76-.28,2.41,2.41,0,0,1,.55-4,4,4,0,0,1,1.24-.28c1.38,0,2.34,1,2.34,2.89m-.55-.28a2.2,2.2,0,0,0-.55-1.65,1.74,1.74,0,0,0-2.89.14,2.92,2.92,0,0,0,0,2.62,1.8,1.8,0,0,0,3,.14,1.68,1.68,0,0,0,.41-1.24"/><path d="M191.19,168.76a2.21,2.21,0,0,1-2.34-2.48,2.4,2.4,0,0,1,2.62-2.34,2.24,2.24,0,0,1,2.34,2.34,2.5,2.5,0,0,1-2.62,2.48m-1.79-2.48a2.66,2.66,0,0,0,.41,1.38,1.8,1.8,0,0,0,1.65,1,1.61,1.61,0,0,0,1.52-1.1,2.54,2.54,0,0,0-.41-2.76,1.46,1.46,0,0,0-1.79-.41,1.68,1.68,0,0,0-1.1,1.24c-.14.14-.14.41-.28.69"/><path d="M170.11,164.08a40.63,40.63,0,0,0,3.44,3.44h.14V164.9c0-.28-.14-.55-.14-.83h.69c0,.28-.14.55-.14.83a28.79,28.79,0,0,1-.14,3.44v.41c-1.24-1.24-2.34-2.48-3.58-3.58v2.62c0,.55,0,.55.41.83h-1c0-.28.14-.55.14-.83v-3.72h.14"/><path d="M188,168.62h-1.1c.14-.69-.28-1.1-.41-1.79H185l-.41,1.24a.51.51,0,0,0,.14.41h-1a4,4,0,0,0,1-1.65,18.4,18.4,0,0,0,1-2.48c0-.14.14-.28.28-.55.14.28.14.41.28.55l1.24,3.31a.92.92,0,0,0,.55,1m-1.65-1.93c-.28-.55-.41-1.1-.69-1.65a7.77,7.77,0,0,0-.55,1.65Z"/><path d="M161.85,165.32a1.57,1.57,0,0,0-1.93-1.1,1.75,1.75,0,0,0-1.52,1.52,6.71,6.71,0,0,0,.14,1.65,2.06,2.06,0,0,0,2.48,1.1,1.46,1.46,0,0,0,.83-1c.28.69.14,1.1-.55,1.24a3.54,3.54,0,0,1-2.07-.14,2.09,2.09,0,0,1-1.38-1.79V166a2,2,0,0,1,1.65-1.79,4.55,4.55,0,0,1,1.93,0c.41.14.55.28.41.69v.41"/><path d="M179.07,130.88a.48.48,0,0,0-.28.14,1,1,0,0,0-.83.41c.28-.41.69-.41,1.1-.69v.14"/><path d="M198.63,131.71V132c-.28,0-.41.14-.55-.28h.55Z"/><path class="cls-5" d="M191.88,109.25c0-.28-.14-.55-.14-.83.28.28.14.55.14.83h0"/><path class="cls-5" d="M172.18,90.38c-.14.28-.41.41-.55.69,0-.41.28-.55.55-.69h0"/><path class="cls-5" d="M154.69,131.71c-.28,0-.55.14-.83.14v-.14Z"/><path class="cls-5" d="M155.51,131c.14.28-.14.28-.28.28a.3.3,0,0,0,.28-.28h0"/><path class="cls-5" d="M169,105.67c-.28-.14-.41-.28-.69-.41.28-.14.28.14.41.14a.3.3,0,0,1,.28.28h0"/><path class="cls-5" d="M198.63,131.71h-.55l.14-.14a.51.51,0,0,0,.41.14"/><path class="cls-5" d="M196.84,130.88c.14,0,.14.14.28.14h0c-.14,0-.28,0-.28-.14Z"/><path class="cls-5" d="M197.25,131.29c.14,0,.14.14.28.14v.14h-.14a.43.43,0,0,0-.14-.28h0"/><path class="cls-5" d="M179.21,164.35a3.43,3.43,0,0,1,2.34.41l.14.14a2.28,2.28,0,0,1,0,2.89,2.48,2.48,0,0,1-2.2.55c-.28-.14-.28-.28-.28-.41v-3.58"/><path class="cls-5" d="M167.5,166.56a2.22,2.22,0,0,1-.41,1.24,1.81,1.81,0,0,1-3-.14,2.92,2.92,0,0,1,0-2.62,1.68,1.68,0,0,1,2.89-.14,2.4,2.4,0,0,1,.55,1.65"/><path class="cls-5" d="M189.4,166.28a1.75,1.75,0,0,1,.14-.83,1.46,1.46,0,0,1,1.1-1.24,1.67,1.67,0,0,1,1.79.41,2.54,2.54,0,0,1,.41,2.76,1.83,1.83,0,0,1-1.52,1.1,1.67,1.67,0,0,1-1.65-1,3.29,3.29,0,0,1-.28-1.24"/><path class="cls-5" d="M186.37,166.69h-1.24a7.77,7.77,0,0,0,.55-1.65,4.24,4.24,0,0,1,.69,1.65"/></g></g></svg>