<svg id="Layer_1" data-name="Layer 1" xmlns="http://www.w3.org/2000/svg" xmlns:xlink="http://www.w3.org/1999/xlink" viewBox="0 0 80 80"><defs><style>.cls-1,.cls-2,.cls-3{fill:none;}.cls-2{clip-path:url(#clip-path);}.cls-3{clip-path:url(#clip-path-4);}.cls-4{clip-path:url(#clip-path-1926);}.cls-5{fill:#fff;}</style><clipPath id="clip-path"><rect class="cls-3" x="135.9" y="88.4" width="80" height="80"/></clipPath><clipPath id="clip-path-4"><rect class="cls-2" x="135.9" y="88.4" width="80" height="80"/></clipPath><clipPath id="clip-path-1926" transform="translate(-135.9 -88.4)"><rect class="cls-1" x="135.9" y="88.4" width="80" height="80"/></clipPath></defs><title>1_15</title><g class="cls-4"><g class="cls-4"><path class="cls-5" d="M135.9,88.4h80v80h-80Zm56.5,42.4c.2.1.4.1.6.2s.3-.1.4-.1a3.54,3.54,0,0,0,2.6-1c.1-.1.1-.1.2-.1s.2-.1.3-.1a2.38,2.38,0,0,0,.6-1.1,4,4,0,0,0,.3-1.5,2.35,2.35,0,0,0-.2-.8,3.1,3.1,0,0,0-.6-1.3,2.36,2.36,0,0,0-.9-.8,1.69,1.69,0,0,0-1-.3,8.75,8.75,0,0,0-1.6.2,3.65,3.65,0,0,0-2.4,1.8l-.1.1a5.1,5.1,0,0,1,1.2-2.3.78.78,0,0,0-.7.3l-.3.3c-.5.3-.7.8-1.2,1.1v.1a6.72,6.72,0,0,0-.4,2.4,4.38,4.38,0,0,0,.7,1.9.22.22,0,0,0,.2.2,5.49,5.49,0,0,1,.9.7c.3.2.6.4.9.3,0,.3.2.2.4.2.1-.3.1-.3.1-.4m-31.3-.5h0a1.42,1.42,0,0,1,.6-.2,1.44,1.44,0,0,0,.2-.3,3.46,3.46,0,0,0,1-2.1,1.08,1.08,0,0,1,.2-.8v-.2a1.93,1.93,0,0,0-.3-1,3.91,3.91,0,0,0-1-1.6,2.11,2.11,0,0,0-1.3-.5c-.5.1-1,.1-1.6.2a3.47,3.47,0,0,0-2.3,1.8v.1l-.1-.1a5,5,0,0,1,1.4-2.3,2.92,2.92,0,0,0-1.2.7,1,1,0,0,0-.4.5,4.13,4.13,0,0,0-.7,1.1.9.9,0,0,0-.1.5v.7a3.35,3.35,0,0,0,0,1v.4a4.62,4.62,0,0,0,.9,1.5,4.81,4.81,0,0,0,1.1.9,3.18,3.18,0,0,0,.9.3.9.9,0,0,0,.5.1c.3,0,.7-.1,1-.1.5,0,.8-.3,1.2-.4a.1.1,0,0,0,.1-.1c.1,0,0,0-.1-.1m25.7-17.6c-.1-.1-.2-.1-.3-.2a8.65,8.65,0,0,0-1-.7.6.6,0,0,0-.4-.1,7.72,7.72,0,0,0-1.5.2,3.47,3.47,0,0,0-2.5,1.9l-.1.1a4.33,4.33,0,0,1,.5-1.2,7.63,7.63,0,0,1,.8-1.1,4.73,4.73,0,0,0-1.2.7,5.5,5.5,0,0,0-.7.9,6.12,6.12,0,0,0-.5,1.2,2.46,2.46,0,0,0,.1,1.7v.2c-.1.2,0,.3.1.4.2.3.4.7.6,1s.3.3.5.5a6.07,6.07,0,0,0,1,.7.66.66,0,0,0,.6.1h.3c.3,0,.6.1,1,.1.1,0,.3-.1.4-.1a.66.66,0,0,0,.6-.1c.4-.3.8-.5,1.2-.8a3.57,3.57,0,0,0,1-1.1c.2-.3.2-.7.4-1a1.27,1.27,0,0,0,.1-.6c0-.4-.1-.8-.1-1.1s-.3-.7-.4-1.1a.1.1,0,0,0-.1-.1h-.1c.1.1.1.3.2.4h-.1a2,2,0,0,1-.4-.8m-14.2-11h0a1.08,1.08,0,0,1-.2.8c0,.2.1.3.1.4a3.32,3.32,0,0,0,1,2.5l.2.2c0,.2.1.2.2.3a4.73,4.73,0,0,0,1.2.7,2.85,2.85,0,0,0,1.6.2c.2-.1.4-.1.6-.2s.7-.2,1-.3a3.18,3.18,0,0,0,1.2-1.1c.1-.2.1-.5.4-.6a.35.35,0,0,0,.1-.2,5.85,5.85,0,0,0,.2-1.3v-.5l-.3-1.2c-.1-.3-.1-.5-.4-.6-.1,0-.2-.2-.2-.2a4.35,4.35,0,0,0-.6-.7,1.27,1.27,0,0,0-.6-.4,6.88,6.88,0,0,0-2.5.3,3.33,3.33,0,0,0-1.9,1.6c0,.1-.1.1-.1.2a4.74,4.74,0,0,1,1.3-2.4h-.2c-.2.1-.3.2-.5.3a.92.92,0,0,0-.6.4c-.2.3-.4.5-.6.8a.91.91,0,0,0-.3.7c0,.1-.1.1-.1.2s-.1.2,0,.4a.19.19,0,0,1,0-.3m-2.5,17a.67.67,0,0,0,.7-.4.22.22,0,0,1,.2-.2c.2-.2.4-.3.6-.5a1,1,0,0,0,.4-.5l.2-.2a3.19,3.19,0,0,0,.3-1.4c0-.3.1-.6.1-1a2.66,2.66,0,0,0-.3-1.2l-.3-.6a2.19,2.19,0,0,0-.3-.5,5.5,5.5,0,0,0-.9-.7c-.2-.1-.4-.3-.6-.3a.35.35,0,0,1-.2-.1c-.1-.1-.2-.1-.4-.1,0,.2.3,0,.3.3l-.9-.3c-.1,0-.3.1-.4.1a3.74,3.74,0,0,0-2.5,1c-.1.1-.1.1-.2.1s-.2.1-.3.2a1.91,1.91,0,0,0-.5,1,4.15,4.15,0,0,0-.3,1.6,2.35,2.35,0,0,0,.2.8,3.81,3.81,0,0,0,.8,1.7,2.14,2.14,0,0,0,1.8.9c.4,0,.8-.1,1.1-.1a3.63,3.63,0,0,0,2.7-1.9l.1-.1a5.85,5.85,0,0,1-1.4,2.4m8.4,11.1c.1-.1.1-.2.2-.3a4.09,4.09,0,0,0,1.1-2.6v-.2c.2-.3.1-.5,0-.8a3.1,3.1,0,0,0-.6-1.3,4.74,4.74,0,0,0-1-1,10.91,10.91,0,0,0-1.1-.6,5.07,5.07,0,0,0-1.3-.2c-.4,0-.9.3-1.3.2a.1.1,0,0,0-.1.1,5.15,5.15,0,0,0-1.7,1.3c-.2.3-.4.7-.6,1-.1.1,0,.3-.1.4v.5a3.75,3.75,0,0,1-.1,1c0,.1.1.3.1.4s0,.3.1.4.2.3.3.5a4.81,4.81,0,0,0,.9,1.1,1.23,1.23,0,0,0,1,.5,7.49,7.49,0,0,0,2.1-.2,3.45,3.45,0,0,0,2.2-1.7c0-.1.1-.1.1-.2a5.6,5.6,0,0,1-.8,2l.6-.3m8.1,9.5h0a.37.37,0,0,0,.3.1c.3.1.4.2.4.4v.3c0,1.2.1,2.5.1,3.7v.7c-.1-.1-.2-.1-.3-.2l-3.2-3.2a15.37,15.37,0,0,1-1.7-1.9c-.1-.1-.1-.2-.3-.2v2.8c0,1,0,2-.1,3,0,.7-.1.7-.6,1a4.05,4.05,0,0,0,1.1,0,4,4,0,0,0,1.1,0c-.1,0-.1-.1-.2-.1-.7-.2-.8-.3-.8-1,0-1.4-.1-2.8-.1-4.2v-.1h.1l.3.3c1.6,1.7,3.3,3.3,4.8,5l.2.2v-2.4c0-1.2.1-2.4.1-3.6,0-.4.1-.8.5-.9v-.1l-1.7.4Zm-26.8,6.8c0-.1.1-.1,0,0-.5-.1-.7-.5-1-.9s-.5-.8-.8-1.2-.7-1.1-1-1.7c.6-.9,1.2-1.7,1.8-2.6a1.27,1.27,0,0,1,.6-.4c.1,0,.1-.1.2-.1a10.52,10.52,0,0,0-1.8,0h.1c.3.1.3.2.2.4a.1.1,0,0,1-.1.1c-.4.7-.7,1.3-1.1,2l-.1.1c-.4-.7-.8-1.5-1.2-2.2-.1-.3-.1-.3.2-.4.1,0,.1-.1.2-.1V139h-1.4c-.2,0-.5-.1-.7.1a2.18,2.18,0,0,1,.8.5c.6.9,1.2,1.8,1.8,2.8v.1c-.6.9-1.2,1.7-1.8,2.6a1.53,1.53,0,0,1-1,.7l-.1.1h2.1l-.1-.1c-.5-.1-.5-.2-.3-.7V145a19.83,19.83,0,0,0,1.1-2c.1-.1.1-.2.2-.3.5.8,1,1.6,1.4,2.4a.1.1,0,0,0,.1.1c.1.2.1.3-.2.4-.1,0-.1.1-.2.1l2.1.4Zm42.7-5.5h0c.1-.1.1-.1.1-.2a.9.9,0,0,1,.1-.5c.1-.7.1-.7-.6-.7h-3.5a.37.37,0,0,0,.3.1.64.64,0,0,1,.5.5v4.4a4.87,4.87,0,0,1-.1,1.2c0,.3-.2.4-.4.5a.17.17,0,1,0,0,.2h3.7c.4,0,.5-.1.5-.5v-1.2l-.3.6a.75.75,0,0,1-.7.6,4.85,4.85,0,0,1-1.7,0,.27.27,0,0,1-.3-.3v-2.6h1.4c.4,0,.5,0,.6.4h.1c.1-.3.1-.6.2-1a4.09,4.09,0,0,1-2.2,0v-2.7a9.7,9.7,0,0,1,1.7.1.63.63,0,0,1,.5.6,1.09,1.09,0,0,1,.1.5m-24.3,3.8h0c-.1.2-.2.3-.2.5a1.12,1.12,0,0,1-.7.8,3.26,3.26,0,0,1-1.7,0,.32.32,0,0,1-.3-.3v-2.7h1.5c.2,0,.3.1.4.3s0,.1.1.2a1.64,1.64,0,0,0,.2-1,8.31,8.31,0,0,1-2.2.1,13.09,13.09,0,0,1,0-2.8h1.3c.6,0,.8.2.9.8,0,.1,0,.1.1.2h.1c0-.3.1-.5.1-.8,0-.5,0-.5-.5-.5h-3.6a.31.31,0,0,0,.2.1c.3.1.5.2.5.5v5.4a.63.63,0,0,1-.5.6c-.1,0-.1,0-.2.1v.1H178a.32.32,0,0,0,.3-.3c0-.4-.1-.8-.1-1.3m-36.2-.2a3,3,0,0,0-.2,1,.87.87,0,0,0,.6.9,2.76,2.76,0,0,0,2,0,1.8,1.8,0,0,0,1.3-1.7,1.86,1.86,0,0,0-.7-1.6,4.13,4.13,0,0,0-1.1-.7l-.9-.6a1.25,1.25,0,0,1-.4-1.3,1,1,0,0,1,.8-.9,1.33,1.33,0,0,1,1.7,1c0,.1.1.2.1.3h.1c0-.3.1-.6.1-.9a.55.55,0,0,0-.4-.6,2.92,2.92,0,0,0-1.6-.1,1.59,1.59,0,0,0-1.3,1.3,2,2,0,0,0,.5,1.8,4.7,4.7,0,0,0,.9.6,3,3,0,0,0,.8.4c.2.2.5.3.6.6a1.29,1.29,0,0,1-.7,2.1,1.48,1.48,0,0,1-2-1.1.6.6,0,0,0-.1-.4c-.1.1-.1,0-.1-.1m67.7-3.5h0a2.92,2.92,0,0,0,.2-.9.55.55,0,0,0-.4-.6,2.86,2.86,0,0,0-1.6-.1,1.59,1.59,0,0,0-1.3,1.3,2.21,2.21,0,0,0,.6,1.9,5.58,5.58,0,0,0,.8.5,5.74,5.74,0,0,0,.7.4,4.35,4.35,0,0,1,.7.6,1.33,1.33,0,0,1-.7,2.1.85.85,0,0,1-.7,0,1.17,1.17,0,0,1-1.1-.8,2.35,2.35,0,0,1-.2-.8c0-.1,0-.1-.1-.3a2,2,0,0,0-.2,1,.87.87,0,0,0,.6.9,2.5,2.5,0,0,0,1.9,0,1.87,1.87,0,0,0,.7-3.2,4.7,4.7,0,0,0-.9-.6c-.3-.2-.6-.3-.9-.5a1.85,1.85,0,0,1-.7-.8,1.38,1.38,0,0,1,.3-1.6,1.32,1.32,0,0,1,2,.6,8.49,8.49,0,0,0,.3.9m-14.6,0h0a2.92,2.92,0,0,0,.2-.9.55.55,0,0,0-.4-.6,2.78,2.78,0,0,0-1.8,0,1.63,1.63,0,0,0-1.1,1.3,2,2,0,0,0,.5,1.7c.3.3.6.4.9.7a5.58,5.58,0,0,1,.8.5c.2.1.3.3.5.4a1.4,1.4,0,0,1,.2,1.4,1.33,1.33,0,0,1-1.1.8h-.4a1.09,1.09,0,0,1-1-.7c-.1-.2-.2-.5-.3-.7s-.1-.2-.1-.3a1.8,1.8,0,0,0-.2,1,.87.87,0,0,0,.6.9,4.08,4.08,0,0,0,1.9.1,1.77,1.77,0,0,0,1.4-2,1.39,1.39,0,0,0-.7-1.2,6.73,6.73,0,0,0-1.1-.7,7,7,0,0,1-.9-.6,1.24,1.24,0,0,1-.3-1.4,1.12,1.12,0,0,1,.7-.8,1.22,1.22,0,0,1,1.7,1c-.1-.1,0,0,0,.1m-24.9,0h0a2.92,2.92,0,0,0,.2-.9c0-.4-.1-.5-.4-.6a3.81,3.81,0,0,0-1.5-.1,1.6,1.6,0,0,0-1.4,1.2,1.86,1.86,0,0,0,.6,2c.3.2.5.4.8.6s.5.3.7.4.4.3.6.5a1.33,1.33,0,0,1-.6,2.2,1.51,1.51,0,0,1-2-1.2.37.37,0,0,0-.1-.3c0-.1,0-.1-.1-.3-.1.1-.1.1-.1.2,0,.3-.1.6-.1.9a.87.87,0,0,0,.6.9,3.08,3.08,0,0,0,1.9,0,1.85,1.85,0,0,0,.8-3.2,5,5,0,0,0-1.2-.8,3.51,3.51,0,0,1-.8-.5,1.37,1.37,0,0,1-.5-.8,1.1,1.1,0,0,1,.8-1.5,1.37,1.37,0,0,1,1.7,1,.49.49,0,0,0,.1.3m-19.1,5.4h0c-.1-.1-.1-.1-.2-.1-.4-.1-.5-.2-.6-.6v-4a9.15,9.15,0,0,1,.1-1.6c0-.3.2-.4.4-.5a.1.1,0,0,0,.1-.1h-2.2a.1.1,0,0,0,.1.1.54.54,0,0,1,.5.5c0,.3.1.6.1,1v3.7a2.77,2.77,0,0,1-.1.9c-.1.3-.2.5-.5.6-.1,0-.1,0-.2.1v.1h2.5Zm26.6,8.2a1.09,1.09,0,0,1,.1.5V157c0,.3,0,.3-.3.6.5,0,1,.1,1.4.1a1.48,1.48,0,0,0,.7-.1,1.66,1.66,0,0,0,1.1-1.7,1.51,1.51,0,0,0-1.2-1.5,5.31,5.31,0,0,0-1.8-.1m-7.5,2c0-1.4-.7-2.1-1.7-2a2.92,2.92,0,0,0-.9.2,1.75,1.75,0,0,0-.4,2.9,2,2,0,0,0,2,.2,1.82,1.82,0,0,0,1-1.3m16.8,1.4a1.71,1.71,0,0,0,1.8-1.7,1.63,1.63,0,0,0-1.7-1.7,1.8,1.8,0,0,0-1.9,1.7,1.77,1.77,0,0,0,1.8,1.7m-15.4-3.4h0a.76.76,0,0,0-.1.4V157c0,.2-.1.4-.1.6h.7c-.3-.2-.3-.2-.3-.6v-1.9c.9.8,1.7,1.7,2.6,2.6v-.3a20.9,20.9,0,0,1,.1-2.5c0-.2.1-.4.1-.6H174c0,.2.1.4.1.6v1.9H174c-.8-.8-1.6-1.6-2.4-2.5m13.1,3.3a.92.92,0,0,1-.4-.6l-.9-2.4c0-.1-.1-.2-.2-.4-.1.2-.1.3-.2.4a13.35,13.35,0,0,0-.7,1.8,2.92,2.92,0,0,1-.7,1.2h.7a1,1,0,0,0-.1-.3l.3-.9h1.1c.1.4.4.8.3,1.3h.8Zm-19-2.4c0-.2,0-.3.1-.4,0-.3,0-.4-.3-.5a3.3,3.3,0,0,0-1.4,0,1.48,1.48,0,0,0-1.2,1.3v.6a1.66,1.66,0,0,0,1,1.3,2.57,2.57,0,0,0,1.5.1c.5-.1.6-.4.4-.9-.1.3-.2.6-.6.7a1.4,1.4,0,0,1-1.8-.8,1.67,1.67,0,0,1-.1-1.2,1.27,1.27,0,0,1,1.1-1.1,1.25,1.25,0,0,1,1.3.9m12.5-25h0c-.3.1-.7.1-.9.4a.86.86,0,0,1,.6-.3.44.44,0,0,0,.3-.1" transform="translate(-135.9 -88.4)"/><path d="M186.8,112.7a5.9,5.9,0,0,1,.4.8h.1c-.1-.1-.1-.3-.2-.4h.1a.1.1,0,0,1,.1.1c0,.4.4.7.4,1.1s.1.8.1,1.1a1.27,1.27,0,0,1-.1.6c-.2.3-.2.7-.4,1a5.24,5.24,0,0,1-1,1.1,12.49,12.49,0,0,1-1.2.8.61.61,0,0,1-.6.1c-.1,0-.3.1-.4.1-.3,0-.6-.1-1-.1h-.3a.61.61,0,0,1-.6-.1,6.07,6.07,0,0,0-1-.7c-.2-.1-.3-.3-.5-.5a8.8,8.8,0,0,1-.6-1,.6.6,0,0,1-.1-.4v-.2a2,2,0,0,1-.1-1.7,6.12,6.12,0,0,1,.5-1.2,5.5,5.5,0,0,1,.7-.9,3.46,3.46,0,0,1,1.2-.7c-.3.4-.5.7-.8,1.1a4.33,4.33,0,0,0-.5,1.2c.1,0,.1,0,.1-.1a3.74,3.74,0,0,1,2.5-1.9c.5-.1,1-.1,1.5-.2a.6.6,0,0,1,.4.1,8.65,8.65,0,0,0,1,.7c.1.1.2.1.3.2m.7,1.8h0c0-.2.1-.4-.1-.6a1.49,1.49,0,0,1,.1.6" transform="translate(-135.9 -88.4)"/><path d="M172.6,101.7c0,.1-.1.2-.1.3-.1-.2-.1-.2.1-.3a.14.14,0,0,1,0-.2,1.49,1.49,0,0,1,.3-.7c.2-.3.4-.5.6-.8a2.09,2.09,0,0,1,.6-.4c.2-.1.3-.2.5-.3h.2a4.74,4.74,0,0,0-1.3,2.4c0-.1.1-.1.1-.2a3.05,3.05,0,0,1,1.9-1.6,5.39,5.39,0,0,1,2.5-.3c.3,0,.4.2.6.4s.4.5.6.7.1.2.2.2c.3.1.3.3.4.6l.3,1.2v.5a5.85,5.85,0,0,0-.2,1.3c0,.1,0,.2-.1.2-.3.1-.3.4-.4.6a3.18,3.18,0,0,1-1.2,1.1,1.93,1.93,0,0,1-1,.3c-.2.1-.4.1-.6.2a3,3,0,0,1-1.6-.2,2.92,2.92,0,0,1-1.2-.7c-.1-.1-.2-.1-.2-.3a.22.22,0,0,0-.2-.2,3.47,3.47,0,0,1-1-2.5c0-.1-.1-.3-.1-.4.2-.2.2-.5.3-.8v-.1m.6-.9c-.1,0-.1-.1,0,0-.1.2-.4.3-.4.5a1,1,0,0,1,.4-.5" transform="translate(-135.9 -88.4)"/><path d="M161.1,130.3c.1,0,.1.1.2.1l-.1.1a5.64,5.64,0,0,1-1.2.4c-.3,0-.7.1-1,.1a.75.75,0,0,1-.5-.1,3.18,3.18,0,0,0-.9-.3,3.33,3.33,0,0,1-1.1-.9,3.77,3.77,0,0,1-.9-1.5v-.4a3.35,3.35,0,0,1,0-1v-.7c-.1-.2,0-.3.1-.5a6.73,6.73,0,0,0,.7-1.1c.1-.2.3-.3.4-.5a2.92,2.92,0,0,1,1.2-.7,6.21,6.21,0,0,0-1.4,2.3l.1.1v-.1a3,3,0,0,1,2.3-1.8,7.77,7.77,0,0,1,1.6-.2,1.54,1.54,0,0,1,1.3.5,3.36,3.36,0,0,1,1,1.6,2.93,2.93,0,0,1,.3,1v.2c-.2.3-.1.5-.2.8a4.12,4.12,0,0,1-1,2.1c-.1.1-.1.2-.2.3a1.85,1.85,0,0,1-.7.2l-.2.2c.2.1.3.1.2-.2m-.6.5h-.6v.1a1.27,1.27,0,0,0,.6-.1" transform="translate(-135.9 -88.4)"/><path d="M170.1,118.7a4.74,4.74,0,0,0,1.3-2.4l-.1.1a3.4,3.4,0,0,1-2.7,1.9,4.48,4.48,0,0,1-1.1.1,1.83,1.83,0,0,1-1.8-.9,3.37,3.37,0,0,1-.8-1.7c-.1-.3-.1-.5-.2-.8a3.23,3.23,0,0,1,.3-1.6,4.67,4.67,0,0,1,.5-1c.1-.1.2-.2.3-.2s.1-.1.2-.1a3.47,3.47,0,0,1,2.5-1c.1,0,.3-.1.4-.1l.9.3c0-.3-.3-.1-.3-.3.2,0,.3,0,.4.1a.31.31,0,0,0,.2.1.71.71,0,0,1,.6.3,5.5,5.5,0,0,1,.9.7.55.55,0,0,1,.3.5c0,.2.2.4.3.6a5.27,5.27,0,0,1,.3,1.2,3.75,3.75,0,0,1-.1,1,7,7,0,0,1-.3,1.4c0,.1-.1.1-.2.2s-.3.3-.4.5-.4.3-.6.5-.2.1-.2.2c0,.3-.3.4-.6.4m.8-6.8h0l-.3-.3c-.1-.1-.1-.2-.3-.1a6.13,6.13,0,0,0,.6.4" transform="translate(-135.9 -88.4)"/><path d="M192,130.8a1.4,1.4,0,0,1-.9-.3,5.49,5.49,0,0,1-.9-.7l-.2-.2a6.19,6.19,0,0,1-.7-1.9,6.37,6.37,0,0,1,.4-2.4v-.1a13.07,13.07,0,0,1,1.2-1.1l.3-.3c.2-.3.2-.3.7-.3a4.29,4.29,0,0,0-1.2,2.3.1.1,0,0,0,.1-.1,3.43,3.43,0,0,1,2.4-1.8,8.75,8.75,0,0,1,1.6-.2,1.69,1.69,0,0,1,1,.3,6.47,6.47,0,0,1,.9.8,3.79,3.79,0,0,1,.6,1.3,2.35,2.35,0,0,0,.2.8,2.7,2.7,0,0,1-.3,1.5,3.88,3.88,0,0,1-.6,1.1.37.37,0,0,1-.3.1c-.1,0-.1.1-.2.1a3.54,3.54,0,0,1-2.6,1,.76.76,0,0,0-.4.1c-.2-.1-.4-.1-.6-.2h0c-.1,0-.2-.1-.3-.1a1.24,1.24,0,0,1-.2.3Zm-.9-.6h0c0,.1.1.1.2.2h0l-.2-.2m.3.3h0v.1h.1v-.1h-.1" transform="translate(-135.9 -88.4)"/><path d="M178.5,129.8l-.6.3a4.45,4.45,0,0,0,.8-2c0,.1-.1.1-.1.2a3.22,3.22,0,0,1-2.2,1.7,5,5,0,0,1-2.1.2,1.39,1.39,0,0,1-1-.5,4.81,4.81,0,0,1-.9-1.1c-.1-.2-.2-.3-.3-.5s-.1-.2-.1-.4-.1-.3-.1-.4a3.75,3.75,0,0,1,.1-1v-.5a.6.6,0,0,1,.1-.4c.2-.3.4-.7.6-1a3.71,3.71,0,0,1,1.7-1.3l.1-.1c.5.1.9-.2,1.3-.2a5.85,5.85,0,0,1,1.3.2,2.38,2.38,0,0,1,1.1.6,3.18,3.18,0,0,1,1,1,7.54,7.54,0,0,1,.6,1.3c.1.3.2.5,0,.8v.2a4.09,4.09,0,0,1-1.1,2.6,1.44,1.44,0,0,1-.2.3" transform="translate(-135.9 -88.4)"/><path d="M186.6,139.3h1.8v.1c-.4.1-.5.5-.5.9,0,1.2-.1,2.4-.1,3.6v2.4c-.1-.1-.2-.1-.2-.2-1.5-1.7-3.2-3.4-4.8-5l-.3-.3h-.1v.1c0,1.4,0,2.8.1,4.2,0,.7.2.8.8,1a.31.31,0,0,1,.2.1,4,4,0,0,1-1.1,0,4,4,0,0,1-1.1,0c.6-.3.6-.3.6-1,.1-1,.1-2,.1-3v-2.8c.2-.1.2.1.3.2.6.6,1.1,1.2,1.7,1.9,1,1.1,2.1,2.1,3.2,3.2a.77.77,0,0,0,.3.2v-.7c0-1.2,0-2.5-.1-3.7v-.3a.37.37,0,0,0-.4-.4,1.13,1.13,0,0,0-.4-.5Z" transform="translate(-135.9 -88.4)"/><path d="M159.8,146.1h-2.2a.31.31,0,0,1,.2-.1c.2-.1.3-.2.2-.4a.1.1,0,0,0-.1-.1c-.5-.8-1-1.6-1.4-2.4-.1.1-.2.2-.2.3a19.83,19.83,0,0,0-1.1,2v.1c-.2.4-.2.5.3.7l.1.1h-2.2l.1-.1a1.69,1.69,0,0,0,1-.7c.6-.9,1.2-1.7,1.8-2.6v-.1a26.06,26.06,0,0,1-1.7-2.8.89.89,0,0,0-.8-.5,1.7,1.7,0,0,1,.7-.1h1.4v.1c-.1,0-.1.1-.2.1-.3.1-.3.2-.2.4.4.7.8,1.5,1.2,2.2a.1.1,0,0,0,.1-.1c.4-.7.7-1.3,1.1-2a.1.1,0,0,1,.1-.1c.1-.3.1-.3-.2-.4h-.1a5.4,5.4,0,0,1,1.8,0,.31.31,0,0,1-.2.1c-.3,0-.4.2-.6.4-.6.9-1.2,1.7-1.8,2.6.3.6.7,1.1,1,1.7.3.4.5.8.8,1.2.4.1.7.4,1.1.5.1-.1,0-.1,0,0" transform="translate(-135.9 -88.4)"/><path d="M202.5,140.6c0-.1,0-.3-.1-.3-.1-.3-.2-.5-.5-.6a9.7,9.7,0,0,0-1.7-.1v2.7a8.07,8.07,0,0,0,2.2,0,3.55,3.55,0,0,1-.2,1h-.1c-.2-.4-.2-.4-.6-.4h-1.4v2.6a.27.27,0,0,0,.3.3,4.85,4.85,0,0,0,1.7,0,1.34,1.34,0,0,0,.7-.6c.1-.2.1-.4.3-.6v1.2c0,.4-.1.5-.5.5h-3.7a.37.37,0,0,1-.3-.1.37.37,0,0,0,.3-.1c.3-.1.4-.2.4-.5s.1-.8.1-1.2V140c0-.3-.2-.4-.5-.5-.1,0-.2-.1-.3-.1h3.5c.6,0,.7,0,.6.7a.9.9,0,0,1-.1.5c0-.1-.1-.1-.1,0h0" transform="translate(-135.9 -88.4)"/><path d="M178.2,144.4v1.3a.27.27,0,0,1-.3.3h-4.3v-.1c.1,0,.1-.1.2-.1a.63.63,0,0,0,.5-.6v-5.4a.47.47,0,0,0-.5-.5c-.1,0-.2,0-.2-.1h3.6c.5,0,.5,0,.5.5,0,.3-.1.5-.1.8h-.1c0-.1-.1-.1-.1-.2-.1-.6-.3-.8-.9-.8h-1.3a13.07,13.07,0,0,0,0,2.8,8.3,8.3,0,0,0,2.2-.1,2,2,0,0,1-.2,1,.31.31,0,0,0-.1-.2c0-.2-.2-.3-.4-.3h-1.6v2.7a.27.27,0,0,0,.3.3,4.84,4.84,0,0,0,1.7,0,1,1,0,0,0,.7-.8.9.9,0,0,0,.1-.5h.3" transform="translate(-135.9 -88.4)"/><path d="M142,144.2a.35.35,0,0,0,.1.2.6.6,0,0,0,.1.4,1.48,1.48,0,0,0,2,1.1,1.38,1.38,0,0,0,.7-2.1l-.6-.6a3,3,0,0,0-.8-.4l-.9-.6a2,2,0,0,1-.5-1.8,1.59,1.59,0,0,1,1.3-1.3,2.92,2.92,0,0,1,1.6.1.55.55,0,0,1,.4.6c0,.3-.1.6-.1.9h-.1c0-.1-.1-.2-.1-.3a1.22,1.22,0,0,0-1.7-1,1.08,1.08,0,0,0-.8.9,1.25,1.25,0,0,0,.4,1.3l.9.6a10.54,10.54,0,0,1,1.1.7,1.73,1.73,0,0,1,.7,1.6,1.94,1.94,0,0,1-1.3,1.7,3.41,3.41,0,0,1-2,0,.87.87,0,0,1-.6-.9,1.82,1.82,0,0,1,.2-1.1" transform="translate(-135.9 -88.4)"/><path d="M209.7,140.7c0-.2-.1-.3-.1-.5a1.26,1.26,0,1,0-2.3,1,2.7,2.7,0,0,0,.7.8c.3.2.6.3.9.5l.9.6a1.88,1.88,0,0,1-.7,3.2,3.08,3.08,0,0,1-1.9,0,.78.78,0,0,1-.6-.9,1.8,1.8,0,0,1,.2-1c0,.1.1.2.1.3.1.3.1.6.2.8a1.33,1.33,0,0,0,1.1.8h.7a1.28,1.28,0,0,0,.7-2.1,2,2,0,0,0-.7-.6,2.51,2.51,0,0,0-.7-.4c-.3-.2-.5-.3-.8-.5a1.71,1.71,0,0,1-.6-1.9,1.4,1.4,0,0,1,1.3-1.3,3,3,0,0,1,1.6.1c.3.1.5.3.4.6-.3-.1-.3.2-.4.5Z" transform="translate(-135.9 -88.4)"/><path d="M195.1,140.7c0-.1-.1-.2-.1-.3a1.33,1.33,0,0,0-1.7-1,.86.86,0,0,0-.7.8,1.74,1.74,0,0,0,.3,1.4,4.7,4.7,0,0,0,.9.6c.4.3.8.5,1.1.7a1.85,1.85,0,0,1,.7,1.2,1.77,1.77,0,0,1-1.4,2,2.51,2.51,0,0,1-1.9-.1.78.78,0,0,1-.6-.9,1.8,1.8,0,0,1,.2-1,.37.37,0,0,0,.1.3c.1.3.1.5.3.7a1.45,1.45,0,0,0,1,.7h.4a1.33,1.33,0,0,0,1.1-.8,1.21,1.21,0,0,0-.2-1.4,1,1,0,0,0-.5-.4c-.3-.2-.5-.3-.8-.5a5.49,5.49,0,0,1-.9-.7,1.52,1.52,0,0,1-.5-1.7A1.5,1.5,0,0,1,193,139a2.78,2.78,0,0,1,1.8,0,.55.55,0,0,1,.4.6,3.42,3.42,0,0,1-.1,1.1h0" transform="translate(-135.9 -88.4)"/><path d="M170.2,140.7a1,1,0,0,0-.1-.3,1.4,1.4,0,0,0-1.7-1,1.13,1.13,0,0,0-.8,1.5,2.18,2.18,0,0,0,.5.8,5.58,5.58,0,0,0,.8.5,5,5,0,0,1,1.2.8,1.86,1.86,0,0,1-.8,3.2,3.08,3.08,0,0,1-1.9,0,.78.78,0,0,1-.6-.9c0-.3.1-.6.1-.9a.31.31,0,0,1,.1-.2,3162230,3162230,0,0,0,.2.6,1.57,1.57,0,0,0,2,1.2,1.29,1.29,0,0,0,.6-2.2c-.2-.2-.4-.3-.6-.5a1.61,1.61,0,0,0-.7-.4,2.41,2.41,0,0,1-.8-.6,1.92,1.92,0,0,1-.6-2,1.74,1.74,0,0,1,1.4-1.2,2.57,2.57,0,0,1,1.5.1c.4.1.5.3.4.6a6.37,6.37,0,0,0-.2.9h0" transform="translate(-135.9 -88.4)"/><path d="M151.1,146.1h-2.3V146c.1,0,.1,0,.2-.1a.63.63,0,0,0,.5-.6c0-.3.1-.6.1-.9v-3.7a3.75,3.75,0,0,0-.1-1,.47.47,0,0,0-.5-.5c-.1,0-.1,0-.1-.1H151l-.1.1c-.3,0-.4.2-.4.5,0,.5-.1,1-.1,1.6v4c.1.4.2.5.6.6,0,.1.1.1.1.2h0" transform="translate(-135.9 -88.4)"/><path d="M177.7,154.3a12.05,12.05,0,0,1,1.9,0,1.51,1.51,0,0,1,1.2,1.5,1.66,1.66,0,0,1-1.1,1.7,1.7,1.7,0,0,1-.7.1,6.15,6.15,0,0,1-1.4-.1c.3-.2.3-.2.3-.6v-2.2l-.2-.4m.6.2v2.6c0,.2,0,.3.2.3a1.38,1.38,0,0,0,1.6-.4,1.66,1.66,0,0,0,0-2.1l-.1-.1a2.11,2.11,0,0,0-1.7-.3" transform="translate(-135.9 -88.4)"/><path d="M170.2,156.3a1.55,1.55,0,0,1-1,1.2,1.82,1.82,0,0,1-2-.2,1.75,1.75,0,0,1,.4-2.9,2.92,2.92,0,0,1,.9-.2c1,0,1.7.7,1.7,2.1m-.4-.2a1.59,1.59,0,0,0-.4-1.2,1.26,1.26,0,0,0-2.1.1,2.12,2.12,0,0,0,0,1.9,1.31,1.31,0,0,0,2.2.1,1.22,1.22,0,0,0,.3-.9" transform="translate(-135.9 -88.4)"/><path d="M187,157.7a1.61,1.61,0,0,1-1.7-1.8,1.74,1.74,0,0,1,1.9-1.7,1.63,1.63,0,0,1,1.7,1.7,1.81,1.81,0,0,1-1.9,1.8m-1.3-1.8a1.93,1.93,0,0,0,.3,1,1.31,1.31,0,0,0,1.2.7,1.17,1.17,0,0,0,1.1-.8,1.84,1.84,0,0,0-.3-2,1.06,1.06,0,0,0-1.3-.3,1.22,1.22,0,0,0-.8.9c-.1.1-.1.3-.2.5" transform="translate(-135.9 -88.4)"/><path d="M171.7,154.3a29.49,29.49,0,0,0,2.5,2.5h.1v-1.9c0-.2-.1-.4-.1-.6h.5c0,.2-.1.4-.1.6a20.9,20.9,0,0,1-.1,2.5v.3c-.9-.9-1.7-1.8-2.6-2.6V157c0,.4,0,.4.3.6h-.7c0-.2.1-.4.1-.6v-2.7h.1" transform="translate(-135.9 -88.4)"/><path d="M184.7,157.6h-.8c.1-.5-.2-.8-.3-1.3h-1.1l-.3.9a.37.37,0,0,0,.1.3h-.7a2.92,2.92,0,0,0,.7-1.2,13.35,13.35,0,0,0,.7-1.8c0-.1.1-.2.2-.4.1.2.1.3.2.4l.9,2.4a.67.67,0,0,0,.4.7m-1.2-1.4c-.2-.4-.3-.8-.5-1.2a5.64,5.64,0,0,0-.4,1.2Z" transform="translate(-135.9 -88.4)"/><path d="M165.7,155.2a1.14,1.14,0,0,0-1.4-.8,1.27,1.27,0,0,0-1.1,1.1,4.87,4.87,0,0,0,.1,1.2,1.5,1.5,0,0,0,1.8.8,1.06,1.06,0,0,0,.6-.7c.2.5.1.8-.4.9a2.57,2.57,0,0,1-1.5-.1,1.52,1.52,0,0,1-1-1.3v-.6a1.48,1.48,0,0,1,1.2-1.3,3.3,3.3,0,0,1,1.4,0c.3.1.4.2.3.5v.3" transform="translate(-135.9 -88.4)"/><path d="M178.2,130.2a.35.35,0,0,0-.2.1.71.71,0,0,0-.6.3c.2-.3.5-.3.8-.5v.1" transform="translate(-135.9 -88.4)"/><path d="M192.4,130.8v.2c-.2,0-.3.1-.4-.2h.4Z" transform="translate(-135.9 -88.4)"/><path class="cls-5" d="M187.5,114.5c0-.2-.1-.4-.1-.6.2.2.1.4.1.6h0" transform="translate(-135.9 -88.4)"/><path class="cls-5" d="M173.2,100.8c-.1.2-.3.3-.4.5,0-.3.2-.4.4-.5h0" transform="translate(-135.9 -88.4)"/><path class="cls-5" d="M160.5,130.8c-.2,0-.4.1-.6.1v-.1Z" transform="translate(-135.9 -88.4)"/><path class="cls-5" d="M161.1,130.3c.1.2-.1.2-.2.2a.22.22,0,0,0,.2-.2h0" transform="translate(-135.9 -88.4)"/><path class="cls-5" d="M170.9,111.9c-.2-.1-.3-.2-.5-.3.2-.1.2.1.3.1a.22.22,0,0,1,.2.2h0" transform="translate(-135.9 -88.4)"/><path class="cls-5" d="M192.4,130.8H192l.1-.1a.37.37,0,0,0,.3.1" transform="translate(-135.9 -88.4)"/><path class="cls-5" d="M191.1,130.2c.1,0,.1.1.2.1h0c-.1,0-.2,0-.2-.1Z" transform="translate(-135.9 -88.4)"/><path class="cls-5" d="M191.4,130.5c.1,0,.1.1.2.1v.1h-.1a.31.31,0,0,0-.1-.2h0" transform="translate(-135.9 -88.4)"/><path class="cls-5" d="M178.3,154.5a2.49,2.49,0,0,1,1.7.3l.1.1a1.66,1.66,0,0,1,0,2.1,1.8,1.8,0,0,1-1.6.4c-.2-.1-.2-.2-.2-.3v-2.6" transform="translate(-135.9 -88.4)"/><path class="cls-5" d="M169.8,156.1a1.61,1.61,0,0,1-.3.9,1.31,1.31,0,0,1-2.2-.1,2.12,2.12,0,0,1,0-1.9,1.22,1.22,0,0,1,2.1-.1,1.75,1.75,0,0,1,.4,1.2" transform="translate(-135.9 -88.4)"/><path class="cls-5" d="M185.7,155.9a1.27,1.27,0,0,1,.1-.6,1.06,1.06,0,0,1,.8-.9,1.21,1.21,0,0,1,1.3.3,1.84,1.84,0,0,1,.3,2,1.33,1.33,0,0,1-1.1.8,1.21,1.21,0,0,1-1.2-.7,2.39,2.39,0,0,1-.2-.9" transform="translate(-135.9 -88.4)"/><path class="cls-5" d="M183.5,156.2h-.9a5.64,5.64,0,0,0,.4-1.2,3.08,3.08,0,0,1,.5,1.2" transform="translate(-135.9 -88.4)"/></g></g></svg>