<?xml version="1.0" encoding="utf-8"?>
<!-- Generator: Adobe Illustrator 21.1.0, SVG Export Plug-In . SVG Version: 6.00 Build 0)  -->
<svg version="1.1" id="Layer_1" xmlns="http://www.w3.org/2000/svg" xmlns:xlink="http://www.w3.org/1999/xlink" x="0px" y="0px"
	 viewBox="0 0 350 255.1" style="enable-background:new 0 0 350 255.1;" xml:space="preserve">
<style type="text/css">
	.st0{fill:#1F191A;}
</style>
<g>
	<path class="st0" d="M109.7,129.1c-6.9,3.2-14.1,6.8-14.1,14.5s5.8,12.8,13.9,12.8c7.5,0,15.2-5.4,15.2-15.9v-18.4
		C114.5,127,117.1,125.7,109.7,129.1 M109.6,162.7c-12.4,0-22-7.4-22-19.7c0-5.6,3.6-10.6,10.8-14.8c6.8-4,17-7.7,21.1-10
		c4.7-2.7,5.2-4.3,5.2-7.5c0-6-7-11.4-14.4-11.4c-5.5-0.2-10.6,3-12.8,8h-8.2c2.1-8.3,10.6-14.3,21-14.3c12,0,22.3,8.4,22.3,18.6
		v28.9C132.7,155.1,121.7,162.7,109.6,162.7"/>
	<rect x="139.1" y="26.1" class="st0" width="8.3" height="136.6"/>
	<path class="st0" d="M250.8,133.1c0.1,1.4-0.9,2.6-2.3,2.7c-0.1,0-0.2,0-0.3,0c-1.2,0.1-2.3-0.8-2.4-2c0-0.1,0-0.2,0-0.2
		c0-1.3,1.2-1.9,2.4-2.4c0.4-0.2,0.8-0.4,2.6-1.2V133.1z M242.1,132.8c-4.4,2.1-8.9,4.4-8.9,9.2c0,4.9,3.8,8.2,8.9,8.2
		c4.8,0,9.6-3.3,9.6-10.1v-11.9C245.1,131.4,243.6,132.2,242.1,132.8"/>
	<path class="st0" d="M240.5,129.1c-6.9,3.2-14.1,6.8-14.1,14.5c0,7.6,5.8,12.8,13.9,12.8c7.5,0,15.2-5.4,15.2-15.9v-18.4
		C245.3,127,247.8,125.7,240.5,129.1 M240.4,162.7c-12.4,0-21.9-7.4-21.9-19.7c0-5.6,3.6-10.6,10.8-14.8c6.8-4,17.1-7.7,21.1-10
		c4.7-2.7,5.2-4.3,5.2-7.5c0-6-7-11.4-14.4-11.4c-5.5-0.2-10.6,3-12.8,8h-8.2c2.1-8.3,10.6-14.3,20.9-14.3c12,0,22.2,8.4,22.2,18.6
		v28.9C263.4,155.1,252.5,162.7,240.4,162.7"/>
	<path class="st0" d="M183.9,154.3c-11.9-0.1-21.4-9.8-21.3-21.7c0.1-11.9,9.8-21.4,21.7-21.3c11.8,0.1,21.3,9.7,21.3,21.5
		C205.6,144.7,195.9,154.3,183.9,154.3L183.9,154.3 M183.9,102.9c-8.2,0-16.1,3.3-21.8,9.2v-86h-8.2v106.7
		c-0.1,16.6,13.3,30.1,29.9,30.2c16.6,0.1,30.1-13.3,30.2-29.9c0.1-16.6-13.3-30.1-29.9-30.2H183.9"/>
	<polygon class="st0" points="75.3,183.1 78.9,192.3 82.6,182.5 86.2,192.3 90,183.1 92.2,183.1 86.1,197.6 82.6,187.9 79,197.6 
		73.1,183.1 	"/>
	<polygon class="st0" points="104.6,185 99.2,185 99.2,188.3 104.4,188.3 104.4,190.2 99.2,190.2 99.2,194.8 104.6,194.8 
		104.6,196.7 97.1,196.7 97.1,183.1 104.6,183.1 	"/>
	<polygon class="st0" points="112.6,183.1 112.6,194.8 116.6,194.8 116.6,196.8 110.6,196.8 110.6,183.1 	"/>
	<polygon class="st0" points="123.9,183.1 123.9,194.8 127.9,194.8 127.9,196.8 121.9,196.8 121.9,183.1 	"/>
	<polygon class="st0" points="133.1,196.8 133.1,182.2 143,192.6 143,183.1 145.1,183.1 145.1,197.6 135.2,187.2 135.2,196.7 	"/>
	<polygon class="st0" points="159.1,185 153.7,185 153.7,188.3 159,188.3 159,190.2 153.7,190.2 153.7,194.8 159.1,194.8 
		159.1,196.7 151.6,196.7 151.6,183.1 159.1,183.1 	"/>
	<path class="st0" d="M172.8,185.2l-1.7,1c-0.2-0.4-0.5-0.8-0.9-1.1c-0.8-0.4-1.8-0.4-2.6,0.2c-0.4,0.3-0.6,0.7-0.6,1.2
		c0,0.7,0.5,1.2,1.5,1.6l1.4,0.6c0.9,0.3,1.8,0.9,2.4,1.6c0.5,0.7,0.8,1.5,0.8,2.4c0.1,1.2-0.4,2.3-1.2,3.1c-0.8,0.8-2,1.2-3.1,1.2
		c-1.1,0-2.1-0.3-2.9-1c-0.8-0.8-1.3-1.8-1.4-3l2.1-0.5c0,0.6,0.2,1.2,0.5,1.7c0.8,1,2.3,1.2,3.3,0.4c0.1,0,0.1-0.1,0.2-0.2
		c0.4-0.4,0.7-1,0.6-1.6c0-0.2,0-0.5-0.1-0.7c-0.1-0.2-0.2-0.4-0.4-0.6c-0.2-0.2-0.4-0.4-0.6-0.5c-0.3-0.2-0.6-0.3-0.9-0.5l-1.3-0.5
		c-1.9-0.8-2.8-1.9-2.8-3.5c0-1,0.4-1.9,1.2-2.6c0.8-0.7,1.8-1.1,2.9-1C170.7,182.9,172.1,183.8,172.8,185.2"/>
	<path class="st0" d="M186.6,185.2l-1.7,1c-0.2-0.4-0.5-0.8-0.9-1.1c-0.4-0.2-0.7-0.3-1.1-0.3c-0.5,0-1,0.2-1.4,0.5
		c-0.4,0.3-0.6,0.7-0.6,1.2c0,0.7,0.5,1.2,1.5,1.6l1.4,0.6c0.9,0.3,1.8,0.9,2.4,1.6c0.5,0.7,0.8,1.5,0.8,2.4
		c0.1,1.2-0.4,2.3-1.2,3.1c-0.8,0.8-2,1.2-3.1,1.2c-1.1,0-2.1-0.3-2.9-1c-0.8-0.8-1.3-1.8-1.4-3l2.1-0.5c0,0.6,0.2,1.2,0.5,1.7
		c0.8,1,2.3,1.2,3.3,0.4c0.1,0,0.1-0.1,0.2-0.2c0.4-0.4,0.7-1,0.6-1.6c0-0.2,0-0.5-0.1-0.7c-0.1-0.2-0.2-0.4-0.4-0.6
		c-0.2-0.2-0.4-0.4-0.6-0.5c-0.3-0.2-0.6-0.3-0.9-0.5l-1.3-0.5c-1.9-0.8-2.8-1.9-2.8-3.5c0-1,0.4-1.9,1.2-2.6c0.8-0.7,1.9-1.1,2.9-1
		C184.5,182.9,185.9,183.8,186.6,185.2"/>
	<polygon class="st0" points="202.3,183.1 206.1,192.6 209.9,183.1 212.2,183.1 206.1,197.8 200,183.1 	"/>
	<path class="st0" d="M224,193.5h-5.8l-1.5,3.3h-2.2l6.7-14.5l6.5,14.5h-2.3L224,193.5z M223.2,191.5l-2-4.6l-2.1,4.6H223.2z"/>
	<polygon class="st0" points="234.7,183.1 234.7,194.8 238.7,194.8 238.7,196.8 232.7,196.8 232.7,183.1 	"/>
	<polygon class="st0" points="246,183.1 246,194.8 250,194.8 250,196.8 243.9,196.8 243.9,183.1 	"/>
	<polygon class="st0" points="262.7,185 257.2,185 257.2,188.3 262.5,188.3 262.5,190.2 257.2,190.2 257.2,194.8 262.7,194.8 
		262.7,196.7 255.2,196.7 255.2,183.1 262.7,183.1 	"/>
	<polygon class="st0" points="271.4,190.9 266.9,183.1 269.4,183.1 272.5,188.6 275.6,183.1 278,183.1 273.5,190.9 273.5,196.8 
		271.5,196.8 	"/>
	<path class="st0" d="M140.3,227.5h-0.7v-10.8h0.7v4.9c0.6-1.1,1.8-1.8,3.1-1.8c0.9,0,1.8,0.4,2.5,1c0.8,0.7,1.2,1.8,1.2,2.9
		c0,1.1-0.4,2.1-1.2,2.9c-0.7,0.7-1.6,1.1-2.5,1c-1.3,0-2.5-0.7-3.1-1.8V227.5z M146.3,223.8L146.3,223.8c0.1-0.9-0.3-1.8-0.9-2.4
		c-0.5-0.6-1.3-0.9-2.1-0.9c-0.8,0-1.6,0.3-2.1,0.9c-0.6,0.6-1,1.4-0.9,2.3c0,0.9,0.3,1.7,0.9,2.3c0.6,0.6,1.3,0.9,2.1,0.9
		c0.8,0,1.5-0.3,2.1-0.9C146,225.5,146.3,224.6,146.3,223.8L146.3,223.8z"/>
	<path class="st0" d="M155.7,220h0.8l-3.3,7.8c-0.6,1.4-1.4,2.1-2.5,2.1c-0.5,0-1-0.1-1.5-0.3l0.3-0.6c0.4,0.2,0.8,0.3,1.3,0.3
		c0.7,0,1.3-0.6,1.9-1.8L149,220h0.8l3.1,6.7L155.7,220z"/>
	<path class="st0" d="M164.9,221.3h-1v-1.5h1v-0.6c-0.1-0.7,0.2-1.4,0.6-1.9c0.5-0.4,1.1-0.7,1.7-0.6c0.5,0,1,0.1,1.4,0.2v1.5
		c-0.3-0.1-0.7-0.2-1-0.2c-0.7,0-1,0.4-1,1.2v0.4h2.1v1.5h-2v6.2h-1.8V221.3z"/>
	<path class="st0" d="M170.8,224.7v-4.9h1.8v4.4c0,1.2,0.6,1.9,1.7,1.9c0.5,0,0.9-0.2,1.2-0.5c0.3-0.4,0.5-0.9,0.5-1.4v-4.4h1.8v7.8
		H176v-1.2c-0.5,0.8-1.4,1.4-2.4,1.4c-0.8,0-1.5-0.3-2-0.8C171.1,226.3,170.8,225.5,170.8,224.7"/>
	<path class="st0" d="M181.1,225.3c0.7,0.6,1.6,0.9,2.5,1c0.8,0,1.2-0.3,1.2-0.8c0-0.3-0.2-0.5-0.5-0.7c-0.4-0.2-0.8-0.3-1.2-0.4
		c-0.6-0.2-1.1-0.4-1.6-0.8c-0.5-0.4-0.8-1-0.8-1.6c0-0.7,0.3-1.3,0.8-1.7c0.6-0.4,1.3-0.7,2-0.6c1,0,2,0.3,2.9,0.9l-0.7,1.2
		c-0.7-0.4-1.4-0.7-2.2-0.7c-0.7,0-1.1,0.2-1.1,0.8c0,0.2,0.2,0.5,0.5,0.7c0.4,0.2,0.6,0.2,1.2,0.4c1.6,0.5,2.4,1.2,2.4,2.3
		c0,0.7-0.3,1.4-0.8,1.8c-0.6,0.4-1.3,0.6-2,0.6c-1.2,0-2.4-0.4-3.3-1.2L181.1,225.3z"/>
	<path class="st0" d="M189.2,216.9h1.9v1.7h-1.9V216.9z M189.3,219.8h1.8v7.8h-1.8V219.8z"/>
	<path class="st0" d="M193.6,223.7L193.6,223.7c0-1.1,0.4-2.1,1.2-2.9c1.7-1.6,4.3-1.6,5.9,0c0.8,0.7,1.2,1.8,1.2,2.9
		c0,1.1-0.4,2.1-1.2,2.9c-0.8,0.8-1.9,1.2-3,1.2c-1.1,0-2.2-0.4-2.9-1.2C194,225.8,193.5,224.8,193.6,223.7 M200.1,223.7
		L200.1,223.7c0-0.7-0.2-1.3-0.7-1.8c-0.4-0.5-1.1-0.8-1.7-0.7c-0.7,0-1.3,0.2-1.7,0.7c-0.4,0.5-0.6,1.1-0.6,1.8
		c0,0.7,0.2,1.3,0.7,1.8c0.9,1,2.5,1,3.4,0c0,0,0,0,0,0C199.8,224.9,200.1,224.3,200.1,223.7L200.1,223.7z"/>
	<path class="st0" d="M204.5,219.8h1.8v1.2c0.5-0.8,1.4-1.3,2.4-1.3c0.8,0,1.5,0.2,2,0.8c0.5,0.6,0.8,1.4,0.7,2.2v5h-1.8v-4.4
		c0-1.3-0.6-1.9-1.7-1.9c-0.5,0-0.9,0.2-1.2,0.5c-0.3,0.4-0.5,0.9-0.5,1.4v4.4h-1.8L204.5,219.8z"/>
</g>
</svg>
