<?xml version="1.0" encoding="utf-8"?>
<!-- Generator: Adobe Illustrator 21.1.0, SVG Export Plug-In . SVG Version: 6.00 Build 0)  -->
<svg version="1.1" id="Layer_1" xmlns="http://www.w3.org/2000/svg" xmlns:xlink="http://www.w3.org/1999/xlink" x="0px" y="0px"
	 viewBox="0 0 350 255.1" style="enable-background:new 0 0 350 255.1;" xml:space="preserve">
<style type="text/css">
	.st0{fill:#1F191A;}
</style>
<g>
	<path class="st0" d="M149.7,128.4c-2.7,1.3-5.5,2.7-5.5,5.7s2.3,5,5.5,5c2.9,0,6-2.1,6-6.2v-7.2
		C151.6,127.6,152.6,127.1,149.7,128.4 M149.7,141.6c-4.9,0-8.6-2.9-8.6-7.7c0-2.2,1.4-4.2,4.2-5.8c2.7-1.6,6.7-3,8.3-3.9
		c1.8-1.1,2-1.7,2-2.9c0-2.4-2.7-4.5-5.7-4.5c-2.2-0.1-4.2,1.2-5,3.1h-3.2c0.8-3.3,4.2-5.6,8.2-5.6c4.7,0,8.8,3.3,8.8,7.3v11.3
		C158.7,138.6,154.4,141.6,149.7,141.6"/>
	<rect x="161.2" y="88" class="st0" width="3.3" height="53.6"/>
	<path class="st0" d="M205.1,130c0,0.5-0.4,1-0.9,1.1c0,0-0.1,0-0.1,0c-0.5,0-0.9-0.3-0.9-0.8c0,0,0-0.1,0-0.1
		c0-0.5,0.5-0.7,0.9-0.9c0.2-0.1,0.3-0.2,1-0.5V130z M201.7,129.9c-1.7,0.8-3.5,1.7-3.5,3.6c0,1.9,1.5,3.2,3.5,3.2
		c1.9,0,3.8-1.3,3.8-4v-4.7C202.9,129.3,202.3,129.6,201.7,129.9"/>
	<path class="st0" d="M201,128.4c-2.7,1.3-5.5,2.7-5.5,5.7c0,3,2.3,5,5.5,5c2.9,0,6-2.1,6-6.2v-7.2
		C202.9,127.6,203.9,127.1,201,128.4 M201,141.6c-4.9,0-8.6-2.9-8.6-7.7c0-2.2,1.4-4.2,4.2-5.8c2.7-1.6,6.7-3,8.3-3.9
		c1.8-1.1,2-1.7,2-2.9c0-2.4-2.7-4.5-5.7-4.5c-2.2-0.1-4.2,1.2-5,3.1h-3.2c0.8-3.3,4.2-5.6,8.2-5.6c4.7,0,8.7,3.3,8.7,7.3v11.3
		C210,138.6,205.8,141.6,201,141.6"/>
	<path class="st0" d="M178.8,138.3c-4.7,0-8.4-3.8-8.4-8.5c0-4.7,3.8-8.4,8.5-8.4c4.6,0,8.4,3.8,8.4,8.4
		C187.3,134.6,183.5,138.3,178.8,138.3L178.8,138.3 M178.8,118.1c-3.2,0-6.3,1.3-8.6,3.6V88h-3.2v41.9c0,6.5,5.2,11.8,11.7,11.9
		c6.5,0,11.8-5.2,11.9-11.7C190.7,123.5,185.4,118.2,178.8,118.1L178.8,118.1"/>
	<polygon class="st0" points="136.2,149.6 137.6,153.2 139.1,149.4 140.5,153.2 142,149.6 142.8,149.6 140.4,155.3 139.1,151.5 
		137.7,155.3 135.3,149.6 	"/>
	<polygon class="st0" points="147.7,150.4 145.6,150.4 145.6,151.7 147.6,151.7 147.6,152.4 145.6,152.4 145.6,154.2 147.7,154.2 
		147.7,155 144.8,155 144.8,149.6 147.7,149.6 	"/>
	<polygon class="st0" points="150.8,149.6 150.8,154.2 152.4,154.2 152.4,155 150.1,155 150.1,149.6 	"/>
	<polygon class="st0" points="155.3,149.6 155.3,154.2 156.8,154.2 156.8,155 154.5,155 154.5,149.6 	"/>
	<polygon class="st0" points="158.9,155 158.9,149.3 162.8,153.4 162.8,149.6 163.6,149.6 163.6,155.3 159.7,151.2 159.7,155 	"/>
	<polygon class="st0" points="169.1,150.4 167,150.4 167,151.7 169.1,151.7 169.1,152.4 167,152.4 167,154.2 169.1,154.2 169.1,155 
		166.1,155 166.1,149.6 169.1,149.6 	"/>
	<path class="st0" d="M174.5,150.5l-0.7,0.4c-0.1-0.2-0.2-0.3-0.4-0.4c-0.3-0.2-0.7-0.2-1,0.1c-0.2,0.1-0.2,0.3-0.2,0.5
		c0,0.3,0.2,0.5,0.6,0.6l0.5,0.2c0.4,0.1,0.7,0.4,0.9,0.6c0.2,0.3,0.3,0.6,0.3,0.9c0,0.5-0.2,0.9-0.5,1.2c-0.3,0.3-0.8,0.5-1.2,0.5
		c-0.4,0-0.8-0.1-1.1-0.4c-0.3-0.3-0.5-0.7-0.5-1.2l0.8-0.2c0,0.2,0.1,0.5,0.2,0.7c0.3,0.4,0.9,0.5,1.3,0.2c0,0,0,0,0.1-0.1
		c0.2-0.2,0.3-0.4,0.2-0.6c0-0.1,0-0.2,0-0.3s-0.1-0.2-0.2-0.2c-0.1-0.1-0.2-0.2-0.2-0.2c-0.1-0.1-0.2-0.1-0.4-0.2l-0.5-0.2
		c-0.7-0.3-1.1-0.7-1.1-1.4c0-0.4,0.2-0.7,0.5-1c0.3-0.3,0.7-0.4,1.1-0.4C173.6,149.6,174.2,149.9,174.5,150.5"/>
	<path class="st0" d="M179.9,150.5l-0.7,0.4c-0.1-0.2-0.2-0.3-0.4-0.4c-0.2-0.1-0.3-0.1-0.4-0.1c-0.2,0-0.4,0.1-0.5,0.2
		c-0.2,0.1-0.2,0.3-0.2,0.5c0,0.3,0.2,0.5,0.6,0.6l0.5,0.2c0.4,0.1,0.7,0.4,0.9,0.6c0.2,0.3,0.3,0.6,0.3,0.9c0,0.5-0.2,0.9-0.5,1.2
		c-0.3,0.3-0.8,0.5-1.2,0.5c-0.4,0-0.8-0.1-1.1-0.4c-0.3-0.3-0.5-0.7-0.5-1.2l0.8-0.2c0,0.2,0.1,0.5,0.2,0.7
		c0.3,0.4,0.9,0.5,1.3,0.2c0,0,0,0,0.1-0.1c0.2-0.2,0.3-0.4,0.2-0.6c0-0.1,0-0.2,0-0.3s-0.1-0.2-0.2-0.2c-0.1-0.1-0.2-0.2-0.2-0.2
		c-0.1-0.1-0.2-0.1-0.4-0.2l-0.5-0.2c-0.7-0.3-1.1-0.7-1.1-1.4c0-0.4,0.2-0.7,0.5-1c0.3-0.3,0.7-0.4,1.1-0.4
		C179.1,149.6,179.6,149.9,179.9,150.5"/>
	<polygon class="st0" points="186.1,149.6 187.5,153.4 189,149.6 189.9,149.6 187.5,155.4 185.1,149.6 	"/>
	<path class="st0" d="M194.6,153.7h-2.3l-0.6,1.3h-0.9l2.6-5.7l2.6,5.7h-0.9L194.6,153.7z M194.3,152.9l-0.8-1.8l-0.8,1.8H194.3z"/>
	<polygon class="st0" points="198.8,149.6 198.8,154.2 200.3,154.2 200.3,155 198,155 198,149.6 	"/>
	<polygon class="st0" points="203.2,149.6 203.2,154.2 204.8,154.2 204.8,155 202.4,155 202.4,149.6 	"/>
	<polygon class="st0" points="209.8,150.4 207.6,150.4 207.6,151.7 209.7,151.7 209.7,152.4 207.6,152.4 207.6,154.2 209.8,154.2 
		209.8,155 206.8,155 206.8,149.6 209.8,149.6 	"/>
	<polygon class="st0" points="213.2,152.7 211.4,149.6 212.4,149.6 213.6,151.8 214.8,149.6 215.8,149.6 214,152.7 214,155 
		213.2,155 	"/>
	<path class="st0" d="M161.7,167.1h-0.3v-4.2h0.3v1.9c0.2-0.4,0.7-0.7,1.2-0.7c0.4,0,0.7,0.2,1,0.4c0.3,0.3,0.5,0.7,0.5,1.1
		s-0.2,0.8-0.5,1.1c-0.3,0.3-0.6,0.4-1,0.4c-0.5,0-1-0.3-1.2-0.7V167.1z M164.1,165.6L164.1,165.6c0-0.4-0.1-0.7-0.4-0.9
		c-0.2-0.2-0.5-0.4-0.8-0.4c-0.3,0-0.6,0.1-0.8,0.4c-0.2,0.2-0.4,0.5-0.4,0.9c0,0.4,0.1,0.7,0.4,0.9c0.2,0.2,0.5,0.4,0.8,0.4
		c0.3,0,0.6-0.1,0.8-0.4C164,166.3,164.1,165.9,164.1,165.6L164.1,165.6z"/>
	<path class="st0" d="M167.8,164.1h0.3l-1.3,3.1c-0.2,0.5-0.5,0.8-1,0.8c-0.2,0-0.4,0-0.6-0.1l0.1-0.2c0.2,0.1,0.3,0.1,0.5,0.1
		c0.3,0,0.5-0.2,0.7-0.7l-1.5-2.9h0.3l1.2,2.6L167.8,164.1z"/>
	<path class="st0" d="M171.4,164.6H171V164h0.4v-0.2c0-0.3,0.1-0.5,0.2-0.7c0.2-0.2,0.4-0.3,0.7-0.2c0.2,0,0.4,0,0.5,0.1v0.6
		c-0.1,0-0.3-0.1-0.4-0.1c-0.3,0-0.4,0.2-0.4,0.5v0.2h0.8v0.6h-0.8v2.4h-0.7V164.6z"/>
	<path class="st0" d="M173.7,166V164h0.7v1.7c0,0.5,0.2,0.7,0.7,0.7c0.2,0,0.4-0.1,0.5-0.2c0.1-0.2,0.2-0.4,0.2-0.5V164h0.7v3.1
		h-0.7v-0.5c-0.2,0.3-0.5,0.5-0.9,0.5c-0.3,0-0.6-0.1-0.8-0.3C173.8,166.6,173.7,166.3,173.7,166"/>
	<path class="st0" d="M177.7,166.2c0.3,0.2,0.6,0.4,1,0.4c0.3,0,0.5-0.1,0.5-0.3c0-0.1-0.1-0.2-0.2-0.3c-0.2-0.1-0.3-0.1-0.5-0.2
		c-0.2-0.1-0.4-0.2-0.6-0.3s-0.3-0.4-0.3-0.6c0-0.3,0.1-0.5,0.3-0.7c0.2-0.2,0.5-0.3,0.8-0.2c0.4,0,0.8,0.1,1.1,0.4l-0.3,0.5
		c-0.3-0.2-0.5-0.3-0.9-0.3c-0.3,0-0.4,0.1-0.4,0.3c0,0.1,0.1,0.2,0.2,0.3c0.2,0.1,0.2,0.1,0.5,0.2c0.6,0.2,0.9,0.5,0.9,0.9
		c0,0.3-0.1,0.5-0.3,0.7c-0.2,0.2-0.5,0.2-0.8,0.2c-0.5,0-0.9-0.2-1.3-0.5L177.7,166.2z"/>
	<path class="st0" d="M180.9,162.9h0.7v0.7h-0.7V162.9z M180.9,164h0.7v3.1h-0.7V164z"/>
	<path class="st0" d="M182.6,165.6L182.6,165.6c0-0.4,0.2-0.8,0.5-1.1c0.7-0.6,1.7-0.6,2.3,0c0.3,0.3,0.5,0.7,0.5,1.1
		s-0.2,0.8-0.5,1.1c-0.3,0.3-0.7,0.5-1.2,0.5s-0.9-0.2-1.1-0.5C182.8,166.4,182.6,166,182.6,165.6 M185.2,165.6L185.2,165.6
		c0-0.3-0.1-0.5-0.3-0.7c-0.2-0.2-0.4-0.3-0.7-0.3c-0.3,0-0.5,0.1-0.7,0.3s-0.2,0.4-0.2,0.7s0.1,0.5,0.3,0.7c0.4,0.4,1,0.4,1.3,0
		l0,0C185.1,166,185.2,165.8,185.2,165.6L185.2,165.6z"/>
	<path class="st0" d="M186.9,164h0.7v0.5c0.2-0.3,0.5-0.5,0.9-0.5c0.3,0,0.6,0.1,0.8,0.3c0.2,0.2,0.3,0.5,0.3,0.9v2h-0.7v-1.7
		c0-0.5-0.2-0.7-0.7-0.7c-0.2,0-0.4,0.1-0.5,0.2c-0.1,0.2-0.2,0.4-0.2,0.5v1.7h-0.7L186.9,164z"/>
</g>
</svg>
