<?xml version="1.0" encoding="utf-8"?>
<!-- Generator: Adobe Illustrator 21.1.0, SVG Export Plug-In . SVG Version: 6.00 Build 0)  -->
<svg version="1.1" id="Layer_1" xmlns="http://www.w3.org/2000/svg" xmlns:xlink="http://www.w3.org/1999/xlink" x="0px" y="0px"
	 viewBox="0 0 350 255.1" style="enable-background:new 0 0 350 255.1;" xml:space="preserve">
<style type="text/css">
	.st0{fill:#1F191A;}
</style>
<g>
	<polygon class="st0" points="142.3,148.4 145.1,148.4 145.1,145.9 146,145.9 146,152.3 145.1,152.3 145.1,149.4 142.3,149.4 
		142.3,152.3 141.3,152.3 141.3,145.9 142.3,145.9 	"/>
	<path class="st0" d="M148.6,149.1c0-0.9,0.3-1.7,1-2.3c0.6-0.6,1.5-1,2.4-1s1.7,0.3,2.3,1c0.6,0.6,1,1.5,1,2.3c0,0.9-0.3,1.7-1,2.3
		c-0.6,0.6-1.5,1-2.4,1c-0.8,0-1.6-0.3-2.2-0.9C149,151,148.6,150.1,148.6,149.1 M149.5,149.1c0,0.7,0.2,1.3,0.7,1.7
		c0.5,0.5,1,0.7,1.6,0.7c0.7,0,1.2-0.2,1.7-0.7s0.7-1,0.7-1.7s-0.2-1.3-0.7-1.7c-0.5-0.5-1-0.7-1.7-0.7c-0.6,0-1.2,0.2-1.7,0.7
		C149.8,147.9,149.5,148.4,149.5,149.1"/>
	<polygon class="st0" points="159.4,146.9 159.4,152.3 158.5,152.3 158.5,146.9 156.9,146.9 156.9,145.9 160.9,145.9 160.9,146.9 	
		"/>
	<path class="st0" d="M170.7,146.9l-0.8,0.5c-0.2-0.2-0.3-0.4-0.4-0.5c-0.1-0.1-0.3-0.1-0.5-0.1c-0.3,0-0.5,0.1-0.6,0.2
		c-0.2,0.2-0.3,0.3-0.3,0.6c0,0.3,0.2,0.6,0.7,0.8l0.6,0.2c0.5,0.2,0.9,0.5,1.2,0.8c0.2,0.3,0.3,0.7,0.3,1.1c0,0.6-0.2,1.1-0.6,1.5
		c-0.4,0.4-0.9,0.6-1.5,0.6c-0.6,0-1-0.2-1.4-0.5c-0.3-0.3-0.6-0.8-0.7-1.4l1-0.2c0.1,0.3,0.1,0.6,0.2,0.8c0.2,0.3,0.5,0.4,0.9,0.4
		c0.3,0,0.6-0.1,0.8-0.3c0.2-0.2,0.3-0.5,0.3-0.8c0-0.1,0-0.2-0.1-0.3c-0.1-0.1-0.1-0.2-0.2-0.3c-0.1-0.1-0.2-0.2-0.3-0.2
		c-0.1-0.1-0.2-0.2-0.4-0.2l-0.6-0.2c-0.9-0.3-1.3-0.9-1.3-1.6c0-0.5,0.2-0.9,0.6-1.2c0.3-0.3,0.8-0.5,1.4-0.5
		C169.7,145.8,170.3,146.2,170.7,146.9"/>
	<path class="st0" d="M174.3,149.8v2.6h-1V146h1.1c0.5,0,0.9,0.1,1.2,0.1s0.5,0.2,0.8,0.4c0.3,0.3,0.6,0.8,0.6,1.3
		c0,0.6-0.2,1-0.6,1.4c-0.4,0.3-0.9,0.5-1.6,0.5L174.3,149.8L174.3,149.8z M174.3,148.8h0.3c0.9,0,1.3-0.3,1.3-1c0-0.6-0.5-1-1.4-1
		h-0.3L174.3,148.8L174.3,148.8z"/>
	<path class="st0" d="M181.5,149.6l2,2.7h-1.2l-1.8-2.6h-0.2v2.6h-1v-6.4h1.2c0.9,0,1.5,0.2,1.9,0.5c0.4,0.3,0.6,0.8,0.6,1.4
		c0,0.5-0.1,0.8-0.4,1.2C182.3,149.3,181.9,149.5,181.5,149.6 M180.3,148.9h0.3c0.9,0,1.4-0.3,1.4-1c0-0.6-0.5-1-1.3-1h-0.3V148.9
		L180.3,148.9z"/>
	<rect x="185.8" y="145.9" class="st0" width="1" height="6.4"/>
	<polygon class="st0" points="189.7,152.3 189.7,145.5 194.4,150.4 194.4,145.9 195.3,145.9 195.3,152.7 190.7,147.9 190.7,152.3 	
		"/>
	<path class="st0" d="M201.6,149h2.7v0.2c0,0.5-0.1,0.9-0.2,1.3c-0.1,0.3-0.3,0.6-0.6,1c-0.6,0.7-1.3,1-2.3,1c-0.9,0-1.7-0.3-2.3-1
		c-0.6-0.6-0.9-1.5-0.9-2.3c0-0.9,0.3-1.7,1-2.4c0.6-0.6,1.5-1,2.4-1c0.5,0,1,0.1,1.4,0.3c0.4,0.2,0.8,0.5,1.2,1l-0.7,0.6
		c-0.5-0.7-1.2-1-1.9-1c-0.7,0-1.2,0.2-1.7,0.7c-0.5,0.5-0.7,1-0.7,1.7s0.2,1.3,0.8,1.7c0.5,0.4,1,0.6,1.6,0.6
		c0.5,0,0.9-0.2,1.3-0.5c0.4-0.3,0.6-0.7,0.6-1.2h-1.6V149z"/>
	<path class="st0" d="M210.4,146.9l-0.8,0.5c-0.2-0.2-0.3-0.4-0.4-0.5c-0.1-0.1-0.3-0.1-0.5-0.1c-0.3,0-0.5,0.1-0.7,0.2
		c-0.2,0.2-0.3,0.3-0.3,0.6c0,0.3,0.2,0.6,0.7,0.8l0.6,0.2c0.5,0.2,0.9,0.5,1.2,0.8c0.2,0.3,0.3,0.7,0.3,1.1c0,0.6-0.2,1.1-0.6,1.5
		c-0.4,0.4-0.9,0.6-1.5,0.6s-1-0.2-1.4-0.5c-0.3-0.3-0.6-0.8-0.7-1.4l1-0.2c0.1,0.3,0.1,0.6,0.2,0.8c0.2,0.3,0.5,0.4,0.9,0.4
		c0.3,0,0.6-0.1,0.8-0.3c0.2-0.2,0.3-0.5,0.3-0.8c0-0.1,0-0.2-0.1-0.3c-0.1-0.1-0.1-0.2-0.2-0.3c-0.1-0.1-0.2-0.2-0.3-0.2
		c-0.1-0.1-0.2-0.2-0.4-0.2l-0.6-0.2c-0.9-0.3-1.3-0.9-1.3-1.6c0-0.5,0.2-0.9,0.6-1.2c0.3-0.3,0.8-0.5,1.4-0.5
		C209.5,145.8,210,146.2,210.4,146.9"/>
	<path class="st0" d="M159.3,166.8H159v-5.1h0.3v2.3c0.4-0.6,0.9-0.9,1.5-0.9c0.5,0,0.9,0.2,1.2,0.5c0.3,0.3,0.5,0.8,0.5,1.3l0,0
		c0,0.5-0.2,1-0.5,1.3c-0.3,0.3-0.8,0.5-1.2,0.5c-0.6,0-1.1-0.3-1.5-0.8V166.8z M162.2,165.1L162.2,165.1c0-0.5-0.1-0.8-0.4-1.1
		s-0.6-0.4-1-0.4s-0.7,0.1-1,0.4s-0.5,0.6-0.5,1.1l0,0c0,0.4,0.1,0.8,0.5,1.1c0.3,0.3,0.6,0.4,1,0.4c0.4,0,0.8-0.1,1-0.4
		C162,166,162.2,165.6,162.2,165.1"/>
	<path class="st0" d="M166.6,163.3h0.3l-1.5,3.7c-0.3,0.7-0.7,1-1.2,1c-0.2,0-0.5-0.1-0.7-0.2l0.1-0.3c0.2,0.1,0.4,0.1,0.6,0.1
		c0.3,0,0.6-0.3,0.9-0.8l-1.7-3.5h0.4l1.5,3.1L166.6,163.3z"/>
	<path class="st0" d="M171,163.9h-0.5v-0.7h0.5v-0.3c0-0.4,0.1-0.7,0.3-0.9c0.2-0.2,0.5-0.3,0.8-0.3c0.2,0,0.5,0.1,0.7,0.1v0.7
		c-0.2-0.1-0.3-0.1-0.5-0.1c-0.3,0-0.5,0.2-0.5,0.6v0.2h1v0.7h-0.9v3h-0.8v-3H171z"/>
	<path class="st0" d="M173.8,165.5v-2.3h0.8v2.1c0,0.6,0.2,0.9,0.8,0.9c0.2,0,0.5-0.1,0.6-0.2c0.2-0.2,0.2-0.4,0.2-0.6v-2h0.9v3.7
		h-0.9v-0.6c-0.3,0.4-0.7,0.6-1.2,0.6c-0.4,0-0.7-0.1-1-0.3C173.9,166.3,173.8,166,173.8,165.5"/>
	<path class="st0" d="M178.6,165.8c0.4,0.3,0.8,0.5,1.2,0.5c0.4,0,0.6-0.1,0.6-0.4l0,0c0-0.1-0.1-0.2-0.2-0.3
		c-0.1-0.1-0.3-0.1-0.6-0.2c-0.3-0.1-0.6-0.2-0.8-0.3c-0.2-0.2-0.3-0.4-0.3-0.8l0,0c0-0.3,0.1-0.6,0.4-0.8c0.2-0.2,0.5-0.3,0.9-0.3
		c0.5,0,0.9,0.1,1.3,0.4l-0.3,0.6c-0.4-0.2-0.7-0.3-1-0.3c-0.3,0-0.5,0.1-0.5,0.3l0,0c0,0.1,0.1,0.2,0.2,0.3
		c0.1,0.1,0.3,0.1,0.6,0.2c0.8,0.2,1.2,0.6,1.2,1l0,0c0,0.3-0.1,0.6-0.4,0.9c-0.2,0.2-0.6,0.3-1,0.3c-0.6,0-1.1-0.2-1.6-0.5
		L178.6,165.8z"/>
	<path class="st0" d="M182.4,161.8h0.9v0.8h-0.9V161.8z M182.4,163.2h0.8v3.7h-0.8V163.2z"/>
	<path class="st0" d="M184.4,165L184.4,165c0-0.5,0.2-1,0.6-1.3c0.4-0.3,0.9-0.6,1.4-0.6c0.6,0,1,0.2,1.4,0.6
		c0.3,0.3,0.6,0.8,0.6,1.3l0,0c0,0.5-0.2,1-0.6,1.3c-0.4,0.3-0.9,0.6-1.4,0.6c-0.6,0-1-0.2-1.4-0.6C184.6,166,184.4,165.6,184.4,165
		 M187.5,165L187.5,165c0-0.3-0.1-0.6-0.3-0.9c-0.2-0.2-0.5-0.3-0.8-0.3c-0.3,0-0.6,0.1-0.8,0.3c-0.2,0.2-0.3,0.5-0.3,0.8l0,0
		c0,0.3,0.1,0.6,0.3,0.8c0.2,0.2,0.5,0.3,0.8,0.3s0.6-0.1,0.8-0.3C187.4,165.7,187.5,165.4,187.5,165"/>
	<path class="st0" d="M189.6,163.2h0.8v0.6c0.3-0.4,0.7-0.6,1.2-0.6c0.4,0,0.8,0.1,1,0.4c0.2,0.2,0.3,0.6,0.3,1v2.3h-0.8v-2.1
		c0-0.6-0.3-0.9-0.8-0.9c-0.2,0-0.5,0.1-0.6,0.2c-0.2,0.2-0.2,0.4-0.2,0.6v2.1h-0.8v-3.7H189.6z"/>
	<path class="st0" d="M227.6,122.5c-2,0.9-4.1,2-4.1,4.3c0,2.3,1.7,3.8,4.1,3.8c2.2,0,4.4-1.5,4.4-4.7v-5.5
		C229,121.9,228.3,122.2,227.6,122.5 M231.6,122.6c0,0.8-0.6,1.2-1.2,1.2c-0.6,0-1.1-0.4-1.1-1c0-0.6,0.6-0.9,1.1-1.2
		c0.2-0.1,0.3-0.2,1.2-0.6V122.6z"/>
	<path class="st0" d="M226.8,136.3c-5.7,0-10.1-3.4-10.1-9.1c0-2.6,1.7-4.9,4.9-6.8c3.1-1.9,7.9-3.6,9.7-4.6c2.2-1.2,2.4-2,2.4-3.4
		c0-2.7-3.3-5.2-6.6-5.2c-2.9,0-5.1,1.7-5.9,3.7h-3.8c1-3.8,4.9-6.6,9.7-6.6c5.6,0,10.2,3.9,10.2,8.6v13.3
		C237.4,132.8,232.4,136.3,226.8,136.3 M226.9,120.8c-3.1,1.5-6.5,3.1-6.5,6.6c0,3.6,2.7,5.9,6.4,5.9c3.5,0,7-2.5,7-7.3v-8.5
		C229.1,119.8,230.2,119.3,226.9,120.8"/>
	<path class="st0" d="M137.7,136.3c-5.7,0-10.1-3.4-10.1-9.1c0-2.6,1.7-4.9,5-6.8c3.1-1.9,7.9-3.6,9.7-4.6c2.2-1.2,2.4-2,2.4-3.4
		c0-2.7-3.3-5.2-6.6-5.2c-2.9,0-5.1,1.7-5.9,3.7h-3.8c1-3.8,4.9-6.6,9.7-6.6c5.6,0,10.2,3.9,10.2,8.6v13.3
		C148.3,132.8,143.3,136.3,137.7,136.3 M137.7,120.8c-3.1,1.5-6.5,3.1-6.5,6.6c0,3.6,2.7,5.9,6.4,5.9c3.5,0,7-2.5,7-7.3v-8.5
		C139.9,119.8,141.1,119.3,137.7,120.8"/>
	<path class="st0" d="M171.6,110.8L171.6,110.8c-0.1-0.1-0.1-0.2-0.1-0.3c-1.1-3.6-4.9-6.2-9.5-6.2h-0.3c-4.6,0-8.4,2.6-9.5,6.2
		c-0.1,0.1-0.1,0.2-0.1,0.3c-0.2,0.6-0.3,1.3-0.3,2v23.5h3.6v-18.7v-5.2c0-0.5,0.1-1,0.3-1.5c0.2-0.5,0.5-1,0.9-1.5
		c1-1.2,2.9-2.3,5.1-2.3h0.3c2.2,0,3.9,1,5.1,2.3c0.4,0.4,0.7,0.9,0.9,1.5c0.2,0.5,0.3,1,0.3,1.5v5.2v18.7h3.6v-23.5
		C171.8,112,171.7,111.4,171.6,110.8"/>
	<path class="st0" d="M260.7,110.8L260.7,110.8c-0.1-0.1-0.1-0.2-0.1-0.3c-1.1-3.6-4.9-6.2-9.5-6.2h-0.3c-4.6,0-8.4,2.6-9.5,6.2
		c-0.1,0.1-0.1,0.2-0.1,0.3c-0.2,0.6-0.3,1.3-0.3,2v23.5h3.6v-18.7v-5.2c0-0.5,0.1-1,0.3-1.5c0.2-0.5,0.5-1,0.9-1.5
		c1-1.2,2.9-2.3,5.1-2.3h0.3c2.2,0,3.9,1,5.1,2.3c0.4,0.4,0.7,0.9,0.9,1.5c0.2,0.5,0.3,1,0.3,1.5v5.2v18.7h3.6v-23.5
		C261,112,260.9,111.4,260.7,110.8"/>
	<path class="st0" d="M195.3,110.8L195.3,110.8c-0.1-0.1-0.1-0.2-0.1-0.3c-1.1-3.6-4.9-6.2-9.5-6.2h-0.3c-2.4,0-4.6,0.7-6.3,1.9V88
		h-3.6v24.7v23.5h3.6v-18.7v-5.2c0-0.5,0.1-1,0.3-1.5c0.2-0.5,0.5-1,0.9-1.5c1-1.2,2.9-2.3,5.1-2.3h0.3c2.2,0,3.9,1,5.1,2.3
		c0.4,0.4,0.7,0.9,0.9,1.5c0.2,0.5,0.3,1,0.3,1.5v5.2v18.7h3.6v-23.5C195.5,112,195.4,111.4,195.3,110.8"/>
	<path class="st0" d="M124.5,110.8L124.5,110.8c-0.1-0.1-0.1-0.2-0.1-0.3c-1.1-3.6-4.9-6.2-9.5-6.2h-0.3c-2.4,0-4.6,0.7-6.3,1.9V88
		h-3.6v24.7v23.5h3.6v-18.7v-5.2c0-0.5,0.1-1,0.3-1.5c0.2-0.5,0.5-1,0.9-1.5c1-1.2,2.9-2.3,5.1-2.3h0.3c2.2,0,3.9,1,5.1,2.3
		c0.4,0.4,0.7,0.9,0.9,1.5c0.2,0.5,0.3,1,0.3,1.5v5.2v18.7h3.6v-23.5C124.8,112,124.7,111.4,124.5,110.8"/>
	<path class="st0" d="M101.2,107.1v-2.9h-6.5V88h-3.8v39.8v0.1c0.1,4.6,4.8,8.4,10.2,8.4v-2.9c-3.4,0-6.4-2.7-6.4-5.5l-0.1-10.9
		v-9.8H101.2z"/>
	<path class="st0" d="M215.3,107.1v-2.9h-6.5V88h-3.8v39.8v0.1c0.1,4.6,4.8,8.4,10.2,8.4v-2.9c-3.4,0-6.4-2.7-6.4-5.5l-0.1-10.9
		v-9.8H215.3z"/>
</g>
</svg>
