<?xml version="1.0" encoding="utf-8"?>
<!-- Generator: Adobe Illustrator 21.1.0, SVG Export Plug-In . SVG Version: 6.00 Build 0)  -->
<svg version="1.1" id="Layer_1" xmlns="http://www.w3.org/2000/svg" xmlns:xlink="http://www.w3.org/1999/xlink" x="0px" y="0px"
	 viewBox="0 0 350 255.1" style="enable-background:new 0 0 350 255.1;" xml:space="preserve">
<style type="text/css">
	.st0{fill:#1F191A;}
</style>
<g>
	<path class="st0" d="M228.6,126.7L228.6,126.7L228.6,126.7c-1.1-0.8-15.8-7.3-34.2-10.3l6.9-9.6v-2.2l-8.2-4.8l-2.2,3.9
		c2.2,0.2,4.3,0.7,6.3,1.7c-0.9,3.8-2.4,7.5-4.5,10.9c-1-0.2-2-0.3-3-0.4c2.4-4,4-9.3,0.2-12.3c0.4,0.1,0.7,0.1,1,0.1l2.3-6.5
		l-0.7-1.8l-10.3-3l-2,7.9c2.2-1.2,4.7-1.8,7.3-2c1.7,5.2,2.1,13.8,0.8,16.7c-0.2,0.3-0.4,0.6-0.6,0.9c-0.9-0.1-1.7-0.2-2.6-0.2
		c0.3-0.3,0.4-0.6,0.5-0.9c1.1-4.9,0.6-13.3-5.5-14.4l-0.1,0.2l0.1-0.2l0,0l0,0l1.3-10.1l-1.2-1.9h-10.8l0.4,9.9l-1.1-4.5l-1.6-1.1
		l-10.1,2.8l3.8,11c3.6-0.6,7.3-0.9,9-0.3c3,1.1,5.7,7.2,6.5,9.1h-0.2c-1.3-1.8-5.1-7.2-6.8-7.4c-2.1-0.4-11.6,1-11.6,2
		c0,0.6,2,3.8,4.7,6.1c-1.3,0.1-2.6,0.3-3.9,0.4c-2.3-2.5-4.2-5.3-5.9-8.3c0,0,3.9-0.9,8.1-1.6l-2.7-5.2l-2.2-0.5l-8.2,5.2l8.4,10.6
		c-6,0.9-12,2.2-17.9,4c-15.1,5-16.5,6.5-17.1,6.8c-0.1,0.1-0.1,0.1-0.2,0.1c-0.2,0.2-0.3,0.4-0.3,0.4c0,0.1,0.2,0.1,0.6,0.1
		c0.4-0.1,0.8-0.2,1.1-0.4c17.4-8.4,36.9-10.8,49.6-10.8c12-0.1,23.7,1.5,31,3.9c-0.1,0.2-0.1,0.3-0.2,0.4
		c-10.1-2.2-20.3-3.3-30.5-3.2c-5.3,0-10.7,0.4-16,1.3c-19,3.3-21.2,5.1-22,5.4c-0.1,0.1-0.2,0.1-0.3,0.2c-0.2,0.2-0.3,0.3-0.3,0.4
		c0.1,0.1,0.3,0.2,0.8,0.1c0.9-0.2,1.8-0.4,2.8-0.7c0.3-0.1,0.5-0.1,0.8-0.2c1.5-0.4,3.6-0.9,6.5-1.5c6-1.3,12.2-2.1,18.4-2.6
		c0,0.2,0.1,0.3,0.1,0.4c-0.1,0-0.1,0-0.2,0c-8.8,0.9-9.2,1.3-9.7,1.5l-0.1,0.1c-0.3,0.2-0.4,0.3-0.3,0.4c0,0.1,0.4,0.3,1.1,0.2
		c0.2,0,0.4-0.1,0.5-0.1c0.1,0,0.2-0.1,0.3-0.1c0.1,0,0.1,0,0.2-0.1l0,0c0.2-0.1,0.3-0.1,0.4-0.2l0.1,0.1c1.4-0.2,4.4-0.7,7.5-0.9
		c3.9-0.3,7.5-0.5,11.1-0.5c4.8,0,8.4,0.2,11.3,0.4c0.1,0,0.2,0,0.3,0.1c1.1,0.1,2.1,0.2,3.2,0.3c3.3,0.3,4.8,0.5,5.7,0.6
		c0.3,0.1,0.6,0,0.9-0.1c0.3-0.1,0.5-0.2,0.5-0.2c0.1-0.5-2.2-1-3.7-1.3c-2-0.4-4.1-0.7-6.6-1c-2.9-0.4-6.1-0.7-9.2-0.8
		c0-0.2,0-0.3,0-0.4c19.1,0.9,27.9,3.4,32.1,4.5c1,0.3,2,0.5,3,0.7c0.2,0,0.4,0,0.7-0.1c0.4,0,0.5-0.1,0.6-0.2c0-0.1,0-0.2-0.1-0.3
		c-0.5-0.7-3.3-2.4-14.4-5.1c0.1-0.2,0.1-0.3,0.1-0.4c10.2,1.9,20.2,5.1,29.6,9.4c0.1,0,0.1,0.1,0.1,0.1c0.3,0.2,0.7,0.3,1.1,0.3
		c0.4,0.1,0.6,0,0.6-0.1C230,127.7,229.6,127.1,228.6,126.7 M174.9,93.5c4,3.8,8.4,11.1,8.6,14.3c0.2,2.2-2.8,5.5-4.6,7.3
		c-0.2,0-0.3,0-0.4,0c1.1-1.7,2.9-4.9,2.6-6.3c-1.4-4.8-5.8-12.1-11.7-10C170.9,96.6,172.8,94.8,174.9,93.5 M171.7,113.5
		c-1.2-0.4-4.5-1.4-5.2-1.1c-0.7,0.3-0.9,1.1-0.5,1.3c0.8,0.1,1.7,0,2.5-0.2c0,0-2.3,2.2-3.7,1.7c-1.4-0.5-1.3-2.9,0.6-3.8
		c2.4-0.8,5.2-0.4,7.3,1.1c0.8,0.7,1.3,1.6,1.6,2.6c-0.6,0-1.1,0-1.7,0.1C172.6,114.4,172.3,113.8,171.7,113.5 M177.5,115
		c0.1-1.9,0.3-6.1-0.8-7.1c-3.5-3.6-10.9-7.7-15.1-3.1c0.2-2.6,1-5,2.2-7.2c5.3,1.4,12.8,5.7,14.5,8.3c1.4,2.1,0,7.1-0.7,9.1H177.5
		L177.5,115z"/>
	<rect x="202.1" y="164.1" class="st0" width="46.5" height="0.4"/>
	<polygon class="st0" points="161.1,168 160.5,168 160.5,164.4 156.5,164.4 156.5,168 155.9,168 155.9,160.4 156.5,160.4 
		156.5,163.9 160.5,163.9 160.5,160.4 161.1,160.4 	"/>
	<path class="st0" d="M170.5,164.2c0,0.7,0,1.2-0.1,1.5c0,0.3-0.1,0.6-0.2,0.9c-0.1,0.3-0.3,0.5-0.5,0.7c-0.3,0.3-0.5,0.4-0.9,0.6
		c-0.7,0.3-1.4,0.3-2.1,0c-0.3-0.1-0.6-0.3-0.9-0.6c-0.2-0.2-0.4-0.4-0.5-0.7c-0.1-0.3-0.2-0.5-0.2-0.9c-0.1-0.3-0.1-0.8-0.1-1.5
		c0-0.7,0-1.2,0.1-1.5c0-0.3,0.1-0.6,0.2-0.9c0.1-0.3,0.3-0.5,0.5-0.7c0.3-0.3,0.5-0.4,0.9-0.6c0.7-0.3,1.4-0.3,2.1,0
		c0.3,0.1,0.6,0.3,0.9,0.6c0.2,0.2,0.4,0.4,0.5,0.7c0.1,0.3,0.2,0.5,0.2,0.9C170.5,163,170.5,163.5,170.5,164.2 M169.9,164.2
		c0-0.6,0-1.1-0.1-1.4c0-0.3-0.1-0.5-0.2-0.8c-0.1-0.2-0.2-0.4-0.4-0.6c-0.2-0.2-0.4-0.3-0.7-0.4c-0.3-0.1-0.5-0.2-0.8-0.2
		c-0.3,0-0.5,0.1-0.8,0.2c-0.3,0.1-0.5,0.3-0.7,0.4c-0.1,0.1-0.2,0.3-0.3,0.4s-0.2,0.4-0.2,0.5c-0.1,0.3-0.1,0.5-0.1,0.8
		c0,0.3,0,0.7,0,1c0,0.6,0,1.1,0.1,1.4c0,0.3,0.1,0.5,0.2,0.8c0.1,0.2,0.2,0.4,0.4,0.6c0.2,0.2,0.4,0.3,0.7,0.4
		c0.3,0.1,0.5,0.2,0.8,0.2c0.3,0,0.5-0.1,0.8-0.2c0.3-0.1,0.5-0.3,0.7-0.4c0.2-0.2,0.3-0.4,0.4-0.6c0.1-0.3,0.2-0.5,0.2-0.8
		C169.9,165.2,169.9,164.8,169.9,164.2"/>
	<polygon class="st0" points="179,160.9 176.7,160.9 176.7,168 176.1,168 176.1,160.9 173.8,160.9 173.8,160.4 179,160.4 	"/>
	<polygon class="st0" points="187.2,168 182.6,168 182.6,160.4 187.2,160.4 187.2,160.9 183.1,160.9 183.1,163.9 186.6,163.9 
		186.6,164.4 183.1,164.4 183.1,167.5 187.2,167.5 	"/>
	<polygon class="st0" points="195.7,168 191.1,168 191.1,160.4 191.7,160.4 191.7,167.5 195.7,167.5 	"/>
	<rect x="102.2" y="164.1" class="st0" width="46.8" height="0.4"/>
	<path class="st0" d="M140.3,148c0,2.8,0,4.1,0.4,4.6c0.3,0.3,1.1,0.5,2.7,0.5c1.1,0,1.8-0.1,2.3-0.6c0.3-0.4,0.4-0.8,0.5-1.3
		c0-0.2,0.1-0.3,0.2-0.3s0.2,0.2,0.2,0.5c-0.1,0.8-0.2,1.7-0.3,2.5c-0.1,0.5-0.2,0.6-1.3,0.6c-1.4,0-2.6,0-3.6-0.1
		c-1,0-1.8-0.1-2.7-0.1c-0.2,0-0.7,0-1.1,0s-1,0.1-1.4,0.1c-0.3,0-0.4-0.1-0.4-0.2c0-0.1,0.1-0.2,0.3-0.2c0.2,0,0.5,0,0.7-0.1
		c0.4-0.1,0.5-0.5,0.6-1.1c0.1-0.9,0.1-2.6,0.1-4.6v-3.8c0-3.3,0-3.9,0-4.6c-0.1-0.8-0.2-1-0.9-1.1c-0.2-0.1-0.4-0.1-0.7-0.1
		c-0.2,0-0.3-0.1-0.3-0.2s0.1-0.2,0.4-0.2c0.9,0,2.2,0.1,2.8,0.1c0.5,0,2.1-0.1,2.9-0.1c0.3,0,0.4,0.1,0.4,0.2
		c0,0.2-0.1,0.2-0.4,0.2c-0.3,0-0.5,0-0.8,0.1c-0.5,0.1-0.7,0.4-0.8,1.1c-0.1,0.7-0.1,1.3-0.1,4.6L140.3,148z"/>
	<path class="st0" d="M152.9,148.2c0,2.1,0,3.6,0.1,4.5c0.1,0.7,0.2,1,0.8,1.1c0.3,0.1,0.7,0.1,1,0.1c0.3,0,0.3,0.1,0.3,0.2
		c0,0.2-0.1,0.2-0.4,0.2c-1.3,0-2.7-0.1-3.2-0.1c-0.5,0-1.8,0.1-2.6,0.1c-0.3,0-0.4-0.1-0.4-0.2c0-0.1,0.1-0.2,0.3-0.2
		c0.2,0,0.5,0,0.7-0.1c0.4-0.1,0.5-0.5,0.6-1.1c0.1-0.9,0.1-2.5,0.1-4.6v-3.8c0-3.3,0-3.9,0-4.6c-0.1-0.8-0.2-1-0.9-1.2
		c-0.3-0.1-0.5-0.1-0.8-0.1c-0.2,0-0.3-0.1-0.3-0.2s0.2-0.2,0.5-0.2c1,0,2.3,0.1,2.9,0.1c0.8,0,5.2,0,5.7,0c0.3,0,0.5-0.1,0.8-0.1
		c0.1,0,0.2-0.1,0.3-0.1c0.1,0,0.2,0.1,0.2,0.2c0,0.2-0.1,0.4-0.2,1c0,0.2-0.1,1.5-0.1,1.7c0,0.2-0.1,0.4-0.2,0.4
		c-0.1,0-0.3-0.1-0.3-0.4c0-0.3,0-0.5-0.1-0.8c-0.3-0.4-0.8-0.7-1.3-0.7l-3.3-0.1c-0.1,0-0.2,0.1-0.2,0.3v5.2c0,0.1,0,0.2,0.2,0.2
		h2.8c0.3,0,0.6,0,0.9,0s0.7-0.1,0.8-0.4c0.1-0.1,0.2-0.2,0.3-0.2c0.1,0,0.1,0.1,0.1,0.2c0,0.1-0.1,0.7-0.2,1.4
		c-0.1,0.4-0.1,1.4-0.1,1.6s0,0.5-0.2,0.5c-0.1,0-0.2-0.2-0.2-0.3c0-0.2-0.1-0.4-0.1-0.7c-0.1-0.4-0.5-0.8-1-0.8
		c-0.5-0.1-2.9-0.1-3.2-0.1c-0.1,0-0.2,0.1-0.2,0.2L152.9,148.2z"/>
	<path class="st0" d="M168.9,136.4c-0.5-1.5-1-1.8-1.8-2.1c-0.3-0.1-0.7-0.1-0.9-0.1c-0.2,0-0.3-0.1-0.3-0.3c0-0.2,0.3-0.3,0.7-0.3
		c1.3,0,2.7,0.1,3.5,0.1c0.6,0,1.8-0.1,3-0.1c0.3,0,0.5,0.1,0.5,0.3c0,0.2-0.2,0.3-0.4,0.3c-0.3-0.1-0.7,0.1-1,0.2
		c-0.2,0.2-0.3,0.3-0.2,0.6c0.1,0.7,0.3,1.4,0.5,2.1l4.2,12.4h0.1c1-3,4.2-11.8,4.8-13.6c0.1-0.3,0.2-0.7,0.2-1
		c0-0.2-0.1-0.4-0.3-0.5c-0.3-0.1-0.7-0.2-1-0.2c-0.2,0-0.4-0.1-0.4-0.2c0-0.2,0.2-0.3,0.7-0.3c1.3,0,2.2,0.1,2.6,0.1
		c0.4,0,1.6-0.1,2.3-0.1c0.3,0,0.5,0.1,0.5,0.3c0,0.2-0.2,0.3-0.4,0.3c-0.4,0-0.9,0.1-1.2,0.3c-0.3,0.3-0.7,0.7-1.4,2.4
		c-1,2.6-1.6,4-2.9,7.4c-1.6,4-2.7,7-3.3,8.3c-0.7,1.6-0.8,2-1.1,2c-0.3,0-0.5-0.4-0.9-1.7L168.9,136.4z"/>
	<path class="st0" d="M187.8,148.9c-0.1,0-0.2,0-0.2,0.2l-1.1,2.9c-0.2,0.4-0.3,0.9-0.3,1.3c0,0.4,0.2,0.6,0.8,0.6h0.3
		c0.3,0,0.3,0.1,0.3,0.2c0,0.2-0.1,0.2-0.3,0.2c-0.7,0-1.6-0.1-2.2-0.1c-0.2,0-1.3,0.1-2.3,0.1c-0.3,0-0.4-0.1-0.4-0.2
		c0-0.1,0.1-0.2,0.2-0.2h0.1c0.2,0,0.4,0,0.6,0c0.9-0.2,1.3-0.8,1.7-1.9l5.3-13.6c0.2-0.6,0.4-0.9,0.6-0.9c0.3,0,0.4,0.2,0.6,0.7
		c0.5,1.2,3.8,10.1,5.1,13.3c0.8,2,1.4,2.2,1.7,2.3c0.3,0.1,0.5,0.1,0.8,0.1c0.2,0,0.3,0.1,0.3,0.2s-0.1,0.2-0.9,0.2
		c-0.7,0-2.2,0-3.9-0.1c-0.4,0-0.6,0-0.6-0.2c0-0.1,0.1-0.2,0.3-0.2c0.2-0.1,0.3-0.3,0.2-0.4c0,0,0,0,0-0.1l-1.6-4.3
		c0-0.1-0.1-0.2-0.2-0.2H187.8z M192.1,147.7c0.1,0,0.1-0.1,0.1-0.1l-1.9-5.5c0-0.1-0.1-0.2-0.1-0.2s-0.1,0.2-0.1,0.2l-2,5.5
		c-0.1,0.1,0,0.2,0.1,0.2L192.1,147.7L192.1,147.7z"/>
	<path class="st0" d="M205.3,148c0,2.8,0,4.1,0.4,4.6c0.3,0.3,1.1,0.5,2.7,0.5c1.1,0,1.8-0.1,2.3-0.6c0.3-0.4,0.4-0.8,0.5-1.3
		c0-0.2,0.1-0.3,0.2-0.3s0.2,0.2,0.2,0.5c-0.1,0.8-0.2,1.7-0.3,2.5c-0.1,0.5-0.2,0.6-1.3,0.6c-1.4,0-2.6,0-3.6-0.1
		c-1,0-1.8-0.1-2.7-0.1c-0.2,0-0.7,0-1.1,0s-1,0.1-1.4,0.1c-0.3,0-0.4-0.1-0.4-0.2c0-0.1,0.1-0.2,0.3-0.2c0.2,0,0.5,0,0.7-0.1
		c0.4-0.1,0.5-0.5,0.6-1.1c0.1-0.9,0.1-2.6,0.1-4.6v-3.8c0-3.3,0-3.9,0-4.6c-0.1-0.8-0.2-1-0.9-1.1c-0.2-0.1-0.4-0.1-0.7-0.1
		c-0.2,0-0.3-0.1-0.3-0.2s0.2-0.2,0.4-0.2c0.9,0,2.2,0.1,2.8,0.1c0.5,0,2.1-0.1,2.9-0.1c0.3,0,0.4,0.1,0.4,0.2
		c0,0.2-0.1,0.2-0.4,0.2s-0.5,0-0.8,0.1c-0.5,0.1-0.7,0.4-0.8,1.1c-0.1,0.7-0.1,1.3-0.1,4.6L205.3,148L205.3,148z"/>
	<path class="st0" d="M219.2,148c0,2.8,0,4.1,0.4,4.6c0.3,0.3,1.1,0.5,2.7,0.5c1.1,0,1.8-0.1,2.3-0.6c0.3-0.4,0.4-0.8,0.5-1.3
		c0-0.2,0.1-0.3,0.2-0.3c0.1,0,0.2,0.2,0.2,0.5c-0.1,0.8-0.2,1.7-0.3,2.5c-0.1,0.5-0.2,0.6-1.3,0.6c-1.4,0-2.6,0-3.6-0.1
		c-1,0-1.8-0.1-2.7-0.1c-0.2,0-0.7,0-1.1,0c-0.5,0-1,0.1-1.4,0.1c-0.3,0-0.4-0.1-0.4-0.2c0-0.1,0.1-0.2,0.3-0.2c0.2,0,0.5,0,0.7-0.1
		c0.4-0.1,0.5-0.5,0.6-1.1c0.1-0.9,0.1-2.6,0.1-4.6v-3.8c0-3.3,0-3.9,0-4.6c-0.1-0.8-0.2-1-0.9-1.1c-0.2-0.1-0.4-0.1-0.7-0.1
		c-0.2,0-0.3-0.1-0.3-0.2s0.1-0.2,0.4-0.2c0.9,0,2.2,0.1,2.8,0.1c0.5,0,2.1-0.1,2.9-0.1c0.3,0,0.4,0.1,0.4,0.2
		c0,0.2-0.1,0.2-0.4,0.2c-0.3,0-0.5,0-0.8,0.1c-0.5,0.1-0.7,0.4-0.8,1.1c-0.1,0.7-0.1,1.3-0.1,4.6L219.2,148L219.2,148z"/>
	<path class="st0" d="M229.1,144.2c0-3.3,0-3.9,0-4.6c-0.1-0.8-0.2-1-0.9-1.2c-0.3-0.1-0.5-0.1-0.8-0.1c-0.2,0-0.3-0.1-0.3-0.2
		s0.2-0.2,0.4-0.2c1,0,2.3,0.1,2.9,0.1c0.7,0,5.1,0,5.5,0c0.3,0,0.5-0.1,0.8-0.1c0.1-0.1,0.2-0.1,0.3-0.1c0.1,0,0.2,0.1,0.2,0.2
		c-0.1,0.5-0.2,0.9-0.2,1.4c0,0.2-0.1,1.1-0.1,1.4c0,0.1-0.1,0.4-0.2,0.4c-0.1,0-0.2-0.1-0.2-0.3c0-0.3-0.1-0.5-0.2-0.8
		c-0.2-0.4-0.3-0.7-1.3-0.8c-0.3-0.1-2.7-0.1-3.2-0.1c-0.1,0-0.2,0.1-0.2,0.2v5.3c0,0.1,0,0.2,0.2,0.2c0.4,0,3,0,3.5-0.1
		c0.5-0.1,0.8-0.1,1-0.3c0.2-0.2,0.2-0.3,0.3-0.3s0.2,0.1,0.2,0.2c0,0.1-0.1,0.5-0.2,1.6c-0.1,0.4-0.1,1.3-0.1,1.5s0,0.5-0.2,0.5
		c-0.1,0-0.2-0.1-0.2-0.1v-0.1c0-0.3-0.1-0.5-0.1-0.8c-0.1-0.4-0.4-0.8-1.1-0.9c-0.4-0.1-2.7-0.1-3.2-0.1c-0.1,0-0.1,0.1-0.1,0.2
		v1.7c0,0.7,0,2.6,0,3.2c0.1,1.5,0.7,1.8,2.7,1.8c0.7,0.1,1.3-0.1,1.9-0.3c0.5-0.3,0.7-0.7,0.9-1.6c0.1-0.2,0.1-0.3,0.2-0.3
		c0.2,0,0.2,0.3,0.2,0.5c-0.1,0.8-0.1,1.6-0.3,2.4c-0.1,0.5-0.3,0.5-1.1,0.5c-1.5,0-2.7,0-3.7-0.1c-1,0-1.7-0.1-2.3-0.1
		c-0.2,0-0.7,0-1.1,0s-1,0.1-1.4,0.1c-0.3,0-0.4-0.1-0.4-0.2c0-0.1,0.1-0.2,0.3-0.2c0.2,0,0.5,0,0.7-0.1c0.4-0.1,0.5-0.5,0.6-1.1
		c0.1-0.9,0.1-2.6,0.1-4.6V144.2z"/>
	<path class="st0" d="M246,148.7c0.1-0.8-0.1-1.6-0.4-2.3c-0.2-0.3-2.9-5.1-3.6-6.3c-0.3-0.6-0.8-1.1-1.3-1.5
		c-0.3-0.2-0.5-0.3-0.9-0.3c-0.2,0-0.3-0.1-0.3-0.2c0-0.2,0.1-0.2,0.4-0.2c0.3,0,1.8,0.1,2.5,0.1c0.4,0,1.4-0.1,2.3-0.1
		c0.2,0,0.3,0.1,0.3,0.2s-0.2,0.2-0.4,0.3c-0.2,0.1-0.3,0.2-0.3,0.3c0.1,0.3,0.1,0.5,0.3,0.7c0.4,0.7,3,5.7,3.3,6.4
		c0.3-0.5,2.7-5.2,3-5.8c0.2-0.4,0.3-0.8,0.3-1.1c0-0.3-0.2-0.5-0.4-0.5c-0.2-0.1-0.4-0.1-0.4-0.3c0-0.2,0.1-0.2,0.3-0.2
		c0.7,0,1.4,0.1,2,0.1c0.4,0,1.7-0.1,2.1-0.1c0.2,0,0.4,0.1,0.4,0.2c0,0.2-0.2,0.3-0.4,0.3c-0.3,0-0.6,0.1-0.9,0.3
		c-0.4,0.2-0.8,0.6-1,1c-1.4,2.2-2.7,4.6-3.9,6.9c-0.2,0.7-0.3,1.4-0.3,2.2v1.7c0,0.4,0,1.3,0.1,2.2c0.1,0.7,0.2,1,0.8,1.1
		c0.3,0.1,0.7,0.1,1,0.1c0.2,0,0.3,0.1,0.3,0.2c0,0.2-0.2,0.2-0.4,0.2c-1.3,0-2.6-0.1-3.2-0.1c-0.5,0-1.8,0.1-2.6,0.1
		c-0.3,0-0.4-0.1-0.4-0.2c0-0.1,0.1-0.2,0.3-0.2s0.5,0,0.7-0.1c0.4-0.1,0.5-0.5,0.6-1.1c0.1-0.9,0.1-1.8,0.1-2.2L246,148.7z"/>
	<path class="st0" d="M110.2,149.5v2.6c0.1,0.4-0.1,0.8-0.4,1c-0.7,0.3-1.4,0.3-2.1,0.3c-5.2,0-8.5-4.4-8.5-10.2
		c0-3.4,0.9-5.4,2.2-6.7c1.3-1.2,3-1.8,4.8-1.7c2-0.1,4,0.7,5.4,2.1c0.5,0.7,0.8,1.4,0.8,2.3c0.1,0.2,0.1,0.3,0.3,0.3
		c0.2,0,0.3-0.1,0.3-0.5c0-1.5,0.1-3,0.2-4.5c0-0.2-0.1-0.3-0.3-0.3c-0.7-0.1-1.3-0.2-1.9-0.3c-1.4-0.3-2.9-0.4-4.3-0.4
		c-2.3-0.1-4.6,0.5-6.6,1.8c-2.8,2.1-4.4,5.4-4.2,8.9c0,7.5,5.3,10.7,11.3,10.7c2,0.1,4.1-0.3,5.9-1.3c0.3-0.2,0.3-0.3,0.3-1v-3
		c0-1.3,0-2.3,0-3.1c-1,0.3-2.1,0.5-3.1,0.5V149.5z"/>
	<path class="st0" d="M128.8,138.2c-1-0.3-2.1-0.5-3.2-0.5c-0.1,0-0.2,0-0.2,0c-3,0-6,0.9-8.5,2.7c-5.9,3.9-7.7,4.8-13,2.8
		c0,0,5.6,4,10.8,0.9c1.5-0.9,1.7-1.1,3.3-2.1c0.8-0.5,1.6-1.1,2.4-1.6c0.8-0.5,1.6-1,2.4-1.3c1.6-0.6,3.4-0.4,4.8,0.5
		c1.3,0.9,2.2,2.2,2.7,3.8c0.3,1,0.4,2.2,0.4,3.3c0,6.1-3.2,6.8-4.6,6.8c-3.8,0-6-3.5-6-7.9c-0.1-1.3,0.2-2.4,0.6-3.6l-0.9,0.5
		c-0.4,0.2-0.7,0.5-1.1,0.7l-0.6,0.4c-0.3,0.2-0.5,0.3-0.7,0.5c-0.2,0.7-0.3,1.5-0.3,2.2c0,3.9,2.3,8.4,8.2,8.4
		c5.2,0,8.4-3.9,8.4-8.9C133.8,142,131.9,139.3,128.8,138.2"/>
</g>
</svg>
