<?xml version="1.0" encoding="utf-8"?>
<!-- Generator: Adobe Illustrator 21.1.0, SVG Export Plug-In . SVG Version: 6.00 Build 0)  -->
<svg version="1.1" id="Layer_1" xmlns="http://www.w3.org/2000/svg" xmlns:xlink="http://www.w3.org/1999/xlink" x="0px" y="0px"
	 viewBox="0 0 350 255.1" style="enable-background:new 0 0 350 255.1;" xml:space="preserve">
<style type="text/css">
	.st0{fill:#1F191A;}
</style>
<g>
	<polygon class="st0" points="82.2,154.5 82.2,111.4 106.2,111.4 106.2,117.4 89.2,117.4 89.2,128.2 106.2,128.2 106.2,134.3 
		89.2,134.3 89.2,148.2 106.2,148.2 106.2,154.5 	"/>
	<path class="st0" d="M185.3,111.4h6.9v26.1c0,3.9,0.9,6.8,2.7,8.7c1.8,2,4.5,2.9,8,2.9c3.5,0,6.2-1,8-2.9c1.8-1.9,2.7-4.9,2.7-8.7
		v-26.1h7v26.8c0,5.8-1.5,10.2-4.4,13.1c-2.9,2.9-7.4,4.3-13.3,4.3c-5.9,0-10.3-1.4-13.3-4.3c-2.9-2.9-4.4-7.2-4.4-13.1L185.3,111.4
		z"/>
	<polygon class="st0" points="241.7,154.5 241.7,111.4 265.8,111.4 265.8,117.4 248.7,117.4 248.7,128.2 265.8,128.2 265.8,134.3 
		248.7,134.3 248.7,148.2 265.8,148.2 265.8,154.5 	"/>
	<polygon class="st0" points="82.2,174.5 82.3,165.2 83.8,165.2 83.8,168.7 88.3,168.7 88.4,165.2 89.9,165.3 89.8,174.6 
		88.3,174.6 88.3,170 83.8,170 83.7,174.5 	"/>
	<path class="st0" d="M106.5,170c0,0.7-0.1,1.3-0.4,1.9s-0.6,1.1-1.1,1.6c-0.5,0.5-1,0.8-1.6,1.1c-0.6,0.2-1.2,0.4-1.9,0.4
		c-0.7,0-1.3-0.1-1.9-0.4c-0.6-0.3-1.1-0.6-1.6-1.1c-0.5-0.5-0.8-1-1.1-1.6c-0.2-0.6-0.4-1.2-0.4-1.9c0-0.7,0.1-1.3,0.4-1.9
		c0.3-0.6,0.6-1.1,1.1-1.6c0.5-0.5,1-0.8,1.6-1c0.6-0.2,1.2-0.4,1.9-0.4c0.7,0,1.3,0.1,1.9,0.4c0.6,0.2,1.1,0.6,1.6,1.1
		c0.5,0.5,0.8,1,1.1,1.6C106.4,168.7,106.5,169.3,106.5,170 M104.9,170c0-0.5-0.1-0.9-0.3-1.3c-0.2-0.4-0.4-0.8-0.7-1.1
		c-0.3-0.3-0.7-0.6-1.1-0.8c-0.4-0.2-0.8-0.3-1.3-0.3c-0.5,0-0.9,0.1-1.3,0.3c-0.4,0.2-0.8,0.4-1.1,0.8c-0.3,0.3-0.6,0.7-0.7,1.1
		c-0.2,0.4-0.3,0.9-0.3,1.3c0,0.5,0.1,0.9,0.3,1.3c0.2,0.4,0.4,0.8,0.7,1.1c0.3,0.3,0.7,0.6,1.1,0.8c0.4,0.2,0.8,0.3,1.3,0.3
		c0.5,0,0.9-0.1,1.3-0.3c0.4-0.2,0.8-0.4,1.1-0.8c0.3-0.3,0.6-0.7,0.7-1.1C104.8,170.9,104.9,170.5,104.9,170"/>
	<polygon class="st0" points="116.2,166.7 116.2,174.7 114.6,174.7 114.7,166.6 112.2,166.6 112.2,165.3 118.7,165.4 118.7,166.7 	
		"/>
	<polygon class="st0" points="124.7,174.7 124.8,165.4 130,165.4 130,166.7 126.3,166.7 126.3,169 129.9,169.1 129.9,170.4 
		126.3,170.4 126.2,173.4 129.9,173.4 129.9,174.7 	"/>
	<polygon class="st0" points="136.6,174.8 136.6,165.5 138.2,165.5 138.1,173.4 141.5,173.4 141.5,174.8 	"/>
	<path class="st0" d="M154.7,174.8l0-9.7l5.9,5.7c0.2,0.2,0.3,0.3,0.5,0.5c0.2,0.2,0.3,0.4,0.5,0.6l0-6.5l1.4,0l0,9.7l-6-5.8
		c-0.2-0.2-0.3-0.3-0.5-0.5c-0.2-0.2-0.3-0.4-0.4-0.5l0,6.5L154.7,174.8z"/>
	<polygon class="st0" points="170.1,174.9 170.2,165.6 171.7,165.6 171.7,169 176.3,169.1 176.3,165.6 177.8,165.6 177.8,174.9 
		176.2,174.9 176.3,170.4 171.7,170.4 171.7,174.9 	"/>
	<path class="st0" d="M191,175l-1-2.4l-3.7,0l-1.1,2.4l-1.6,0l4.6-9.7l4.5,9.7L191,175z M186.8,171.3l2.6,0l-0.9-2.1
		c-0.1-0.1-0.1-0.3-0.2-0.5c-0.1-0.2-0.1-0.4-0.2-0.6c-0.1,0.2-0.1,0.4-0.2,0.6c-0.1,0.2-0.1,0.3-0.2,0.5L186.8,171.3z"/>
	<polygon class="st0" points="207.1,167 207.1,175 205.6,175 205.6,167 203.1,167 203.1,165.7 209.6,165.7 209.6,167 	"/>
	<path class="st0" d="M217.1,170.9l0,4.2l-1.4,0l0-9.3l2.1,0c0.6,0,1.1,0,1.4,0.1c0.3,0.1,0.6,0.2,0.9,0.4c0.3,0.2,0.5,0.5,0.7,0.9
		c0.2,0.4,0.2,0.7,0.2,1.2c0,0.7-0.2,1.3-0.6,1.7c-0.4,0.4-0.9,0.7-1.6,0.8l3.2,4.3l-1.7,0l-3.1-4.2H217.1z M217.2,169.7h0.3
		c0.8,0,1.3-0.1,1.6-0.3c0.3-0.2,0.4-0.5,0.4-1c0-0.5-0.1-0.9-0.4-1.1c-0.3-0.2-0.8-0.3-1.6-0.3h-0.3L217.2,169.7z"/>
	<path class="st0" d="M234,175.2l-1-2.4l-3.7,0l-1.1,2.4l-1.6,0l4.6-9.7l4.5,9.7L234,175.2z M229.9,171.5l2.6,0l-0.9-2.1
		c-0.1-0.1-0.1-0.3-0.2-0.5c-0.1-0.2-0.1-0.4-0.2-0.6c-0.1,0.2-0.1,0.4-0.2,0.6c-0.1,0.2-0.1,0.3-0.2,0.5L229.9,171.5z"/>
	<path class="st0" d="M241.5,175.2l0-9.7l5.9,5.7c0.2,0.2,0.3,0.3,0.5,0.5c0.2,0.2,0.3,0.4,0.5,0.6l0-6.5l1.4,0l0,9.7l-6-5.8
		c-0.2-0.2-0.3-0.3-0.5-0.5c-0.2-0.2-0.3-0.4-0.4-0.6l0,6.5L241.5,175.2z"/>
	<path class="st0" d="M262.1,170.5l3.7,0c0,0.1,0,0.2,0,0.3c0,0.3,0,0.5,0,0.6c0,1.3-0.4,2.3-1.1,3.1c-0.8,0.7-1.8,1.1-3.2,1.1
		c-0.8,0-1.4-0.1-2-0.3c-0.6-0.2-1.1-0.6-1.6-1c-0.4-0.4-0.8-1-1-1.6c-0.2-0.6-0.3-1.3-0.3-1.9c0-0.7,0.1-1.4,0.4-1.9
		c0.2-0.6,0.6-1.1,1.1-1.6c0.5-0.4,1-0.8,1.6-1c0.6-0.2,1.3-0.3,2-0.3c0.7,0,1.4,0.1,2,0.4c0.6,0.3,1.1,0.7,1.5,1.2l-1.1,0.8
		c-0.3-0.4-0.7-0.6-1.1-0.8c-0.4-0.2-0.8-0.3-1.3-0.3c-1,0-1.8,0.3-2.5,1c-0.6,0.6-1,1.5-1,2.5c0,1.1,0.3,1.9,0.9,2.6
		c0.6,0.7,1.5,1,2.5,1c0.9,0,1.5-0.2,2-0.6c0.5-0.4,0.7-1,0.8-1.6l0-0.1l-2.2,0L262.1,170.5z"/>
	<polygon class="st0" points="157.7,111.4 157.7,140.6 125.7,109.7 125.7,154.5 132.1,154.5 132.1,125.4 164.2,156.2 164.2,111.4 	
		"/>
	<polygon class="st0" points="59.2,111.4 47.3,139.7 35.3,111.4 28,111.4 47.2,156.2 66.4,111.4 	"/>
	<path class="st0" d="M322,130.6c-12.3-14.3-28.1-23.2-28.1-23.2c-5.6,28.9-17.7,47-17.7,47c0.5-0.2,0.9-0.3,1.4-0.5
		C283.1,151.9,304.7,144.6,322,130.6"/>
	<path class="st0" d="M276.3,154.5c1.1,2.2,7.1,13.3,19.5,21.1c19.9-12.8,24.6-31.6,25.7-38.6C299.6,150.8,276.3,154.5,276.3,154.5"
		/>
	<path class="st0" d="M296.1,80.4c-0.1,10.3-0.9,19.3-2.2,27.1c0,0,11.8,2.3,27.9,16C319.1,96.6,296.1,80.4,296.1,80.4"/>
</g>
</svg>
