<?xml version="1.0" encoding="utf-8"?>
<!-- Generator: Adobe Illustrator 21.1.0, SVG Export Plug-In . SVG Version: 6.00 Build 0)  -->
<svg version="1.1" id="Layer_1" xmlns="http://www.w3.org/2000/svg" xmlns:xlink="http://www.w3.org/1999/xlink" x="0px" y="0px"
	 viewBox="0 0 350 255.1" style="enable-background:new 0 0 350 255.1;" xml:space="preserve">
<style type="text/css">
	.st0{fill:#1F191A;}
</style>
<g>
	<polygon class="st0" points="136.4,139 136.4,121.1 146.4,121.1 146.4,123.6 139.3,123.6 139.3,128.1 146.4,128.1 146.4,130.6 
		139.3,130.6 139.3,136.4 146.4,136.4 146.4,139 	"/>
	<path class="st0" d="M179.3,121.1h2.9v10.8c0,1.6,0.4,2.8,1.1,3.6c0.7,0.8,1.9,1.2,3.3,1.2s2.6-0.4,3.3-1.2c0.7-0.8,1.1-2,1.1-3.6
		v-10.8h2.9v11.1c0,2.4-0.6,4.2-1.8,5.4s-3.1,1.8-5.5,1.8c-2.5,0-4.3-0.6-5.5-1.8c-1.2-1.2-1.8-3-1.8-5.4L179.3,121.1z"/>
	<polygon class="st0" points="202.7,139 202.7,121.1 212.7,121.1 212.7,123.6 205.6,123.6 205.6,128.1 212.7,128.1 212.7,130.6 
		205.6,130.6 205.6,136.4 212.7,136.4 212.7,139 	"/>
	<polygon class="st0" points="136.4,147.3 136.5,143.5 137.1,143.5 137.1,144.9 139,144.9 139,143.5 139.6,143.5 139.6,147.4 
		139,147.4 139,145.5 137.1,145.5 137,147.3 	"/>
	<path class="st0" d="M146.5,145.5c0,0.3,0,0.5-0.2,0.8c-0.1,0.2-0.2,0.5-0.5,0.7c-0.2,0.2-0.4,0.3-0.7,0.5
		c-0.2,0.1-0.5,0.2-0.8,0.2c-0.3,0-0.5,0-0.8-0.2s-0.5-0.2-0.7-0.5c-0.2-0.2-0.3-0.4-0.5-0.7c-0.1-0.2-0.2-0.5-0.2-0.8
		s0-0.5,0.2-0.8s0.2-0.5,0.5-0.7c0.2-0.2,0.4-0.3,0.7-0.4c0.2-0.1,0.5-0.2,0.8-0.2c0.3,0,0.5,0,0.8,0.2c0.2,0.1,0.5,0.2,0.7,0.5
		c0.2,0.2,0.3,0.4,0.5,0.7C146.5,144.9,146.5,145.2,146.5,145.5 M145.9,145.5c0-0.2,0-0.4-0.1-0.5c-0.1-0.2-0.2-0.3-0.3-0.5
		s-0.3-0.2-0.5-0.3c-0.2-0.1-0.3-0.1-0.5-0.1c-0.2,0-0.4,0-0.5,0.1c-0.2,0.1-0.3,0.2-0.5,0.3c-0.1,0.1-0.2,0.3-0.3,0.5
		c-0.1,0.2-0.1,0.4-0.1,0.5c0,0.2,0,0.4,0.1,0.5c0.1,0.2,0.2,0.3,0.3,0.5s0.3,0.2,0.5,0.3c0.2,0.1,0.3,0.1,0.5,0.1
		c0.2,0,0.4,0,0.5-0.1c0.2-0.1,0.3-0.2,0.5-0.3c0.1-0.1,0.2-0.3,0.3-0.5C145.8,145.8,145.9,145.7,145.9,145.5"/>
	<polygon class="st0" points="150.6,144.1 150.6,147.4 149.9,147.4 149.9,144 148.9,144 148.9,143.5 151.6,143.5 151.6,144.1 	"/>
	<polygon class="st0" points="154.1,147.4 154.1,143.5 156.3,143.5 156.3,144.1 154.8,144.1 154.8,145 156.3,145.1 156.3,145.6 
		154.8,145.6 154.7,146.9 156.3,146.9 156.3,147.4 	"/>
	<polygon class="st0" points="159,147.5 159,143.6 159.7,143.6 159.7,146.9 161.1,146.9 161.1,147.5 	"/>
	<path class="st0" d="M166.6,147.5v-4l2.5,2.4c0.1,0.1,0.1,0.1,0.2,0.2c0.1,0.1,0.1,0.2,0.2,0.2v-2.7h0.6v4l-2.5-2.4
		c-0.1-0.1-0.1-0.1-0.2-0.2c-0.1-0.1-0.1-0.2-0.2-0.2v2.7H166.6z"/>
	<polygon class="st0" points="173,147.5 173,143.6 173.6,143.6 173.6,145 175.5,145.1 175.5,143.6 176.2,143.6 176.2,147.5 
		175.5,147.5 175.5,145.6 173.6,145.6 173.6,147.5 	"/>
	<path class="st0" d="M181.7,147.5l-0.4-1h-1.5l-0.5,1h-0.7l1.9-4l1.9,4H181.7z M179.9,146h1.1l-0.4-0.9c0,0,0-0.1-0.1-0.2
		c0-0.1,0-0.2-0.1-0.2c0,0.1,0,0.2-0.1,0.2c0,0.1,0,0.1-0.1,0.2L179.9,146z"/>
	<polygon class="st0" points="188.3,144.2 188.3,147.5 187.7,147.5 187.7,144.2 186.7,144.2 186.7,143.7 189.4,143.7 189.4,144.2 	
		"/>
	<path class="st0" d="M192.5,145.8v1.7h-0.6v-3.9h0.9c0.2,0,0.5,0,0.6,0c0.1,0,0.2,0.1,0.4,0.2c0.1,0.1,0.2,0.2,0.3,0.4
		c0.1,0.2,0.1,0.3,0.1,0.5c0,0.3-0.1,0.5-0.2,0.7c-0.2,0.2-0.4,0.3-0.7,0.3l1.3,1.8h-0.7L192.5,145.8L192.5,145.8L192.5,145.8z
		 M192.5,145.3h0.1c0.3,0,0.5,0,0.7-0.1s0.2-0.2,0.2-0.4c0-0.2,0-0.4-0.2-0.5s-0.3-0.1-0.7-0.1h-0.1V145.3z"/>
	<path class="st0" d="M199.5,147.6l-0.4-1h-1.5l-0.5,1h-0.7l1.9-4l1.9,4H199.5z M197.8,146.1h1.1l-0.4-0.9c0,0,0-0.1-0.1-0.2
		c0-0.1,0-0.2-0.1-0.2c0,0.1,0,0.2-0.1,0.2s0,0.1-0.1,0.2L197.8,146.1z"/>
	<path class="st0" d="M202.6,147.6v-4l2.5,2.4c0.1,0.1,0.1,0.1,0.2,0.2c0.1,0.1,0.1,0.2,0.2,0.2v-2.7h0.6v4l-2.5-2.4
		c-0.1-0.1-0.1-0.1-0.2-0.2c-0.1-0.1-0.1-0.2-0.2-0.2v2.7L202.6,147.6z"/>
	<path class="st0" d="M211.2,145.7h1.5c0,0,0,0.1,0,0.1c0,0.1,0,0.2,0,0.2c0,0.5-0.2,1-0.5,1.3c-0.3,0.3-0.7,0.5-1.3,0.5
		c-0.3,0-0.6,0-0.8-0.1c-0.2-0.1-0.5-0.2-0.7-0.4c-0.2-0.2-0.3-0.4-0.4-0.7s-0.1-0.5-0.1-0.8c0-0.3,0-0.6,0.2-0.8
		c0.1-0.2,0.2-0.5,0.5-0.7c0.2-0.2,0.4-0.3,0.7-0.4s0.5-0.1,0.8-0.1s0.6,0,0.8,0.2s0.5,0.3,0.6,0.5l-0.5,0.3
		c-0.1-0.2-0.3-0.2-0.5-0.3c-0.2-0.1-0.3-0.1-0.5-0.1c-0.4,0-0.7,0.1-1,0.4c-0.2,0.2-0.4,0.6-0.4,1c0,0.5,0.1,0.8,0.4,1.1
		c0.2,0.3,0.6,0.4,1,0.4c0.4,0,0.6-0.1,0.8-0.2c0.2-0.2,0.3-0.4,0.3-0.7v0h-0.9L211.2,145.7z"/>
	<polygon class="st0" points="167.8,121.1 167.8,133.2 154.5,120.4 154.5,139 157.2,139 157.2,126.9 170.5,139.7 170.5,121.1 	"/>
	<polygon class="st0" points="126.9,121.1 121.9,132.9 116.9,121.1 113.9,121.1 121.9,139.7 129.9,121.1 	"/>
	<path class="st0" d="M236.1,129.1c-5.1-5.9-11.7-9.6-11.7-9.6c-2.3,12-7.4,19.5-7.4,19.5c0.2-0.1,0.4-0.1,0.6-0.2
		C219.9,137.9,228.9,134.9,236.1,129.1"/>
	<path class="st0" d="M217.1,139c0.5,0.9,3,5.5,8.1,8.8c8.3-5.3,10.2-13.1,10.7-16C226.8,137.5,217.1,139,217.1,139"/>
	<path class="st0" d="M225.3,108.2c0,4.3-0.4,8-0.9,11.3c0,0,4.9,1,11.6,6.7C234.9,114.9,225.3,108.2,225.3,108.2"/>
</g>
</svg>
