<?xml version="1.0" encoding="utf-8"?>
<!-- Generator: Adobe Illustrator 21.1.0, SVG Export Plug-In . SVG Version: 6.00 Build 0)  -->
<svg version="1.1" id="Layer_1" xmlns="http://www.w3.org/2000/svg" xmlns:xlink="http://www.w3.org/1999/xlink" x="0px" y="0px"
	 viewBox="0 0 350 255.1" style="enable-background:new 0 0 350 255.1;" xml:space="preserve">
<style type="text/css">
	.st0{fill:#1F191A;}
</style>
<path class="st0" d="M145.9,89.8c9.8-4.4,21-4.2,30.6,0.6c3.9,2,7.3,4.5,10.2,7.7l-2.3,3.5c-4.4-2.7-9.3-4.6-14.6-5.3
	c-7.1-1-14.1,0.1-20.5,2.9C147.9,96.2,146.7,93.1,145.9,89.8"/>
<path class="st0" d="M140.5,107.3c8-7.3,18.5-10.6,29.3-9.1c10.6,1.5,19.8,7.6,25.4,16.8c-7.9,7.3-18.4,10.6-29.1,9.1
	C155.4,122.6,146.1,116.5,140.5,107.3"/>
<path class="st0" d="M165.2,131.7c-2.2,0-4.4-0.2-6.5-0.6c3.3-1.3,6.4-3,9.3-5.1c1.1,0.1,2,0.1,3.1,0.1c7.4,0,14.6-2.3,20.7-6.3
	C185.1,127.2,175.5,131.7,165.2,131.7"/>
<path class="st0" d="M206.1,94.1c-0.1,0.1-0.3,0.2-0.5,0.4l-0.5,0.4c-0.1,0.1-0.3,0.2-0.5,0.4c-0.1,0.1-0.3,0.3-0.5,0.5
	c-0.1,0.1-0.3,0.3-0.3,0.4l-0.1,0.1c-0.3,0.4-0.6,0.7-0.8,1.1c-0.1,0.1-0.2,0.3-0.4,0.6l-0.1,0.1l-0.3,0.5c-0.8,1.3-1.3,2.7-1.7,4.2
	c0,0-0.5,2-0.6,2.7l-0.1,0.1v0.2c-0.8,2.7-1.9,5.2-3.2,7.5c-2.7-4.4-6.3-8-10.3-10.8l6-9.2c0.1-0.1,0.1-0.1,0.1-0.3l0.3-0.4
	c0.2-0.2,0.4-0.5,0.7-0.8l0.4-0.3c0.2-0.2,0.5-0.4,0.8-0.6l0.4-0.2c0.4-0.2,0.8-0.4,1.4-0.6c0.3-0.1,0.6-0.1,0.9-0.2
	c0.3-0.1,0.6-0.1,1.1-0.1c1.1-0.1,2,0.1,3,0.4c0.3,0.1,0.5,0.2,0.7,0.3l0.8,0.4l0,0l4.9,2.3C206.9,93.5,206.5,93.8,206.1,94.1"/>
<path class="st0" d="M77.7,153.9h-2v-3h2v-1.1c-0.1-1.3,0.4-2.7,1.2-3.8c0.9-0.8,2.2-1.3,3.4-1.2c0.5,0,1.1,0,1.5,0.1
	c0.4,0.1,0.8,0.1,1.2,0.3v3c-0.4-0.1-0.7-0.2-1-0.3c-0.4-0.1-0.7-0.1-1.1-0.1c-1.3,0-2,0.8-2,2.4v0.8h4.1v2.9h-4v12.3h-3.5
	L77.7,153.9L77.7,153.9z"/>
<path class="st0" d="M94.1,166.6c-1.5,0.1-3-0.5-4-1.5c-1-1.2-1.5-2.7-1.4-4.3V151h3.5v8.7c-0.1,1,0.2,2,0.8,2.7
	c0.6,0.6,1.5,1,2.5,0.9c0.9,0.1,1.9-0.3,2.5-1c0.6-0.8,1-1.8,0.9-2.8v-8.7h3.5v15.4h-3.5v-2.5c-0.5,0.7-1.1,1.3-1.9,2
	C96,166.4,95,166.6,94.1,166.6"/>
<path class="st0" d="M112.9,166.6c-1.1,0-2.3-0.2-3.4-0.6c-1.1-0.4-2.3-1-3.2-1.8l1.5-2.4c0.8,0.6,1.6,1.1,2.6,1.4
	c0.8,0.3,1.6,0.5,2.5,0.5c0.6,0.1,1.2-0.1,1.8-0.4c0.4-0.3,0.6-0.7,0.6-1.2v-0.1c0-0.3-0.1-0.6-0.3-0.8c-0.2-0.2-0.5-0.4-0.8-0.6
	c-0.4-0.1-0.7-0.3-1.1-0.4c-0.4-0.1-0.8-0.3-1.3-0.4c-0.6-0.1-1.1-0.4-1.8-0.6c-0.6-0.2-1.1-0.5-1.5-0.8c-0.4-0.4-0.8-0.8-1.1-1.3
	c-0.3-0.6-0.4-1.2-0.4-1.9v-0.1c0-0.6,0.1-1.3,0.4-2c0.3-0.6,0.6-1.1,1.1-1.5c0.5-0.4,1.1-0.7,1.8-0.9c0.7-0.2,1.4-0.4,2.2-0.3
	c1,0,2,0.1,3,0.4c0.9,0.3,1.9,0.7,2.7,1.3l-1.3,2.5c-0.7-0.4-1.4-0.8-2.3-1.1c-0.6-0.2-1.3-0.4-2.1-0.4c-0.6,0-1.1,0.1-1.5,0.4
	c-0.4,0.2-0.6,0.6-0.6,1.1v0.1c0,0.3,0.1,0.6,0.3,0.7c0.2,0.2,0.5,0.4,0.8,0.6c0.4,0.1,0.7,0.4,1.1,0.4c0.4,0.1,0.8,0.3,1.3,0.4
	c0.6,0.1,1.1,0.4,1.6,0.6c0.6,0.2,1.1,0.5,1.5,0.8c0.4,0.4,0.8,0.8,1.1,1.2c0.3,0.6,0.4,1.1,0.4,1.8v0.1c0,0.7-0.1,1.4-0.4,2.2
	c-0.3,0.6-0.7,1.1-1.2,1.5c-0.6,0.4-1.1,0.7-1.8,0.9C114.5,166.4,113.7,166.6,112.9,166.6"/>
<path class="st0" d="M123.3,145.3h3.8v3.4h-3.8V145.3z M123.4,151h3.5v15.3h-3.5V151z"/>
<path class="st0" d="M139.7,166.6c-1.1,0-2.3-0.2-3.2-0.6c-0.9-0.4-1.9-0.9-2.6-1.8c-0.7-0.7-1.3-1.5-1.8-2.5c-0.4-1-0.6-2-0.6-3.1
	v-0.1c0-1.1,0.2-2.2,0.6-3.1c0.4-0.9,1-1.8,1.8-2.5c1.5-1.5,3.7-2.4,5.9-2.4c1.1,0,2.3,0.2,3.3,0.6c1,0.4,1.9,1,2.6,1.8
	c1.5,1.5,2.3,3.5,2.3,5.6v0.1c0,1.1-0.2,2.1-0.6,3.1c-0.8,2-2.4,3.4-4.3,4.2C142,166.4,140.9,166.6,139.7,166.6 M139.8,163.5
	c0.6,0,1.3-0.1,2-0.4c0.6-0.3,1.1-0.6,1.5-1.1c0.4-0.4,0.7-1,0.9-1.5c0.2-0.6,0.3-1.2,0.3-1.9v-0.1c0-0.6-0.1-1.3-0.4-2
	c-0.2-0.6-0.6-1.1-1-1.5c-0.4-0.4-0.9-0.8-1.5-1.1c-1.2-0.5-2.6-0.5-3.8,0c-0.6,0.2-1.1,0.6-1.4,1.1c-0.4,0.4-0.7,1-0.9,1.5
	c-0.2,0.6-0.4,1.2-0.4,1.9v0.1c0,0.6,0.1,1.3,0.4,2c0.2,0.6,0.6,1.1,1,1.5c0.4,0.4,0.9,0.8,1.5,1.1
	C138.5,163.4,139.2,163.5,139.8,163.5"/>
<path class="st0" d="M152.5,151h3.5v2.4c0.3-0.4,0.5-0.7,0.8-1c0.3-0.4,0.6-0.6,1.1-0.8c0.4-0.2,0.8-0.4,1.3-0.6
	c0.5-0.1,1.1-0.2,1.5-0.2c1.5-0.1,3,0.5,4,1.5c1,1.2,1.5,2.7,1.4,4.2v9.8h-3.5v-8.7c0.1-1-0.2-2-0.8-2.8c-0.6-0.6-1.5-1-2.5-1
	c-0.9-0.1-1.9,0.4-2.5,1c-0.6,0.8-1,1.8-0.9,2.8v8.7h-3.5L152.5,151L152.5,151z"/>
<path class="st0" d="M171.5,151h3.5v3.4c0.4-1.1,1.1-2.1,2.1-2.8s2.2-1.1,3.4-0.9v3.7h-0.2c-0.7,0-1.4,0.1-2.2,0.4
	c-0.6,0.2-1.2,0.6-1.6,1.1c-0.5,0.6-0.8,1.2-1.1,2c-0.3,0.8-0.4,1.8-0.4,2.7v5.8h-3.5L171.5,151L171.5,151z"/>
<path class="st0" d="M191,166.6c-1.1,0-2.1-0.2-3.1-0.6c-2-0.7-3.4-2.3-4.2-4.2c-0.4-1-0.6-2.2-0.6-3.2l0,0c0-1.1,0.1-2.1,0.6-3.1
	c0.4-0.9,0.8-1.8,1.5-2.5c0.6-0.7,1.5-1.3,2.4-1.8c0.9-0.4,2-0.6,3-0.6c1.1,0,2.3,0.2,3.2,0.6c0.8,0.4,1.6,1,2.3,1.8
	c0.6,0.8,1.1,1.6,1.3,2.7c0.3,1,0.5,2.1,0.5,3.2c0,0.1,0,0.3,0,0.5c0,0.1,0,0.4-0.1,0.5h-11.3c0.1,1.1,0.6,2.2,1.5,2.9
	c0.8,0.6,1.9,1,3,1c0.8,0,1.5-0.1,2.3-0.4c0.7-0.4,1.3-0.8,1.9-1.3l2.1,1.9c-0.7,0.8-1.6,1.5-2.7,2.1
	C193.5,166.4,192.2,166.6,191,166.6 M194.5,157.6c-0.1-0.6-0.2-1.1-0.4-1.5c-0.1-0.5-0.4-0.9-0.8-1.3s-0.7-0.6-1.1-0.8
	c-0.5-0.2-1-0.4-1.5-0.3c-1,0-2,0.4-2.7,1.1c-0.7,0.8-1.2,1.9-1.3,3h7.8L194.5,157.6L194.5,157.6z"/>
<path class="st0" d="M207.7,166.6c-1.1,0-2.3-0.2-3.4-0.6c-1.1-0.4-2.3-1-3.2-1.8l1.5-2.4c0.8,0.6,1.6,1.1,2.6,1.4
	c0.8,0.3,1.6,0.5,2.5,0.5c0.6,0.1,1.2-0.1,1.8-0.4c0.4-0.3,0.6-0.7,0.6-1.2v-0.1c0-0.3-0.1-0.6-0.3-0.8c-0.2-0.2-0.5-0.4-0.8-0.6
	c-0.4-0.1-0.7-0.3-1.1-0.4c-0.4-0.1-0.8-0.3-1.3-0.4c-0.6-0.1-1.1-0.4-1.8-0.6c-0.6-0.2-1.1-0.5-1.5-0.8c-0.4-0.4-0.8-0.8-1.1-1.3
	c-0.3-0.6-0.4-1.2-0.4-1.9v-0.1c0-0.6,0.1-1.3,0.4-2c0.3-0.6,0.6-1.1,1.1-1.5c0.5-0.4,1.1-0.7,1.8-0.9c0.7-0.2,1.4-0.4,2.2-0.3
	c1,0,2,0.1,3,0.4c0.9,0.3,1.9,0.7,2.7,1.3l-1.3,2.5c-0.7-0.4-1.4-0.8-2.3-1.1c-0.6-0.2-1.3-0.4-2.1-0.4c-0.6,0-1.1,0.1-1.5,0.4
	c-0.4,0.2-0.6,0.6-0.6,1.1v0.1c0,0.3,0.1,0.6,0.3,0.7c0.2,0.2,0.5,0.4,0.8,0.6c0.4,0.1,0.7,0.4,1.1,0.4c0.4,0.1,0.8,0.3,1.3,0.4
	c0.6,0.1,1.1,0.4,1.8,0.6c0.6,0.2,1.1,0.5,1.5,0.8c0.4,0.4,0.8,0.8,1.1,1.2c0.3,0.6,0.4,1.1,0.4,1.8v0.1c0,0.7-0.1,1.4-0.4,2.2
	c-0.3,0.6-0.7,1.1-1.2,1.5c-0.6,0.4-1.1,0.7-1.8,0.9C209.2,166.4,208.5,166.6,207.7,166.6"/>
<path class="st0" d="M269.3,166.6c-1.1,0-2.3-0.2-3.4-0.6c-1.1-0.4-2.3-1-3.2-1.8l1.5-2.4c0.8,0.6,1.6,1.1,2.6,1.4
	c0.8,0.3,1.6,0.5,2.5,0.5c0.6,0.1,1.2-0.1,1.8-0.4c0.4-0.3,0.6-0.7,0.6-1.2v-0.1c0-0.3-0.1-0.6-0.3-0.8c-0.2-0.2-0.5-0.4-0.8-0.6
	c-0.4-0.1-0.7-0.3-1.1-0.4c-0.4-0.1-0.8-0.3-1.3-0.4c-0.6-0.1-1.1-0.4-1.8-0.6c-0.6-0.2-1.1-0.5-1.5-0.8c-0.4-0.4-0.8-0.8-1.1-1.3
	c-0.3-0.6-0.4-1.2-0.4-1.9v-0.1c0-0.6,0.1-1.3,0.4-2c0.3-0.6,0.6-1.1,1.1-1.5c0.5-0.4,1.1-0.7,1.8-0.9c0.7-0.2,1.4-0.4,2.2-0.3
	c1,0,2,0.1,3,0.4c0.9,0.3,1.9,0.7,2.7,1.3l-1.3,2.5c-0.7-0.4-1.4-0.8-2.3-1.1c-0.6-0.2-1.3-0.4-2.1-0.4c-0.6,0-1.1,0.1-1.5,0.4
	c-0.4,0.2-0.6,0.6-0.6,1.1v0.1c0,0.3,0.1,0.6,0.3,0.7c0.2,0.2,0.5,0.4,0.8,0.6c0.4,0.1,0.7,0.4,1.1,0.4c0.4,0.1,0.8,0.3,1.3,0.4
	c0.6,0.1,1.1,0.4,1.6,0.6c0.6,0.2,1.1,0.5,1.5,0.8c0.4,0.4,0.8,0.8,1.1,1.2c0.3,0.6,0.4,1.1,0.4,1.8v0.1c0,0.7-0.1,1.4-0.4,2.2
	c-0.3,0.6-0.7,1.1-1.2,1.5c-0.6,0.4-1.1,0.7-1.8,0.9C270.9,166.4,270.1,166.6,269.3,166.6"/>
<path class="st0" d="M225.2,166.6c-1.1,0-2.3-0.2-3.2-0.6c-0.9-0.4-1.9-0.9-2.6-1.8c-0.7-0.7-1.3-1.5-1.8-2.5c-0.4-1-0.6-2-0.6-3.1
	v-0.1c0-1.1,0.2-2.2,0.6-3.1c0.8-2,2.4-3.4,4.3-4.3c1-0.4,2.2-0.6,3.3-0.6c1.1,0,2.3,0.2,3.3,0.6c2,0.8,3.4,2.3,4.3,4.2
	c0.4,1,0.6,2,0.6,3.1v0.1c0,1.1-0.2,2.1-0.6,3.1c-0.8,2-2.4,3.4-4.3,4.2C227.5,166.4,226.3,166.6,225.2,166.6 M225.3,163.5
	c0.6,0,1.3-0.1,2-0.4c0.6-0.2,1.1-0.6,1.4-1.1c0.4-0.4,0.7-0.9,0.9-1.5c0.2-0.6,0.3-1.2,0.3-1.9v-0.1c0-0.6-0.1-1.3-0.4-2
	c-0.2-0.6-0.6-1.1-1-1.5s-0.9-0.8-1.5-1.1c-1.2-0.5-2.6-0.5-3.8,0c-0.6,0.2-1.1,0.6-1.5,1.1c-0.4,0.4-0.7,1-0.9,1.5
	c-0.2,0.6-0.3,1.2-0.3,1.9v0.1c0,0.6,0.1,1.3,0.4,2c0.2,0.6,0.6,1.1,1,1.5c0.4,0.4,0.9,0.8,1.5,1.1
	C224,163.4,224.6,163.5,225.3,163.5"/>
<path class="st0" d="M238,151h3.5v3.4c0.4-1.1,1.1-2.1,2.1-2.8s2.2-1.1,3.4-0.9v3.7h-0.2c-0.7,0-1.4,0.1-2.2,0.4
	c-0.6,0.2-1.2,0.6-1.6,1.1c-0.5,0.6-0.8,1.2-1.1,2c-0.3,0.8-0.4,1.8-0.4,2.7v5.8h-3.5L238,151L238,151z"/>
<path class="st0" d="M256.1,166.5c-0.6,0-1.2-0.1-1.8-0.2c-0.5-0.1-1-0.4-1.4-0.8c-0.4-0.4-0.7-0.8-0.9-1.3
	c-0.2-0.7-0.4-1.4-0.3-2.2v-8.1h-2v-3h2v-4.2h3.5v4.2h4.1v3h-4.1v7.6c-0.1,0.5,0.1,1.1,0.5,1.4c0.4,0.3,0.8,0.5,1.3,0.4
	c0.8,0,1.5-0.1,2.2-0.5v2.9c-0.4,0.2-0.9,0.4-1.4,0.6C257.3,166.5,256.6,166.5,256.1,166.5"/>
</svg>
