<?xml version="1.0" encoding="utf-8"?>
<!-- Generator: Adobe Illustrator 21.1.0, SVG Export Plug-In . SVG Version: 6.00 Build 0)  -->
<svg version="1.1" id="Layer_1" xmlns="http://www.w3.org/2000/svg" xmlns:xlink="http://www.w3.org/1999/xlink" x="0px" y="0px"
	 viewBox="0 0 350 255.1" style="enable-background:new 0 0 350 255.1;" xml:space="preserve">
<style type="text/css">
	.st0{fill:#1F191A;}
</style>
<g>
	<polygon class="st0" points="76.1,143.1 76.1,137.3 77,137.3 77,142.4 80.9,142.4 80.9,143.1 	"/>
	<path class="st0" d="M85.5,143.1c-0.5,0-0.9-0.1-1.3-0.3c-0.4-0.1-0.7-0.4-1.1-0.7c-0.3-0.3-0.5-0.6-0.7-0.9
		c-0.1-0.3-0.3-0.7-0.3-1.1c0-0.4,0.1-0.7,0.3-1.1c0.2-0.3,0.4-0.7,0.7-0.9c0.3-0.3,0.7-0.5,1.1-0.7c0.4-0.1,0.9-0.3,1.3-0.3
		s0.9,0.1,1.3,0.3c0.4,0.2,0.7,0.4,1.1,0.7c0.3,0.3,0.5,0.6,0.7,0.9s0.3,0.7,0.3,1.1c0,0.4-0.1,0.7-0.3,1.1
		c-0.2,0.3-0.4,0.7-0.7,0.9c-0.3,0.3-0.7,0.5-1.1,0.7S86,143.1,85.5,143.1 M83.2,140.2c0,0.3,0.1,0.6,0.2,0.9s0.3,0.5,0.5,0.7
		c0.2,0.2,0.5,0.4,0.7,0.5s0.6,0.2,1,0.2s0.7-0.1,1-0.2s0.5-0.3,0.7-0.5c0.2-0.2,0.3-0.5,0.5-0.7c0.1-0.3,0.1-0.5,0.1-0.8
		c0-0.3-0.1-0.6-0.2-0.9c-0.1-0.3-0.3-0.5-0.5-0.7s-0.5-0.4-0.7-0.5c-0.3-0.1-0.6-0.2-1-0.2s-0.7,0.1-1,0.2s-0.5,0.3-0.7,0.5
		c-0.2,0.2-0.4,0.5-0.5,0.7C83.2,139.6,83.2,139.9,83.2,140.2"/>
	<polygon class="st0" points="92.1,138.7 92.1,143.1 91.2,143.1 91.2,137.3 91.9,137.3 96.2,141.8 96.2,137.3 97.1,137.3 
		97.1,143.1 96.4,143.1 	"/>
	<path class="st0" d="M104.9,142.3c-0.6,0.5-1.3,0.8-2.1,0.8c-0.5,0-0.9-0.1-1.3-0.3c-0.4-0.2-0.7-0.4-1-0.7
		c-0.3-0.3-0.5-0.6-0.7-0.9c-0.1-0.3-0.3-0.7-0.3-1.1c0-0.4,0.1-0.7,0.3-1.1c0.1-0.3,0.4-0.7,0.7-0.9c0.3-0.3,0.7-0.5,1.1-0.7
		c0.4-0.1,0.9-0.3,1.3-0.3c0.7,0,1.3,0.1,1.7,0.3c0.5,0.3,0.8,0.5,1,0.9l-0.7,0.4c-0.2-0.3-0.5-0.6-0.9-0.7
		c-0.3-0.1-0.7-0.3-1.2-0.3c-0.3,0-0.7,0.1-1,0.2c-0.3,0.1-0.5,0.3-0.7,0.5c-0.2,0.2-0.3,0.5-0.5,0.7c-0.1,0.3-0.2,0.5-0.2,0.9
		s0.1,0.6,0.2,0.9s0.3,0.5,0.5,0.7c0.2,0.2,0.5,0.4,0.8,0.5c0.3,0.1,0.6,0.2,0.9,0.2c0.7,0,1.5-0.3,2.1-0.9v-0.8h-1.5v-0.5h2.2v2.8
		h-0.7L104.9,142.3L104.9,142.3z"/>
	<polygon class="st0" points="117.4,137.3 117.4,143.1 116.5,143.1 116.5,140.5 112.7,140.5 112.7,143.1 111.8,143.1 111.8,137.3 
		112.7,137.3 112.7,139.8 116.5,139.8 116.5,137.3 	"/>
	<path class="st0" d="M119.5,143.1l2.8-5.8h0.7l2.8,5.8H125l-0.8-1.7h-2.9l-0.8,1.7H119.5z M122.7,138.2l-1.3,2.6h2.6L122.7,138.2z"
		/>
	<rect x="128" y="137.3" class="st0" width="0.9" height="5.8"/>
	<rect x="138.8" y="137.3" class="st0" width="0.5" height="5.8"/>
	<polygon class="st0" points="149.6,137.3 151.9,142.1 154.1,137.3 155.1,137.3 152.3,143.1 151.5,143.1 148.7,137.3 	"/>
	<rect x="157.2" y="137.3" class="st0" width="0.9" height="5.8"/>
	<polygon class="st0" points="160.9,143.1 160.9,137.3 161.8,137.3 161.8,142.4 165.7,142.4 165.7,143.1 	"/>
	<polygon class="st0" points="167.9,143.1 167.9,137.3 168.8,137.3 168.8,142.4 172.7,142.4 172.7,143.1 	"/>
	<path class="st0" d="M174.1,143.1l2.8-5.8h0.7l2.8,5.8h-0.9l-0.8-1.7h-2.9l-0.8,1.7H174.1z M177.3,138.2l-1.3,2.6h2.6L177.3,138.2z
		"/>
	<path class="st0" d="M186.6,138.5c-0.1-0.1-0.2-0.1-0.3-0.2c-0.1-0.1-0.3-0.1-0.5-0.2c-0.1-0.1-0.3-0.1-0.5-0.1
		c-0.2-0.1-0.4-0.1-0.6-0.1c-0.5,0-0.9,0.1-1.2,0.3c-0.3,0.2-0.4,0.4-0.4,0.7c0,0.1,0.1,0.3,0.1,0.4s0.2,0.2,0.3,0.3
		s0.3,0.1,0.6,0.2c0.2,0.1,0.5,0.1,0.8,0.2c0.3,0.1,0.7,0.1,1,0.2c0.3,0.1,0.5,0.2,0.7,0.3c0.2,0.1,0.4,0.3,0.5,0.5
		c0.1,0.2,0.1,0.4,0.1,0.7c0,0.3-0.1,0.5-0.2,0.7c-0.1,0.2-0.3,0.4-0.5,0.5c-0.2,0.1-0.5,0.2-0.8,0.3c-0.3,0.1-0.7,0.1-1,0.1
		c-0.5,0-1.1-0.1-1.5-0.2s-0.9-0.3-1.3-0.6l0.4-0.6c0.1,0.1,0.3,0.2,0.4,0.3c0.2,0.1,0.3,0.2,0.6,0.3c0.2,0.1,0.5,0.1,0.7,0.2
		c0.3,0.1,0.5,0.1,0.8,0.1c0.5,0,0.9-0.1,1.1-0.2c0.3-0.1,0.4-0.4,0.4-0.7c0-0.1-0.1-0.3-0.1-0.4c-0.1-0.1-0.2-0.2-0.4-0.3
		c-0.2-0.1-0.4-0.1-0.7-0.2c-0.3-0.1-0.5-0.1-0.9-0.2c-0.3-0.1-0.7-0.1-0.9-0.2c-0.3-0.1-0.5-0.2-0.7-0.3c-0.2-0.1-0.3-0.3-0.4-0.4
		c-0.1-0.2-0.1-0.3-0.1-0.6c0-0.3,0.1-0.5,0.2-0.7c0.1-0.2,0.3-0.4,0.5-0.5c0.2-0.1,0.5-0.3,0.8-0.3s0.7-0.1,1-0.1
		c0.5,0,0.9,0.1,1.3,0.2c0.4,0.1,0.7,0.3,1,0.5L186.6,138.5z"/>
	<path class="st0" d="M198,143.1l-0.7-0.6c-0.3,0.2-0.6,0.4-0.9,0.5s-0.7,0.2-1.1,0.2c-0.3,0-0.6-0.1-0.9-0.1s-0.5-0.2-0.7-0.3
		c-0.2-0.1-0.3-0.3-0.5-0.5s-0.2-0.4-0.2-0.7c0-0.2,0.1-0.3,0.1-0.5c0.1-0.1,0.2-0.3,0.3-0.5c0.1-0.1,0.3-0.3,0.5-0.4
		c0.2-0.1,0.3-0.2,0.5-0.3c-0.1-0.1-0.3-0.3-0.4-0.4c-0.1-0.1-0.2-0.3-0.3-0.3c-0.1-0.1-0.1-0.2-0.1-0.3c-0.1-0.1-0.1-0.2-0.1-0.3
		c0-0.2,0.1-0.3,0.1-0.5c0.1-0.1,0.2-0.3,0.4-0.4c0.1-0.1,0.3-0.2,0.6-0.3c0.2-0.1,0.5-0.1,0.7-0.1c0.3,0,0.5,0,0.7,0.1
		c0.2,0.1,0.4,0.1,0.5,0.3s0.3,0.2,0.3,0.4c0.1,0.1,0.1,0.3,0.1,0.5s-0.1,0.3-0.1,0.5c-0.1,0.1-0.2,0.3-0.3,0.4s-0.3,0.3-0.5,0.3
		c-0.2,0.1-0.3,0.2-0.5,0.3l1.8,1.5c0.1-0.2,0.2-0.4,0.3-0.7c0.1-0.3,0.1-0.5,0.1-0.7h0.7c0,0.3-0.1,0.7-0.1,1
		c-0.1,0.3-0.3,0.6-0.5,0.9l1.3,1.1H198z M195.3,142.6c0.3,0,0.6-0.1,0.8-0.1c0.3-0.1,0.5-0.3,0.7-0.4l-2-1.7
		c-0.3,0.2-0.5,0.4-0.7,0.6s-0.3,0.4-0.3,0.7c0,0.1,0.1,0.3,0.1,0.5c0.1,0.1,0.2,0.3,0.3,0.3c0.1,0.1,0.3,0.1,0.5,0.2
		C195,142.6,195.1,142.6,195.3,142.6 M194.3,138.5c0,0.1,0,0.1,0.1,0.2c0,0.1,0.1,0.1,0.1,0.2s0.1,0.1,0.2,0.3
		c0.1,0.1,0.2,0.2,0.4,0.3c0.3-0.2,0.6-0.3,0.8-0.5c0.2-0.1,0.3-0.3,0.3-0.5c0-0.2-0.1-0.3-0.3-0.5c-0.2-0.1-0.4-0.2-0.7-0.2
		c-0.3,0-0.5,0.1-0.7,0.2C194.4,138.2,194.3,138.3,194.3,138.5"/>
	<path class="st0" d="M210.3,141.6c0,0.2-0.1,0.4-0.1,0.6c-0.1,0.2-0.3,0.3-0.5,0.5c-0.2,0.1-0.4,0.2-0.7,0.3
		c-0.3,0.1-0.5,0.1-0.8,0.1h-3.3v-5.8h3.4c0.3,0,0.5,0.1,0.7,0.1c0.2,0.1,0.4,0.2,0.5,0.3c0.1,0.1,0.3,0.3,0.3,0.5
		c0.1,0.2,0.1,0.3,0.1,0.5c0,0.3-0.1,0.5-0.3,0.8c-0.2,0.3-0.4,0.4-0.7,0.5c0.4,0.1,0.7,0.3,0.9,0.5
		C210.1,141,210.3,141.2,210.3,141.6 M205.8,138v1.9h2.2c0.1,0,0.3,0,0.5-0.1s0.3-0.1,0.3-0.2c0.1-0.1,0.2-0.2,0.2-0.3
		c0.1-0.1,0.1-0.3,0.1-0.4c0-0.1,0-0.3-0.1-0.4c-0.1-0.1-0.1-0.2-0.2-0.3c-0.1-0.1-0.2-0.1-0.3-0.2s-0.3-0.1-0.4-0.1L205.8,138
		L205.8,138z M209.3,141.5c0-0.1,0-0.3-0.1-0.4c-0.1-0.1-0.1-0.2-0.2-0.3c-0.1-0.1-0.2-0.2-0.3-0.2c-0.1-0.1-0.3-0.1-0.5-0.1h-2.5v2
		h2.4c0.1,0,0.3,0,0.5-0.1s0.3-0.1,0.3-0.2c0.1-0.1,0.2-0.2,0.3-0.3C209.3,141.7,209.3,141.6,209.3,141.5"/>
	<polygon class="st0" points="217.4,142.4 217.4,143.1 212.6,143.1 212.6,137.3 217.3,137.3 217.3,138 213.6,138 213.6,139.8 
		216.8,139.8 216.8,140.4 213.6,140.4 213.6,142.4 	"/>
	<path class="st0" d="M219.1,143.1l2.8-5.8h0.7l2.8,5.8h-0.9l-0.8-1.7h-2.9l-0.8,1.7H219.1z M222.3,138.2l-1.3,2.6h2.6L222.3,138.2z
		"/>
	<path class="st0" d="M227.2,140.2c0-0.3,0.1-0.7,0.2-1.1c0.1-0.3,0.3-0.7,0.7-0.9c0.3-0.3,0.7-0.5,1.1-0.7c0.4-0.2,0.9-0.3,1.4-0.3
		c0.6,0,1.1,0.1,1.6,0.3c0.5,0.3,0.8,0.5,1,0.9l-0.7,0.4c-0.1-0.2-0.3-0.3-0.4-0.5c-0.1-0.1-0.3-0.2-0.5-0.3
		c-0.2-0.1-0.3-0.1-0.5-0.1c-0.2-0.1-0.3-0.1-0.5-0.1c-0.4,0-0.7,0.1-1,0.2c-0.3,0.1-0.5,0.3-0.7,0.5c-0.2,0.2-0.3,0.5-0.5,0.7
		c-0.1,0.3-0.1,0.5-0.1,0.8c0,0.3,0.1,0.6,0.2,0.9c0.1,0.3,0.3,0.5,0.5,0.7c0.2,0.2,0.5,0.4,0.8,0.5c0.3,0.1,0.6,0.2,0.9,0.2
		c0.2,0,0.4,0,0.6-0.1c0.2-0.1,0.4-0.1,0.5-0.2c0.2-0.1,0.3-0.2,0.5-0.3s0.3-0.3,0.4-0.5l0.7,0.3c-0.1,0.2-0.3,0.4-0.5,0.6
		c-0.2,0.2-0.4,0.3-0.7,0.4c-0.3,0.1-0.5,0.2-0.8,0.3c-0.3,0.1-0.5,0.1-0.8,0.1c-0.5,0-0.9-0.1-1.3-0.3c-0.4-0.2-0.7-0.4-1.1-0.7
		c-0.3-0.3-0.5-0.6-0.7-0.9C227.3,140.9,227.2,140.6,227.2,140.2"/>
	<polygon class="st0" points="241.1,137.3 241.1,143.1 240.2,143.1 240.2,140.5 236.4,140.5 236.4,143.1 235.5,143.1 235.5,137.3 
		236.4,137.3 236.4,139.8 240.2,139.8 240.2,137.3 	"/>
	<path class="st0" d="M247.1,140.2c0-0.3,0.1-0.7,0.2-1.1c0.1-0.3,0.3-0.7,0.7-0.9c0.3-0.3,0.7-0.5,1.1-0.7c0.4-0.2,0.9-0.3,1.4-0.3
		c0.6,0,1.1,0.1,1.6,0.3c0.5,0.3,0.8,0.5,1,0.9l-0.7,0.4c-0.1-0.2-0.3-0.3-0.4-0.5c-0.1-0.1-0.3-0.2-0.5-0.3
		c-0.2-0.1-0.3-0.1-0.5-0.1c-0.2-0.1-0.3-0.1-0.5-0.1c-0.4,0-0.7,0.1-1,0.2c-0.3,0.1-0.5,0.3-0.7,0.5c-0.2,0.2-0.3,0.5-0.5,0.7
		c-0.1,0.3-0.1,0.5-0.1,0.8c0,0.3,0.1,0.6,0.2,0.9c0.1,0.3,0.3,0.5,0.5,0.7c0.2,0.2,0.5,0.4,0.8,0.5c0.3,0.1,0.6,0.2,0.9,0.2
		c0.2,0,0.4,0,0.6-0.1c0.2-0.1,0.4-0.1,0.5-0.2c0.2-0.1,0.3-0.2,0.5-0.3c0.1-0.1,0.3-0.3,0.4-0.5l0.7,0.3c-0.1,0.2-0.3,0.4-0.5,0.6
		c-0.2,0.2-0.4,0.3-0.7,0.4c-0.3,0.1-0.5,0.2-0.8,0.3c-0.3,0.1-0.5,0.1-0.8,0.1c-0.5,0-0.9-0.1-1.3-0.3s-0.7-0.4-1.1-0.7
		c-0.3-0.3-0.5-0.6-0.7-0.9C247.2,140.9,247.1,140.6,247.1,140.2"/>
	<polygon class="st0" points="255.4,143.1 255.4,137.3 256.3,137.3 256.3,142.4 260.2,142.4 260.2,143.1 	"/>
	<path class="st0" d="M264.8,142.5c0.4,0,0.7-0.1,1-0.2s0.5-0.3,0.7-0.5c0.1-0.2,0.3-0.5,0.3-0.7c0.1-0.3,0.1-0.5,0.1-0.8v-2.9h0.9
		v2.9c0,0.4-0.1,0.7-0.1,1.1c-0.1,0.3-0.3,0.7-0.5,0.9s-0.5,0.5-0.9,0.7c-0.4,0.1-0.9,0.3-1.4,0.3s-1-0.1-1.4-0.3
		c-0.4-0.1-0.7-0.4-0.9-0.7s-0.4-0.6-0.5-0.9s-0.1-0.7-0.1-1.1v-2.9h0.9v2.9c0,0.3,0.1,0.6,0.1,0.9s0.2,0.5,0.3,0.7
		c0.1,0.2,0.4,0.4,0.7,0.5C264.1,142.4,264.4,142.5,264.8,142.5"/>
	<path class="st0" d="M275.9,141.6c0,0.2-0.1,0.4-0.1,0.6c-0.1,0.2-0.3,0.3-0.5,0.5c-0.2,0.1-0.4,0.2-0.7,0.3
		c-0.3,0.1-0.5,0.1-0.8,0.1h-3.3v-5.8h3.4c0.3,0,0.5,0.1,0.7,0.1c0.2,0.1,0.3,0.2,0.5,0.3c0.1,0.1,0.3,0.3,0.3,0.5
		c0.1,0.2,0.1,0.3,0.1,0.5c0,0.3-0.1,0.5-0.3,0.8c-0.2,0.3-0.4,0.4-0.7,0.5c0.4,0.1,0.7,0.3,0.9,0.5
		C275.8,141,275.9,141.2,275.9,141.6 M271.5,138v1.9h2.2c0.1,0,0.3,0,0.5-0.1c0.1-0.1,0.3-0.1,0.3-0.2c0.1-0.1,0.2-0.2,0.2-0.3
		c0.1-0.1,0.1-0.3,0.1-0.4c0-0.1,0-0.3-0.1-0.4c-0.1-0.1-0.1-0.2-0.2-0.3c-0.1-0.1-0.2-0.1-0.3-0.2c-0.1-0.1-0.3-0.1-0.4-0.1
		L271.5,138L271.5,138z M275,141.5c0-0.1,0-0.3-0.1-0.4s-0.1-0.2-0.2-0.3c-0.1-0.1-0.2-0.2-0.3-0.2c-0.1-0.1-0.3-0.1-0.4-0.1h-2.5v2
		h2.4c0.1,0,0.3,0,0.5-0.1s0.3-0.1,0.3-0.2s0.2-0.2,0.3-0.3C275,141.7,275,141.6,275,141.5"/>
	<path class="st0" d="M136.9,125.9h15.7c0.6,0,1.5-0.1,2.2-0.7c0.7-0.6,0.7-1.7,0.7-1.9v-6.1c0-2.3-1.9-4.3-4.2-4.3l0,0h-15.7
		c-2.3,0-4.1,2-4.2,4.3v0.1V130v0.1c0,2.3,1.9,4.3,4.2,4.3l0,0h19.5v-3.8l0,0c0-0.1,0-0.6-0.4-0.9c-0.3-0.2-0.8-0.2-0.8-0.2h-17.1
		L136.9,125.9z M136.9,117.7h12.4c1,0,1.4,0.8,1.5,1.9c0,1.1-0.5,1.8-1.5,1.9h-12.4C136.9,121.4,136.9,117.7,136.9,117.7z"/>
	<path class="st0" d="M178,121.3h-15.7c-0.6,0-1.5,0.1-2.2,0.7c-0.7,0.6-0.7,1.7-0.7,1.9v6.1c0,2.3,1.9,4.3,4.2,4.3l0,0h15.7
		c2.3,0,4.1-2,4.2-4.3v-0.1v-12.8v-0.1c0-2.3-1.9-4.3-4.2-4.3l0,0h-19.5v3.8l0,0c0,0.1,0,0.6,0.4,0.9c0.3,0.2,0.8,0.2,0.8,0.2H178
		L178,121.3z M178,129.4h-12.4c-1,0-1.4-0.8-1.5-1.9c0-1.1,0.5-1.8,1.5-1.9H178V129.4z"/>
	<path class="st0" d="M233.5,121.3h-15.7c-0.6,0-1.5,0.1-2.2,0.7c-0.7,0.6-0.7,1.7-0.7,1.9v6.1c0,2.3,1.9,4.3,4.2,4.3l0,0
		c0.1,0,15.7,0,15.7,0c2.3,0,4.1-2,4.2-4.3v-0.1v-12.8v-0.1c0-2.3-1.9-4.3-4.2-4.3l0,0h-19.5v3.8l0,0c0,0.1,0,0.6,0.4,0.9
		c0.3,0.2,0.8,0.2,0.8,0.2h17.1L233.5,121.3z M233.5,129.4h-12.4c-1,0-1.4-0.8-1.5-1.9c0-1.1,0.5-1.8,1.5-1.9h12.4V129.4z"/>
	<path class="st0" d="M252.1,126.4c0,2.9,0,6.3,0,6.6c0,0.2,0,1.3,1.1,1.3h0.1h0.3h3.9v-7.8v-8.1v-0.1c0,0,0-0.7,0.6-0.6h0.1h3.3v16
		c0,0.6,0.6,0.6,0.6,0.6h0.1h4.6v-17v-0.1c0-2.3-1.9-4.3-4.2-4.3c0,0-15.6,0-15.7,0l0,0c-2.3,0-4.1,2-4.2,4.3v0.1v17h4.6h0.1
		c0,0,0.7,0,0.6-0.6v-16h3.3h0.1c0.6,0,0.6,0.6,0.6,0.6v0.1v2.8v5.2H252.1z"/>
	<path class="st0" d="M76,126.4c0,1.3,0,2.6,0,3.8c0.1,2.2,1.9,4,4.2,4.1H88h7.8c2.2-0.1,4.2-1.9,4.2-4.1v-3.8v-4.8v-4.4v-0.1
		c0-2.3-1.9-4.3-4.2-4.3h-0.2H88h-7.6h-0.2c-2.3,0-4.1,2-4.2,4.3v0.1v4.4L76,126.4z M81.3,118.8c0-0.7,0.5-1.2,1.2-1.2h0.1
		c0.1,0,0.1,0,0.1,0s2.6,0,5.3,0c2.7,0,5.2,0,5.3,0c0,0,0.1,0,0.1,0h0.1c0.7,0,1.2,0.5,1.2,1.2v9.3c0,0.3-0.1,0.5-0.3,0.8
		c-0.1,0.2-0.3,0.3-0.5,0.4c-0.1,0.1-0.3,0.1-0.5,0.1h-0.1c-0.1,0-0.1,0-0.1,0c-0.1,0-2.3,0-2.3,0h-6c0,0-2.2,0-2.3,0
		c0,0-0.1,0-0.1,0h-0.1c-0.7,0-1.2-0.5-1.2-1.2V118.8z"/>
	<path class="st0" d="M274.8,112.8h-4.3v5.4v0.1v0.1v2.8v5.2c0,2.9,0,6.3,0,6.6c0,0.2,0.1,1.3,1.1,1.3h0.1h0.3h3.9v-7.8v-7.1v-1.1
		v-0.1l0,0V114C275.8,113.3,275.4,112.8,274.8,112.8"/>
	<path class="st0" d="M211,117.1c0-2.3-1.9-4.3-4.2-4.3c0,0-15.6,0-15.7,0l0,0c-2.2,0-4.1,2-4.2,4.3v0.1v17h4.6h0.1
		c0,0,0.6,0,0.6-0.6v-16h3.2h0.1h0.1l0,0h6.5c0,0,0,0,0.1,0h0.1h2.2c0.7,0,1.2,0.5,1.2,1.2v14.8c0,0.6,0.6,0.6,0.6,0.6h0.1h4.6
		L211,117.1L211,117.1z"/>
	<path class="st0" d="M127.8,132.5v-2.3c0-0.5-0.4-0.9-0.9-0.9H122l0,0c-2.3,0-11.4,0-11.4,0c-0.2,0-1.3,0-1.3-1.1v-0.2v-1.2V126
		v-5.2v-0.9v-1.2v-0.1c0-1,1.1-1.1,1.3-1.1c0.1,0,9.1,0,11.4,0l0,0h4.9c0.5,0,0.9-0.4,0.9-0.9v-2.3c0-0.9-0.7-1.6-1.6-1.6h-11.4
		h-6.6H108c-1.1,0-2.1,0.5-2.8,1.1c-0.9,0.8-1.4,1.9-1.4,3.2v0.1v6.4v6.4v0.1c0,1.3,0.5,2.4,1.4,3.2c0.7,0.7,1.8,1.1,2.8,1.1h0.1
		h6.6h11.4C127,134.1,127.8,133.4,127.8,132.5"/>
</g>
</svg>
