<?xml version="1.0" encoding="utf-8"?>
<!-- Generator: Adobe Illustrator 21.1.0, SVG Export Plug-In . SVG Version: 6.00 Build 0)  -->
<svg version="1.1" id="Layer_1" xmlns="http://www.w3.org/2000/svg" xmlns:xlink="http://www.w3.org/1999/xlink" x="0px" y="0px"
	 viewBox="0 0 350 255.1" style="enable-background:new 0 0 350 255.1;" xml:space="preserve">
<style type="text/css">
	.st0{fill:#1F191A;}
</style>
<g>
	<path class="st0" d="M202,107.5L202,107.5c-1.6-4.5-4.5-7.6-8.4-9.1c-1.5-0.6-3-0.9-4.7-1c-0.6-1.5-1.4-2.9-2.4-4.2
		c-2.6-3.2-6.5-5-11.2-5.2h0h0c-4.7,0.2-8.5,1.9-11.2,5.2c-1,1.2-1.8,2.6-2.4,4.2c-1.6,0.1-3.2,0.4-4.7,1c-3.9,1.5-6.8,4.6-8.4,9
		l0,0.1c-1.3,4.5-0.8,8.7,1.5,12.2c0.8,1.3,2,2.5,3.2,3.5c-0.4,1.6-0.6,3.1-0.5,4.7c0.2,4.1,2.3,7.8,6,10.7l0,0
		c2.7,1.9,5.7,2.8,8.6,2.8c1.2,0,2.3-0.2,3.5-0.5c1.5-0.4,2.9-1.1,4.3-2c1.4,0.9,2.8,1.6,4.3,2c1.2,0.3,2.3,0.5,3.5,0.5
		c2.9,0,5.8-1,8.6-2.8l0,0c3.7-2.9,5.7-6.6,6-10.7c0.1-1.6-0.1-3.1-0.5-4.7c1.3-1,2.4-2.2,3.2-3.5C202.8,116.2,203.3,112,202,107.5
		 M175.4,136.2c-1.8-1.5-3.4-3.5-4.6-5.8c-2-4.1-2.7-8.2-2.2-11.6c1.7,4.6,6.5,7.6,12.5,8.4c-0.4,1.1-0.8,2.1-1.3,3.2
		C178.9,132.7,177.3,134.7,175.4,136.2 M163.3,107.1c-0.4-2.5-0.4-5.1,0.2-7.4c2.4,0.1,4.8,0.8,7.1,2c3.9,2.1,6.9,5,8.5,8
		c-4.1-2.6-9.7-2.3-15.1,0.6C163.8,109.4,163.6,108.3,163.3,107.1 M187.6,107.1c-0.8,4.5-2.6,8.2-5.1,10.6c1.3-4.7-0.8-10-5.3-14.1
		c0.9-0.7,1.9-1.3,2.9-1.8c2.3-1.2,4.7-1.9,7.1-2C187.9,102,188,104.6,187.6,107.1 M175.4,111.1c2.7,0,4.9,2.2,4.9,4.9
		s-2.2,4.9-4.9,4.9l0,0c-2.7,0-4.9-2.2-4.9-4.9S172.7,111.1,175.4,111.1 M170.8,110.5c-3.8,3.1-5.3,8.6-4.1,14.6
		c-1.1,0-2.3-0.1-3.4-0.2c-2.5-0.4-4.9-1.2-7-2.5c0.9-2.2,2.3-4.4,4.1-6.2C163.7,113,167.3,111.1,170.8,110.5 M175.9,123.3
		c4.9-0.2,9.3-3.8,11.9-9.4c0.9,0.7,1.8,1.4,2.6,2.2c1.9,1.8,3.3,3.9,4.1,6.2c-2,1.3-4.4,2.2-6.9,2.5
		C183.2,125.5,179.1,124.9,175.9,123.3 M166.1,94.8c2.2-2.7,5.4-4.2,9.4-4.3c3.9,0.1,7.2,1.6,9.4,4.3c0.7,0.8,1.2,1.8,1.7,2.7
		c-2.5,0.2-5.1,1-7.4,2.3c-1.3,0.7-2.5,1.5-3.7,2.4c-1.1-0.8-2.4-1.6-3.7-2.4c-2.4-1.3-4.9-2-7.4-2.3
		C164.8,96.5,165.4,95.6,166.1,94.8 M152.3,118.4c-1.9-2.9-2.3-6.5-1.2-10.2c1.4-3.7,3.8-6.3,7-7.6c1-0.4,2-0.6,3.1-0.8
		c-0.6,2.4-0.6,5.1-0.1,7.7c0.3,1.4,0.6,2.9,1.1,4.2c-1.2,0.8-2.3,1.7-3.3,2.7c-2,1.9-3.5,4.1-4.5,6.4
		C153.6,120.1,152.8,119.3,152.3,118.4 M170.5,138.8c-3.3,0.9-6.9,0.2-10.1-2c-3.1-2.4-4.9-5.5-5.1-9c0-1,0-2.1,0.2-3.1
		c2.2,1.3,4.7,2.2,7.3,2.5c1.2,0.2,2.5,0.2,3.7,0.2c0.2,0,0.4,0,0.6,0c0.4,1.3,0.9,2.7,1.6,4c1.2,2.4,2.8,4.5,4.7,6.2
		C172.5,138.1,171.5,138.5,170.5,138.8 M195.5,127.8c-0.2,3.5-2,6.6-5.1,9c-3.3,2.2-6.8,2.9-10.1,2c-1-0.3-2-0.7-2.9-1.2
		c1.9-1.7,3.5-3.8,4.7-6.2c0.6-1.3,1.2-2.7,1.6-4c0.2,0,0.4,0,0.6,0c1.2,0,2.4-0.1,3.7-0.2c2.7-0.4,5.1-1.2,7.3-2.5
		C195.5,125.7,195.6,126.7,195.5,127.8 M198.6,118.4c-0.6,0.9-1.3,1.7-2.1,2.4c-1-2.3-2.5-4.5-4.5-6.4c-1.1-1-2.2-2-3.3-2.7
		c0.5-1.3,0.8-2.7,1.1-4.2c0.5-2.6,0.4-5.3-0.2-7.7c1.1,0.1,2.2,0.4,3.1,0.8c3.2,1.2,5.7,3.9,7,7.6
		C200.9,112,200.5,115.5,198.6,118.4"/>
	<rect x="146.9" y="151.4" class="st0" width="1.3" height="9.5"/>
	<path class="st0" d="M162.8,160.7c-0.7-0.2-1.2-0.5-1.6-0.8l0.6-1c0.4,0.3,0.9,0.6,1.5,0.8c0.6,0.2,1.2,0.3,1.9,0.3
		c0.9,0,1.5-0.1,1.9-0.4c0.4-0.3,0.6-0.6,0.6-1.2c0-0.4-0.1-0.6-0.4-0.8c-0.2-0.2-0.5-0.4-0.9-0.4c-0.4-0.1-0.8-0.2-1.4-0.3
		c-0.8-0.2-1.4-0.3-1.9-0.4c-0.5-0.2-0.9-0.4-1.2-0.8s-0.5-0.9-0.5-1.5c0-0.8,0.3-1.4,1-2c0.7-0.5,1.6-0.8,2.7-0.8
		c0.6,0,1.2,0.1,1.8,0.2s1.1,0.4,1.5,0.6l-0.6,1c-0.8-0.6-1.7-0.8-2.8-0.8c-0.8,0-1.4,0.2-1.8,0.4c-0.4,0.3-0.6,0.7-0.6,1.2
		c0,0.4,0.1,0.6,0.4,0.9c0.2,0.2,0.5,0.4,0.9,0.5c0.4,0.1,0.8,0.2,1.4,0.3c0.8,0.2,1.4,0.3,1.8,0.4c0.4,0.2,0.8,0.4,1.2,0.8
		c0.3,0.4,0.5,0.8,0.5,1.4c0,0.8-0.4,1.5-1,2c-0.7,0.5-1.6,0.7-2.9,0.7C164.2,161,163.5,160.9,162.8,160.7"/>
	<polygon class="st0" points="140.5,160.9 144.6,151.4 143.3,151.4 139.8,159.4 136.3,151.4 135,151.4 139.1,160.9 	"/>
	<polygon class="st0" points="154.6,151.4 150.4,160.9 151.7,160.9 155.2,152.9 158.7,160.9 160.1,160.9 155.9,151.4 	"/>
	<polygon class="st0" points="179.6,151.4 179.6,160.9 179.3,160.9 179.3,156.2 172.4,156.2 172.4,160.9 172.1,160.9 172.1,151.4 
		172.4,151.4 172.4,156 179.3,156 179.3,151.4 	"/>
	<path class="st0" d="M184.1,160.3c-0.8-0.4-1.3-1-1.8-1.7c-0.4-0.7-0.6-1.6-0.6-2.4c0-0.9,0.2-1.7,0.6-2.4c0.4-0.7,1-1.3,1.8-1.7
		c0.8-0.4,1.6-0.6,2.5-0.6s1.8,0.2,2.5,0.6c0.8,0.4,1.3,1,1.8,1.7c0.4,0.7,0.6,1.6,0.6,2.4c0,0.9-0.2,1.7-0.6,2.4
		c-0.4,0.7-1,1.3-1.8,1.7c-0.8,0.4-1.6,0.6-2.5,0.6C185.7,161,184.8,160.8,184.1,160.3 M188.9,160.1c0.7-0.4,1.2-0.9,1.7-1.6
		c0.4-0.7,0.6-1.5,0.6-2.3s-0.2-1.6-0.6-2.3c-0.4-0.7-1-1.2-1.7-1.6c-0.7-0.4-1.5-0.6-2.4-0.6s-1.6,0.2-2.4,0.6s-1.2,0.9-1.7,1.6
		c-0.4,0.7-0.6,1.5-0.6,2.3s0.2,1.6,0.6,2.3c0.4,0.7,1,1.2,1.7,1.6c0.7,0.4,1.5,0.6,2.4,0.6C187.4,160.7,188.2,160.5,188.9,160.1"/>
	<polygon class="st0" points="194.7,151.7 191.2,151.7 191.2,151.4 198.6,151.4 198.6,151.7 195,151.7 195,160.9 194.7,160.9 	"/>
	<polygon class="st0" points="207.2,160.6 207.2,160.9 200.8,160.9 200.8,151.4 207,151.4 207,151.7 201.1,151.7 201.1,156 
		206.3,156 206.3,156.2 201.1,156.2 201.1,160.6 	"/>
	<polygon class="st0" points="210,151.4 210.2,151.4 210.2,160.6 215.9,160.6 215.9,160.9 210,160.9 	"/>
	<polygon class="st0" points="164,164.8 162.1,169 162,169 160.1,164.8 160.3,164.8 162,168.8 163.9,164.8 	"/>
	<path class="st0" d="M165.2,168.6c-0.3-0.3-0.4-0.8-0.4-1.3v-2.4h0.1v2.4C164.9,167.8,165,168.2,165.2,168.6
		c0.3,0.2,0.7,0.3,1.2,0.3c0.5,0,0.8-0.1,1.1-0.4c0.2-0.3,0.4-0.7,0.4-1.2v-2.4h0.1v2.4c0,0.6-0.2,1-0.4,1.3
		c-0.3,0.3-0.7,0.4-1.2,0.4S165.5,168.8,165.2,168.6"/>
	<polygon class="st0" points="172.9,164.8 172.9,169 172.8,169 169.7,165 169.7,169 169.6,169 169.6,164.8 169.7,164.8 172.8,168.8 
		172.8,164.8 	"/>
	<path class="st0" d="M177.5,166.9h0.1v1.5c-0.2,0.2-0.4,0.3-0.6,0.4s-0.5,0.1-0.8,0.1c-0.4,0-0.8-0.1-1.1-0.3
		c-0.3-0.2-0.6-0.4-0.8-0.8c-0.2-0.3-0.3-0.7-0.3-1.1s0.1-0.8,0.3-1.1s0.4-0.6,0.8-0.8c0.3-0.2,0.7-0.3,1.1-0.3c0.3,0,0.6,0,0.8,0.1
		s0.4,0.2,0.6,0.4l-0.1,0.1c-0.4-0.3-0.8-0.5-1.4-0.5c-0.4,0-0.7,0.1-1,0.3c-0.3,0.2-0.6,0.4-0.7,0.7s-0.3,0.6-0.3,1s0.1,0.7,0.3,1
		c0.2,0.3,0.4,0.6,0.7,0.7c0.3,0.2,0.7,0.3,1,0.3c0.6,0,1-0.2,1.3-0.5V166.9L177.5,166.9z"/>
	<polygon class="st0" points="181.3,164.9 179.8,164.9 179.8,164.8 183,164.8 183,164.9 181.4,164.9 181.4,169 181.3,169 	"/>
	<path class="st0" d="M186.1,167.7h-2.5L183,169h-0.1l2-4.2h0.1l2,4.2h-0.1L186.1,167.7z M186.1,167.6l-1.2-2.6l-1.2,2.6H186.1z"/>
	<path class="st0" d="M188,168.6c-0.3-0.3-0.4-0.8-0.4-1.3v-2.4h0.1v2.4C187.7,167.8,187.8,168.2,188,168.6c0.3,0.2,0.7,0.3,1.2,0.3
		c0.5,0,0.8-0.1,1.1-0.4c0.2-0.3,0.4-0.7,0.4-1.2v-2.4h0.1v2.4c0,0.6-0.2,1-0.4,1.3c-0.3,0.3-0.7,0.4-1.2,0.4S188.3,168.8,188,168.6
		"/>
</g>
</svg>
