<?xml version="1.0" encoding="utf-8"?>
<!-- Generator: Adobe Illustrator 21.1.0, SVG Export Plug-In . SVG Version: 6.00 Build 0)  -->
<svg version="1.1" id="Layer_1" xmlns="http://www.w3.org/2000/svg" xmlns:xlink="http://www.w3.org/1999/xlink" x="0px" y="0px"
	 viewBox="0 0 350 255.1" style="enable-background:new 0 0 350 255.1;" xml:space="preserve">
<style type="text/css">
	.st0{fill:#1F191A;}
</style>
<g>
	<path class="st0" d="M242.2,75.7l-0.1-0.2c-4-11-11.2-18.8-21-22.6c-3.7-1.4-7.6-2.2-11.7-2.4c-1.5-3.8-3.5-7.4-5.9-10.5
		c-6.6-8.1-16.2-12.6-28-13l-0.1,0l-0.1,0c-11.7,0.4-21.4,4.8-28,13c-2.5,3.1-4.5,6.6-5.9,10.5c-4.1,0.2-8,1-11.7,2.4
		c-9.8,3.8-17,11.6-21,22.6l-0.1,0.2c-3.3,11.2-2,21.8,3.7,30.6c2.1,3.3,4.9,6.3,8.1,8.9c-1.1,3.9-1.5,7.9-1.3,11.8
		c0.5,10.4,5.7,19.7,15,26.9l0.1,0.1c6.9,4.7,14.2,7.1,21.5,7.1c2.9,0,5.8-0.4,8.7-1.2c3.8-1,7.4-2.7,10.9-4.9
		c3.4,2.2,7.1,3.9,10.9,4.9c2.9,0.8,5.8,1.2,8.7,1.2c7.3,0,14.6-2.4,21.5-7.1l0.1-0.1c9.3-7.2,14.4-16.5,15-26.9
		c0.2-3.9-0.3-7.9-1.3-11.8c3.2-2.6,5.9-5.6,8.1-8.9C244.2,97.5,245.4,86.9,242.2,75.7 M175.4,147.8c-4.6-3.8-8.6-8.8-11.5-14.6
		c-5-10.2-6.7-20.5-5.4-29.1c4.3,11.5,16.3,19.2,31.5,21.1c-0.9,2.7-1.9,5.3-3.2,8C184.1,139,180.1,144,175.4,147.8 M145,74.8
		c-1.1-6.4-0.9-12.7,0.6-18.5c6,0.3,12.1,2,17.9,5.1c9.9,5.3,17.4,12.5,21.4,20.2c-10.3-6.6-24.4-5.8-37.8,1.6
		C146.3,80.5,145.6,77.7,145,74.8 M205.9,74.8c-2,11.2-6.6,20.5-12.7,26.7c3.2-11.8-2-25-13.2-35.5c2.3-1.7,4.8-3.2,7.4-4.6
		c5.7-3.1,11.9-4.8,17.9-5.1C206.7,62,207,68.4,205.9,74.8 M175.4,84.8c6.8,0,12.4,5.6,12.4,12.4c0,6.8-5.6,12.4-12.4,12.4
		c0,0,0,0,0,0c-6.8,0-12.4-5.6-12.4-12.4S168.6,84.8,175.4,84.8 M163.7,83.3c-9.6,7.7-13.2,21.5-10.3,36.6c-2.8,0-5.7-0.2-8.6-0.6
		c-6.4-0.9-12.4-3.1-17.5-6.4c2.2-5.6,5.7-11,10.4-15.5C145.9,89.5,155.1,84.7,163.7,83.3 M176.7,115.3c12.3-0.5,23.3-9.5,29.8-23.5
		c2.3,1.7,4.5,3.5,6.6,5.5c4.7,4.5,8.3,9.9,10.4,15.5c-5,3.2-11,5.5-17.4,6.3C194.8,120.8,184.5,119.3,176.7,115.3 M151.9,43.7
		c5.5-6.8,13.6-10.5,23.5-10.8c9.9,0.3,18.1,4.1,23.5,10.8c1.7,2.1,3.1,4.4,4.2,6.9c-6.3,0.6-12.7,2.5-18.6,5.7
		c-3.3,1.8-6.3,3.7-9.2,5.9c-2.8-2.1-5.9-4.1-9.2-5.9c-5.9-3.2-12.3-5.1-18.6-5.7C148.8,48.1,150.2,45.8,151.9,43.7 M117.3,103.1
		c-4.7-7.3-5.8-16.2-3-25.7c3.4-9.3,9.5-15.9,17.6-19c2.5-0.9,5.1-1.6,7.8-1.9c-1.4,6.1-1.5,12.8-0.3,19.4c0.7,3.6,1.6,7.2,2.8,10.5
		c-2.9,2-5.7,4.3-8.4,6.9c-4.9,4.7-8.7,10.2-11.2,16C120.5,107.4,118.7,105.3,117.3,103.1 M163.1,154.3c-8.4,2.2-17.2,0.5-25.4-5.1
		c-7.8-6.1-12.2-13.9-12.7-22.6c-0.1-2.6,0.1-5.3,0.6-7.9c5.4,3.2,11.7,5.4,18.4,6.3c3.1,0.4,6.3,0.6,9.3,0.6c0.5,0,1,0,1.5,0
		c1,3.3,2.3,6.7,3.9,10.1c2.9,6.1,7,11.4,11.7,15.5C168.1,152.5,165.6,153.6,163.1,154.3 M225.9,126.6c-0.5,8.7-4.9,16.5-12.7,22.6
		c-8.2,5.6-17,7.3-25.4,5.1c-2.6-0.7-5-1.7-7.4-3.1c4.8-4.2,8.8-9.5,11.7-15.5c1.6-3.3,2.9-6.7,3.9-10.1c0.5,0,1,0,1.6,0
		c3,0,6.1-0.2,9.3-0.6c6.7-0.9,12.9-3.1,18.3-6.3C225.8,121.3,226,124,225.9,126.6 M233.6,103.1c-1.4,2.2-3.2,4.3-5.3,6.1
		c-2.5-5.8-6.3-11.3-11.2-16c-2.7-2.6-5.5-4.9-8.4-6.9c1.2-3.3,2.1-6.8,2.8-10.5c1.2-6.6,1-13.2-0.4-19.4c2.7,0.3,5.4,0.9,7.8,1.9
		c8.1,3.1,14.2,9.7,17.6,19C239.4,86.9,238.3,95.8,233.6,103.1"/>
	<rect x="103.7" y="186" class="st0" width="3.2" height="23.8"/>
	<path class="st0" d="M143.6,209.2c-1.8-0.6-3.1-1.3-4.1-2.1l1.5-2.5c1,0.8,2.2,1.4,3.8,1.9c1.5,0.5,3.1,0.7,4.7,0.7
		c2.2,0,3.8-0.3,4.8-1c1-0.7,1.6-1.6,1.6-2.9c0-0.9-0.3-1.6-0.9-2.1c-0.6-0.5-1.3-0.9-2.2-1.1c-0.9-0.3-2-0.5-3.5-0.7
		c-1.9-0.4-3.5-0.7-4.7-1.1c-1.2-0.4-2.2-1-3-1.9s-1.2-2.2-1.2-3.8c0-2,0.8-3.6,2.5-4.9c1.7-1.3,4-1.9,6.9-1.9
		c1.5,0,3.1,0.2,4.6,0.6c1.5,0.4,2.8,0.9,3.8,1.6l-1.4,2.6c-2-1.4-4.3-2-7-2c-2.1,0-3.6,0.4-4.6,1.1c-1,0.7-1.6,1.7-1.6,2.9
		c0,0.9,0.3,1.6,0.9,2.2c0.6,0.5,1.3,0.9,2.2,1.2c0.9,0.3,2.1,0.5,3.6,0.8c1.9,0.4,3.4,0.7,4.6,1.1c1.1,0.4,2.1,1,2.9,1.9
		c0.8,0.9,1.2,2.1,1.2,3.6c0,2.1-0.9,3.7-2.6,5c-1.7,1.2-4.1,1.8-7.2,1.8C147.2,210,145.4,209.7,143.6,209.2"/>
	<polygon class="st0" points="87.6,209.8 98,186 94.7,186 86,206 77.2,186 73.9,186 84.3,209.8 	"/>
	<polygon class="st0" points="123.1,186 112.6,209.8 115.9,209.8 124.7,189.7 133.5,209.8 136.8,209.8 126.3,186 	"/>
	<polygon class="st0" points="185.9,186 185.9,209.8 185.2,209.8 185.2,198 167.8,198 167.8,209.8 167.1,209.8 167.1,186 167.8,186 
		167.8,197.4 185.2,197.4 185.2,186 	"/>
	<path class="st0" d="M197.1,208.3c-1.9-1-3.3-2.5-4.4-4.3c-1.1-1.8-1.6-3.9-1.6-6.1c0-2.3,0.5-4.3,1.6-6.1c1.1-1.8,2.5-3.3,4.4-4.3
		c1.9-1,3.9-1.6,6.2-1.6c2.3,0,4.4,0.5,6.2,1.6c1.9,1,3.3,2.5,4.4,4.3c1.1,1.8,1.6,3.9,1.6,6.1c0,2.3-0.5,4.3-1.6,6.1
		c-1.1,1.8-2.5,3.3-4.4,4.3c-1.9,1-3.9,1.6-6.2,1.6C201.1,209.9,199,209.4,197.1,208.3 M209.2,207.8c1.8-1,3.1-2.3,4.2-4.1
		c1-1.7,1.5-3.7,1.5-5.8c0-2.1-0.5-4.1-1.5-5.8c-1-1.7-2.4-3.1-4.2-4.1c-1.8-1-3.7-1.5-5.9-1.5c-2.2,0-4.1,0.5-5.9,1.5
		c-1.8,1-3.1,2.3-4.2,4.1c-1,1.7-1.5,3.7-1.5,5.8c0,2.1,0.5,4.1,1.5,5.8c1,1.7,2.4,3.1,4.2,4.1c1.8,1,3.7,1.5,5.9,1.5
		C205.5,209.2,207.5,208.7,209.2,207.8"/>
	<polygon class="st0" points="223.9,186.6 215.1,186.6 215.1,186 233.5,186 233.5,186.6 224.6,186.6 224.6,209.8 223.9,209.8 	"/>
	<polygon class="st0" points="255.1,209.1 255.1,209.8 239.2,209.8 239.2,186 254.6,186 254.6,186.6 239.9,186.6 239.9,197.4 
		253,197.4 253,198 239.9,198 239.9,209.1 	"/>
	<polygon class="st0" points="262.1,186 262.8,186 262.8,209.1 277,209.1 277,209.8 262.1,209.8 	"/>
	<polygon class="st0" points="146.7,219.6 142,230 141.7,230 137,219.6 137.3,219.6 141.8,229.6 146.4,219.6 	"/>
	<path class="st0" d="M149.8,229c-0.7-0.7-1.1-1.9-1.1-3.3v-6.1h0.3v6.1c0,1.4,0.3,2.4,1,3.1c0.6,0.7,1.6,1,2.8,1
		c1.2,0,2.1-0.3,2.8-1c0.6-0.7,1-1.7,1-3.1v-6.1h0.3v6.1c0,1.5-0.4,2.6-1.1,3.3c-0.7,0.7-1.7,1.1-3,1.1
		C151.5,230.1,150.5,229.7,149.8,229"/>
	<polygon class="st0" points="169,219.6 169,230 168.7,230 161,220.1 161,230 160.7,230 160.7,219.6 161,219.6 168.7,229.5 
		168.7,219.6 	"/>
	<path class="st0" d="M180.6,224.9h0.3v3.8c-0.4,0.4-1,0.8-1.6,1c-0.6,0.2-1.3,0.3-2,0.3c-1,0-2-0.2-2.8-0.7
		c-0.8-0.5-1.5-1.1-1.9-1.9c-0.5-0.8-0.7-1.7-0.7-2.7s0.2-1.9,0.7-2.7c0.5-0.8,1.1-1.4,1.9-1.9c0.8-0.5,1.8-0.7,2.8-0.7
		c0.7,0,1.4,0.1,2,0.3c0.6,0.2,1.1,0.6,1.6,1l-0.2,0.2c-0.9-0.8-2-1.3-3.4-1.3c-1,0-1.8,0.2-2.6,0.7c-0.8,0.4-1.4,1-1.8,1.8
		c-0.4,0.8-0.7,1.6-0.7,2.5s0.2,1.8,0.7,2.5c0.4,0.8,1.1,1.4,1.8,1.8c0.8,0.4,1.7,0.7,2.6,0.7c1.4,0,2.5-0.4,3.3-1.2V224.9z"/>
	<polygon class="st0" points="190.2,219.8 186.4,219.8 186.4,219.6 194.4,219.6 194.4,219.8 190.5,219.8 190.5,230 190.2,230 	"/>
	<path class="st0" d="M202.3,226.9h-6.4l-1.5,3.2h-0.3l4.9-10.5h0.3l4.9,10.5h-0.3L202.3,226.9z M202.2,226.6l-3.1-6.6l-3.1,6.6
		H202.2z"/>
	<path class="st0" d="M206.9,229c-0.7-0.7-1.1-1.9-1.1-3.3v-6.1h0.3v6.1c0,1.4,0.3,2.4,1,3.1c0.6,0.7,1.6,1,2.8,1
		c1.2,0,2.1-0.3,2.8-1c0.6-0.7,1-1.7,1-3.1v-6.1h0.3v6.1c0,1.5-0.4,2.6-1.1,3.3c-0.7,0.7-1.7,1.1-3,1.1
		C208.6,230.1,207.6,229.7,206.9,229"/>
</g>
</svg>
