<?xml version="1.0" encoding="utf-8"?>
<!-- Generator: Adobe Illustrator 21.1.0, SVG Export Plug-In . SVG Version: 6.00 Build 0)  -->
<svg version="1.1" id="Layer_1" xmlns="http://www.w3.org/2000/svg" xmlns:xlink="http://www.w3.org/1999/xlink" x="0px" y="0px"
	 viewBox="0 0 350 255.1" style="enable-background:new 0 0 350 255.1;" xml:space="preserve">
<style type="text/css">
	.st0{fill:#1F191A;}
</style>
<g>
	<path class="st0" d="M175.5,125c0.4,0.2,0.5,0.7,0.1,0.9c-0.3,0.2-0.5,0.4-0.8,0.6c-0.1,0.1-0.2,0.2-0.4,0.3
		c-0.6,0.5-1.2,1-1.8,1.5c-2.1,1.9-3.8,4.2-5.2,6.8c0,0,0,0,0,0.1c-0.2,0.3-0.6,0.4-1,0.3c-0.4-0.2-0.6-0.6-0.5-1c0,0,0-0.1,0.1-0.2
		c1-2,2.3-3.8,3.7-5.4c0.1-0.2,0-0.4-0.2-0.4c-1.5,0.2-2.9,0.5-4.4,0.9c-0.2,0-0.3,0.2-0.4,0.3c-0.4,1.1-0.8,2.2-1.3,3.3
		c0,0,0,0.1,0,0.1s0,0.1,0,0.1c-0.2,0.3-0.6,0.4-0.9,0.3c-0.4-0.2-0.6-0.6-0.5-1c0,0,0,0,0,0v0c0.2-0.5,0.5-1.1,0.7-1.7
		c0.1-0.2-0.1-0.4-0.3-0.3c-0.7,0.3-1.3,0.6-2,1c0,0,0,0-0.1,0c-0.2,0.1-0.4,0.1-0.6,0c-0.4-0.2-0.6-0.6-0.5-1
		c0.1-0.2,0.2-0.3,0.3-0.4c0,0,0,0,0.1,0c1.2-0.7,2.5-1.2,3.9-1.7c0.6-0.2,1.2-0.4,1.8-0.6c2-0.6,4.2-0.9,6.3-0.9
		c0.1,0,0.2,0,0.3-0.1l0.4-0.4c0.2-0.1,0.1-0.4-0.1-0.4c-2.2-0.5-4.4-0.7-6.5-0.6c-0.6,0-1.1,0-1.7,0.1c-1.2,0.1-2.3,0.3-3.4,0.6
		c-0.4,0.1-0.8,0.2-1.2,0.3c-0.1,0-0.2,0-0.2,0c-0.1,0-0.2,0-0.3,0c-0.4-0.2-0.6-0.6-0.5-1c0.1-0.2,0.2-0.4,0.4-0.4c0,0,0,0,0,0
		c0,0,0.1,0,0.1,0l0,0c1.7-0.5,3.5-0.8,5.3-1c0.5,0,1.1-0.1,1.6-0.1c2.3,0,4.7,0.2,7.1,0.8c0.4,0.1,0.9,0.2,1.3,0.4
		C174.9,124.8,175.2,124.9,175.5,125"/>
	<path class="st0" d="M184.2,121.6c0.4-0.2,0.8,0.2,0.7,0.6c-0.1,0.3-0.1,0.6-0.2,1c0,0.2,0,0.3,0,0.5c-0.1,0.8-0.2,1.6-0.2,2.4
		c-0.1,2.8,0.3,5.7,1.2,8.4c0,0,0,0,0,0.1c0.1,0.4-0.1,0.8-0.4,0.9c-0.4,0.2-0.9,0-1-0.4c0,0,0-0.1,0-0.2c-0.7-2.1-1.1-4.3-1.2-6.5
		c0-0.2-0.3-0.3-0.4-0.1c-0.9,1.2-1.7,2.4-2.4,3.7c-0.1,0.2-0.1,0.3,0,0.5c0.6,1,1,2.1,1.4,3.3c0,0,0,0.1,0,0.1c0,0,0,0.1,0,0.1
		c0,0.4-0.1,0.7-0.5,0.8c-0.4,0.2-0.9,0-1.1-0.4v0v0c-0.2-0.6-0.4-1.1-0.6-1.7c-0.1-0.2-0.4-0.2-0.5,0c-0.3,0.7-0.5,1.4-0.7,2.1
		c0,0,0,0.1,0,0.1c-0.1,0.2-0.2,0.4-0.4,0.4c-0.4,0.2-0.9,0-1-0.4c-0.1-0.2-0.1-0.4,0-0.5c0,0,0-0.1,0-0.1c0.4-1.4,0.9-2.7,1.5-4
		c0.3-0.6,0.6-1.1,0.9-1.7c1-1.8,2.3-3.5,3.8-5.1c0.1-0.1,0.1-0.2,0.1-0.3l0-0.6c0-0.2-0.2-0.3-0.4-0.2c-1.9,1.2-3.6,2.6-5,4.1
		c-0.4,0.4-0.7,0.8-1.1,1.2c-0.7,0.9-1.4,1.9-2,2.8c-0.2,0.4-0.4,0.8-0.6,1.1c0,0.1-0.1,0.2-0.1,0.2c-0.1,0.1-0.2,0.2-0.3,0.2
		c-0.4,0.2-0.9,0-1-0.4c-0.1-0.2-0.1-0.4,0-0.6l0,0c0,0,0-0.1,0-0.1l0,0c0.8-1.6,1.9-3.1,3.1-4.5c0.4-0.4,0.7-0.8,1.1-1.2
		c1.6-1.7,3.5-3.2,5.6-4.4c0.4-0.2,0.8-0.4,1.2-0.7C183.6,121.9,183.9,121.8,184.2,121.6"/>
	<path class="st0" d="M188,113.1c0.2-0.4,0.7-0.5,0.9-0.1c0.2,0.3,0.4,0.5,0.6,0.8c0.1,0.1,0.2,0.2,0.3,0.4c0.5,0.6,1,1.2,1.5,1.8
		c1.9,2.1,4.2,3.8,6.8,5.2c0,0,0,0,0.1,0c0.3,0.2,0.4,0.6,0.3,1c-0.2,0.4-0.6,0.6-1,0.5c0,0-0.1,0-0.2-0.1c-2-1-3.8-2.3-5.4-3.7
		c-0.2-0.2-0.4,0-0.4,0.2c0.2,1.5,0.5,2.9,0.9,4.4c0,0.2,0.2,0.3,0.3,0.4c1.1,0.4,2.2,0.8,3.3,1.3c0,0,0.1,0,0.1,0c0,0,0.1,0,0.1,0
		c0.3,0.2,0.4,0.6,0.3,0.9c-0.2,0.4-0.6,0.6-1,0.5c0,0,0,0,0,0h0c-0.5-0.2-1.1-0.5-1.7-0.7c-0.2-0.1-0.4,0.1-0.3,0.3
		c0.3,0.7,0.6,1.3,1,2c0,0,0,0,0,0.1c0.1,0.2,0.1,0.4,0,0.6c-0.2,0.4-0.6,0.6-1,0.5c-0.2-0.1-0.3-0.2-0.4-0.3c0,0,0,0,0-0.1
		c-0.7-1.2-1.2-2.5-1.7-3.9c-0.2-0.6-0.4-1.2-0.6-1.8c-0.6-2-0.9-4.2-0.9-6.3c0-0.1,0-0.2-0.1-0.3l-0.4-0.4
		c-0.1-0.1-0.4-0.1-0.4,0.1c-0.5,2.2-0.7,4.4-0.6,6.5c0,0.6,0,1.1,0.1,1.7c0.1,1.2,0.3,2.3,0.6,3.4c0.1,0.4,0.2,0.8,0.3,1.2
		c0,0.1,0,0.2,0,0.2c0,0.1,0,0.2,0,0.3c-0.2,0.4-0.6,0.6-1,0.5c-0.2-0.1-0.4-0.2-0.4-0.4c0,0,0,0,0,0c0,0,0-0.1,0-0.1l0,0
		c-0.5-1.7-0.8-3.5-1-5.3c0-0.5-0.1-1.1-0.1-1.6c0-2.3,0.2-4.7,0.8-7.1c0.1-0.4,0.2-0.9,0.4-1.3C187.8,113.7,187.9,113.4,188,113.1"
		/>
	<path class="st0" d="M184.7,104.4c-0.2-0.4,0.2-0.8,0.6-0.7c0.3,0.1,0.6,0.1,1,0.2c0.2,0,0.3,0,0.5,0c0.8,0.1,1.6,0.2,2.4,0.2
		c2.8,0.1,5.7-0.3,8.4-1.2c0,0,0,0,0.1,0c0.4-0.1,0.8,0.1,0.9,0.4c0.2,0.4,0,0.9-0.4,1c0,0-0.1,0-0.2,0c-2.1,0.7-4.3,1.1-6.5,1.2
		c-0.2,0-0.3,0.3-0.1,0.4c1.2,0.9,2.4,1.7,3.7,2.4c0.2,0.1,0.3,0.1,0.5,0c1-0.6,2.1-1,3.3-1.4c0,0,0.1,0,0.1,0c0,0,0.1,0,0.1,0
		c0.4,0,0.7,0.1,0.8,0.5c0.2,0.4,0,0.9-0.4,1.1h0h0c-0.6,0.2-1.1,0.4-1.7,0.6c-0.2,0.1-0.2,0.4,0,0.5c0.7,0.3,1.4,0.5,2.1,0.7
		c0,0,0.1,0,0.1,0c0.2,0.1,0.4,0.2,0.4,0.4c0.2,0.4,0,0.9-0.4,1c-0.2,0.1-0.4,0.1-0.5,0c0,0-0.1,0-0.1,0c-1.4-0.4-2.7-0.9-4-1.5
		c-0.6-0.3-1.1-0.6-1.7-0.9c-1.8-1-3.5-2.3-5.1-3.8c-0.1-0.1-0.2-0.1-0.3-0.1l-0.6,0c-0.2,0-0.3,0.2-0.2,0.4c1.2,1.9,2.6,3.6,4.1,5
		c0.4,0.4,0.8,0.7,1.2,1.1c0.9,0.7,1.9,1.4,2.8,2c0.4,0.2,0.8,0.4,1.1,0.6c0.1,0,0.2,0.1,0.2,0.1c0.1,0.1,0.2,0.2,0.2,0.3
		c0.2,0.4,0,0.9-0.4,1c-0.2,0.1-0.4,0.1-0.6,0l0,0c0,0-0.1,0-0.1,0l0,0c-1.6-0.8-3.1-1.9-4.5-3.1c-0.4-0.4-0.8-0.7-1.2-1.1
		c-1.7-1.6-3.2-3.5-4.4-5.6c-0.2-0.4-0.4-0.8-0.7-1.2C185,105,184.8,104.7,184.7,104.4"/>
	<path class="st0" d="M176.2,100.6c-0.4-0.2-0.5-0.7-0.1-0.9c0.3-0.2,0.5-0.4,0.8-0.6c0.1-0.1,0.2-0.2,0.4-0.3
		c0.6-0.5,1.2-1,1.8-1.5c2.1-1.9,3.8-4.2,5.2-6.8c0,0,0,0,0-0.1c0.2-0.3,0.6-0.4,1-0.3c0.4,0.2,0.6,0.6,0.5,1c0,0,0,0.1-0.1,0.2
		c-1,2-2.3,3.8-3.7,5.4c-0.2,0.2,0,0.4,0.2,0.4c1.5-0.2,2.9-0.5,4.4-0.9c0.2,0,0.3-0.2,0.4-0.3c0.4-1.1,0.8-2.2,1.3-3.3
		c0,0,0-0.1,0-0.1c0,0,0-0.1,0-0.1c0.2-0.3,0.6-0.4,0.9-0.3c0.4,0.2,0.6,0.6,0.5,1c0,0,0,0,0,0v0c-0.2,0.5-0.5,1.1-0.7,1.7
		c-0.1,0.2,0.1,0.4,0.3,0.3c0.7-0.3,1.3-0.6,2-1c0,0,0,0,0.1,0c0.2-0.1,0.4-0.1,0.6,0c0.4,0.2,0.6,0.6,0.5,1
		c-0.1,0.2-0.2,0.3-0.3,0.4c0,0,0,0-0.1,0c-1.2,0.7-2.5,1.2-3.9,1.7c-0.6,0.2-1.2,0.4-1.8,0.6c-2,0.6-4.2,0.9-6.3,0.9
		c-0.1,0-0.2,0-0.3,0.1l-0.4,0.4c-0.1,0.1-0.1,0.4,0.1,0.4c2.2,0.5,4.4,0.7,6.5,0.6c0.6,0,1.1,0,1.7-0.1c1.2-0.1,2.3-0.3,3.4-0.6
		c0.4-0.1,0.8-0.2,1.2-0.3c0.1,0,0.2,0,0.2,0c0.1,0,0.2,0,0.3,0c0.4,0.2,0.6,0.6,0.5,1c-0.1,0.2-0.2,0.4-0.4,0.4l0,0
		c0,0-0.1,0-0.1,0l0,0c-1.7,0.5-3.5,0.8-5.3,1c-0.5,0-1.1,0.1-1.6,0.1c-2.3,0-4.7-0.2-7.1-0.8c-0.4-0.1-0.9-0.2-1.3-0.4
		C176.8,100.8,176.5,100.7,176.2,100.6"/>
	<path class="st0" d="M167.5,103.9c-0.4,0.2-0.8-0.2-0.7-0.6c0.1-0.3,0.1-0.6,0.2-1c0-0.2,0-0.3,0-0.5c0.1-0.8,0.2-1.6,0.2-2.4
		c0.1-2.8-0.3-5.7-1.2-8.4c0,0,0,0,0-0.1c-0.1-0.4,0.1-0.8,0.4-0.9c0.4-0.2,0.9,0,1,0.4c0,0,0,0.1,0,0.2c0.7,2.1,1.1,4.3,1.2,6.5
		c0,0.2,0.3,0.3,0.4,0.1c0.9-1.2,1.7-2.4,2.4-3.7c0.1-0.2,0.1-0.3,0-0.5c-0.6-1-1-2.1-1.4-3.3c0,0,0-0.1,0-0.1c0,0,0-0.1,0-0.1
		c0-0.4,0.1-0.7,0.5-0.8c0.4-0.2,0.9,0,1.1,0.4v0v0c0.2,0.6,0.4,1.1,0.6,1.7c0.1,0.2,0.4,0.2,0.5,0c0.3-0.7,0.5-1.4,0.7-2.1
		c0,0,0-0.1,0-0.1c0.1-0.2,0.2-0.4,0.4-0.4c0.4-0.2,0.9,0,1,0.4c0.1,0.2,0.1,0.4,0,0.5c0,0,0,0.1,0,0.1c-0.4,1.4-0.9,2.7-1.5,4
		c-0.3,0.6-0.6,1.1-0.9,1.7c-1,1.8-2.3,3.5-3.8,5.1c-0.1,0.1-0.1,0.2-0.1,0.3l0,0.6c0,0.2,0.2,0.3,0.4,0.2c1.9-1.2,3.6-2.6,5-4.1
		c0.4-0.4,0.7-0.8,1.1-1.2c0.7-0.9,1.4-1.9,2-2.8c0.2-0.4,0.4-0.8,0.6-1.1c0-0.1,0.1-0.2,0.1-0.2c0.1-0.1,0.2-0.2,0.3-0.2
		c0.4-0.2,0.9,0,1,0.4c0.1,0.2,0.1,0.4,0,0.6l0,0c0,0,0,0.1,0,0.1l0,0c-0.8,1.6-1.9,3.1-3.1,4.5c-0.4,0.4-0.7,0.8-1.1,1.2
		c-1.6,1.7-3.5,3.2-5.6,4.4c-0.4,0.2-0.8,0.4-1.2,0.7C168,103.7,167.8,103.8,167.5,103.9"/>
	<path class="st0" d="M163.7,112.5c-0.2,0.4-0.7,0.5-0.9,0.1c-0.2-0.3-0.4-0.5-0.6-0.8c-0.1-0.1-0.2-0.2-0.3-0.4
		c-0.5-0.6-1-1.2-1.5-1.8c-1.9-2.1-4.2-3.8-6.8-5.2c0,0,0,0-0.1,0c-0.3-0.2-0.4-0.6-0.3-1c0.2-0.4,0.6-0.6,1-0.5c0,0,0.1,0,0.2,0.1
		c2,1,3.8,2.3,5.4,3.7c0.2,0.2,0.4,0,0.4-0.2c-0.2-1.5-0.5-2.9-0.9-4.4c0-0.2-0.2-0.3-0.3-0.4c-1.1-0.4-2.2-0.8-3.3-1.3
		c0,0-0.1,0-0.1,0c0,0-0.1,0-0.1,0c-0.3-0.2-0.4-0.6-0.3-0.9c0.2-0.4,0.6-0.6,1-0.5c0,0,0,0,0,0h0c0.5,0.2,1.1,0.5,1.7,0.7
		c0.2,0.1,0.4-0.1,0.3-0.3c-0.3-0.7-0.6-1.3-1-2c0,0,0,0,0-0.1c-0.1-0.2-0.1-0.4,0-0.6c0.2-0.4,0.6-0.6,1-0.5
		c0.2,0.1,0.3,0.2,0.4,0.3c0,0,0,0,0,0.1c0.7,1.2,1.2,2.5,1.7,3.9c0.2,0.6,0.4,1.2,0.6,1.8c0.6,2,0.9,4.1,0.9,6.3
		c0,0.1,0,0.2,0.1,0.3l0.4,0.4c0.1,0.1,0.4,0.1,0.4-0.1c0.5-2.2,0.7-4.4,0.6-6.5c0-0.6,0-1.1-0.1-1.7c-0.1-1.2-0.3-2.3-0.6-3.4
		c-0.1-0.4-0.2-0.8-0.3-1.2c0-0.1,0-0.2,0-0.2c0-0.1,0-0.2,0-0.3c0.2-0.4,0.6-0.6,1-0.5c0.2,0.1,0.4,0.2,0.4,0.4l0,0
		c0,0,0,0.1,0,0.1l0,0c0.5,1.7,0.8,3.5,1,5.3c0,0.5,0.1,1.1,0.1,1.6c0,2.3-0.2,4.7-0.8,7.1c-0.1,0.4-0.2,0.9-0.4,1.3
		C163.9,111.9,163.8,112.2,163.7,112.5"/>
	<path class="st0" d="M167,121.2c0.2,0.4-0.2,0.8-0.6,0.7c-0.3-0.1-0.6-0.1-1-0.2c-0.2,0-0.3,0-0.5,0c-0.8-0.1-1.6-0.2-2.4-0.2
		c-2.8-0.1-5.7,0.3-8.4,1.2c0,0,0,0-0.1,0c-0.4,0.1-0.8-0.1-0.9-0.4c-0.2-0.4,0-0.9,0.4-1c0,0,0.1,0,0.2,0c2.1-0.7,4.3-1.1,6.5-1.2
		c0.2,0,0.3-0.3,0.1-0.4c-1.2-0.9-2.4-1.7-3.7-2.4c-0.2-0.1-0.3-0.1-0.5,0c-1,0.6-2.1,1-3.3,1.4c0,0-0.1,0-0.1,0c0,0-0.1,0-0.1,0
		c-0.4,0-0.7-0.1-0.8-0.5c-0.2-0.4,0-0.9,0.4-1.1h0h0c0.6-0.2,1.1-0.4,1.7-0.6c0.2-0.1,0.2-0.4,0-0.5c-0.7-0.3-1.4-0.5-2.1-0.7
		c0,0-0.1,0-0.1,0c-0.2-0.1-0.4-0.2-0.4-0.4c-0.2-0.4,0-0.9,0.4-1c0.2-0.1,0.4-0.1,0.5,0c0,0,0.1,0,0.1,0c1.4,0.4,2.7,0.9,4,1.5
		c0.6,0.3,1.1,0.6,1.7,0.9c1.8,1,3.5,2.3,5.1,3.8c0.1,0.1,0.2,0.1,0.3,0.1l0.6,0c0.2,0,0.3-0.2,0.2-0.4c-1.2-1.9-2.6-3.6-4.1-5
		c-0.4-0.4-0.8-0.7-1.2-1.1c-0.9-0.7-1.9-1.4-2.8-2c-0.4-0.2-0.8-0.4-1.1-0.6c-0.1,0-0.2-0.1-0.2-0.1c-0.1-0.1-0.2-0.2-0.2-0.3
		c-0.2-0.4,0-0.9,0.4-1c0.2-0.1,0.4-0.1,0.6,0l0,0c0,0,0.1,0,0.1,0l0,0c1.6,0.8,3.1,1.9,4.5,3.1c0.4,0.4,0.8,0.7,1.2,1.1
		c1.7,1.6,3.2,3.5,4.4,5.6c0.2,0.4,0.4,0.8,0.7,1.2C166.8,120.6,166.9,120.9,167,121.2"/>
	<polygon class="st0" points="147.6,164.9 148.4,164.9 148.4,166.4 149.9,166.4 149.9,164.9 150.8,164.9 150.8,168.7 149.9,168.7 
		149.9,167.1 148.4,167.1 148.4,168.7 147.6,168.7 	"/>
	<path class="st0" d="M151.7,166.8L151.7,166.8c0-1.1,0.8-2,2-2s2,0.9,2,1.9l0,0c0,1.1-0.8,2-2,2S151.7,167.9,151.7,166.8
		 M154.8,166.8L154.8,166.8c0-0.6-0.5-1.2-1.1-1.2c-0.7,0-1.1,0.5-1.1,1.2l0,0c0,0.6,0.5,1.2,1.1,1.2
		C154.4,168,154.8,167.4,154.8,166.8"/>
	<polygon class="st0" points="157.3,165.6 156.2,165.6 156.2,164.9 159.3,164.9 159.3,165.6 158.2,165.6 158.2,168.7 157.3,168.7 	
		"/>
	<polygon class="st0" points="160.1,164.9 163,164.9 163,165.6 160.9,165.6 160.9,166.4 162.7,166.4 162.7,167.1 160.9,167.1 
		160.9,167.9 163,167.9 163,168.7 160.1,168.7 	"/>
	<polygon class="st0" points="163.9,164.9 164.7,164.9 164.7,167.9 166.6,167.9 166.6,168.7 163.9,168.7 	"/>
	<polygon class="st0" points="169.2,164.9 169.9,164.9 171.7,167.2 171.7,164.9 172.6,164.9 172.6,168.7 171.8,168.7 170,166.2 
		170,168.7 169.2,168.7 	"/>
	<polygon class="st0" points="173.6,164.9 174.5,164.9 174.5,166.4 176,166.4 176,164.9 176.8,164.9 176.8,168.7 176,168.7 
		176,167.1 174.5,167.1 174.5,168.7 173.6,168.7 	"/>
	<path class="st0" d="M179.2,164.9h0.8l1.6,3.8h-0.9l-0.3-0.8h-1.6l-0.4,0.8h-0.8L179.2,164.9z M180.1,167.1l-0.5-1.2l-0.5,1.2
		H180.1z"/>
	<polygon class="st0" points="185,165.6 183.8,165.6 183.8,164.9 187,164.9 187,165.6 185.8,165.6 185.8,168.7 185,168.7 	"/>
	<path class="st0" d="M187.8,164.9h1.7c0.5,0,0.8,0.1,1.1,0.4c0.2,0.2,0.3,0.5,0.3,0.8l0,0c0,0.6-0.3,1-0.8,1.2l0.9,1.4h-1l-0.8-1.2
		h-0.6v1.2h-0.8V164.9z M189.5,166.7c0.4,0,0.6-0.2,0.6-0.5l0,0c0-0.4-0.2-0.5-0.6-0.5h-0.8v1.1L189.5,166.7L189.5,166.7z"/>
	<path class="st0" d="M193.1,164.9h0.8l1.6,3.8h-0.9l-0.4-0.8h-1.6l-0.4,0.8h-0.8L193.1,164.9z M194,167.1l-0.5-1.2l-0.5,1.2H194z"
		/>
	<polygon class="st0" points="196.3,164.9 197,164.9 198.8,167.2 198.8,164.9 199.6,164.9 199.6,168.7 198.9,168.7 197.1,166.2 
		197.1,168.7 196.3,168.7 	"/>
	<path class="st0" d="M200.5,166.8L200.5,166.8c0-1.1,0.8-2,2-2c0.7,0,1.1,0.2,1.5,0.5l-0.5,0.6c-0.3-0.2-0.6-0.4-1-0.4
		c-0.6,0-1.1,0.5-1.1,1.2l0,0c0,0.7,0.5,1.2,1.1,1.2c0.3,0,0.6-0.1,0.8-0.2v-0.5h-0.8v-0.7h1.7v1.7c-0.4,0.3-0.9,0.6-1.6,0.6
		C201.3,168.7,200.5,167.9,200.5,166.8"/>
	<path class="st0" d="M146.1,155.4c0-2.7-1.9-3.5-4.9-4.3c-2.5-0.6-3.7-1-3.7-2.4c0-1.3,0.9-2.1,2.9-2.1c1.5,0,2.9,0.6,3.7,1.2
		c0.2,0.2,0.5,0.1,0.6-0.1l0.6-1.2c0.1-0.2,0-0.4-0.1-0.5c-1.2-0.8-2.9-1.5-4.7-1.5c-3.1,0-5.4,1.6-5.4,4.5c0,2.3,1.5,3.2,4.4,4
		c2.5,0.7,4.1,1.1,4.1,2.6c0,1.2-1,1.9-2.9,1.9c-2,0-3.8-0.9-4.7-1.6c-0.2-0.2-0.5-0.1-0.6,0.1l-0.7,1.2c-0.1,0.2,0,0.4,0.1,0.5
		c1.7,1.2,3.7,1.8,5.8,1.8C143.7,159.7,146.1,158.4,146.1,155.4"/>
	<path class="st0" d="M154.7,152.9h5.8c0.2,0,0.4-0.2,0.4-0.4v-1.1c0-0.2-0.2-0.4-0.4-0.4h-5.8c-0.2,0-0.4-0.2-0.4-0.4v-3.4
		c0-0.2,0.2-0.4,0.4-0.4h6.9c0.2,0,0.4-0.2,0.4-0.4v-1.3c0-0.2-0.2-0.4-0.4-0.4h-9.2c-0.2,0-0.4,0.2-0.4,0.4v14
		c0,0.2,0.2,0.4,0.4,0.4h9.4c0.2,0,0.4-0.2,0.4-0.4v-1.3c0-0.2-0.2-0.4-0.4-0.4h-7c-0.2,0-0.4-0.2-0.4-0.4v-3.7
		C154.3,153.1,154.4,152.9,154.7,152.9"/>
	<path class="st0" d="M188.5,150l7.6,9.4c0.1,0.1,0.2,0.2,0.3,0.2h1.4c0.2,0,0.4-0.2,0.4-0.4v-14c0-0.2-0.2-0.4-0.4-0.4h-1.6
		c-0.2,0-0.4,0.2-0.4,0.4v9.1c0,0.4-0.5,0.5-0.7,0.2l-7.7-9.6c-0.1-0.1-0.2-0.2-0.3-0.2h-1.2c-0.2,0-0.4,0.2-0.4,0.4v14
		c0,0.2,0.2,0.4,0.4,0.4h1.5c0.2,0,0.4-0.2,0.4-0.4v-8.9C187.8,149.8,188.3,149.7,188.5,150"/>
	<path class="st0" d="M180,159c0.1,0.2-0.1,0.5-0.4,0.5h-1.5c-0.2,0-0.4-0.1-0.4-0.3l-0.6-1.7c0-0.1-0.1-0.2-0.2-0.2
		c-0.5-0.2-1-0.4-1.5-0.5c-0.1,0-0.2,0-0.3-0.1l0,0c-0.1,0-0.2,0-0.2,0c-0.1,0-0.2,0-0.4,0s-0.2-0.1-0.3-0.2l-0.2-0.3
		c-0.1-0.2-0.1-0.1-0.2-0.4l-0.2-0.6c-0.1-0.3,0.1-0.6,0.4-0.5c0.5,0,1,0.1,1.5,0.2l0.2,0c0.2,0,0.4-0.2,0.3-0.3l-0.2-0.7l-0.2-0.5
		l-1.5-4l-0.3-0.9c-0.1-0.3-0.6-0.4-0.7,0l-2.1,5.4l0,0l-2.1,5.4c-0.1,0.2-0.2,0.3-0.4,0.3H167c-0.3,0-0.5-0.3-0.4-0.5l5.6-14
		c0.1-0.2,0.2-0.2,0.4-0.2h1.5c0.2,0,0.3,0.1,0.4,0.2l0.6,1.6l3.1,7.9l0.6,1.5l0.7,1.9L180,159z"/>
	<path class="st0" d="M217,159c0.1,0.2-0.1,0.5-0.4,0.5h-1.5c-0.2,0-0.4-0.1-0.4-0.3l-0.6-1.7c0-0.1-0.1-0.2-0.2-0.2
		c-0.5-0.2-1-0.4-1.5-0.5c-0.1,0-0.2,0-0.3-0.1l0,0c-0.1,0-0.2,0-0.2,0c-0.1,0-0.2,0-0.4,0c-0.1,0-0.2-0.1-0.3-0.2l-0.2-0.3
		c-0.1-0.2-0.1-0.1-0.2-0.4l-0.2-0.6c-0.1-0.3,0.1-0.6,0.4-0.5c0.5,0,1,0.1,1.5,0.2l0.2,0c0.2,0,0.4-0.2,0.3-0.3l-0.2-0.7l-0.2-0.5
		l-1.5-4l-0.3-0.9c-0.1-0.3-0.6-0.4-0.7,0l-2.1,5.4l0,0l-2.1,5.4c-0.1,0.2-0.2,0.3-0.4,0.3H204c-0.3,0-0.5-0.3-0.4-0.5l5.6-14
		c0-0.2,0.2-0.2,0.4-0.2h1.5c0.2,0,0.3,0.1,0.4,0.2l0.6,1.6l3.1,7.9l0.6,1.5l0.7,1.9L217,159z"/>
</g>
</svg>
