<?xml version="1.0" encoding="utf-8"?>
<!-- Generator: Adobe Illustrator 21.1.0, SVG Export Plug-In . SVG Version: 6.00 Build 0)  -->
<svg version="1.1" id="Layer_1" xmlns="http://www.w3.org/2000/svg" xmlns:xlink="http://www.w3.org/1999/xlink" x="0px" y="0px"
	 viewBox="0 0 350 255.1" style="enable-background:new 0 0 350 255.1;" xml:space="preserve">
<style type="text/css">
	.st0{fill:#1F191A;}
</style>
<g>
	<path class="st0" d="M175.1,119.7c1,0.4,1.2,1.7,0.3,2.3c-0.7,0.4-1.3,0.9-2,1.4c-0.3,0.2-0.6,0.5-0.9,0.7
		c-1.6,1.2-3.1,2.5-4.5,3.8c-5.1,4.8-9.5,10.4-12.8,16.8c0,0.1-0.1,0.1-0.1,0.2c-0.5,0.8-1.5,1.1-2.4,0.8c-1-0.4-1.6-1.5-1.2-2.6
		c0.1-0.1,0.1-0.3,0.2-0.4c2.5-4.9,5.7-9.5,9.3-13.5c0.3-0.4,0-1-0.5-1c-3.7,0.4-7.3,1.2-10.8,2.2c-0.4,0.1-0.7,0.4-0.9,0.8
		c-0.9,2.8-2,5.5-3.2,8.2c-0.1,0.1-0.1,0.2-0.1,0.3c0,0.1-0.1,0.2-0.1,0.2c-0.5,0.7-1.5,1-2.3,0.7c-1-0.4-1.6-1.5-1.2-2.6
		c0,0,0-0.1,0.1-0.1c0,0,0-0.1,0-0.1c0.6-1.3,1.3-2.7,1.8-4.1c0.2-0.5-0.3-1-0.8-0.8c-1.7,0.7-3.3,1.5-4.9,2.4
		c-0.1,0-0.1,0.1-0.2,0.1c-0.5,0.2-1,0.2-1.5,0c-1-0.4-1.5-1.5-1.2-2.6c0.2-0.4,0.5-0.8,0.8-1c0.1,0,0.1-0.1,0.2-0.1
		c3.1-1.7,6.3-3.1,9.6-4.3c1.5-0.5,3-1,4.5-1.4c5-1.4,10.3-2.2,15.6-2.3c0.3,0,0.6-0.1,0.8-0.3l1.1-0.9c0.4-0.3,0.2-0.9-0.2-1
		c-5.4-1.3-10.8-1.8-16.1-1.6c-1.4,0-2.7,0.1-4.1,0.3c-2.9,0.3-5.7,0.8-8.5,1.4c-1.1,0.3-2.1,0.5-3.1,0.8c-0.3,0.1-0.4,0.1-0.6,0.1
		c-0.2,0-0.6,0-0.8-0.1c-1-0.4-1.5-1.5-1.2-2.6c0.2-0.5,0.6-0.9,1.1-1.1c0,0,0,0,0.1,0c0.1,0,0.2-0.1,0.3-0.1c0,0,0,0,0,0
		c4.3-1.3,8.7-2.1,13.2-2.5c1.3-0.1,2.7-0.2,4-0.2c5.8-0.1,11.7,0.5,17.6,2c1.1,0.3,2.2,0.6,3.3,0.9
		C173.6,119.2,174.3,119.5,175.1,119.7"/>
	<path class="st0" d="M196.6,111.4c1-0.5,2,0.4,1.8,1.4c-0.2,0.8-0.3,1.6-0.4,2.4c-0.1,0.4-0.1,0.8-0.1,1.2
		c-0.3,1.9-0.4,3.9-0.5,5.9c-0.2,7,0.7,14.1,2.9,20.9c0,0.1,0.1,0.1,0.1,0.2c0.2,0.9-0.3,1.9-1.1,2.3c-1,0.5-2.2,0-2.6-1
		c-0.1-0.1-0.1-0.3-0.1-0.4c-1.7-5.3-2.7-10.7-3-16.1c0-0.5-0.7-0.7-1-0.3c-2.3,2.9-4.3,6-6,9.2c-0.2,0.4-0.2,0.8,0,1.2
		c1.4,2.6,2.5,5.3,3.5,8.1c0,0.1,0.1,0.3,0.1,0.3c0,0.1,0.1,0.2,0.1,0.2c0.1,0.9-0.3,1.8-1.2,2.1c-1,0.5-2.2,0-2.7-1
		c0,0,0-0.1,0-0.1c0,0,0-0.1,0-0.1c-0.5-1.4-1-2.8-1.6-4.2c-0.2-0.5-1-0.5-1.2,0c-0.7,1.7-1.3,3.4-1.8,5.1c0,0.1-0.1,0.2-0.1,0.2
		c-0.2,0.5-0.5,0.9-1.1,1.1c-1,0.5-2.2,0-2.6-1c-0.2-0.4-0.2-0.9-0.1-1.3c0-0.1,0-0.2,0.1-0.2c1-3.4,2.3-6.7,3.8-9.8
		c0.7-1.4,1.4-2.8,2.2-4.2c2.6-4.5,5.7-8.8,9.4-12.6c0.2-0.2,0.3-0.5,0.3-0.8l0.1-1.4c0-0.5-0.5-0.8-0.9-0.5
		c-4.7,2.9-8.9,6.4-12.5,10.2c-0.9,1-1.8,2-2.7,3.1c-1.8,2.2-3.5,4.6-5,7c-0.6,0.9-1.1,1.9-1.6,2.8c-0.1,0.2-0.2,0.4-0.3,0.5
		c-0.2,0.2-0.4,0.4-0.7,0.5c-1,0.4-2.2,0-2.6-1c-0.2-0.5-0.2-1.1,0-1.6c0,0,0,0,0,0c0-0.1,0.1-0.2,0.1-0.2c0,0,0,0,0,0
		c2.1-3.9,4.7-7.7,7.6-11.1c0.9-1,1.8-2,2.7-3c4-4.2,8.6-7.9,13.8-11c1-0.6,2-1.1,3-1.7C195.2,112.1,195.9,111.8,196.6,111.4"/>
	<path class="st0" d="M206.1,90.3c0.4-1,1.7-1.2,2.3-0.3c0.4,0.7,0.9,1.3,1.4,2c0.2,0.3,0.5,0.6,0.7,0.9c1.2,1.6,2.5,3.1,3.8,4.5
		c4.8,5.1,10.4,9.5,16.8,12.8c0.1,0,0.1,0.1,0.2,0.1c0.8,0.5,1.1,1.5,0.8,2.4c-0.4,1-1.5,1.6-2.6,1.2c-0.1-0.1-0.3-0.1-0.4-0.2
		c-4.9-2.5-9.5-5.7-13.5-9.3c-0.4-0.4-1,0-1,0.5c0.4,3.7,1.2,7.3,2.2,10.8c0.1,0.4,0.4,0.7,0.8,0.9c2.8,0.9,5.5,2,8.2,3.2
		c0.1,0.1,0.2,0.1,0.3,0.1c0.1,0,0.2,0.1,0.2,0.1c0.7,0.5,1,1.5,0.7,2.3c-0.4,1-1.6,1.6-2.6,1.2c0,0-0.1,0-0.1-0.1c0,0-0.1,0-0.1,0
		c-1.3-0.6-2.7-1.3-4.1-1.8c-0.5-0.2-1,0.3-0.8,0.8c0.7,1.7,1.5,3.3,2.4,4.9c0,0.1,0.1,0.1,0.1,0.2c0.2,0.5,0.2,1,0,1.5
		c-0.4,1-1.5,1.5-2.6,1.2c-0.4-0.2-0.8-0.5-1-0.8c0-0.1-0.1-0.1-0.1-0.2c-1.7-3.1-3.1-6.3-4.3-9.6c-0.5-1.5-1-3-1.4-4.5
		c-1.4-5-2.2-10.3-2.3-15.6c0-0.3-0.1-0.6-0.3-0.8l-0.9-1.1c-0.3-0.3-0.9-0.2-1,0.2c-1.3,5.4-1.8,10.8-1.6,16.1
		c0,1.4,0.1,2.7,0.3,4.1c0.3,2.9,0.8,5.7,1.4,8.5c0.3,1,0.5,2.1,0.8,3.1c0.1,0.3,0.1,0.4,0.1,0.6c0,0.2,0,0.6-0.1,0.8
		c-0.4,1-1.5,1.5-2.6,1.2c-0.5-0.2-0.9-0.6-1.1-1.1c0,0,0,0,0-0.1c0-0.1,0-0.2-0.1-0.3c0,0,0,0,0,0c-1.3-4.3-2.1-8.7-2.5-13.2
		c-0.1-1.3-0.2-2.7-0.2-4c-0.1-5.8,0.5-11.7,2-17.6c0.3-1.1,0.6-2.2,0.9-3.3C205.5,91.9,205.8,91.1,206.1,90.3"/>
	<path class="st0" d="M197.8,68.8c-0.5-1,0.4-2,1.4-1.8c0.8,0.2,1.6,0.3,2.4,0.4c0.4,0.1,0.8,0.1,1.2,0.1c1.9,0.3,3.9,0.4,5.9,0.5
		c7,0.2,14.1-0.7,20.9-2.9c0.1,0,0.1-0.1,0.2-0.1c0.9-0.2,1.9,0.3,2.3,1.1c0.5,1,0,2.2-1,2.6c-0.1,0.1-0.3,0.1-0.4,0.1
		c-5.3,1.7-10.7,2.7-16.1,3c-0.5,0-0.7,0.7-0.3,1c2.9,2.3,6,4.3,9.2,6c0.4,0.2,0.8,0.2,1.2,0c2.6-1.4,5.3-2.5,8.1-3.5
		c0.1,0,0.3-0.1,0.3-0.1c0.1,0,0.2-0.1,0.2-0.1c0.9-0.1,1.8,0.3,2.1,1.2c0.5,1,0,2.2-1,2.7c0,0-0.1,0-0.1,0c0,0-0.1,0-0.1,0
		c-1.4,0.5-2.8,1-4.2,1.6c-0.5,0.2-0.5,1,0,1.2c1.7,0.7,3.4,1.3,5.1,1.8c0.1,0,0.2,0.1,0.2,0.1c0.5,0.2,0.9,0.5,1.1,1.1
		c0.5,1,0,2.2-1,2.6c-0.4,0.2-0.9,0.2-1.3,0.1c-0.1,0-0.2,0-0.2-0.1c-3.4-1-6.7-2.3-9.8-3.8c-1.4-0.7-2.8-1.4-4.2-2.2
		c-4.5-2.6-8.8-5.7-12.6-9.4c-0.2-0.2-0.5-0.3-0.8-0.3l-1.4-0.1c-0.5,0-0.8,0.5-0.5,0.9c2.9,4.7,6.4,8.9,10.2,12.5
		c1,0.9,2,1.8,3.1,2.7c2.2,1.8,4.6,3.5,7,5c0.9,0.6,1.9,1.1,2.8,1.6c0.2,0.1,0.4,0.2,0.5,0.3c0.2,0.2,0.4,0.4,0.5,0.7
		c0.4,1,0,2.2-1,2.6c-0.5,0.2-1.1,0.2-1.6,0c0,0,0,0,0,0c-0.1,0-0.2-0.1-0.2-0.1c0,0,0,0,0,0c-3.9-2.1-7.7-4.7-11.1-7.6
		c-1-0.9-2-1.8-3-2.7c-4.2-4-7.9-8.6-11-13.8c-0.6-1-1.1-2-1.7-3C198.5,70.2,198.1,69.5,197.8,68.8"/>
	<path class="st0" d="M176.7,59.4c-1-0.4-1.2-1.7-0.3-2.3c0.7-0.4,1.3-0.9,2-1.4c0.3-0.2,0.6-0.5,0.9-0.7c1.6-1.2,3.1-2.5,4.5-3.8
		c5.1-4.8,9.5-10.4,12.8-16.8c0-0.1,0.1-0.1,0.1-0.2c0.5-0.8,1.5-1.1,2.4-0.8c1,0.4,1.6,1.5,1.2,2.6c-0.1,0.1-0.1,0.3-0.2,0.4
		c-2.5,4.9-5.7,9.5-9.3,13.5c-0.4,0.4,0,1,0.5,1c3.7-0.4,7.3-1.2,10.8-2.2c0.4-0.1,0.7-0.4,0.9-0.8c0.9-2.8,2-5.5,3.2-8.2
		c0.1-0.1,0.1-0.2,0.1-0.3c0-0.1,0.1-0.2,0.1-0.2c0.5-0.7,1.5-1,2.3-0.7c1,0.4,1.6,1.6,1.2,2.6c0,0,0,0.1-0.1,0.1c0,0,0,0.1,0,0.1
		c-0.6,1.3-1.3,2.7-1.8,4.1c-0.2,0.5,0.3,1,0.8,0.8c1.7-0.7,3.3-1.5,4.9-2.4c0.1,0,0.1-0.1,0.2-0.1c0.5-0.2,1-0.2,1.5,0
		c1,0.4,1.5,1.5,1.2,2.6c-0.2,0.4-0.5,0.8-0.8,1c-0.1,0-0.1,0.1-0.2,0.1c-3.1,1.7-6.3,3.1-9.6,4.3c-1.5,0.5-3,1-4.5,1.4
		c-5,1.4-10.3,2.2-15.6,2.3c-0.3,0-0.6,0.1-0.8,0.3l-1.1,0.9c-0.3,0.3-0.2,0.9,0.2,1c5.4,1.3,10.8,1.8,16.1,1.6
		c1.4,0,2.7-0.1,4.1-0.3c2.9-0.3,5.7-0.8,8.5-1.4c1.1-0.3,2.1-0.5,3.1-0.8c0.3-0.1,0.4-0.1,0.6-0.1c0.2,0,0.6,0,0.8,0.1
		c1,0.4,1.5,1.5,1.2,2.6c-0.2,0.5-0.6,0.9-1.1,1.1c0,0,0,0,0,0c-0.1,0-0.2,0.1-0.3,0.1c0,0,0,0,0,0c-4.3,1.3-8.7,2.1-13.2,2.5
		c-1.3,0.1-2.7,0.2-4,0.2c-5.8,0.1-11.7-0.5-17.6-2c-1.1-0.3-2.2-0.6-3.3-0.9C178.2,59.9,177.4,59.6,176.7,59.4"/>
	<path class="st0" d="M155.1,67.6c-1,0.5-2-0.4-1.8-1.4c0.2-0.8,0.3-1.6,0.4-2.4c0.1-0.4,0.1-0.8,0.1-1.2c0.3-1.9,0.4-3.9,0.5-5.9
		c0.2-7-0.7-14.1-2.9-20.9c0-0.1-0.1-0.1-0.1-0.2c-0.2-0.9,0.3-1.9,1.1-2.3c1-0.5,2.2,0,2.6,1c0.1,0.1,0.1,0.3,0.1,0.4
		c1.7,5.3,2.7,10.7,3,16.1c0,0.5,0.7,0.7,1,0.3c2.3-2.9,4.3-6,6-9.2c0.2-0.4,0.2-0.8,0-1.2c-1.4-2.6-2.5-5.3-3.5-8.1
		c-0.1-0.1-0.1-0.3-0.1-0.3c0-0.1-0.1-0.2-0.1-0.2c-0.1-0.9,0.3-1.8,1.2-2.1c1-0.5,2.2,0,2.7,1c0,0,0,0.1,0,0.1c0,0,0,0.1,0,0.1
		c0.5,1.4,1,2.8,1.6,4.2c0.2,0.5,1,0.5,1.2,0c0.7-1.7,1.3-3.4,1.8-5.1c0-0.1,0.1-0.2,0.1-0.2c0.2-0.5,0.5-0.9,1.1-1.1
		c1-0.5,2.2,0,2.6,1c0.2,0.4,0.2,0.9,0.1,1.3c0,0.1,0,0.2-0.1,0.2c-1,3.4-2.3,6.7-3.8,9.8c-0.7,1.4-1.4,2.8-2.2,4.2
		c-2.6,4.5-5.7,8.8-9.4,12.6c-0.2,0.2-0.3,0.5-0.3,0.8l-0.1,1.4c0,0.5,0.5,0.8,0.9,0.5c4.7-2.9,8.9-6.4,12.5-10.2
		c0.9-1,1.8-2,2.7-3.1c1.8-2.2,3.5-4.6,5-7c0.6-0.9,1.1-1.9,1.6-2.8c0.1-0.2,0.2-0.4,0.3-0.5c0.2-0.2,0.4-0.4,0.7-0.5
		c1-0.4,2.2,0,2.6,1c0.2,0.5,0.2,1.1,0,1.6c0,0,0,0,0,0c0,0.1-0.1,0.2-0.1,0.2c0,0,0,0,0,0c-2.1,3.9-4.7,7.7-7.6,11.1
		c-0.9,1-1.8,2-2.7,3c-4,4.2-8.6,7.9-13.8,11c-1,0.6-2,1.1-3,1.7C156.5,66.9,155.8,67.3,155.1,67.6"/>
	<path class="st0" d="M145.7,88.7c-0.4,1-1.7,1.2-2.3,0.3c-0.4-0.7-0.9-1.3-1.4-2c-0.2-0.3-0.5-0.6-0.7-0.9
		c-1.2-1.6-2.5-3.1-3.8-4.5c-4.8-5.1-10.4-9.5-16.8-12.8c-0.1,0-0.1-0.1-0.2-0.1c-0.8-0.5-1.1-1.5-0.8-2.4c0.4-1,1.5-1.6,2.6-1.2
		c0.1,0.1,0.3,0.1,0.4,0.2c4.9,2.5,9.5,5.7,13.5,9.3c0.4,0.4,1,0,1-0.5c-0.4-3.7-1.2-7.3-2.2-10.8c-0.1-0.4-0.4-0.7-0.8-0.9
		c-2.8-0.9-5.5-2-8.2-3.2c-0.1-0.1-0.2-0.1-0.3-0.1c-0.1,0-0.2-0.1-0.2-0.1c-0.7-0.5-1-1.5-0.7-2.3c0.4-1,1.5-1.6,2.6-1.2
		c0,0,0.1,0,0.1,0.1c0,0,0.1,0,0.1,0c1.3,0.6,2.7,1.3,4.1,1.8c0.5,0.2,1-0.3,0.8-0.8c-0.7-1.7-1.5-3.3-2.4-4.9
		c0-0.1-0.1-0.1-0.1-0.2c-0.2-0.5-0.2-1,0-1.5c0.4-1,1.5-1.5,2.6-1.2c0.4,0.2,0.8,0.5,1,0.8c0,0.1,0.1,0.1,0.1,0.2
		c1.7,3.1,3.1,6.3,4.3,9.6c0.5,1.5,1,3,1.4,4.5c1.4,5,2.2,10.2,2.3,15.6c0,0.3,0.1,0.6,0.3,0.8l0.9,1.1c0.3,0.3,0.9,0.2,1-0.2
		c1.3-5.4,1.8-10.8,1.6-16.1c0-1.4-0.1-2.7-0.3-4.1c-0.3-2.9-0.8-5.7-1.4-8.5c-0.3-1.1-0.5-2.1-0.8-3.1c-0.1-0.3-0.1-0.4-0.1-0.6
		c0-0.2,0-0.6,0.1-0.8c0.4-1,1.5-1.5,2.6-1.2c0.5,0.2,0.9,0.6,1.1,1.1c0,0,0,0,0,0c0,0.1,0,0.2,0.1,0.3c0,0,0,0,0,0
		c1.3,4.3,2.1,8.7,2.5,13.2c0.1,1.3,0.2,2.7,0.2,4c0.1,5.8-0.5,11.7-2,17.6c-0.3,1.1-0.6,2.2-0.9,3.3C146.2,87.2,146,88,145.7,88.7"
		/>
	<path class="st0" d="M154,110.3c0.5,1-0.4,2-1.4,1.8c-0.8-0.2-1.6-0.3-2.4-0.4c-0.4-0.1-0.8-0.1-1.2-0.1c-1.9-0.3-3.9-0.4-5.9-0.5
		c-7-0.2-14.1,0.7-20.9,2.9c-0.1,0-0.1,0.1-0.2,0.1c-0.9,0.2-1.9-0.3-2.3-1.1c-0.5-1,0-2.2,1-2.6c0.1-0.1,0.3-0.1,0.4-0.1
		c5.3-1.7,10.7-2.7,16.1-3c0.5,0,0.7-0.7,0.3-1c-2.9-2.3-6-4.3-9.2-6c-0.4-0.2-0.8-0.2-1.2,0c-2.6,1.4-5.3,2.5-8.1,3.5
		c-0.1,0-0.3,0.1-0.3,0.1c-0.1,0-0.2,0.1-0.2,0.1c-0.9,0.1-1.8-0.3-2.1-1.2c-0.5-1,0-2.2,1-2.7c0,0,0.1,0,0.1,0c0,0,0.1,0,0.1,0
		c1.4-0.5,2.8-1,4.2-1.6c0.5-0.2,0.5-1,0-1.2c-1.7-0.7-3.4-1.3-5.1-1.8c-0.1,0-0.2-0.1-0.2-0.1c-0.5-0.2-0.9-0.5-1.1-1
		c-0.4-1,0-2.2,1-2.6c0.4-0.2,0.9-0.2,1.3-0.1c0.1,0,0.2,0,0.2,0.1c3.4,1,6.7,2.3,9.8,3.8c1.4,0.7,2.8,1.4,4.2,2.2
		c4.5,2.6,8.8,5.7,12.6,9.4c0.2,0.2,0.5,0.3,0.8,0.3l1.4,0.1c0.5,0,0.8-0.5,0.5-0.9c-2.9-4.7-6.4-8.9-10.2-12.5
		c-1-0.9-2-1.8-3.1-2.7c-2.2-1.8-4.6-3.5-7-5c-0.9-0.6-1.9-1.1-2.8-1.6c-0.2-0.1-0.4-0.2-0.5-0.3c-0.2-0.2-0.4-0.4-0.5-0.7
		c-0.4-1,0-2.2,1-2.6c0.5-0.2,1.1-0.2,1.6,0c0,0,0,0,0,0c0.1,0,0.2,0.1,0.2,0.1c0,0,0,0,0,0c3.9,2.1,7.7,4.7,11.1,7.6
		c1,0.9,2,1.8,3,2.7c4.2,4,7.9,8.6,11,13.8c0.6,1,1.1,2,1.7,3C153.3,108.9,153.6,109.6,154,110.3"/>
	<polygon class="st0" points="105.7,218.7 107.8,218.7 107.8,222.4 111.6,222.4 111.6,218.7 113.7,218.7 113.7,228.1 111.6,228.1 
		111.6,224.3 107.8,224.3 107.8,228.1 105.7,228.1 	"/>
	<path class="st0" d="M115.9,223.4L115.9,223.4c0-2.7,2.1-4.9,5-4.9c2.9,0,5,2.2,5,4.8v0c0,2.7-2.1,4.9-5,4.9
		S115.9,226.1,115.9,223.4 M123.7,223.4L123.7,223.4c0-1.6-1.2-3-2.8-3c-1.7,0-2.8,1.3-2.8,2.9v0c0,1.6,1.2,2.9,2.8,2.9
		C122.6,226.4,123.7,225.1,123.7,223.4"/>
	<polygon class="st0" points="129.9,220.6 127.1,220.6 127.1,218.7 134.8,218.7 134.8,220.6 132,220.6 132,228.1 129.9,228.1 	"/>
	<polygon class="st0" points="136.8,218.7 143.9,218.7 143.9,220.6 138.9,220.6 138.9,222.5 143.3,222.5 143.3,224.3 138.9,224.3 
		138.9,226.3 144,226.3 144,228.1 136.8,228.1 	"/>
	<polygon class="st0" points="146.2,218.7 148.3,218.7 148.3,226.2 152.9,226.2 152.9,228.1 146.2,228.1 	"/>
	<polygon class="st0" points="159.3,218.7 161.2,218.7 165.6,224.5 165.6,218.7 167.7,218.7 167.7,228.1 165.9,228.1 161.4,222.1 
		161.4,228.1 159.3,228.1 	"/>
	<polygon class="st0" points="170.3,218.7 172.4,218.7 172.4,222.4 176.2,222.4 176.2,218.7 178.2,218.7 178.2,228.1 176.2,228.1 
		176.2,224.3 172.4,224.3 172.4,228.1 170.3,228.1 	"/>
	<path class="st0" d="M184.1,218.7h1.9l4,9.4h-2.2L187,226h-4l-0.9,2.1h-2.1L184.1,218.7z M186.3,224.2l-1.2-3l-1.2,3H186.3z"/>
	<polygon class="st0" points="198.5,220.6 195.6,220.6 195.6,218.7 203.4,218.7 203.4,220.6 200.6,220.6 200.6,228.1 198.5,228.1 	
		"/>
	<path class="st0" d="M205.4,218.7h4.3c1.2,0,2.1,0.3,2.7,1c0.5,0.5,0.8,1.2,0.8,2.1v0c0,1.5-0.8,2.5-2,2.9l2.3,3.4h-2.4l-2-3h-1.6
		v3h-2.1V218.7z M209.6,223.3c1,0,1.6-0.5,1.6-1.3v0c0-0.9-0.6-1.3-1.6-1.3h-2v2.7H209.6z"/>
	<path class="st0" d="M218.7,218.7h1.9l4,9.4h-2.2l-0.9-2.1h-4l-0.9,2.1h-2.1L218.7,218.7z M220.9,224.2l-1.2-3l-1.2,3H220.9z"/>
	<polygon class="st0" points="226.5,218.7 228.4,218.7 232.8,224.5 232.8,218.7 234.8,218.7 234.8,228.1 233.1,228.1 228.5,222.1 
		228.5,228.1 226.5,228.1 	"/>
	<path class="st0" d="M237.1,223.4L237.1,223.4c0-2.7,2.1-4.9,4.9-4.9c1.7,0,2.7,0.5,3.7,1.3l-1.3,1.6c-0.7-0.6-1.4-1-2.5-1
		c-1.5,0-2.7,1.3-2.7,2.9v0c0,1.7,1.2,3,2.8,3c0.8,0,1.4-0.2,1.9-0.6v-1.3h-2.1v-1.8h4.1v4.1c-1,0.8-2.3,1.5-4,1.5
		C239.1,228.3,237.1,226.2,237.1,223.4"/>
	<path class="st0" d="M102.1,195.2c0-6.6-4.7-8.8-12.1-10.7c-6.1-1.5-9.1-2.4-9.1-5.9c0-3.2,2.2-5.1,7.1-5.1c3.7,0,7.2,1.6,9.1,2.9
		c0.5,0.4,1.2,0.2,1.5-0.3l1.6-2.9c0.3-0.5,0.1-1-0.3-1.3c-3.1-2.1-7.1-3.6-11.7-3.6c-7.6,0-13.4,3.9-13.4,11.2
		c0,5.8,3.7,7.9,10.9,9.8c6.3,1.7,10.1,2.7,10.1,6.4c0,3.1-2.6,4.7-7.1,4.7c-4.9,0-9.4-2.2-11.7-3.9c-0.5-0.4-1.2-0.2-1.5,0.3
		l-1.7,3.1c-0.2,0.4-0.1,1,0.3,1.3c4.1,2.9,9.2,4.5,14.5,4.5C96,205.8,102.1,202.7,102.1,195.2"/>
	<path class="st0" d="M123.3,189.1h14.4c0.5,0,1-0.4,1-1v-2.8c0-0.5-0.4-1-1-1h-14.4c-0.5,0-1-0.4-1-1v-8.5c0-0.5,0.4-1,1-1h17
		c0.5,0,1-0.4,1-1v-3.2c0-0.5-0.4-1-1-1h-22.8c-0.5,0-1,0.4-1,1v34.8c0,0.5,0.4,1,1,1h23.2c0.5,0,1-0.4,1-1v-3.2c0-0.5-0.4-1-1-1
		h-17.4c-0.5,0-1-0.4-1-1V190C122.3,189.5,122.7,189.1,123.3,189.1"/>
	<path class="st0" d="M207.3,181.7l18.8,23.3c0.2,0.2,0.5,0.4,0.8,0.4h3.4c0.5,0,1-0.4,1-1v-34.7c0-0.5-0.4-1-1-1h-3.9
		c-0.5,0-1,0.4-1,1v22.6c0,0.9-1.2,1.3-1.8,0.6l-19-23.9c-0.2-0.2-0.5-0.4-0.8-0.4h-3.1c-0.5,0-1,0.4-1,1v34.8c0,0.5,0.4,1,1,1h3.8
		c0.5,0,1-0.4,1-1v-22.1C205.6,181.4,206.7,181,207.3,181.7"/>
	<path class="st0" d="M186.2,204.1c0.3,0.6-0.2,1.3-0.9,1.3h-3.8c-0.5,0-1-0.3-1.1-0.8l-1.5-4.1c-0.1-0.3-0.3-0.5-0.5-0.6
		c-1.2-0.5-2.5-0.9-3.7-1.2c-0.3-0.1-0.5-0.1-0.8-0.2h0c-0.2,0-0.4-0.1-0.6-0.1c-0.3,0-0.6-0.1-0.9-0.1c-0.3,0-0.6-0.2-0.8-0.6
		l-0.4-0.8c-0.3-0.6-0.2-0.3-0.4-1l-0.5-1.5c-0.2-0.7,0.3-1.4,1-1.3c1.2,0,2.5,0.2,3.7,0.4l0.6,0.1c0.5,0.1,0.9-0.4,0.7-0.8
		l-0.6-1.7l-0.5-1.3l-3.7-9.9l-0.8-2.2c-0.3-0.8-1.5-0.9-1.8,0l-5.2,13.4h0l-5.1,13.5c-0.2,0.5-0.6,0.8-1.1,0.8H154
		c-0.7,0-1.2-0.7-0.9-1.3l13.8-34.8c0.2-0.4,0.5-0.6,0.9-0.6h3.7c0.4,0,0.8,0.2,0.9,0.6l1.6,4l7.7,19.6l1.5,3.8l1.8,4.6L186.2,204.1
		z"/>
	<path class="st0" d="M277.9,204.1c0.3,0.6-0.2,1.3-0.9,1.3h-3.8c-0.5,0-1-0.3-1.1-0.8l-1.5-4.1c-0.1-0.3-0.3-0.5-0.5-0.6
		c-1.2-0.5-2.5-0.9-3.7-1.2c-0.3-0.1-0.5-0.1-0.8-0.2h0c-0.2,0-0.4-0.1-0.6-0.1c-0.3,0-0.6-0.1-0.9-0.1c-0.3,0-0.6-0.2-0.8-0.6
		l-0.4-0.8c-0.3-0.6-0.2-0.3-0.4-1l-0.5-1.5c-0.2-0.7,0.3-1.4,1-1.3c1.2,0,2.5,0.2,3.7,0.4l0.6,0.1c0.5,0.1,0.9-0.4,0.7-0.8
		l-0.6-1.7l-0.5-1.3l-3.7-9.9l-0.8-2.2c-0.3-0.8-1.5-0.9-1.8,0l-5.2,13.4h0l-5.1,13.5c-0.2,0.5-0.6,0.8-1.1,0.8h-3.4
		c-0.7,0-1.2-0.7-0.9-1.3l13.8-34.8c0.1-0.4,0.5-0.6,0.9-0.6h3.7c0.4,0,0.8,0.2,0.9,0.6l1.6,4l7.7,19.6l1.5,3.8l1.8,4.6L277.9,204.1
		z"/>
</g>
</svg>
