<?xml version="1.0" encoding="utf-8"?>
<!-- Generator: Adobe Illustrator 21.1.0, SVG Export Plug-In . SVG Version: 6.00 Build 0)  -->
<svg version="1.1" id="Layer_1" xmlns="http://www.w3.org/2000/svg" xmlns:xlink="http://www.w3.org/1999/xlink" x="0px" y="0px"
	 viewBox="0 0 350 255.1" style="enable-background:new 0 0 350 255.1;" xml:space="preserve">
<style type="text/css">
	.st0{fill:#1F191A;}
</style>
<g>
	<path class="st0" d="M134.7,104.1c-0.1,0-0.1,0-0.2,0c-0.4-0.1-0.6-0.4-0.5-0.8c0.5-4.3,0.8-8.1-6.8-19.1c-6.7-9.6-8.9-17.9-7-25.4
		c2.1-8,9.4-15.1,21.7-21c0.3-0.2,0.7,0,1,0.3c0.2,0.3,0.1,0.7-0.2,1c-0.2,0.2-20.6,17.6-11.6,35c6.8,13.2,8,21.5,4.3,29.5
		C135.2,104,135,104.1,134.7,104.1 M138.2,41.5c-9.2,5.2-14.8,11.1-16.5,17.7c-1.9,7,0.4,14.9,6.8,24.1c5.1,7.3,6.7,11.7,7.1,15
		c1.3-6.3-0.6-13.4-5.8-23.6C122.7,61.2,132.5,47.7,138.2,41.5"/>
	<path class="st0" d="M132,102.2c-0.3,0-0.6-0.2-0.7-0.6c-0.3-0.9-0.4-1.8-0.6-2.6c-0.7-3.8-1.1-6.2-13.1-12.8
		c-7.5-4.1-9.1-9.4-9.1-13c0-6,4.2-11.4,8.2-13.5c0.3-0.2,0.7-0.1,0.9,0.1c0.2,0.2,0.3,0.6,0.1,0.9c-0.2,0.4-5.6,9.9,3.5,18.9
		c10,9.9,12.4,14.6,11.5,21.9C132.7,101.9,132.4,102.2,132,102.2L132,102.2z M115.4,62.5c-2.9,2.4-5.4,6.5-5.4,10.8
		c0,4.7,2.8,8.7,8.3,11.7c7.6,4.2,10.8,6.9,12.3,9.3c-1.3-3.7-4.5-7.6-10.4-13.5C113.1,73.7,114.2,66.2,115.4,62.5"/>
	<path class="st0" d="M219.2,108.4c-0.1,0-0.2,0-0.3-0.1c-0.3-0.2-0.5-0.6-0.4-0.9c2.8-7,6.5-9.3,16.8-15c9.6-5.3,6.9-17.5,6.9-17.6
		c-0.1-0.4,0.1-0.7,0.4-0.9c0.3-0.1,0.7,0,0.9,0.3c2.4,3.5,3.9,10.1,1.9,15.4c-1.7,4.4-5.4,7.5-10.9,8.9c-8.9,2.2-12.4,6.1-14.7,9.6
		C219.7,108.3,219.4,108.4,219.2,108.4 M244,78.7c0,4.4-1.2,11.2-8,15c-5.5,3.1-9.1,5.1-11.6,7.4c2.3-1.6,5.5-3,9.7-4.1
		c5-1.3,8.4-3.9,9.9-7.9C245.3,85.7,245,81.8,244,78.7"/>
	<path class="st0" d="M102.7,96.2C102.6,96.2,102.6,96.2,102.7,96.2c-0.4,0-0.7-0.3-0.7-0.6c-0.7-5.1,1.7-13.5,5.3-18.3
		c0.2-0.3,0.6-0.4,0.9-0.3c0.3,0.1,0.5,0.4,0.5,0.7c0,0.3-0.2,7.6,11,10.8c0.4,0.1,0.6,0.5,0.5,0.9c-0.1,0.4-0.4,0.6-0.8,0.6
		c-1.6-0.2-3.5-0.3-5.3-0.3c-5.7,0-8.9,1.8-10.5,6.1C103.2,96,103,96.2,102.7,96.2 M107.3,79.8c-2.2,3.8-3.8,8.8-4,12.9
		c2.7-3.9,7-4.5,10.6-4.5c0.2,0,0.4,0,0.6,0C109.5,85.5,107.9,82,107.3,79.8"/>
	<path class="st0" d="M217.3,151.9L217.3,151.9c-4,0-8.4-0.8-13-2.3c-9.7-3.2-32.9-22.4-55-55.1c0.5,6.7,0.5,22.2-8.9,30.1
		c-7.3,6.1-16,6.8-19.3,6.8c-1,0-1.7-0.1-2.2-0.1c-1.4-0.2-3.9-1.2-5.8-2.1c-0.8-0.4-2.9-1.5-3.7-2.3c-1.2-1.1-2.6-2.6-3.2-3.4
		c-0.9-1.5-1.8-3.3-2.5-5.1c-1.5-3.8-3-12.7,1.8-19.3c2.1-2.9,5.5-6.6,9.8-7.7c4.5-1.2,7.5-0.7,10.6,1.5c1.9,1.4,3.8,4.7,3.6,8.1
		c-0.1,1.9-0.9,4.5-4.2,6.3c-2.4,1.3-5.5,0.8-7.4-1.1c-1.5-1.4-1.9-3.3-1.1-5.1c0.7-1.6,2.2-3,3.6-3.3c-0.1-0.3-0.5-0.5-1.1-0.7
		c-2.1-0.6-7,1.4-8.4,8.1c-0.8,3.8,0,7.5,2.1,10c3,3.7,8.2,4.5,14,2.1c10.2-4.2,13.3-17.4,12-27.9c-0.5-4-1.1-7.9-1.7-11.6
		c-1-6.7-2-12.4-1.8-15.2c1.7-24.1,21.6-32.7,38.1-32.7c1.7,0,3.3,0.1,5,0.3c0.3,0,0.6,0.3,0.7,0.6c0.1,0.3-0.1,0.7-0.4,0.8
		C171,35,161.9,42.9,159,53c-2.3,8-0.6,16.3,5.1,24.6c1.4,2,2.7,4,4.1,6c7.6,11.4,14.2,21.2,27.1,32.5c0.3,0.2,0.6,0.6,1,0.9
		c4.3,3.9,14.4,13,23.5,13c1.6,0,3.2-0.3,4.6-0.9c5.7-2.4,8.6-5.6,8.8-9.7c0.1-1.4-0.5-2.8-1.5-4c-1.2-1.3-2.9-2.1-4.4-2.1
		c-0.8,0-1.7,0.2-2.5,1c1,0.1,1.9,0.7,2.5,1.7c0.6,1,0.7,2.1,0.2,3c-1,1.9-2.6,3-4.3,3c-1.8,0-3.5-1.2-4.8-3.3
		c-0.1-0.1-1.6-2.8-0.6-6.1c0.9-2.8,3.5-5.1,7.6-6.8c1.1-0.5,2.3-0.7,3.6-0.7c5.3,0,11.5,3.7,13.5,8.1c2.9,6.2,5.5,15.9-5,29
		C232.5,148.7,225.6,151.9,217.3,151.9 M148.2,90.9c0.2,0,0.5,0.1,0.6,0.3c22.4,33.9,46.2,53.7,55.9,57c13.6,4.5,24.5,2.1,31.8-6.9
		c9.9-12.3,7.8-21.1,4.8-27.4c-1.8-3.8-7.5-7.2-12.2-7.2c-1.1,0-2.1,0.2-3,0.6c-3.7,1.5-5.9,3.5-6.7,5.9c-0.9,2.6,0.4,4.8,0.4,4.8
		c1,1.7,2.2,2.6,3.5,2.6c1.2,0,2.3-0.8,3-2.2c0.2-0.4,0.1-1-0.2-1.5c-0.4-0.7-1.4-1.3-2.3-0.5c-0.3,0.2-0.6,0.2-0.9,0.1
		c-0.3-0.2-0.4-0.5-0.3-0.9c0.8-2.3,2.5-3.6,4.8-3.6c1.9,0,4,1,5.5,2.6c1.4,1.5,2.1,3.3,1.9,5.1c-0.5,7-7.5,10-9.8,11
		c-1.6,0.7-3.3,1-5.2,1c-9.7,0-20.1-9.4-24.5-13.3c-0.4-0.3-0.7-0.6-1-0.9c-13.1-11.5-20-21.8-27.4-32.8c-1.3-2-2.7-4-4.1-6
		c-6-8.7-7.8-17.4-5.3-25.9c2.9-10,11-17.3,17.9-21.1c-0.7,0-1.4,0-2.1,0c-15.8,0-34.9,8.2-36.6,31.3c-0.2,2.7,0.7,8.3,1.7,14.9
		c0.6,3.6,1.2,7.7,1.7,11.7c1.5,11.4-1.9,25-12.9,29.5c-6.4,2.6-12.4,1.6-15.7-2.5c-2.4-3-3.3-7.1-2.4-11.3c1.4-6.8,6.3-9.4,9.1-9.4
		c0.4,0,0.8,0.1,1.1,0.1c2.2,0.6,2.4,2.1,2.3,3c0,0.2-0.1,0.4-0.3,0.5c-0.2,0.1-0.4,0.2-0.6,0.1c-0.1,0-0.1,0-0.2,0
		c-0.8,0-2.2,1-2.7,2.4c-0.4,0.9-0.5,2.2,0.8,3.5c1.5,1.4,3.8,1.9,5.6,0.9c2.1-1.2,3.3-2.9,3.4-5.1c0.2-2.8-1.4-5.6-2.9-6.7
		c-2.7-2-5.3-2.3-9.3-1.3c-3.9,1-7,4.5-9,7.2c-4.1,5.7-3.2,13.8-1.6,17.9c0.7,1.7,1.5,3.4,2.4,4.8c0.4,0.6,1.5,1.9,2.9,3.1
		c0.5,0.5,1.8,1.2,3.4,2c2.2,1.1,4.4,1.9,5.3,2c0.3,0,1,0.1,2,0.1c3.2,0,11.4-0.6,18.3-6.5c11.5-9.6,8.1-31.6,8-31.8
		c-0.1-0.4,0.1-0.7,0.5-0.8C148,90.9,148.1,90.9,148.2,90.9"/>
	<path class="st0" d="M162.2,174.6C162.2,174.6,162.1,174.6,162.2,174.6c-12.4-1.1-20.8-6.2-23.8-14.4c-3-8.1-0.1-17,4.4-21.6
		c8.4-8.7,10.9-23.1,7.9-31.2c-0.1-0.3,0-0.6,0.2-0.8c0.2-0.2,0.5-0.3,0.8-0.2c1.9,0.8,8.5,4,11.1,11.7c2.3,6.9,0.7,15.2-4.8,24.7
		c-4.6,8-6,14.9-4,20.7c2.1,6.4,7.7,9.2,8.5,9.5c0.3,0.1,0.6,0.4,0.6,0.7C163,174.2,162.6,174.6,162.2,174.6L162.2,174.6z
		 M152.6,108.6c2.3,8.6-0.2,22.3-8.7,31c-4.1,4.3-6.9,12.5-4.1,20c1.8,5,6.7,11,19.1,13c-2.2-1.6-4.9-4.4-6.3-8.6
		c-2.1-6.2-0.7-13.6,4.2-21.9c5.3-9.1,6.8-17,4.7-23.5C159.4,113,155.1,110,152.6,108.6"/>
	<path class="st0" d="M217.8,126.1c-1.4,0-2.8-0.2-4-0.5c-8.1-1.9-14.4-8.7-16-17.2c-1.7-9,2-17.7,10-23.2
		c17.5-12.2,22-17.2,22.6-31.6c0-0.3,0.2-0.6,0.6-0.7c0.3-0.1,0.7,0.1,0.8,0.3c0.2,0.4,0.5,0.8,0.8,1.3c4.3,6.4,15.7,23.5-9,43
		c-9.1,7.2-10.9,12.8-10.9,16.2c0,2.8,1.3,5.3,3.5,7c3,2.4,8.1,1.9,8.2,1.9c0.3,0,0.6,0.1,0.8,0.4c0.1,0.3,0.1,0.6-0.2,0.9
		C222.9,125.8,219.6,126.1,217.8,126.1 M231.7,56c-1,13.2-6.3,18.7-23.1,30.4c-7.5,5.2-11,13.3-9.4,21.7c1.5,8,7.4,14.3,14.9,16
		c2.3,0.6,5.3,0.5,7.3,0c-1.9-0.2-4.3-0.7-6.2-2.2c-2.6-2-4.1-5-4.1-8.2c0-3.8,2-9.9,11.5-17.4C245.4,78.3,236,62.5,231.7,56"/>
	<path class="st0" d="M136,164.5c-0.1,0-0.2,0-0.2,0c-6.9-2.2-10.7-5.9-10.9-10.6c-0.2-5.9,4.3-10.1,13.1-12.2
		c0.3-0.1,0.7,0.1,0.8,0.4c0.2,0.3,0.1,0.7-0.2,0.9c-10.7,9.1-2.4,19.8-2,20.3c0.2,0.3,0.2,0.6,0,0.9
		C136.4,164.4,136.2,164.5,136,164.5 M135.5,144c-4.7,1.6-9.3,4.5-9.1,9.9c0.1,4.4,4.3,7,7.8,8.4C132.2,158.8,129.2,151.1,135.5,144
		"/>
	<path class="st0" d="M175.2,176.7C175.2,176.7,175.2,176.7,175.2,176.7c-8.6-0.9-14-4.4-16.6-10.8c-0.8-1.9-2.8-6.8-0.4-14.2
		c0.7-2.2,1.9-4,3.2-6c1.8-2.8,3.6-5.7,4.3-9.7c1.4-7.8-0.5-12.6-0.5-12.6c-0.1-0.3,0-0.7,0.3-0.9c0.3-0.2,0.7-0.2,0.9,0
		c0.1,0.1,12.5,10.6,8,25.6c-5.5,18.3-5.4,22,1.2,27.2c0.2,0.1,0.4,0.4,0.4,0.7C176,176.4,175.7,176.7,175.2,176.7L175.2,176.7z
		 M167.4,125.5c0.4,2.3,0.7,5.9-0.1,10.7c-0.7,4.3-2.8,7.5-4.5,10.3c-1.2,1.9-2.4,3.7-3,5.7c-2.2,6.9-0.4,11.3,0.3,13.2
		c2.1,5.2,6.2,8.3,12.8,9.5c-5.6-5.4-4.7-10.9,0.2-27.2C176.2,137.2,170.5,129,167.4,125.5"/>
	<path class="st0" d="M184.6,176.6c-0.1,0-0.3,0-0.4-0.1c-7.4-5.1-10.2-11.6-8.2-18.6l0.1-0.4c2-6.8,4.3-14.5-0.5-21.6
		c-0.2-0.3-0.2-0.7,0.1-0.9c0.2-0.3,0.6-0.3,0.9-0.2c0.1,0.1,12.5,6.9,10.4,22c-0.3,1.7-0.7,3.3-1,4.8c-1.3,6.3-2.5,11.7-1,13.6
		c0.2,0.1,0.3,0.4,0.3,0.6C185.4,176.3,185.1,176.6,184.6,176.6L184.6,176.6z M178.5,138.1c2.9,6.8,0.9,13.7-0.9,19.9l-0.1,0.4
		c-2,6.8,1.5,11.9,5.5,15.3c-0.4-2.8,0.5-7.1,1.7-12.3c0.3-1.5,0.7-3.1,1-4.7C186.9,146.9,181.8,140.9,178.5,138.1"/>
	<path class="st0" d="M191.4,90.3c-6.8,0-12.8-5.1-15-10c-2.9-6.2-8.6-13.6-14.5-15c-0.3-0.1-0.5-0.3-0.6-0.6c0-0.3,0.1-0.6,0.4-0.8
		c0.9-0.5,3.5-1.8,6.9-1.8c4.3,0,10.7,2,16.1,11.5c4.5,7.8,9.7,9.5,13.3,9.5c3,0,5.1-1.2,5.1-1.2c0.3-0.2,0.7-0.1,0.9,0.2
		c0.2,0.3,0.2,0.7,0,0.9C200.4,87.9,196.1,90.3,191.4,90.3 M164.1,64.5c5.6,2.4,10.8,9.1,13.6,15.2c1.7,3.8,7.1,9.1,13.7,9.1
		c3.5,0,6.7-1.5,9.7-4.4c-0.9,0.2-1.9,0.3-3,0.3c-4,0-9.7-1.8-14.6-10.2c-5.1-8.9-10.9-10.8-14.8-10.8
		C166.8,63.7,165.2,64.1,164.1,64.5"/>
	<path class="st0" d="M205.2,76.6c-2.4,0-4.9-0.6-7.3-1.8c-6.3-3-9.9-6.6-13-9.8c-2.4-2.5-4.7-4.8-8-6.6c-4.5-2.5-8.4-3-11-3
		c-1.5,0-2.3,0.2-2.4,0.2c-0.4,0.1-0.7-0.1-0.9-0.4c-0.1-0.3,0-0.7,0.3-0.9c0.4-0.2,9.4-6.2,19.7-6.2c5.7,0,10.6,1.8,14.7,5.4
		c11.4,10.1,20.3,12.7,26,7.5c0.3-0.3,0.7-0.3,1,0c0.3,0.2,0.4,0.6,0.2,1C219.1,71.4,212.3,76.6,205.2,76.6 M166.6,54
		c2.7,0.1,6.6,0.7,11.1,3.2c3.5,1.9,5.8,4.3,8.3,6.8c3.2,3.2,6.5,6.6,12.6,9.5c2.2,1.1,4.5,1.6,6.6,1.6c7.3,0,12.9-6,16.2-11
		c-6.2,2.9-14.7-0.3-25-9.5c-3.8-3.4-8.4-5.1-13.7-5.1C176.1,49.6,170,52.2,166.6,54"/>
	<path class="st0" d="M217.6,55.4c-2.6,0-5.1-0.8-7.4-2.4l-1.2-0.9c-4.6-3.4-9.9-7.2-17.9-7.2h-0.3c-0.3,0-0.6-0.2-0.7-0.5
		c-0.1-0.3,0-0.6,0.3-0.8c0.2-0.1,3.8-2.7,10.2-2.7c3.9,0,8,1,12.1,3c1.3,0.7,2.4,1.5,3.5,2.1c4.7,2.9,8.8,5.3,10.6,4.6
		c0.4-0.1,0.8,0,0.9,0.3c0.2,0.3,0.1,0.8-0.2,1C224.1,54.2,220.8,55.4,217.6,55.4 M193.7,43.6c7.1,0.7,12.1,4.4,16.2,7.3l1.2,0.9
		c3.9,2.8,8.5,2.9,13.4,0.2c-2.4-0.6-5.4-2.5-9.1-4.7c-1.1-0.7-2.3-1.4-3.5-2.1c-3.9-1.9-7.7-2.8-11.4-2.8
		C197.6,42.4,195.3,43,193.7,43.6"/>
	<path class="st0" d="M118.1,151.5c-0.2,0-0.5-0.1-0.6-0.3c-0.1-0.2-3.2-4.5-1.5-9.2c1.4-3.9,5.5-6.9,12.4-8.8
		c9.4-2.8,14.5-4.7,19.4-14.1c0.2-0.3,0.6-0.5,0.9-0.3c0.4,0.1,0.6,0.5,0.4,0.9c-2.8,9.7-6.8,19.2-17.1,22.3l-2,0.6
		c-7.7,2.3-10,2.9-11.2,8.4c-0.1,0.3-0.3,0.5-0.6,0.6C118.2,151.5,118.2,151.5,118.1,151.5 M145.9,125c-4.4,5.6-9.5,7.4-17.1,9.7
		c-6.3,1.8-10.2,4.4-11.4,7.8c-0.9,2.4-0.2,4.8,0.5,6.3c1.6-4.7,4.9-5.6,11.7-7.7l2-0.6C138.2,138.6,142.5,133.9,145.9,125"/>
	<path class="st0" d="M112,139c-1.5,0-2.6-1-3.3-3.2c-1.3-3.6-1.2-4.6-0.8-5.1c0.2-0.3,0.6-0.5,1-0.4c0.1,0,0.2,0.1,0.3,0.2
		c0,0,4,3.9,7.6,3.9c0.3,0,0.6,0,0.9-0.1c0.3-0.1,0.7,0.1,0.8,0.4c0.1,0.3,0,0.7-0.3,0.9c-0.5,0.3-0.9,0.6-1.3,0.9
		C115,137.9,113.5,139,112,139 M109.2,132.6c0.1,0.6,0.4,1.4,0.9,2.7c0.8,2.2,1.6,2.2,1.9,2.2c0.9,0,2-0.7,3.4-1.6
		C112.9,135.3,110.6,133.7,109.2,132.6"/>
	<path class="st0" d="M206.3,164.3H206c-14.5-0.2-15.5-16.6-15.5-16.7c0-0.2,0.1-0.4,0.2-0.6c0.2-0.2,0.4-0.2,0.6-0.2
		c0.1,0,3.4,0.5,6.5,4.5c2.1,2.7,3.8,4.1,8.9,6.1c1.7,0.7,3.7,1,5.8,1c5.2,0,10.4-2,14.2-5.6c0.3-0.3,0.7-0.3,1,0
		c0.3,0.3,0.3,0.7,0,1C227.5,154.3,218.6,164.3,206.3,164.3 M192.1,148.6c0.5,3.5,2.8,14,13.9,14.2l0.3,0c5.1,0,9.7-1.9,13.2-4.1
		c-4.4,1.4-9.5,1.5-13.3,0c-5.3-2.1-7.2-3.7-9.5-6.5C194.9,150,193.2,149,192.1,148.6"/>
	<path class="st0" d="M197.5,172.1c-2.4,0-4.3-0.8-5.7-2.3c-1.9-2.1-2.6-5.7-2.1-10.5c0-0.3,0.3-0.6,0.7-0.7
		c0.3-0.1,0.7,0.2,0.8,0.5c0,0.1,3.4,9.2,11.7,9.2c0.7,0,1.4-0.1,2.1-0.2c0.4-0.1,0.7,0.1,0.8,0.5c0.1,0.3,0,0.7-0.3,0.9
		C203.7,170.8,200.5,172.1,197.5,172.1 M191,162.3c0,2.9,0.6,5.1,1.9,6.5c1.1,1.2,2.6,1.8,4.6,1.8c1.4,0,2.9-0.3,4.2-0.8
		C196.1,169.3,192.7,165.1,191,162.3"/>
	<path class="st0" d="M246.5,116C246.5,116,246.5,116,246.5,116c-0.4,0-0.7-0.3-0.7-0.7c-0.8-6.6-2.7-9.5-12.4-10.7
		c-0.4,0-0.6-0.3-0.7-0.7c0-0.4,0.2-0.7,0.6-0.8c0.1,0,12-3.4,12.5-10.2c0-0.4,0.3-0.7,0.7-0.7c0.4,0,0.7,0.2,0.8,0.6l0.4,1.6
		c1.7,7.5,2.5,10.9-0.4,21C247.1,115.8,246.9,116,246.5,116 M236.6,103.6c6.4,1.3,8.9,3.9,10.1,8.2c1.6-6.8,1-10.2-0.2-15.7
		C244.5,99.9,239.7,102.4,236.6,103.6"/>
	<path class="st0" d="M175.1,45.1c-2.1,0-3.8-0.9-4.6-2.4c-0.2-0.3-0.1-0.6,0.1-0.9c0.3-0.4,8.7-8.7,22-8.7c6.7,0,13.4,2.1,20,6.3
		c0.3,0.2,0.4,0.6,0.3,1c-0.2,0.3-0.6,0.5-0.9,0.4c-4-1.4-8.7-2.9-14.1-2.9c-6.2,0-12.2,2-18.3,6C178.4,44.6,176.7,45.1,175.1,45.1
		 M172.1,42.4c0.8,1,2,1.2,3,1.2c1.5,0,2.9-0.5,3.7-1c6.4-4.2,12.6-6.2,19.1-6.2c2.5,0,4.8,0.3,7,0.8c-4.1-1.6-8.2-2.5-12.3-2.5
		C181.6,34.6,174,40.7,172.1,42.4"/>
	<path class="st0" d="M192.5,104.3c-0.1,0-0.2,0-0.3-0.1c-5.2-1.9-8.9-7.2-11.5-11.6c-0.2-0.3-0.1-0.7,0.2-1c0.3-0.2,0.7-0.2,1,0
		c0,0,4.5,3.7,9.5,3.7c1.2,0,2.3-0.2,3.4-0.6c0.3-0.1,0.7,0,0.9,0.3c0.2,0.3,0.1,0.7-0.1,0.9c-2.3,2.2-3.1,4.5-2.4,7.1
		c0.1,0.1,0.1,0.3,0.1,0.4C193.3,104,192.9,104.3,192.5,104.3L192.5,104.3z M183.9,94.8c2,2.9,4.5,5.9,7.6,7.5
		c-0.2-1.9,0.2-3.8,1.4-5.5c-0.5,0.1-1,0.1-1.5,0.1C188.5,96.9,185.8,95.8,183.9,94.8"/>
	<path class="st0" d="M92.6,192.4l-3.8,0.1c-1.5,0-2.1,0.2-2.5,0.7c-0.3,0.4-0.4,0.7-0.4,0.9c-0.1,0.2-0.1,0.3-0.3,0.3
		c-0.2,0-0.2-0.1-0.2-0.4c0-0.4,0.5-2.7,0.5-2.9c0.1-0.3,0.2-0.5,0.3-0.5c0.2,0,0.5,0.2,1.1,0.3c0.7,0.1,1.7,0.1,2.5,0.1H100
		c0.8,0,1.4-0.1,1.8-0.1c0.4-0.1,0.6-0.1,0.7-0.1c0.2,0,0.2,0.2,0.2,0.5c0,0.5-0.1,2.3-0.1,2.9c0,0.3-0.1,0.4-0.2,0.4
		c-0.2,0-0.3-0.1-0.3-0.5l0-0.3c-0.1-0.7-0.7-1.4-3-1.4l-3.2-0.1v10.4c0,2.3,0,4.3,0.1,5.4c0.1,0.7,0.2,1.3,1,1.4
		c0.4,0.1,0.9,0.1,1.3,0.1c0.3,0,0.4,0.1,0.4,0.2c0,0.2-0.2,0.3-0.5,0.3c-1.7,0-3.3-0.1-4-0.1c-0.6,0-2.2,0.1-3.2,0.1
		c-0.3,0-0.5-0.1-0.5-0.3c0-0.1,0.1-0.2,0.4-0.2c0.4,0,0.7-0.1,0.9-0.1c0.5-0.1,0.7-0.7,0.7-1.4c0.1-1.1,0.1-3.1,0.1-5.4V192.4z"/>
	<path class="st0" d="M118.4,200.9c0.1,0,0.1,0,0.1-0.2v-0.5c0-3.3,0-4.1-0.1-4.8c-0.1-0.7-0.3-1-1-1.2c-0.2,0-0.6-0.1-0.9-0.1
		c-0.3,0-0.4-0.1-0.4-0.2c0-0.2,0.2-0.2,0.5-0.2c1.2,0,2.8,0.1,3.4,0.1c0.5,0,2-0.1,2.9-0.1c0.3,0,0.5,0.1,0.5,0.2
		c0,0.2-0.2,0.2-0.4,0.2c-0.2,0-0.4,0-0.7,0.1c-0.6,0.1-0.8,0.4-0.8,1.2c-0.1,0.7-0.1,1.3-0.1,4.6v3.8c0,2,0,3.7,0.1,4.6
		c0.1,0.6,0.2,1,0.9,1.1c0.3,0,0.8,0.1,1.1,0.1c0.2,0,0.4,0.1,0.4,0.2c0,0.2-0.2,0.2-0.5,0.2c-1.4,0-2.9-0.1-3.5-0.1
		c-0.5,0-2.1,0.1-2.9,0.1c-0.3,0-0.5-0.1-0.5-0.2c0-0.1,0.1-0.2,0.4-0.2c0.4,0,0.6,0,0.8-0.1c0.5-0.1,0.6-0.5,0.7-1.1
		c0.1-0.9,0.1-2.6,0.1-4.6v-1.7c0-0.1-0.1-0.1-0.1-0.1h-8.4c-0.1,0-0.2,0-0.2,0.1v1.7c0,2,0,3.6,0.1,4.6c0.1,0.6,0.2,1,0.9,1.1
		c0.3,0,0.8,0.1,1.1,0.1c0.3,0,0.4,0.1,0.4,0.2c0,0.2-0.2,0.2-0.5,0.2c-1.5,0-3-0.1-3.6-0.1c-0.5,0-2,0.1-2.9,0.1
		c-0.3,0-0.4-0.1-0.4-0.2c0-0.1,0.1-0.2,0.4-0.2c0.3,0,0.6,0,0.8-0.1c0.5-0.1,0.6-0.5,0.7-1.1c0.1-0.9,0.1-2.6,0.1-4.6v-3.8
		c0-3.3,0-3.9,0-4.6c0-0.7-0.2-1-1-1.2c-0.2,0-0.6-0.1-0.9-0.1c-0.2,0-0.4-0.1-0.4-0.2c0-0.2,0.2-0.2,0.5-0.2c1.2,0,2.7,0.1,3.3,0.1
		c0.5,0,2.1-0.1,3-0.1c0.3,0,0.5,0.1,0.5,0.2c0,0.2-0.1,0.2-0.4,0.2c-0.2,0-0.4,0-0.6,0.1c-0.6,0.1-0.8,0.4-0.8,1.2
		c-0.1,0.7-0.1,1.5-0.1,4.8v0.5c0,0.1,0.1,0.2,0.2,0.2H118.4z"/>
	<path class="st0" d="M128.8,200.1c0-3.3,0-3.9,0-4.6c-0.1-0.7-0.3-1-1-1.2c-0.2,0-0.6-0.1-0.9-0.1c-0.2,0-0.4-0.1-0.4-0.2
		c0-0.2,0.2-0.2,0.5-0.2c1.2,0,2.6,0.1,3.2,0.1c0.7,0,5.7,0,6.1,0c0.4,0,0.8-0.1,0.9-0.1c0.1,0,0.3-0.1,0.4-0.1
		c0.1,0,0.2,0.1,0.2,0.2c0,0.2-0.1,0.4-0.2,1.4c0,0.2-0.1,1.2-0.1,1.4c0,0.1-0.1,0.4-0.2,0.4c-0.2,0-0.2-0.1-0.2-0.3
		c0-0.2,0-0.5-0.2-0.8c-0.2-0.4-0.4-0.7-1.5-0.8c-0.4-0.1-3.1-0.1-3.5-0.1c-0.1,0-0.2,0.1-0.2,0.2v5.3c0,0.1,0,0.2,0.2,0.2
		c0.5,0,3.4,0,3.9-0.1c0.5-0.1,0.8-0.1,1.1-0.3c0.2-0.2,0.3-0.3,0.4-0.3c0.1,0,0.2,0.1,0.2,0.2c0,0.1-0.1,0.5-0.2,1.6
		c-0.1,0.4-0.1,1.3-0.1,1.4c0,0.2,0,0.5-0.2,0.5c-0.2,0-0.2-0.1-0.2-0.2c0-0.2,0-0.5-0.1-0.8c-0.1-0.4-0.4-0.8-1.2-0.8
		c-0.4-0.1-3-0.1-3.5-0.1c-0.1,0-0.1,0.1-0.1,0.2v1.7c0,0.7,0,2.6,0,3.2c0,1.5,0.7,1.8,3,1.8c0.6,0,1.5,0,2.1-0.3
		c0.6-0.3,0.8-0.7,1-1.6c0.1-0.2,0.1-0.3,0.3-0.3c0.2,0,0.2,0.3,0.2,0.5c0,0.5-0.2,2-0.3,2.4c-0.2,0.6-0.4,0.6-1.2,0.6
		c-1.7,0-3,0-4.1-0.1c-1.1,0-1.9-0.1-2.6-0.1c-0.3,0-0.7,0-1.3,0c-0.5,0-1.1,0-1.6,0c-0.3,0-0.4-0.1-0.4-0.2c0-0.1,0.1-0.2,0.4-0.2
		c0.3,0,0.6,0,0.8-0.1c0.5-0.1,0.6-0.5,0.7-1.1c0.1-0.9,0.1-2.6,0.1-4.6V200.1z"/>
	<path class="st0" d="M152.7,203.7c-0.1,0-0.2,0.1-0.2,0.2l-1.4,3.5c-0.3,0.6-0.4,1.2-0.4,1.6c0,0.5,0.2,0.8,1,0.8h0.4
		c0.3,0,0.4,0,0.4,0.2c0,0.2-0.2,0.3-0.4,0.3c-0.8,0-1.9-0.1-2.7-0.1c-0.3,0-1.7,0.1-3,0.1c-0.3,0-0.5-0.1-0.5-0.3
		c0-0.2,0.1-0.2,0.3-0.2c0.2,0,0.6,0,0.8-0.1c1.2-0.2,1.7-1,2.2-2.3l6.4-15.8c0.3-0.7,0.5-1,0.7-1c0.2,0,0.4,0.2,0.6,0.8
		c0.6,1.4,4.7,11.6,6.3,15.4c1,2.3,1.7,2.6,2.2,2.8c0.4,0.1,0.8,0.1,1.1,0.1c0.2,0,0.3,0,0.3,0.2c0,0.2-0.2,0.3-1.2,0.3
		c-0.9,0-2.8,0-4.8-0.1c-0.5,0-0.8,0-0.8-0.2c0-0.2,0.1-0.2,0.4-0.2c0.2-0.1,0.4-0.3,0.2-0.6l-2-5.2c-0.1-0.1-0.1-0.2-0.3-0.2H152.7
		z M157.9,202.4c0.1,0,0.2-0.1,0.1-0.2l-2.3-6.3c0-0.1-0.1-0.2-0.1-0.2c-0.1,0-0.1,0.1-0.2,0.2l-2.3,6.2c0,0.1,0,0.2,0.1,0.2H157.9z
		"/>
	<path class="st0" d="M168.9,200.1c0-3.3,0-3.9,0-4.6c-0.1-0.7-0.3-1-1-1.2c-0.2-0.1-0.6-0.1-0.9-0.1c-0.2,0-0.4-0.1-0.4-0.2
		c0-0.2,0.2-0.2,0.5-0.2c1.2,0,2.6,0.1,3.1,0.1c0.8,0,2.8-0.1,3.5-0.1c1.4,0,3.1,0.1,4.2,0.9c0.6,0.4,1.6,1.5,1.6,3
		c0,1.6-0.9,3-3.1,4.8c2,2.4,3.6,4.4,4.9,5.7c1.2,1.3,2,1.3,2.4,1.4c0.2,0.1,0.4,0.1,0.5,0.1c0.2,0,0.3,0.1,0.3,0.2
		c0,0.2-0.2,0.2-0.4,0.2H182c-1.2,0-1.9-0.1-2.4-0.4c-1-0.5-1.8-1.5-3.1-3.2c-0.9-1.2-1.8-2.6-2.1-2.9c-0.1-0.1-0.3-0.2-0.4-0.2
		l-2-0.1c-0.1,0-0.2,0.1-0.2,0.2v0.3c0,2,0,3.7,0.1,4.6c0.1,0.6,0.2,1,0.9,1.1c0.3,0.1,0.8,0.1,1.1,0.1c0.2,0,0.3,0.1,0.3,0.2
		c0,0.2-0.2,0.2-0.5,0.2c-1.3,0-3.2-0.1-3.5-0.1c-0.4,0-1.9,0.1-2.7,0.1c-0.3,0-0.4-0.1-0.4-0.2c0-0.1,0.1-0.2,0.4-0.2
		c0.3,0,0.6,0,0.8-0.1c0.5-0.1,0.6-0.5,0.7-1.1c0.1-0.9,0.1-2.6,0.1-4.6V200.1z M171.8,201.8c0,0.2,0.1,0.3,0.2,0.4
		c0.5,0.2,1.1,0.2,1.7,0.2c0.9,0,1.2-0.1,1.6-0.4c0.7-0.5,1.5-1.4,1.5-3.2c0-3.1-2.1-3.8-3.4-3.8c-0.6,0-1.1,0-1.3,0.1
		c-0.2,0.1-0.2,0.1-0.2,0.3V201.8z"/>
	<path class="st0" d="M188.4,195.2l-3.3,0.1c-1.3,0-1.8,0.2-2.2,0.7c-0.2,0.3-0.3,0.6-0.4,0.7c-0.1,0.2-0.1,0.3-0.3,0.3
		c-0.2,0-0.2-0.1-0.2-0.4c0-0.4,0.4-2.4,0.5-2.6c0.1-0.3,0.1-0.4,0.3-0.4c0.2,0,0.4,0.2,1,0.3c0.7,0.1,1.5,0.1,2.2,0.1h9.1
		c0.7,0,1.2-0.1,1.5-0.1c0.4-0.1,0.5-0.1,0.6-0.1c0.2,0,0.2,0.1,0.2,0.5c0,0.5-0.1,2.1-0.1,2.6c0,0.2-0.1,0.4-0.2,0.4
		c-0.2,0-0.2-0.1-0.2-0.4l0-0.2c-0.1-0.6-0.6-1.2-2.6-1.2l-2.8-0.1v8.8c0,2,0,3.7,0.1,4.6c0.1,0.6,0.2,1,0.9,1.1
		c0.3,0.1,0.8,0.1,1.1,0.1c0.3,0,0.4,0.1,0.4,0.2c0,0.2-0.2,0.2-0.4,0.2c-1.5,0-3-0.1-3.6-0.1c-0.5,0-2,0.1-2.9,0.1
		c-0.3,0-0.4-0.1-0.4-0.2c0-0.1,0.1-0.2,0.4-0.2c0.3,0,0.6,0,0.8-0.1c0.5-0.1,0.6-0.5,0.7-1.1c0.1-0.9,0.1-2.6,0.1-4.6V195.2z"/>
	<path class="st0" d="M203.5,206.7c0.1,2,0.4,2.6,0.9,2.8c0.4,0.2,0.9,0.2,1.3,0.2c0.3,0,0.4,0.1,0.4,0.2c0,0.2-0.2,0.3-0.6,0.3
		c-1.7,0-2.7-0.1-3.2-0.1c-0.2,0-1.4,0.1-2.8,0.1c-0.3,0-0.6,0-0.6-0.3c0-0.2,0.2-0.2,0.4-0.2c0.3,0,0.8,0,1.2-0.1
		c0.7-0.2,0.8-0.9,0.8-3.2l0.2-15c0-0.5,0.1-0.9,0.3-0.9c0.3,0,0.5,0.3,0.9,0.8c0.3,0.3,4.2,4.4,7.9,8.1c1.7,1.7,5.2,5.4,5.6,5.8
		h0.1l-0.3-11.4c0-1.6-0.3-2-0.9-2.3c-0.4-0.2-1-0.2-1.3-0.2c-0.3,0-0.4-0.1-0.4-0.2c0-0.2,0.3-0.2,0.7-0.2c1.3,0,2.5,0.1,3.1,0.1
		c0.3,0,1.2-0.1,2.5-0.1c0.3,0,0.6,0,0.6,0.2c0,0.2-0.2,0.2-0.5,0.2c-0.3,0-0.5,0-0.8,0.1c-0.7,0.2-0.9,0.7-0.9,2.2l-0.3,16.1
		c0,0.6-0.1,0.8-0.3,0.8c-0.3,0-0.6-0.3-0.9-0.6c-1.6-1.5-4.9-4.9-7.5-7.5c-2.8-2.7-5.6-5.9-6.1-6.3h-0.1L203.5,206.7z"/>
	<path class="st0" d="M225.1,200.1c0-3.3,0-3.9,0-4.6c-0.1-0.7-0.3-1-1-1.2c-0.2,0-0.6-0.1-0.9-0.1c-0.2,0-0.4-0.1-0.4-0.2
		c0-0.2,0.2-0.2,0.5-0.2c1.2,0,2.6,0.1,3.2,0.1c0.7,0,5.7,0,6.1,0c0.4,0,0.8-0.1,0.9-0.1c0.1,0,0.3-0.1,0.4-0.1
		c0.1,0,0.2,0.1,0.2,0.2c0,0.2-0.1,0.4-0.2,1.4c0,0.2-0.1,1.2-0.1,1.4c0,0.1-0.1,0.4-0.2,0.4c-0.2,0-0.2-0.1-0.2-0.3
		c0-0.2,0-0.5-0.2-0.8c-0.2-0.4-0.4-0.7-1.5-0.8c-0.4-0.1-3.1-0.1-3.5-0.1c-0.1,0-0.2,0.1-0.2,0.2v5.3c0,0.1,0,0.2,0.2,0.2
		c0.5,0,3.4,0,3.9-0.1c0.5-0.1,0.8-0.1,1.1-0.3c0.2-0.2,0.3-0.3,0.4-0.3c0.1,0,0.2,0.1,0.2,0.2c0,0.1-0.1,0.5-0.2,1.6
		c-0.1,0.4-0.1,1.3-0.1,1.4c0,0.2,0,0.5-0.2,0.5c-0.2,0-0.2-0.1-0.2-0.2c0-0.2,0-0.5-0.1-0.8c-0.1-0.4-0.4-0.8-1.2-0.8
		c-0.4-0.1-3-0.1-3.5-0.1c-0.1,0-0.1,0.1-0.1,0.2v1.7c0,0.7,0,2.6,0,3.2c0,1.5,0.7,1.8,3,1.8c0.6,0,1.5,0,2.1-0.3
		c0.6-0.3,0.8-0.7,1-1.6c0.1-0.2,0.1-0.3,0.3-0.3c0.2,0,0.2,0.3,0.2,0.5c0,0.5-0.2,2-0.3,2.4c-0.2,0.6-0.4,0.6-1.2,0.6
		c-1.7,0-3,0-4.1-0.1c-1.1,0-1.9-0.1-2.6-0.1c-0.3,0-0.7,0-1.3,0c-0.5,0-1.1,0-1.6,0c-0.3,0-0.4-0.1-0.4-0.2c0-0.1,0.1-0.2,0.4-0.2
		c0.3,0,0.6,0,0.8-0.1c0.5-0.1,0.6-0.5,0.7-1.1c0.1-0.9,0.1-2.6,0.1-4.6V200.1z"/>
	<path class="st0" d="M238.6,209.9c-0.4-0.2-0.4-0.3-0.4-0.7c0-1.2,0.1-2.5,0.1-2.9c0-0.3,0.1-0.6,0.3-0.6c0.2,0,0.2,0.2,0.2,0.4
		c0,0.3,0.1,0.7,0.2,1.1c0.5,1.6,2.2,2.1,3.6,2.1c1.9,0,3.1-1.2,3.1-2.7c0-0.9-0.2-1.9-2.2-3.1l-1.3-0.8c-2.6-1.6-3.5-3-3.5-4.9
		c0-2.6,2.5-4.3,5.6-4.3c1.5,0,2.6,0.2,3.2,0.4c0.2,0,0.3,0.1,0.3,0.3c0,0.3-0.1,0.9-0.1,2.6c0,0.5-0.1,0.7-0.3,0.7
		c-0.2,0-0.2-0.1-0.2-0.4c0-0.2-0.1-0.9-0.6-1.4c-0.3-0.4-1-1-2.5-1c-1.6,0-3.1,0.8-3.1,2.3c0,1,0.4,1.7,2.4,2.8l0.9,0.5
		c3,1.6,3.9,3.3,3.9,5.2c0,1.6-0.6,2.9-2.2,4c-1.1,0.8-2.5,0.9-3.7,0.9C240.9,210.5,239.5,210.4,238.6,209.9"/>
	<path class="st0" d="M256.5,195.2l-3.3,0.1c-1.3,0-1.8,0.2-2.2,0.7c-0.2,0.3-0.3,0.6-0.4,0.7c-0.1,0.2-0.1,0.3-0.3,0.3
		c-0.2,0-0.2-0.1-0.2-0.4c0-0.4,0.4-2.4,0.5-2.6c0.1-0.3,0.1-0.4,0.3-0.4c0.2,0,0.4,0.2,1,0.3c0.7,0.1,1.5,0.1,2.2,0.1h9.1
		c0.7,0,1.2-0.1,1.5-0.1c0.4-0.1,0.5-0.1,0.6-0.1c0.2,0,0.2,0.1,0.2,0.5c0,0.5-0.1,2.1-0.1,2.6c0,0.2-0.1,0.4-0.2,0.4
		c-0.2,0-0.2-0.1-0.3-0.4l0-0.2c0-0.6-0.6-1.2-2.6-1.2l-2.8-0.1v8.8c0,2,0,3.7,0.1,4.6c0.1,0.6,0.2,1,0.9,1.1
		c0.3,0.1,0.8,0.1,1.1,0.1c0.3,0,0.4,0.1,0.4,0.2c0,0.2-0.2,0.2-0.4,0.2c-1.5,0-3-0.1-3.6-0.1c-0.5,0-2,0.1-2.9,0.1
		c-0.3,0-0.4-0.1-0.4-0.2c0-0.1,0.1-0.2,0.4-0.2c0.3,0,0.6,0,0.8-0.1c0.5-0.1,0.6-0.5,0.7-1.1c0.1-0.9,0.1-2.6,0.1-4.6V195.2z"/>
	<path class="st0" d="M117,222.2C117.1,222.2,117.1,222.1,117,222.2l0.1-0.3c0-1.7,0-2,0-2.4c0-0.4-0.1-0.6-0.5-0.6
		c-0.1,0-0.3,0-0.4,0c-0.1,0-0.2,0-0.2-0.1c0-0.1,0.1-0.1,0.2-0.1c0.6,0,1.3,0,1.6,0c0.3,0,1,0,1.4,0c0.2,0,0.2,0,0.2,0.1
		c0,0.1-0.1,0.1-0.2,0.1c-0.1,0-0.2,0-0.3,0c-0.3,0.1-0.4,0.2-0.4,0.6c0,0.4,0,0.7,0,2.4v2c0,1,0,1.9,0.1,2.4c0,0.3,0.1,0.6,0.4,0.6
		c0.2,0,0.4,0,0.6,0c0.1,0,0.2,0,0.2,0.1c0,0.1-0.1,0.1-0.2,0.1c-0.7,0-1.4,0-1.8,0c-0.3,0-1,0-1.4,0c-0.2,0-0.2,0-0.2-0.1
		c0-0.1,0-0.1,0.2-0.1c0.2,0,0.3,0,0.4,0c0.2,0,0.3-0.3,0.3-0.6c0.1-0.5,0.1-1.4,0.1-2.4v-1c0,0,0-0.1-0.1-0.1h-4.3
		c0,0-0.1,0-0.1,0.1v1c0,1,0,1.9,0.1,2.4c0,0.3,0.1,0.6,0.4,0.6c0.2,0,0.4,0,0.6,0c0.1,0,0.2,0,0.2,0.1c0,0.1-0.1,0.1-0.2,0.1
		c-0.7,0-1.4,0-1.8,0c-0.3,0-1,0-1.4,0c-0.1,0-0.2,0-0.2-0.1c0-0.1,0-0.1,0.2-0.1c0.2,0,0.3,0,0.4,0c0.2,0,0.3-0.3,0.3-0.6
		c0.1-0.5,0.1-1.4,0.1-2.4v-2c0-1.7,0-2,0-2.4c0-0.4-0.1-0.6-0.5-0.6c-0.1,0-0.3,0-0.4,0c-0.1,0-0.2,0-0.2-0.1
		c0-0.1,0.1-0.1,0.2-0.1c0.6,0,1.3,0,1.6,0c0.3,0,1,0,1.4,0c0.2,0,0.2,0,0.2,0.1c0,0.1-0.1,0.1-0.2,0.1c-0.1,0-0.2,0-0.3,0
		c-0.3,0.1-0.4,0.2-0.4,0.6c0,0.4,0,0.7,0,2.4v0.2c0,0.1,0,0.1,0.1,0.1H117z"/>
	<path class="st0" d="M120.8,222.8c0-1.9,1.3-4.4,4.6-4.4c2.8,0,4.5,1.6,4.5,4.2c0,2.6-1.8,4.6-4.7,4.6
		C122.1,227.2,120.8,224.8,120.8,222.8 M128.5,223.1c0-2.5-1.5-4.1-3.3-4.1c-1.3,0-2.8,0.7-2.8,3.5c0,2.3,1.3,4.2,3.5,4.2
		C126.6,226.7,128.5,226.3,128.5,223.1"/>
	<path class="st0" d="M133.8,219.2l-1.7,0c-0.7,0-0.9,0.1-1.1,0.3c-0.1,0.2-0.2,0.3-0.2,0.4c0,0.1-0.1,0.1-0.1,0.1
		c-0.1,0-0.1-0.1-0.1-0.2c0-0.2,0.2-1.2,0.2-1.3c0-0.1,0.1-0.2,0.1-0.2c0.1,0,0.2,0.1,0.5,0.1c0.3,0,0.8,0.1,1.1,0.1h4.5
		c0.4,0,0.6,0,0.8-0.1c0.2,0,0.3-0.1,0.3-0.1c0.1,0,0.1,0.1,0.1,0.2c0,0.2,0,1,0,1.3c0,0.1,0,0.2-0.1,0.2c-0.1,0-0.1-0.1-0.1-0.2
		l0-0.1c0-0.3-0.3-0.6-1.3-0.6l-1.4,0v4.6c0,1,0,1.9,0.1,2.4c0,0.3,0.1,0.6,0.4,0.6c0.2,0,0.4,0,0.6,0c0.1,0,0.2,0,0.2,0.1
		c0,0.1-0.1,0.1-0.2,0.1c-0.7,0-1.5,0-1.8,0c-0.3,0-1,0-1.4,0c-0.1,0-0.2,0-0.2-0.1c0-0.1,0-0.1,0.2-0.1c0.2,0,0.3,0,0.4,0
		c0.2,0,0.3-0.3,0.3-0.6c0.1-0.5,0.1-1.4,0.1-2.4V219.2z"/>
	<path class="st0" d="M140.3,221.8c0-1.7,0-2,0-2.4c0-0.4-0.1-0.6-0.5-0.6c-0.1,0-0.3,0-0.4,0c-0.1,0-0.2,0-0.2-0.1
		c0-0.1,0.1-0.1,0.2-0.1c0.3,0,0.6,0,0.9,0c0.3,0,0.6,0,0.7,0c0.4,0,2.6,0,2.8,0c0.2,0,0.4,0,0.5-0.1c0.1,0,0.1,0,0.2,0
		c0.1,0,0.1,0,0.1,0.1c0,0.1-0.1,0.2-0.1,0.7c0,0.1,0,0.6-0.1,0.7c0,0.1,0,0.1-0.1,0.1s-0.1-0.1-0.1-0.2c0-0.1,0-0.3-0.1-0.4
		c-0.1-0.2-0.2-0.3-0.8-0.4c-0.2,0-1.4,0-1.6,0c-0.1,0-0.1,0-0.1,0.1v2.8c0,0.1,0,0.1,0.1,0.1c0.2,0,1.5,0,1.8,0
		c0.3,0,0.4-0.1,0.5-0.2c0.1-0.1,0.1-0.1,0.2-0.1c0,0,0.1,0,0.1,0.1c0,0.1,0,0.2-0.1,0.8c0,0.2,0,0.7,0,0.8c0,0.1,0,0.2-0.1,0.2
		c-0.1,0-0.1,0-0.1-0.1c0-0.1,0-0.3,0-0.4c-0.1-0.2-0.2-0.4-0.6-0.4c-0.2,0-1.3,0-1.6,0c-0.1,0-0.1,0-0.1,0.1v0.9c0,0.4,0,1.4,0,1.7
		c0,0.8,0.2,0.9,1.3,0.9c0.3,0,0.8,0,1.1-0.1c0.3-0.1,0.4-0.4,0.5-0.8c0-0.1,0-0.2,0.1-0.2c0.1,0,0.1,0.1,0.1,0.2
		c0,0.3-0.1,1-0.1,1.3c-0.1,0.3-0.2,0.3-0.6,0.3c-0.8,0-1.5,0-1.9,0c-0.5,0-0.8,0-1.2,0c-0.1,0-0.4,0-0.6,0c-0.3,0-0.6,0-0.8,0
		c-0.1,0-0.2,0-0.2-0.1c0-0.1,0-0.1,0.2-0.1c0.2,0,0.3,0,0.4,0c0.2,0,0.3-0.3,0.3-0.6c0.1-0.5,0.1-1.4,0.1-2.4V221.8z"/>
	<path class="st0" d="M148.8,223.8c0,1.4,0,2.2,0.2,2.4c0.2,0.2,0.5,0.2,1.4,0.2c0.6,0,1,0,1.3-0.3c0.1-0.1,0.3-0.5,0.3-0.7
		c0-0.1,0-0.2,0.1-0.2c0.1,0,0.1,0.1,0.1,0.2c0,0.1-0.1,1-0.2,1.3c-0.1,0.2-0.1,0.3-0.7,0.3c-0.8,0-1.4,0-1.9,0c-0.5,0-0.9,0-1.4,0
		c-0.1,0-0.4,0-0.6,0c-0.3,0-0.6,0-0.8,0c-0.1,0-0.2,0-0.2-0.1c0-0.1,0-0.1,0.2-0.1c0.2,0,0.3,0,0.4,0c0.2,0,0.3-0.3,0.3-0.6
		c0.1-0.5,0.1-1.4,0.1-2.4v-2c0-1.7,0-2,0-2.4c0-0.4-0.1-0.6-0.5-0.6c-0.1,0-0.2,0-0.4,0c-0.1,0-0.2,0-0.2-0.1
		c0-0.1,0.1-0.1,0.2-0.1c0.5,0,1.2,0,1.5,0c0.3,0,1.1,0,1.5,0c0.2,0,0.2,0,0.2,0.1c0,0.1-0.1,0.1-0.2,0.1c-0.1,0-0.3,0-0.4,0
		c-0.3,0.1-0.4,0.2-0.4,0.6c0,0.4,0,0.7,0,2.4V223.8z"/>
	<path class="st0" d="M159.7,223.5c0.2,0,0.4,0,0.4,0.2c0,0.2-0.2,0.2-0.5,0.2c-0.5,0.1-2.5,0.4-2.9,0.5c-0.2,0.1-0.4,0.2-0.5,0.2
		c-0.1,0-0.1-0.1-0.1-0.2l0.2-0.8c0-0.1,0.1-0.1,0.3-0.1H159.7z"/>
	<path class="st0" d="M166.3,225.6c0,0.9,0.2,1.2,0.4,1.3c0.2,0.1,0.4,0.1,0.6,0.1c0.1,0,0.2,0,0.2,0.1c0,0.1-0.1,0.1-0.3,0.1
		c-0.7,0-1.2,0-1.4,0c-0.1,0-0.6,0-1.2,0c-0.1,0-0.2,0-0.2-0.1c0-0.1,0.1-0.1,0.2-0.1c0.1,0,0.3,0,0.5-0.1c0.3-0.1,0.3-0.4,0.3-1.4
		l0.1-6.6c0-0.2,0-0.4,0.1-0.4c0.1,0,0.2,0.2,0.4,0.4c0.1,0.1,1.8,1.9,3.5,3.6c0.8,0.8,2.3,2.4,2.5,2.6h0.1l-0.1-5
		c0-0.7-0.1-0.9-0.4-1c-0.2-0.1-0.4-0.1-0.6-0.1c-0.1,0-0.2,0-0.2-0.1c0-0.1,0.1-0.1,0.3-0.1c0.6,0,1.1,0,1.4,0c0.1,0,0.6,0,1.1,0
		c0.2,0,0.3,0,0.3,0.1c0,0.1-0.1,0.1-0.2,0.1c-0.1,0-0.2,0-0.3,0c-0.3,0.1-0.4,0.3-0.4,1l-0.1,7.1c0,0.2,0,0.3-0.1,0.3
		c-0.1,0-0.3-0.1-0.4-0.2c-0.7-0.7-2.1-2.1-3.3-3.3c-1.2-1.2-2.5-2.6-2.7-2.8h0L166.3,225.6z"/>
	<path class="st0" d="M182.1,222.2C182.1,222.2,182.2,222.1,182.1,222.2l0.1-0.3c0-1.7,0-2,0-2.4c0-0.4-0.1-0.6-0.5-0.6
		c-0.1,0-0.3,0-0.4,0c-0.1,0-0.2,0-0.2-0.1c0-0.1,0.1-0.1,0.2-0.1c0.6,0,1.3,0,1.6,0c0.3,0,1,0,1.4,0c0.2,0,0.2,0,0.2,0.1
		c0,0.1-0.1,0.1-0.2,0.1c-0.1,0-0.2,0-0.3,0c-0.3,0.1-0.4,0.2-0.4,0.6c0,0.4,0,0.7,0,2.4v2c0,1,0,1.9,0.1,2.4c0,0.3,0.1,0.6,0.4,0.6
		c0.2,0,0.4,0,0.6,0c0.1,0,0.2,0,0.2,0.1c0,0.1-0.1,0.1-0.2,0.1c-0.7,0-1.4,0-1.8,0c-0.3,0-1,0-1.4,0c-0.2,0-0.2,0-0.2-0.1
		c0-0.1,0-0.1,0.2-0.1c0.2,0,0.3,0,0.4,0c0.2,0,0.3-0.3,0.3-0.6c0.1-0.5,0.1-1.4,0.1-2.4v-1c0,0,0-0.1-0.1-0.1h-4.3
		c0,0-0.1,0-0.1,0.1v1c0,1,0,1.9,0.1,2.4c0,0.3,0.1,0.6,0.4,0.6c0.2,0,0.4,0,0.6,0c0.1,0,0.2,0,0.2,0.1c0,0.1-0.1,0.1-0.2,0.1
		c-0.7,0-1.4,0-1.8,0c-0.3,0-1,0-1.4,0c-0.1,0-0.2,0-0.2-0.1c0-0.1,0-0.1,0.2-0.1c0.2,0,0.3,0,0.4,0c0.2,0,0.3-0.3,0.3-0.6
		c0.1-0.5,0.1-1.4,0.1-2.4v-2c0-1.7,0-2,0-2.4c0-0.4-0.1-0.6-0.5-0.6c-0.1,0-0.3,0-0.4,0c-0.1,0-0.2,0-0.2-0.1
		c0-0.1,0.1-0.1,0.2-0.1c0.6,0,1.3,0,1.6,0c0.3,0,1,0,1.4,0c0.2,0,0.2,0,0.2,0.1c0,0.1-0.1,0.1-0.2,0.1c-0.1,0-0.2,0-0.3,0
		c-0.3,0.1-0.4,0.2-0.4,0.6c0,0.4,0,0.7,0,2.4v0.2c0,0.1,0,0.1,0.1,0.1H182.1z"/>
	<path class="st0" d="M187.7,224.2C187.7,224.2,187.6,224.2,187.7,224.2l-0.7,1.6c-0.1,0.3-0.2,0.6-0.2,0.7c0,0.2,0.1,0.4,0.4,0.4
		h0.2c0.1,0,0.2,0,0.2,0.1c0,0.1-0.1,0.1-0.2,0.1c-0.4,0-0.8,0-1.2,0c-0.1,0-0.7,0-1.3,0c-0.1,0-0.2,0-0.2-0.1c0-0.1,0-0.1,0.1-0.1
		c0.1,0,0.3,0,0.3,0c0.5-0.1,0.7-0.5,1-1l2.8-7c0.1-0.3,0.2-0.4,0.3-0.4c0.1,0,0.2,0.1,0.3,0.4c0.3,0.6,2.1,5.1,2.8,6.8
		c0.4,1,0.8,1.2,1,1.2c0.2,0,0.3,0,0.5,0c0.1,0,0.1,0,0.1,0.1c0,0.1-0.1,0.1-0.5,0.1c-0.4,0-1.2,0-2.1,0c-0.2,0-0.3,0-0.3-0.1
		c0-0.1,0-0.1,0.2-0.1c0.1,0,0.2-0.1,0.1-0.3l-0.9-2.3c0-0.1-0.1-0.1-0.1-0.1H187.7z M190,223.7C190.1,223.7,190.1,223.6,190,223.7
		l-1-2.8c0,0,0-0.1-0.1-0.1c0,0-0.1,0.1-0.1,0.1l-1,2.8c0,0,0,0.1,0,0.1H190z"/>
	<path class="st0" d="M200,219.2l-1.7,0c-0.7,0-0.9,0.1-1.1,0.3c-0.1,0.2-0.2,0.3-0.2,0.4c0,0.1-0.1,0.1-0.1,0.1
		c-0.1,0-0.1-0.1-0.1-0.2c0-0.2,0.2-1.2,0.2-1.3c0-0.1,0.1-0.2,0.1-0.2c0.1,0,0.2,0.1,0.5,0.1c0.3,0,0.8,0.1,1.1,0.1h4.5
		c0.4,0,0.6,0,0.8-0.1c0.2,0,0.3-0.1,0.3-0.1c0.1,0,0.1,0.1,0.1,0.2c0,0.2,0,1,0,1.3c0,0.1,0,0.2-0.1,0.2c-0.1,0-0.1-0.1-0.1-0.2
		l0-0.1c0-0.3-0.3-0.6-1.3-0.6l-1.4,0v4.6c0,1,0,1.9,0.1,2.4c0,0.3,0.1,0.6,0.4,0.6c0.2,0,0.4,0,0.6,0c0.1,0,0.2,0,0.2,0.1
		c0,0.1-0.1,0.1-0.2,0.1c-0.7,0-1.4,0-1.8,0c-0.3,0-1,0-1.4,0c-0.1,0-0.2,0-0.2-0.1c0-0.1,0-0.1,0.2-0.1c0.2,0,0.3,0,0.4,0
		c0.2,0,0.3-0.3,0.3-0.6c0.1-0.5,0.1-1.4,0.1-2.4V219.2z"/>
	<path class="st0" d="M206.5,221.8c0-1.7,0-2,0-2.4c0-0.4-0.1-0.6-0.5-0.6c-0.1,0-0.3,0-0.4,0c-0.1,0-0.2,0-0.2-0.1
		c0-0.1,0.1-0.1,0.2-0.1c0.6,0,1.3,0,1.5,0c0.4,0,1.2,0,1.6,0c0.7,0,1.5,0.1,2.1,0.5c0.3,0.2,0.8,0.8,0.8,1.5c0,0.8-0.3,1.6-1.5,2.5
		c1,1.3,1.8,2.3,2.4,3c0.6,0.7,1.1,0.7,1.3,0.8c0.1,0,0.2,0,0.3,0s0.1,0,0.1,0.1c0,0.1-0.1,0.1-0.2,0.1h-1.1c-0.6,0-0.9-0.1-1.2-0.2
		c-0.5-0.3-0.9-0.8-1.5-1.7c-0.5-0.6-1-1.4-1.1-1.6c-0.1-0.1-0.1-0.1-0.2-0.1l-1,0c-0.1,0-0.1,0-0.1,0.1v0.2c0,1,0,1.9,0.1,2.4
		c0,0.3,0.1,0.6,0.4,0.6c0.2,0,0.4,0,0.6,0c0.1,0,0.1,0,0.1,0.1c0,0.1-0.1,0.1-0.2,0.1c-0.7,0-1.5,0-1.7,0c-0.2,0-0.9,0-1.4,0
		c-0.2,0-0.2,0-0.2-0.1c0-0.1,0-0.1,0.2-0.1c0.2,0,0.3,0,0.4,0c0.2,0,0.3-0.3,0.3-0.6c0.1-0.5,0.1-1.4,0.1-2.4V221.8z M207.8,222.7
		c0,0.1,0,0.2,0.1,0.2c0.2,0.1,0.6,0.1,0.9,0.1c0.5,0,0.6,0,0.8-0.2c0.3-0.2,0.7-0.8,0.7-1.7c0-1.6-1.1-2.1-1.7-2.1
		c-0.3,0-0.5,0-0.6,0c-0.1,0-0.1,0.1-0.1,0.2V222.7z"/>
	<path class="st0" d="M215.4,224.2C215.4,224.2,215.4,224.2,215.4,224.2l-0.7,1.6c-0.1,0.3-0.2,0.6-0.2,0.7c0,0.2,0.1,0.4,0.5,0.4
		h0.2c0.1,0,0.2,0,0.2,0.1c0,0.1-0.1,0.1-0.2,0.1c-0.4,0-0.8,0-1.2,0c-0.1,0-0.7,0-1.3,0c-0.2,0-0.2,0-0.2-0.1c0-0.1,0-0.1,0.1-0.1
		c0.1,0,0.3,0,0.3,0c0.5-0.1,0.7-0.5,1-1l2.8-7c0.1-0.3,0.2-0.4,0.3-0.4c0.1,0,0.2,0.1,0.3,0.4c0.3,0.6,2.1,5.1,2.8,6.8
		c0.4,1,0.8,1.2,1,1.2c0.2,0,0.3,0,0.5,0c0.1,0,0.1,0,0.1,0.1c0,0.1-0.1,0.1-0.5,0.1c-0.4,0-1.2,0-2.1,0c-0.2,0-0.3,0-0.3-0.1
		c0-0.1,0-0.1,0.2-0.1c0.1,0,0.2-0.1,0.1-0.3l-0.9-2.3c0-0.1-0.1-0.1-0.1-0.1H215.4z M217.7,223.7
		C217.8,223.7,217.8,223.6,217.7,223.7l-1-2.8c0,0,0-0.1-0.1-0.1c0,0-0.1,0.1-0.1,0.1l-1,2.8c0,0,0,0.1,0,0.1H217.7z"/>
	<path class="st0" d="M223.5,225.6c0,0.9,0.2,1.2,0.4,1.3c0.2,0.1,0.4,0.1,0.6,0.1c0.1,0,0.2,0,0.2,0.1c0,0.1-0.1,0.1-0.3,0.1
		c-0.7,0-1.2,0-1.4,0c-0.1,0-0.6,0-1.2,0c-0.2,0-0.2,0-0.2-0.1c0-0.1,0.1-0.1,0.2-0.1c0.1,0,0.3,0,0.5-0.1c0.3-0.1,0.3-0.4,0.3-1.4
		l0.1-6.6c0-0.2,0-0.4,0.1-0.4c0.1,0,0.2,0.2,0.4,0.4c0.1,0.1,1.8,1.9,3.5,3.6c0.8,0.8,2.3,2.4,2.5,2.6h0.1l-0.1-5
		c0-0.7-0.1-0.9-0.4-1c-0.2-0.1-0.4-0.1-0.6-0.1c-0.1,0-0.2,0-0.2-0.1c0-0.1,0.1-0.1,0.3-0.1c0.6,0,1.1,0,1.4,0c0.1,0,0.6,0,1.1,0
		c0.2,0,0.3,0,0.3,0.1c0,0.1-0.1,0.1-0.2,0.1c-0.1,0-0.2,0-0.3,0c-0.3,0.1-0.4,0.3-0.4,1l-0.1,7.1c0,0.2,0,0.3-0.1,0.3
		c-0.1,0-0.3-0.1-0.4-0.2c-0.7-0.7-2.1-2.1-3.3-3.3c-1.2-1.2-2.5-2.6-2.7-2.8h0L223.5,225.6z"/>
	<path class="st0" d="M240.2,226.3c0,0.3,0,0.3-0.1,0.4c-0.7,0.4-1.8,0.5-2.7,0.5c-2.8,0-5.2-1.3-5.2-4.4c0-1.8,0.9-3.1,2-3.7
		c1.1-0.7,2.1-0.7,3-0.7c0.8,0,1.8,0.1,2,0.2c0.2,0,0.6,0.1,0.9,0.1c0.1,0,0.2,0.1,0.2,0.1c0,0.1-0.1,0.4-0.1,1.8
		c0,0.2,0,0.2-0.1,0.2c-0.1,0-0.1-0.1-0.1-0.1c0-0.3-0.1-0.6-0.4-0.9c-0.3-0.4-1.2-0.9-2.5-0.9c-0.6,0-1.4,0-2.2,0.7
		c-0.6,0.5-1,1.4-1,2.8c0,2.4,1.5,4.2,3.9,4.2c0.3,0,0.7,0,1-0.1c0.2-0.1,0.2-0.2,0.2-0.4v-1.1c0-0.6,0-1,0-1.3
		c0-0.4-0.1-0.6-0.5-0.6c-0.1,0-0.3,0-0.4,0c-0.1,0-0.2,0-0.2-0.1c0-0.1,0.1-0.1,0.2-0.1c0.6,0,1.3,0,1.6,0c0.4,0,0.9,0,1.3,0
		c0.1,0,0.2,0,0.2,0.1c0,0.1-0.1,0.1-0.1,0.1c-0.1,0-0.2,0-0.3,0c-0.3,0.1-0.4,0.2-0.4,0.6c0,0.3,0,0.8,0,1.3V226.3z"/>
</g>
</svg>
