<?xml version="1.0" encoding="utf-8"?>
<!-- Generator: Adobe Illustrator 21.1.0, SVG Export Plug-In . SVG Version: 6.00 Build 0)  -->
<svg version="1.1" id="Layer_1" xmlns="http://www.w3.org/2000/svg" xmlns:xlink="http://www.w3.org/1999/xlink" x="0px" y="0px"
	 viewBox="0 0 350 255.1" style="enable-background:new 0 0 350 255.1;" xml:space="preserve">
<style type="text/css">
	.st0{fill:#1F191A;}
</style>
<g>
	<path class="st0" d="M156.5,117.2C156.4,117.2,156.4,117.2,156.5,117.2c-0.3,0-0.4-0.2-0.3-0.4c0.2-2,0.4-3.8-3.2-8.9
		c-3.1-4.5-4.1-8.3-3.3-11.8c1-3.7,4.4-7,10.1-9.8c0.1-0.1,0.3,0,0.5,0.1c0.1,0.1,0,0.3-0.1,0.5c-0.1,0.1-9.6,8.2-5.4,16.3
		c3.2,6.1,3.7,10,2,13.7C156.7,117.2,156.6,117.2,156.5,117.2 M158.1,88.1c-4.3,2.4-6.9,5.2-7.7,8.2c-0.9,3.3,0.2,6.9,3.2,11.2
		c2.4,3.4,3.1,5.4,3.3,7c0.6-2.9-0.3-6.2-2.7-11C150.9,97.3,155.5,91,158.1,88.1"/>
	<path class="st0" d="M155.2,116.3c-0.1,0-0.3-0.1-0.3-0.3c-0.1-0.4-0.2-0.8-0.3-1.2c-0.3-1.8-0.5-2.9-6.1-6c-3.5-1.9-4.2-4.4-4.2-6
		c0-2.8,2-5.3,3.8-6.3c0.1-0.1,0.3,0,0.4,0s0.1,0.3,0,0.4c-0.1,0.2-2.6,4.6,1.6,8.8c4.7,4.6,5.8,6.8,5.4,10.2
		C155.6,116.2,155.4,116.3,155.2,116.3L155.2,116.3z M147.5,97.9c-1.3,1.1-2.5,3-2.5,5c0,2.2,1.3,4,3.9,5.4c3.5,2,5,3.2,5.7,4.3
		c-0.6-1.7-2.1-3.5-4.8-6.3C146.4,103.1,146.9,99.6,147.5,97.9"/>
	<path class="st0" d="M195.8,119.2c0,0-0.1,0-0.1,0c-0.1-0.1-0.2-0.3-0.2-0.4c1.3-3.3,3-4.3,7.8-7c4.5-2.5,3.2-8.1,3.2-8.2
		c0-0.2,0-0.3,0.2-0.4c0.1,0,0.3,0,0.4,0.1c1.1,1.6,1.8,4.7,0.9,7.2c-0.8,2-2.5,3.5-5.1,4.1c-4.1,1-5.8,2.8-6.8,4.5
		C196,119.2,195.9,119.2,195.8,119.2 M207.3,105.4c0,2-0.6,5.2-3.7,7c-2.6,1.4-4.2,2.4-5.4,3.4c1.1-0.7,2.6-1.4,4.5-1.9
		c2.3-0.6,3.9-1.8,4.6-3.7C208,108.7,207.8,106.8,207.3,105.4"/>
	<path class="st0" d="M141.6,113.6C141.6,113.6,141.6,113.6,141.6,113.6c-0.2,0-0.3-0.1-0.3-0.3c-0.3-2.4,0.8-6.3,2.5-8.5
		c0.1-0.1,0.3-0.2,0.4-0.1c0.1,0,0.2,0.2,0.2,0.3s-0.1,3.5,5.1,5c0.2,0,0.3,0.2,0.2,0.4c0,0.2-0.2,0.3-0.4,0.3
		c-0.7-0.1-1.6-0.1-2.5-0.1c-2.7,0-4.1,0.8-4.9,2.8C141.8,113.5,141.7,113.6,141.6,113.6 M143.7,105.9c-1,1.8-1.8,4.1-1.9,6
		c1.3-1.8,3.3-2.1,4.9-2.1c0.1,0,0.2,0,0.3,0C144.8,108.6,144,106.9,143.7,105.9"/>
	<path class="st0" d="M194.9,139.5L194.9,139.5c-1.9,0-3.9-0.4-6-1.1c-4.5-1.5-15.3-10.4-25.6-25.6c0.2,3.1,0.2,10.3-4.1,14
		c-3.4,2.8-7.4,3.2-9,3.2c-0.5,0-0.8,0-1,0c-0.7-0.1-1.8-0.6-2.7-1c-0.4-0.2-1.3-0.7-1.7-1.1c-0.6-0.5-1.2-1.2-1.5-1.6
		c-0.4-0.7-0.8-1.5-1.2-2.4c-0.7-1.8-1.4-5.9,0.8-9c1-1.3,2.6-3.1,4.6-3.6c2.1-0.6,3.5-0.3,4.9,0.7c0.9,0.7,1.8,2.2,1.7,3.8
		c0,0.9-0.4,2.1-2,2.9c-1.1,0.6-2.6,0.4-3.4-0.5c-0.7-0.7-0.9-1.5-0.5-2.4c0.3-0.7,1-1.4,1.7-1.5c0-0.1-0.2-0.2-0.5-0.3
		c-1-0.3-3.3,0.7-3.9,3.8c-0.4,1.8,0,3.5,1,4.7c1.4,1.7,3.8,2.1,6.5,1c4.7-2,6.2-8.1,5.6-13c-0.2-1.9-0.5-3.7-0.8-5.4
		c-0.5-3.1-0.9-5.8-0.8-7.1c0.8-11.2,10.1-15.2,17.7-15.2c0.8,0,1.5,0,2.3,0.1c0.1,0,0.3,0.1,0.3,0.3c0,0.1,0,0.3-0.2,0.4
		c-3.7,1.6-7.9,5.3-9.3,10c-1.1,3.7-0.3,7.6,2.4,11.4c0.7,0.9,1.3,1.9,1.9,2.8c3.5,5.3,6.6,9.9,12.6,15.1c0.1,0.1,0.3,0.3,0.5,0.4
		c2,1.8,6.7,6,10.9,6c0.7,0,1.5-0.1,2.1-0.4c2.7-1.1,4-2.6,4.1-4.5c0-0.7-0.2-1.3-0.7-1.9c-0.6-0.6-1.3-1-2-1
		c-0.4,0-0.8,0.1-1.2,0.5c0.5,0,0.9,0.3,1.2,0.8c0.3,0.5,0.3,1,0.1,1.4c-0.5,0.9-1.2,1.4-2,1.4c-0.8,0-1.6-0.6-2.2-1.5
		c0,0-0.7-1.3-0.3-2.8c0.4-1.3,1.6-2.4,3.5-3.2c0.5-0.2,1.1-0.3,1.7-0.3c2.5,0,5.4,1.7,6.3,3.8c1.3,2.9,2.6,7.4-2.3,13.5
		C202,138,198.8,139.5,194.9,139.5 M162.8,111.1c0.1,0,0.2,0,0.3,0.1c10.4,15.8,21.5,25,26,26.5c6.3,2.1,11.4,1,14.8-3.2
		c4.6-5.7,3.6-9.8,2.2-12.7c-0.8-1.8-3.5-3.4-5.7-3.4c-0.5,0-1,0.1-1.4,0.3c-1.7,0.7-2.7,1.6-3.1,2.7c-0.4,1.2,0.2,2.2,0.2,2.2
		c0.5,0.8,1,1.2,1.6,1.2c0.6,0,1.1-0.4,1.4-1c0.1-0.2,0-0.5-0.1-0.7c-0.2-0.3-0.7-0.6-1.1-0.2c-0.1,0.1-0.3,0.1-0.4,0
		c-0.1-0.1-0.2-0.2-0.1-0.4c0.4-1.1,1.2-1.7,2.2-1.7c0.9,0,1.9,0.5,2.6,1.2c0.7,0.7,1,1.5,0.9,2.4c-0.2,3.3-3.5,4.7-4.6,5.1
		c-0.7,0.3-1.5,0.5-2.4,0.5c-4.5,0-9.4-4.4-11.4-6.2c-0.2-0.1-0.3-0.3-0.5-0.4c-6.1-5.4-9.3-10.1-12.7-15.3
		c-0.6-0.9-1.3-1.9-1.9-2.8c-2.8-4-3.6-8.1-2.5-12.1c1.3-4.7,5.1-8,8.3-9.8c-0.3,0-0.7,0-1,0c-7.4,0-16.2,3.8-17,14.6
		c-0.1,1.3,0.3,3.9,0.8,6.9c0.3,1.7,0.6,3.6,0.8,5.4c0.7,5.3-0.9,11.6-6,13.7c-3,1.2-5.8,0.7-7.3-1.2c-1.1-1.4-1.5-3.3-1.1-5.3
		c0.7-3.2,2.9-4.4,4.2-4.4c0.2,0,0.4,0,0.5,0c1,0.3,1.1,1,1.1,1.4c0,0.1,0,0.2-0.1,0.2s-0.2,0.1-0.3,0c0,0,0,0-0.1,0
		c-0.4,0-1,0.5-1.3,1.1c-0.2,0.4-0.2,1,0.4,1.6c0.7,0.7,1.8,0.9,2.6,0.4c1-0.6,1.5-1.3,1.6-2.4c0.1-1.3-0.7-2.6-1.3-3.1
		c-1.3-0.9-2.5-1.1-4.3-0.6c-1.8,0.5-3.3,2.1-4.2,3.4c-1.9,2.7-1.5,6.4-0.7,8.3c0.3,0.8,0.7,1.6,1.1,2.2c0.2,0.3,0.7,0.9,1.3,1.4
		c0.2,0.2,0.8,0.6,1.6,0.9c1,0.5,2,0.9,2.5,0.9c0.1,0,0.5,0,0.9,0c1.5,0,5.3-0.3,8.5-3c5.4-4.5,3.8-14.7,3.7-14.8
		c0-0.2,0-0.3,0.2-0.4C162.7,111.1,162.7,111.1,162.8,111.1"/>
	<path class="st0" d="M169.3,150C169.3,150,169.2,150,169.3,150c-5.8-0.5-9.7-2.9-11.1-6.7c-1.4-3.8,0-7.9,2-10.1
		c3.9-4,5.1-10.7,3.7-14.5c0-0.1,0-0.3,0.1-0.4s0.2-0.1,0.4-0.1c0.9,0.4,4,1.9,5.2,5.4c1.1,3.2,0.3,7.1-2.2,11.5
		c-2.1,3.7-2.8,6.9-1.9,9.6c1,3,3.6,4.3,4,4.4c0.1,0,0.3,0.2,0.3,0.3C169.7,149.8,169.5,150,169.3,150L169.3,150z M164.8,119.3
		c1.1,4-0.1,10.4-4,14.4c-1.9,2-3.2,5.8-1.9,9.3c0.8,2.3,3.1,5.1,8.9,6c-1-0.7-2.3-2-2.9-4c-1-2.9-0.3-6.3,2-10.2
		c2.5-4.2,3.2-7.9,2.2-10.9C168,121.4,166,120,164.8,119.3"/>
	<path class="st0" d="M195.2,127.5c-0.7,0-1.3-0.1-1.9-0.2c-3.8-0.9-6.7-4-7.4-8c-0.8-4.2,0.9-8.2,4.7-10.8
		c8.1-5.7,10.2-8,10.5-14.7c0-0.1,0.1-0.3,0.3-0.3c0.1,0,0.3,0,0.4,0.1c0.1,0.2,0.2,0.4,0.4,0.6c2,3,7.3,10.9-4.2,20
		c-4.2,3.4-5.1,6-5.1,7.5c0,1.3,0.6,2.5,1.6,3.3c1.4,1.1,3.8,0.9,3.8,0.9c0.1,0,0.3,0,0.4,0.2c0,0.1,0,0.3-0.1,0.4
		C197.5,127.3,196,127.5,195.2,127.5 M201.6,94.8c-0.5,6.1-2.9,8.7-10.7,14.1c-3.5,2.4-5.1,6.2-4.4,10.1c0.7,3.7,3.4,6.7,6.9,7.4
		c1.1,0.3,2.5,0.2,3.4,0c-0.9-0.1-2-0.3-2.9-1c-1.2-0.9-1.9-2.3-1.9-3.8c0-1.8,0.9-4.6,5.4-8.1C208,105.2,203.6,97.9,201.6,94.8"/>
	<path class="st0" d="M157.1,145.3C157,145.3,157,145.3,157.1,145.3c-3.3-1-5.1-2.7-5.2-4.9c-0.1-2.7,2-4.7,6.1-5.7
		c0.1,0,0.3,0,0.4,0.2c0.1,0.1,0,0.3-0.1,0.4c-5,4.2-1.1,9.2-0.9,9.4c0.1,0.1,0.1,0.3,0,0.4C157.3,145.3,157.2,145.3,157.1,145.3
		 M156.9,135.8c-2.2,0.7-4.3,2.1-4.2,4.6c0,2,2,3.3,3.6,3.9C155.3,142.7,153.9,139.1,156.9,135.8"/>
	<path class="st0" d="M175.3,151L175.3,151c-4-0.4-6.5-2-7.7-5c-0.4-0.9-1.3-3.2-0.2-6.6c0.3-1,0.9-1.9,1.5-2.8
		c0.8-1.3,1.7-2.7,2-4.5c0.7-3.6-0.2-5.9-0.2-5.9c0-0.1,0-0.3,0.1-0.4c0.1-0.1,0.3-0.1,0.4,0c0,0,5.8,4.9,3.7,11.9
		c-2.6,8.5-2.5,10.2,0.6,12.7c0.1,0,0.2,0.2,0.2,0.3C175.7,150.9,175.6,151,175.3,151L175.3,151z M171.7,127.2c0.2,1.1,0.3,2.7,0,5
		c-0.3,2-1.3,3.5-2.1,4.8c-0.6,0.9-1.1,1.7-1.4,2.7c-1,3.2-0.2,5.3,0.1,6.1c1,2.4,2.9,3.9,6,4.4c-2.6-2.5-2.2-5.1,0.1-12.7
		C175.8,132.6,173.1,128.8,171.7,127.2"/>
	<path class="st0" d="M179.7,151c0,0-0.1,0-0.2,0c-3.4-2.4-4.7-5.4-3.8-8.7l0-0.2c0.9-3.2,2-6.7-0.2-10.1c-0.1-0.1-0.1-0.3,0-0.4
		c0.1-0.1,0.3-0.1,0.4-0.1c0,0,5.8,3.2,4.8,10.2c-0.1,0.8-0.3,1.5-0.5,2.2c-0.6,2.9-1.2,5.4-0.5,6.3c0.1,0,0.1,0.2,0.1,0.3
		C180.1,150.8,179.9,151,179.7,151L179.7,151z M176.9,133c1.3,3.2,0.4,6.4-0.4,9.3l0,0.2c-0.9,3.2,0.7,5.5,2.6,7.1
		c-0.2-1.3,0.2-3.3,0.8-5.7c0.1-0.7,0.3-1.4,0.5-2.2C180.8,137.1,178.4,134.4,176.9,133"/>
	<path class="st0" d="M182.9,110.8c-3.2,0-6-2.4-7-4.7c-1.3-2.9-4-6.3-6.7-7c-0.1,0-0.2-0.1-0.3-0.3c0-0.1,0-0.3,0.2-0.4
		c0.4-0.2,1.6-0.8,3.2-0.8c2,0,5,0.9,7.5,5.4c2.1,3.6,4.5,4.4,6.2,4.4c1.4,0,2.4-0.6,2.4-0.6c0.1-0.1,0.3,0,0.4,0.1s0.1,0.3,0,0.4
		C187.1,109.7,185.1,110.8,182.9,110.8 M170.2,98.8c2.6,1.1,5,4.2,6.3,7.1c0.8,1.8,3.3,4.2,6.4,4.2c1.6,0,3.1-0.7,4.5-2
		c-0.4,0.1-0.9,0.1-1.4,0.1c-1.9,0-4.5-0.8-6.8-4.7c-2.4-4.1-5.1-5-6.9-5C171.4,98.4,170.7,98.6,170.2,98.8"/>
	<path class="st0" d="M189.3,104.4c-1.1,0-2.3-0.3-3.4-0.8c-2.9-1.4-4.6-3.1-6-4.6c-1.1-1.2-2.2-2.2-3.7-3.1
		c-2.1-1.2-3.9-1.4-5.1-1.4c-0.7,0-1.1,0.1-1.1,0.1c-0.2,0-0.3,0-0.4-0.2c0-0.1,0-0.3,0.1-0.4c0.2-0.1,4.4-2.9,9.2-2.9
		c2.7,0,4.9,0.8,6.8,2.5c5.3,4.7,9.4,5.9,12.1,3.5c0.1-0.1,0.3-0.1,0.5,0c0.1,0.1,0.2,0.3,0.1,0.5
		C195.8,102,192.6,104.4,189.3,104.4 M171.3,93.9c1.3,0,3.1,0.3,5.2,1.5c1.6,0.9,2.7,2,3.9,3.2c1.5,1.5,3,3.1,5.9,4.4
		c1,0.5,2.1,0.7,3.1,0.7c3.4,0,6-2.8,7.5-5.1c-2.9,1.3-6.8-0.1-11.6-4.4c-1.8-1.6-3.9-2.4-6.4-2.4C175.8,91.9,172.9,93.1,171.3,93.9
		"/>
	<path class="st0" d="M195.1,94.6c-1.2,0-2.4-0.4-3.4-1.1l-0.6-0.4c-2.1-1.6-4.6-3.4-8.3-3.4h-0.1c-0.1,0-0.3-0.1-0.3-0.2
		c0-0.1,0-0.3,0.1-0.4c0.1,0,1.8-1.3,4.7-1.3c1.8,0,3.7,0.5,5.6,1.4c0.6,0.3,1.1,0.7,1.6,1c2.2,1.3,4.1,2.5,4.9,2.1
		c0.2,0,0.4,0,0.4,0.1c0.1,0.1,0,0.4-0.1,0.5C198.1,94,196.6,94.6,195.1,94.6 M183.9,89.1c3.3,0.3,5.6,2,7.5,3.4l0.6,0.4
		c1.8,1.3,4,1.3,6.2,0.1c-1.1-0.3-2.5-1.2-4.2-2.2c-0.5-0.3-1.1-0.7-1.6-1c-1.8-0.9-3.6-1.3-5.3-1.3
		C185.8,88.5,184.7,88.8,183.9,89.1"/>
	<path class="st0" d="M148.8,139.3c-0.1,0-0.2,0-0.3-0.1c0-0.1-1.5-2.1-0.7-4.3c0.7-1.8,2.6-3.2,5.8-4.1c4.4-1.3,6.7-2.2,9-6.6
		c0.1-0.1,0.3-0.2,0.4-0.1c0.2,0,0.3,0.2,0.2,0.4c-1.3,4.5-3.2,8.9-8,10.4l-0.9,0.3c-3.6,1.1-4.7,1.3-5.2,3.9
		C149,139.2,149,139.3,148.8,139.3C148.8,139.3,148.8,139.3,148.8,139.3 M161.7,127c-2,2.6-4.4,3.4-8,4.5c-2.9,0.8-4.7,2-5.3,3.6
		c-0.4,1.1-0.1,2.2,0.2,2.9c0.7-2.2,2.3-2.6,5.4-3.6l0.9-0.3C158.1,133.3,160.1,131.1,161.7,127"/>
	<path class="st0" d="M145.9,133.5c-0.7,0-1.2-0.5-1.5-1.5c-0.6-1.7-0.6-2.1-0.4-2.4c0.1-0.1,0.3-0.2,0.5-0.2c0,0,0.1,0,0.1,0.1
		c0,0,1.9,1.8,3.5,1.8c0.1,0,0.3,0,0.4,0c0.1,0,0.3,0,0.4,0.2c0,0.1,0,0.3-0.1,0.4c-0.2,0.1-0.4,0.3-0.6,0.4
		C147.3,133,146.6,133.5,145.9,133.5 M144.6,130.5c0,0.3,0.2,0.7,0.4,1.3c0.4,1,0.7,1,0.9,1c0.4,0,0.9-0.3,1.6-0.7
		C146.3,131.7,145.3,131,144.6,130.5"/>
	<path class="st0" d="M189.8,145.2h-0.1c-6.7-0.1-7.2-7.7-7.2-7.8c0-0.1,0-0.2,0.1-0.3c0.1-0.1,0.2-0.1,0.3-0.1c0,0,1.6,0.2,3,2.1
		c1,1.3,1.8,1.9,4.1,2.8c0.8,0.3,1.7,0.5,2.7,0.5c2.4,0,4.8-0.9,6.6-2.6c0.1-0.1,0.3-0.1,0.5,0c0.1,0.1,0.1,0.3,0,0.5
		C199.7,140.6,195.5,145.2,189.8,145.2 M183.2,137.9c0.2,1.6,1.3,6.5,6.5,6.6h0.1c2.4,0,4.5-0.9,6.1-1.9c-2,0.7-4.4,0.7-6.2,0
		c-2.5-1-3.4-1.7-4.4-3C184.5,138.6,183.7,138.1,183.2,137.9"/>
	<path class="st0" d="M185.7,148.9c-1.1,0-2-0.4-2.7-1.1c-0.9-1-1.2-2.7-1-4.9c0-0.1,0.1-0.3,0.3-0.3c0.1,0,0.3,0.1,0.4,0.2
		c0,0,1.6,4.3,5.4,4.3c0.3,0,0.7,0,1-0.1c0.2,0,0.3,0,0.4,0.2c0,0.1,0,0.3-0.1,0.4C188.6,148.3,187.1,148.9,185.7,148.9
		 M182.7,144.3c0,1.3,0.3,2.4,0.9,3c0.5,0.6,1.2,0.8,2.1,0.8c0.7,0,1.3-0.1,2-0.4C185.1,147.6,183.5,145.6,182.7,144.3"/>
	<path class="st0" d="M208.5,122.8L208.5,122.8c-0.2,0-0.3-0.1-0.3-0.3c-0.4-3.1-1.3-4.4-5.8-5c-0.2,0-0.3-0.1-0.3-0.3
		c0-0.2,0.1-0.3,0.3-0.4c0,0,5.6-1.6,5.8-4.7c0-0.2,0.1-0.3,0.3-0.3s0.3,0.1,0.4,0.3l0.2,0.7c0.8,3.5,1.2,5.1-0.2,9.8
		C208.8,122.7,208.7,122.8,208.5,122.8 M203.9,117c3,0.6,4.1,1.8,4.7,3.8c0.7-3.2,0.5-4.7-0.1-7.3
		C207.6,115.3,205.3,116.4,203.9,117"/>
	<path class="st0" d="M175.3,89.8c-1,0-1.8-0.4-2.1-1.1c-0.1-0.1,0-0.3,0-0.4c0.1-0.2,4-4,10.2-4c3.1,0,6.2,1,9.3,2.9
		c0.1,0.1,0.2,0.3,0.1,0.5c-0.1,0.1-0.3,0.2-0.4,0.2c-1.9-0.7-4-1.3-6.6-1.3c-2.9,0-5.7,0.9-8.5,2.8C176.8,89.5,176,89.8,175.3,89.8
		 M173.9,88.5c0.4,0.5,0.9,0.6,1.4,0.6c0.7,0,1.3-0.2,1.7-0.5c3-2,5.9-2.9,8.9-2.9c1.2,0,2.2,0.1,3.3,0.4c-1.9-0.7-3.8-1.2-5.7-1.2
		C178.3,84.9,174.8,87.7,173.9,88.5"/>
	<path class="st0" d="M183.4,117.3c0,0-0.1,0-0.1,0c-2.4-0.9-4.1-3.4-5.4-5.4c-0.1-0.1,0-0.3,0.1-0.5c0.1-0.1,0.3-0.1,0.5,0
		c0,0,2.1,1.7,4.4,1.7c0.6,0,1.1-0.1,1.6-0.3c0.1,0,0.3,0,0.4,0.1c0.1,0.1,0,0.3,0,0.4c-1.1,1-1.4,2.1-1.1,3.3c0,0,0,0.1,0,0.2
		C183.8,117.2,183.6,117.3,183.4,117.3L183.4,117.3z M179.4,112.9c0.9,1.3,2.1,2.7,3.5,3.5c-0.1-0.9,0.1-1.8,0.7-2.6
		c-0.2,0-0.5,0-0.7,0C181.5,113.9,180.3,113.4,179.4,112.9"/>
	<path class="st0" d="M136.9,158.3l-1.8,0c-0.7,0-1,0.1-1.2,0.3c-0.1,0.2-0.2,0.3-0.2,0.4c0,0.1,0,0.1-0.1,0.1s-0.1,0-0.1-0.2
		c0-0.2,0.2-1.3,0.2-1.3c0-0.1,0.1-0.2,0.1-0.2c0.1,0,0.2,0.1,0.5,0.1c0.3,0,0.8,0,1.2,0h4.7c0.4,0,0.7,0,0.8,0c0.2,0,0.3,0,0.3,0
		c0.1,0,0.1,0.1,0.1,0.2c0,0.2,0,1.1,0,1.3c0,0.1,0,0.2-0.1,0.2c-0.1,0-0.1,0-0.1-0.2V159c0-0.3-0.3-0.7-1.4-0.7l-1.5,0v4.8
		c0,1.1,0,2,0,2.5c0,0.3,0.1,0.6,0.5,0.7c0.2,0,0.4,0,0.6,0c0.1,0,0.2,0,0.2,0.1c0,0.1-0.1,0.1-0.2,0.1c-0.8,0-1.5,0-1.9,0
		c-0.3,0-1,0-1.5,0c-0.1,0-0.2,0-0.2-0.1c0,0,0-0.1,0.2-0.1c0.2,0,0.3,0,0.4,0c0.2,0,0.3-0.3,0.3-0.7c0-0.5,0-1.4,0-2.5
		C136.9,163.1,136.9,158.3,136.9,158.3z"/>
	<path class="st0" d="M148.9,162.3C149,162.3,149,162.3,148.9,162.3l0-0.3c0-1.5,0-1.9,0-2.2c0-0.3-0.1-0.5-0.5-0.6
		c-0.1,0-0.3,0-0.4,0c-0.1,0-0.2,0-0.2-0.1c0-0.1,0.1-0.1,0.2-0.1c0.6,0,1.3,0,1.6,0c0.2,0,0.9,0,1.3,0c0.1,0,0.2,0,0.2,0.1
		c0,0.1-0.1,0.1-0.2,0.1s-0.2,0-0.3,0c-0.3,0-0.4,0.2-0.4,0.6c0,0.3,0,0.6,0,2.1v1.8c0,0.9,0,1.7,0,2.1c0,0.3,0.1,0.5,0.4,0.5
		c0.1,0,0.4,0,0.5,0c0.1,0,0.2,0,0.2,0.1c0,0.1-0.1,0.1-0.2,0.1c-0.7,0-1.3,0-1.6,0c-0.2,0-1,0-1.3,0c-0.1,0-0.2,0-0.2-0.1
		s0-0.1,0.2-0.1c0.2,0,0.3,0,0.4,0c0.2,0,0.3-0.2,0.3-0.5c0-0.4,0-1.2,0-2.1v-0.8c0,0,0,0,0,0H145c0,0-0.1,0-0.1,0v0.8
		c0,0.9,0,1.7,0,2.1c0,0.3,0.1,0.5,0.4,0.5c0.1,0,0.4,0,0.5,0c0.1,0,0.2,0,0.2,0.1c0,0.1-0.1,0.1-0.2,0.1c-0.7,0-1.4,0-1.7,0
		c-0.2,0-0.9,0-1.3,0c-0.1,0-0.2,0-0.2-0.1s0-0.1,0.2-0.1c0.1,0,0.3,0,0.4,0c0.2,0,0.3-0.2,0.3-0.5c0-0.4,0-1.2,0-2.1v-1.8
		c0-1.5,0-1.8,0-2.1s-0.1-0.5-0.5-0.6c-0.1,0-0.3,0-0.4,0c-0.1,0-0.2,0-0.2-0.1c0-0.1,0.1-0.1,0.2-0.1c0.6,0,1.3,0,1.5,0
		c0.2,0,1,0,1.4,0c0.1,0,0.2,0,0.2,0.1c0,0.1,0,0.1-0.2,0.1c-0.1,0-0.2,0-0.3,0c-0.3,0-0.4,0.2-0.4,0.6c0,0.3,0,0.7,0,2.2v0.2
		c0,0,0,0.1,0.1,0.1H148.9z"/>
	<path class="st0" d="M153.7,161.9c0-1.5,0-1.8,0-2.1c0-0.3-0.1-0.5-0.5-0.6c-0.1,0-0.3,0-0.4,0c-0.1,0-0.2,0-0.2-0.1
		c0-0.1,0.1-0.1,0.2-0.1c0.6,0,1.2,0,1.5,0c0.3,0,2.7,0,2.8,0s0.4,0,0.4,0s0.1,0,0.2,0c0,0,0.1,0,0.1,0.1c0,0.1,0,0.2-0.1,0.7
		c0,0.1,0,0.6,0,0.7c0,0,0,0.2-0.1,0.2c-0.1,0-0.1,0-0.1-0.1s0-0.2-0.1-0.4c-0.1-0.2-0.2-0.3-0.7-0.4c-0.2,0-1.4,0-1.6,0
		c0,0-0.1,0-0.1,0.1v2.5c0,0,0,0.1,0.1,0.1c0.2,0,1.6,0,1.8,0c0.2,0,0.4,0,0.5-0.1c0.1-0.1,0.1-0.1,0.2-0.1c0,0,0.1,0,0.1,0.1
		c0,0,0,0.2-0.1,0.7c0,0.2,0,0.6,0,0.7c0,0.1,0,0.2-0.1,0.2s-0.1,0-0.1-0.1c0-0.1,0-0.2,0-0.4c0-0.2-0.2-0.4-0.6-0.4
		c-0.2,0-1.4,0-1.6,0c0,0,0,0,0,0.1v0.8c0,0.3,0,1.2,0,1.5c0,0.7,0.3,0.8,1.4,0.8c0.3,0,0.7,0,1-0.1c0.3-0.1,0.4-0.3,0.5-0.7
		c0-0.1,0-0.1,0.1-0.1s0.1,0.1,0.1,0.2c0,0.2-0.1,0.9-0.1,1.1c-0.1,0.3-0.2,0.3-0.6,0.3c-0.8,0-1.4,0-1.9,0c-0.5,0-0.9,0-1.2,0
		c-0.1,0-0.3,0-0.6,0c-0.2,0-0.5,0-0.7,0c-0.1,0-0.2,0-0.2-0.1c0,0,0-0.1,0.2-0.1c0.1,0,0.3,0,0.4,0c0.2,0,0.3-0.2,0.3-0.5
		c0-0.4,0-1.2,0-2.1L153.7,161.9L153.7,161.9z"/>
	<path class="st0" d="M164.9,163.6C164.8,163.6,164.8,163.6,164.9,163.6l-0.7,1.7c-0.1,0.3-0.2,0.6-0.2,0.7c0,0.2,0.1,0.4,0.5,0.4
		h0.2c0.1,0,0.2,0,0.2,0.1s-0.1,0.1-0.2,0.1c-0.4,0-0.9,0-1.3,0c-0.1,0-0.8,0-1.4,0c-0.1,0-0.2,0-0.2-0.1s0-0.1,0.1-0.1s0.3,0,0.4,0
		c0.6-0.1,0.8-0.5,1-1.1l3-7.4c0.1-0.3,0.2-0.5,0.3-0.5s0.2,0.1,0.3,0.4c0.3,0.7,2.2,5.4,2.9,7.2c0.5,1.1,0.8,1.2,1,1.3
		c0.2,0,0.4,0,0.5,0c0.1,0,0.1,0,0.1,0.1s-0.1,0.1-0.6,0.1c-0.4,0-1.3,0-2.2,0c-0.2,0-0.4,0-0.4-0.1s0-0.1,0.2-0.1
		c0.1,0,0.2-0.1,0.1-0.3l-0.9-2.4c0,0,0-0.1-0.1-0.1H164.9z M167.3,163C167.3,163,167.4,162.9,167.3,163l-1-3c0,0,0-0.1,0-0.1
		c0,0,0,0-0.1,0.1l-1.1,2.9c0,0,0,0.1,0,0.1L167.3,163L167.3,163z"/>
	<path class="st0" d="M172.4,161.9c0-1.5,0-1.8,0-2.1c0-0.3-0.1-0.5-0.5-0.6c-0.1,0-0.3,0-0.4,0c-0.1,0-0.2,0-0.2-0.1
		c0-0.1,0.1-0.1,0.2-0.1c0.6,0,1.2,0,1.4,0c0.4,0,1.3,0,1.6,0c0.7,0,1.4,0,2,0.4c0.3,0.2,0.7,0.7,0.7,1.4c0,0.7-0.4,1.4-1.4,2.2
		c0.9,1.1,1.7,2,2.3,2.7c0.6,0.6,0.9,0.6,1.1,0.7c0.1,0,0.2,0,0.2,0c0.1,0,0.1,0,0.1,0.1c0,0.1-0.1,0.1-0.2,0.1h-1
		c-0.6,0-0.9,0-1.1-0.2c-0.5-0.2-0.8-0.7-1.4-1.5c-0.4-0.6-0.8-1.2-1-1.3c0,0-0.1-0.1-0.2-0.1l-0.9,0c0,0-0.1,0-0.1,0.1v0.1
		c0,0.9,0,1.7,0,2.1c0,0.3,0.1,0.5,0.4,0.5c0.1,0,0.4,0,0.5,0c0.1,0,0.1,0,0.1,0.1c0,0.1-0.1,0.1-0.2,0.1c-0.6,0-1.5,0-1.6,0
		c-0.2,0-0.9,0-1.3,0c-0.1,0-0.2,0-0.2-0.1s0-0.1,0.2-0.1c0.1,0,0.3,0,0.4,0c0.2,0,0.3-0.2,0.3-0.5c0-0.4,0-1.2,0-2.1L172.4,161.9
		L172.4,161.9z M173.8,162.7c0,0.1,0,0.1,0.1,0.2c0.2,0.1,0.5,0.1,0.8,0.1c0.4,0,0.6,0,0.7-0.2c0.3-0.2,0.7-0.7,0.7-1.5
		c0-1.4-1-1.8-1.6-1.8c-0.3,0-0.5,0-0.6,0c-0.1,0-0.1,0-0.1,0.1L173.8,162.7L173.8,162.7z"/>
	<path class="st0" d="M181.5,159.6l-1.5,0c-0.6,0-0.8,0.1-1,0.3c-0.1,0.1-0.1,0.3-0.2,0.3c0,0.1,0,0.1-0.1,0.1s-0.1,0-0.1-0.2
		c0-0.2,0.2-1.1,0.2-1.2c0-0.1,0-0.2,0.1-0.2s0.2,0.1,0.5,0.1c0.3,0,0.7,0,1,0h4.2c0.3,0,0.6,0,0.7,0c0.2,0,0.2,0,0.3,0
		c0.1,0,0.1,0,0.1,0.2c0,0.2,0,1,0,1.2c0,0.1,0,0.2-0.1,0.2c-0.1,0-0.1,0-0.1-0.2v-0.1c0-0.3-0.3-0.6-1.2-0.6l-1.3,0v4.1
		c0,0.9,0,1.7,0,2.1c0,0.3,0.1,0.5,0.4,0.5c0.1,0,0.4,0,0.5,0c0.1,0,0.2,0,0.2,0.1c0,0.1-0.1,0.1-0.2,0.1c-0.7,0-1.4,0-1.7,0
		c-0.2,0-0.9,0-1.3,0c-0.1,0-0.2,0-0.2-0.1c0,0,0-0.1,0.2-0.1c0.1,0,0.3,0,0.4,0c0.2,0,0.3-0.2,0.3-0.5c0-0.4,0-1.2,0-2.1v-4.2
		H181.5z"/>
	<path class="st0" d="M188.5,165c0,0.9,0.2,1.2,0.4,1.3c0.2,0.1,0.4,0.1,0.6,0.1c0.1,0,0.2,0,0.2,0.1c0,0.1-0.1,0.1-0.3,0.1
		c-0.8,0-1.3,0-1.5,0c-0.1,0-0.7,0-1.3,0c-0.1,0-0.3,0-0.3-0.1c0-0.1,0.1-0.1,0.2-0.1c0.1,0,0.4,0,0.6,0c0.3-0.1,0.4-0.4,0.4-1.5
		l0.1-7c0-0.2,0-0.4,0.1-0.4c0.1,0,0.2,0.1,0.4,0.4c0.1,0.1,2,2,3.7,3.8c0.8,0.8,2.4,2.5,2.6,2.7h0l-0.1-5.3c0-0.7-0.1-0.9-0.4-1.1
		c-0.2-0.1-0.5-0.1-0.6-0.1c-0.1,0-0.2,0-0.2-0.1c0-0.1,0.1-0.1,0.3-0.1c0.6,0,1.2,0,1.4,0c0.1,0,0.6,0,1.2,0c0.1,0,0.3,0,0.3,0.1
		s-0.1,0.1-0.2,0.1c-0.1,0-0.2,0-0.4,0c-0.3,0.1-0.4,0.3-0.4,1l-0.1,7.5c0,0.3,0,0.4-0.1,0.4c-0.1,0-0.3-0.1-0.4-0.3
		c-0.7-0.7-2.3-2.3-3.5-3.5c-1.3-1.3-2.6-2.7-2.8-2.9h0L188.5,165z"/>
	<path class="st0" d="M198.6,161.9c0-1.5,0-1.8,0-2.1c0-0.3-0.1-0.5-0.5-0.6c-0.1,0-0.3,0-0.4,0c-0.1,0-0.2,0-0.2-0.1
		c0-0.1,0.1-0.1,0.2-0.1c0.6,0,1.2,0,1.5,0c0.3,0,2.7,0,2.8,0s0.4,0,0.4,0c0,0,0.1,0,0.2,0c0,0,0.1,0,0.1,0.1c0,0.1,0,0.2-0.1,0.7
		c0,0.1,0,0.6,0,0.7c0,0,0,0.2-0.1,0.2c-0.1,0-0.1,0-0.1-0.1s0-0.2-0.1-0.4c-0.1-0.2-0.2-0.3-0.7-0.4c-0.2,0-1.4,0-1.6,0
		c0,0-0.1,0-0.1,0.1v2.5c0,0,0,0.1,0.1,0.1c0.2,0,1.6,0,1.8,0c0.2,0,0.4,0,0.5-0.1c0.1-0.1,0.1-0.1,0.2-0.1c0,0,0.1,0,0.1,0.1
		c0,0,0,0.2-0.1,0.7c0,0.2,0,0.6,0,0.7c0,0.1,0,0.2-0.1,0.2s-0.1,0-0.1-0.1c0-0.1,0-0.2,0-0.4c0-0.2-0.2-0.4-0.6-0.4
		c-0.2,0-1.4,0-1.6,0c0,0,0,0,0,0.1v0.8c0,0.3,0,1.2,0,1.5c0,0.7,0.3,0.8,1.4,0.8c0.3,0,0.7,0,1-0.1c0.3-0.1,0.4-0.3,0.5-0.7
		c0-0.1,0-0.1,0.1-0.1c0.1,0,0.1,0.1,0.1,0.2c0,0.2-0.1,0.9-0.1,1.1c-0.1,0.3-0.2,0.3-0.6,0.3c-0.8,0-1.4,0-1.9,0
		c-0.5,0-0.9,0-1.2,0c-0.1,0-0.3,0-0.6,0c-0.2,0-0.5,0-0.7,0c-0.1,0-0.2,0-0.2-0.1c0,0,0-0.1,0.2-0.1s0.3,0,0.4,0
		c0.2,0,0.3-0.2,0.3-0.5c0-0.4,0-1.2,0-2.1L198.6,161.9L198.6,161.9z"/>
	<path class="st0" d="M204.8,166.5c-0.2-0.1-0.2-0.1-0.2-0.3c0-0.6,0-1.2,0-1.3c0-0.1,0-0.3,0.1-0.3s0.1,0.1,0.1,0.2
		c0,0.1,0,0.3,0.1,0.5c0.2,0.7,1,1,1.7,1c0.9,0,1.4-0.6,1.4-1.3c0-0.4-0.1-0.9-1-1.4l-0.6-0.4c-1.2-0.7-1.6-1.4-1.6-2.3
		c0-1.2,1.2-2,2.6-2c0.7,0,1.2,0.1,1.5,0.2c0.1,0,0.1,0,0.1,0.1c0,0.1,0,0.4,0,1.2c0,0.2,0,0.3-0.1,0.3s-0.1,0-0.1-0.2
		c0-0.1,0-0.4-0.3-0.7c-0.1-0.2-0.5-0.5-1.2-0.5c-0.7,0-1.4,0.4-1.4,1.1c0,0.5,0.2,0.8,1.1,1.3l0.4,0.2c1.4,0.7,1.8,1.5,1.8,2.4
		c0,0.7-0.3,1.3-1,1.9c-0.5,0.4-1.2,0.4-1.7,0.4C205.9,166.7,205.3,166.7,204.8,166.5"/>
	<path class="st0" d="M213.2,159.6l-1.5,0c-0.6,0-0.8,0.1-1,0.3c-0.1,0.1-0.1,0.3-0.2,0.3c0,0.1,0,0.1-0.1,0.1s-0.1,0-0.1-0.2
		c0-0.2,0.2-1.1,0.2-1.2c0-0.1,0-0.2,0.1-0.2s0.2,0.1,0.5,0.1c0.3,0,0.7,0,1,0h4.2c0.3,0,0.6,0,0.7,0c0.2,0,0.2,0,0.3,0
		c0.1,0,0.1,0,0.1,0.2c0,0.2,0,1,0,1.2c0,0.1,0,0.2-0.1,0.2c-0.1,0-0.1,0-0.1-0.2v-0.1c0-0.3-0.3-0.6-1.2-0.6l-1.3,0v4.1
		c0,0.9,0,1.7,0,2.1c0,0.3,0.1,0.5,0.4,0.5c0.1,0,0.4,0,0.5,0c0.1,0,0.2,0,0.2,0.1c0,0.1-0.1,0.1-0.2,0.1c-0.7,0-1.4,0-1.7,0
		c-0.2,0-0.9,0-1.3,0c-0.1,0-0.2,0-0.2-0.1c0,0,0-0.1,0.2-0.1c0.1,0,0.3,0,0.4,0c0.2,0,0.3-0.2,0.3-0.5c0-0.4,0-1.2,0-2.1
		L213.2,159.6L213.2,159.6z"/>
	<path class="st0" d="M148.3,172.2C148.3,172.2,148.3,172.1,148.3,172.2l0-0.1c0-0.8,0-0.9,0-1.1s0-0.3-0.2-0.3c0,0-0.1,0-0.2,0
		c0,0-0.1,0-0.1,0s0,0,0.1,0c0.3,0,0.6,0,0.7,0c0.1,0,0.5,0,0.7,0c0.1,0,0.1,0,0.1,0s0,0-0.1,0c0,0-0.1,0-0.1,0
		c-0.1,0-0.2,0.1-0.2,0.3s0,0.3,0,1.1v0.9c0,0.5,0,0.9,0,1.1c0,0.1,0,0.3,0.2,0.3c0.1,0,0.2,0,0.3,0c0,0,0.1,0,0.1,0c0,0,0,0-0.1,0
		c-0.3,0-0.7,0-0.8,0c-0.1,0-0.5,0-0.7,0c-0.1,0-0.1,0-0.1,0c0,0,0,0,0.1,0s0.1,0,0.2,0c0.1,0,0.1-0.1,0.1-0.3c0-0.2,0-0.7,0-1.1
		v-0.5c0,0,0,0,0,0h-2c0,0,0,0,0,0v0.5c0,0.5,0,0.9,0,1.1c0,0.1,0,0.3,0.2,0.3c0.1,0,0.2,0,0.3,0c0,0,0.1,0,0.1,0c0,0,0,0-0.1,0
		c-0.3,0-0.7,0-0.8,0c-0.1,0-0.5,0-0.7,0c0,0-0.1,0-0.1,0c0,0,0,0,0.1,0s0.1,0,0.2,0c0.1,0,0.1-0.1,0.1-0.3c0-0.2,0-0.7,0-1.1V172
		c0-0.8,0-0.9,0-1.1s0-0.3-0.2-0.3c0,0-0.1,0-0.2,0c0,0-0.1,0-0.1,0s0,0,0.1,0c0.3,0,0.6,0,0.7,0c0.1,0,0.5,0,0.7,0
		c0.1,0,0.1,0,0.1,0s0,0-0.1,0c0,0-0.1,0-0.1,0c-0.1,0-0.2,0.1-0.2,0.3s0,0.3,0,1.1v0.1c0,0,0,0,0,0H148.3z"/>
	<path class="st0" d="M150,172.5c0-0.9,0.6-2,2.1-2c1.3,0,2.1,0.7,2.1,2s-0.8,2.1-2.2,2.1C150.6,174.5,150,173.4,150,172.5
		 M153.6,172.6c0-1.2-0.7-1.9-1.5-1.9c-0.6,0-1.3,0.3-1.3,1.6c0,1.1,0.6,2,1.6,2C152.7,174.3,153.6,174.1,153.6,172.6"/>
	<path class="st0" d="M156.1,170.8h-0.8c-0.3,0-0.4,0-0.5,0.1c0,0.1-0.1,0.1-0.1,0.2s0,0,0,0c0,0,0,0,0-0.1c0-0.1,0.1-0.6,0.1-0.6
		s0-0.1,0-0.1c0,0,0.1,0,0.2,0c0.1,0,0.4,0,0.5,0h2.1c0.2,0,0.3,0,0.4,0c0.1,0,0.1,0,0.1,0c0,0,0,0,0,0.1c0,0.1,0,0.5,0,0.6
		c0,0,0,0.1,0,0.1c0,0,0,0,0-0.1v0c0-0.1-0.1-0.3-0.6-0.3h-0.7v2.1c0,0.5,0,0.9,0,1.1c0,0.1,0,0.3,0.2,0.3c0.1,0,0.2,0,0.3,0
		c0,0,0.1,0,0.1,0c0,0,0,0-0.1,0c-0.3,0-0.7,0-0.8,0s-0.5,0-0.7,0c0,0-0.1,0-0.1,0c0,0,0,0,0.1,0s0.1,0,0.2,0c0.1,0,0.1-0.1,0.1-0.3
		c0-0.2,0-0.7,0-1.1L156.1,170.8L156.1,170.8z"/>
	<path class="st0" d="M159.1,172c0-0.8,0-0.9,0-1.1s0-0.3-0.2-0.3c0,0-0.1,0-0.2,0c0,0-0.1,0-0.1,0s0,0,0.1,0c0.1,0,0.3,0,0.4,0
		c0.1,0,0.3,0,0.3,0c0.2,0,1.2,0,1.3,0s0.2,0,0.2,0c0,0,0,0,0.1,0c0,0,0,0,0,0c0,0,0,0.1,0,0.3c0,0,0,0.3,0,0.3c0,0,0,0,0,0
		c0,0,0,0,0-0.1c0,0,0-0.1,0-0.2c0-0.1-0.1-0.1-0.4-0.2c-0.1,0-0.7,0-0.7,0c0,0,0,0,0,0v1.3c0,0,0,0,0,0c0.1,0,0.7,0,0.8,0
		c0.1,0,0.2,0,0.2-0.1c0,0,0,0,0.1,0c0,0,0,0,0,0c0,0,0,0.1,0,0.4c0,0.1,0,0.3,0,0.4c0,0,0,0.1,0,0.1s0,0,0,0s0-0.1,0-0.2
		c0-0.1-0.1-0.2-0.3-0.2c-0.1,0-0.6,0-0.7,0c0,0,0,0,0,0v0.4c0,0.2,0,0.7,0,0.8c0,0.4,0.1,0.4,0.6,0.4c0.1,0,0.4,0,0.5,0
		c0.1,0,0.2-0.2,0.2-0.4c0,0,0-0.1,0-0.1c0,0,0,0,0,0.1c0,0.1,0,0.5,0,0.6c0,0.1-0.1,0.1-0.3,0.1c-0.4,0-0.7,0-0.9,0
		c-0.2,0-0.4,0-0.6,0c0,0-0.2,0-0.3,0c-0.1,0-0.3,0-0.4,0c0,0-0.1,0-0.1,0c0,0,0,0,0.1,0s0.1,0,0.2,0c0.1,0,0.1-0.1,0.1-0.3
		c0-0.2,0-0.7,0-1.1L159.1,172L159.1,172z"/>
	<path class="st0" d="M163,172.9c0,0.7,0,1,0.1,1.1c0.1,0.1,0.2,0.1,0.7,0.1c0.3,0,0.5,0,0.6-0.1c0,0,0.1-0.2,0.1-0.3
		c0,0,0-0.1,0-0.1s0,0,0,0.1c0,0,0,0.5-0.1,0.6c0,0.1,0,0.1-0.3,0.1c-0.4,0-0.7,0-0.9,0c-0.2,0-0.4,0-0.7,0c0,0-0.2,0-0.3,0
		c-0.1,0-0.3,0-0.4,0c0,0-0.1,0-0.1,0c0,0,0,0,0.1,0s0.1,0,0.2,0c0.1,0,0.1-0.1,0.1-0.3c0-0.2,0-0.7,0-1.1V172c0-0.8,0-0.9,0-1.1
		s0-0.3-0.2-0.3c0,0-0.1,0-0.2,0c0,0-0.1,0-0.1,0c0,0,0,0,0.1,0c0.2,0,0.6,0,0.7,0c0.1,0,0.5,0,0.7,0c0.1,0,0.1,0,0.1,0
		c0,0,0,0-0.1,0c0,0-0.1,0-0.2,0c-0.1,0-0.2,0.1-0.2,0.3s0,0.3,0,1.1L163,172.9L163,172.9z"/>
	<path class="st0" d="M168.1,172.8c0.1,0,0.2,0,0.2,0.1s-0.1,0.1-0.2,0.1c-0.2,0-1.2,0.2-1.3,0.2c-0.1,0-0.2,0.1-0.2,0.1
		c0,0,0,0,0-0.1l0.1-0.4c0,0,0,0,0.1,0L168.1,172.8L168.1,172.8z"/>
	<path class="st0" d="M171.2,173.8c0,0.4,0.1,0.6,0.2,0.6c0.1,0,0.2,0,0.3,0c0,0,0.1,0,0.1,0c0,0,0,0-0.1,0c-0.3,0-0.6,0-0.7,0
		c0,0-0.3,0-0.6,0c0,0-0.1,0-0.1,0c0,0,0,0,0.1,0c0,0,0.1,0,0.2,0c0.1,0,0.1-0.2,0.1-0.7l0-3.1c0-0.1,0-0.2,0-0.2
		c0,0,0.1,0.1,0.2,0.2c0,0,0.8,0.9,1.6,1.7c0.4,0.4,1.1,1.1,1.2,1.2h0l0-2.3c0-0.3,0-0.4-0.2-0.5c-0.1,0-0.2,0-0.3,0
		c0,0-0.1,0-0.1,0c0,0,0,0,0.1,0c0.3,0,0.5,0,0.7,0c0,0,0.3,0,0.5,0c0.1,0,0.1,0,0.1,0c0,0,0,0-0.1,0s-0.1,0-0.1,0
		c-0.1,0-0.2,0.1-0.2,0.5l0,3.3c0,0.1,0,0.1,0,0.1c0,0-0.1,0-0.2-0.1c-0.3-0.3-1-1-1.5-1.5c-0.6-0.6-1.2-1.2-1.3-1.3l0,0
		L171.2,173.8z"/>
	<path class="st0" d="M178.5,172.2C178.5,172.2,178.6,172.1,178.5,172.2l0-0.1c0-0.8,0-0.9,0-1.1s0-0.3-0.2-0.3c0,0-0.1,0-0.2,0
		c0,0-0.1,0-0.1,0s0,0,0.1,0c0.3,0,0.6,0,0.7,0s0.5,0,0.7,0c0.1,0,0.1,0,0.1,0s0,0-0.1,0c0,0-0.1,0-0.1,0c-0.1,0-0.2,0.1-0.2,0.3
		s0,0.3,0,1.1v0.9c0,0.5,0,0.9,0,1.1c0,0.1,0,0.3,0.2,0.3c0.1,0,0.2,0,0.3,0c0,0,0.1,0,0.1,0c0,0,0,0-0.1,0c-0.3,0-0.7,0-0.8,0
		c-0.1,0-0.5,0-0.7,0c-0.1,0-0.1,0-0.1,0c0,0,0,0,0.1,0s0.1,0,0.2,0c0.1,0,0.1-0.1,0.1-0.3c0-0.2,0-0.7,0-1.1v-0.5c0,0,0,0,0,0h-2
		c0,0,0,0,0,0v0.5c0,0.5,0,0.9,0,1.1c0,0.1,0,0.3,0.2,0.3c0.1,0,0.2,0,0.3,0c0,0,0.1,0,0.1,0c0,0,0,0-0.1,0c-0.3,0-0.7,0-0.8,0
		c-0.1,0-0.5,0-0.7,0c0,0-0.1,0-0.1,0c0,0,0,0,0.1,0s0.1,0,0.2,0c0.1,0,0.1-0.1,0.1-0.3c0-0.2,0-0.7,0-1.1V172c0-0.8,0-0.9,0-1.1
		s0-0.3-0.2-0.3c0,0-0.1,0-0.2,0c0,0-0.1,0-0.1,0s0,0,0.1,0c0.3,0,0.6,0,0.7,0c0.1,0,0.5,0,0.7,0c0.1,0,0.1,0,0.1,0s0,0-0.1,0
		c0,0-0.1,0-0.1,0c-0.1,0-0.2,0.1-0.2,0.3s0,0.3,0,1.1v0.1c0,0,0,0,0,0H178.5z"/>
	<path class="st0" d="M181.2,173.1C181.2,173.1,181.1,173.1,181.2,173.1l-0.3,0.7c0,0.1-0.1,0.3-0.1,0.3c0,0.1,0,0.2,0.2,0.2h0.1
		c0,0,0.1,0,0.1,0c0,0,0,0-0.1,0c-0.2,0-0.4,0-0.6,0c0,0-0.3,0-0.6,0c0,0-0.1,0-0.1,0c0,0,0,0,0,0c0,0,0.1,0,0.1,0
		c0.2,0,0.3-0.2,0.5-0.5l1.3-3.3c0-0.1,0.1-0.2,0.1-0.2s0.1,0,0.1,0.2c0.1,0.3,1,2.4,1.3,3.2c0.2,0.5,0.4,0.6,0.5,0.6
		c0.1,0,0.1,0,0.2,0c0,0,0,0,0,0c0,0,0,0-0.2,0s-0.6,0-1,0c-0.1,0-0.1,0-0.1,0c0,0,0,0,0.1,0c0,0,0.1,0,0-0.1l-0.4-1.1c0,0,0,0,0,0
		H181.2L181.2,173.1z M182.2,172.9C182.3,172.9,182.3,172.8,182.2,172.9l-0.5-1.3c0,0,0,0,0,0l0,0l-0.5,1.3v0L182.2,172.9
		L182.2,172.9z"/>
	<path class="st0" d="M186.9,170.8h-0.8c-0.3,0-0.4,0-0.5,0.1c0,0.1-0.1,0.1-0.1,0.2s0,0,0,0c0,0,0,0,0-0.1c0-0.1,0.1-0.6,0.1-0.6
		s0-0.1,0-0.1c0,0,0.1,0,0.2,0s0.4,0,0.5,0h2.1c0.2,0,0.3,0,0.4,0c0.1,0,0.1,0,0.1,0c0,0,0,0,0,0.1c0,0.1,0,0.5,0,0.6
		c0,0,0,0.1,0,0.1c0,0,0,0,0-0.1v0c0-0.1-0.1-0.3-0.6-0.3h-0.7v2.1c0,0.5,0,0.9,0,1.1c0,0.1,0,0.3,0.2,0.3c0.1,0,0.2,0,0.3,0
		c0,0,0.1,0,0.1,0c0,0,0,0-0.1,0c-0.3,0-0.7,0-0.8,0c-0.1,0-0.5,0-0.7,0c0,0-0.1,0-0.1,0c0,0,0,0,0.1,0c0.1,0,0.1,0,0.2,0
		c0.1,0,0.1-0.1,0.1-0.3c0-0.2,0-0.7,0-1.1L186.9,170.8L186.9,170.8z"/>
	<path class="st0" d="M189.9,172c0-0.8,0-0.9,0-1.1s0-0.3-0.2-0.3c0,0-0.1,0-0.2,0c0,0-0.1,0-0.1,0s0,0,0.1,0c0.3,0,0.6,0,0.7,0
		c0.2,0,0.6,0,0.7,0c0.3,0,0.7,0,1,0.2c0.1,0.1,0.4,0.4,0.4,0.7c0,0.4-0.1,0.7-0.7,1.2c0.5,0.6,0.8,1.1,1.1,1.4
		c0.3,0.3,0.5,0.3,0.6,0.4c0,0,0.1,0,0.1,0s0,0,0,0c0,0,0,0-0.1,0h-0.5c-0.3,0-0.4,0-0.6-0.1c-0.2-0.1-0.4-0.4-0.7-0.8
		c-0.2-0.3-0.5-0.7-0.5-0.7c0,0,0,0-0.1,0h-0.5c0,0,0,0,0,0v0.1c0,0.5,0,0.9,0,1.1c0,0.1,0,0.3,0.2,0.3c0.1,0,0.2,0,0.3,0
		c0,0,0,0,0,0s0,0-0.1,0c-0.3,0-0.7,0-0.8,0s-0.4,0-0.7,0c-0.1,0-0.1,0-0.1,0s0,0,0.1,0s0.1,0,0.2,0c0.1,0,0.1-0.1,0.1-0.3
		c0-0.2,0-0.7,0-1.1L189.9,172L189.9,172z M190.5,172.4C190.5,172.5,190.5,172.5,190.5,172.4c0.1,0.1,0.3,0.1,0.5,0.1
		c0.2,0,0.3,0,0.4-0.1c0.1-0.1,0.3-0.4,0.3-0.8c0-0.7-0.5-1-0.8-1c-0.1,0-0.2,0-0.3,0s0,0,0,0.1L190.5,172.4L190.5,172.4z"/>
	<path class="st0" d="M194,173.1L194,173.1l-0.3,0.7c0,0.1-0.1,0.3-0.1,0.3c0,0.1,0,0.2,0.2,0.2h0.1c0,0,0.1,0,0.1,0c0,0,0,0-0.1,0
		c-0.2,0-0.4,0-0.6,0c0,0-0.3,0-0.6,0c-0.1,0-0.1,0-0.1,0c0,0,0,0,0,0s0.1,0,0.1,0c0.2,0,0.3-0.2,0.5-0.5l1.3-3.3
		c0-0.1,0.1-0.2,0.1-0.2c0,0,0.1,0,0.1,0.2c0.1,0.3,1,2.4,1.3,3.2c0.2,0.5,0.4,0.6,0.5,0.6s0.1,0,0.2,0c0,0,0,0,0,0c0,0,0,0-0.2,0
		c-0.2,0-0.6,0-1,0c-0.1,0-0.1,0-0.1,0c0,0,0,0,0.1,0c0,0,0.1,0,0-0.1l-0.4-1.1c0,0,0,0,0,0H194L194,173.1z M195.1,172.9
		C195.2,172.9,195.2,172.8,195.1,172.9l-0.5-1.3c0,0,0,0,0,0l0,0l-0.5,1.3v0L195.1,172.9L195.1,172.9z"/>
	<path class="st0" d="M197.8,173.8c0,0.4,0.1,0.6,0.2,0.6s0.2,0,0.3,0c0,0,0.1,0,0.1,0c0,0,0,0-0.1,0c-0.3,0-0.6,0-0.7,0
		c0,0-0.3,0-0.6,0c-0.1,0-0.1,0-0.1,0c0,0,0,0,0.1,0c0,0,0.1,0,0.2,0c0.1,0,0.1-0.2,0.1-0.7l0-3.1c0-0.1,0-0.2,0-0.2
		c0,0,0.1,0.1,0.2,0.2c0,0,0.8,0.9,1.6,1.7c0.4,0.4,1.1,1.1,1.2,1.2h0l0-2.3c0-0.3,0-0.4-0.2-0.5c-0.1,0-0.2,0-0.3,0
		c0,0-0.1,0-0.1,0c0,0,0,0,0.1,0c0.3,0,0.5,0,0.7,0c0,0,0.3,0,0.5,0c0.1,0,0.1,0,0.1,0c0,0,0,0-0.1,0c0,0-0.1,0-0.1,0
		c-0.1,0-0.2,0.1-0.2,0.5l0,3.3c0,0.1,0,0.1,0,0.1s-0.1,0-0.2-0.1c-0.3-0.3-1-1-1.5-1.5c-0.6-0.6-1.2-1.2-1.3-1.3l0,0L197.8,173.8z"
		/>
	<path class="st0" d="M205.6,174.1c0,0.1,0,0.1,0,0.2c-0.3,0.2-0.8,0.2-1.3,0.2c-1.3,0-2.4-0.6-2.4-2c0-0.8,0.4-1.4,0.9-1.7
		c0.5-0.3,1-0.3,1.4-0.3c0.4,0,0.8,0,0.9,0.1c0.1,0,0.3,0,0.4,0c0,0,0.1,0,0.1,0c0,0,0,0.2,0,0.8c0,0.1,0,0.1,0,0.1s0,0,0,0
		c0-0.1,0-0.3-0.2-0.4c-0.1-0.2-0.6-0.4-1.2-0.4c-0.3,0-0.7,0-1,0.3c-0.3,0.2-0.5,0.7-0.5,1.3c0,1.1,0.7,2,1.8,2c0.1,0,0.3,0,0.5,0
		c0.1,0,0.1-0.1,0.1-0.2v-0.5c0-0.3,0-0.5,0-0.6c0-0.2,0-0.3-0.2-0.3c0,0-0.1,0-0.2,0c0,0-0.1,0-0.1,0c0,0,0,0,0.1,0
		c0.3,0,0.6,0,0.7,0c0.2,0,0.4,0,0.6,0c0,0,0.1,0,0.1,0c0,0,0,0,0,0c0,0-0.1,0-0.1,0c-0.1,0-0.2,0.1-0.2,0.3c0,0.1,0,0.4,0,0.6
		L205.6,174.1L205.6,174.1z"/>
</g>
</svg>
