<?xml version="1.0" encoding="utf-8"?>
<!-- Generator: Adobe Illustrator 21.1.0, SVG Export Plug-In . SVG Version: 6.00 Build 0)  -->
<svg version="1.1" id="Layer_1" xmlns="http://www.w3.org/2000/svg" xmlns:xlink="http://www.w3.org/1999/xlink" x="0px" y="0px"
	 viewBox="0 0 350 255.1" style="enable-background:new 0 0 350 255.1;" xml:space="preserve">
<style type="text/css">
	.st0{fill:#1F191A;}
</style>
<g>
	<path class="st0" d="M198.8,94.7c-1,0-1.9,0-2.8,0c-3.2,0-6.4,0-9.6,0.1c-0.6,0-1.3,0-1.9,0.1c-1.2,0.2-2,0.9-2.6,2
		c-0.6,1.2-1.1,2.5-1.6,3.7c-1,2.5-2,5.1-3,7.6c-0.1,0.2-0.2,0.3-0.4,0.3c-1.2,0-2.5-0.1-3.7,0c-2.6,0.1-5.1,0.5-7.5,1.4
		c-4.1,1.4-7.4,3.9-10.1,7.4c-0.9,1.2-1.7,2.6-2.5,3.8c0,0-0.1,0.1-0.2,0.2c-0.1-1.2-0.3-2.4-0.4-3.6c-0.2-1.9-0.3-3.9-0.1-5.9
		c0.1-1.4,0.2-2.8,0.4-4.3c0.3-2.3,0.9-4.6,1.7-6.8c1.9-5.4,4.8-10.2,9.2-14c3-2.6,6.5-4.4,10.3-5.2c2-0.4,4.1-0.5,6.1-0.3
		c4.6,0.4,8.6,2.3,12.1,5.3c2.7,2.2,4.8,4.9,6.5,7.8C198.6,94.4,198.7,94.5,198.8,94.7"/>
	<path class="st0" d="M161.9,139.2c0.4,0.1,0.9,0.1,1.3,0.2c2.8,0.4,5.4-0.1,7.8-1.6c2.3-1.4,4.1-3.3,5.6-5.5
		c1.8-2.5,3.2-5.3,4.3-8.2c0.9-2.2,1.6-4.4,2.3-6.6c0.1-0.3,0.2-0.4,0.6-0.4c0.9,0,1.9,0.1,2.8,0.1c1,0,2.1-0.1,3-0.6
		c1.3-0.6,2.1-1.7,2.3-3.1c0.2-1,0.1-1.9-0.1-2.9c-0.4-1.4-1.5-2.1-2.8-2.2c-0.6,0-1.2,0-1.9,0c0.5-1.2,0.9-2.5,1.4-3.7
		c0.1-0.3,0.2-0.6,0.3-0.9c0-0.1,0.2-0.2,0.3-0.2c0.9,0,1.9,0,2.9,0c1.5,0,3.1,0,4.6,0c0.7,0,1.5,0,2.2,0c1.1,0,2.1-0.3,2.8-1.2
		c0.1-0.1,0.1-0.1,0.3-0.3c0.1,0.6,0.3,1.1,0.5,1.7c0.3,1.3,0.6,2.6,0.8,3.8c0.2,1.1,0.3,2.3,0.4,3.5c0.1,1.3,0.1,2.6,0,3.8
		c0,1.5-0.1,3-0.4,4.5c-0.2,1.7-0.6,3.4-1,5c-0.3,1.4-0.9,2.8-1.4,4.1c-1.1,2.9-2.7,5.6-4.6,8.2c-2.8,3.6-6.2,6.5-10.4,8.3
		c-1.8,0.8-3.8,1.3-5.8,1.5c-1.3,0.1-2.7,0.1-4,0c-2.8-0.2-5.4-1-7.9-2.3c-2.3-1.2-4.3-2.7-6.1-4.5c0,0-0.1-0.1-0.1-0.1
		C161.9,139.3,161.9,139.3,161.9,139.2"/>
	<path class="st0" d="M173.3,117.3c-0.2,0.7-0.4,1.3-0.7,1.8c-0.8,2.3-1.7,4.6-3,6.6c-0.6,1.1-1.3,2.1-2.3,2.9
		c-0.7,0.6-1.5,1-2.4,1.1c-1.3,0.2-2.5-0.7-2.8-2c-0.6-2.7,0.1-5,2-6.9c1.5-1.6,3.5-2.5,5.5-3c1-0.3,2.1-0.4,3.2-0.6
		C173,117.3,173.1,117.3,173.3,117.3"/>
	<path class="st0" d="M155.2,161.3c0,0-4.4-0.5-7.3,0c0,0-0.6,0.1-0.6,0.5c0,0,0,0.3,0.6,0.2c0,0,4.5-0.7,7.1-0.4"/>
	<path class="st0" d="M163.3,161.1c0.9-1.3,1.8-1.5,3.2-1.5l-4.5,6.9c-1.1,1.7,0.3,0.9,1.6,0.1c1.1-0.7,2.5-2.1,3.5-3.6
		c0.1-0.2,0.3-0.1,0.2,0.1c-2.1,2.9-4.7,5-6.4,5c-0.7,0-1.2-0.6-0.8-1.9c-1.1,1.2-2.3,1.9-3.4,1.9c-2-0.1-1.8-2.3-0.4-4.4
		c1.2-1.8,3.9-4.7,6.2-4.4C163.2,159.6,163.4,160.2,163.3,161.1 M158.5,163.8c-1.4,2.2-1.9,3.8-0.9,3.8c0.8,0,2.5-1.6,3.9-3.8
		c1.4-2.2,1.8-3.7,1-3.7C161.7,160.1,159.9,161.6,158.5,163.8"/>
	<path class="st0" d="M177.7,161.2c1-1.5-0.1-1.2-1.7-0.1c-0.7,0.5-1.5,1.2-2.2,2.1l-3.1,4.9c-0.9,0-1.9-0.5-0.9-2.1l3.1-4.7
		c1-1.5-0.2-1.2-1.7-0.1c-0.7,0.5-1.6,1.3-2.2,2.1l-3.2,4.8c-0.9,0-1.8-0.5-0.9-2.1l4.1-6.3c0.8,0,1.8,0.5,0.9,1.9
		c1.2-1.1,2.8-2.1,3.9-2.1c0.7,0,1.4,0.7,0.7,2.3l0.2-0.1c1.2-1.1,2.8-2.1,3.9-2.1c0.9,0,1.6,1,0.1,3.3l-2.4,3.8
		c-1.1,1.7,0.3,0.9,1.6,0.1c1.1-0.7,2.6-2.1,3.5-3.6c0.2-0.2,0.4-0.1,0.2,0.1c-2,2.9-4.7,5-6.4,5c-0.9,0-1.6-1-0.1-3.3L177.7,161.2z
		"/>
	<path class="st0" d="M183.5,159.6c0.9,0,1.9,0.5,0.9,2.1l-3.1,4.7c-1.1,1.7,0.4,0.9,1.6,0.1c1-0.7,2.5-2.1,3.5-3.6
		c0.1-0.2,0.3-0.1,0.2,0.1c-2,2.9-4.7,5-6.4,5c-0.9,0-1.6-1-0.1-3.3L183.5,159.6z M186.2,156.2c0.7,0,1.1,0.5,1,1
		c-0.1,0.6-0.9,1-1.5,1c-0.7,0-1.1-0.4-1-1C184.8,156.6,185.6,156.2,186.2,156.2"/>
	<path class="st0" d="M192.3,161.1c0.9-1.3,1.8-1.5,3.2-1.5l-4.5,6.9c-1.1,1.7,0.3,0.9,1.6,0.1c1.1-0.7,2.5-2.1,3.5-3.6
		c0.1-0.2,0.3-0.1,0.2,0.1c-2.1,2.9-4.7,5-6.4,5c-0.7,0-1.2-0.6-0.8-1.9c-1.1,1.2-2.3,1.9-3.4,1.9c-2-0.1-1.8-2.3-0.4-4.4
		c1.2-1.8,3.9-4.7,6.2-4.4C192.2,159.6,192.5,160.2,192.3,161.1 M187.6,163.8c-1.4,2.2-1.9,3.8-0.9,3.8c0.8,0,2.5-1.6,3.9-3.8
		c1.4-2.2,1.8-3.7,1-3.7C190.8,160.1,189,161.6,187.6,163.8"/>
	<path class="st0" d="M206,163.2c-2.1,2.9-4.7,5-6.4,5c-0.9,0-1.6-1-0.1-3.3l2.5-3.7c1-1.5-0.2-1.2-1.7-0.1
		c-0.7,0.5-1.6,1.3-2.2,2.1l-3.2,4.8c-0.9,0-1.8-0.5-0.9-2.1l4.1-6.3c0.8,0,1.8,0.5,0.9,1.9c1.2-1.1,2.8-2.1,3.9-2.1
		c0.9,0,1.6,1,0.1,3.3l-2.5,3.8c-1.1,1.7,0.4,0.9,1.6,0.1c1-0.7,2.6-2.1,3.5-3.6C205.9,162.9,206.1,163,206,163.2"/>
	<path class="st0" d="M211.8,161.1c0.9-1.3,1.8-1.5,3.2-1.5l-4.5,6.9c-1.1,1.7,0.3,0.9,1.6,0.1c1.1-0.7,2.5-2.1,3.5-3.6
		c0.1-0.2,0.3-0.1,0.2,0.1c-2.1,2.9-4.7,5-6.4,5c-0.7,0-1.2-0.6-0.8-1.9c-1.1,1.2-2.3,1.9-3.4,1.9c-2-0.1-1.8-2.3-0.4-4.4
		c1.2-1.8,3.9-4.7,6.2-4.4C211.7,159.6,212,160.2,211.8,161.1 M207,163.8c-1.4,2.2-1.9,3.8-0.9,3.8c0.8,0,2.5-1.6,3.9-3.8
		c1.4-2.2,1.8-3.7,1-3.7C210.3,160.1,208.5,161.6,207,163.8"/>
	<path class="st0" d="M139.4,158.7c-0.3,1.5,0.1,3.5,2.6,4.6c0.4,0.1,0.5,0.1,0.5,0.2c0,0.1-0.3,0.1-0.7,0c-2.3-0.9-3.3-2.9-3-5.1
		c0.4-3,3.6-5.3,8.3-5.3c1.6,0,4.2,0.5,6.5,1.2c1.3,0.4,1.5,0.5,2.8,0.8c1.7-1.3,3.5-2.2,5.5-1.9c1.4,0.2,2.2,0.7,2.2,1.7
		c0,0.7-0.6,1.6-2.2,1.7c-1.6,0.1-2.8,0-4.3-0.3c-0.8,0.7-1.7,1.8-2.8,3.2c-1.2,1.5-2.6,3.3-3.7,4.5c-0.3,0.4-1.3,1.5-1.6,1.8
		c-4.5,4.9-8.4,5.6-10.8,5.5c-2.1-0.1-4.4-0.8-4.4-2.9c0-1,0.7-2,1.8-2c0.7,0,1.2,0.6,1.1,1.2c-0.1,0.4-0.3,0.7-0.6,1
		c-0.3,0.4-0.5,0.7-0.5,0.9c0,0.9,1.4,1.2,2.6,1.2c3.2,0,6.1-2.6,7.8-4.5c0.9-0.9,1.5-1.7,2.2-2.8c0.9-1.1,1.9-2.4,2.8-3.4
		c1.8-2.1,2.6-3,4-4.3c-0.9-0.2-0.9-0.2-2.2-0.5c-1.5-0.4-4.4-0.9-6.5-0.9C143.3,154.4,140.1,155.7,139.4,158.7 M158.3,155.7
		c1.4,0.4,3.1,0.4,3.9,0.4c1-0.1,1.5-0.5,1.5-1c0-0.6-0.5-1.1-1.9-1.1C160.6,154,159,155,158.3,155.7"/>
	<path class="st0" d="M154.3,163.9c0.1-0.3,0.8-1.7,2.5-3.4c0,0-0.6-0.4-1.2,0.4c0,0-0.3,0.3-0.6,0.8
		C154.6,162.3,154.1,163.3,154.3,163.9"/>
	<path class="st0" d="M145.8,174.2v1.5h-0.5v-3.4h0.8c0.2,0,0.4,0,0.5,0c0.1,0,0.2,0.1,0.3,0.1c0.1,0.1,0.2,0.2,0.2,0.3
		c0,0.1,0.1,0.3,0.1,0.4c0,0.3,0,0.5-0.2,0.6c-0.1,0.1-0.3,0.2-0.6,0.3l1.2,1.5H147L145.8,174.2L145.8,174.2z M145.8,173.8
		L145.8,173.8c0.4,0,0.6,0,0.7-0.1c0.1,0,0.1-0.2,0.1-0.4c0-0.2,0-0.3-0.1-0.4c-0.1-0.1-0.3-0.1-0.6-0.1h-0.1V173.8z"/>
	<polygon class="st0" points="148.4,175.7 148.4,172.3 150.3,172.3 150.3,172.8 148.9,172.8 148.9,173.7 150.3,173.7 150.3,174.2 
		148.9,174.2 148.9,175.2 150.3,175.2 150.3,175.7 	"/>
	<path class="st0" d="M151.2,175.1l0.4-0.2c0,0.1,0.1,0.3,0.2,0.3c0.1,0.1,0.2,0.1,0.4,0.1c0.1,0,0.3,0,0.4-0.1s0.1-0.2,0.1-0.4
		s-0.1-0.4-0.5-0.5c0,0-0.1,0-0.1,0c-0.4-0.2-0.6-0.3-0.8-0.5c-0.1-0.1-0.2-0.3-0.2-0.5c0-0.3,0.1-0.5,0.3-0.7s0.4-0.2,0.8-0.2
		c0.2,0,0.5,0,0.6,0.1c0.2,0.1,0.3,0.2,0.3,0.4l-0.4,0.2c0-0.1-0.1-0.2-0.2-0.2c-0.1,0-0.2-0.1-0.3-0.1c-0.1,0-0.3,0-0.3,0.1
		c-0.1,0.1-0.1,0.2-0.1,0.3c0,0.2,0.2,0.4,0.6,0.6c0,0,0,0,0,0c0.3,0.1,0.6,0.3,0.7,0.4c0.1,0.1,0.2,0.3,0.2,0.6
		c0,0.3-0.1,0.6-0.3,0.8s-0.5,0.3-0.8,0.3c-0.3,0-0.5,0-0.7-0.2C151.3,175.5,151.2,175.3,151.2,175.1"/>
	<path class="st0" d="M157.8,174.1c0,0.2,0,0.5-0.1,0.7s-0.2,0.4-0.4,0.6c-0.2,0.1-0.4,0.3-0.6,0.4c-0.2,0.1-0.4,0.1-0.7,0.1
		c-0.2,0-0.5,0-0.7-0.1c-0.2-0.1-0.4-0.2-0.6-0.4c-0.2-0.2-0.3-0.4-0.4-0.6s-0.1-0.4-0.1-0.7s0-0.5,0.1-0.7c0.1-0.2,0.2-0.4,0.4-0.6
		c0.2-0.2,0.4-0.3,0.6-0.4c0.2-0.1,0.4-0.1,0.7-0.1c0.2,0,0.5,0,0.7,0.1c0.2,0.1,0.4,0.2,0.6,0.4c0.2,0.2,0.3,0.4,0.4,0.6
		C157.8,173.6,157.8,173.8,157.8,174.1 M157.3,174.1c0-0.2,0-0.3-0.1-0.5c0-0.1-0.1-0.3-0.3-0.4c-0.1-0.1-0.2-0.2-0.4-0.3
		c-0.1,0-0.3-0.1-0.5-0.1c-0.2,0-0.3,0-0.5,0.1c-0.1,0-0.3,0.1-0.4,0.3c-0.1,0.1-0.2,0.2-0.3,0.4c0,0.1-0.1,0.3-0.1,0.5
		c0,0.2,0,0.3,0.1,0.5c0,0.1,0.1,0.3,0.3,0.4c0.1,0.1,0.2,0.2,0.4,0.3c0.1,0,0.3,0.1,0.5,0.1c0.1,0,0.3,0,0.5-0.1s0.3-0.1,0.4-0.3
		s0.2-0.2,0.3-0.4C157.3,174.4,157.3,174.2,157.3,174.1"/>
	<path class="st0" d="M159.5,174.2v1.5h-0.5v-3.4h0.8c0.2,0,0.4,0,0.5,0c0.1,0,0.2,0.1,0.3,0.1c0.1,0.1,0.2,0.2,0.2,0.3
		c0,0.1,0.1,0.3,0.1,0.4c0,0.3,0,0.5-0.2,0.6c-0.1,0.1-0.3,0.2-0.6,0.3l1.2,1.5h-0.6L159.5,174.2L159.5,174.2z M159.5,173.8
		L159.5,173.8c0.4,0,0.6,0,0.7-0.1c0.1,0,0.1-0.2,0.1-0.4c0-0.2,0-0.3-0.1-0.4c-0.1-0.1-0.3-0.1-0.6-0.1h-0.1V173.8z"/>
	<polygon class="st0" points="163.2,172.8 163.2,175.7 162.6,175.7 162.6,172.8 161.7,172.8 161.7,172.3 164.1,172.3 164.1,172.8 	
		"/>
	<path class="st0" d="M168.5,175.7l-0.3-0.3c-0.1,0.1-0.3,0.2-0.5,0.3c-0.2,0-0.3,0.1-0.6,0.1c-0.3,0-0.6-0.1-0.8-0.3
		c-0.2-0.2-0.3-0.4-0.3-0.7c0-0.2,0-0.4,0.2-0.5c0.1-0.1,0.3-0.3,0.6-0.5l-0.1-0.1c-0.1-0.1-0.1-0.2-0.2-0.3c0-0.1,0-0.2,0-0.3
		c0-0.2,0.1-0.4,0.2-0.6c0.1-0.1,0.4-0.2,0.6-0.2c0.2,0,0.5,0,0.6,0.2c0.1,0.1,0.2,0.3,0.2,0.5c0,0.1,0,0.3-0.1,0.5
		s-0.3,0.3-0.5,0.4l0.7,0.8c0,0,0.1-0.1,0.2-0.2c0-0.1,0.1-0.2,0.2-0.3l0.3,0.3c0,0.1-0.1,0.2-0.2,0.3c-0.1,0.1-0.1,0.2-0.2,0.2
		l0.6,0.7L168.5,175.7L168.5,175.7z M167.9,175.1l-0.8-0.9l-0.1,0c-0.1,0.1-0.3,0.2-0.3,0.3c0,0.1-0.1,0.2-0.1,0.3
		c0,0.1,0,0.3,0.1,0.4s0.2,0.1,0.4,0.1c0.1,0,0.2,0,0.3-0.1C167.7,175.2,167.8,175.1,167.9,175.1 M167.3,173.6l0.1-0.1
		c0.1,0,0.1-0.1,0.2-0.2c0,0,0-0.1,0-0.2s0-0.2-0.1-0.2c0,0-0.1-0.1-0.2-0.1s-0.2,0-0.2,0.1c0,0-0.1,0.1-0.1,0.2c0,0,0,0.1,0,0.1
		c0,0,0,0.1,0.1,0.1L167.3,173.6z"/>
	<path class="st0" d="M171.2,175.1l0.4-0.2c0,0.1,0.1,0.3,0.2,0.3c0.1,0.1,0.2,0.1,0.4,0.1c0.1,0,0.3,0,0.4-0.1s0.1-0.2,0.1-0.4
		s-0.1-0.4-0.5-0.5c0,0-0.1,0-0.1,0c-0.4-0.2-0.6-0.3-0.8-0.5c-0.1-0.1-0.2-0.3-0.2-0.5c0-0.3,0.1-0.5,0.3-0.7s0.4-0.2,0.8-0.2
		c0.2,0,0.5,0,0.6,0.1c0.2,0.1,0.3,0.2,0.3,0.4l-0.4,0.2c0-0.1-0.1-0.2-0.2-0.2c-0.1,0-0.2-0.1-0.3-0.1c-0.1,0-0.3,0-0.3,0.1
		c-0.1,0.1-0.1,0.2-0.1,0.3c0,0.2,0.2,0.4,0.6,0.6c0,0,0,0,0,0c0.3,0.1,0.6,0.3,0.7,0.4c0.1,0.1,0.2,0.3,0.2,0.6
		c0,0.3-0.1,0.6-0.3,0.8c-0.2,0.2-0.5,0.3-0.8,0.3c-0.3,0-0.5,0-0.7-0.2C171.4,175.5,171.3,175.3,171.2,175.1"/>
	<path class="st0" d="M175,174.2v1.5h-0.5v-3.4h0.8c0.2,0,0.4,0,0.5,0c0.1,0,0.2,0.1,0.3,0.1c0.1,0.1,0.2,0.2,0.2,0.3
		c0,0.1,0.1,0.3,0.1,0.4c0,0.1,0,0.3-0.1,0.4c0,0.1-0.1,0.2-0.2,0.3c-0.1,0-0.2,0.1-0.3,0.1s-0.3,0-0.5,0h-0.1L175,174.2L175,174.2z
		 M175.1,173.8h0.1c0.3,0,0.5,0,0.6-0.1c0.1,0,0.1-0.2,0.1-0.3c0-0.2,0-0.3-0.1-0.4s-0.3-0.1-0.6-0.1h-0.1V173.8z"/>
	<path class="st0" d="M179.5,175.7l-0.4-0.9h-1.3l-0.4,0.9h-0.6l1.6-3.5l1.6,3.5H179.5z M178,174.4h0.9l-0.3-0.8c0,0,0-0.1,0-0.2
		c0,0,0-0.1,0-0.2c0,0.1,0,0.1,0,0.2c0,0,0,0.1,0,0.2L178,174.4z"/>
	<path class="st0" d="M182.7,174.2v1.5h-0.5v-3.4h0.8c0.2,0,0.4,0,0.5,0s0.2,0.1,0.3,0.1c0.1,0.1,0.2,0.2,0.2,0.3
		c0,0.1,0.1,0.3,0.1,0.4c0,0.1,0,0.3-0.1,0.4s-0.1,0.2-0.2,0.3c-0.1,0-0.2,0.1-0.3,0.1c-0.1,0-0.3,0-0.5,0h-0.1L182.7,174.2
		L182.7,174.2z M182.8,173.8h0.1c0.3,0,0.5,0,0.6-0.1c0.1,0,0.1-0.2,0.1-0.3c0-0.2,0-0.3-0.1-0.4s-0.3-0.1-0.6-0.1h-0.1V173.8z"/>
	<polygon class="st0" points="185.2,175.7 185.2,172.3 185.8,172.3 185.8,173.6 187.4,173.6 187.4,172.3 188,172.3 188,175.7 
		187.4,175.7 187.4,174.1 185.8,174.1 185.8,175.7 	"/>
	<path class="st0" d="M189.2,172.3h0.5v2c0,0.3,0,0.5,0.2,0.7c0.1,0.1,0.3,0.2,0.6,0.2c0.3,0,0.5-0.1,0.6-0.2
		c0.1-0.1,0.2-0.4,0.2-0.7v-2h0.6v2.1c0,0.5-0.1,0.8-0.3,1c-0.2,0.2-0.6,0.3-1,0.3c-0.5,0-0.8-0.1-1-0.3c-0.2-0.2-0.3-0.6-0.3-1
		L189.2,172.3L189.2,172.3z"/>
	<path class="st0" d="M197.6,175.2l0.7,0.8h-0.7l-0.4-0.5c-0.1,0.1-0.3,0.1-0.5,0.2c-0.1,0-0.3,0-0.5,0c-0.2,0-0.5,0-0.7-0.1
		c-0.2-0.1-0.4-0.2-0.6-0.4c-0.2-0.2-0.3-0.4-0.4-0.6c-0.1-0.2-0.1-0.4-0.1-0.7c0-0.2,0-0.5,0.1-0.7c0.1-0.2,0.2-0.4,0.4-0.6
		c0.2-0.1,0.4-0.3,0.6-0.4c0.2-0.1,0.5-0.1,0.7-0.1s0.5,0,0.7,0.1s0.4,0.2,0.6,0.4c0.2,0.2,0.3,0.4,0.4,0.6s0.1,0.4,0.1,0.7
		c0,0.2,0,0.5-0.1,0.7C197.9,174.9,197.8,175.1,197.6,175.2 M196.9,174.5l0.3,0.3c0.1-0.1,0.2-0.2,0.2-0.4c0-0.1,0.1-0.3,0.1-0.4
		c0-0.2,0-0.3-0.1-0.5c0-0.1-0.1-0.3-0.3-0.4c-0.1-0.1-0.2-0.2-0.4-0.3c-0.1,0-0.3-0.1-0.5-0.1c-0.1,0-0.3,0-0.5,0.1
		c-0.1,0-0.3,0.1-0.4,0.3c-0.1,0.1-0.2,0.2-0.3,0.4c0,0.1-0.1,0.3-0.1,0.5c0,0.3,0.1,0.7,0.4,0.9c0.2,0.2,0.5,0.4,0.9,0.4
		c0.1,0,0.2,0,0.3,0c0.1,0,0.2,0,0.2-0.1l-0.6-0.7H196.9z"/>
	<path class="st0" d="M199.2,172.3h0.5v2c0,0.3,0.1,0.5,0.2,0.7c0.1,0.1,0.3,0.2,0.6,0.2c0.3,0,0.5-0.1,0.6-0.2s0.2-0.4,0.2-0.7v-2
		h0.6v2.1c0,0.5-0.1,0.8-0.3,1c-0.2,0.2-0.6,0.3-1,0.3s-0.8-0.1-1-0.3c-0.2-0.2-0.3-0.6-0.3-1L199.2,172.3L199.2,172.3z"/>
	<path class="st0" d="M206.7,174.1c0,0.2,0,0.5-0.1,0.7s-0.2,0.4-0.4,0.6c-0.2,0.1-0.4,0.3-0.6,0.4c-0.2,0.1-0.4,0.1-0.7,0.1
		c-0.2,0-0.5,0-0.7-0.1c-0.2-0.1-0.4-0.2-0.6-0.4c-0.2-0.2-0.3-0.4-0.4-0.6s-0.1-0.4-0.1-0.7s0-0.5,0.1-0.7c0.1-0.2,0.2-0.4,0.4-0.6
		c0.2-0.2,0.4-0.3,0.6-0.4c0.2-0.1,0.4-0.1,0.7-0.1c0.2,0,0.5,0,0.7,0.1c0.2,0.1,0.4,0.2,0.6,0.4c0.2,0.2,0.3,0.4,0.4,0.6
		C206.6,173.6,206.7,173.8,206.7,174.1 M206.1,174.1c0-0.2,0-0.3-0.1-0.5c0-0.1-0.1-0.3-0.3-0.4c-0.1-0.1-0.2-0.2-0.4-0.3
		c-0.1,0-0.3-0.1-0.5-0.1s-0.3,0-0.5,0.1c-0.1,0-0.3,0.1-0.4,0.3c-0.1,0.1-0.2,0.2-0.3,0.4c0,0.1-0.1,0.3-0.1,0.5
		c0,0.2,0,0.3,0.1,0.5c0,0.1,0.1,0.3,0.3,0.4c0.1,0.1,0.2,0.2,0.4,0.3c0.1,0,0.3,0.1,0.5,0.1c0.1,0,0.3,0,0.5-0.1
		c0.1,0,0.3-0.1,0.4-0.3s0.2-0.2,0.3-0.4C206,174.4,206.1,174.2,206.1,174.1"/>
	<path class="st0" d="M210.5,173.2c-0.1-0.1-0.3-0.2-0.5-0.3c-0.2,0-0.3-0.1-0.6-0.1c-0.4,0-0.7,0.1-0.9,0.3
		c-0.2,0.2-0.3,0.5-0.3,0.9c0,0.4,0.1,0.7,0.3,0.9c0.2,0.2,0.5,0.3,0.9,0.3c0.2,0,0.4,0,0.6-0.1c0.2-0.1,0.3-0.2,0.5-0.3v0.6
		c-0.1,0.1-0.3,0.2-0.5,0.2c-0.2,0-0.4,0.1-0.6,0.1c-0.2,0-0.5,0-0.7-0.1c-0.2-0.1-0.4-0.2-0.6-0.4c-0.1-0.1-0.3-0.3-0.4-0.6
		c-0.1-0.2-0.1-0.5-0.1-0.7c0-0.2,0-0.5,0.1-0.7c0.1-0.2,0.2-0.4,0.4-0.6c0.2-0.1,0.4-0.3,0.6-0.4c0.2-0.1,0.5-0.1,0.7-0.1
		c0.2,0,0.4,0,0.6,0.1c0.2,0,0.3,0.1,0.5,0.2L210.5,173.2z"/>
</g>
</svg>
