<?xml version="1.0" encoding="utf-8"?>
<!-- Generator: Adobe Illustrator 21.1.0, SVG Export Plug-In . SVG Version: 6.00 Build 0)  -->
<svg version="1.1" id="Layer_1" xmlns="http://www.w3.org/2000/svg" xmlns:xlink="http://www.w3.org/1999/xlink" x="0px" y="0px"
	 viewBox="0 0 350 255.1" style="enable-background:new 0 0 350 255.1;" xml:space="preserve">
<style type="text/css">
	.st0{fill:#1F191A;}
</style>
<g>
	<path class="st0" d="M34.4,188.5L30,174.8h1.9l2.1,6.7c0.6,1.9,1.1,3.5,1.5,5.1h0c0.4-1.6,0.9-3.3,1.6-5.1l2.3-6.8h1.9l-4.9,13.7
		H34.4z"/>
	<path class="st0" d="M46.8,174.8v8.1c0,3.1,1.4,4.4,3.2,4.4c2,0,3.3-1.3,3.3-4.4v-8.1h1.8v8c0,4.2-2.2,5.9-5.2,5.9
		c-2.8,0-4.9-1.6-4.9-5.8v-8.1H46.8z"/>
	<path class="st0" d="M60.5,188.5v-13.7h1.9l4.4,6.9c1,1.6,1.8,3,2.5,4.4l0,0c-0.2-1.8-0.2-3.5-0.2-5.6v-5.7h1.7v13.7H69l-4.3-6.9
		c-1-1.5-1.9-3.1-2.6-4.6l-0.1,0c0.1,1.7,0.1,3.4,0.1,5.6v5.8H60.5z"/>
	<path class="st0" d="M86.6,187.9c-0.8,0.3-2.3,0.8-4.2,0.8c-2.1,0-3.8-0.5-5.1-1.8c-1.2-1.1-1.9-3-1.9-5.1c0-4.1,2.8-7.1,7.4-7.1
		c1.6,0,2.8,0.3,3.4,0.6l-0.4,1.4c-0.7-0.3-1.6-0.6-3-0.6c-3.3,0-5.5,2.1-5.5,5.5c0,3.5,2.1,5.5,5.3,5.5c1.2,0,1.9-0.2,2.4-0.4v-4.1
		h-2.8v-1.4h4.5V187.9z"/>
	<polygon class="st0" points="99.9,176.4 95.8,176.4 95.8,174.8 105.9,174.8 105.9,176.4 101.7,176.4 101.7,188.5 99.9,188.5 	"/>
	<path class="st0" d="M110.4,184.2l-1.4,4.3h-1.8l4.6-13.7h2.1l4.7,13.7h-1.9l-1.5-4.3H110.4z M114.9,182.8l-1.3-3.9
		c-0.3-0.9-0.5-1.7-0.7-2.5h0c-0.2,0.8-0.4,1.6-0.7,2.5l-1.3,4H114.9z"/>
	<path class="st0" d="M124.1,174.8v8.1c0,3.1,1.4,4.4,3.2,4.4c2,0,3.3-1.3,3.3-4.4v-8.1h1.8v8c0,4.2-2.2,5.9-5.2,5.9
		c-2.8,0-4.9-1.6-4.9-5.8v-8.1H124.1z"/>
	<path class="st0" d="M144.4,175c0.9-0.2,2.2-0.3,3.4-0.3c1.9,0,3.1,0.3,4,1.1c0.7,0.6,1.1,1.5,1.1,2.6c0,1.8-1.1,3-2.6,3.5v0.1
		c1.1,0.4,1.7,1.3,2,2.8c0.4,1.9,0.8,3.2,1.1,3.8h-1.8c-0.2-0.4-0.5-1.6-0.9-3.3c-0.4-1.9-1.1-2.6-2.7-2.7h-1.7v5.9h-1.8V175z
		 M146.2,181.3h1.8c1.9,0,3.1-1,3.1-2.6c0-1.8-1.3-2.5-3.2-2.6c-0.8,0-1.5,0.1-1.7,0.2V181.3z"/>
	<polygon class="st0" points="164.7,182.1 159.4,182.1 159.4,187.1 165.3,187.1 165.3,188.5 157.6,188.5 157.6,174.8 165,174.8 
		165,176.3 159.4,176.3 159.4,180.7 164.7,180.7 	"/>
	<path class="st0" d="M169.6,186.4c0.8,0.5,1.9,0.9,3.2,0.9c1.8,0,2.9-1,2.9-2.3c0-1.3-0.7-2-2.6-2.7c-2.2-0.8-3.6-1.9-3.6-3.9
		c0-2.1,1.8-3.7,4.4-3.7c1.4,0,2.4,0.3,3,0.7l-0.5,1.4c-0.4-0.2-1.4-0.6-2.6-0.6c-1.9,0-2.6,1.1-2.6,2.1c0,1.3,0.8,1.9,2.7,2.6
		c2.3,0.9,3.5,2,3.5,4c0,2.1-1.6,3.9-4.8,3.9c-1.3,0-2.8-0.4-3.5-0.9L169.6,186.4z"/>
	<path class="st0" d="M193.9,181.5c0,4.7-2.9,7.2-6.4,7.2c-3.6,0-6.2-2.8-6.2-6.9c0-4.3,2.7-7.2,6.4-7.2
		C191.5,174.6,193.9,177.5,193.9,181.5 M183.3,181.8c0,2.9,1.6,5.5,4.4,5.5c2.8,0,4.4-2.6,4.4-5.7c0-2.7-1.4-5.6-4.4-5.6
		C184.7,176.1,183.3,178.8,183.3,181.8"/>
	<path class="st0" d="M198.5,175c0.9-0.2,2.2-0.3,3.4-0.3c1.9,0,3.1,0.3,4,1.1c0.7,0.6,1.1,1.5,1.1,2.6c0,1.8-1.1,3-2.6,3.5v0.1
		c1.1,0.4,1.7,1.3,2,2.8c0.5,1.9,0.8,3.2,1.1,3.8h-1.8c-0.2-0.4-0.5-1.6-0.9-3.3c-0.4-1.9-1.1-2.6-2.7-2.7h-1.7v5.9h-1.8V175z
		 M200.3,181.3h1.8c1.9,0,3.1-1,3.1-2.6c0-1.8-1.3-2.5-3.1-2.6c-0.9,0-1.5,0.1-1.7,0.2V181.3z"/>
	<polygon class="st0" points="214.5,176.4 210.3,176.4 210.3,174.8 220.5,174.8 220.5,176.4 216.3,176.4 216.3,188.5 214.5,188.5 	
		"/>
	<path class="st0" d="M239.5,188.5c-0.4-0.4-0.8-0.8-1.3-1.3c-1.2,1.1-2.5,1.6-4,1.6c-2.7,0-4.2-1.8-4.2-3.8c0-1.9,1.1-3.1,2.7-4
		v-0.1c-0.7-0.9-1.1-1.9-1.1-2.9c0-1.7,1.2-3.4,3.5-3.4c1.7,0,3,1.1,3,2.9c0,1.4-0.8,2.6-3,3.7v0.1c1.2,1.3,2.5,2.8,3.3,3.8
		c0.6-1,1.1-2.3,1.3-4h1.6c-0.4,2.2-1,3.9-2,5.1c0.7,0.8,1.4,1.5,2.3,2.4H239.5z M237.3,186.2c-0.8-0.9-2.3-2.6-3.9-4.3
		c-0.7,0.5-1.8,1.3-1.8,2.8c0,1.6,1.2,2.8,2.8,2.8C235.7,187.4,236.7,186.9,237.3,186.2 M233.1,177.8c0,1,0.4,1.7,1,2.5
		c1.4-0.8,2.3-1.5,2.3-2.7c0-0.8-0.5-1.8-1.6-1.8C233.7,175.8,233.1,176.8,233.1,177.8"/>
	<path class="st0" d="M251.8,186.4c0.8,0.5,1.9,0.9,3.2,0.9c1.8,0,2.9-1,2.9-2.3c0-1.3-0.7-2-2.6-2.7c-2.2-0.8-3.6-1.9-3.6-3.9
		c0-2.1,1.8-3.7,4.4-3.7c1.4,0,2.4,0.3,3,0.7l-0.5,1.4c-0.4-0.2-1.4-0.6-2.6-0.6c-1.9,0-2.6,1.1-2.6,2.1c0,1.3,0.8,1.9,2.7,2.6
		c2.3,0.9,3.5,2,3.5,4c0,2.1-1.6,3.9-4.8,3.9c-1.3,0-2.8-0.4-3.5-0.9L251.8,186.4z"/>
	<path class="st0" d="M264.4,175c0.9-0.1,2-0.3,3.4-0.3c1.7,0,3,0.4,3.8,1.1c0.8,0.6,1.2,1.6,1.2,2.9c0,1.2-0.4,2.2-1.1,2.9
		c-0.9,1-2.5,1.5-4.2,1.5c-0.5,0-1,0-1.4-0.1v5.5h-1.8V175z M266.1,181.6c0.4,0.1,0.9,0.1,1.5,0.1c2.1,0,3.4-1,3.4-2.9
		c0-1.8-1.3-2.7-3.2-2.7c-0.8,0-1.4,0.1-1.7,0.1V181.6z"/>
	<path class="st0" d="M278,184.2l-1.4,4.3h-1.8l4.6-13.7h2.1l4.7,13.7h-1.9l-1.5-4.3H278z M282.5,182.8l-1.3-3.9
		c-0.3-0.9-0.5-1.7-0.7-2.5h0c-0.2,0.8-0.4,1.6-0.7,2.5l-1.3,4H282.5z"/>
	<path class="st0" d="M157.7,79.7C145.6,78.5,142.9,90,142.9,90c-2.2,6,0.8,17.9,0.8,17.9s0.7,3.9,1.1,5.6
		c1.9,8.9-0.9,14.6-2.7,17.2c0.2,0.3,0.4,0.6,0.5,0.9c4.9-4.2,6.9-15.6,7.5-20.6c0.5-4.3,1.4-7.1,1.4-7.1c1.1-4.6,5.1-6.3,5.1-6.3
		c3.5-1.2,5.9,0.3,7.1,1.5c2,1.9,1.7,4.6,1.7,4.6C166.8,89.5,157.7,79.7,157.7,79.7"/>
	<path class="st0" d="M141.6,130.1c2-3.4,4.2-10.3,0.5-21.9c-3-9.2-3.1-14.2-2.2-18c2.6-11,11.3-14.6,12.7-15.2
		c-7.5-5.6-15-6.2-15.6-6.3c-10.7,10.4-6,23.8-3,30.9c1.2,2.9,5.1,11.2,5.1,11.2c4.4,8.6,3.3,14.8,1.6,18.4c0.1,0.1,0.2,0.2,0.3,0.3
		C141.2,129.6,141.4,129.8,141.6,130.1"/>
	<path class="st0" d="M134.1,104.7c-14.8-23-2.1-36.3-2.1-36.3c-9.1,0.1-15.5,4.5-15.5,4.5c-2.9,14.8,6.7,25.6,14.8,34.5
		c8,8.8,8.5,15.9,7.4,20.4c0.5,0.2,0.9,0.5,1.4,0.8C143.4,120,137.3,109.6,134.1,104.7"/>
	<path class="st0" d="M124.3,112.9c-22.3-9.4-22.9-19-22.9-19c-0.9,3.4-0.7,8-0.7,8c0.3,7.7,3.7,13.9,3.7,13.9
		c4.1,7.6,9.4,11,9.4,11c0.4-6.6,5.9-8.7,5.9-8.7c5-1.9,8.8,0.7,8.8,0.7c3.7,2.3,4.8,6,5,9.1c0.5-0.2,1-0.4,1.5-0.5
		C135,117.1,124.3,112.9,124.3,112.9"/>
	<path class="st0" d="M137.6,127.4c1.4-8.3-4.8-16.1-7.7-19.1c-2.2-2.3-19.3-14.7-17.3-32.7c-7.3,5.4-9.8,13.5-9.8,13.5
		c4.1,14.2,18.2,19,23.6,22.4c8.3,5.3,9.9,11.3,9.7,15.7c0,0,0.1,0,0.1,0C136.7,127.3,137.1,127.3,137.6,127.4"/>
	<path class="st0" d="M141.5,133.8c0,1.4-0.5,2.6-1.5,3.6c-1,1.1-2.2,1.6-3.6,1.6c-1.4,0-2.6-0.5-3.6-1.6c-1-1.1-1.5-2.3-1.5-3.6
		c0-1.4,0.5-2.6,1.5-3.6c1-1.1,2.2-1.6,3.6-1.6c1.4,0,2.6,0.5,3.6,1.6C141,131.3,141.5,132.5,141.5,133.8"/>
	<path class="st0" d="M131.5,141c-0.2-0.2-0.5-0.4-0.8-0.3c-0.7,0.1-1.8-0.1-3.3-0.6c-4-1.4-8.1-0.8-11.1,1.4c0-0.6,0.1-1.2,0.1-1.7
		c0.1-0.3-0.1-0.6-0.3-0.9c-0.2-0.2-0.6-0.3-0.9-0.2c-1.7,0.4-4.1,0.7-7.2,1.1c-0.5,0.1-0.9,0.5-0.8,1.1c0,0.5,0.5,0.9,1,0.9
		c0.2,0,0.6,0.1,1.1,1c0.5,1,0.8,2.1,0.8,3.5v17.9c0,4.4-1.6,4.4-2.1,4.4c-0.1,0-0.2,0-0.2,0c0,0-0.1-0.1-0.1-0.1
		c-0.3-0.1-0.6-0.1-0.9,0.1c-0.5,0.3-1.3,0.1-1.9-0.3c-0.9-0.7-1.4-1.6-1.7-2.8c-0.2-0.8-0.3-2-0.3-3.7v-13.8c0-2.9-1.2-5.2-3.5-6.8
		c-2.2-1.5-5-2.3-8.3-2.3c-1.4,0-2.7,0.1-4.1,0.4c-3.5,0.7-6.4,1.9-8.7,3.9c-0.4,0.4-0.5,1-0.1,1.6c0.6,0.9,1.3,1.4,2.1,1.7
		c1.7,0.4,3.3,0.1,5.6-1.5c1.8-1.3,2.9-1.7,3.4-1.8c2.3-0.4,4.5-0.2,5.8,0.8c1,0.7,1.5,1.8,1.5,3.1c0,1.6-0.7,2.5-2.3,3
		c-1.2,0.4-2.9,0.8-5.2,1.2c-2.4,0.5-4.1,0.8-5.3,1.2c-2.3,0.7-4.1,1.9-5.3,3.5c-1.3,1.6-1.9,3.4-1.9,5.4c0,2.5,1,4.8,2.9,6.6
		c2.1,2,4.8,3.1,8.2,3.2l0.5,0c2.2,0,4.3-0.4,6.1-1.3c1.2-0.5,2.1-1.1,2.9-1.8c0.4,0.8,1,1.5,1.8,2c1.3,0.9,2.9,1.4,4.7,1.4
		c1,0,2-0.2,2.9-0.5c0.4-0.1,0.7-0.2,0.9-0.3c0.2,0.1,0.4,0.1,0.6,0.1c3-0.2,6.7-0.2,10.7,0c0.1,0,0.2,0,0.3,0c0.5,0,1-0.3,1.2-0.8
		c0.1-0.3,0.1-0.7-0.1-0.9c-0.2-0.3-0.5-0.4-0.9-0.4c-0.1,0-0.3,0-0.4,0c-0.7,0-2.4,0-2.4-4.4v-14.9c0-3.1,1.2-4.9,3.6-5.7
		c0.5-0.1,0.6-0.4,2.7,0.8c3,1.7,4.9,1.4,6.9,0.2c1.1-0.7,1.9-1.6,2.2-2.7C131.8,141.6,131.7,141.2,131.5,141 M85.1,165.1
		c-1.1-1-1.7-2-1.8-3.4c-0.2-1.3,0.1-2.4,0.9-3.5c0.9-1.3,2.3-2.1,4.3-2.5c4.4-1,6.7-1.6,7.9-1.9v6.4c0,1.1-0.5,2.3-1.4,3.5
		c-1.1,1.4-2.3,2.2-3.8,2.6C88.9,166.9,86.7,166.5,85.1,165.1"/>
	<path class="st0" d="M176.9,168.6l-0.3,0c-0.7,0-2.5,0-2.5-4.5v-13.8c0-3-1.1-5.5-3.3-7.6c-2.3-2.2-5.4-3.4-9-3.4
		c-3.4,0-6.2,1-8.5,2.9v-0.7c0-0.6,0-1.2,0.1-1.8c0-0.3-0.1-0.6-0.3-0.9c-0.2-0.2-0.6-0.3-0.9-0.2c-1.7,0.4-4.1,0.7-7.2,1.1
		c-0.5,0.1-0.9,0.5-0.8,1.1c0.1,0.5,0.5,0.9,1,0.9c0.2,0,0.6,0.1,1.1,1c0.5,0.9,0.8,2.1,0.8,3.5v17.9c0,4.4-1.6,4.4-2.1,4.4
		c-0.1,0-0.3,0-0.4,0c-0.3,0-0.6,0-0.8,0.2c0,0,0,0.1-0.1,0.1c-0.2-0.2-0.5-0.4-0.8-0.3c-1,0.1-1.7-0.3-2.2-1.3
		c-0.4-0.8-0.6-1.9-0.5-3.1v-21.3c0-0.8,0-1.4,0.1-2c0-0.3-0.1-0.6-0.4-0.8s-0.6-0.2-0.9-0.1c-1.7,0.7-3.7,0.7-5.4,0
		c-0.4-0.2-0.9,0-1.2,0.4c-0.3,0.4-0.2,0.9,0.2,1.2c0.2,0.2,0.4,0.5,0.7,0.9c0.5,1,0.8,2.2,0.8,3.5v18.1c0,4.4-1.6,4.4-2.1,4.4
		c-0.1,0-0.3,0-0.4,0c-0.3,0-0.6,0-0.8,0.2c-0.2,0.2-0.3,0.4-0.3,0.7c0,0.6,0.4,1.2,1.2,1.2c0,0,0.2,0,0.2,0c3.1-0.2,6.7-0.2,10.8,0
		c0.5,0,0.9-0.2,1.1-0.5c0.1,0.1,0.1,0.2,0.2,0.3c0.2,0.1,0.6,0.2,0.8,0.2c0,0,0.2,0,0.2,0c3.1-0.2,6.7-0.2,10.8,0
		c0.8,0,1.2-0.5,1.3-0.9c0.1-0.3,0-0.6-0.2-0.9c-0.2-0.2-0.5-0.4-0.8-0.3c-0.1,0-0.3,0-0.4,0c-0.6,0-2.4,0-2.4-4.4l0-14.2
		c0.2-1.7,1-3.2,2.5-4.4c1.5-1.2,3.1-1.8,5.1-1.8l0.3,0c1.9,0.1,3.5,0.8,4.7,2.2c1.2,1.4,1.8,3.1,1.8,5.2v12.8
		c0,2.3-0.3,4.1-0.8,5.2c-0.1,0.3-0.1,0.6,0.1,0.9c0.2,0.3,0.5,0.4,0.8,0.4h8.8c0.6,0,1-0.3,1.2-0.8c0.1-0.3,0.1-0.6-0.1-0.9
		C177.5,168.7,177.2,168.6,176.9,168.6"/>
	<path class="st0" d="M207.6,168.5c-0.3-0.1-0.6-0.1-0.9,0c-0.5,0.3-1.3,0.2-1.9-0.3c-0.9-0.7-1.4-1.6-1.7-2.8
		c-0.2-0.8-0.3-2-0.3-3.7v-13.8c0-2.9-1.2-5.2-3.5-6.8c-2.2-1.5-5-2.3-8.3-2.3c-1.4,0-2.8,0.1-4.1,0.4c-3.4,0.7-6.3,1.9-8.7,3.9
		c-0.4,0.4-0.5,1-0.2,1.6c0.6,0.9,1.3,1.4,2.1,1.7c1.7,0.4,3.3,0.1,5.6-1.5c1.8-1.3,2.9-1.7,3.4-1.8c2.3-0.4,4.5-0.2,5.8,0.8
		c1,0.7,1.5,1.8,1.5,3.1c0,1.6-0.7,2.5-2.3,3c-1.2,0.4-2.9,0.8-5.2,1.2c-2.4,0.5-4.1,0.8-5.3,1.2c-2.3,0.7-4.1,1.9-5.3,3.5
		c-1.3,1.6-1.9,3.4-1.9,5.4c0,2.5,1,4.8,2.9,6.6c2.1,2,4.8,3.1,8.2,3.2l0.5,0c2.2,0,4.3-0.4,6.1-1.3c1.2-0.5,2.1-1.1,2.9-1.8
		c0.4,0.8,1,1.5,1.8,2c1.3,0.9,2.9,1.4,4.7,1.4c1,0,2-0.2,2.9-0.5c1.3-0.3,1.9-0.9,1.8-1.7C208.1,168.9,207.9,168.6,207.6,168.5
		 M185.1,165.1c-1.1-1-1.7-2-1.8-3.4c-0.2-1.3,0.1-2.4,0.9-3.5c0.9-1.3,2.3-2.1,4.3-2.5c4.4-1,6.7-1.6,7.9-1.9v6.4
		c0,1.1-0.5,2.3-1.3,3.5c-1.1,1.4-2.3,2.2-3.8,2.6C188.9,166.9,186.7,166.5,185.1,165.1"/>
	<path class="st0" d="M289,169.2c0-0.3-0.2-0.6-0.5-0.7c-0.3-0.1-0.6-0.1-0.9,0.1c-0.5,0.3-1.3,0.2-1.9-0.3
		c-0.9-0.7-1.4-1.6-1.7-2.8c-0.2-0.8-0.3-2-0.3-3.7v-13.8c0-2.9-1.2-5.2-3.5-6.8c-2.2-1.5-5-2.3-8.3-2.3c-1.4,0-2.7,0.1-4.1,0.4
		c-3.5,0.7-6.4,1.9-8.7,3.9c-0.4,0.4-0.5,1-0.2,1.6c0.6,0.9,1.3,1.4,2.1,1.7c1.7,0.4,3.3,0.1,5.6-1.5c1.8-1.3,2.9-1.7,3.4-1.8
		c2.3-0.4,4.5-0.2,5.8,0.8c1,0.7,1.5,1.8,1.5,3.1c0,1.6-0.7,2.5-2.3,3c-1.2,0.4-2.9,0.8-5.2,1.2c-2.4,0.5-4.1,0.8-5.3,1.2
		c-2.3,0.7-4.1,1.9-5.3,3.5c-0.6,0.8-1.1,1.6-1.4,2.5c0-2.8-1.1-5.2-3.4-7.3c-1.6-1.4-3.4-2.5-5.4-3.1c1.2-0.7,2.2-1.6,3.2-2.8
		c1.7-2.1,2.6-4.3,2.5-6.7c-0.1-3.2-1.6-5.7-4.6-7.3c-2.1-1.2-4.7-1.7-7.7-1.7l-0.7,0c-2.8,0.1-7.8,0.1-14.8,0
		c-0.2,0-0.5,0.1-0.7,0.3c-0.2,0.2-0.3,0.5-0.3,0.7c0,0.5,0.3,0.8,0.8,0.9c2.1,0.4,3.1,1.8,3.2,4.3c0.3,11.1,0.3,20.6,0,28.2
		c-0.1,3.7-2,4.5-3.4,4.8c-0.5,0.1-0.8,0.5-0.8,0.9c0,0.3,0.2,0.5,0.4,0.7c0.2,0.2,0.5,0.3,0.8,0.3c1.8-0.1,4.7,0,8.8,0.1
		c1.5,0,2.9,0,4.2,0c1.9,0,3.5,0,4.8-0.1c3.2-0.2,6.2-1.3,8.8-3.5c2-1.6,3.3-3.6,3.9-5.7c0.1,2.5,1,4.6,2.9,6.4
		c2.1,2,4.8,3.1,8.2,3.2l0.5,0c2.2,0,4.3-0.4,6.1-1.3c1.2-0.5,2.1-1.1,2.9-1.8c0.4,0.8,1,1.5,1.8,2c1.3,0.9,2.9,1.4,4.7,1.4
		c1,0,2-0.2,2.9-0.5C288.5,170.6,289.1,170,289,169.2 M266,165.1c-1.1-1-1.7-2-1.9-3.4c-0.2-1.3,0.1-2.4,0.9-3.5
		c0.9-1.3,2.3-2.1,4.3-2.5c4.4-1,6.7-1.6,7.9-1.9v6.4c0,1.1-0.5,2.3-1.3,3.5c-1.1,1.4-2.3,2.2-3.8,2.6
		C269.8,166.9,267.6,166.5,266,165.1 M241.9,150.7c2.9,0.2,5.1,1.2,6.5,2.8c1.2,1.4,1.8,3.1,1.8,5.1c0.1,2.7-0.8,4.7-2.6,6.2
		c-2.4,2-6.1,2.6-9.9,1.5c-0.9-0.3-1.3-0.8-1.3-1.7l-0.1-13.6C238.3,150.7,240.1,150.6,241.9,150.7 M245.2,144.9
		c-2.2,1.7-5.5,2.3-8.8,1.4l0.1-12.5c0-0.3,0-0.4,0.5-0.5c0.2-0.1,0.6-0.1,1.8-0.2c5.6-0.2,8.4,1.9,8.7,6.7
		C247.7,142,247,143.7,245.2,144.9"/>
	<path class="st0" d="M322.7,139.6c-0.2-0.2-0.6-0.3-0.8-0.3h0c-2.4,0-4.7,0-7.4,0c-0.4,0-0.8,0.3-0.9,0.7c-0.1,0.4,0,0.8,0.4,1.1
		c0,0,0.1,0.2,0.1,0.9c0,1.4-0.4,3-1.2,4.9l-6.3,14.5l-7.6-14.7c-0.9-1.7-1.3-3.1-1.3-4.4c0-0.6,0.1-1.1,0.4-1.3
		c0.3-0.3,0.4-0.7,0.3-1.1c-0.1-0.4-0.6-0.7-1-0.7h0c-3.1,0.1-6.3,0.1-9.6,0c-0.5,0-1.1,0.5-1.1,1.1c0,0.5,0.3,0.9,0.8,0.9
		c0,0,0.5,0.2,1.6,1.7c1,1.3,2,2.9,3,4.7l10.7,20.4c0.2,0.4,0,0.9-0.2,1.3c-2.3,4.9-4.8,7.4-7.4,7.4c-0.7,0-1.6-0.3-2.6-0.8
		c-1.3-0.7-2.4-1.1-3.3-1.1c-1.3,0-2.5,0.4-3.4,1.3c-0.9,0.9-1.4,1.8-1.4,2.8c0,0.4,0.1,0.8,0.3,1.1c0.2,0.3,0.5,0.4,0.8,0.5
		c0.9,0,1.8,0.3,2.9,0.7c1.4,0.5,2.2,0.8,2.4,0.8c0.7,0.2,1.5,0.3,2.2,0.3c3.1,0,6.1-1.4,8.9-4c2.2-2.1,4-4.5,5.1-7.2l10.6-22.9
		c3.1-6.6,4.3-6.8,4.4-6.8c0.4,0,0.7-0.3,0.8-0.6C323.1,140.3,323,139.9,322.7,139.6"/>
	<path class="st0" d="M78.5,168.7c-2.2-0.4-3.3-1.9-3.5-4.6c-0.8-9.5-1.5-20.7-1.8-33.5c0-0.4-0.3-0.8-0.7-0.9
		c-0.4-0.1-0.9,0.1-1.1,0.5c-6,11.3-11.8,21.4-17.1,30.2c-2.7-4.4-5.5-9.3-8.5-14.5c-1.7-2.9-4.6-8.2-8.9-15.9
		c-0.2-0.4-0.7-0.6-1.1-0.5c-0.4,0.1-0.7,0.5-0.7,0.9c-0.3,11.7-0.9,23.1-1.8,33.8c-0.1,1.2-0.4,2.1-1,3c-0.6,0.9-1.4,1.4-2.5,1.6
		c-0.5,0.1-0.8,0.5-0.8,0.9c0,0.3,0.1,0.5,0.3,0.7c0.2,0.2,0.5,0.4,0.9,0.3c2.5-0.2,6.5-0.2,10.7-0.1c0.4,0.1,1.1-0.1,1.3-0.5
		c0.2-0.3,0.2-0.6,0-0.9c-0.1-0.3-0.4-0.5-0.7-0.5c-1.2-0.2-2.8-0.8-2.9-4.3c-0.1-2.6,0-6,0.2-10.1c0.1-3,0.2-5.3,0.3-6.9
		c6.1,10.7,10.5,18.4,13.4,23.7c0.2,0.3,0.5,0.5,0.8,0.5h0c0.4,0,0.7-0.2,0.8-0.5c4.2-7.8,8.6-15.8,13.1-23.8
		c0.3,6.6,0.5,12.1,0.5,16.5c0,1.4-0.3,2.5-0.8,3.4c-0.6,0.9-1.3,1.4-2.3,1.6c-0.3,0-0.5,0.2-0.7,0.5c-0.2,0.2-0.2,0.5-0.1,0.8
		c0.2,0.5,0.7,0.8,1.2,0.7c0.3,0,1.4-0.1,6.2-0.1c4.7,0,6.4,0.1,7,0.1c0.5,0,1.1-0.5,1.1-1.1C79.2,169.2,78.9,168.8,78.5,168.7"/>
</g>
</svg>
