<?xml version="1.0" encoding="utf-8"?>
<!-- Generator: Adobe Illustrator 21.1.0, SVG Export Plug-In . SVG Version: 6.00 Build 0)  -->
<svg version="1.1" id="Layer_1" xmlns="http://www.w3.org/2000/svg" xmlns:xlink="http://www.w3.org/1999/xlink" x="0px" y="0px"
	 viewBox="0 0 350 255.1" style="enable-background:new 0 0 350 255.1;" xml:space="preserve">
<style type="text/css">
	.st0{fill:#1F191A;}
</style>
<g>
	<path class="st0" d="M80.7,168.9l-3-9.2h1.3l1.4,4.5c0.4,1.3,0.7,2.4,1,3.4l0,0c0.3-1.1,0.6-2.2,1.1-3.4l1.5-4.6h1.3l-3.3,9.2
		L80.7,168.9L80.7,168.9z"/>
	<path class="st0" d="M89.1,159.7v5.4c0,2.1,0.9,3,2.2,3c1.3,0,2.2-0.9,2.2-3v-5.4h1.2v5.4c0,2.8-1.5,4-3.5,4
		c-1.9,0-3.3-1.1-3.3-3.9v-5.4L89.1,159.7L89.1,159.7z"/>
	<path class="st0" d="M98.3,168.9v-9.2h1.3l3,4.6c0.7,1.1,1.2,2,1.7,3l0,0c-0.1-1.2-0.1-2.4-0.1-3.8v-3.8h1.1v9.2H104l-2.9-4.6
		c-0.7-1-1.3-2.1-1.7-3.1h-0.1c0.1,1.1,0.1,2.3,0.1,3.8v3.9L98.3,168.9L98.3,168.9z"/>
	<path class="st0" d="M115.9,168.5c-0.5,0.2-1.5,0.5-2.8,0.5c-1.4,0-2.6-0.3-3.4-1.2c-0.8-0.7-1.3-2-1.3-3.4c0-2.8,1.9-4.8,5-4.8
		c1.1,0,1.9,0.2,2.3,0.4l-0.3,0.9c-0.5-0.2-1.1-0.4-2-0.4c-2.2,0-3.7,1.4-3.7,3.7c0,2.4,1.4,3.7,3.6,3.7c0.8,0,1.3-0.1,1.6-0.3v-2.8
		h-1.9V164h3L115.9,168.5L115.9,168.5z"/>
	<polygon class="st0" points="124.8,160.8 122,160.8 122,159.7 128.8,159.7 128.8,160.8 126,160.8 126,168.9 124.8,168.9 	"/>
	<path class="st0" d="M131.9,166l-0.9,2.9h-1.2l3.1-9.2h1.4l3.2,9.2h-1.3l-1-2.9H131.9z M134.9,165.1l-0.9-2.6
		c-0.2-0.6-0.3-1.1-0.5-1.7l0,0c-0.1,0.5-0.3,1.1-0.5,1.7l-0.9,2.7L134.9,165.1L134.9,165.1z"/>
	<path class="st0" d="M141.1,159.7v5.4c0,2.1,0.9,3,2.2,3c1.3,0,2.2-0.9,2.2-3v-5.4h1.2v5.4c0,2.8-1.5,4-3.5,4
		c-1.9,0-3.3-1.1-3.3-3.9v-5.4L141.1,159.7L141.1,159.7z"/>
	<path class="st0" d="M154.7,159.8c0.6-0.1,1.5-0.2,2.3-0.2c1.3,0,2.1,0.2,2.7,0.7c0.5,0.4,0.7,1,0.7,1.7c0,1.2-0.7,2-1.7,2.4v0.1
		c0.7,0.3,1.1,0.9,1.3,1.9c0.3,1.3,0.5,2.2,0.7,2.6h-1.2c-0.1-0.3-0.3-1.1-0.6-2.2c-0.3-1.3-0.7-1.7-1.8-1.8H156v4h-1.2L154.7,159.8
		L154.7,159.8z M156,164.1h1.2c1.3,0,2.1-0.7,2.1-1.7c0-1.2-0.9-1.7-2.2-1.7c-0.5,0-1,0.1-1.1,0.1V164.1L156,164.1z"/>
	<polygon class="st0" points="168.4,164.6 164.8,164.6 164.8,168 168.8,168 168.8,168.9 163.6,168.9 163.6,159.7 168.6,159.7 
		168.6,160.7 164.8,160.7 164.8,163.6 168.4,163.6 	"/>
	<path class="st0" d="M171.7,167.5c0.5,0.3,1.3,0.6,2.2,0.6c1.2,0,2-0.7,2-1.5c0-0.9-0.5-1.3-1.7-1.8c-1.5-0.5-2.4-1.3-2.4-2.6
		c0-1.4,1.2-2.5,3-2.5c0.9,0,1.6,0.2,2,0.5l-0.3,0.9c-0.3-0.1-0.9-0.4-1.7-0.4c-1.3,0-1.7,0.7-1.7,1.4c0,0.9,0.5,1.3,1.8,1.7
		c1.5,0.6,2.4,1.3,2.4,2.7c0,1.4-1.1,2.6-3.2,2.6c-0.9,0-1.9-0.3-2.4-0.6L171.7,167.5z"/>
	<path class="st0" d="M188,164.2c0,3.2-2,4.8-4.3,4.8c-2.4,0-4.2-1.9-4.2-4.6c0-2.9,1.8-4.8,4.3-4.8
		C186.4,159.5,188,161.5,188,164.2 M180.9,164.4c0,2,1.1,3.7,3,3.7c1.9,0,3-1.7,3-3.8c0-1.8-0.9-3.8-3-3.8
		C181.9,160.6,180.9,162.4,180.9,164.4"/>
	<path class="st0" d="M191.1,159.8c0.6-0.1,1.5-0.2,2.3-0.2c1.3,0,2.1,0.2,2.7,0.7c0.5,0.4,0.7,1,0.7,1.7c0,1.2-0.7,2-1.7,2.4v0.1
		c0.7,0.3,1.1,0.9,1.3,1.9c0.3,1.3,0.5,2.2,0.7,2.6H196c-0.1-0.3-0.3-1.1-0.6-2.2c-0.3-1.3-0.7-1.7-1.8-1.8h-1.1v4h-1.2L191.1,159.8
		L191.1,159.8z M192.3,164.1h1.2c1.3,0,2.1-0.7,2.1-1.7c0-1.2-0.9-1.7-2.1-1.7c-0.6,0-1,0.1-1.1,0.1L192.3,164.1L192.3,164.1z"/>
	<polygon class="st0" points="201.9,160.8 199.1,160.8 199.1,159.7 205.9,159.7 205.9,160.8 203.1,160.8 203.1,168.9 201.9,168.9 	
		"/>
	<path class="st0" d="M218.7,168.9c-0.3-0.3-0.5-0.5-0.9-0.9c-0.8,0.7-1.7,1.1-2.7,1.1c-1.8,0-2.8-1.2-2.8-2.6
		c0-1.3,0.7-2.1,1.8-2.7v-0.1c-0.5-0.6-0.7-1.3-0.7-2c0-1.1,0.8-2.3,2.4-2.3c1.1,0,2,0.7,2,2c0,0.9-0.5,1.7-2,2.5v0.1
		c0.8,0.9,1.7,1.9,2.2,2.6c0.4-0.7,0.7-1.5,0.9-2.7h1.1c-0.3,1.5-0.7,2.6-1.3,3.4c0.5,0.5,0.9,1,1.5,1.6L218.7,168.9L218.7,168.9z
		 M217.2,167.3c-0.5-0.6-1.5-1.7-2.6-2.9c-0.5,0.3-1.2,0.9-1.2,1.9c0,1.1,0.8,1.9,1.9,1.9C216.2,168.2,216.8,167.8,217.2,167.3
		 M214.4,161.7c0,0.7,0.3,1.1,0.7,1.7c0.9-0.5,1.5-1,1.5-1.8c0-0.5-0.3-1.2-1.1-1.2C214.8,160.4,214.4,161,214.4,161.7"/>
	<path class="st0" d="M227,167.5c0.5,0.3,1.3,0.6,2.2,0.6c1.2,0,2-0.7,2-1.5c0-0.9-0.5-1.3-1.7-1.8c-1.5-0.5-2.4-1.3-2.4-2.6
		c0-1.4,1.2-2.5,3-2.5c0.9,0,1.6,0.2,2,0.5l-0.3,0.9c-0.3-0.1-0.9-0.4-1.7-0.4c-1.3,0-1.7,0.7-1.7,1.4c0,0.9,0.5,1.3,1.8,1.7
		c1.5,0.6,2.4,1.3,2.4,2.7c0,1.4-1.1,2.6-3.2,2.6c-0.9,0-1.9-0.3-2.4-0.6L227,167.5z"/>
	<path class="st0" d="M235.5,159.8c0.6-0.1,1.3-0.2,2.3-0.2c1.1,0,2,0.3,2.6,0.7c0.5,0.4,0.8,1.1,0.8,2c0,0.8-0.3,1.5-0.7,2
		c-0.6,0.7-1.7,1-2.8,1c-0.3,0-0.7,0-0.9-0.1v3.7h-1.2L235.5,159.8L235.5,159.8z M236.6,164.3c0.3,0.1,0.6,0.1,1,0.1
		c1.4,0,2.3-0.7,2.3-2c0-1.2-0.9-1.8-2.2-1.8c-0.5,0-0.9,0.1-1.1,0.1L236.6,164.3L236.6,164.3z"/>
	<path class="st0" d="M244.6,166l-0.9,2.9h-1.2l3.1-9.2h1.4l3.2,9.2h-1.3l-1-2.9H244.6z M247.6,165.1l-0.9-2.6
		c-0.2-0.6-0.3-1.1-0.5-1.7l0,0c-0.1,0.5-0.3,1.1-0.5,1.7l-0.9,2.7L247.6,165.1L247.6,165.1z"/>
	<path class="st0" d="M163.7,95.7c-8.1-0.8-10,6.9-10,6.9c-1.5,4,0.5,12,0.5,12s0.5,2.6,0.7,3.8c1.3,6-0.6,9.8-1.8,11.6
		c0.1,0.2,0.3,0.4,0.3,0.6c3.3-2.8,4.6-10.5,5-13.9c0.3-2.9,0.9-4.8,0.9-4.8c0.7-3.1,3.4-4.2,3.4-4.2c2.4-0.8,4,0.2,4.8,1
		c1.3,1.3,1.1,3.1,1.1,3.1C169.8,102.3,163.7,95.7,163.7,95.7"/>
	<path class="st0" d="M152.9,129.6c1.3-2.3,2.8-6.9,0.3-14.7c-2-6.2-2.1-9.6-1.5-12.1c1.7-7.4,7.6-9.8,8.5-10.2
		c-5-3.8-10.1-4.2-10.5-4.2c-7.2,7-4,16-2,20.8c0.8,2,3.4,7.5,3.4,7.5c3,5.8,2.2,10,1.1,12.4c0.1,0.1,0.1,0.1,0.2,0.2
		C152.6,129.3,152.7,129.4,152.9,129.6"/>
	<path class="st0" d="M147.8,112.5c-10-15.5-1.4-24.4-1.4-24.4c-6.1,0.1-10.4,3-10.4,3c-2,10,4.5,17.2,10,23.2
		c5.4,5.9,5.7,10.7,5,13.7c0.3,0.1,0.6,0.3,0.9,0.5C154.1,122.8,150,115.8,147.8,112.5"/>
	<path class="st0" d="M141.2,118c-15-6.3-15.4-12.8-15.4-12.8c-0.6,2.3-0.5,5.4-0.5,5.4c0.2,5.2,2.5,9.4,2.5,9.4
		c2.8,5.1,6.3,7.4,6.3,7.4c0.3-4.4,4-5.9,4-5.9c3.4-1.3,5.9,0.5,5.9,0.5c2.5,1.5,3.2,4,3.4,6.1c0.3-0.1,0.7-0.3,1-0.3
		C148.4,120.9,141.2,118,141.2,118"/>
	<path class="st0" d="M150.2,127.8c0.9-5.6-3.2-10.8-5.2-12.8c-1.5-1.5-13-9.9-11.6-22c-4.9,3.6-6.6,9.1-6.6,9.1
		c2.8,9.6,12.2,12.8,15.9,15.1c5.6,3.6,6.7,7.6,6.5,10.6h0.1C149.6,127.7,149.8,127.7,150.2,127.8"/>
	<path class="st0" d="M152.8,132.1c0,0.9-0.3,1.7-1,2.4c-0.7,0.7-1.5,1.1-2.4,1.1c-0.9,0-1.7-0.3-2.4-1.1c-0.7-0.7-1-1.5-1-2.4
		c0-0.9,0.3-1.7,1-2.4c0.7-0.7,1.5-1.1,2.4-1.1c0.9,0,1.7,0.3,2.4,1.1C152.5,130.4,152.8,131.2,152.8,132.1"/>
	<path class="st0" d="M146.1,136.9c-0.1-0.1-0.3-0.3-0.5-0.2c-0.5,0.1-1.2-0.1-2.2-0.4c-2.7-0.9-5.4-0.5-7.5,0.9
		c0-0.4,0.1-0.8,0.1-1.1c0.1-0.2-0.1-0.4-0.2-0.6c-0.1-0.1-0.4-0.2-0.6-0.1c-1.1,0.3-2.8,0.5-4.8,0.7c-0.3,0.1-0.6,0.3-0.5,0.7
		c0,0.3,0.3,0.6,0.7,0.6c0.1,0,0.4,0.1,0.7,0.7c0.3,0.7,0.5,1.4,0.5,2.4v12c0,3-1.1,3-1.4,3c-0.1,0-0.1,0-0.1,0l-0.1-0.1
		c-0.2-0.1-0.4-0.1-0.6,0.1c-0.3,0.2-0.9,0.1-1.3-0.2c-0.6-0.5-0.9-1.1-1.1-1.9c-0.1-0.5-0.2-1.3-0.2-2.5v-9.3c0-2-0.8-3.5-2.4-4.6
		c-1.5-1-3.4-1.5-5.6-1.5c-0.9,0-1.8,0.1-2.8,0.3c-2.4,0.5-4.3,1.3-5.9,2.6c-0.3,0.3-0.3,0.7-0.1,1.1c0.4,0.6,0.9,0.9,1.4,1.1
		c1.1,0.3,2.2,0.1,3.8-1c1.2-0.9,2-1.1,2.3-1.2c1.5-0.3,3-0.1,3.9,0.5c0.7,0.5,1,1.2,1,2.1c0,1.1-0.5,1.7-1.5,2
		c-0.8,0.3-2,0.5-3.5,0.8c-1.6,0.3-2.8,0.5-3.6,0.8c-1.5,0.5-2.8,1.3-3.6,2.4c-0.9,1.1-1.3,2.3-1.3,3.6c0,1.7,0.7,3.2,2,4.4
		c1.4,1.3,3.2,2.1,5.5,2.2h0.3c1.5,0,2.9-0.3,4.1-0.9c0.8-0.3,1.4-0.7,2-1.2c0.3,0.5,0.7,1,1.2,1.3c0.9,0.6,2,0.9,3.2,0.9
		c0.7,0,1.3-0.1,2-0.3c0.3-0.1,0.5-0.1,0.6-0.2c0.1,0.1,0.3,0.1,0.4,0.1c2-0.1,4.5-0.1,7.2,0c0.1,0,0.1,0,0.2,0
		c0.3,0,0.7-0.2,0.8-0.5c0.1-0.2,0.1-0.5-0.1-0.6c-0.1-0.2-0.3-0.3-0.6-0.3c-0.1,0-0.2,0-0.3,0c-0.5,0-1.6,0-1.6-3v-10
		c0-2.1,0.8-3.3,2.4-3.8c0.3-0.1,0.4-0.3,1.8,0.5c2,1.1,3.3,0.9,4.6,0.1c0.7-0.5,1.3-1.1,1.5-1.8
		C146.3,137.3,146.2,137.1,146.1,136.9 M114.9,153.2c-0.7-0.7-1.1-1.3-1.2-2.3c-0.1-0.9,0.1-1.6,0.6-2.4c0.6-0.9,1.5-1.4,2.9-1.7
		c3-0.7,4.5-1.1,5.3-1.3v4.3c0,0.7-0.3,1.5-0.9,2.4c-0.7,0.9-1.5,1.5-2.6,1.7C117.4,154.4,115.9,154.1,114.9,153.2"/>
	<path class="st0" d="M176.6,155.5h-0.2c-0.5,0-1.7,0-1.7-3v-9.3c0-2-0.7-3.7-2.2-5.1c-1.5-1.5-3.6-2.3-6.1-2.3
		c-2.3,0-4.2,0.7-5.7,2v-0.5c0-0.4,0-0.8,0.1-1.2c0-0.2-0.1-0.4-0.2-0.6c-0.1-0.1-0.4-0.2-0.6-0.1c-1.1,0.3-2.8,0.5-4.8,0.7
		c-0.3,0.1-0.6,0.3-0.5,0.7c0.1,0.3,0.3,0.6,0.7,0.6c0.1,0,0.4,0.1,0.7,0.7c0.3,0.6,0.5,1.4,0.5,2.4v12c0,3-1.1,3-1.4,3
		c-0.1,0-0.2,0-0.3,0c-0.2,0-0.4,0-0.5,0.1c0,0,0,0.1-0.1,0.1c-0.1-0.1-0.3-0.3-0.5-0.2c-0.7,0.1-1.1-0.2-1.5-0.9
		c-0.3-0.5-0.4-1.3-0.3-2.1v-14.3c0-0.5,0-0.9,0.1-1.3c0-0.2-0.1-0.4-0.3-0.5c-0.2-0.1-0.4-0.1-0.6-0.1c-1.1,0.5-2.5,0.5-3.6,0
		c-0.3-0.1-0.6,0-0.8,0.3c-0.2,0.3-0.1,0.6,0.1,0.8c0.1,0.1,0.3,0.3,0.5,0.6c0.3,0.7,0.5,1.5,0.5,2.4v12.2c0,3-1.1,3-1.4,3
		c-0.1,0-0.2,0-0.3,0c-0.2,0-0.4,0-0.5,0.1s-0.2,0.3-0.2,0.5c0,0.4,0.3,0.8,0.8,0.8h0.1c2.1-0.1,4.5-0.1,7.3,0
		c0.3,0,0.6-0.1,0.7-0.3c0.1,0.1,0.1,0.1,0.1,0.2c0.1,0.1,0.4,0.1,0.5,0.1h0.1c2.1-0.1,4.5-0.1,7.3,0c0.5,0,0.8-0.3,0.9-0.6
		c0.1-0.2,0-0.4-0.1-0.6c-0.1-0.1-0.3-0.3-0.5-0.2c-0.1,0-0.2,0-0.3,0c-0.4,0-1.6,0-1.6-3v-9.6c0.1-1.1,0.7-2.2,1.7-3
		s2.1-1.2,3.4-1.2h0.2c1.3,0.1,2.4,0.5,3.2,1.5s1.2,2.1,1.2,3.5v8.6c0,1.5-0.2,2.8-0.5,3.5c-0.1,0.2-0.1,0.4,0.1,0.6
		c0.1,0.2,0.3,0.3,0.5,0.3h5.9c0.4,0,0.7-0.2,0.8-0.5c0.1-0.2,0.1-0.4-0.1-0.6C177,155.6,176.8,155.5,176.6,155.5"/>
	<path class="st0" d="M197.3,155.4c-0.2-0.1-0.4-0.1-0.6,0c-0.3,0.2-0.9,0.1-1.3-0.2c-0.6-0.5-0.9-1.1-1.1-1.9
		c-0.1-0.5-0.2-1.3-0.2-2.5v-9.3c0-2-0.8-3.5-2.4-4.6c-1.5-1-3.4-1.5-5.6-1.5c-0.9,0-1.9,0.1-2.8,0.3c-2.3,0.5-4.2,1.3-5.9,2.6
		c-0.3,0.3-0.3,0.7-0.1,1.1c0.4,0.6,0.9,0.9,1.4,1.1c1.1,0.3,2.2,0.1,3.8-1c1.2-0.9,2-1.1,2.3-1.2c1.5-0.3,3-0.1,3.9,0.5
		c0.7,0.5,1,1.2,1,2.1c0,1.1-0.5,1.7-1.5,2c-0.8,0.3-2,0.5-3.5,0.8c-1.6,0.3-2.8,0.5-3.6,0.8c-1.5,0.5-2.8,1.3-3.6,2.4
		c-0.9,1.1-1.3,2.3-1.3,3.6c0,1.7,0.7,3.2,2,4.4c1.4,1.3,3.2,2.1,5.5,2.2h0.3c1.5,0,2.9-0.3,4.1-0.9c0.8-0.3,1.4-0.7,2-1.2
		c0.3,0.5,0.7,1,1.2,1.3c0.9,0.6,2,0.9,3.2,0.9c0.7,0,1.3-0.1,2-0.3c0.9-0.2,1.3-0.6,1.2-1.1C197.6,155.7,197.5,155.5,197.3,155.4
		 M182.1,153.2c-0.7-0.7-1.1-1.3-1.2-2.3c-0.1-0.9,0.1-1.6,0.6-2.4c0.6-0.9,1.5-1.4,2.9-1.7c3-0.7,4.5-1.1,5.3-1.3v4.3
		c0,0.7-0.3,1.5-0.9,2.4c-0.7,0.9-1.5,1.5-2.6,1.7C184.7,154.4,183.2,154.1,182.1,153.2"/>
	<path class="st0" d="M252,155.9c0-0.2-0.1-0.4-0.3-0.5c-0.2-0.1-0.4-0.1-0.6,0.1c-0.3,0.2-0.9,0.1-1.3-0.2
		c-0.6-0.5-0.9-1.1-1.1-1.9c-0.1-0.5-0.2-1.3-0.2-2.5v-9.3c0-2-0.8-3.5-2.4-4.6c-1.5-1-3.4-1.5-5.6-1.5c-0.9,0-1.8,0.1-2.8,0.3
		c-2.4,0.5-4.3,1.3-5.9,2.6c-0.3,0.3-0.3,0.7-0.1,1.1c0.4,0.6,0.9,0.9,1.4,1.1c1.1,0.3,2.2,0.1,3.8-1c1.2-0.9,2-1.1,2.3-1.2
		c1.5-0.3,3-0.1,3.9,0.5c0.7,0.5,1,1.2,1,2.1c0,1.1-0.5,1.7-1.5,2c-0.8,0.3-2,0.5-3.5,0.8c-1.6,0.3-2.8,0.5-3.6,0.8
		c-1.5,0.5-2.8,1.3-3.6,2.4c-0.4,0.5-0.7,1.1-0.9,1.7c0-1.9-0.7-3.5-2.3-4.9c-1.1-0.9-2.3-1.7-3.6-2.1c0.8-0.5,1.5-1.1,2.2-1.9
		c1.1-1.4,1.7-2.9,1.7-4.5c-0.1-2.2-1.1-3.8-3.1-4.9c-1.4-0.8-3.2-1.1-5.2-1.1h-0.5c-1.9,0.1-5.2,0.1-10,0c-0.1,0-0.3,0.1-0.5,0.2
		c-0.1,0.1-0.2,0.3-0.2,0.5c0,0.3,0.2,0.5,0.5,0.6c1.4,0.3,2.1,1.2,2.2,2.9c0.2,7.5,0.2,13.9,0,19c-0.1,2.5-1.3,3-2.3,3.2
		c-0.3,0.1-0.5,0.3-0.5,0.6c0,0.2,0.1,0.3,0.3,0.5c0.1,0.1,0.3,0.2,0.5,0.2c1.2-0.1,3.2,0,5.9,0.1c1,0,2,0,2.8,0
		c1.3,0,2.4,0,3.2-0.1c2.2-0.1,4.2-0.9,5.9-2.4c1.3-1.1,2.2-2.4,2.6-3.8c0.1,1.7,0.7,3.1,2,4.3c1.4,1.3,3.2,2.1,5.5,2.2h0.3
		c1.5,0,2.9-0.3,4.1-0.9c0.8-0.3,1.4-0.7,2-1.2c0.3,0.5,0.7,1,1.2,1.3c0.9,0.6,2,0.9,3.2,0.9c0.7,0,1.3-0.1,2-0.3
		C251.7,156.9,252.1,156.5,252,155.9 M236.5,153.2c-0.7-0.7-1.1-1.3-1.3-2.3c-0.1-0.9,0.1-1.6,0.6-2.4c0.6-0.9,1.5-1.4,2.9-1.7
		c3-0.7,4.5-1.1,5.3-1.3v4.3c0,0.7-0.3,1.5-0.9,2.4c-0.7,0.9-1.5,1.5-2.6,1.7C239.1,154.4,237.6,154.1,236.5,153.2 M220.3,143.5
		c2,0.1,3.4,0.8,4.4,1.9c0.8,0.9,1.2,2.1,1.2,3.4c0.1,1.8-0.5,3.2-1.7,4.2c-1.6,1.3-4.1,1.7-6.7,1c-0.6-0.2-0.9-0.5-0.9-1.1
		l-0.1-9.1C217.9,143.5,219.1,143.4,220.3,143.5 M222.6,139.6c-1.5,1.1-3.7,1.5-5.9,0.9l0.1-8.4c0-0.2,0-0.3,0.3-0.3
		c0.1-0.1,0.4-0.1,1.2-0.1c3.8-0.1,5.7,1.3,5.9,4.5C224.2,137.6,223.8,138.8,222.6,139.6"/>
	<path class="st0" d="M274.7,136c-0.1-0.1-0.4-0.2-0.5-0.2l0,0c-1.6,0-3.2,0-5,0c-0.3,0-0.5,0.2-0.6,0.5c-0.1,0.3,0,0.5,0.3,0.7
		c0,0,0.1,0.1,0.1,0.6c0,0.9-0.3,2-0.8,3.3l-4.2,9.8l-5.1-9.9c-0.6-1.1-0.9-2.1-0.9-3c0-0.4,0.1-0.7,0.3-0.9
		c0.2-0.2,0.3-0.5,0.2-0.7c-0.1-0.3-0.4-0.5-0.7-0.5l0,0c-2.1,0.1-4.2,0.1-6.5,0c-0.3,0-0.7,0.3-0.7,0.7c0,0.3,0.2,0.6,0.5,0.6
		c0,0,0.3,0.1,1.1,1.1c0.7,0.9,1.3,2,2,3.2l7.2,13.7c0.1,0.3,0,0.6-0.1,0.9c-1.5,3.3-3.2,5-5,5c-0.5,0-1.1-0.2-1.7-0.5
		c-0.9-0.5-1.6-0.7-2.2-0.7c-0.9,0-1.7,0.3-2.3,0.9c-0.6,0.6-0.9,1.2-0.9,1.9c0,0.3,0.1,0.5,0.2,0.7c0.1,0.2,0.3,0.3,0.5,0.3
		c0.6,0,1.2,0.2,2,0.5c0.9,0.3,1.5,0.5,1.6,0.5c0.5,0.1,1,0.2,1.5,0.2c2.1,0,4.1-0.9,6-2.7c1.5-1.4,2.7-3,3.4-4.8l7.1-15.4
		c2.1-4.4,2.9-4.6,3-4.6c0.3,0,0.5-0.2,0.5-0.4C275,136.5,274.9,136.2,274.7,136"/>
	<path class="st0" d="M110.4,155.6c-1.5-0.3-2.2-1.3-2.4-3.1c-0.5-6.4-1-13.9-1.2-22.5c0-0.3-0.2-0.5-0.5-0.6
		c-0.3-0.1-0.6,0.1-0.7,0.3c-4,7.6-7.9,14.4-11.5,20.3c-1.8-3-3.7-6.3-5.7-9.8c-1.1-2-3.1-5.5-6-10.7c-0.1-0.3-0.5-0.4-0.7-0.3
		c-0.3,0.1-0.5,0.3-0.5,0.6c-0.2,7.9-0.6,15.5-1.2,22.7c-0.1,0.8-0.3,1.4-0.7,2s-0.9,0.9-1.7,1.1c-0.3,0.1-0.5,0.3-0.5,0.6
		c0,0.2,0.1,0.3,0.2,0.5c0.1,0.1,0.3,0.3,0.6,0.2c1.7-0.1,4.4-0.1,7.2-0.1c0.3,0.1,0.7-0.1,0.9-0.3c0.1-0.2,0.1-0.4,0-0.6
		c-0.1-0.2-0.3-0.3-0.5-0.3c-0.8-0.1-1.9-0.5-2-2.9c-0.1-1.7,0-4,0.1-6.8c0.1-2,0.1-3.6,0.2-4.6c4.1,7.2,7.1,12.4,9,15.9
		c0.1,0.2,0.3,0.3,0.5,0.3l0,0c0.3,0,0.5-0.1,0.5-0.3c2.8-5.2,5.8-10.6,8.8-16c0.2,4.4,0.3,8.1,0.3,11.1c0,0.9-0.2,1.7-0.5,2.3
		c-0.4,0.6-0.9,0.9-1.5,1.1c-0.2,0-0.3,0.1-0.5,0.3c-0.1,0.1-0.1,0.3-0.1,0.5c0.1,0.3,0.5,0.5,0.8,0.5c0.2,0,0.9-0.1,4.2-0.1
		c3.2,0,4.3,0.1,4.7,0.1c0.3,0,0.7-0.3,0.7-0.7C110.9,155.9,110.7,155.6,110.4,155.6"/>
</g>
</svg>
