<?xml version="1.0" encoding="utf-8"?>
<!-- Generator: Adobe Illustrator 21.1.0, SVG Export Plug-In . SVG Version: 6.00 Build 0)  -->
<svg version="1.1" id="Layer_1" xmlns="http://www.w3.org/2000/svg" xmlns:xlink="http://www.w3.org/1999/xlink" x="0px" y="0px"
	 viewBox="0 0 350 255.1" style="enable-background:new 0 0 350 255.1;" xml:space="preserve">
<style type="text/css">
	.st0{fill:#1F191A;}
</style>
<path class="st0" d="M147.4,92.5c10-4.5,21.2-4.3,31,0.6c3.9,2,7.4,4.6,10.3,7.8l-2.3,3.6c-4.4-2.8-9.4-4.6-14.7-5.3
	c-7.2-1-14.3,0.1-20.7,2.9C149.4,99.1,148.2,95.9,147.4,92.5"/>
<path class="st0" d="M142,110.2c8-7.4,18.7-10.7,29.6-9.3c10.7,1.5,20.1,7.7,25.7,17c-8,7.4-18.6,10.7-29.4,9.3
	C157,125.7,147.6,119.5,142,110.2"/>
<path class="st0" d="M166.9,134.9c-2.2,0-4.4-0.2-6.5-0.6c3.3-1.3,6.5-3,9.4-5.1c1.1,0.1,2.1,0.1,3.1,0.1c7.5,0,14.7-2.3,20.9-6.4
	C187.1,130.3,177.4,134.9,166.9,134.9"/>
<path class="st0" d="M208.3,96.9c-0.1,0.1-0.3,0.2-0.6,0.4l-0.5,0.4c-0.1,0.1-0.3,0.2-0.5,0.4c-0.1,0.1-0.3,0.3-0.5,0.5
	c-0.1,0.1-0.3,0.3-0.3,0.4l-0.1,0.1c-0.3,0.4-0.6,0.7-0.9,1.1c-0.1,0.1-0.2,0.3-0.4,0.6l-0.1,0.1l-0.3,0.5c-0.8,1.4-1.4,2.8-1.7,4.3
	c0,0-0.5,2.1-0.6,2.8l-0.1,0.1v0.2c-0.8,2.7-1.9,5.3-3.2,7.6c-2.8-4.4-6.3-8.1-10.5-11l6-9.3c0.1-0.1,0.1-0.1,0.1-0.3l0.3-0.4
	c0.2-0.2,0.4-0.5,0.7-0.8l0.4-0.3c0.2-0.2,0.5-0.4,0.8-0.6l0.4-0.2c0.4-0.2,0.9-0.4,1.4-0.6c0.3-0.1,0.6-0.1,0.9-0.2
	c0.4-0.1,0.6-0.1,1.1-0.1c1.1-0.1,2.1,0.1,3.1,0.4c0.3,0.1,0.5,0.2,0.7,0.3l0.8,0.4l0,0l4.9,2.3C209.1,96.2,208.7,96.5,208.3,96.9"
	/>
<path class="st0" d="M83.5,156.3h-2v-3h2v-1.1c-0.1-1.4,0.4-2.8,1.3-3.9c0.9-0.9,2.3-1.4,3.6-1.3c0.6,0,1.1,0,1.6,0.1
	c0.4,0.1,0.9,0.2,1.3,0.3v3.1c-0.4-0.1-0.7-0.2-1-0.3c-0.3-0.1-0.8-0.1-1.1-0.1c-1.4,0-2.1,0.8-2.1,2.4v0.9h4.1v2.9H87v12.7h-3.6
	L83.5,156.3L83.5,156.3z"/>
<path class="st0" d="M100.5,169.3c-1.6,0.1-3.1-0.5-4.1-1.6c-1-1.2-1.6-2.8-1.5-4.4v-10h3.6v8.9c-0.1,1,0.3,2.1,0.9,2.8
	c0.6,0.7,1.6,1,2.5,0.9c0.9,0.1,1.9-0.4,2.6-1c0.7-0.8,1.1-1.9,1-2.8v-8.9h3.6v15.8h-3.6v-2.5c-0.6,0.8-1.1,1.4-2,2
	C102.6,169,101.5,169.3,100.5,169.3"/>
<path class="st0" d="M120.2,169.2c-1.1,0-2.3-0.2-3.5-0.6c-1.1-0.4-2.3-1-3.3-1.8l1.6-2.4c0.8,0.6,1.7,1.1,2.6,1.4
	c0.8,0.4,1.7,0.5,2.5,0.5c0.6,0.1,1.3-0.1,1.9-0.5c0.4-0.3,0.7-0.8,0.6-1.2v-0.1c0-0.3-0.1-0.6-0.3-0.8c-0.2-0.3-0.5-0.4-0.8-0.6
	c-0.4-0.2-0.8-0.4-1.1-0.5c-0.4-0.1-0.9-0.3-1.4-0.4c-0.6-0.1-1.1-0.4-1.8-0.6c-0.6-0.2-1.1-0.5-1.6-0.8c-0.5-0.4-0.9-0.8-1.1-1.3
	c-0.4-0.6-0.5-1.2-0.5-1.9v-0.1c0-1.4,0.6-2.6,1.6-3.6c0.6-0.4,1.1-0.8,1.8-0.9c0.7-0.2,1.4-0.4,2.2-0.4c1,0,2.1,0.1,3,0.5
	c0.9,0.4,1.9,0.8,2.8,1.3l-1.4,2.6c-0.8-0.5-1.5-0.8-2.3-1.1c-0.7-0.3-1.4-0.4-2.2-0.4c-0.6,0-1.1,0.1-1.6,0.4
	c-0.4,0.3-0.6,0.7-0.6,1.1v0.1c0,0.3,0.1,0.6,0.3,0.8c0.2,0.2,0.5,0.4,0.8,0.6c0.4,0.2,0.8,0.4,1.1,0.5c0.4,0.1,0.9,0.3,1.4,0.4
	c0.6,0.2,1.1,0.4,1.7,0.6c0.6,0.2,1.1,0.6,1.6,0.9c0.5,0.4,0.9,0.8,1.1,1.3c0.4,0.6,0.5,1.1,0.5,1.9v0.1c0,0.8-0.1,1.5-0.5,2.2
	c-0.3,0.6-0.7,1.1-1.2,1.6c-0.5,0.4-1.1,0.8-1.9,0.9C121.7,169.1,120.9,169.2,120.2,169.2"/>
<path class="st0" d="M130.9,147.3h3.9v3.4h-3.9V147.3z M131.1,153.1h3.6v15.8h-3.6V153.1z"/>
<path class="st0" d="M148.1,169.3c-1.1,0-2.3-0.2-3.3-0.6c-1-0.4-1.9-1-2.6-1.8c-0.8-0.8-1.4-1.6-1.8-2.6c-0.4-1-0.6-2.1-0.6-3.2
	V161c0-1.1,0.2-2.2,0.6-3.2c0.4-0.9,1-1.9,1.8-2.6c0.8-0.7,1.6-1.4,2.6-1.8c1.1-0.5,2.2-0.7,3.3-0.7c1.1,0,2.3,0.2,3.3,0.6
	c2,0.8,3.6,2.4,4.4,4.3c0.4,1,0.6,2.1,0.6,3.2v0.1c0,1.1-0.2,2.2-0.6,3.2c-0.4,0.9-1,1.9-1.8,2.6c-0.8,0.8-1.7,1.4-2.6,1.8
	C150.4,169.1,149.3,169.3,148.1,169.3 M148.1,166.2c0.7,0,1.4-0.1,2-0.4c0.6-0.3,1.1-0.6,1.5-1.1c0.4-0.5,0.8-1,0.9-1.6
	c0.2-0.6,0.4-1.3,0.4-1.9v-0.1c0-0.7-0.1-1.4-0.4-2c-0.2-0.6-0.6-1.1-1-1.6c-0.4-0.5-0.9-0.8-1.5-1.1c-1.2-0.6-2.6-0.6-4,0
	c-0.6,0.3-1.1,0.6-1.5,1.1c-0.4,0.5-0.8,1-0.9,1.6c-0.2,0.6-0.4,1.3-0.4,2v0.1c0,0.7,0.1,1.4,0.4,2s0.6,1.1,1,1.6
	c0.4,0.5,0.9,0.8,1.5,1.1C146.8,166,147.5,166.2,148.1,166.2L148.1,166.2z"/>
<path class="st0" d="M161.4,153.1h3.6v2.4c0.3-0.4,0.6-0.7,0.9-1c0.4-0.4,0.7-0.6,1.1-0.9c0.4-0.3,0.9-0.5,1.4-0.6
	c0.6-0.1,1.1-0.2,1.6-0.2c1.6-0.1,3.1,0.5,4.1,1.6c1,1.2,1.6,2.8,1.5,4.3v10.1h-3.6V160c0.1-1-0.3-2.1-0.9-2.8
	c-0.6-0.7-1.6-1.1-2.5-1c-0.9-0.1-1.9,0.4-2.6,1c-0.7,0.8-1,1.9-1,2.8v8.9h-3.6V153.1z"/>
<path class="st0" d="M186.5,169.2c-1.1,0-2.3-0.2-3.5-0.6c-1.1-0.4-2.3-1-3.3-1.8l1.6-2.4c0.8,0.6,1.7,1.1,2.6,1.4
	c0.8,0.4,1.7,0.5,2.5,0.5c0.6,0.1,1.3-0.1,1.9-0.5c0.4-0.3,0.7-0.8,0.6-1.2v-0.1c0-0.3-0.1-0.6-0.3-0.8c-0.2-0.3-0.5-0.4-0.8-0.6
	c-0.4-0.2-0.8-0.4-1.1-0.5c-0.4-0.1-0.9-0.3-1.4-0.4c-0.6-0.1-1.1-0.4-1.8-0.6c-0.6-0.2-1.1-0.5-1.6-0.8c-0.5-0.4-0.9-0.8-1.1-1.3
	c-0.4-0.6-0.5-1.2-0.5-1.9v-0.1c0-1.4,0.6-2.6,1.6-3.6c0.6-0.4,1.1-0.8,1.8-0.9c0.7-0.2,1.4-0.4,2.2-0.4c1,0,2.1,0.1,3,0.5
	c0.9,0.3,1.9,0.8,2.8,1.3l-1.4,2.6c-0.8-0.4-1.5-0.8-2.3-1.1c-0.7-0.3-1.4-0.4-2.2-0.4c-0.6-0.1-1.1,0.1-1.6,0.4
	c-0.4,0.3-0.6,0.7-0.6,1.1v0.1c0,0.3,0.1,0.6,0.3,0.8c0.2,0.2,0.5,0.4,0.8,0.6c0.4,0.2,0.8,0.4,1.1,0.5c0.4,0.1,0.9,0.3,1.4,0.4
	c0.6,0.2,1.1,0.4,1.7,0.6c0.6,0.2,1.1,0.6,1.6,0.9c0.5,0.4,0.9,0.8,1.1,1.3c0.4,0.6,0.5,1.1,0.5,1.9v0.1c0,0.8-0.1,1.5-0.5,2.2
	c-0.3,0.6-0.7,1.1-1.2,1.6s-1.1,0.8-1.9,0.9C188,169.1,187.3,169.2,186.5,169.2"/>
<path class="st0" d="M202.7,169.3c-1.6,0.1-3.1-0.5-4.1-1.6c-1-1.2-1.6-2.8-1.4-4.4v-10h3.6v8.9c-0.1,1,0.3,2.1,0.9,2.8
	c0.6,0.7,1.6,1,2.5,0.9c0.9,0.1,1.9-0.4,2.6-1c0.7-0.8,1-1.9,0.9-2.8v-8.9h3.6v15.8h-3.6v-2.5c-0.6,0.8-1.1,1.4-1.9,2
	C204.8,169,203.7,169.3,202.7,169.3"/>
<path class="st0" d="M217,147.3h3.9v3.4H217V147.3z M217.1,153.1h3.6v15.8h-3.6V153.1z"/>
<path class="st0" d="M232,169.2c-0.6,0-1.2-0.1-1.9-0.2c-0.6-0.1-1-0.4-1.4-0.8c-0.4-0.4-0.8-0.9-0.9-1.4c-0.3-0.7-0.4-1.4-0.4-2.2
	v-8.3h-2v-3.1h2v-4.3h3.6v4.3h4.2v3.1H231v7.8c-0.1,0.6,0.1,1.1,0.6,1.5c0.4,0.4,0.9,0.5,1.4,0.5c0.8,0,1.6-0.2,2.3-0.6v2.9
	c-0.5,0.3-0.9,0.5-1.4,0.6C233.1,169.1,232.5,169.2,232,169.2"/>
<path class="st0" d="M246.8,169.3c-1.1,0-2.2-0.2-3.2-0.6c-0.9-0.4-1.9-0.9-2.6-1.7c-0.8-0.8-1.4-1.6-1.7-2.6
	c-0.4-1.1-0.7-2.2-0.6-3.3V161c0-1.1,0.2-2.2,0.6-3.2c0.4-0.9,0.9-1.9,1.6-2.6c0.7-0.8,1.5-1.4,2.4-1.8c0.9-0.4,2.1-0.7,3.1-0.6
	c1.1,0,2.3,0.2,3.3,0.7c0.9,0.4,1.7,1.1,2.4,1.9c0.6,0.8,1.1,1.7,1.4,2.7s0.5,2.2,0.5,3.3c0,0.1,0,0.4,0,0.5s0,0.4-0.1,0.6h-11.6
	c0.1,1.1,0.7,2.2,1.6,3c0.8,0.7,1.9,1.1,3,1c0.8,0,1.6-0.1,2.3-0.5c0.8-0.4,1.4-0.8,2-1.4l2.1,1.9c-0.8,0.9-1.7,1.6-2.7,2.2
	C249.5,169,248.2,169.4,246.8,169.3 M250.5,160c-0.1-0.6-0.2-1.1-0.4-1.6c-0.2-0.5-0.5-0.9-0.8-1.3c-0.4-0.4-0.8-0.7-1.2-0.9
	c-0.5-0.2-1-0.4-1.6-0.4c-1,0-2.1,0.4-2.7,1.1c-0.8,0.8-1.2,1.9-1.3,3H250.5z"/>
<path class="st0" d="M264.3,169.2c-1.1,0-2.3-0.2-3.5-0.6c-1.1-0.4-2.3-1-3.3-1.8l1.6-2.4c0.8,0.6,1.7,1.1,2.6,1.4
	c0.8,0.4,1.7,0.5,2.5,0.5c0.6,0.1,1.3-0.1,1.9-0.5c0.4-0.3,0.7-0.8,0.6-1.2v-0.1c0-0.3-0.1-0.6-0.3-0.8c-0.2-0.3-0.5-0.4-0.8-0.6
	c-0.4-0.2-0.8-0.4-1.1-0.5c-0.4-0.1-0.9-0.3-1.3-0.4c-0.6-0.1-1.1-0.4-1.8-0.6c-0.6-0.2-1.1-0.5-1.6-0.8c-0.5-0.4-0.9-0.8-1.1-1.3
	c-0.4-0.6-0.5-1.2-0.5-1.9v-0.1c0-0.7,0.1-1.4,0.4-2c0.3-0.6,0.7-1.1,1.2-1.5c0.6-0.4,1.1-0.8,1.8-0.9c0.7-0.2,1.4-0.4,2.2-0.4
	c1,0,2.1,0.1,3,0.5c0.9,0.4,1.9,0.8,2.8,1.3l-1.4,2.6c-0.8-0.4-1.5-0.8-2.3-1.1c-0.7-0.3-1.4-0.4-2.2-0.4c-0.6,0-1.1,0.1-1.6,0.4
	c-0.4,0.3-0.6,0.7-0.6,1.1v0.1c0,0.3,0.1,0.6,0.3,0.8c0.2,0.2,0.5,0.4,0.8,0.6c0.4,0.2,0.8,0.4,1.1,0.5c0.4,0.1,0.9,0.3,1.3,0.4
	c0.6,0.2,1.1,0.4,1.7,0.6c0.6,0.2,1.1,0.6,1.6,0.9c0.5,0.4,0.9,0.8,1.1,1.3c0.4,0.6,0.5,1.1,0.5,1.9v0.1c0,0.8-0.1,1.5-0.5,2.2
	c-0.3,0.6-0.7,1.1-1.2,1.6c-0.6,0.4-1.1,0.8-1.9,0.9C265.8,169.1,265.1,169.2,264.3,169.2"/>
</svg>
