<?xml version="1.0" encoding="utf-8"?>
<!-- Generator: Adobe Illustrator 21.1.0, SVG Export Plug-In . SVG Version: 6.00 Build 0)  -->
<svg version="1.1" id="Layer_1" xmlns="http://www.w3.org/2000/svg" xmlns:xlink="http://www.w3.org/1999/xlink" x="0px" y="0px"
	 viewBox="0 0 350 255.1" style="enable-background:new 0 0 350 255.1;" xml:space="preserve">
<style type="text/css">
	.st0{fill:#1F191A;}
</style>
<g>
	<path class="st0" d="M129.4,71.2c16.3-7.3,34.8-7,50.8,1.1c6.4,3.2,12.1,7.5,17,12.8l-3.8,5.8c-7.2-4.5-15.4-7.6-24.1-8.8
		c-11.8-1.6-23.5,0.1-34,4.8C132.7,81.9,130.6,76.6,129.4,71.2"/>
	<path class="st0" d="M120.4,100.2c13.1-12.1,30.7-17.7,48.5-15.2c17.5,2.4,32.9,12.6,42.2,27.9C198,125,180.5,130.5,162.9,128
		C145.1,125.6,129.7,115.4,120.4,100.2"/>
	<path class="st0" d="M161.4,140.7c-3.6,0-7.2-0.3-10.7-1c5.5-2.1,10.6-4.9,15.4-8.4c1.7,0.1,3.4,0.2,5.1,0.2
		c12.3,0,24.1-3.7,34.3-10.6C194.4,133.2,178.5,140.7,161.4,140.7"/>
	<path class="st0" d="M229.1,78.3c-0.2,0.2-0.5,0.4-0.9,0.7l-0.8,0.7c-0.2,0.2-0.4,0.4-0.8,0.7c-0.2,0.2-0.4,0.4-0.8,0.8
		c-0.2,0.3-0.5,0.5-0.5,0.6l-0.2,0.2c-0.5,0.6-0.9,1.1-1.4,1.8c-0.2,0.2-0.4,0.5-0.6,0.9l-0.2,0.3l-0.5,0.8c-1.3,2.2-2.2,4.6-2.8,7
		c0,0-0.8,3.4-1.1,4.6l-0.2,0.2v0.4c-1.3,4.4-3.1,8.6-5.3,12.6c-4.6-7.2-10.4-13.3-17.2-18l9.9-15.3c0.1-0.1,0.2-0.3,0.3-0.4
		l0.5-0.6c0.3-0.4,0.7-0.8,1.1-1.2l0.6-0.5c0.4-0.3,0.8-0.6,1.3-1l0.6-0.4c0.7-0.4,1.4-0.7,2.4-1.1c0.5-0.2,1-0.3,1.5-0.4
		c0.5-0.1,1-0.2,1.7-0.2c1.7-0.1,3.4,0.1,5,0.7c0.4,0.1,0.8,0.3,1.2,0.5l1.3,0.6v0l8,3.7C230.5,77.3,229.8,77.7,229.1,78.3"/>
	<path class="st0" d="M29.8,170.1h-3.2v-4.7h3.2v-1.9c-0.2-2.2,0.6-4.5,2-6.2c1.5-1.4,3.5-2.1,5.6-2c0.9,0,1.7,0,2.6,0.2
		c0.7,0.1,1.4,0.3,2,0.5v4.8c-0.6-0.2-1.1-0.3-1.6-0.4c-0.6-0.1-1.1-0.2-1.7-0.2c-2.2,0-3.3,1.3-3.3,3.8v1.4h6.6v4.7h-6.5v20h-5.7
		V170.1z"/>
	<path class="st0" d="M56.8,190.6c-2.5,0.2-4.9-0.8-6.6-2.6c-1.6-2-2.5-4.5-2.3-7v-15.9h5.7v14.2c-0.1,1.6,0.4,3.2,1.4,4.5
		c1,1.1,2.5,1.6,3.9,1.6c1.5,0.1,3-0.5,4.1-1.6c1.1-1.2,1.7-2.9,1.6-4.5v-14.1h5.7v25h-5.7v-3.9c-0.8,1.2-1.9,2.3-3.1,3.1
		C60.1,190.2,58.4,190.7,56.8,190.6"/>
	<path class="st0" d="M87.9,190.6c-1.9,0-3.7-0.3-5.5-0.9c-1.9-0.6-3.6-1.6-5.1-2.8l2.6-3.9c1.3,0.9,2.7,1.7,4.2,2.3
		c1.3,0.5,2.6,0.8,4,0.8c1,0.1,2-0.2,2.9-0.7c0.7-0.4,1-1.2,1-2v-0.1c0-0.5-0.2-0.9-0.5-1.2c-0.3-0.4-0.8-0.7-1.2-0.9
		c-0.6-0.3-1.2-0.5-1.8-0.7c-0.7-0.2-1.4-0.4-2.1-0.7c-0.9-0.2-1.8-0.6-2.8-0.9c-0.9-0.3-1.7-0.8-2.5-1.3c-0.7-0.6-1.4-1.3-1.8-2.1
		c-0.5-0.9-0.7-2-0.7-3v-0.1c0-2.2,0.9-4.2,2.6-5.6c0.8-0.7,1.8-1.2,2.8-1.5c1.1-0.4,2.3-0.5,3.5-0.5c1.6,0,3.2,0.3,4.8,0.8
		c1.6,0.5,3,1.2,4.4,2.1l-2.3,4.1c-1.1-0.7-2.4-1.3-3.6-1.7c-1.1-0.4-2.2-0.6-3.4-0.6c-0.9-0.1-1.8,0.2-2.6,0.7
		c-0.6,0.4-0.9,1.1-0.9,1.8v0.1c0,0.5,0.2,0.9,0.5,1.2c0.4,0.4,0.8,0.7,1.3,0.9c0.6,0.3,1.2,0.5,1.8,0.8c0.7,0.2,1.4,0.5,2.1,0.7
		c0.9,0.3,1.8,0.6,2.7,1c0.9,0.4,1.7,0.8,2.5,1.4c0.7,0.5,1.4,1.2,1.8,2c0.5,0.9,0.7,1.9,0.7,2.9v0.1c0,1.2-0.2,2.4-0.7,3.5
		c-0.5,1-1.1,1.8-2,2.4c-0.9,0.7-1.9,1.2-3,1.5C90.3,190.4,89.1,190.6,87.9,190.6"/>
	<path class="st0" d="M104.9,155.9h6.1v5.4h-6.1V155.9z M105.1,165.1h5.7v25h-5.7V165.1z"/>
	<path class="st0" d="M132.1,190.7c-1.8,0-3.6-0.3-5.3-1c-1.6-0.6-3-1.6-4.2-2.8c-1.2-1.2-2.1-2.6-2.8-4.1c-0.7-1.6-1-3.3-1-5v-0.1
		c0-1.7,0.3-3.5,1-5c0.7-1.5,1.6-3,2.8-4.1c1.2-1.2,2.6-2.2,4.2-2.8c1.7-0.7,3.5-1.1,5.3-1c1.8,0,3.6,0.3,5.3,1
		c3.2,1.3,5.7,3.8,7,6.9c0.7,1.6,1,3.3,1,5v0.1c0,1.7-0.3,3.4-1,5c-0.7,1.5-1.6,3-2.8,4.1c-1.2,1.2-2.7,2.2-4.2,2.8
		C135.7,190.3,133.9,190.7,132.1,190.7 M132.2,185.7c1.1,0,2.2-0.2,3.1-0.6c0.9-0.4,1.7-1,2.4-1.7c0.7-0.7,1.2-1.6,1.5-2.5
		c0.4-1,0.5-2,0.5-3.1v-0.1c0-1.1-0.2-2.1-0.6-3.1c-0.4-0.9-0.9-1.8-1.6-2.6c-0.7-0.7-1.5-1.3-2.4-1.7c-2-0.8-4.2-0.8-6.2,0
		c-0.9,0.4-1.7,1-2.4,1.7c-0.7,0.7-1.2,1.6-1.5,2.5c-0.4,1-0.5,2-0.5,3.1v0.1c0,1.1,0.2,2.1,0.6,3.1c0.4,0.9,0.9,1.8,1.6,2.5
		c0.7,0.7,1.5,1.3,2.4,1.7C130,185.4,131.1,185.7,132.2,185.7L132.2,185.7z"/>
	<path class="st0" d="M153.1,165.1h5.7v3.8c0.4-0.6,0.9-1.1,1.4-1.7c0.5-0.5,1.1-1,1.7-1.4c0.7-0.4,1.4-0.7,2.1-0.9
		c0.9-0.2,1.7-0.4,2.6-0.4c2.5-0.2,4.9,0.8,6.6,2.6c1.6,1.9,2.4,4.4,2.3,6.9v15.9h-5.7v-14.2c0.1-1.6-0.4-3.2-1.4-4.5
		c-1-1.1-2.5-1.7-3.9-1.6c-1.5-0.1-3,0.5-4.1,1.6c-1.1,1.3-1.7,2.9-1.6,4.6v14.1h-5.7V165.1z"/>
	<path class="st0" d="M192.8,190.6c-1.9,0-3.7-0.3-5.5-0.9c-1.9-0.6-3.6-1.6-5.1-2.8l2.6-3.9c1.3,0.9,2.7,1.7,4.2,2.3
		c1.3,0.5,2.6,0.8,4,0.8c1,0.1,2-0.2,2.9-0.7c0.7-0.4,1-1.2,1-2v-0.1c0-0.5-0.2-0.9-0.5-1.2c-0.3-0.4-0.8-0.7-1.2-0.9
		c-0.6-0.3-1.2-0.5-1.8-0.7c-0.7-0.2-1.4-0.4-2.1-0.7c-0.9-0.2-1.8-0.6-2.8-0.9c-0.9-0.3-1.7-0.8-2.5-1.3c-0.7-0.6-1.4-1.3-1.8-2.1
		c-0.5-0.9-0.7-2-0.7-3v-0.1c0-2.2,0.9-4.2,2.6-5.6c0.8-0.7,1.8-1.2,2.8-1.5c1.1-0.4,2.3-0.5,3.5-0.5c1.6,0,3.2,0.3,4.8,0.8
		c1.6,0.5,3,1.2,4.4,2.1l-2.3,4.1c-1.1-0.7-2.4-1.3-3.6-1.7c-1.1-0.4-2.2-0.6-3.4-0.6c-0.9-0.1-1.8,0.2-2.6,0.7
		c-0.6,0.4-0.9,1.1-0.9,1.8v0.1c0,0.5,0.2,0.9,0.5,1.2c0.4,0.4,0.8,0.7,1.2,0.9c0.6,0.3,1.2,0.5,1.8,0.8c0.7,0.2,1.4,0.5,2.1,0.7
		c0.9,0.3,1.8,0.6,2.7,1c0.9,0.4,1.7,0.8,2.5,1.4c0.7,0.5,1.4,1.2,1.8,2c0.5,0.9,0.7,1.9,0.7,2.9v0.1c0,1.2-0.2,2.4-0.7,3.4
		c-0.5,1-1.1,1.8-2,2.4c-0.9,0.7-1.9,1.2-2.9,1.5C195.2,190.4,194,190.6,192.8,190.6"/>
	<path class="st0" d="M218.3,190.6c-2.5,0.2-4.9-0.8-6.6-2.6c-1.6-2-2.4-4.5-2.3-7v-15.9h5.7v14.2c-0.1,1.6,0.4,3.2,1.4,4.5
		c1,1.1,2.5,1.6,3.9,1.6c1.5,0.1,3-0.5,4.1-1.6c1.1-1.2,1.7-2.9,1.6-4.5v-14.1h5.7v25h-5.7v-3.9c-0.8,1.2-1.9,2.3-3.1,3.1
		C221.7,190.2,220,190.7,218.3,190.6"/>
	<path class="st0" d="M241,155.9h6.1v5.4H241V155.9z M241.2,165.1h5.7v25h-5.7V165.1z"/>
	<path class="st0" d="M264.6,190.5c-1,0-2-0.1-2.9-0.4c-0.8-0.2-1.6-0.7-2.3-1.2c-0.7-0.6-1.2-1.4-1.5-2.3c-0.4-1.1-0.6-2.3-0.5-3.5
		v-13.1h-3.2v-4.9h3.2v-6.9h5.7v6.9h6.7v4.9h-6.7v12.2c-0.1,0.9,0.2,1.7,0.8,2.4c0.6,0.5,1.4,0.8,2.2,0.7c1.2,0,2.4-0.3,3.5-0.9v4.7
		c-0.7,0.4-1.5,0.7-2.3,0.9C266.5,190.4,265.6,190.5,264.6,190.5"/>
	<path class="st0" d="M288.3,190.7c-1.7,0-3.4-0.3-5-0.9c-1.5-0.6-2.9-1.5-4.1-2.7c-1.2-1.2-2.1-2.6-2.7-4.1c-0.7-1.7-1-3.5-1-5.3
		v-0.1c0-1.7,0.3-3.4,0.9-5.1c0.6-1.5,1.4-2.9,2.5-4.1c1.1-1.2,2.4-2.1,3.9-2.8c1.5-0.7,3.2-1,4.9-1c1.8,0,3.6,0.3,5.2,1.1
		c1.4,0.7,2.7,1.7,3.7,2.9c1,1.3,1.8,2.7,2.2,4.3c0.5,1.7,0.8,3.4,0.8,5.1c0,0.2,0,0.5,0,0.8c0,0.3,0,0.5-0.1,0.8h-18.3
		c0.2,1.8,1.1,3.5,2.4,4.7c1.3,1.1,3,1.7,4.7,1.6c1.3,0,2.5-0.2,3.7-0.8c1.1-0.6,2.2-1.3,3.1-2.2l3.4,3c-1.2,1.4-2.6,2.6-4.3,3.4
		C292.4,190.3,290.3,190.7,288.3,190.7 M293.9,175.9c-0.1-0.9-0.3-1.7-0.6-2.6c-0.3-0.8-0.7-1.5-1.3-2.1c-0.5-0.6-1.2-1.1-1.9-1.4
		c-0.8-0.4-1.7-0.5-2.5-0.5c-1.6,0-3.2,0.6-4.4,1.8c-1.2,1.3-1.9,3-2.1,4.7H293.9z"/>
	<path class="st0" d="M315.7,190.6c-1.9,0-3.7-0.3-5.5-0.9c-1.9-0.6-3.6-1.6-5.1-2.8l2.6-3.9c1.3,0.9,2.7,1.7,4.2,2.3
		c1.3,0.5,2.6,0.8,4,0.8c1,0.1,2-0.2,2.9-0.7c0.7-0.4,1-1.2,1-2v-0.1c0-0.5-0.2-0.9-0.5-1.2c-0.3-0.4-0.8-0.7-1.2-0.9
		c-0.6-0.3-1.2-0.5-1.8-0.7c-0.7-0.2-1.4-0.4-2.1-0.7c-0.9-0.2-1.8-0.6-2.8-0.9c-0.9-0.3-1.7-0.8-2.5-1.3c-0.7-0.6-1.4-1.3-1.8-2.1
		c-0.5-0.9-0.7-2-0.7-3v-0.1c0-1.1,0.2-2.2,0.7-3.2c0.4-0.9,1.1-1.8,1.9-2.4c0.8-0.7,1.8-1.2,2.8-1.5c1.1-0.4,2.3-0.5,3.5-0.5
		c1.6,0,3.2,0.3,4.8,0.8c1.6,0.5,3,1.2,4.4,2.1l-2.3,4.1c-1.1-0.7-2.4-1.3-3.6-1.7c-1.1-0.4-2.2-0.6-3.4-0.6
		c-0.9-0.1-1.8,0.2-2.6,0.7c-0.6,0.4-0.9,1.1-0.9,1.8v0.1c0,0.5,0.2,0.9,0.5,1.2c0.4,0.4,0.8,0.7,1.3,0.9c0.6,0.3,1.2,0.5,1.8,0.8
		c0.7,0.2,1.4,0.5,2.1,0.7c0.9,0.3,1.8,0.6,2.7,1c0.9,0.4,1.7,0.8,2.5,1.4c0.7,0.5,1.4,1.2,1.8,2c0.5,0.9,0.7,1.9,0.7,2.9v0.1
		c0,1.2-0.2,2.4-0.7,3.4c-0.5,1-1.1,1.8-2,2.4c-0.9,0.7-1.9,1.2-3,1.5C318.2,190.4,317,190.6,315.7,190.6"/>
</g>
</svg>
