<?xml version="1.0" encoding="utf-8"?>
<!-- Generator: Adobe Illustrator 21.1.0, SVG Export Plug-In . SVG Version: 6.00 Build 0)  -->
<svg version="1.1" id="Layer_1" xmlns="http://www.w3.org/2000/svg" xmlns:xlink="http://www.w3.org/1999/xlink" x="0px" y="0px"
	 viewBox="0 0 350 255.1" style="enable-background:new 0 0 350 255.1;" xml:space="preserve">
<style type="text/css">
	.st0{fill:#1F191A;}
</style>
<path class="st0" d="M76.2,155.9h-1.8v-2.7h1.8v-1c0-1.6,0.4-2.7,1.2-3.4s1.8-1.1,3.1-1.1c0.5,0,1,0.1,1.4,0.1
	c0.4,0.1,0.8,0.1,1.2,0.3v2.7c-0.3-0.1-0.6-0.2-0.9-0.3c-0.3-0.1-0.6-0.1-1-0.1c-1.2,0-1.8,0.7-1.8,2.1v0.8h3.7v2.6h-3.8v11.2h-3.2
	L76.2,155.9L76.2,155.9z"/>
<path class="st0" d="M90.9,167.4c-1.6,0-2.8-0.5-3.7-1.4c-0.9-1-1.3-2.3-1.3-3.9v-8.9h3.2v7.9c0,1.1,0.3,1.9,0.8,2.5
	c0.5,0.6,1.2,0.9,2.2,0.9s1.7-0.3,2.3-0.9c0.6-0.6,0.9-1.4,0.9-2.5v-7.9h3.2v13.9h-3.2V165c-0.5,0.7-1,1.2-1.7,1.8
	C92.8,167.2,91.9,167.4,90.9,167.4"/>
<path class="st0" d="M107.9,167.4c-1,0-2.1-0.2-3.1-0.5c-1-0.3-2-0.9-2.9-1.6l1.4-2.2c0.8,0.5,1.6,1,2.3,1.3
	c0.8,0.3,1.5,0.4,2.3,0.4c0.7,0,1.2-0.1,1.6-0.4c0.4-0.3,0.5-0.6,0.5-1.1l0,0c0-0.3-0.1-0.5-0.3-0.7c-0.1-0.2-0.4-0.3-0.7-0.5
	c-0.3-0.1-0.6-0.3-1-0.4c-0.4-0.1-0.8-0.3-1.2-0.3c-0.5-0.1-1-0.3-1.6-0.5c-0.5-0.2-1-0.5-1.4-0.8c-0.4-0.3-0.8-0.7-1-1.2
	c-0.3-0.5-0.4-1-0.4-1.7v-0.1c0-0.7,0.1-1.2,0.4-1.8c0.3-0.5,0.6-1,1-1.4c0.5-0.3,1-0.7,1.6-0.8c0.6-0.2,1.2-0.3,1.9-0.3
	c0.9,0,1.8,0.1,2.7,0.4c0.9,0.3,1.7,0.7,2.5,1.2l-1.3,2.3c-0.7-0.4-1.4-0.8-2.1-1c-0.7-0.2-1.3-0.3-1.9-0.3c-0.6,0-1.1,0.1-1.4,0.4
	c-0.3,0.3-0.5,0.6-0.5,1v0.1c0,0.3,0.1,0.5,0.3,0.7c0.2,0.2,0.4,0.3,0.7,0.5s0.6,0.3,1,0.4c0.4,0.1,0.8,0.3,1.2,0.4
	c0.5,0.1,1,0.3,1.5,0.5c0.5,0.2,1,0.5,1.4,0.8c0.4,0.3,0.8,0.7,1,1.1c0.3,0.4,0.4,1,0.4,1.6v0.1c0,0.8-0.1,1.4-0.4,1.9
	c-0.3,0.5-0.6,1-1.1,1.4c-0.5,0.3-1,0.6-1.6,0.8C109.3,167.3,108.6,167.4,107.9,167.4"/>
<path class="st0" d="M117.1,147.9h3.4v3h-3.4V147.9z M117.2,153.1h3.2v13.9h-3.2V153.1z"/>
<path class="st0" d="M131.9,167.4c-1,0-2.1-0.2-2.9-0.5c-0.9-0.4-1.7-0.9-2.3-1.6c-0.7-0.7-1.2-1.4-1.6-2.3
	c-0.3-0.9-0.5-1.8-0.5-2.8v-0.1c0-1,0.2-1.9,0.5-2.8c0.4-0.9,0.9-1.6,1.6-2.3s1.4-1.2,2.3-1.6c0.9-0.4,1.9-0.6,3-0.6s2.1,0.2,3,0.5
	c0.9,0.4,1.7,0.9,2.3,1.6c0.7,0.7,1.2,1.4,1.6,2.3c0.3,0.9,0.5,1.8,0.5,2.8v0.1c0,1-0.2,1.9-0.5,2.8c-0.4,0.9-0.9,1.6-1.6,2.3
	s-1.4,1.2-2.4,1.6C134,167.2,132.9,167.4,131.9,167.4 M131.9,164.6c0.7,0,1.2-0.1,1.8-0.3c0.5-0.2,1-0.5,1.4-1
	c0.3-0.4,0.7-0.9,0.8-1.4c0.2-0.5,0.3-1.1,0.3-1.7v-0.1c0-0.6-0.1-1.2-0.3-1.8c-0.2-0.5-0.5-1-0.9-1.4c-0.4-0.4-0.8-0.8-1.4-1
	s-1.1-0.3-1.7-0.3c-0.6,0-1.2,0.1-1.7,0.3c-0.5,0.3-1,0.5-1.4,1c-0.3,0.4-0.7,0.9-0.8,1.4c-0.2,0.5-0.3,1.1-0.3,1.7v0.1
	c0,0.6,0.1,1.2,0.3,1.7c0.2,0.5,0.5,1,0.9,1.4c0.4,0.4,0.8,0.8,1.4,1C130.8,164.5,131.3,164.6,131.9,164.6"/>
<path class="st0" d="M143.3,153.1h3.2v2.1c0.2-0.3,0.5-0.6,0.8-1c0.3-0.3,0.6-0.5,1-0.8c0.3-0.2,0.8-0.4,1.2-0.5
	c0.4-0.1,0.9-0.2,1.4-0.2c1.6,0,2.8,0.5,3.7,1.4s1.3,2.3,1.3,3.9v8.9h-3.2v-7.9c0-1.1-0.3-1.9-0.8-2.5c-0.5-0.6-1.2-0.9-2.2-0.9
	c-1,0-1.7,0.3-2.3,0.9c-0.6,0.6-0.9,1.4-0.9,2.5v7.9h-3.2L143.3,153.1L143.3,153.1z"/>
<path class="st0" d="M167,167.4c-1,0-2.1-0.2-2.9-0.5c-0.9-0.4-1.7-0.9-2.3-1.6c-0.7-0.7-1.2-1.4-1.6-2.3c-0.3-0.9-0.5-1.8-0.5-2.8
	v-0.1c0-1,0.2-1.9,0.5-2.8c0.4-0.9,0.9-1.6,1.6-2.3s1.4-1.2,2.3-1.6c0.9-0.4,1.9-0.6,3-0.6s2.1,0.2,3,0.5c0.9,0.4,1.7,0.9,2.3,1.6
	c0.7,0.7,1.2,1.4,1.6,2.3c0.3,0.9,0.5,1.8,0.5,2.8v0.1c0,1-0.2,1.9-0.5,2.8c-0.4,0.9-0.9,1.6-1.6,2.3s-1.4,1.2-2.4,1.6
	C169,167.2,168.1,167.4,167,167.4 M167.1,164.6c0.7,0,1.2-0.1,1.8-0.3c0.5-0.2,1-0.5,1.4-1c0.3-0.4,0.7-0.9,0.8-1.4
	c0.2-0.5,0.3-1.1,0.3-1.7v-0.1c0-0.6-0.1-1.2-0.3-1.8c-0.2-0.5-0.5-1-0.9-1.4c-0.4-0.4-0.8-0.8-1.4-1s-1.1-0.3-1.7-0.3
	c-0.6,0-1.2,0.1-1.7,0.3c-0.5,0.3-1,0.5-1.4,1c-0.3,0.4-0.7,0.9-0.8,1.4c-0.2,0.5-0.3,1.1-0.3,1.7v0.1c0,0.6,0.1,1.2,0.3,1.7
	c0.2,0.5,0.5,1,0.9,1.4c0.4,0.4,0.8,0.8,1.4,1C165.8,164.5,166.4,164.6,167.1,164.6"/>
<path class="st0" d="M178.4,153.1h3.2v3.1c0.4-1,1.1-1.9,1.8-2.5c0.8-0.6,1.8-1,3.1-0.9v3.4h-0.2c-0.7,0-1.4,0.1-1.9,0.3
	s-1.1,0.5-1.5,1c-0.4,0.5-0.8,1-1,1.7s-0.3,1.5-0.3,2.4v5.3h-3.2V153.1z"/>
<path class="st0" d="M190,147.9h3.4v3H190V147.9z M190.2,153.1h3.2v13.9h-3.2V153.1z"/>
<path class="st0" d="M204.4,171.4c-2.3,0-4.4-0.5-6.2-1.7l1.2-2.4c0.8,0.5,1.5,0.8,2.3,1.1s1.7,0.4,2.6,0.4c1.4,0,2.5-0.3,3.3-1.1
	s1.2-1.8,1.2-3.2v-1.1c-0.6,0.8-1.2,1.4-2.1,1.8c-0.8,0.5-1.7,0.7-2.9,0.7c-0.8,0-1.6-0.1-2.4-0.5c-0.8-0.3-1.4-0.8-2.1-1.3
	c-0.6-0.5-1.1-1.2-1.4-2.1c-0.3-0.8-0.5-1.7-0.5-2.7v-0.1c0-1,0.2-1.9,0.5-2.7c0.3-0.8,0.8-1.5,1.4-2.1c0.6-0.5,1.3-1,2.1-1.3
	c0.8-0.3,1.6-0.5,2.4-0.5c1.2,0,2.2,0.2,2.9,0.7s1.4,1,2,1.7V153h3.2v11.1c0,2.3-0.6,4.1-1.8,5.3c-0.6,0.6-1.4,1.1-2.4,1.4
	C206.8,171.3,205.7,171.4,204.4,171.4 M204.7,163.3c0.5,0,1.1-0.1,1.6-0.3s1-0.5,1.3-0.8c0.3-0.3,0.7-0.8,0.9-1.2
	c0.2-0.5,0.3-1,0.3-1.6v-0.1c0-0.5-0.1-1.1-0.3-1.6c-0.2-0.5-0.5-0.9-0.9-1.2c-0.3-0.3-0.8-0.6-1.3-0.8c-0.5-0.2-1-0.3-1.6-0.3
	s-1.1,0.1-1.6,0.3c-0.5,0.2-0.9,0.5-1.2,0.8c-0.3,0.3-0.6,0.8-0.8,1.2c-0.2,0.5-0.3,1-0.3,1.6v0.1c0,0.5,0.1,1.1,0.3,1.6
	c0.2,0.5,0.5,0.9,0.8,1.2c0.3,0.3,0.8,0.6,1.2,0.8C203.6,163.2,204.1,163.3,204.7,163.3"/>
<path class="st0" d="M216.6,147.9h3.4v3h-3.4V147.9z M216.8,153.1h3.2v13.9h-3.2V153.1z"/>
<path class="st0" d="M224.8,153.1h3.2v2.1c0.2-0.3,0.5-0.6,0.8-1c0.3-0.3,0.6-0.5,1-0.8c0.3-0.2,0.8-0.4,1.2-0.5
	c0.4-0.1,0.9-0.2,1.4-0.2c1.6,0,2.8,0.5,3.7,1.4c0.9,1,1.3,2.3,1.3,3.9v8.9h-3.2v-7.9c0-1.1-0.3-1.9-0.8-2.5
	c-0.5-0.6-1.2-0.9-2.2-0.9c-1,0-1.7,0.3-2.3,0.9c-0.6,0.6-0.9,1.4-0.9,2.5v7.9h-3.2L224.8,153.1L224.8,153.1z"/>
<path class="st0" d="M245.9,167.4c-0.7,0-1.3-0.1-1.8-0.3c-0.6-0.2-1.1-0.5-1.6-0.8c-0.5-0.3-0.8-0.8-1.1-1.4
	c-0.3-0.5-0.4-1.2-0.4-1.8V163c0-0.8,0.1-1.4,0.4-2c0.3-0.5,0.7-1,1.2-1.4c0.5-0.3,1.1-0.6,1.8-0.8c0.7-0.2,1.5-0.3,2.3-0.3
	c0.8,0,1.5,0.1,2.1,0.1c0.5,0.1,1.2,0.3,1.7,0.4v-0.3c0-1-0.3-1.8-0.9-2.3s-1.4-0.8-2.6-0.8c-0.8,0-1.5,0.1-2.1,0.3
	c-0.6,0.1-1.2,0.3-1.8,0.6l-0.8-2.5c0.8-0.3,1.6-0.6,2.4-0.8c0.8-0.2,1.8-0.3,2.9-0.3c2.1,0,3.6,0.5,4.6,1.6
	c0.5,0.5,0.9,1.2,1.2,1.8c0.3,0.8,0.3,1.6,0.3,2.5v8.3h-3.1v-1.8c-0.5,0.5-1.1,1-1.8,1.4C247.9,167.2,247,167.4,245.9,167.4
	 M246.8,165c0.5,0,1-0.1,1.5-0.2c0.5-0.1,0.8-0.3,1.2-0.6c0.3-0.3,0.6-0.5,0.8-1c0.2-0.3,0.3-0.8,0.3-1.2v-1
	c-0.4-0.1-0.9-0.3-1.4-0.4c-0.5-0.1-1.1-0.1-1.8-0.1c-1,0-1.8,0.2-2.4,0.6c-0.5,0.4-0.9,1-0.9,1.7v0.1c0,0.7,0.3,1.2,0.8,1.6
	C245.3,164.9,246,165,246.8,165"/>
<rect x="258.3" y="147.8" class="st0" width="3.2" height="19.3"/>
<path class="st0" d="M271.1,167.4c-1,0-2.1-0.2-3.1-0.5c-1-0.3-2-0.9-2.9-1.6l1.4-2.2c0.8,0.5,1.6,1,2.3,1.3
	c0.8,0.3,1.5,0.4,2.3,0.4c0.7,0,1.2-0.1,1.6-0.4c0.4-0.3,0.5-0.6,0.5-1.1l0,0c0-0.3-0.1-0.5-0.3-0.7c-0.1-0.2-0.4-0.3-0.7-0.5
	c-0.3-0.1-0.6-0.3-1-0.4c-0.4-0.1-0.8-0.3-1.2-0.3c-0.5-0.1-1-0.3-1.6-0.5c-0.5-0.2-1-0.5-1.4-0.8c-0.4-0.3-0.8-0.7-1-1.2
	c-0.3-0.5-0.4-1-0.4-1.7v-0.1c0-0.7,0.1-1.2,0.4-1.8c0.3-0.5,0.6-1,1-1.4c0.5-0.3,1-0.7,1.6-0.8c0.6-0.2,1.2-0.3,1.9-0.3
	c0.9,0,1.8,0.1,2.7,0.4s1.7,0.7,2.5,1.2l-1.3,2.3c-0.7-0.4-1.4-0.8-2.1-1c-0.7-0.2-1.3-0.3-1.9-0.3s-1.1,0.1-1.4,0.4
	c-0.3,0.3-0.5,0.6-0.5,1v0.1c0,0.3,0.1,0.5,0.3,0.7c0.2,0.2,0.4,0.3,0.7,0.5c0.3,0.1,0.6,0.3,1,0.4c0.4,0.1,0.8,0.3,1.2,0.4
	c0.5,0.1,1,0.3,1.5,0.5s1,0.5,1.4,0.8c0.4,0.3,0.8,0.7,1,1.1c0.3,0.4,0.4,1,0.4,1.6v0.1c0,0.8-0.1,1.4-0.4,1.9
	c-0.3,0.5-0.6,1-1.1,1.4c-0.5,0.3-1,0.6-1.6,0.8C272.5,167.3,271.8,167.4,271.1,167.4"/>
<path class="st0" d="M148.2,94.5c9.6-4.3,20.4-4.1,29.7,0.6c3.8,1.8,7,4.4,9.9,7.5l-2.2,3.4c-4.2-2.7-9-4.4-14.1-5.1
	c-6.8-1-13.7,0.1-19.9,2.8C150,100.7,148.9,97.6,148.2,94.5"/>
<path class="st0" d="M142.9,111.4c7.7-7.2,18-10.4,28.4-9c10.3,1.4,19.2,7.4,24.7,16.3c-7.7,7.1-17.9,10.4-28.2,9
	C157.4,126.3,148.3,120.4,142.9,111.4"/>
<path class="st0" d="M166.9,135.2c-2.1,0-4.2-0.2-6.3-0.5c3.2-1.2,6.2-2.9,9-4.9c1,0.1,2,0.1,3,0.1c7.2,0,14.2-2.1,20.1-6.2
	C186.2,130.8,176.9,135.2,166.9,135.2"/>
<path class="st0" d="M206.5,98.6c-0.1,0.1-0.3,0.2-0.5,0.4l-0.5,0.4c-0.1,0.1-0.3,0.2-0.4,0.4c-0.1,0.1-0.3,0.3-0.4,0.4
	c-0.1,0.1-0.3,0.3-0.3,0.3l-0.1,0.1c-0.3,0.3-0.5,0.6-0.9,1.1c-0.1,0.1-0.2,0.3-0.3,0.5l-0.1,0.1l-0.3,0.4c-0.8,1.3-1.3,2.7-1.6,4.1
	c0,0-0.5,2-0.6,2.7l-0.1,0.1v0.2c-0.7,2.6-1.8,5.1-3.1,7.4c-2.7-4.2-6.1-7.8-10-10.6l5.8-9c0.1-0.1,0.1-0.1,0.1-0.2l0.3-0.3
	c0.2-0.2,0.3-0.4,0.6-0.7l0.3-0.3c0.2-0.2,0.4-0.3,0.8-0.5l0.3-0.2c0.4-0.2,0.9-0.4,1.4-0.6c0.3-0.1,0.5-0.1,0.9-0.2
	c0.3-0.1,0.5-0.1,1-0.1c1-0.1,2,0.1,2.9,0.4c0.2,0.1,0.5,0.2,0.7,0.3l0.8,0.3l0,0l4.7,2.1C207.3,98,206.9,98.2,206.5,98.6"/>
</svg>
