<?xml version="1.0" encoding="utf-8"?>
<!-- Generator: Adobe Illustrator 21.1.0, SVG Export Plug-In . SVG Version: 6.00 Build 0)  -->
<svg version="1.1" id="Layer_1" xmlns="http://www.w3.org/2000/svg" xmlns:xlink="http://www.w3.org/1999/xlink" x="0px" y="0px"
	 viewBox="0 0 350 255.1" style="enable-background:new 0 0 350 255.1;" xml:space="preserve">
<style type="text/css">
	.st0{fill:#1F191A;}
</style>
<g>
	<path class="st0" d="M30.4,159.2h-2.6v-3.9h2.6v-1.5c0-2.3,0.6-3.9,1.7-5c1.1-1.1,2.6-1.6,4.6-1.6c0.8,0,1.5,0.1,2.1,0.2
		c0.6,0.1,1.1,0.2,1.7,0.4v3.9c-0.5-0.2-0.9-0.3-1.3-0.4c-0.4-0.1-0.9-0.1-1.4-0.1c-1.8,0-2.7,1-2.7,3.1v1.1h5.4v3.8H35v16.4h-4.7
		V159.2z"/>
	<path class="st0" d="M51.9,176c-2.3,0-4.1-0.7-5.4-2.1c-1.3-1.4-1.9-3.3-1.9-5.7v-13h4.7v11.6c0,1.6,0.4,2.8,1.1,3.7
		c0.8,0.9,1.8,1.3,3.2,1.3c1.4,0,2.5-0.4,3.3-1.3c0.9-0.9,1.3-2.1,1.3-3.7v-11.5h4.7v20.4h-4.7v-3.2c-0.7,1-1.5,1.8-2.5,2.6
		C54.7,175.7,53.4,176,51.9,176"/>
	<path class="st0" d="M76.8,176c-1.5,0-3-0.3-4.5-0.8c-1.5-0.5-2.9-1.3-4.2-2.3l2.1-3.2c1.1,0.8,2.3,1.5,3.4,1.9
		c1.1,0.4,2.2,0.6,3.3,0.6c1,0,1.8-0.2,2.3-0.6c0.6-0.4,0.8-0.9,0.8-1.6V170c0-0.4-0.1-0.7-0.4-1c-0.2-0.3-0.6-0.5-1-0.7
		c-0.4-0.2-0.9-0.4-1.5-0.6c-0.6-0.2-1.1-0.4-1.7-0.5c-0.7-0.2-1.5-0.5-2.3-0.7c-0.8-0.3-1.4-0.7-2-1.1c-0.6-0.5-1.1-1-1.5-1.7
		c-0.4-0.7-0.6-1.5-0.6-2.5v-0.1c0-1,0.2-1.8,0.6-2.6c0.4-0.8,0.9-1.4,1.5-2c0.7-0.5,1.4-1,2.3-1.2c0.9-0.3,1.8-0.4,2.8-0.4
		c1.3,0,2.6,0.2,3.9,0.6c1.3,0.4,2.5,1,3.6,1.7l-1.9,3.3c-1-0.6-2-1.1-3-1.4c-1-0.3-1.9-0.5-2.8-0.5c-0.9,0-1.6,0.2-2.1,0.6
		c-0.5,0.4-0.8,0.9-0.8,1.4v0.1c0,0.4,0.1,0.7,0.4,1c0.3,0.3,0.6,0.5,1,0.7c0.4,0.2,0.9,0.4,1.5,0.6c0.6,0.2,1.1,0.4,1.7,0.6
		c0.7,0.2,1.5,0.5,2.2,0.8c0.7,0.3,1.4,0.7,2,1.1c0.6,0.5,1.1,1,1.5,1.6c0.4,0.6,0.6,1.4,0.6,2.4v0.1c0,1.1-0.2,2-0.6,2.8
		c-0.4,0.8-0.9,1.5-1.6,2c-0.7,0.5-1.5,0.9-2.4,1.2C78.8,175.9,77.8,176,76.8,176"/>
	<path class="st0" d="M90.2,147.6h5v4.4h-5V147.6z M90.4,155.2h4.7v20.4h-4.7V155.2z"/>
	<path class="st0" d="M111.9,176.1c-1.5,0-3-0.3-4.3-0.8c-1.3-0.6-2.5-1.3-3.4-2.3c-1-1-1.7-2.1-2.3-3.4c-0.5-1.3-0.8-2.7-0.8-4.1
		v-0.1c0-1.5,0.3-2.8,0.8-4.1c0.6-1.3,1.3-2.4,2.3-3.4c1-1,2.1-1.7,3.4-2.3c1.3-0.6,2.8-0.9,4.4-0.9c1.6,0,3,0.3,4.4,0.8
		c1.3,0.6,2.5,1.3,3.4,2.3c1,1,1.7,2.1,2.3,3.4c0.5,1.3,0.8,2.6,0.8,4.1v0.1c0,1.4-0.3,2.8-0.8,4.1c-0.6,1.3-1.3,2.4-2.3,3.4
		c-1,1-2.1,1.7-3.5,2.3C114.9,175.8,113.4,176.1,111.9,176.1 M111.9,172c1,0,1.8-0.2,2.6-0.5c0.8-0.3,1.4-0.8,2-1.4
		c0.5-0.6,1-1.3,1.2-2c0.3-0.8,0.4-1.6,0.4-2.5v-0.1c0-0.9-0.2-1.8-0.5-2.6c-0.3-0.8-0.7-1.5-1.3-2.1c-0.6-0.6-1.2-1.1-2-1.4
		c-0.8-0.3-1.6-0.5-2.5-0.5c-0.9,0-1.8,0.2-2.5,0.5c-0.8,0.4-1.4,0.8-2,1.4c-0.5,0.6-1,1.3-1.2,2.1c-0.3,0.8-0.4,1.6-0.4,2.5v0.1
		c0,0.9,0.2,1.7,0.5,2.5c0.3,0.8,0.7,1.5,1.3,2.1c0.6,0.6,1.2,1.1,2,1.4C110.2,171.8,111,172,111.9,172"/>
	<path class="st0" d="M128.5,155.2h4.7v3.1c0.3-0.5,0.7-0.9,1.1-1.4c0.4-0.4,0.9-0.8,1.4-1.1c0.5-0.3,1.1-0.6,1.7-0.8
		c0.6-0.2,1.3-0.3,2.1-0.3c2.3,0,4.1,0.7,5.4,2.1c1.3,1.4,1.9,3.3,1.9,5.7v13h-4.7V164c0-1.6-0.4-2.8-1.1-3.7
		c-0.8-0.9-1.8-1.3-3.2-1.3c-1.4,0-2.5,0.4-3.3,1.3c-0.9,0.9-1.3,2.1-1.3,3.7v11.5h-4.7V155.2z"/>
	<path class="st0" d="M163.2,176.1c-1.5,0-3-0.3-4.3-0.8c-1.3-0.6-2.5-1.3-3.4-2.3c-1-1-1.7-2.1-2.3-3.4c-0.5-1.3-0.8-2.7-0.8-4.1
		v-0.1c0-1.5,0.3-2.8,0.8-4.1c0.6-1.3,1.3-2.4,2.3-3.4c1-1,2.1-1.7,3.4-2.3c1.3-0.6,2.8-0.9,4.4-0.9c1.6,0,3,0.3,4.4,0.8
		c1.3,0.6,2.5,1.3,3.4,2.3c1,1,1.7,2.1,2.3,3.4c0.5,1.3,0.8,2.6,0.8,4.1v0.1c0,1.4-0.3,2.8-0.8,4.1c-0.6,1.3-1.3,2.4-2.3,3.4
		c-1,1-2.1,1.7-3.5,2.3C166.2,175.8,164.8,176.1,163.2,176.1 M163.3,172c1,0,1.8-0.2,2.6-0.5c0.8-0.3,1.4-0.8,2-1.4
		c0.5-0.6,1-1.3,1.2-2c0.3-0.8,0.4-1.6,0.4-2.5v-0.1c0-0.9-0.2-1.8-0.5-2.6c-0.3-0.8-0.7-1.5-1.3-2.1c-0.6-0.6-1.2-1.1-2-1.4
		c-0.8-0.3-1.6-0.5-2.5-0.5c-0.9,0-1.8,0.2-2.5,0.5c-0.8,0.4-1.4,0.8-2,1.4c-0.5,0.6-1,1.3-1.2,2.1c-0.3,0.8-0.4,1.6-0.4,2.5v0.1
		c0,0.9,0.2,1.7,0.5,2.5c0.3,0.8,0.7,1.5,1.3,2.1c0.6,0.6,1.2,1.1,2,1.4C161.5,171.8,162.4,172,163.3,172"/>
	<path class="st0" d="M179.9,155.2h4.7v4.6c0.6-1.5,1.6-2.8,2.7-3.7c1.2-0.9,2.7-1.4,4.5-1.3v4.9h-0.3c-1,0-2,0.2-2.8,0.5
		c-0.8,0.3-1.6,0.8-2.2,1.5c-0.6,0.7-1.1,1.5-1.4,2.5c-0.3,1-0.5,2.2-0.5,3.5v7.8h-4.7V155.2z"/>
	<path class="st0" d="M196.9,147.6h5v4.4h-5V147.6z M197.1,155.2h4.7v20.4h-4.7V155.2z"/>
	<path class="st0" d="M217.9,181.9c-3.4,0-6.4-0.8-9.1-2.5l1.7-3.5c1.1,0.7,2.2,1.2,3.4,1.6c1.2,0.4,2.5,0.6,3.8,0.6
		c2.1,0,3.7-0.5,4.8-1.6c1.1-1.1,1.7-2.6,1.7-4.7v-1.6c-0.9,1.1-1.8,2-3,2.7c-1.1,0.7-2.5,1-4.2,1c-1.2,0-2.4-0.2-3.5-0.7
		c-1.1-0.4-2.1-1.1-3-1.9c-0.9-0.8-1.6-1.8-2.1-3c-0.5-1.2-0.8-2.5-0.8-4v-0.1c0-1.5,0.3-2.8,0.8-4c0.5-1.2,1.2-2.2,2.1-3
		c0.9-0.8,1.9-1.4,3-1.9c1.1-0.4,2.3-0.7,3.5-0.7c1.7,0,3.2,0.3,4.3,1c1.1,0.7,2.1,1.5,2.9,2.5v-3.1h4.7v16.2c0,3.4-0.9,6-2.6,7.7
		c-0.9,0.9-2.1,1.6-3.5,2.1C221.4,181.7,219.8,181.9,217.9,181.9 M218.3,170c0.8,0,1.6-0.1,2.3-0.4c0.7-0.3,1.4-0.7,1.9-1.1
		c0.5-0.5,1-1.1,1.3-1.8c0.3-0.7,0.5-1.5,0.5-2.3v-0.1c0-0.8-0.2-1.6-0.5-2.3c-0.3-0.7-0.8-1.3-1.3-1.8c-0.5-0.5-1.2-0.9-1.9-1.1
		c-0.7-0.3-1.5-0.4-2.3-0.4c-0.8,0-1.6,0.1-2.3,0.4c-0.7,0.3-1.3,0.7-1.8,1.1c-0.5,0.5-0.9,1.1-1.2,1.8c-0.3,0.7-0.4,1.5-0.4,2.3
		v0.1c0,0.8,0.2,1.6,0.5,2.3c0.3,0.7,0.7,1.3,1.2,1.8c0.5,0.5,1.1,0.9,1.8,1.1C216.7,169.9,217.5,170,218.3,170"/>
	<path class="st0" d="M235.8,147.6h5v4.4h-5V147.6z M236,155.2h4.7v20.4H236V155.2z"/>
	<path class="st0" d="M247.8,155.2h4.7v3.1c0.3-0.5,0.7-0.9,1.1-1.4c0.4-0.4,0.9-0.8,1.4-1.1c0.5-0.3,1.1-0.6,1.7-0.8
		c0.6-0.2,1.3-0.3,2.1-0.3c2.3,0,4.1,0.7,5.4,2.1c1.3,1.4,1.9,3.3,1.9,5.7v13h-4.7V164c0-1.6-0.4-2.8-1.1-3.7
		c-0.8-0.9-1.8-1.3-3.2-1.3c-1.4,0-2.5,0.4-3.3,1.3c-0.9,0.9-1.3,2.1-1.3,3.7v11.5h-4.7V155.2z"/>
	<path class="st0" d="M278.6,176c-1,0-1.9-0.1-2.7-0.4c-0.9-0.3-1.6-0.7-2.3-1.2c-0.7-0.5-1.2-1.2-1.6-2c-0.4-0.8-0.6-1.7-0.6-2.7
		v-0.1c0-1.1,0.2-2.1,0.6-2.9c0.4-0.8,1-1.5,1.7-2c0.7-0.5,1.6-0.9,2.7-1.2c1-0.3,2.2-0.4,3.4-0.4c1.2,0,2.2,0.1,3,0.2
		c0.8,0.2,1.7,0.4,2.5,0.6v-0.5c0-1.5-0.4-2.6-1.3-3.3c-0.9-0.7-2.1-1.1-3.8-1.1c-1.2,0-2.2,0.1-3.1,0.4c-0.9,0.2-1.8,0.5-2.7,0.9
		l-1.2-3.7c1.1-0.5,2.3-0.9,3.5-1.2c1.2-0.3,2.6-0.4,4.2-0.4c3,0,5.3,0.8,6.8,2.3c0.7,0.7,1.3,1.7,1.7,2.7c0.4,1.1,0.5,2.3,0.5,3.6
		v12.1h-4.6v-2.6c-0.7,0.8-1.6,1.5-2.7,2.1C281.5,175.8,280.2,176,278.6,176 M279.9,172.6c0.8,0,1.5-0.1,2.2-0.3
		c0.7-0.2,1.2-0.5,1.7-0.9c0.5-0.4,0.9-0.8,1.1-1.4c0.3-0.5,0.4-1.1,0.4-1.8v-1.4c-0.6-0.2-1.3-0.4-2.1-0.6
		c-0.8-0.2-1.6-0.2-2.6-0.2c-1.5,0-2.7,0.3-3.5,0.9c-0.8,0.6-1.3,1.4-1.3,2.5v0.1c0,1,0.4,1.7,1.1,2.3
		C277.8,172.4,278.8,172.6,279.9,172.6"/>
	<rect x="296.7" y="147.4" class="st0" width="4.7" height="28.2"/>
	<path class="st0" d="M315.4,176c-1.5,0-3-0.3-4.5-0.8c-1.5-0.5-2.9-1.3-4.2-2.3l2.1-3.2c1.1,0.8,2.3,1.5,3.4,1.9
		c1.1,0.4,2.2,0.6,3.3,0.6c1,0,1.8-0.2,2.3-0.6c0.6-0.4,0.8-0.9,0.8-1.6V170c0-0.4-0.1-0.7-0.4-1c-0.2-0.3-0.6-0.5-1-0.7
		c-0.4-0.2-0.9-0.4-1.5-0.6c-0.6-0.2-1.1-0.4-1.7-0.5c-0.7-0.2-1.5-0.5-2.3-0.7c-0.8-0.3-1.4-0.7-2-1.1c-0.6-0.5-1.1-1-1.5-1.7
		c-0.4-0.7-0.6-1.5-0.6-2.5v-0.1c0-1,0.2-1.8,0.6-2.6c0.4-0.8,0.9-1.4,1.5-2c0.7-0.5,1.4-1,2.3-1.2c0.9-0.3,1.8-0.4,2.8-0.4
		c1.3,0,2.6,0.2,3.9,0.6c1.3,0.4,2.5,1,3.6,1.7l-1.9,3.3c-1-0.6-2-1.1-3-1.4c-1-0.3-1.9-0.5-2.8-0.5c-0.9,0-1.6,0.2-2.1,0.6
		c-0.5,0.4-0.8,0.9-0.8,1.4v0.1c0,0.4,0.1,0.7,0.4,1c0.3,0.3,0.6,0.5,1,0.7c0.4,0.2,0.9,0.4,1.5,0.6c0.6,0.2,1.1,0.4,1.7,0.6
		c0.7,0.2,1.5,0.5,2.2,0.8c0.7,0.3,1.4,0.7,2,1.1c0.6,0.5,1.1,1,1.5,1.6c0.4,0.6,0.6,1.4,0.6,2.4v0.1c0,1.1-0.2,2-0.6,2.8
		c-0.4,0.8-0.9,1.5-1.6,2c-0.7,0.5-1.5,0.9-2.4,1.2C317.5,175.9,316.5,176,315.4,176"/>
	<path class="st0" d="M137.4,78.6c13.4-6,28.5-5.7,41.6,0.9c5.3,2.6,9.9,6.2,13.9,10.5l-3.1,4.7c-5.9-3.7-12.6-6.2-19.7-7.2
		c-9.6-1.3-19.2,0.1-27.8,3.9C140,87.3,138.4,83,137.4,78.6"/>
	<path class="st0" d="M130,102.3c10.8-10,25.2-14.5,39.7-12.5c14.4,2,26.9,10.3,34.5,22.8c-10.7,9.9-25.1,14.5-39.5,12.5
		C150.2,123.1,137.6,114.8,130,102.3"/>
	<path class="st0" d="M163.5,135.5c-3,0-5.9-0.3-8.8-0.8c4.5-1.7,8.7-4,12.6-6.9c1.4,0.1,2.8,0.2,4.2,0.2c10,0,19.8-3,28.1-8.6
		C190.6,129.4,177.6,135.5,163.5,135.5"/>
	<path class="st0" d="M219,84.4c-0.2,0.1-0.4,0.3-0.7,0.6l-0.7,0.6c-0.2,0.2-0.4,0.3-0.6,0.6c-0.2,0.2-0.4,0.4-0.6,0.6
		c-0.2,0.2-0.4,0.4-0.4,0.5l-0.2,0.2c-0.4,0.5-0.8,0.9-1.2,1.5c-0.1,0.2-0.3,0.4-0.5,0.7l-0.2,0.2l-0.4,0.6
		c-1.1,1.8-1.8,3.7-2.3,5.7c0,0-0.7,2.8-0.9,3.7l-0.1,0.1v0.3c-1,3.6-2.5,7.1-4.3,10.3c-3.7-5.9-8.5-10.9-14-14.8l8.1-12.5
		c0.1-0.1,0.1-0.2,0.2-0.3l0.4-0.5c0.3-0.3,0.5-0.6,0.9-1l0.5-0.4c0.3-0.3,0.6-0.5,1.1-0.8l0.5-0.3c0.6-0.3,1.2-0.6,1.9-0.9
		c0.4-0.1,0.8-0.2,1.2-0.3c0.4-0.1,0.8-0.1,1.4-0.2c1.4-0.1,2.8,0.1,4.1,0.6c0.3,0.1,0.7,0.3,1,0.4l1.1,0.5l0,0l6.6,3
		C220.2,83.5,219.6,83.9,219,84.4"/>
</g>
</svg>
