<?xml version="1.0" encoding="utf-8"?>
<!-- Generator: Adobe Illustrator 21.1.0, SVG Export Plug-In . SVG Version: 6.00 Build 0)  -->
<svg version="1.1" id="Layer_1" xmlns="http://www.w3.org/2000/svg" xmlns:xlink="http://www.w3.org/1999/xlink" x="0px" y="0px"
	 viewBox="0 0 350 255.1" style="enable-background:new 0 0 350 255.1;" xml:space="preserve">
<style type="text/css">
	.st0{fill:#1F191A;}
</style>
<g>
	<path class="st0" d="M158.2,154.2c-1.4,0-2.6,1.1-2.6,2.5c0,1.4,1.2,2.5,2.6,2.5c0.5,0,0.9-0.1,1.3-0.3l0.6,0.5l0.5-0.6l-0.4-0.4
		c0.4-0.4,0.6-1,0.6-1.6C160.8,155.4,159.6,154.2,158.2,154.2 M159.1,157.4l-0.5,0.6l0.2,0.2c-0.2,0.1-0.4,0.1-0.6,0.1
		c-1,0-1.8-0.7-1.8-1.6c0-0.9,0.8-1.7,1.8-1.7s1.7,0.7,1.7,1.7c0,0.4-0.1,0.8-0.4,1.1L159.1,157.4z"/>
	<path class="st0" d="M165.1,157.1c0,0.8-0.4,1.3-1.2,1.3c-0.7,0-1.2-0.5-1.2-1.3v-2.9h-0.8v2.9c0,1.2,0.8,2.1,2,2.1
		c1.2,0,2-0.8,2-2.1v-2.9h-0.9L165.1,157.1L165.1,157.1z"/>
	<polygon class="st0" points="168.9,156.5 167.5,154.2 166.5,154.2 168.5,157.5 168.5,159.2 169.3,159.2 169.3,157.5 171.3,154.2 
		170.3,154.2 	"/>
	<polygon class="st0" points="177.9,157.6 175.2,154.2 174.9,154.2 174.8,154.1 174.8,154.2 174.6,154.2 174.6,159.2 175.4,159.2 
		175.4,155.8 178.2,159.2 178.5,159.2 178.5,159.3 178.5,159.2 178.8,159.2 178.8,154.2 177.9,154.2 	"/>
	<polygon class="st0" points="183.1,156.5 180.9,156.5 180.9,154.2 180.1,154.2 180.1,159.2 180.9,159.2 180.9,157.4 183.1,157.4 
		183.1,159.2 184,159.2 184,154.2 183.1,154.2 	"/>
	<path class="st0" d="M187.6,154.2c-1.4,0-2.6,1.1-2.6,2.5c0,1.4,1.2,2.5,2.6,2.5s2.6-1.1,2.6-2.5
		C190.2,155.4,189,154.2,187.6,154.2 M187.6,158.4c-1,0-1.8-0.7-1.8-1.6c0-0.9,0.8-1.7,1.8-1.7s1.7,0.7,1.7,1.7
		C189.3,157.6,188.6,158.4,187.6,158.4"/>
	<polygon class="st0" points="194.6,154.2 194.6,157.6 191.9,154.2 191.6,154.2 191.5,154.1 191.5,154.2 191.3,154.2 191.3,159.2 
		192.1,159.2 192.1,155.8 194.8,159.2 195.1,159.2 195.2,159.3 195.2,159.2 195.4,159.2 195.4,154.2 	"/>
	<path class="st0" d="M177.6,96.3c0.9,1.2,0.7,2.8-0.4,3.7c-0.4,0.3-0.8,0.5-1.3,0.5c-0.1,0-0.2,0-0.3,0h0c-0.8,0.1-1.6,0.4-2.2,0.9
		c-1.7,1.3-2.2,3.6-1.4,5.4l0,0c0.1,0.3,0,0.6-0.2,0.7c-0.3,0.2-0.6,0.2-0.8,0l0,0c0,0-0.1-0.1-0.1-0.1l0,0
		c-0.1-0.1-0.2-0.2-0.3-0.3c-2.5-3.2-2-7.9,1.3-10.5c0.9-0.7,1.9-1.2,3-1.4h0c0.1,0,0.3-0.1,0.5-0.1c0,0,0,0,0,0
		C176.1,95.2,177,95.5,177.6,96.3"/>
	<path class="st0" d="M187.4,108.9c-1.2,0.9-2.8,0.7-3.7-0.4c-0.3-0.4-0.5-0.8-0.6-1.3c0-0.1,0-0.2,0-0.3c0,0,0,0,0,0
		c-0.1-0.8-0.4-1.6-0.9-2.2c-1.3-1.7-3.6-2.2-5.4-1.4l0,0c-0.3,0.1-0.6,0-0.7-0.2c-0.2-0.3-0.2-0.6,0-0.9l0,0c0,0,0.1-0.1,0.1-0.1
		l0,0c0.1-0.1,0.2-0.2,0.3-0.3c3.2-2.5,7.9-2,10.5,1.3c0.7,0.9,1.2,1.9,1.4,3v0c0,0.1,0.1,0.3,0.1,0.5c0,0,0,0,0,0
		C188.5,107.5,188.2,108.3,187.4,108.9"/>
	<path class="st0" d="M174.9,118.6c-0.9-1.2-0.8-2.9,0.4-3.8c0.4-0.3,0.8-0.5,1.3-0.5c0.1,0,0.2,0,0.3,0h0c0.8-0.1,1.6-0.4,2.2-0.9
		c1.7-1.3,2.1-3.6,1.3-5.5l0,0c-0.1-0.3,0-0.6,0.2-0.7c0.3-0.2,0.6-0.2,0.9,0l0,0c0,0,0.1,0.1,0.1,0.1l0,0c0.1,0.1,0.2,0.2,0.3,0.3
		c2.6,3.4,2.2,8.1-1,10.6c-0.9,0.7-1.9,1.2-3,1.4h0c-0.1,0-0.3,0.1-0.5,0.1c0,0,0,0,0,0C176.3,119.7,175.4,119.3,174.9,118.6"/>
	<path class="st0" d="M165,106.1c1.2-0.9,2.8-0.7,3.7,0.4c0.3,0.4,0.5,0.8,0.6,1.3c0,0.1,0,0.2,0,0.3v0c0.1,0.8,0.4,1.6,0.9,2.2
		c1.3,1.7,3.6,2.2,5.4,1.4l0,0c0.3-0.1,0.6,0,0.7,0.2c0.2,0.3,0.2,0.6,0,0.9l0,0c0,0-0.1,0.1-0.1,0.1l0,0c-0.1,0.1-0.2,0.2-0.3,0.3
		c-3.2,2.5-7.9,2-10.5-1.3c-0.7-0.9-1.2-1.9-1.4-3v0c0-0.1-0.1-0.3-0.1-0.5c0,0,0,0,0,0C163.9,107.6,164.3,106.7,165,106.1"/>
	<path class="st0" d="M193.2,100.5c-0.7,1.3-2.4,1.7-3.6,0.9c-0.4-0.3-0.7-0.6-1-1c0-0.1-0.1-0.2-0.1-0.3c0,0,0,0,0,0
		c-0.4-0.7-0.9-1.3-1.7-1.8c-1.8-1.1-4.1-0.8-5.5,0.7l0,0c-0.2,0.2-0.5,0.2-0.8,0.1c-0.3-0.1-0.4-0.5-0.3-0.8l0,0c0,0,0-0.1,0-0.1
		l0,0c0.1-0.1,0.1-0.3,0.2-0.4c2.1-3.5,6.7-4.7,10.2-2.6c1,0.6,1.8,1.4,2.4,2.3c0,0,0,0,0,0c0.1,0.1,0.2,0.3,0.3,0.4c0,0,0,0,0,0
		C193.7,98.8,193.7,99.8,193.2,100.5"/>
	<path class="st0" d="M184.4,124.1c-1.3-0.6-2-2.1-1.4-3.5c0.2-0.4,0.5-0.8,0.9-1.1c0.1,0,0.1-0.1,0.3-0.1c0,0,0,0,0,0
		c0.6-0.5,1.2-1.1,1.5-1.9c0.8-2,0.2-4.2-1.4-5.4l0,0c-0.2-0.2-0.3-0.5-0.2-0.7c0.1-0.3,0.4-0.4,0.7-0.4l0,0c0,0,0.1,0,0.1,0l0,0
		c0.1,0,0.3,0.1,0.4,0.1c3.8,1.6,5.5,6,3.9,9.8c-0.4,1.1-1.1,2-1.9,2.7c0,0,0,0,0,0c-0.1,0.1-0.3,0.2-0.4,0.3c0,0,0,0,0,0
		C186.2,124.4,185.3,124.5,184.4,124.1"/>
	<path class="st0" d="M159.9,116.8c0.5-1.4,2-2.1,3.4-1.6c0.4,0.1,0.8,0.4,1.1,0.8c0,0.1,0.1,0.1,0.2,0.2c0,0,0,0,0,0
		c0.5,0.6,1.2,1.1,2,1.4c2,0.7,4.2,0,5.3-1.7l0,0c0.2-0.2,0.5-0.3,0.7-0.2c0.3,0.1,0.5,0.4,0.4,0.7l0,0c0,0,0,0.1,0,0.1l0,0
		c0,0.1-0.1,0.3-0.1,0.4c-1.4,3.9-5.7,5.8-9.6,4.4c-1.1-0.4-2-1-2.8-1.8c0,0,0,0,0,0c-0.1-0.1-0.2-0.3-0.3-0.4l0,0
		C159.8,118.6,159.6,117.7,159.9,116.8"/>
	<path class="st0" d="M166.8,91.3c1.4,0.5,2,2.1,1.5,3.4c-0.2,0.4-0.4,0.8-0.8,1.1c-0.1,0-0.1,0.1-0.2,0.2c0,0,0,0,0,0
		c-0.6,0.5-1.2,1.2-1.5,2c-0.8,2-0.1,4.2,1.6,5.4l0,0c0.2,0.2,0.3,0.5,0.2,0.7c-0.1,0.3-0.4,0.4-0.7,0.4l0,0c0,0-0.1,0-0.1,0l0,0
		c-0.1,0-0.3-0.1-0.4-0.1c-3.8-1.5-5.7-5.8-4.2-9.6c0.4-1.1,1.1-2,1.9-2.8c0,0,0,0,0,0c0.1-0.1,0.3-0.2,0.4-0.3c0,0,0,0,0,0
		C165.1,91.1,166,91,166.8,91.3"/>
	<path class="st0" d="M191.3,115.6c-1.5-0.2-2.5-1.6-2.2-3.1c0.1-0.5,0.3-0.9,0.6-1.3c0.1-0.1,0.1-0.1,0.2-0.2c0,0,0,0,0,0
		c0.5-0.6,0.9-1.4,1-2.2c0.3-2.1-0.8-4.1-2.7-4.9l0,0c-0.3-0.1-0.4-0.4-0.3-0.7c0-0.3,0.3-0.6,0.6-0.6l0,0c0,0,0.1,0,0.1,0h0
		c0.1,0,0.3,0,0.4,0.1c4.1,0.6,6.9,4.5,6.2,8.5c-0.2,1.2-0.6,2.2-1.2,3.1c0,0,0,0,0,0c-0.1,0.1-0.2,0.3-0.3,0.4l0,0
		C193.1,115.4,192.3,115.8,191.3,115.6"/>
	<path class="st0" d="M170.2,124.1c-0.1-1.5,1.1-2.7,2.5-2.8c0.5,0,0.9,0.1,1.3,0.3c0.1,0,0.2,0.1,0.3,0.1c0,0,0,0,0,0
		c0.7,0.4,1.5,0.6,2.4,0.6c2.1-0.1,3.8-1.6,4.3-3.6l0,0c0.1-0.3,0.3-0.4,0.6-0.5c0.3,0,0.6,0.2,0.7,0.5l0,0c0,0,0,0.1,0,0.1v0
		c0,0.1,0,0.3,0,0.4c0.2,4.1-3,7.6-7.1,7.8c-1.2,0-2.3-0.1-3.3-0.6h0c-0.1-0.1-0.3-0.1-0.4-0.2c0,0,0,0,0,0
		C170.7,125.9,170.2,125.1,170.2,124.1"/>
	<path class="st0" d="M159.8,101.4c1.5,0,2.7,1.2,2.7,2.6c0,0.5-0.1,0.9-0.3,1.3c0,0.1-0.1,0.1-0.1,0.3c0,0,0,0,0,0
		c-0.4,0.7-0.6,1.5-0.6,2.3c0,2.1,1.5,3.9,3.4,4.4l0,0c0.3,0.1,0.4,0.3,0.4,0.6c0,0.3-0.2,0.6-0.5,0.6l0,0c0,0-0.1,0-0.1,0h0
		c-0.1,0-0.3,0-0.4,0c-4.1,0-7.5-3.3-7.5-7.4c0-1.2,0.3-2.3,0.7-3.2v0c0.1-0.1,0.1-0.3,0.2-0.4c0,0,0,0,0,0
		C158.1,101.8,158.9,101.4,159.8,101.4"/>
	<path class="st0" d="M183.3,91.9c-0.1,1.5-1.5,2.5-2.9,2.3c-0.5,0-0.9-0.2-1.3-0.5c-0.1-0.1-0.1-0.1-0.2-0.2c0,0,0,0,0,0
		c-0.6-0.5-1.4-0.8-2.3-0.9c-2.1-0.2-4.1,1-4.8,2.9l0,0c-0.1,0.3-0.4,0.4-0.7,0.4s-0.6-0.3-0.6-0.6l0,0c0,0,0-0.1,0-0.1v0
		c0-0.1,0-0.3,0-0.4c0.4-4.1,4.1-7,8.2-6.6c1.2,0.1,2.2,0.5,3.1,1.1c0,0,0,0,0,0c0.1,0.1,0.3,0.2,0.4,0.3l0,0
		C183.1,90.1,183.4,91,183.3,91.9"/>
	<polygon class="st0" points="155.9,144.2 150.3,135 149.1,135 149.1,148.9 150.7,148.9 150.7,138.5 155.9,147 161.1,138.5 
		161.1,148.9 162.6,148.9 162.6,135 161.5,135 	"/>
	<path class="st0" d="M172.6,135l-6.3,13.9h1.6l1.7-3.8h6.9l1.7,3.8h1.6l-6.2-13.9H172.6z M170.3,143.7l2.8-6.4l2.9,6.4H170.3z"/>
	<rect x="183.7" y="135" class="st0" width="1.5" height="13.9"/>
	<path class="st0" d="M196.6,135h-1l-6.3,13.9h1.6l1.7-3.8h6.9l1.7,3.8h1.6L196.6,135z M193.2,143.7l2.8-6.4l2.9,6.4H193.2z"/>
	<path class="st0" d="M155.9,167.3L155.9,167.3c0-0.6,0.4-0.9,1-0.9c0.3,0,0.4,0,0.6,0.1v0c0-0.3-0.2-0.5-0.6-0.5
		c-0.3,0-0.5,0-0.7,0.1l-0.2-0.6c0.3-0.1,0.6-0.2,1-0.2c0.4,0,0.7,0.1,0.9,0.3s0.3,0.5,0.3,0.9v1.5h-0.7v-0.3
		c-0.2,0.2-0.4,0.3-0.8,0.3C156.3,168.1,155.9,167.8,155.9,167.3 M157.6,167.1v-0.1c-0.1-0.1-0.3-0.1-0.5-0.1
		c-0.3,0-0.5,0.1-0.5,0.4l0,0c0,0.2,0.1,0.3,0.4,0.3C157.3,167.5,157.6,167.3,157.6,167.1"/>
	<path class="st0" d="M161.1,166h-0.3v-0.6h0.3v-0.1c0-0.3,0.1-0.5,0.2-0.6c0.1-0.1,0.3-0.2,0.6-0.2c0.2,0,0.4,0,0.5,0.1v0.6
		c-0.1,0-0.2-0.1-0.3-0.1c-0.2,0-0.3,0.1-0.3,0.3v0.1h0.6v0.6h-0.6v2h-0.7V166z"/>
	<path class="st0" d="M163.1,167.1v-1.7h0.7v1.5c0,0.4,0.1,0.5,0.4,0.5c0.3,0,0.5-0.2,0.5-0.5v-1.5h0.7v2.6h-0.7v-0.4
		c-0.2,0.2-0.4,0.4-0.8,0.4C163.4,168.1,163.1,167.7,163.1,167.1"/>
	<path class="st0" d="M166.3,167.6l0.3-0.5c0.3,0.2,0.6,0.3,0.8,0.3c0.2,0,0.3-0.1,0.3-0.2l0,0c0-0.1-0.3-0.2-0.6-0.3
		c-0.4-0.1-0.8-0.3-0.8-0.8l0,0c0-0.5,0.4-0.8,1-0.8c0.3,0,0.7,0.1,1,0.3l-0.3,0.5c-0.3-0.1-0.5-0.3-0.7-0.3s-0.3,0.1-0.3,0.2l0,0
		c0,0.1,0.3,0.2,0.5,0.3c0.4,0.1,0.8,0.3,0.8,0.8l0,0c0,0.6-0.4,0.9-1,0.9C167,168.1,166.7,167.9,166.3,167.6"/>
	<path class="st0" d="M169.3,164.4h0.8v0.7h-0.8V164.4z M169.3,165.4h0.7v2.6h-0.7V165.4z"/>
	<path class="st0" d="M170.9,166.7L170.9,166.7c0-0.8,0.6-1.4,1.4-1.4s1.4,0.6,1.4,1.4l0,0c0,0.7-0.6,1.4-1.4,1.4
		C171.5,168.1,170.9,167.5,170.9,166.7 M173,166.7L173,166.7c0-0.4-0.3-0.7-0.7-0.7c-0.4,0-0.7,0.3-0.7,0.7l0,0
		c0,0.4,0.3,0.7,0.7,0.7C172.8,167.4,173,167.1,173,166.7"/>
	<path class="st0" d="M174.6,165.4h0.7v0.4c0.2-0.2,0.4-0.4,0.8-0.4c0.6,0,0.9,0.4,0.9,1v1.7h-0.7v-1.5c0-0.4-0.1-0.5-0.4-0.5
		s-0.5,0.2-0.5,0.5v1.5h-0.7V165.4z"/>
	<path class="st0" d="M179.7,165.4h0.7v0.5c0.1-0.4,0.4-0.6,0.9-0.6v0.8h0c-0.5,0-0.8,0.3-0.8,0.9v1h-0.7L179.7,165.4L179.7,165.4z"
		/>
	<path class="st0" d="M181.9,166.7L181.9,166.7c0-0.7,0.5-1.4,1.3-1.4c0.9,0,1.3,0.7,1.3,1.4c0,0.1,0,0.1,0,0.2h-1.8
		c0.1,0.3,0.3,0.5,0.6,0.5c0.3,0,0.4-0.1,0.6-0.3l0.4,0.4c-0.3,0.3-0.6,0.5-1.1,0.5C182.5,168.1,181.9,167.5,181.9,166.7
		 M183.8,166.5c0-0.3-0.2-0.6-0.6-0.6c-0.3,0-0.5,0.2-0.6,0.6H183.8z"/>
	<path class="st0" d="M185.2,167.6l0.3-0.5c0.3,0.2,0.6,0.3,0.8,0.3c0.2,0,0.3-0.1,0.3-0.2l0,0c0-0.1-0.3-0.2-0.6-0.3
		c-0.4-0.1-0.8-0.3-0.8-0.8l0,0c0-0.5,0.4-0.8,1-0.8c0.3,0,0.7,0.1,1,0.3l-0.3,0.5c-0.3-0.1-0.5-0.3-0.7-0.3s-0.3,0.1-0.3,0.2l0,0
		c0,0.1,0.3,0.2,0.5,0.3c0.4,0.1,0.8,0.3,0.8,0.8l0,0c0,0.6-0.4,0.9-1,0.9C185.9,168.1,185.5,167.9,185.2,167.6"/>
	<path class="st0" d="M188,166.7L188,166.7c0-0.8,0.6-1.4,1.4-1.4s1.4,0.6,1.4,1.4l0,0c0,0.7-0.6,1.4-1.4,1.4
		C188.6,168.1,188,167.5,188,166.7 M190.1,166.7L190.1,166.7c0-0.4-0.3-0.7-0.7-0.7c-0.4,0-0.7,0.3-0.7,0.7l0,0
		c0,0.4,0.3,0.7,0.7,0.7S190.1,167.1,190.1,166.7"/>
	<path class="st0" d="M191.7,165.4h0.7v0.5c0.1-0.4,0.4-0.6,0.9-0.6v0.8h0c-0.5,0-0.8,0.3-0.8,0.9v1h-0.7L191.7,165.4L191.7,165.4z"
		/>
	<path class="st0" d="M194.1,167.3V166h-0.3v-0.6h0.3v-0.7h0.7v0.7h0.6v0.6h-0.6v1.1c0,0.2,0.1,0.3,0.2,0.3c0.1,0,0.3,0,0.4-0.1v0.6
		c-0.1,0.1-0.3,0.1-0.6,0.1C194.4,168.1,194.1,167.9,194.1,167.3"/>
</g>
</svg>
