<?xml version="1.0" encoding="utf-8"?>
<!-- Generator: Adobe Illustrator 21.1.0, SVG Export Plug-In . SVG Version: 6.00 Build 0)  -->
<svg version="1.1" id="Layer_1" xmlns="http://www.w3.org/2000/svg" xmlns:xlink="http://www.w3.org/1999/xlink" x="0px" y="0px"
	 viewBox="0 0 350 255.1" style="enable-background:new 0 0 350 255.1;" xml:space="preserve">
<style type="text/css">
	.st0{fill:#1F191A;}
</style>
<g>
	<path class="st0" d="M145.6,137.9v2c-1-0.8-2-1.2-3-1.2c-1.2,0-2.1,0.4-2.9,1.2c-0.8,0.8-1.2,1.8-1.2,3c0,1.2,0.4,2.1,1.2,2.9
		c0.8,0.8,1.7,1.2,2.9,1.2c0.6,0,1.1-0.1,1.5-0.3c0.2-0.1,0.5-0.2,0.7-0.4c0.3-0.2,0.5-0.4,0.8-0.6v2c-1,0.5-2,0.8-3,0.8
		c-1.6,0-2.9-0.5-4.1-1.6c-1.1-1.1-1.7-2.5-1.7-4.1c0-1.4,0.5-2.7,1.4-3.8c1.2-1.4,2.6-2.1,4.5-2.1
		C143.8,137.1,144.8,137.4,145.6,137.9"/>
	<path class="st0" d="M158.1,145.8h-4.8l-1.2,2.7h-1.8l5.5-11.8l5.3,11.8h-1.8L158.1,145.8z M157.5,144.1l-1.6-3.8l-1.7,3.8H157.5z"
		/>
	<path class="st0" d="M167.8,143.9v4.5h-1.7v-11.1h1.9c0.9,0,1.6,0,2.1,0.2c0.5,0.1,0.9,0.4,1.2,0.7c0.6,0.6,1,1.4,1,2.4
		c0,1-0.4,1.8-1,2.4c-0.7,0.6-1.6,0.9-2.8,0.9L167.8,143.9L167.8,143.9z M167.8,142.4h0.6c1.6,0,2.3-0.6,2.3-1.8
		c0-1.2-0.8-1.7-2.4-1.7h-0.5V142.4z"/>
	<rect x="177.6" y="137.3" class="st0" width="1.7" height="11.1"/>
	<polygon class="st0" points="188.6,138.9 188.6,148.4 186.9,148.4 186.9,138.9 184.4,138.9 184.4,137.3 191.1,137.3 191.1,138.9 	
		"/>
	<path class="st0" d="M202.1,145.8h-4.8l-1.2,2.7h-1.8l5.5-11.8l5.3,11.8h-1.8L202.1,145.8z M201.4,144.1l-1.6-3.8l-1.7,3.8H201.4z"
		/>
	<polygon class="st0" points="211.7,137.3 211.7,146.9 215,146.9 215,148.4 210.1,148.4 210.1,137.3 	"/>
	<polygon class="st0" points="110.8,131.5 115.3,108.7 122.6,125.2 130.2,108.7 134.2,131.5 130.9,131.5 128.8,118.7 122.5,132.5 
		116.4,118.7 114.2,131.5 	"/>
	<polygon class="st0" points="150.4,113.3 141.9,113.3 141.9,118.4 150.2,118.4 150.2,121.4 141.9,121.4 141.9,128.5 150.4,128.5 
		150.4,131.5 138.7,131.5 138.7,110.3 150.4,110.3 	"/>
	<polygon class="st0" points="157.9,118.7 166.1,110.3 170.4,110.3 160.8,119.9 170.5,131.5 166.2,131.5 158.5,122.1 157.9,122.7 
		157.9,131.5 154.7,131.5 154.7,110.3 157.9,110.3 	"/>
	<polygon class="st0" points="197.3,131.5 197.3,108.8 212.9,125 212.9,110.3 216.1,110.3 216.1,132.8 200.5,116.6 200.5,131.5 	"/>
	<path class="st0" d="M232.3,120.5h8.8v0.7c0,1.6-0.2,3-0.6,4.2c-0.4,1.2-1,2.2-1.9,3.2c-2,2.2-4.5,3.3-7.5,3.3
		c-3,0-5.5-1.1-7.6-3.2c-2.1-2.1-3.2-4.7-3.2-7.8c0-3.1,1.1-5.7,3.3-7.8c2.1-2.1,4.8-3.3,7.9-3.3c1.6,0,3.2,0.4,4.6,1
		c1.4,0.7,2.7,1.8,4.1,3.3l-2.3,2.2c-1.7-2.3-3.9-3.5-6.4-3.5c-2.2,0-4.1,0.8-5.7,2.3c-1.5,1.5-2.3,3.4-2.3,5.7
		c0,2.4,0.8,4.3,2.5,5.8c1.6,1.4,3.3,2.1,5.2,2.1c1.6,0,3-0.5,4.2-1.6c1.2-1.1,2-2.4,2.1-3.8h-5.3L232.3,120.5L232.3,120.5z"/>
	<path class="st0" d="M187.3,118.9c0,0-1.5,0.8,0.8,1.5c2.3,0.6,5.9,2.5,3.4,4.8c-2.1,2-8.5,3.3-11.5,7.4c0.8,0.2,1.7,0.3,2.7,0.3
		c6.5,0,11.7-5.3,11.7-11.7c0-1.1-0.1-2.1-0.4-3.1C192.4,118,189.5,118.1,187.3,118.9"/>
	<path class="st0" d="M181.3,124.7c5.6-0.4,7.1-1.7,4.7-2.9c0,0-2.3-1-3.3-1.6c-0.9-0.7-1.6-2.7,10.7-3.9c-1.8-4.1-5.9-6.9-10.7-6.9
		c-6.5,0-11.7,5.3-11.7,11.7c0,2.3,0.7,4.4,1.7,6.2C174.2,126.4,177.3,124.9,181.3,124.7"/>
</g>
</svg>
