<?xml version="1.0" encoding="utf-8"?>
<!-- Generator: Adobe Illustrator 21.1.0, SVG Export Plug-In . SVG Version: 6.00 Build 0)  -->
<svg version="1.1" id="Layer_1" xmlns="http://www.w3.org/2000/svg" xmlns:xlink="http://www.w3.org/1999/xlink" x="0px" y="0px"
	 viewBox="0 0 350 255.1" style="enable-background:new 0 0 350 255.1;" xml:space="preserve">
<style type="text/css">
	.st0{fill:#1F191A;}
</style>
<g>
	<path class="st0" d="M194.5,113.2c0,1.1-0.1,2.2-0.3,3.2l3.6,6.3c5.3-12.6-0.7-27.2-13.4-32.5c-2-0.9-4.2-1.4-6.4-1.7l3.6,6.3
		C189.4,97.8,194.5,105.1,194.5,113.2"/>
	<path class="st0" d="M155.4,113.2c0-8.1,5.1-15.4,12.7-18.3l3.6-6.3c-13.6,1.8-23.2,14.2-21.4,27.8c0.3,2.2,0.9,4.3,1.7,6.3
		l3.6-6.3C155.5,115.4,155.4,114.3,155.4,113.2"/>
	<path class="st0" d="M187.9,127.9c-7.4,6.6-18.5,6.6-25.8,0H155c8.1,11.1,23.5,13.5,34.6,5.4c2.1-1.5,3.9-3.3,5.4-5.4H187.9z"/>
	<rect x="140.3" y="144.2" class="st0" width="2.9" height="18.5"/>
	<path class="st0" d="M146.8,156.8c0-0.9,0.2-1.7,0.5-2.5c0.3-0.7,0.8-1.4,1.4-1.9c0.6-0.5,1.3-1,2-1.2c1.6-0.6,3.4-0.6,5,0
		c0.7,0.3,1.4,0.7,2,1.2c0.6,0.5,1,1.2,1.4,1.9c0.3,0.8,0.5,1.7,0.5,2.5c0,0.9-0.2,1.7-0.5,2.6c-0.3,0.7-0.8,1.4-1.4,2
		c-0.6,0.5-1.3,1-2,1.3c-1.6,0.6-3.4,0.6-5,0c-0.7-0.3-1.4-0.7-2-1.3s-1-1.2-1.4-2C147,158.6,146.8,157.7,146.8,156.8 M149.8,156.8
		c0,0.5,0.1,0.9,0.2,1.4s0.3,0.9,0.6,1.2c0.3,0.3,0.6,0.7,1,0.9c0.5,0.2,1,0.3,1.5,0.3c0.5,0,1-0.1,1.5-0.3c0.4-0.2,0.8-0.5,1-0.9
		c0.3-0.3,0.5-0.8,0.6-1.2c0.2-0.4,0.2-0.9,0.2-1.4s-0.1-0.9-0.2-1.4s-0.3-0.9-0.6-1.2c-0.3-0.3-0.7-0.7-1-0.9
		c-0.5-0.2-1-0.3-1.5-0.3c-0.5,0-1,0.1-1.5,0.3c-0.4,0.2-0.8,0.5-1,0.9s-0.5,0.8-0.6,1.2C149.8,155.9,149.8,156.3,149.8,156.8
		L149.8,156.8z"/>
	<path class="st0" d="M174.9,162.7h-2.8V161h0c-0.4,0.7-1,1.2-1.7,1.6c-0.7,0.3-1.5,0.5-2.3,0.5s-1.7-0.2-2.4-0.5
		c-0.7-0.3-1.3-0.8-1.8-1.4c-0.5-0.6-0.9-1.2-1.2-2c-0.3-0.8-0.4-1.6-0.4-2.4c0-0.8,0.1-1.6,0.4-2.4c0.3-0.7,0.7-1.4,1.2-1.9
		c1-1.2,2.6-1.8,4.1-1.8c0.9,0,1.8,0.2,2.6,0.6c0.3,0.2,0.5,0.3,0.8,0.6c0.2,0.2,0.4,0.4,0.6,0.6h0.1v-8.3h2.9L174.9,162.7z
		 M165.2,156.8c0,0.5,0.1,0.9,0.2,1.4s0.3,0.9,0.6,1.2c0.3,0.3,0.6,0.7,1,0.9c0.9,0.5,2,0.5,2.9,0c0.4-0.2,0.8-0.5,1.1-0.9
		c0.3-0.3,0.5-0.8,0.7-1.2c0.2-0.4,0.2-0.9,0.2-1.4c0-0.5-0.1-0.9-0.2-1.4c-0.3-0.9-0.9-1.7-1.8-2.1c-0.4-0.2-0.9-0.3-1.4-0.3
		s-1,0.1-1.5,0.3c-0.4,0.2-0.8,0.5-1,0.9c-0.3,0.3-0.5,0.8-0.6,1.2C165.3,155.9,165.2,156.3,165.2,156.8L165.2,156.8z"/>
	<path class="st0" d="M191,151v10.7c0,1-0.1,1.9-0.4,2.9c-0.2,0.8-0.7,1.6-1.2,2.2c-0.6,0.6-1.3,1.1-2.1,1.4
		c-0.9,0.3-1.9,0.5-2.9,0.5c-1,0-2.1-0.2-3.1-0.5c-0.5-0.2-1-0.3-1.5-0.6c-0.5-0.2-0.9-0.5-1.3-0.8l1.7-2.3c0.5,0.5,1.2,0.9,1.9,1.2
		c0.7,0.3,1.4,0.4,2.2,0.4c0.6,0,1.2-0.1,1.8-0.3c0.5-0.2,0.9-0.5,1.2-0.9c0.3-0.4,0.5-0.8,0.6-1.3c0.1-0.5,0.2-1.1,0.2-1.6v-0.9h0
		c-0.4,0.6-1,1-1.6,1.3c-0.7,0.3-1.4,0.5-2.2,0.5c-0.8,0-1.6-0.2-2.4-0.5c-0.7-0.3-1.3-0.8-1.8-1.3c-0.5-0.6-0.9-1.2-1.2-1.9
		c-0.3-0.7-0.4-1.6-0.4-2.4c0-0.8,0.1-1.6,0.4-2.4c0.2-0.7,0.6-1.4,1.2-1.9c0.5-0.5,1.1-1,1.8-1.3c0.7-0.3,1.6-0.5,2.4-0.5
		c0.8,0,1.6,0.2,2.3,0.5c0.7,0.3,1.3,0.9,1.7,1.6h0v-1.7L191,151z M184.7,153c-0.5,0-1,0.1-1.4,0.3c-0.4,0.2-0.8,0.5-1,0.8
		c-0.3,0.3-0.5,0.7-0.7,1.2c-0.2,0.5-0.2,1-0.2,1.5c0,0.5,0.1,0.9,0.2,1.4c0.2,0.4,0.4,0.8,0.7,1.2c0.3,0.3,0.7,0.6,1,0.9
		c0.4,0.2,0.9,0.3,1.4,0.3c1,0,1.9-0.4,2.6-1.1c0.3-0.3,0.5-0.7,0.7-1.2c0.2-0.5,0.2-0.9,0.2-1.4c0-0.5-0.1-1-0.2-1.4
		c-0.2-0.4-0.4-0.9-0.7-1.2c-0.3-0.3-0.7-0.6-1.1-0.8S185.2,153,184.7,153"/>
	<path class="st0" d="M194.2,146.5c0-0.6,0.2-1.2,0.7-1.6c0.5-0.5,1.1-0.7,1.7-0.7c0.7,0,1.3,0.2,1.7,0.7c0.9,0.9,1,2.3,0.1,3.1
		c0,0-0.1,0.1-0.1,0.1c-0.5,0.4-1.1,0.7-1.7,0.7c-0.7,0-1.3-0.2-1.7-0.7C194.4,147.7,194.2,147.1,194.2,146.5"/>
	<rect x="195.1" y="151" class="st0" width="2.9" height="11.7"/>
	<path class="st0" d="M208.7,154.1c-0.3-0.4-0.7-0.7-1.1-0.9c-0.5-0.3-1-0.4-1.5-0.4c-0.5,0-0.9,0.1-1.3,0.3c-0.4,0.2-0.6,0.5-0.6,1
		c0,0.4,0.2,0.8,0.7,1c0.6,0.2,1.2,0.4,1.9,0.6c0.5,0.1,0.9,0.2,1.3,0.4s0.9,0.4,1.2,0.7c0.3,0.3,0.7,0.6,0.9,1
		c0.2,0.5,0.3,0.9,0.3,1.4c0,0.6-0.1,1.2-0.4,1.8c-0.3,0.5-0.6,0.9-1.1,1.2s-1,0.5-1.6,0.7c-0.6,0.2-1.2,0.2-1.9,0.2
		c-0.9,0-1.8-0.2-2.7-0.5c-0.8-0.3-1.6-0.8-2.1-1.4l1.9-1.8c0.3,0.4,0.8,0.8,1.3,1c0.5,0.3,1.1,0.4,1.7,0.4c0.2,0,0.4,0,0.7-0.1
		c0.2,0,0.4-0.1,0.6-0.2s0.3-0.2,0.5-0.4s0.2-0.4,0.2-0.7c0-0.5-0.2-0.9-0.7-1c-0.7-0.3-1.3-0.5-2-0.6c-0.4-0.1-0.9-0.2-1.3-0.4
		c-0.4-0.2-0.8-0.3-1.1-0.6c-0.3-0.3-0.6-0.6-0.8-0.9c-0.2-0.4-0.3-0.9-0.3-1.4c0-0.6,0.1-1.2,0.4-1.7c0.3-0.5,0.6-0.9,1-1.2
		c0.5-0.3,1-0.5,1.5-0.7c0.5-0.2,1.1-0.2,1.7-0.2c0.9,0,1.7,0.2,2.5,0.4c0.7,0.3,1.4,0.7,1.9,1.4L208.7,154.1z"/>
</g>
</svg>
