<?xml version="1.0" encoding="utf-8"?>
<!-- Generator: Adobe Illustrator 21.1.0, SVG Export Plug-In . SVG Version: 6.00 Build 0)  -->
<svg version="1.1" id="Layer_1" xmlns="http://www.w3.org/2000/svg" xmlns:xlink="http://www.w3.org/1999/xlink" x="0px" y="0px"
	 viewBox="0 0 350 255.1" style="enable-background:new 0 0 350 255.1;" xml:space="preserve">
<style type="text/css">
	.st0{fill:#1F191A;}
</style>
<g>
	<path class="st0" d="M224.5,89c0,2.8-0.3,5.6-0.7,8.3l9.4,16.3c13.6-32.6-1.8-70.1-34.5-83.7c-5.2-2.2-10.7-3.7-16.4-4.4l9.3,16.2
		C211.4,49.2,224.5,68,224.5,89"/>
	<path class="st0" d="M123.7,89c0-21,13.1-39.8,32.8-47.2l9.4-16.2c-35,4.6-59.7,36.7-55.2,71.7c0.7,5.6,2.2,11.1,4.4,16.3l9.4-16.3
		C124,94.6,123.7,91.8,123.7,89"/>
	<path class="st0" d="M207.5,126.8c-19,16.9-47.6,16.9-66.6,0h-18.3c20.8,28.5,60.7,34.8,89.2,14c5.4-3.9,10.1-8.6,14-14H207.5z"/>
	<rect x="84.9" y="168.9" class="st0" width="7.6" height="47.6"/>
	<path class="st0" d="M101.5,201.3c0-2.2,0.4-4.5,1.3-6.5c0.8-1.9,2-3.6,3.5-5c1.5-1.4,3.3-2.5,5.2-3.2c4.2-1.5,8.7-1.5,12.9,0
		c1.9,0.7,3.7,1.8,5.2,3.2c1.5,1.4,2.7,3.1,3.5,5c0.9,2.1,1.3,4.3,1.3,6.5c0,2.3-0.4,4.5-1.3,6.6c-0.8,1.9-2,3.6-3.5,5.1
		c-1.5,1.4-3.3,2.5-5.2,3.3c-4.1,1.6-8.7,1.6-12.8,0c-1.9-0.8-3.7-1.9-5.2-3.3c-1.5-1.4-2.7-3.2-3.5-5.1
		C102,205.8,101.5,203.5,101.5,201.3 M109.2,201.3c0,1.2,0.2,2.4,0.5,3.5c0.3,1.1,0.9,2.2,1.6,3.1c0.7,0.9,1.6,1.7,2.7,2.3
		c1.2,0.6,2.6,0.9,3.9,0.9c1.4,0,2.7-0.3,3.9-0.9c1.1-0.6,2-1.3,2.7-2.3c0.7-0.9,1.3-2,1.6-3.1c0.4-1.1,0.5-2.3,0.5-3.5
		c0-1.2-0.2-2.4-0.5-3.5c-0.3-1.1-0.9-2.2-1.6-3.1c-0.7-0.9-1.7-1.7-2.7-2.2c-1.2-0.6-2.6-0.9-3.9-0.9c-1.4,0-2.7,0.3-3.9,0.9
		c-1.1,0.5-2,1.3-2.7,2.2c-0.7,0.9-1.3,2-1.6,3.1C109.4,198.9,109.2,200.1,109.2,201.3L109.2,201.3z"/>
	<path class="st0" d="M174,216.5h-7.2V212h-0.1c-1,1.7-2.6,3.1-4.4,4c-1.9,0.9-3.9,1.4-6,1.4c-2.1,0-4.3-0.4-6.2-1.3
		c-1.8-0.8-3.4-2-4.7-3.5c-1.3-1.5-2.3-3.2-3-5.1c-0.7-2-1.1-4.1-1-6.2c0-2.1,0.3-4.2,1-6.2c0.7-1.9,1.7-3.6,3-5
		c2.7-3,6.6-4.6,10.6-4.6c2.3,0,4.6,0.5,6.6,1.6c0.7,0.4,1.4,0.9,2.1,1.5c0.5,0.5,1,1,1.5,1.6h0.2v-21.3h7.6L174,216.5z M149,201.3
		c0,1.2,0.2,2.4,0.5,3.5c0.3,1.1,0.9,2.2,1.6,3.1c0.7,0.9,1.6,1.7,2.7,2.3c2.4,1.2,5.2,1.2,7.6,0c1.1-0.6,2-1.3,2.8-2.2
		c0.8-0.9,1.4-2,1.8-3.1c0.4-1.1,0.6-2.3,0.6-3.5c0-1.2-0.2-2.4-0.6-3.5c-0.8-2.3-2.4-4.3-4.6-5.4c-1.1-0.6-2.4-0.9-3.7-0.9
		c-1.3,0-2.6,0.3-3.8,0.8c-1.1,0.5-2,1.3-2.7,2.2c-0.7,0.9-1.3,2-1.6,3.1C149.2,198.9,149.1,200.1,149,201.3L149,201.3z"/>
	<path class="st0" d="M215.4,186.3v27.5c0,2.5-0.3,5-1,7.4c-0.6,2.1-1.7,4-3.1,5.6c-1.5,1.6-3.3,2.8-5.3,3.6c-2.4,0.9-5,1.3-7.6,1.3
		c-2.7,0-5.3-0.5-7.9-1.3c-1.3-0.4-2.6-0.9-3.8-1.6c-1.2-0.6-2.3-1.3-3.3-2.1l4.3-5.9c1.4,1.4,3.1,2.4,5,3.2
		c1.8,0.7,3.7,1.1,5.6,1.1c1.6,0,3.1-0.2,4.6-0.8c1.2-0.5,2.2-1.2,3-2.2c0.8-1,1.3-2.1,1.6-3.3c0.3-1.4,0.5-2.8,0.5-4.2v-2.2h-0.1
		c-1.1,1.5-2.5,2.6-4.2,3.4c-1.8,0.8-3.7,1.2-5.7,1.2c-2.1,0-4.2-0.4-6.2-1.3c-1.8-0.8-3.4-2-4.7-3.4c-1.3-1.5-2.3-3.2-3-5
		c-0.7-1.9-1.1-4-1-6.1c0-2.1,0.3-4.2,1-6.2c0.6-1.9,1.6-3.6,3-5c1.3-1.4,2.9-2.6,4.7-3.4c1.9-0.9,4-1.3,6.1-1.3
		c2.1,0,4.1,0.4,6,1.3c1.9,0.9,3.4,2.3,4.4,4.1h0.1v-4.5L215.4,186.3z M199.3,191.6c-1.3,0-2.5,0.2-3.7,0.8c-1,0.5-2,1.2-2.7,2.1
		c-0.8,0.9-1.3,1.9-1.7,3c-0.4,1.2-0.6,2.5-0.6,3.8c0,1.2,0.2,2.4,0.6,3.5c0.4,1.1,1,2.1,1.7,3c0.7,0.9,1.7,1.6,2.7,2.2
		c1.1,0.6,2.4,0.8,3.6,0.8c2.5,0.1,4.9-1,6.6-2.9c0.8-0.9,1.4-1.9,1.8-3.1c0.4-1.2,0.6-2.4,0.6-3.6c0-1.3-0.2-2.5-0.6-3.7
		c-0.4-1.1-1-2.2-1.8-3.1c-0.8-0.9-1.7-1.6-2.8-2.1C201.9,191.8,200.6,191.6,199.3,191.6"/>
	<path class="st0" d="M223.7,174.8c0-1.6,0.6-3.1,1.8-4.2c1.2-1.2,2.8-1.8,4.5-1.8c1.7,0,3.3,0.6,4.5,1.7c2.3,2.2,2.5,5.8,0.3,8.1
		c-0.1,0.1-0.2,0.2-0.3,0.3c-1.2,1.1-2.9,1.7-4.5,1.7c-1.7,0-3.3-0.6-4.5-1.8C224.3,177.8,223.7,176.4,223.7,174.8"/>
	<rect x="226.2" y="186.3" class="st0" width="7.6" height="30.2"/>
	<path class="st0" d="M261.1,194.4c-0.8-1-1.7-1.7-2.8-2.3c-1.2-0.7-2.5-1-3.8-1c-1.2,0-2.3,0.2-3.3,0.8c-1,0.4-1.6,1.4-1.5,2.5
		c0,1.1,0.6,2.1,1.7,2.5c1.6,0.6,3.2,1.1,4.9,1.5c1.2,0.3,2.3,0.6,3.4,1c1.1,0.4,2.2,1,3.1,1.7c0.9,0.7,1.7,1.6,2.3,2.6
		c0.6,1.2,0.9,2.4,0.9,3.7c0.1,1.6-0.3,3.2-1,4.7c-0.7,1.2-1.6,2.3-2.8,3.1c-1.2,0.8-2.6,1.4-4,1.7c-1.6,0.4-3.2,0.5-4.8,0.5
		c-2.3,0-4.7-0.4-6.9-1.3c-2.1-0.8-4-2-5.5-3.7l5-4.7c0.9,1.1,2,2,3.3,2.7c1.4,0.7,2.9,1.1,4.5,1c0.6,0,1.1-0.1,1.7-0.2
		c0.6-0.1,1.1-0.3,1.6-0.6c0.5-0.3,0.9-0.6,1.2-1.1c0.3-0.5,0.5-1.1,0.4-1.7c0.1-1.2-0.6-2.3-1.7-2.7c-1.7-0.7-3.4-1.3-5.2-1.6
		c-1.1-0.2-2.2-0.6-3.3-1c-1-0.4-2-0.9-2.9-1.6c-0.8-0.7-1.5-1.5-2-2.4c-0.5-1.1-0.8-2.3-0.8-3.6c0-1.5,0.3-3,1-4.3
		c0.7-1.2,1.6-2.2,2.7-3c1.2-0.8,2.5-1.4,3.8-1.7c1.4-0.4,2.9-0.6,4.4-0.6c2.2,0,4.3,0.4,6.4,1.1c1.9,0.7,3.7,1.9,4.9,3.5
		L261.1,194.4z"/>
</g>
</svg>
