<?xml version="1.0" encoding="utf-8"?>
<!-- Generator: Adobe Illustrator 21.1.0, SVG Export Plug-In . SVG Version: 6.00 Build 0)  -->
<svg version="1.1" id="Layer_1" xmlns="http://www.w3.org/2000/svg" xmlns:xlink="http://www.w3.org/1999/xlink" x="0px" y="0px"
	 viewBox="0 0 350 255.1" style="enable-background:new 0 0 350 255.1;" xml:space="preserve">
<style type="text/css">
	.st0{fill:#1F191A;}
</style>
<g>
	<path class="st0" d="M174.3,91.5c0,1.2,0.3,2.2,0.7,3.2c0.5-1,0.7-2,0.7-3.2c0-1.2-0.3-2.2-0.7-3.2
		C174.6,89.3,174.3,90.4,174.3,91.5"/>
	<path class="st0" d="M174.3,91.5c0,1.2,0.3,2.2,0.7,3.2c0.5-1,0.7-2,0.7-3.2c0-1.2-0.3-2.2-0.7-3.2
		C174.6,89.3,174.3,90.4,174.3,91.5"/>
	<path class="st0" d="M122,167.8h3.4v-21.9h-4c0,0,0.4,0.9,0.5,1.8c0.1,0.9,0.1,1.3,0.1,1.9v5.6h-13.7v-9.3h-4.1
		c0,0,0.4,0.9,0.5,1.8s0.1,1.3,0.1,1.9v18.3h3.4v-9.3H122V167.8z M150,156.8c0,5.3-3.2,8.7-8.2,8.7c-5.1,0-8.2-3.3-8.2-8.7
		c0-5.3,3.2-8.7,8.2-8.7C146.9,148.2,150,151.4,150,156.8 M151,164.6c1.7-2,2.6-4.8,2.6-7.8c0-3.1-0.9-5.8-2.6-7.9
		c-2.1-2.5-5.2-3.7-9.2-3.7c-8.7,0-11.8,6.2-11.8,11.5c0,2.2,0.4,5.3,2.5,7.8c2,2.5,5.2,3.8,9.3,3.8
		C145.8,168.3,148.9,167,151,164.6 M158.7,167.8h3.4v-21.9h-4c0,0,0.4,0.9,0.5,1.8s0.1,1.3,0.1,1.8V167.8L158.7,167.8z M183.9,159.3
		h-9.6l4.8-10.2L183.9,159.3z M187.9,167.8h3.9L181,145.8h-4.9c0,0,0.5,1.1-0.6,3.7l-9,18.3h3.8l2.5-5.2h12.7L187.9,167.8z
		 M212.9,167.8h3.4v-21.9l0,0l0,0h-4c0,0,0.4,0.9,0.5,1.8s0.1,1.3,0.1,1.8v14.2l-12.6-17.9H195c0,0,0.4,0.9,0.5,1.8s0.1,1.3,0.1,1.8
		v18.3h3.4v-18.1l12.8,18.1L212.9,167.8L212.9,167.8z M238,159.3h-9.6l4.8-10.2L238,159.3z M245.8,167.8l-10.7-21.9h-4.9
		c0,0,0.5,1.1-0.6,3.7l-9,18.3h3.8l2.5-5.2h12.7l2.5,5.2H245.8L245.8,167.8z"/>
	<path class="st0" d="M158.1,96.6c1.9,2.9,4.2,5.6,6.7,8.2c2.6,2.6,5.3,4.8,8.2,6.7c-1.9-2.9-4.2-5.6-6.7-8.2S161,98.6,158.1,96.6"
		/>
	<path class="st0" d="M158.1,96.6c1.9,2.9,4.2,5.6,6.7,8.2c2.6,2.6,5.3,4.8,8.2,6.7c-1.9-2.9-4.2-5.6-6.7-8.2S161,98.6,158.1,96.6"
		/>
	<path class="st0" d="M176.8,115.3c1.9,2.9,4.2,5.6,6.7,8.2c2.6,2.6,5.3,4.8,8.2,6.7c-1.9-2.9-4.2-5.6-6.7-8.2
		C182.5,119.5,179.7,117.3,176.8,115.3"/>
	<path class="st0" d="M176.8,115.3c1.9,2.9,4.2,5.6,6.7,8.2c2.6,2.6,5.3,4.8,8.2,6.7c-1.9-2.9-4.2-5.6-6.7-8.2
		C182.5,119.5,179.7,117.3,176.8,115.3"/>
	<path class="st0" d="M152,107.3c3.1,1.5,6.5,2.8,10,3.7c3.5,1,7,1.5,10.5,1.7c-3.1-1.5-6.5-2.8-10-3.7
		C159,108.1,155.4,107.5,152,107.3"/>
	<path class="st0" d="M152,107.3c3.1,1.5,6.5,2.8,10,3.7c3.5,1,7,1.5,10.5,1.7c-3.1-1.5-6.5-2.8-10-3.7
		C159,108.1,155.4,107.5,152,107.3"/>
	<path class="st0" d="M177.5,114.1c3.1,1.5,6.5,2.8,10,3.7c3.5,1,7,1.5,10.5,1.7c-3.1-1.5-6.5-2.8-10-3.7
		C184.5,115,181,114.4,177.5,114.1"/>
	<path class="st0" d="M177.5,114.1c3.1,1.5,6.5,2.8,10,3.7c3.5,1,7,1.5,10.5,1.7c-3.1-1.5-6.5-2.8-10-3.7
		C184.5,115,181,114.4,177.5,114.1"/>
	<path class="st0" d="M152,119.6c3.5-0.2,7-0.8,10.5-1.7c3.5-1,6.8-2.2,10-3.7c-3.5,0.2-7,0.8-10.5,1.7
		C158.4,116.8,155.1,118.1,152,119.6"/>
	<path class="st0" d="M152,119.6c3.5-0.2,7-0.8,10.5-1.7c3.5-1,6.8-2.2,10-3.7c-3.5,0.2-7,0.8-10.5,1.7
		C158.4,116.8,155.1,118.1,152,119.6"/>
	<path class="st0" d="M177.5,112.8c3.5-0.2,7-0.8,10.5-1.7c3.5-1,6.8-2.2,10-3.7c-3.5,0.2-7,0.8-10.5,1.7
		C184,110,180.6,111.2,177.5,112.8"/>
	<path class="st0" d="M177.5,112.8c3.5-0.2,7-0.8,10.5-1.7c3.5-1,6.8-2.2,10-3.7c-3.5,0.2-7,0.8-10.5,1.7
		C184,110,180.6,111.2,177.5,112.8"/>
	<path class="st0" d="M158.1,130.3c2.9-1.9,5.6-4.2,8.2-6.7c2.6-2.6,4.8-5.3,6.7-8.2c-2.9,1.9-5.6,4.2-8.2,6.7
		C162.3,124.6,160.1,127.4,158.1,130.3"/>
	<path class="st0" d="M158.1,130.3c2.9-1.9,5.6-4.2,8.2-6.7c2.6-2.6,4.8-5.3,6.7-8.2c-2.9,1.9-5.6,4.2-8.2,6.7
		C162.3,124.6,160.1,127.4,158.1,130.3"/>
	<path class="st0" d="M176.8,111.6c2.9-1.9,5.6-4.2,8.2-6.7c2.6-2.6,4.8-5.3,6.7-8.2c-2.9,1.9-5.6,4.2-8.2,6.7
		C181,105.9,178.8,108.7,176.8,111.6"/>
	<path class="st0" d="M176.8,111.6c2.9-1.9,5.6-4.2,8.2-6.7c2.6-2.6,4.8-5.3,6.7-8.2c-2.9,1.9-5.6,4.2-8.2,6.7
		C181,105.9,178.8,108.7,176.8,111.6"/>
	<path class="st0" d="M168.8,136.4c1.5-3.1,2.8-6.5,3.7-10c1-3.5,1.5-7,1.7-10.5c-1.5,3.1-2.8,6.5-3.7,10S169.1,133,168.8,136.4"/>
	<path class="st0" d="M168.8,136.4c1.5-3.1,2.8-6.5,3.7-10c1-3.5,1.5-7,1.7-10.5c-1.5,3.1-2.8,6.5-3.7,10S169.1,133,168.8,136.4"/>
	<path class="st0" d="M175.7,110.9c1.5-3.1,2.8-6.5,3.7-10c1-3.5,1.5-7,1.7-10.5c-1.5,3.1-2.8,6.5-3.7,10
		C176.4,103.9,175.9,107.4,175.7,110.9"/>
	<path class="st0" d="M175.7,110.9c1.5-3.1,2.8-6.5,3.7-10c1-3.5,1.5-7,1.7-10.5c-1.5,3.1-2.8,6.5-3.7,10
		C176.4,103.9,175.9,107.4,175.7,110.9"/>
	<path class="st0" d="M181.1,136.4c-0.2-3.5-0.8-7-1.7-10.5c-1-3.5-2.2-6.8-3.7-10c0.2,3.5,0.8,7,1.7,10.5
		C178.4,130,179.6,133.3,181.1,136.4"/>
	<path class="st0" d="M181.1,136.4c-0.2-3.5-0.8-7-1.7-10.5c-1-3.5-2.2-6.8-3.7-10c0.2,3.5,0.8,7,1.7,10.5
		C178.4,130,179.6,133.3,181.1,136.4"/>
	<path class="st0" d="M174.3,110.9c-0.2-3.5-0.8-7-1.7-10.5c-1-3.5-2.2-6.8-3.7-10c0.2,3.5,0.8,7,1.7,10.5
		C171.5,104.4,172.8,107.8,174.3,110.9"/>
	<path class="st0" d="M174.3,110.9c-0.2-3.5-0.8-7-1.7-10.5c-1-3.5-2.2-6.8-3.7-10c0.2,3.5,0.8,7,1.7,10.5
		C171.5,104.4,172.8,107.8,174.3,110.9"/>
	<path class="st0" d="M153,112.7c-1.2,0-2.2,0.3-3.2,0.7c1,0.5,2,0.7,3.2,0.7c1.2,0,2.2-0.3,3.2-0.7
		C155.2,113,154.2,112.7,153,112.7"/>
	<path class="st0" d="M153,112.7c-1.2,0-2.2,0.3-3.2,0.7c1,0.5,2,0.7,3.2,0.7c1.2,0,2.2-0.3,3.2-0.7
		C155.2,113,154.2,112.7,153,112.7"/>
	<path class="st0" d="M193.8,113.5c1,0.5,2,0.7,3.2,0.7c1.2,0,2.2-0.3,3.2-0.7c-1-0.5-2-0.7-3.2-0.7S194.8,113,193.8,113.5"/>
	<path class="st0" d="M193.8,113.5c1,0.5,2,0.7,3.2,0.7c1.2,0,2.2-0.3,3.2-0.7c-1-0.5-2-0.7-3.2-0.7S194.8,113,193.8,113.5"/>
	<path class="st0" d="M153.2,126c1.1-0.1,2.1-0.4,3.1-1c1-0.6,1.8-1.3,2.4-2.2c-1.1,0.1-2.1,0.4-3.1,1
		C154.6,124.4,153.8,125.2,153.2,126"/>
	<path class="st0" d="M153.2,126c1.1-0.1,2.1-0.4,3.1-1c1-0.6,1.8-1.3,2.4-2.2c-1.1,0.1-2.1,0.4-3.1,1
		C154.6,124.4,153.8,125.2,153.2,126"/>
	<path class="st0" d="M191.3,104.1c1.1-0.1,2.1-0.4,3.1-1c1-0.6,1.8-1.3,2.4-2.2c-1.1,0.1-2.1,0.4-3.1,1
		C192.7,102.4,191.9,103.2,191.3,104.1"/>
	<path class="st0" d="M191.3,104.1c1.1-0.1,2.1-0.4,3.1-1c1-0.6,1.8-1.3,2.4-2.2c-1.1,0.1-2.1,0.4-3.1,1
		C192.7,102.4,191.9,103.2,191.3,104.1"/>
	<path class="st0" d="M163.4,132.2c-0.6,1-0.9,2-1,3.1c0.9-0.6,1.6-1.4,2.2-2.4c0.6-1,0.9-2,1-3.1
		C164.7,130.4,164,131.2,163.4,132.2"/>
	<path class="st0" d="M163.4,132.2c-0.6,1-0.9,2-1,3.1c0.9-0.6,1.6-1.4,2.2-2.4c0.6-1,0.9-2,1-3.1
		C164.7,130.4,164,131.2,163.4,132.2"/>
	<path class="st0" d="M185.4,94.1c-0.6,1-0.9,2-1,3.1c0.9-0.6,1.6-1.4,2.2-2.4c0.6-1,0.9-2.1,1-3.1
		C186.7,92.3,185.9,93.1,185.4,94.1"/>
	<path class="st0" d="M185.4,94.1c-0.6,1-0.9,2-1,3.1c0.9-0.6,1.6-1.4,2.2-2.4c0.6-1,0.9-2.1,1-3.1
		C186.7,92.3,185.9,93.1,185.4,94.1"/>
	<path class="st0" d="M174.3,135.5c0,1.2,0.3,2.2,0.7,3.2c0.5-1,0.7-2,0.7-3.2s-0.3-2.2-0.7-3.2
		C174.6,133.3,174.3,134.3,174.3,135.5"/>
	<path class="st0" d="M174.3,135.5c0,1.2,0.3,2.2,0.7,3.2c0.5-1,0.7-2,0.7-3.2s-0.3-2.2-0.7-3.2
		C174.6,133.3,174.3,134.3,174.3,135.5"/>
	<path class="st0" d="M184.4,129.8c0.1,1.1,0.4,2.1,1,3.1c0.6,1,1.3,1.8,2.2,2.4c-0.1-1.1-0.4-2.1-1-3.1
		C186.1,131.2,185.3,130.4,184.4,129.8"/>
	<path class="st0" d="M184.4,129.8c0.1,1.1,0.4,2.1,1,3.1c0.6,1,1.3,1.8,2.2,2.4c-0.1-1.1-0.4-2.1-1-3.1
		C186.1,131.2,185.3,130.4,184.4,129.8"/>
	<path class="st0" d="M162.4,91.7c0.1,1.1,0.4,2.1,1,3.1c0.6,1,1.3,1.8,2.2,2.4c-0.1-1.1-0.4-2.1-1-3.1
		C164.1,93.1,163.3,92.3,162.4,91.7"/>
	<path class="st0" d="M162.4,91.7c0.1,1.1,0.4,2.1,1,3.1c0.6,1,1.3,1.8,2.2,2.4c-0.1-1.1-0.4-2.1-1-3.1
		C164.1,93.1,163.3,92.3,162.4,91.7"/>
	<path class="st0" d="M194.4,123.9c-1-0.6-2-0.9-3.1-1c0.6,0.9,1.4,1.6,2.4,2.2c1,0.6,2,0.9,3.1,1
		C196.2,125.2,195.4,124.4,194.4,123.9"/>
	<path class="st0" d="M194.4,123.9c-1-0.6-2-0.9-3.1-1c0.6,0.9,1.4,1.6,2.4,2.2c1,0.6,2,0.9,3.1,1
		C196.2,125.2,195.4,124.4,194.4,123.9"/>
	<path class="st0" d="M156.3,101.8c-1-0.6-2-0.9-3.1-1c0.6,0.9,1.4,1.6,2.4,2.2c1,0.6,2,0.9,3.1,1
		C158.1,103.2,157.3,102.4,156.3,101.8"/>
	<path class="st0" d="M156.3,101.8c-1-0.6-2-0.9-3.1-1c0.6,0.9,1.4,1.6,2.4,2.2c1,0.6,2,0.9,3.1,1
		C158.1,103.2,157.3,102.4,156.3,101.8"/>
</g>
</svg>
