<?xml version="1.0" encoding="utf-8"?>
<!-- Generator: Adobe Illustrator 21.1.0, SVG Export Plug-In . SVG Version: 6.00 Build 0)  -->
<svg version="1.1" id="Layer_1" xmlns="http://www.w3.org/2000/svg" xmlns:xlink="http://www.w3.org/1999/xlink" x="0px" y="0px"
	 viewBox="0 0 350 255.1" style="enable-background:new 0 0 350 255.1;" xml:space="preserve">
<style type="text/css">
	.st0{fill:#1F191A;}
</style>
<g>
	<path class="st0" d="M225,57.1c-2.1,0-4.1,0-6,0c-6.8,0-13.5,0.1-20.3,0.2c-1.3,0-2.7,0.1-4,0.3c-2.6,0.4-4.3,1.9-5.4,4.2
		c-1.2,2.6-2.3,5.2-3.4,7.8c-2.2,5.3-4.3,10.7-6.4,16c-0.2,0.4-0.4,0.6-0.9,0.6c-2.6-0.1-5.2-0.2-7.8-0.1
		c-5.4,0.2-10.8,1.1-15.9,2.9c-8.6,3-15.7,8.3-21.3,15.5c-2,2.6-3.6,5.4-5.3,8.1c-0.1,0.1-0.2,0.3-0.4,0.4c-0.3-2.5-0.7-5-0.9-7.5
		c-0.4-4.1-0.6-8.3-0.3-12.4c0.2-3,0.5-6,0.9-9c0.6-4.9,1.9-9.6,3.5-14.3c4-11.4,10.1-21.5,19.3-29.5c6.3-5.5,13.6-9.3,21.8-11
		c4.3-0.9,8.6-1,12.9-0.6c9.7,0.9,18.2,4.9,25.6,11.1c5.6,4.7,10.1,10.3,13.8,16.5C224.7,56.5,224.8,56.7,225,57.1"/>
	<path class="st0" d="M147.2,151.1c0.9,0.2,1.8,0.3,2.7,0.5c5.9,0.9,11.4-0.3,16.5-3.4c4.8-3,8.6-7,11.8-11.6
		c3.8-5.3,6.8-11.1,9.1-17.2c1.8-4.6,3.3-9.3,4.9-13.9c0.2-0.6,0.5-0.9,1.2-0.8c2,0.1,4,0.2,6,0.2c2.2-0.1,4.4-0.3,6.4-1.3
		c2.8-1.3,4.4-3.6,4.9-6.6c0.4-2.1,0.3-4.1-0.2-6.1c-0.8-3-3.1-4.5-5.9-4.7c-1.3-0.1-2.6,0-4,0c1-2.6,1.9-5.3,2.9-7.9
		c0.2-0.6,0.4-1.3,0.7-1.9c0.1-0.2,0.4-0.5,0.6-0.5c2,0,4,0,6.1,0c3.2,0,6.5,0,9.7,0c1.5,0,3.1-0.1,4.6,0c2.4,0.1,4.4-0.7,5.9-2.5
		c0.2-0.2,0.3-0.3,0.6-0.6c0.3,1.3,0.7,2.4,1,3.6c0.6,2.7,1.2,5.4,1.6,8.1c0.4,2.4,0.6,4.9,0.8,7.3c0.2,2.7,0.2,5.4,0.1,8.1
		c-0.1,3.1-0.3,6.3-0.8,9.4c-0.5,3.5-1.2,7.1-2.1,10.5c-0.7,2.9-1.8,5.8-2.9,8.6c-2.4,6.2-5.6,11.9-9.7,17.2
		c-5.9,7.6-13.1,13.6-22,17.4c-3.9,1.6-8,2.8-12.2,3.1c-2.8,0.2-5.7,0.3-8.5,0.1c-5.8-0.5-11.4-2.2-16.6-4.9
		c-4.8-2.5-9.1-5.7-12.9-9.5c-0.1-0.1-0.2-0.2-0.3-0.3C147.2,151.2,147.2,151.2,147.2,151.1"/>
	<path class="st0" d="M171.2,104.8c-0.5,1.4-0.9,2.7-1.4,3.9c-1.7,4.8-3.6,9.6-6.3,14c-1.3,2.3-2.8,4.4-4.8,6.1
		c-1.5,1.3-3.1,2.1-5.1,2.4c-2.8,0.4-5.3-1.4-6-4.2c-1.3-5.6,0.3-10.5,4.2-14.6c3.2-3.3,7.3-5.2,11.7-6.4c2.2-0.6,4.5-0.9,6.8-1.3
		C170.6,104.8,170.8,104.8,171.2,104.8"/>
	<path class="st0" d="M133.1,197.7c0,0-9.3-1-15.3,0c0,0-1.2,0.3-1.2,1c0,0,0,0.6,1.2,0.5c0,0,9.4-1.4,15-0.8"/>
	<path class="st0" d="M150.1,197.2c2-2.8,3.8-3.1,6.8-3.1l-9.5,14.5c-2.3,3.5,0.7,2,3.4,0.3c2.3-1.5,5.3-4.5,7.4-7.6
		c0.3-0.5,0.7-0.2,0.5,0.2c-4.4,6.2-10,10.5-13.5,10.5c-1.4,0-2.6-1.2-1.7-4c-2.4,2.5-4.9,4-7.2,4c-4.3-0.2-3.7-4.9-0.9-9.2
		c2.5-3.8,8.2-10,13.1-9.2C149.9,194,150.5,195.3,150.1,197.2 M140.1,202.9c-3,4.6-4.1,8-2,8c1.6,0,5.2-3.4,8.3-8
		c3-4.6,3.8-7.8,2.1-7.8C146.9,195.1,143.1,198.2,140.1,202.9"/>
	<path class="st0" d="M180.5,197.3c2.1-3.2-0.3-2.5-3.5-0.3c-1.5,1.1-3.2,2.6-4.7,4.5l-6.6,10.3c-1.8,0-4.1-1.1-1.8-4.5l6.5-10
		c2.1-3.2-0.4-2.5-3.5-0.3c-1.5,1.1-3.3,2.7-4.7,4.5l-6.7,10.2c-1.8,0-3.9-1.1-1.8-4.5l8.6-13.2c1.7,0,3.8,1.1,2,4.1
		c2.6-2.3,6-4.4,8.3-4.4c1.5,0,2.9,1.4,1.4,4.8l0.5-0.3c2.6-2.3,6-4.4,8.3-4.4c1.8,0,3.4,2.1,0.3,6.9l-5.1,8c-2.4,3.5,0.7,2,3.3,0.3
		c2.4-1.5,5.4-4.5,7.4-7.6c0.4-0.5,0.8-0.2,0.5,0.2c-4.3,6.2-10,10.5-13.5,10.5c-1.8,0-3.4-2.1-0.3-6.9L180.5,197.3z"/>
	<path class="st0" d="M192.8,194.1c1.8,0,4,1.1,1.8,4.5l-6.6,10c-2.3,3.5,0.8,2,3.4,0.3c2.2-1.5,5.3-4.5,7.4-7.6
		c0.3-0.5,0.7-0.2,0.4,0.2c-4.3,6.2-10,10.5-13.5,10.5c-1.8,0-3.4-2.1-0.2-6.9L192.8,194.1z M198.5,186.8c1.4,0,2.3,1,2.1,2.1
		c-0.3,1.2-1.8,2.1-3.1,2.1c-1.4,0-2.4-0.9-2.1-2.1C195.6,187.8,197.2,186.8,198.5,186.8"/>
	<path class="st0" d="M211.4,197.2c2-2.8,3.8-3.1,6.8-3.1l-9.5,14.5c-2.3,3.5,0.7,2,3.4,0.3c2.3-1.5,5.3-4.5,7.4-7.6
		c0.3-0.5,0.7-0.2,0.5,0.2c-4.4,6.2-10,10.5-13.5,10.5c-1.4,0-2.6-1.2-1.7-4c-2.4,2.5-4.9,4-7.2,4c-4.3-0.2-3.7-4.9-0.9-9.2
		c2.5-3.8,8.2-10,13.1-9.2C211.2,194,211.8,195.3,211.4,197.2 M201.4,202.9c-3,4.6-4.1,8-2,8c1.6,0,5.2-3.4,8.3-8
		c3-4.6,3.8-7.8,2.1-7.8C208.2,195.1,204.4,198.2,201.4,202.9"/>
	<path class="st0" d="M240.2,201.6c-4.4,6.2-10,10.5-13.5,10.5c-1.8,0-3.4-2.1-0.3-6.9l5.2-7.9c2.1-3.2-0.4-2.5-3.5-0.3
		c-1.5,1.1-3.3,2.7-4.7,4.5l-6.7,10.2c-1.8,0-3.9-1.1-1.8-4.5l8.6-13.2c1.7,0,3.8,1.1,2,4.1c2.6-2.3,6-4.4,8.3-4.4
		c1.8,0,3.4,2.1,0.3,6.9l-5.2,8c-2.3,3.5,0.8,2,3.4,0.3c2.2-1.5,5.4-4.5,7.4-7.6C240.1,200.9,240.5,201.2,240.2,201.6"/>
	<path class="st0" d="M252.4,197.2c2-2.8,3.8-3.1,6.8-3.1l-9.5,14.5c-2.3,3.5,0.7,2,3.4,0.3c2.3-1.5,5.3-4.5,7.4-7.6
		c0.3-0.5,0.7-0.2,0.5,0.2c-4.4,6.2-10,10.5-13.5,10.5c-1.4,0-2.6-1.2-1.7-4c-2.4,2.5-4.9,4-7.2,4c-4.3-0.2-3.7-4.9-0.9-9.2
		c2.5-3.8,8.2-10,13.1-9.2C252.2,194,252.8,195.3,252.4,197.2 M242.4,202.9c-3,4.6-4.1,8-2,8c1.6,0,5.2-3.4,8.3-8
		c3-4.6,3.8-7.8,2.1-7.8C249.2,195.1,245.4,198.2,242.4,202.9"/>
	<path class="st0" d="M99.8,192.1c-0.6,3.1,0.2,7.4,5.4,9.6c0.8,0.3,1.1,0.3,1.1,0.5c-0.1,0.3-0.7,0.2-1.5-0.1
		c-4.8-1.8-6.9-6.2-6.3-10.7c0.8-6.3,7.5-11.2,17.6-11.1c3.4,0,8.8,1.1,13.8,2.5c2.7,0.8,3.2,1,6,1.7c3.5-2.7,7.4-4.7,11.7-4.1
		c2.9,0.4,4.6,1.5,4.6,3.5c0.1,1.4-1.3,3.4-4.6,3.6c-3.4,0.2-5.8-0.1-9.1-0.6c-1.7,1.4-3.5,3.7-6,6.7c-2.6,3.1-5.5,6.9-7.8,9.5
		c-0.7,0.8-2.7,3.1-3.4,3.8c-9.4,10.4-17.7,11.8-22.8,11.6c-4.5-0.2-9.2-1.7-9.3-6.2c-0.1-2.1,1.4-4.2,3.9-4.2
		c1.5,0,2.6,1.2,2.4,2.6c-0.2,0.9-0.7,1.5-1.2,2.1c-0.7,0.8-1.1,1.4-1.1,1.9c0.1,1.9,3,2.6,5.5,2.6c6.8,0.1,12.9-5.4,16.4-9.5
		c1.8-2,3.1-3.6,4.7-5.8c1.9-2.4,4-5,5.8-7.2c3.7-4.4,5.5-6.3,8.4-9c-1.9-0.4-1.8-0.5-4.7-1.1c-3.2-0.8-9.3-1.9-13.7-1.9
		C108,183,101.3,185.7,99.8,192.1 M139.7,185.7c3,0.8,6.5,0.9,8.2,0.8c2.1-0.2,3.1-1,3.1-2.1c0-1.3-1.1-2.4-4-2.3
		C144.5,182.2,141.1,184.4,139.7,185.7"/>
	<path class="st0" d="M131.2,203.1c0.3-0.7,1.6-3.6,5.2-7.2c-0.1-0.1-1.2-0.8-2.5,0.8c0,0-0.6,0.7-1.2,1.6
		C131.8,199.7,130.9,201.8,131.2,203.1"/>
	<path class="st0" d="M113.2,224.8v3.2h-1.1v-7.1h1.6c0.5,0,0.8,0,1.1,0.1c0.3,0.1,0.5,0.2,0.7,0.3c0.2,0.2,0.4,0.4,0.5,0.7
		c0.1,0.3,0.2,0.6,0.2,0.9c0,0.6-0.1,1-0.4,1.3c-0.3,0.3-0.7,0.5-1.2,0.6l2.5,3.2h-1.3l-2.4-3.2H113.2z M113.3,223.9h0.2
		c0.6,0,1-0.1,1.2-0.2c0.2-0.1,0.3-0.4,0.3-0.8c0-0.4-0.1-0.7-0.3-0.8c-0.2-0.2-0.6-0.2-1.2-0.2h-0.2V223.9z"/>
	<polygon class="st0" points="118.7,228 118.7,220.9 122.7,220.9 122.7,221.9 119.8,221.9 119.8,223.7 122.7,223.7 122.7,224.7 
		119.8,224.7 119.8,227 122.7,227 122.7,228 	"/>
	<path class="st0" d="M124.6,226.6l0.9-0.4c0.1,0.3,0.2,0.6,0.5,0.7c0.2,0.2,0.5,0.3,0.9,0.3c0.3,0,0.6-0.1,0.8-0.3
		c0.2-0.2,0.3-0.4,0.3-0.8c0-0.4-0.3-0.8-1-1.1c-0.1,0-0.2-0.1-0.2-0.1c-0.8-0.4-1.3-0.7-1.6-1c-0.3-0.3-0.4-0.7-0.4-1.1
		c0-0.6,0.2-1,0.6-1.4c0.4-0.4,0.9-0.5,1.6-0.5c0.5,0,1,0.1,1.3,0.3c0.4,0.2,0.6,0.5,0.7,0.9l-0.9,0.5c-0.1-0.2-0.3-0.4-0.5-0.5
		s-0.4-0.2-0.6-0.2c-0.3,0-0.6,0.1-0.7,0.2c-0.2,0.2-0.3,0.4-0.3,0.7c0,0.4,0.4,0.8,1.2,1.2c0.1,0,0.1,0,0.1,0.1
		c0.7,0.3,1.2,0.6,1.5,0.9c0.3,0.3,0.4,0.7,0.4,1.2c0,0.7-0.2,1.2-0.6,1.6c-0.4,0.4-1,0.6-1.7,0.6c-0.6,0-1.1-0.1-1.5-0.4
		C124.9,227.5,124.7,227.1,124.6,226.6"/>
	<path class="st0" d="M138.7,224.5c0,0.5-0.1,1-0.3,1.4c-0.2,0.4-0.5,0.8-0.8,1.2c-0.4,0.3-0.8,0.6-1.2,0.8
		c-0.5,0.2-0.9,0.3-1.4,0.3c-0.5,0-1-0.1-1.5-0.3c-0.5-0.2-0.9-0.5-1.2-0.8c-0.4-0.4-0.6-0.8-0.8-1.2c-0.2-0.4-0.3-0.9-0.3-1.4
		c0-0.5,0.1-1,0.3-1.4c0.2-0.5,0.5-0.9,0.8-1.2c0.4-0.4,0.8-0.6,1.2-0.8c0.5-0.2,0.9-0.3,1.5-0.3c0.5,0,1,0.1,1.5,0.3
		c0.5,0.2,0.9,0.5,1.2,0.8c0.4,0.4,0.6,0.8,0.8,1.2C138.6,223.5,138.7,224,138.7,224.5 M137.5,224.5c0-0.4-0.1-0.7-0.2-1
		c-0.1-0.3-0.3-0.6-0.6-0.9c-0.2-0.2-0.5-0.4-0.8-0.6c-0.3-0.1-0.7-0.2-1-0.2c-0.4,0-0.7,0.1-1,0.2c-0.3,0.1-0.6,0.3-0.8,0.6
		c-0.2,0.2-0.4,0.5-0.6,0.9c-0.1,0.3-0.2,0.7-0.2,1c0,0.4,0.1,0.7,0.2,1c0.1,0.3,0.3,0.6,0.6,0.9c0.2,0.2,0.5,0.4,0.8,0.6
		c0.3,0.1,0.7,0.2,1,0.2c0.3,0,0.7-0.1,1-0.2c0.3-0.1,0.6-0.3,0.8-0.6c0.2-0.3,0.4-0.5,0.6-0.9C137.5,225.2,137.5,224.8,137.5,224.5
		"/>
	<path class="st0" d="M142.1,224.8v3.2h-1.1v-7.1h1.6c0.5,0,0.8,0,1.1,0.1c0.3,0.1,0.5,0.2,0.7,0.3c0.2,0.2,0.4,0.4,0.5,0.7
		c0.1,0.3,0.2,0.6,0.2,0.9c0,0.6-0.1,1-0.4,1.3c-0.3,0.3-0.7,0.5-1.2,0.6l2.5,3.2h-1.3l-2.4-3.2H142.1z M142.2,223.9h0.2
		c0.6,0,1-0.1,1.2-0.2c0.2-0.1,0.3-0.4,0.3-0.8c0-0.4-0.1-0.7-0.3-0.8c-0.2-0.2-0.6-0.2-1.2-0.2h-0.2V223.9z"/>
	<polygon class="st0" points="149.9,221.9 149.9,228 148.8,228 148.8,221.9 146.9,221.9 146.9,220.9 151.8,220.9 151.8,221.9 	"/>
	<path class="st0" d="M161.1,228l-0.6-0.7c-0.3,0.3-0.7,0.5-1,0.6c-0.4,0.1-0.7,0.2-1.2,0.2c-0.7,0-1.2-0.2-1.6-0.6
		c-0.4-0.4-0.6-0.9-0.6-1.5c0-0.4,0.1-0.8,0.4-1.1c0.2-0.3,0.7-0.7,1.2-1l-0.3-0.3c-0.2-0.2-0.3-0.4-0.4-0.6
		c-0.1-0.2-0.1-0.4-0.1-0.6c0-0.5,0.2-0.8,0.5-1.2c0.3-0.3,0.8-0.4,1.3-0.4c0.5,0,1,0.1,1.3,0.4c0.3,0.3,0.5,0.6,0.5,1.1
		c0,0.3-0.1,0.7-0.3,1c-0.2,0.3-0.6,0.6-1.1,0.9l1.5,1.7c0.1-0.1,0.3-0.3,0.4-0.5c0.1-0.2,0.3-0.4,0.5-0.6l0.7,0.7
		c-0.1,0.2-0.3,0.4-0.4,0.6c-0.2,0.2-0.3,0.4-0.5,0.5l1.2,1.4H161.1z M159.9,226.6l-1.6-1.8l-0.2,0.1c-0.3,0.2-0.6,0.4-0.7,0.6
		c-0.1,0.2-0.2,0.4-0.2,0.6c0,0.3,0.1,0.6,0.3,0.8c0.2,0.2,0.5,0.3,0.8,0.3c0.2,0,0.5-0.1,0.7-0.2
		C159.4,227,159.7,226.8,159.9,226.6 M158.6,223.5l0.3-0.2c0.2-0.1,0.3-0.2,0.4-0.4c0.1-0.1,0.1-0.3,0.1-0.5c0-0.2-0.1-0.4-0.2-0.5
		c-0.1-0.1-0.3-0.2-0.5-0.2c-0.2,0-0.4,0.1-0.5,0.2c-0.1,0.1-0.2,0.3-0.2,0.5c0,0.1,0,0.2,0.1,0.3c0,0.1,0.1,0.2,0.2,0.3
		L158.6,223.5z"/>
	<path class="st0" d="M166.9,226.6l0.9-0.4c0.1,0.3,0.2,0.6,0.5,0.7c0.2,0.2,0.5,0.3,0.9,0.3c0.3,0,0.6-0.1,0.8-0.3
		c0.2-0.2,0.3-0.4,0.3-0.8c0-0.4-0.3-0.8-1-1.1c-0.1,0-0.2-0.1-0.2-0.1c-0.8-0.4-1.3-0.7-1.6-1c-0.3-0.3-0.4-0.7-0.4-1.1
		c0-0.6,0.2-1,0.6-1.4c0.4-0.4,0.9-0.5,1.6-0.5c0.5,0,1,0.1,1.3,0.3c0.4,0.2,0.6,0.5,0.7,0.9l-0.9,0.5c-0.1-0.2-0.3-0.4-0.5-0.5
		c-0.2-0.1-0.4-0.2-0.6-0.2c-0.3,0-0.6,0.1-0.7,0.2c-0.2,0.2-0.3,0.4-0.3,0.7c0,0.4,0.4,0.8,1.2,1.2c0.1,0,0.1,0,0.1,0.1
		c0.7,0.3,1.2,0.6,1.5,0.9c0.3,0.3,0.4,0.7,0.4,1.2c0,0.7-0.2,1.2-0.6,1.6c-0.4,0.4-1,0.6-1.7,0.6c-0.6,0-1.1-0.1-1.5-0.4
		C167.3,227.5,167.1,227.1,166.9,226.6"/>
	<path class="st0" d="M174.9,224.8v3.2h-1.1v-7.1h1.7c0.5,0,0.9,0,1.1,0.1c0.2,0.1,0.5,0.2,0.6,0.3c0.2,0.2,0.4,0.4,0.5,0.7
		c0.1,0.3,0.2,0.6,0.2,0.9c0,0.3-0.1,0.6-0.2,0.9c-0.1,0.3-0.3,0.5-0.5,0.7c-0.2,0.1-0.4,0.2-0.6,0.3c-0.2,0.1-0.6,0.1-1.1,0.1h-0.2
		H174.9z M175,223.9h0.3c0.6,0,1.1-0.1,1.3-0.2c0.2-0.1,0.3-0.4,0.3-0.7c0-0.4-0.1-0.6-0.3-0.8c-0.2-0.2-0.7-0.2-1.3-0.2H175V223.9z
		"/>
	<path class="st0" d="M184.3,228l-0.8-1.8h-2.8l-0.8,1.8h-1.2l3.4-7.4l3.4,7.4H184.3z M181.1,225.2h2l-0.7-1.6
		c0-0.1-0.1-0.2-0.1-0.4c0-0.1-0.1-0.3-0.1-0.5c0,0.2-0.1,0.3-0.1,0.4c0,0.1-0.1,0.3-0.1,0.4L181.1,225.2z"/>
	<path class="st0" d="M191.2,224.8v3.2h-1.1v-7.1h1.7c0.5,0,0.9,0,1.1,0.1c0.2,0.1,0.5,0.2,0.6,0.3c0.2,0.2,0.4,0.4,0.5,0.7
		c0.1,0.3,0.2,0.6,0.2,0.9c0,0.3-0.1,0.6-0.2,0.9c-0.1,0.3-0.3,0.5-0.5,0.7c-0.2,0.1-0.4,0.2-0.6,0.3c-0.2,0.1-0.6,0.1-1.1,0.1h-0.2
		H191.2z M191.3,223.9h0.3c0.6,0,1.1-0.1,1.3-0.2c0.2-0.1,0.3-0.4,0.3-0.7c0-0.4-0.1-0.6-0.3-0.8c-0.2-0.2-0.7-0.2-1.3-0.2h-0.3
		V223.9z"/>
	<polygon class="st0" points="196.4,228 196.4,220.9 197.6,220.9 197.6,223.5 201.1,223.5 201.1,220.9 202.3,220.9 202.3,228 
		201.1,228 201.1,224.6 197.6,224.6 197.6,228 	"/>
	<path class="st0" d="M204.9,220.9h1.1v4.3c0,0.6,0.1,1.1,0.4,1.4c0.3,0.3,0.7,0.5,1.3,0.5s1-0.2,1.3-0.5c0.3-0.3,0.4-0.8,0.4-1.4
		v-4.3h1.2v4.4c0,1-0.2,1.7-0.7,2.2c-0.5,0.5-1.2,0.7-2.2,0.7c-1,0-1.7-0.2-2.2-0.7c-0.5-0.5-0.7-1.2-0.7-2.2V220.9z"/>
	<path class="st0" d="M222.5,227l1.5,1.6h-1.4l-0.9-1c-0.3,0.2-0.6,0.3-1,0.4c-0.3,0.1-0.7,0.1-1,0.1c-0.5,0-1-0.1-1.4-0.3
		c-0.5-0.2-0.9-0.5-1.2-0.8c-0.4-0.4-0.6-0.8-0.8-1.2c-0.2-0.5-0.3-0.9-0.3-1.4c0-0.5,0.1-1,0.3-1.4c0.2-0.5,0.5-0.9,0.8-1.2
		c0.4-0.3,0.8-0.6,1.2-0.8c0.5-0.2,1-0.3,1.5-0.3c0.5,0,1,0.1,1.5,0.3c0.5,0.2,0.9,0.5,1.2,0.8c0.4,0.4,0.6,0.8,0.8,1.2
		c0.2,0.4,0.3,0.9,0.3,1.4c0,0.5-0.1,1-0.3,1.4C223.1,226.3,222.9,226.7,222.5,227 M221.1,225.5l0.7,0.7c0.2-0.3,0.4-0.5,0.5-0.8
		c0.1-0.3,0.2-0.6,0.2-0.9c0-0.4-0.1-0.7-0.2-1c-0.1-0.3-0.3-0.6-0.6-0.9c-0.3-0.3-0.5-0.4-0.9-0.6c-0.3-0.1-0.6-0.2-1-0.2
		c-0.3,0-0.7,0.1-1,0.2c-0.3,0.1-0.6,0.3-0.8,0.6c-0.2,0.2-0.4,0.5-0.6,0.9c-0.1,0.3-0.2,0.7-0.2,1c0,0.7,0.3,1.4,0.8,1.9
		c0.5,0.5,1.1,0.8,1.9,0.8c0.2,0,0.4,0,0.6-0.1c0.2,0,0.4-0.1,0.5-0.2l-1.3-1.4H221.1z"/>
	<path class="st0" d="M225.9,220.9h1.1v4.3c0,0.6,0.2,1.1,0.4,1.4c0.3,0.3,0.7,0.5,1.3,0.5c0.6,0,1-0.2,1.3-0.5
		c0.3-0.3,0.4-0.8,0.4-1.4v-4.3h1.2v4.4c0,1-0.2,1.7-0.7,2.2c-0.5,0.5-1.2,0.7-2.2,0.7c-1,0-1.7-0.2-2.2-0.7
		c-0.5-0.5-0.7-1.2-0.7-2.2V220.9z"/>
	<path class="st0" d="M241.6,224.5c0,0.5-0.1,1-0.3,1.4c-0.2,0.4-0.5,0.8-0.8,1.2c-0.4,0.3-0.8,0.6-1.2,0.8
		c-0.5,0.2-0.9,0.3-1.4,0.3c-0.5,0-1-0.1-1.5-0.3c-0.5-0.2-0.9-0.5-1.2-0.8c-0.4-0.4-0.6-0.8-0.8-1.2c-0.2-0.4-0.3-0.9-0.3-1.4
		c0-0.5,0.1-1,0.3-1.4c0.2-0.5,0.5-0.9,0.8-1.2c0.4-0.4,0.8-0.6,1.2-0.8c0.5-0.2,0.9-0.3,1.5-0.3c0.5,0,1,0.1,1.5,0.3
		c0.5,0.2,0.9,0.5,1.2,0.8c0.4,0.4,0.6,0.8,0.8,1.2C241.5,223.5,241.6,224,241.6,224.5 M240.4,224.5c0-0.4-0.1-0.7-0.2-1
		c-0.1-0.3-0.3-0.6-0.6-0.9c-0.2-0.2-0.5-0.4-0.8-0.6c-0.3-0.1-0.6-0.2-1-0.2c-0.4,0-0.7,0.1-1,0.2c-0.3,0.1-0.6,0.3-0.8,0.6
		c-0.2,0.2-0.4,0.5-0.6,0.9c-0.1,0.3-0.2,0.7-0.2,1c0,0.4,0.1,0.7,0.2,1c0.1,0.3,0.3,0.6,0.6,0.9c0.2,0.2,0.5,0.4,0.8,0.6
		c0.3,0.1,0.7,0.2,1,0.2c0.3,0,0.7-0.1,1-0.2c0.3-0.1,0.6-0.3,0.8-0.6c0.2-0.3,0.4-0.5,0.6-0.9C240.3,225.2,240.4,224.8,240.4,224.5
		"/>
	<path class="st0" d="M249.6,222.6c-0.3-0.3-0.7-0.5-1-0.6c-0.4-0.1-0.7-0.2-1.2-0.2c-0.8,0-1.4,0.2-1.9,0.7
		c-0.5,0.5-0.7,1.1-0.7,1.9c0,0.8,0.2,1.4,0.7,1.9c0.5,0.5,1.1,0.7,1.8,0.7c0.4,0,0.8-0.1,1.2-0.2c0.4-0.2,0.7-0.4,1.1-0.7v1.3
		c-0.3,0.2-0.7,0.4-1,0.5c-0.4,0.1-0.8,0.2-1.2,0.2c-0.5,0-1-0.1-1.5-0.3c-0.5-0.2-0.9-0.4-1.2-0.8c-0.3-0.3-0.6-0.7-0.8-1.2
		c-0.2-0.5-0.3-1-0.3-1.5c0-0.5,0.1-1,0.3-1.5c0.2-0.5,0.5-0.9,0.8-1.2c0.4-0.3,0.8-0.6,1.2-0.8c0.5-0.2,1-0.3,1.5-0.3
		c0.4,0,0.8,0.1,1.2,0.2c0.4,0.1,0.7,0.3,1.1,0.5L249.6,222.6z"/>
</g>
</svg>
