<?xml version="1.0" encoding="utf-8"?>
<!-- Generator: Adobe Illustrator 21.1.0, SVG Export Plug-In . SVG Version: 6.00 Build 0)  -->
<svg version="1.1" id="Layer_1" xmlns="http://www.w3.org/2000/svg" xmlns:xlink="http://www.w3.org/1999/xlink" x="0px" y="0px"
	 viewBox="0 0 350 255.1" style="enable-background:new 0 0 350 255.1;" xml:space="preserve">
<style type="text/css">
	.st0{fill:#1F191A;}
</style>
<g>
	<path class="st0" d="M96,176.6h-3.5v-5.2H96v-2c0-3,0.7-5.3,2.2-6.8c1.5-1.5,3.5-2.2,6.2-2.2c1.1,0,2.1,0.1,2.9,0.2
		c0.8,0.1,1.5,0.3,2.2,0.5v5.3c-0.6-0.2-1.2-0.4-1.8-0.5c-0.6-0.1-1.2-0.2-1.9-0.2c-2.4,0-3.7,1.4-3.7,4.2v1.5h7.3v5.2h-7.2v22.2H96
		V176.6z"/>
	<path class="st0" d="M125,199.3c-3.1,0-5.6-1-7.3-2.9c-1.7-1.9-2.6-4.5-2.6-7.7v-17.6h6.3v15.7c0,2.2,0.5,3.8,1.5,5
		c1,1.1,2.5,1.7,4.4,1.7c1.8,0,3.3-0.6,4.5-1.8c1.2-1.2,1.7-2.9,1.7-5v-15.6h6.3v27.6h-6.3v-4.3c-0.9,1.3-2,2.5-3.4,3.5
		C128.9,198.9,127.2,199.3,125,199.3"/>
	<path class="st0" d="M158.7,199.3c-2,0-4-0.4-6-1c-2-0.7-3.9-1.7-5.7-3.1l2.8-4.3c1.5,1.1,3.1,2,4.6,2.5c1.5,0.6,3,0.9,4.4,0.9
		c1.4,0,2.4-0.3,3.2-0.8c0.7-0.5,1.1-1.3,1.1-2.2v-0.1c0-0.5-0.2-1-0.5-1.4c-0.3-0.4-0.8-0.7-1.4-1c-0.6-0.3-1.2-0.5-2-0.8
		c-0.7-0.2-1.5-0.5-2.3-0.7c-1-0.3-2-0.6-3.1-1c-1-0.4-2-0.9-2.8-1.5c-0.8-0.6-1.5-1.4-2-2.3c-0.5-0.9-0.8-2-0.8-3.3v-0.1
		c0-1.3,0.2-2.5,0.8-3.5c0.5-1,1.2-1.9,2.1-2.7c0.9-0.7,1.9-1.3,3.1-1.7c1.2-0.4,2.5-0.6,3.8-0.6c1.7,0,3.5,0.3,5.3,0.8
		c1.8,0.6,3.4,1.3,4.9,2.3l-2.5,4.5c-1.3-0.8-2.7-1.4-4-1.9c-1.4-0.5-2.6-0.7-3.8-0.7c-1.2,0-2.2,0.3-2.9,0.8c-0.7,0.5-1,1.2-1,2
		v0.1c0,0.5,0.2,1,0.5,1.3c0.4,0.4,0.8,0.7,1.4,1c0.6,0.3,1.2,0.6,2,0.8c0.7,0.3,1.5,0.5,2.3,0.8c1,0.3,2,0.7,3,1.1
		c1,0.4,1.9,0.9,2.7,1.5c0.8,0.6,1.5,1.4,2,2.2c0.5,0.9,0.8,1.9,0.8,3.2v0.1c0,1.5-0.3,2.7-0.8,3.8c-0.5,1.1-1.2,2-2.2,2.7
		c-0.9,0.7-2,1.3-3.3,1.6C161.5,199.1,160.2,199.3,158.7,199.3"/>
	<path class="st0" d="M176.9,160.9h6.8v6h-6.8V160.9z M177.1,171.2h6.3v27.6h-6.3V171.2z"/>
	<path class="st0" d="M206.2,199.4c-2.1,0-4-0.4-5.8-1.1c-1.8-0.7-3.3-1.8-4.7-3.1c-1.3-1.3-2.3-2.8-3.1-4.6
		c-0.7-1.7-1.1-3.6-1.1-5.5V185c0-2,0.4-3.9,1.1-5.6c0.7-1.7,1.8-3.3,3.1-4.6c1.3-1.3,2.9-2.3,4.7-3.1c1.8-0.8,3.8-1.1,5.9-1.1
		c2.1,0,4.1,0.4,5.9,1.1c1.8,0.7,3.3,1.8,4.7,3.1c1.3,1.3,2.3,2.8,3.1,4.6c0.7,1.7,1.1,3.6,1.1,5.6v0.1c0,2-0.4,3.8-1.1,5.5
		c-0.7,1.7-1.8,3.3-3.1,4.6c-1.3,1.3-2.9,2.3-4.7,3.1C210.3,199,208.3,199.4,206.2,199.4 M206.3,193.9c1.3,0,2.4-0.2,3.5-0.7
		c1-0.5,1.9-1.1,2.6-1.9c0.7-0.8,1.3-1.7,1.7-2.8c0.4-1.1,0.6-2.2,0.6-3.4V185c0-1.2-0.2-2.4-0.6-3.5c-0.4-1.1-1-2-1.8-2.8
		c-0.7-0.8-1.6-1.4-2.7-1.9c-1-0.5-2.2-0.7-3.4-0.7c-1.3,0-2.4,0.2-3.4,0.7c-1,0.5-1.9,1.1-2.6,1.9c-0.7,0.8-1.3,1.7-1.7,2.8
		c-0.4,1.1-0.6,2.2-0.6,3.4v0.1c0,1.2,0.2,2.4,0.6,3.4c0.4,1.1,1,2,1.8,2.8c0.7,0.8,1.6,1.4,2.7,1.9
		C203.9,193.6,205,193.9,206.3,193.9"/>
	<path class="st0" d="M228.7,171.2h6.3v4.2c0.4-0.6,0.9-1.2,1.5-1.8c0.5-0.6,1.2-1.1,1.9-1.5c0.7-0.4,1.5-0.8,2.4-1
		c0.9-0.3,1.8-0.4,2.9-0.4c3.1,0,5.6,1,7.3,2.9c1.7,1.9,2.6,4.5,2.6,7.7v17.6h-6.3v-15.7c0-2.2-0.5-3.8-1.5-5
		c-1-1.2-2.5-1.8-4.4-1.8c-1.8,0-3.3,0.6-4.5,1.8c-1.2,1.2-1.7,2.9-1.7,5v15.6h-6.3V171.2z"/>
	<path class="st0" d="M121.6,67.5c18.1-8.1,38.5-7.7,56.3,1.2c7.1,3.6,13.4,8.3,18.8,14.1l-4.2,6.4c-8-5-17.1-8.4-26.7-9.7
		c-13-1.8-26,0.1-37.6,5.3C125.2,79.4,122.9,73.6,121.6,67.5"/>
	<path class="st0" d="M111.6,99.6c14.5-13.5,34-19.6,53.7-16.9c19.4,2.7,36.4,13.9,46.7,30.9c-14.5,13.4-33.9,19.6-53.4,16.9
		C139,127.8,121.9,116.5,111.6,99.6"/>
	<path class="st0" d="M156.9,144.5c-4,0-8-0.4-11.9-1.1c6.1-2.3,11.8-5.4,17-9.3c1.9,0.2,3.8,0.3,5.6,0.3c13.6,0,26.7-4.1,38-11.7
		C193.5,136.2,175.9,144.5,156.9,144.5"/>
	<path class="st0" d="M231.9,75.4c-0.3,0.2-0.5,0.4-1,0.7l-0.9,0.8c-0.2,0.2-0.5,0.4-0.9,0.8c-0.3,0.2-0.5,0.5-0.9,0.9
		c-0.3,0.3-0.5,0.6-0.6,0.6l-0.3,0.2c-0.5,0.6-1,1.2-1.6,2c-0.2,0.3-0.4,0.6-0.7,1l-0.2,0.3l-0.5,0.9c-1.4,2.4-2.4,5.1-3.1,7.8
		c0,0-0.9,3.7-1.2,5.1l-0.2,0.2v0.4c-1.4,4.9-3.4,9.6-5.9,13.9c-5-8-11.5-14.8-19-20l11-16.9c0.1-0.1,0.2-0.3,0.3-0.5L207,73
		c0.4-0.4,0.7-0.9,1.2-1.4l0.6-0.6c0.4-0.4,0.9-0.7,1.5-1.1l0.6-0.4c0.8-0.4,1.6-0.8,2.6-1.2c0.5-0.2,1.1-0.3,1.6-0.4
		c0.6-0.1,1.1-0.2,1.9-0.2c1.9-0.1,3.8,0.1,5.6,0.7c0.5,0.2,0.9,0.3,1.3,0.5l1.4,0.7l0,0l8.9,4.1C233.5,74.3,232.7,74.8,231.9,75.4"
		/>
</g>
</svg>
