<?xml version="1.0" encoding="utf-8"?>
<!-- Generator: Adobe Illustrator 21.1.0, SVG Export Plug-In . SVG Version: 6.00 Build 0)  -->
<svg version="1.1" id="Layer_1" xmlns="http://www.w3.org/2000/svg" xmlns:xlink="http://www.w3.org/1999/xlink" x="0px" y="0px"
	 viewBox="0 0 350 255.1" style="enable-background:new 0 0 350 255.1;" xml:space="preserve">
<style type="text/css">
	.st0{fill:#1F191A;}
</style>
<g>
	<path class="st0" d="M135.2,79c14.1-6.3,30.1-6,43.9,0.9c5.6,2.8,10.5,6.5,14.7,11l-3.2,5c-6.3-3.9-13.3-6.6-20.8-7.6
		c-10.2-1.4-20.3,0.1-29.3,4.1C138,88.3,136.3,83.7,135.2,79"/>
	<path class="st0" d="M127.4,104.1c11.4-10.5,26.6-15.3,41.9-13.2c15.2,2.1,28.4,10.9,36.5,24.1c-11.3,10.5-26.4,15.3-41.6,13.2
		C148.8,126,135.5,117.3,127.4,104.1"/>
	<path class="st0" d="M162.8,139.1c-3.1,0-6.2-0.3-9.3-0.8c4.7-1.8,9.2-4.2,13.3-7.3c1.5,0.1,2.9,0.2,4.4,0.2
		c10.6,0,20.9-3.2,29.7-9.1C191.4,132.6,177.6,139.1,162.8,139.1"/>
	<path class="st0" d="M221.4,85.1c-0.2,0.2-0.4,0.3-0.8,0.6l-0.7,0.6c-0.2,0.2-0.4,0.3-0.7,0.6c-0.2,0.2-0.4,0.4-0.7,0.7
		c-0.2,0.2-0.4,0.4-0.4,0.5l-0.2,0.2c-0.4,0.5-0.8,1-1.2,1.6c-0.2,0.2-0.3,0.4-0.5,0.8l-0.2,0.2l-0.4,0.7c-1.1,1.9-1.9,3.9-2.4,6.1
		c0,0-0.7,2.9-0.9,4l-0.1,0.1v0.3c-1.1,3.8-2.7,7.5-4.6,10.9c-3.9-6.2-9-11.5-14.8-15.6l8.6-13.2c0.1-0.1,0.1-0.2,0.2-0.4l0.4-0.5
		c0.3-0.3,0.6-0.7,1-1.1l0.5-0.5c0.3-0.3,0.7-0.5,1.1-0.9l0.5-0.3c0.6-0.3,1.2-0.6,2-0.9c0.4-0.1,0.8-0.2,1.3-0.3
		c0.4-0.1,0.9-0.1,1.5-0.2c1.5-0.1,3,0.1,4.4,0.6c0.4,0.1,0.7,0.3,1,0.4l1.1,0.5l0,0l6.9,3.2C222.6,84.3,222,84.7,221.4,85.1"/>
	<path class="st0" d="M39.4,164.5h-2.7v-4.1h2.7v-1.6c-0.1-1.9,0.5-3.8,1.7-5.3c1.3-1.2,3-1.8,4.8-1.7c0.7,0,1.5,0,2.2,0.2
		c0.6,0.1,1.2,0.2,1.7,0.4v4.1c-0.5-0.2-1-0.3-1.4-0.4c-0.5-0.1-1-0.1-1.5-0.1c-1.9,0-2.8,1.1-2.8,3.3v1.2h5.7v4h-5.6v17.2h-4.9
		V164.5z"/>
	<path class="st0" d="M62.2,182.1c-2.1,0.1-4.2-0.7-5.6-2.2c-1.4-1.7-2.1-3.8-2-6v-13.6h4.9v12.1c-0.1,1.4,0.3,2.7,1.2,3.8
		c0.9,0.9,2.1,1.4,3.4,1.3c1.3,0.1,2.6-0.4,3.5-1.4c0.9-1.1,1.4-2.5,1.3-3.9v-12h4.9v21.4h-4.9v-3.4c-0.7,1-1.6,1.9-2.6,2.7
		C65,181.8,63.6,182.2,62.2,182.1"/>
	<path class="st0" d="M88.5,182.1c-1.6,0-3.2-0.3-4.7-0.8c-1.6-0.5-3.1-1.4-4.4-2.4l2.2-3.3c1.1,0.8,2.3,1.5,3.6,2
		c1.1,0.4,2.3,0.7,3.4,0.7c0.9,0.1,1.7-0.2,2.4-0.6c0.6-0.4,0.9-1,0.9-1.7v-0.1c0-0.4-0.1-0.8-0.4-1.1c-0.3-0.3-0.7-0.6-1.1-0.8
		c-0.5-0.2-1-0.4-1.5-0.6c-0.6-0.2-1.2-0.4-1.8-0.6c-0.8-0.2-1.6-0.5-2.4-0.8c-0.8-0.3-1.5-0.7-2.1-1.2c-0.6-0.5-1.2-1.1-1.6-1.8
		c-0.4-0.8-0.6-1.7-0.6-2.6v-0.1c0-0.9,0.2-1.9,0.6-2.7c0.4-0.8,0.9-1.5,1.6-2.1c0.7-0.6,1.5-1,2.4-1.3c1-0.3,2-0.5,3-0.4
		c1.4,0,2.8,0.2,4.1,0.6c1.3,0.4,2.6,1,3.8,1.8l-1.9,3.5c-1-0.6-2-1.1-3.1-1.5c-0.9-0.3-1.9-0.5-2.9-0.6c-0.8,0-1.6,0.2-2.2,0.6
		c-0.5,0.3-0.8,0.9-0.8,1.5v0.1c0,0.4,0.1,0.8,0.4,1c0.3,0.3,0.7,0.6,1.1,0.8c0.5,0.2,1,0.5,1.5,0.6c0.6,0.2,1.2,0.4,1.8,0.6
		c0.8,0.2,1.6,0.5,2.3,0.9c0.8,0.3,1.5,0.7,2.1,1.2c0.6,0.5,1.2,1.1,1.6,1.7c0.4,0.8,0.6,1.6,0.6,2.5v0.1c0,1-0.2,2-0.6,3
		c-0.4,0.8-1,1.5-1.7,2.1c-0.8,0.6-1.6,1-2.5,1.3C90.6,181.9,89.6,182.1,88.5,182.1"/>
	<path class="st0" d="M102.9,152.4h5.3v4.7h-5.3V152.4z M103.1,160.3h4.9v21.4h-4.9V160.3z"/>
	<path class="st0" d="M125.8,182.2c-1.5,0-3.1-0.3-4.5-0.9c-1.3-0.5-2.6-1.3-3.6-2.4c-1-1-1.8-2.2-2.4-3.5c-0.6-1.4-0.9-2.8-0.9-4.3
		V171c0-1.5,0.3-3,0.9-4.3c0.6-1.3,1.4-2.5,2.4-3.5c2.2-2.1,5.1-3.3,8.2-3.3c1.6,0,3.1,0.3,4.6,0.9c1.4,0.6,2.6,1.4,3.6,2.4
		c2.1,2.1,3.2,4.9,3.2,7.8v0.1c0,1.5-0.3,2.9-0.9,4.3c-1.1,2.7-3.3,4.8-6,5.9C129,181.9,127.4,182.2,125.8,182.2 M125.9,177.9
		c0.9,0,1.8-0.2,2.7-0.6c0.8-0.4,1.5-0.8,2.1-1.5c0.6-0.6,1-1.4,1.3-2.1c0.3-0.8,0.4-1.7,0.4-2.6V171c0-0.9-0.2-1.8-0.5-2.7
		c-0.3-0.8-0.8-1.6-1.4-2.2c-0.6-0.6-1.3-1.1-2.1-1.5c-1.7-0.7-3.6-0.7-5.3,0c-0.8,0.3-1.5,0.8-2,1.5c-0.6,0.6-1,1.4-1.3,2.2
		c-0.3,0.8-0.5,1.7-0.5,2.6v0.1c0,0.9,0.2,1.8,0.5,2.7c0.3,0.8,0.8,1.5,1.4,2.2c0.6,0.6,1.3,1.1,2.1,1.5
		C124.1,177.7,125,177.9,125.9,177.9"/>
	<path class="st0" d="M143.6,160.3h4.9v3.3c0.4-0.5,0.7-1,1.2-1.4c0.4-0.5,0.9-0.9,1.5-1.2c0.6-0.3,1.2-0.6,1.8-0.8
		c0.7-0.2,1.5-0.3,2.2-0.3c2.1-0.1,4.2,0.7,5.6,2.2c1.4,1.7,2.1,3.8,2,5.9v13.6h-4.9v-12.1c0.1-1.4-0.3-2.8-1.2-3.9
		c-0.9-0.9-2.1-1.4-3.4-1.4c-1.3-0.1-2.6,0.5-3.5,1.4c-0.9,1.1-1.4,2.5-1.3,3.9v12.1h-4.9V160.3z"/>
	<path class="st0" d="M170,160.3h4.9v4.8c0.6-1.5,1.6-2.9,2.9-3.9c1.4-1,3-1.5,4.7-1.3v5.2h-0.3c-1,0-2,0.2-3,0.5
		c-0.9,0.3-1.7,0.9-2.3,1.6c-0.7,0.8-1.2,1.7-1.5,2.7c-0.4,1.2-0.5,2.4-0.5,3.7v8.1H170V160.3z"/>
	<path class="st0" d="M197.1,182.1c-1.5,0-2.9-0.3-4.3-0.8c-2.7-1-4.8-3.1-5.8-5.8c-0.6-1.4-0.9-3-0.9-4.5V171
		c0-1.5,0.2-2.9,0.8-4.3c0.5-1.3,1.2-2.5,2.2-3.5c0.9-1,2.1-1.8,3.3-2.4c1.3-0.6,2.8-0.9,4.2-0.9c1.5,0,3.1,0.3,4.5,0.9
		c1.2,0.6,2.3,1.4,3.2,2.5c0.9,1.1,1.5,2.3,1.9,3.7c0.4,1.4,0.7,2.9,0.7,4.4c0,0.2,0,0.4,0,0.7c0,0.2,0,0.5-0.1,0.7H191
		c0.2,1.6,0.9,3,2.1,4c1.1,0.9,2.6,1.4,4.1,1.4c1.1,0,2.2-0.2,3.2-0.6c1-0.5,1.9-1.1,2.6-1.9l2.9,2.6c-1,1.2-2.3,2.2-3.7,2.9
		C200.6,181.8,198.8,182.2,197.1,182.1 M201.9,169.5c-0.1-0.8-0.3-1.5-0.5-2.2c-0.2-0.7-0.6-1.3-1.1-1.8c-0.5-0.5-1-0.9-1.6-1.2
		c-0.7-0.3-1.4-0.5-2.2-0.4c-1.4,0-2.8,0.5-3.7,1.6c-1,1.1-1.7,2.6-1.8,4.1H201.9z"/>
	<path class="st0" d="M220.3,182.1c-1.6,0-3.2-0.3-4.7-0.8c-1.6-0.5-3.1-1.4-4.4-2.4l2.2-3.3c1.1,0.8,2.3,1.5,3.6,2
		c1.1,0.4,2.3,0.7,3.4,0.7c0.9,0.1,1.7-0.2,2.5-0.6c0.6-0.4,0.9-1,0.9-1.7v-0.1c0-0.4-0.1-0.8-0.4-1.1c-0.3-0.3-0.7-0.6-1.1-0.8
		c-0.5-0.2-1-0.4-1.5-0.6c-0.6-0.2-1.2-0.4-1.8-0.6c-0.8-0.2-1.6-0.5-2.4-0.8c-0.8-0.3-1.5-0.7-2.2-1.2c-0.6-0.5-1.2-1.1-1.6-1.8
		c-0.4-0.8-0.6-1.7-0.6-2.6v-0.1c0-0.9,0.2-1.9,0.6-2.7c0.4-0.8,0.9-1.5,1.6-2.1c0.7-0.6,1.5-1,2.4-1.3c1-0.3,2-0.5,3-0.4
		c1.4,0,2.8,0.2,4.1,0.6c1.3,0.4,2.6,1,3.8,1.8l-1.9,3.5c-1-0.6-2-1.1-3.1-1.5c-0.9-0.3-1.9-0.5-2.9-0.6c-0.8,0-1.6,0.2-2.2,0.6
		c-0.5,0.3-0.8,0.9-0.8,1.5v0.1c0,0.4,0.1,0.8,0.4,1c0.3,0.3,0.7,0.6,1.1,0.8c0.5,0.2,1,0.5,1.5,0.6c0.6,0.2,1.2,0.4,1.8,0.6
		c0.8,0.2,1.6,0.5,2.4,0.9c0.8,0.3,1.5,0.7,2.1,1.2c0.6,0.5,1.2,1.1,1.6,1.7c0.4,0.8,0.6,1.6,0.6,2.5v0.1c0,1-0.2,2-0.6,3
		c-0.4,0.8-1,1.5-1.7,2.1c-0.8,0.6-1.6,1-2.5,1.3C222.4,181.9,221.4,182.1,220.3,182.1"/>
	<path class="st0" d="M306.1,182.1c-1.6,0-3.2-0.3-4.7-0.8c-1.6-0.5-3.1-1.4-4.4-2.4l2.2-3.3c1.1,0.8,2.3,1.5,3.6,2
		c1.1,0.4,2.3,0.7,3.4,0.7c0.9,0.1,1.7-0.2,2.5-0.6c0.6-0.4,0.9-1,0.9-1.7v-0.1c0-0.4-0.1-0.8-0.4-1.1c-0.3-0.3-0.7-0.6-1.1-0.8
		c-0.5-0.2-1-0.4-1.5-0.6c-0.6-0.2-1.2-0.4-1.8-0.6c-0.8-0.2-1.6-0.5-2.4-0.8c-0.8-0.3-1.5-0.7-2.2-1.2c-0.6-0.5-1.2-1.1-1.6-1.8
		c-0.4-0.8-0.6-1.7-0.6-2.6v-0.1c0-0.9,0.2-1.9,0.6-2.7c0.4-0.8,0.9-1.5,1.6-2.1c0.7-0.6,1.5-1,2.4-1.3c1-0.3,2-0.5,3-0.4
		c1.4,0,2.8,0.2,4.1,0.6c1.3,0.4,2.6,1,3.8,1.8l-1.9,3.5c-1-0.6-2-1.1-3.1-1.5c-0.9-0.3-1.9-0.5-2.9-0.6c-0.8,0-1.6,0.2-2.2,0.6
		c-0.5,0.3-0.8,0.9-0.8,1.5v0.1c0,0.4,0.1,0.8,0.4,1c0.3,0.3,0.7,0.6,1.1,0.8c0.5,0.2,1,0.5,1.5,0.6c0.6,0.2,1.2,0.4,1.8,0.6
		c0.8,0.2,1.6,0.5,2.3,0.9c0.8,0.3,1.5,0.7,2.1,1.2c0.6,0.5,1.2,1.1,1.6,1.7c0.4,0.8,0.6,1.6,0.6,2.5v0.1c0,1-0.2,2-0.6,3
		c-0.4,0.8-1,1.5-1.7,2.1c-0.8,0.6-1.6,1-2.5,1.3C308.2,181.9,307.1,182.1,306.1,182.1"/>
	<path class="st0" d="M244.7,182.2c-1.5,0-3.1-0.3-4.5-0.9c-1.3-0.5-2.6-1.3-3.6-2.4c-1-1-1.8-2.2-2.4-3.5c-0.6-1.4-0.9-2.8-0.8-4.3
		V171c0-1.5,0.3-3,0.9-4.3c1.1-2.7,3.3-4.8,6-6c1.4-0.6,3-0.9,4.6-0.9c1.6,0,3.1,0.3,4.6,0.9c2.7,1.1,4.8,3.2,6,5.9
		c0.6,1.4,0.9,2.8,0.8,4.3v0.1c0,1.5-0.3,2.9-0.9,4.3c-1.1,2.7-3.3,4.8-6,5.9C247.9,181.9,246.3,182.2,244.7,182.2 M244.8,177.9
		c0.9,0,1.8-0.2,2.7-0.6c0.8-0.3,1.5-0.8,2-1.5c0.6-0.6,1-1.3,1.3-2.1c0.3-0.8,0.4-1.7,0.4-2.6V171c0-0.9-0.2-1.8-0.5-2.7
		c-0.3-0.8-0.8-1.6-1.4-2.2c-0.6-0.6-1.3-1.1-2.1-1.5c-1.7-0.7-3.6-0.7-5.3,0c-0.8,0.3-1.5,0.8-2.1,1.5c-0.6,0.6-1,1.4-1.3,2.2
		c-0.3,0.8-0.4,1.7-0.4,2.6v0.1c0,0.9,0.2,1.8,0.5,2.7c0.3,0.8,0.8,1.5,1.4,2.2c0.6,0.6,1.3,1.1,2.1,1.5
		C243,177.7,243.9,177.9,244.8,177.9"/>
	<path class="st0" d="M262.5,160.3h4.9v4.8c0.6-1.5,1.6-2.9,2.9-3.9c1.4-1,3-1.5,4.7-1.3v5.2h-0.3c-1,0-2,0.2-3,0.5
		c-0.9,0.3-1.7,0.9-2.3,1.6c-0.7,0.8-1.2,1.7-1.5,2.7c-0.4,1.2-0.6,2.4-0.5,3.7v8.1h-4.9V160.3z"/>
	<path class="st0" d="M287.7,182c-0.8,0-1.7-0.1-2.5-0.3c-0.7-0.2-1.4-0.6-2-1.1c-0.6-0.5-1-1.2-1.3-1.9c-0.3-1-0.5-2-0.4-3v-11.3
		h-2.7v-4.2h2.7v-5.9h4.9v5.9h5.7v4.2h-5.7V175c-0.1,0.7,0.2,1.5,0.7,2c0.5,0.4,1.2,0.7,1.9,0.6c1.1,0,2.1-0.2,3-0.7v4
		c-0.6,0.3-1.3,0.6-2,0.8C289.3,182,288.5,182,287.7,182"/>
</g>
</svg>
