<?xml version="1.0" encoding="utf-8"?>
<!-- Generator: Adobe Illustrator 21.1.0, SVG Export Plug-In . SVG Version: 6.00 Build 0)  -->
<svg version="1.1" id="Layer_1" xmlns="http://www.w3.org/2000/svg" xmlns:xlink="http://www.w3.org/1999/xlink" x="0px" y="0px"
	 viewBox="0 0 350 255.1" style="enable-background:new 0 0 350 255.1;" xml:space="preserve">
<style type="text/css">
	.st0{fill:#1F191A;}
</style>
<g>
	<path class="st0" d="M273.3,125.5l-0.1-0.1c0,0,0,0,0,0c-2-1.4-28.9-13.4-62.8-18.8l12.7-17.7v-4.1l-15-8.9l-4,7.1
		c4,0.3,8,1.3,11.6,3.2c-1.7,7-4.5,13.8-8.2,20c-1.9-0.3-3.7-0.5-5.6-0.7c4.5-7.3,7.3-17.1,0.3-22.7c0.7,0.1,1.3,0.1,1.9,0.2l4.3-12
		l-1.3-3.4l-19-5.6l-3.7,14.5c4.1-2.2,8.7-3.4,13.4-3.7c3.1,9.6,3.9,25.4,1.5,30.7c-0.3,0.6-0.7,1.1-1.1,1.6
		c-1.6-0.2-3.1-0.3-4.7-0.4c0.5-0.5,0.8-1.1,1-1.7c2.1-9,1.1-24.5-10.1-26.4l-0.1,0.4l0.1-0.4h0h0l2.4-18.6l-2.2-3.5h-19.8l0.8,18.3
		l-2-8.3l-3-2l-18.6,5.2l7,20.2c6.6-1.1,13.5-1.7,16.6-0.6c5.5,2,10.5,13.2,12,16.8h-0.3c-2.4-3.4-9.4-13.2-12.5-13.7
		c-3.8-0.7-21.3,1.8-21.4,3.6c0,1.1,3.6,6.9,8.6,11.3c-2.4,0.2-4.7,0.5-7.1,0.8c-4.2-4.6-7.8-9.7-10.8-15.2c0,0,7.2-1.7,14.9-3
		l-5-9.5l-4.1-0.9l-15,9.6l15.4,19.5c-11.1,1.7-22.1,4.1-32.9,7.3c-27.8,9.2-30.3,11.9-31.5,12.6c-0.1,0.1-0.2,0.2-0.3,0.2
		c-0.4,0.4-0.5,0.7-0.5,0.8c0,0.1,0.4,0.2,1.1,0.1c0.7-0.1,1.4-0.3,2.1-0.7c32.1-15.5,67.8-19.8,91.2-19.8
		c22.1-0.2,43.6,2.8,57.1,7.2c-0.1,0.3-0.2,0.5-0.3,0.8c-18.5-4.1-37.3-6-56.2-5.8c-9.8,0-19.7,0.8-29.4,2.3c-35,6.1-39,9.4-40.5,10
		c-0.2,0.1-0.4,0.2-0.6,0.3c-0.4,0.3-0.5,0.6-0.5,0.7c0.1,0.2,0.6,0.3,1.4,0.2c1.7-0.3,3.4-0.7,5.1-1.2c0.5-0.1,0.9-0.2,1.4-0.4
		c2.8-0.7,6.7-1.7,11.9-2.8c11.1-2.4,22.4-3.9,33.8-4.7c0,0.3,0.1,0.5,0.1,0.8c-0.1,0-0.2,0-0.3,0c-16.1,1.7-17,2.3-17.9,2.7
		l-0.1,0.1c-0.5,0.3-0.7,0.5-0.6,0.7c0,0.2,0.8,0.5,2.1,0.4c0.3,0,0.7-0.1,1-0.1c0.2,0,0.4-0.1,0.6-0.1c0.1,0,0.2,0,0.3-0.1v0
		c0.3-0.1,0.5-0.2,0.8-0.3l0.1,0.1c2.6-0.4,8.1-1.2,13.8-1.7c7.1-0.6,13.8-0.9,20.5-1c8.8,0,15.4,0.4,20.8,0.8c0.2,0,0.4,0,0.6,0.1
		c2,0.2,3.9,0.4,5.9,0.6c6.1,0.6,8.9,1,10.4,1.1c0.5,0.1,1.1,0,1.6-0.1c0.6-0.1,0.9-0.3,0.9-0.4c0.2-0.9-4-1.8-6.8-2.3
		c-3.6-0.7-7.6-1.3-12.1-1.9c-5.4-0.7-11.3-1.2-17-1.4c0-0.3,0-0.5,0-0.8c35.1,1.6,51.4,6.3,59.1,8.2c1.8,0.5,3.6,1,5.5,1.3
		c0.4,0,0.8,0,1.2-0.1c0.7,0,1-0.2,1.1-0.3c0-0.2,0-0.3-0.1-0.5c-0.9-1.3-6-4.4-26.4-9.3c0.1-0.3,0.2-0.5,0.2-0.8
		c18.8,3.5,37.1,9.3,54.5,17.3c0.1,0,0.1,0.1,0.2,0.1c0.6,0.3,1.3,0.5,2,0.6c0.7,0.1,1.1,0,1.1-0.1
		C275.9,127.3,275.1,126.3,273.3,125.5 M174.5,64.4c7.3,7,15.5,20.5,15.9,26.3c0.3,4.1-5.2,10.2-8.4,13.4c-0.3,0-0.6,0-0.8,0
		c2-3.2,5.4-9.1,4.8-11.6c-2.5-8.9-10.7-22.2-21.5-18.4C167.1,70.2,170.5,66.9,174.5,64.4 M168.6,101.2c-2.2-0.8-8.2-2.6-9.5-2
		c-1.3,0.6-1.7,2.1-0.9,2.4c1.5,0.1,3.1,0,4.6-0.4c0,0-4.2,4.1-6.8,3.2c-2.6-1-2.4-5.4,1.1-7c4.5-1.4,9.5-0.7,13.4,2
		c1.4,1.3,2.4,2.9,2.9,4.7c-1.1,0-2.1,0-3.2,0.1C170.2,102.9,169.6,101.8,168.6,101.2 M179.2,104c0.2-3.5,0.5-11.2-1.4-13.1
		c-6.5-6.6-20.1-14.2-27.7-5.7c0.4-4.7,1.8-9.2,4.1-13.3c9.8,2.6,23.5,10.4,26.7,15.3c2.5,3.8,0,13-1.2,16.8L179.2,104L179.2,104z"
		/>
	<rect x="224.5" y="194.3" class="st0" width="85.5" height="0.7"/>
	<polygon class="st0" points="149,201.5 147.9,201.5 147.9,194.9 140.6,194.9 140.6,201.5 139.5,201.5 139.5,187.5 140.6,187.5 
		140.6,193.9 147.9,193.9 147.9,187.5 149,187.5 	"/>
	<path class="st0" d="M166.3,194.5c0,1.3,0,2.2-0.1,2.8c0,0.5-0.2,1.1-0.3,1.6c-0.2,0.5-0.5,0.9-0.9,1.3c-0.5,0.5-1,0.8-1.6,1.1
		c-1.2,0.5-2.6,0.5-3.8,0c-0.6-0.2-1.1-0.6-1.6-1.1c-0.4-0.4-0.7-0.8-0.9-1.3c-0.2-0.5-0.3-1-0.3-1.6c-0.1-0.6-0.1-1.5-0.1-2.8
		c0-1.2,0-2.2,0.1-2.8c0-0.5,0.1-1.1,0.3-1.6c0.2-0.5,0.5-0.9,0.9-1.3c0.5-0.5,1-0.8,1.6-1.1c1.2-0.5,2.6-0.5,3.8,0
		c0.6,0.2,1.1,0.6,1.6,1.1c0.4,0.4,0.7,0.8,0.9,1.3c0.2,0.5,0.3,1,0.3,1.6C166.3,192.3,166.3,193.2,166.3,194.5 M165.2,194.5
		c0-1.1,0-2-0.1-2.5c0-0.5-0.1-1-0.3-1.5c-0.2-0.4-0.4-0.8-0.7-1.1c-0.3-0.3-0.8-0.6-1.2-0.8c-0.5-0.2-0.9-0.3-1.4-0.3
		c-0.5,0-1,0.1-1.4,0.3c-0.5,0.2-0.9,0.5-1.2,0.8c-0.2,0.2-0.4,0.5-0.6,0.8c-0.2,0.3-0.3,0.7-0.3,1c-0.1,0.5-0.1,0.9-0.1,1.4
		c0,0.5,0,1.2,0,1.9c0,1.1,0,2,0.1,2.5c0,0.5,0.1,1,0.3,1.5c0.2,0.4,0.4,0.8,0.7,1.1c0.4,0.3,0.8,0.6,1.2,0.8
		c0.5,0.2,0.9,0.3,1.4,0.3c0.5,0,1-0.1,1.4-0.3c0.5-0.2,0.9-0.5,1.2-0.8c0.3-0.3,0.6-0.7,0.7-1.1c0.2-0.5,0.3-1,0.3-1.5
		C165.2,196.4,165.2,195.6,165.2,194.5"/>
	<polygon class="st0" points="181.9,188.4 177.7,188.4 177.7,201.5 176.6,201.5 176.6,188.4 172.4,188.4 172.4,187.5 181.9,187.5 	
		"/>
	<polygon class="st0" points="197.1,201.5 188.6,201.5 188.6,187.5 197.1,187.5 197.1,188.4 189.6,188.4 189.6,194 196,194 
		196,194.9 189.6,194.9 189.6,200.6 197.1,200.6 	"/>
	<polygon class="st0" points="212.8,201.5 204.3,201.5 204.3,187.5 205.4,187.5 205.4,200.6 212.8,200.6 	"/>
	<rect x="40.7" y="194.3" class="st0" width="86.1" height="0.7"/>
	<path class="st0" d="M110.8,164.8c0,5.1,0,7.6,0.8,8.4c0.6,0.6,2.1,0.9,4.9,0.9c2,0,3.4-0.1,4.3-1.1c0.5-0.7,0.8-1.5,0.9-2.4
		c0-0.4,0.1-0.6,0.4-0.6c0.3,0,0.3,0.4,0.3,0.9c-0.1,1.5-0.3,3.1-0.6,4.6c-0.2,0.9-0.4,1.1-2.4,1.1c-2.6,0-4.8,0-6.6-0.1
		c-1.8,0-3.4-0.1-4.9-0.1c-0.4,0-1.2,0-2.1,0c-0.9,0-1.8,0.1-2.6,0.1c-0.5,0-0.7-0.1-0.7-0.4c0-0.2,0.1-0.4,0.6-0.4
		c0.4,0,0.9,0,1.3-0.1c0.8-0.2,1-0.9,1.1-2.1c0.2-1.7,0.2-4.8,0.2-8.5v-7c0-6,0-7.2,0-8.4c-0.1-1.4-0.4-1.8-1.6-2.1
		c-0.4-0.1-0.8-0.2-1.2-0.1c-0.4,0-0.6-0.1-0.6-0.4c0-0.3,0.2-0.4,0.8-0.4c1.7,0,4.1,0.1,5.1,0.1c0.9,0,3.9-0.1,5.3-0.1
		c0.6,0,0.8,0.1,0.8,0.4c0,0.3-0.2,0.4-0.7,0.4c-0.5,0-1,0-1.4,0.1c-1,0.2-1.3,0.7-1.4,2.1c-0.1,1.3-0.1,2.4-0.1,8.4L110.8,164.8z"
		/>
	<path class="st0" d="M134,165c0,3.8,0,6.6,0.2,8.3c0.1,1.2,0.4,1.9,1.5,2.1c0.6,0.1,1.2,0.1,1.8,0.1c0.5,0,0.6,0.2,0.6,0.4
		c0,0.3-0.2,0.4-0.8,0.4c-2.4,0-5-0.1-5.9-0.1c-1,0-3.3,0.1-4.7,0.1c-0.5,0-0.8-0.1-0.8-0.4c0-0.2,0.1-0.4,0.6-0.4
		c0.4,0,0.9,0,1.3-0.1c0.8-0.2,1-0.9,1.1-2.1c0.2-1.7,0.2-4.6,0.2-8.5v-7c0-6,0-7.2,0-8.4c-0.1-1.4-0.4-1.8-1.6-2.2
		c-0.5-0.1-1-0.2-1.5-0.1c-0.3,0-0.6-0.1-0.6-0.4c0-0.3,0.3-0.4,0.9-0.4c1.9,0,4.2,0.1,5.3,0.1c1.4,0,9.6,0,10.5,0
		c0.5,0,1-0.1,1.5-0.2c0.2,0,0.4-0.2,0.6-0.2c0.1,0,0.3,0.2,0.3,0.4c0,0.3-0.2,0.8-0.3,1.8c0,0.4-0.1,2.8-0.2,3.2
		c0,0.3-0.1,0.8-0.4,0.8c-0.2,0-0.5-0.2-0.5-0.7c0-0.5,0-1-0.2-1.5c-0.5-0.8-1.4-1.3-2.3-1.2l-6.1-0.1c-0.2,0-0.3,0.1-0.3,0.6v9.6
		c0,0.2,0,0.4,0.3,0.4l5.2,0c0.6,0,1.1,0,1.7,0c0.6,0,1.2-0.2,1.5-0.7c0.2-0.2,0.3-0.4,0.5-0.4c0.1,0,0.2,0.1,0.2,0.4
		c0,0.2-0.2,1.3-0.3,2.6c-0.1,0.8-0.1,2.6-0.1,2.9c0,0.3,0,0.9-0.4,0.9c-0.2,0-0.3-0.3-0.3-0.6c0-0.4-0.1-0.8-0.2-1.2
		c-0.2-0.8-0.9-1.4-1.8-1.4c-0.9-0.1-5.3-0.1-5.9-0.1c-0.2,0-0.3,0.1-0.3,0.3L134,165z"/>
	<path class="st0" d="M163.5,143.4c-1-2.8-1.8-3.3-3.4-3.8c-0.6-0.1-1.2-0.2-1.7-0.2c-0.4,0-0.5-0.2-0.5-0.5c0-0.4,0.5-0.5,1.2-0.5
		c2.4,0,5,0.2,6.5,0.2c1.1,0,3.3-0.2,5.5-0.2c0.5,0,1,0.1,1,0.5c0,0.3-0.3,0.5-0.7,0.5c-0.6-0.1-1.2,0.1-1.8,0.4
		c-0.3,0.3-0.5,0.6-0.4,1.1c0.2,1.3,0.5,2.6,1,3.9l7.7,22.8h0.2c1.9-5.5,7.8-21.7,8.9-25c0.2-0.6,0.4-1.2,0.4-1.9
		c0-0.4-0.2-0.8-0.6-1c-0.6-0.2-1.2-0.3-1.8-0.3c-0.4,0-0.8-0.1-0.8-0.4c0-0.4,0.4-0.5,1.3-0.5c2.3,0,4.1,0.2,4.7,0.2
		c0.8,0,2.9-0.2,4.2-0.2c0.6,0,0.9,0.1,0.9,0.5c0,0.3-0.3,0.5-0.7,0.5c-0.8,0-1.6,0.2-2.2,0.6c-0.6,0.5-1.3,1.3-2.5,4.5
		c-1.8,4.7-3,7.4-5.4,13.6c-2.9,7.3-5,12.8-6,15.3c-1.2,2.9-1.4,3.7-2.1,3.7c-0.6,0-0.9-0.7-1.7-3.1L163.5,143.4z"/>
	<path class="st0" d="M198.2,166.4c-0.2,0-0.3,0-0.3,0.3l-2,5.3c-0.3,0.8-0.5,1.6-0.6,2.4c0,0.7,0.3,1.1,1.5,1.1h0.6
		c0.5,0,0.6,0.2,0.6,0.4c0,0.3-0.2,0.4-0.6,0.4c-1.2,0-2.9-0.1-4.1-0.1c-0.4,0-2.4,0.1-4.3,0.1c-0.5,0-0.7-0.1-0.7-0.4
		c0-0.2,0.1-0.4,0.3-0.4c0,0,0.1,0,0.1,0c0.3,0,0.8,0,1.1,0c1.7-0.3,2.3-1.5,3.1-3.5l9.7-25c0.4-1.1,0.7-1.6,1.1-1.6
		c0.5,0,0.7,0.4,1.1,1.3c0.9,2.2,7,18.5,9.4,24.5c1.4,3.6,2.5,4.1,3.2,4.3c0.5,0.1,0.9,0.1,1.4,0.1c0.3,0,0.5,0.1,0.5,0.4
		c0,0.3-0.2,0.4-1.6,0.4c-1.3,0-4,0-7.1-0.1c-0.7,0-1.1,0-1.1-0.3c0-0.2,0.1-0.4,0.5-0.4c0.3-0.1,0.5-0.5,0.4-0.8c0,0,0,0,0-0.1
		l-2.9-8c0-0.2-0.2-0.3-0.4-0.3L198.2,166.4z M206.1,164.2c0.2,0,0.2-0.1,0.2-0.2l-3.5-10.1c0-0.1-0.1-0.4-0.2-0.4
		c-0.1,0-0.2,0.3-0.2,0.4l-3.6,10.1c-0.1,0.2,0,0.3,0.1,0.3H206.1z"/>
	<path class="st0" d="M230.4,164.8c0,5.1,0,7.6,0.8,8.4c0.6,0.6,2.1,0.9,4.9,0.9c2,0,3.4-0.1,4.3-1.1c0.5-0.7,0.8-1.5,0.9-2.4
		c0-0.4,0.1-0.6,0.4-0.6c0.3,0,0.3,0.4,0.3,0.9c-0.1,1.5-0.3,3.1-0.6,4.6c-0.2,0.9-0.4,1.1-2.4,1.1c-2.6,0-4.8,0-6.6-0.1
		c-1.9,0-3.4-0.1-4.9-0.1c-0.4,0-1.2,0-2.1,0c-0.9,0-1.8,0.1-2.6,0.1c-0.5,0-0.7-0.1-0.7-0.4c0-0.2,0.1-0.4,0.6-0.4
		c0.4,0,0.9,0,1.3-0.1c0.7-0.2,1-0.9,1.1-2.1c0.2-1.7,0.2-4.8,0.2-8.5v-7c0-6,0-7.2,0-8.4c-0.1-1.4-0.4-1.8-1.6-2.1
		c-0.4-0.1-0.8-0.2-1.2-0.1c-0.4,0-0.6-0.1-0.6-0.4c0-0.3,0.3-0.4,0.8-0.4c1.7,0,4.1,0.1,5.1,0.1c0.9,0,3.9-0.1,5.3-0.1
		c0.5,0,0.8,0.1,0.8,0.4c0,0.3-0.2,0.4-0.7,0.4c-0.5,0-1,0-1.4,0.1c-1,0.2-1.3,0.7-1.4,2.1c-0.1,1.3-0.1,2.4-0.1,8.4V164.8z"/>
	<path class="st0" d="M255.9,164.8c0,5.1,0,7.6,0.8,8.4c0.6,0.6,2.1,0.9,4.9,0.9c2,0,3.4-0.1,4.3-1.1c0.5-0.7,0.8-1.5,0.9-2.4
		c0-0.4,0.1-0.6,0.4-0.6c0.2,0,0.3,0.4,0.3,0.9c-0.1,1.5-0.3,3.1-0.5,4.6c-0.2,0.9-0.4,1.1-2.4,1.1c-2.6,0-4.8,0-6.6-0.1
		c-1.8,0-3.4-0.1-4.9-0.1c-0.4,0-1.2,0-2.1,0c-0.9,0-1.8,0.1-2.6,0.1c-0.5,0-0.7-0.1-0.7-0.4c0-0.2,0.1-0.4,0.6-0.4
		c0.4,0,0.9,0,1.3-0.1c0.8-0.2,1-0.9,1.1-2.1c0.2-1.7,0.2-4.8,0.2-8.5v-7c0-6,0-7.2,0-8.4c-0.1-1.4-0.4-1.8-1.6-2.1
		c-0.4-0.1-0.8-0.2-1.2-0.1c-0.4,0-0.6-0.1-0.6-0.4c0-0.3,0.2-0.4,0.8-0.4c1.7,0,4.1,0.1,5.1,0.1c0.9,0,3.9-0.1,5.3-0.1
		c0.5,0,0.8,0.1,0.8,0.4c0,0.3-0.2,0.4-0.7,0.4c-0.5,0-1,0-1.4,0.1c-1,0.2-1.3,0.7-1.4,2.1c-0.1,1.3-0.1,2.4-0.1,8.4V164.8z"/>
	<path class="st0" d="M274.2,157.8c0-6,0-7.2,0-8.4c-0.1-1.4-0.4-1.8-1.6-2.2c-0.5-0.1-1-0.2-1.5-0.1c-0.4,0-0.6-0.1-0.6-0.4
		c0-0.3,0.3-0.4,0.8-0.4c1.9,0,4.3,0.1,5.3,0.1c1.2,0,9.4,0,10.1,0c0.5,0,1-0.1,1.5-0.2c0.2-0.1,0.4-0.1,0.6-0.2
		c0.2,0,0.3,0.2,0.3,0.4c-0.2,0.9-0.3,1.7-0.3,2.6c0,0.4-0.1,2.1-0.2,2.6c0,0.2-0.1,0.7-0.4,0.7c-0.2,0-0.3-0.2-0.3-0.5
		c0-0.5-0.1-1-0.3-1.5c-0.3-0.7-0.6-1.3-2.4-1.5c-0.6-0.1-5-0.2-5.8-0.2c-0.2,0-0.3,0.1-0.3,0.4v9.8c0,0.2,0,0.4,0.3,0.4
		c0.8,0,5.6,0,6.5-0.1c0.9-0.1,1.4-0.2,1.8-0.6c0.3-0.3,0.4-0.5,0.6-0.5c0.2,0,0.3,0.2,0.3,0.4c0,0.2-0.1,0.9-0.3,2.9
		c-0.1,0.8-0.2,2.4-0.2,2.7c0,0.3,0,0.9-0.4,0.9c-0.2,0-0.3-0.1-0.3-0.2c0,0,0-0.1,0-0.1c0-0.5-0.1-1-0.1-1.4
		c-0.2-0.8-0.7-1.4-2.1-1.6c-0.7-0.1-4.9-0.2-5.8-0.2c-0.2,0-0.2,0.2-0.2,0.4v3.2c0,1.3,0,4.7,0,5.9c0.1,2.7,1.2,3.3,5,3.3
		c1.2,0.1,2.4-0.1,3.5-0.5c0.9-0.5,1.3-1.3,1.6-3c0.1-0.4,0.2-0.6,0.4-0.6c0.3,0,0.3,0.5,0.3,0.9c-0.1,1.5-0.2,2.9-0.5,4.4
		c-0.2,1-0.6,1-2,1c-2.8,0-5,0-6.8-0.1c-1.8,0-3.2-0.1-4.3-0.1c-0.4,0-1.2,0-2.1,0c-0.9,0-1.8,0.1-2.6,0.1c-0.5,0-0.7-0.1-0.7-0.4
		c0-0.2,0.1-0.4,0.6-0.4c0.4,0,0.9,0,1.3-0.1c0.8-0.2,1-0.9,1.1-2.1c0.2-1.7,0.2-4.8,0.2-8.5L274.2,157.8z"/>
	<path class="st0" d="M305.2,166c0.1-1.4-0.2-2.9-0.8-4.2c-0.3-0.6-5.3-9.4-6.6-11.5c-0.6-1.1-1.4-2.1-2.4-2.8
		c-0.5-0.3-1-0.5-1.6-0.5c-0.3,0-0.5-0.1-0.5-0.4c0-0.3,0.2-0.4,0.7-0.4c0.6,0,3.4,0.1,4.6,0.1c0.8,0,2.5-0.1,4.2-0.1
		c0.3,0,0.5,0.1,0.5,0.4c0,0.3-0.3,0.3-0.8,0.5c-0.3,0.1-0.5,0.3-0.5,0.6c0.1,0.5,0.2,0.9,0.5,1.3c0.7,1.2,5.5,10.5,6.1,11.7
		c0.5-0.9,5-9.5,5.5-10.7c0.3-0.7,0.5-1.4,0.5-2.1c0-0.5-0.3-0.9-0.8-0.9c-0.3-0.1-0.7-0.1-0.7-0.5c0-0.3,0.2-0.4,0.6-0.4
		c1.2,0,2.5,0.1,3.6,0.1c0.8,0,3.2-0.1,3.9-0.1c0.4,0,0.7,0.1,0.7,0.3c0,0.3-0.3,0.5-0.7,0.5c-0.6,0-1.1,0.2-1.6,0.5
		c-0.8,0.4-1.5,1.1-1.9,1.9c-2.6,4.1-5,8.4-7.2,12.7c-0.4,1.3-0.6,2.6-0.5,4v3.2c0,0.7,0,2.3,0.1,4c0.1,1.2,0.4,1.9,1.5,2.1
		c0.6,0.1,1.2,0.1,1.9,0.1c0.4,0,0.6,0.2,0.6,0.4c0,0.3-0.3,0.4-0.8,0.4c-2.3,0-4.8-0.1-5.8-0.1c-0.9,0-3.4,0.1-4.8,0.1
		c-0.5,0-0.8-0.1-0.8-0.4c0-0.2,0.2-0.4,0.6-0.4c0.4,0,0.9,0,1.3-0.1c0.7-0.2,1-0.9,1.1-2.1c0.1-1.7,0.1-3.3,0.1-4L305.2,166z"/>
	<path class="st0" d="M55.4,167.4v4.7c0.1,0.7-0.2,1.5-0.8,1.9c-1.2,0.5-2.5,0.6-3.8,0.6c-9.5,0-15.6-8.1-15.6-18.8
		c0-6.2,1.6-9.9,4.1-12.3c2.4-2.2,5.6-3.3,8.9-3.1c3.7-0.1,7.4,1.3,10,3.9c0.9,1.2,1.5,2.6,1.5,4.2c0.1,0.4,0.1,0.6,0.5,0.6
		c0.4,0,0.5-0.2,0.5-1c0-2.7,0.1-5.5,0.3-8.2c0-0.3-0.1-0.5-0.6-0.6c-1.2-0.1-2.4-0.3-3.5-0.5c-2.6-0.5-5.3-0.8-8-0.8
		c-4.3-0.2-8.5,0.9-12.1,3.3c-5.2,3.8-8.1,10-7.8,16.4c0,13.8,9.7,19.6,20.7,19.6c3.7,0.1,7.5-0.6,10.8-2.3c0.5-0.3,0.6-0.5,0.6-1.8
		v-5.5c0-2.3,0-4.2,0-5.7c-1.8,0.6-3.8,1-5.7,1V167.4z"/>
	<path class="st0" d="M89.7,146.7c-1.9-0.6-3.9-1-5.9-0.9c-0.1,0-0.3,0-0.4,0c-5.6,0-11,1.7-15.6,4.9c-10.9,7.1-14.1,8.9-23.9,5.1
		c0,0,10.3,7.4,19.9,1.6c2.7-1.6,3.2-2.1,6.1-3.9c1.5-1,2.9-2,4.4-2.9c1.4-1,2.9-1.8,4.5-2.4c2.9-1.1,6.2-0.7,8.9,1
		c2.4,1.7,4.1,4.1,5,6.9c0.5,1.9,0.8,4,0.8,6c0,11.3-5.9,12.6-8.5,12.6c-6.9,0-11.1-6.4-11.1-14.6c-0.1-2.3,0.3-4.5,1.1-6.7l-1.6,1
		c-0.7,0.4-1.3,0.9-2,1.3l-1.1,0.7c-0.5,0.3-0.9,0.6-1.3,0.9c-0.3,1.3-0.5,2.7-0.5,4c0,7.1,4.3,15.5,15.1,15.5
		c9.5,0,15.4-7.1,15.4-16.3C98.8,153.7,95.4,148.7,89.7,146.7"/>
</g>
</svg>
