<?xml version="1.0" encoding="utf-8"?>
<!-- Generator: Adobe Illustrator 21.1.0, SVG Export Plug-In . SVG Version: 6.00 Build 0)  -->
<svg version="1.1" id="Layer_1" xmlns="http://www.w3.org/2000/svg" xmlns:xlink="http://www.w3.org/1999/xlink" x="0px" y="0px"
	 viewBox="0 0 350 255.1" style="enable-background:new 0 0 350 255.1;" xml:space="preserve">
<style type="text/css">
	.st0{fill:#1F191A;}
</style>
<g>
	<path class="st0" d="M179.6,63.8c0,2.5-2,4.5-4.5,4.5c-2.5,0-4.6-2-4.6-4.5c0-2.5,2-4.5,4.6-4.5C177.5,59.3,179.6,61.3,179.6,63.8"
		/>
	<path class="st0" d="M220.6,73.2c-1-2.5-2.7-4.8-4.8-6.5l-0.7-0.5l-0.1,0c-2.2-1.6-4.9-2.6-7.6-2.9c-2.6-0.3-5.2,0.1-7.6,1
		c-2.4,0.9-4.5,2.4-6.2,4.4l-0.1,0.1L184,81.5l-4.2-5.6l-4.7-6.2l-4.7,6.2l-4.2,5.6l-9.7-12.7l-0.1-0.1c-1.7-1.9-3.8-3.4-6.2-4.4
		c-2.4-1-5-1.3-7.6-1c-2.7,0.3-5.4,1.3-7.6,2.9l-0.1,0l-0.7,0.5c-2.2,1.7-3.8,3.9-4.9,6.5c-0.8,1.9-1.2,3.9-1.2,5.9
		c0,0.5,0,1.1,0.1,1.6c0,0,0,0,0,0.1c0.3,2.8,1.4,5.5,3.1,7.8l0,0l14.6,19.2l-7.5,9.8c-0.4,0.5-0.9,1-1.2,1.6
		c-1.4,2.1-2.3,4.6-2.5,7.1c-0.1,0.5-0.1,1.1-0.1,1.6c0,4.4,1.9,8.6,5.1,11.6c0.8,0.8,1.7,1.4,2.7,2c1.2,0.7,2.6,1.3,3.9,1.7
		c1.4,0.4,2.8,0.6,4.3,0.6c2.9,0,5.7-0.8,8.2-2.3c1.5-0.9,2.8-2,3.9-3.3c1.1,1.3,2.4,2.4,3.9,3.3c2.5,1.5,5.3,2.3,8.2,2.3
		c2.9,0,5.7-0.8,8.2-2.3c1.5-0.9,2.8-2,3.9-3.3c1.1,1.3,2.4,2.4,3.9,3.3c2.5,1.5,5.3,2.3,8.2,2.3c1.4,0,2.9-0.2,4.3-0.6
		c1.4-0.4,2.7-0.9,3.9-1.7c1-0.6,1.8-1.2,2.7-2c3.2-3,5.1-7.2,5.1-11.6c0-0.5,0-1.1-0.1-1.6c-0.3-2.5-1.1-5-2.5-7.1
		c-0.4-0.6-0.8-1.1-1.2-1.6l-7.5-9.8l14.6-19.2l0,0c1.7-2.3,2.8-5,3.1-7.8c0,0,0-0.1,0-0.1c0.1-0.5,0.1-1.1,0.1-1.6
		C221.8,77.1,221.4,75.1,220.6,73.2 M166.1,93.9l4.8-6.3l4.2-5.5l3.6,4.7l5.3,7l0.3,0.4l10.3,13.6l-4.3,5.6l-3.2,4.2l-6.9-9.1
		l-0.5-0.7l-3.2-4.2l-1.5-2l-1.5,2l-5.1,6.7l-5.6,7.3l-3.2-4.2l-4.3-5.6L166.1,93.9L166.1,93.9z M137.7,84.5
		c-0.1-0.2-0.3-0.3-0.4-0.5c-1-1.4-1.5-3.1-1.5-4.8c0-2.6,1.2-5,3.3-6.6c0.1-0.1,0.2-0.1,0.3-0.2c1.5-1,3.2-1.6,5-1.6
		c2.4,0,4.8,1,6.4,2.9c0.3,0.3,0.5,0.6,0.7,1l0.1,0.2l9.9,13l-10.6,13.9l-3.1-4l0,0L137.7,84.5z M151.7,136.3c-0.3,0-0.7,0.1-1,0.1
		c-2.5,0-4.8-1.1-6.3-2.8c-1.3-1.5-2.2-3.4-2.2-5.6c0-1.6,0.5-3.1,1.3-4.5l7.2-9.4l4.3,5.6l2.8,3.6c0.7,1,1.1,2.2,1.3,3.4
		c0,0,0,0,0,0c0,0.4-0.1,0.9-0.1,1.3c0,0.4,0,0.8,0.1,1.2C158.5,132.9,155.5,135.8,151.7,136.3 M175,136.4c-4.2,0-7.8-3.1-8.4-7.2
		c0-0.4,0.1-0.8,0.1-1.2c0-0.4,0-0.8-0.1-1.3c0.2-1.1,0.6-2.2,1.2-3.2l7.2-9.4l7,9.2c0.7,1.1,1.2,2.3,1.3,3.5c0,0.4,0,0.8,0,1.2
		c0,0.4,0,0.8,0,1.1C182.8,133.2,179.3,136.4,175,136.4 M206.5,123.5c0.9,1.3,1.3,2.9,1.3,4.5c0,2.2-0.8,4.1-2.2,5.6
		c-1.5,1.7-3.8,2.8-6.3,2.8c-0.4,0-0.7,0-1-0.1c-3.8-0.5-6.9-3.4-7.4-7.2c0-0.4,0-0.8,0-1.1c0-0.4,0-0.8,0-1.2c0,0,0-0.1,0-0.1
		c0.2-1.2,0.6-2.3,1.3-3.4l2.8-3.6l4.3-5.6L206.5,123.5z M212.7,84c-0.1,0.2-0.3,0.4-0.4,0.5l-10,13.2l0,0l-3.1,4l-10.6-13.9l9.9-13
		l0.1-0.2c0.2-0.3,0.5-0.7,0.7-1c1.6-1.8,4-2.9,6.4-2.9c1.8,0,3.5,0.6,5,1.6c0.1,0.1,0.2,0.1,0.3,0.2c2.1,1.6,3.3,4,3.3,6.6
		C214.3,80.9,213.8,82.5,212.7,84"/>
	<rect x="30" y="165.1" class="st0" width="6.5" height="32.4"/>
	<path class="st0" d="M40.9,173.2h6.5v2l1.6-2H54c0.9,0,1.7,0.4,2.3,1.2c0.7,0.8,1,1.8,1,2.8v20.3h-6.6v-18.2h-3.3v18.2h-6.5V173.2z
		"/>
	<path class="st0" d="M62.6,196.3c-0.6-0.8-1-1.8-1-2.8v-16.2c0-1.1,0.3-2,1-2.8c0.7-0.8,1.4-1.2,2.3-1.2h6.5v-8.1H78v32.4h-6.5v-2
		l-1.6,2h-4.9C64,197.5,63.3,197.1,62.6,196.3 M71.5,179.3h-3.3v12.2h3.3V179.3z"/>
	<path class="st0" d="M83.4,196.3c-0.7-0.8-1-1.8-1-2.8v-16.2c0-1.1,0.3-2,1-2.8c0.6-0.8,1.4-1.2,2.3-1.2h9.8c0.9,0,1.6,0.4,2.3,1.2
		c0.7,0.8,1,1.8,1,2.8v16.2c0,1.1-0.3,2-1,2.8c-0.7,0.8-1.4,1.2-2.3,1.2h-9.8C84.8,197.5,84.1,197.1,83.4,196.3 M92.3,179.3H89v12.2
		h3.3V179.3z"/>
	<path class="st0" d="M104.2,196.3c-0.6-0.8-1-1.8-1-2.9v-16.2c0-1.1,0.3-2,1-2.9c0.6-0.8,1.4-1.2,2.3-1.2h9.8
		c0.9,0,1.7,0.4,2.3,1.2c0.7,0.8,1,1.8,1,2.9v6.1H113v-4.1h-3.3v12.2h3.3v-4h6.5v6.1c0,1.1-0.3,2-1,2.9c-0.6,0.8-1.4,1.2-2.3,1.2
		h-9.8C105.6,197.5,104.8,197.1,104.2,196.3"/>
	<path class="st0" d="M123.9,165.1h6.5v10.1l1.6-2h4.9c0.9,0,1.7,0.4,2.3,1.2c0.7,0.8,1,1.8,1,2.8v20.3h-6.5v-18.2h-3.3v18.2h-6.5
		V165.1z"/>
	<path class="st0" d="M144.7,165.1h6.5v6.1h-6.5V165.1z M144.7,173.2h6.5v24.3h-6.5V173.2z"/>
	<path class="st0" d="M155.6,173.2h6.5v2l1.6-2h4.9c0.9,0,1.7,0.4,2.3,1.2c0.7,0.8,1,1.8,1,2.8v20.3h-6.5v-18.2h-3.3v18.2h-6.5
		V173.2z"/>
	<path class="st0" d="M177.4,196.3c-0.6-0.8-1-1.8-1-2.8v-16.2c0-1.1,0.3-2,1-2.8c0.6-0.8,1.4-1.2,2.3-1.2h9.8
		c0.9,0,1.7,0.4,2.3,1.2c0.7,0.8,1,1.8,1,2.8v10.1h-9.8v4.1h3.3v-2h6.5v4.1c0,1.1-0.3,2-1,2.8c-0.6,0.8-1.4,1.2-2.3,1.2h-9.8
		C178.8,197.5,178,197.1,177.4,196.3 M186.2,179.3h-3.3v2h3.3V179.3z"/>
	<path class="st0" d="M208,165.1h11.5c1.4,0,2.5,0.6,3.5,1.8c1,1.2,1.4,2.6,1.4,4.3v10.1c0,1.7-0.5,3.1-1.4,4.3
		c-1,1.2-2.1,1.8-3.5,1.8h-4.9v10.1H208V165.1z M217.9,171.2h-3.3v10.1h3.3V171.2z"/>
	<path class="st0" d="M229.8,196.3c-0.6-0.8-1-1.8-1-2.8v-8.1c0-1.1,0.3-2,1-2.9c0.7-0.8,1.4-1.2,2.3-1.2h6.5v-2h-9.8v-6.1h13.1
		c0.9,0,1.7,0.4,2.3,1.2c0.6,0.8,1,1.8,1,2.8v20.3h-4.1l-0.8-2l-1.6,2h-6.5C231.2,197.5,230.4,197.1,229.8,196.3 M238.6,187.4h-3.3
		v4.1h3.3V187.4z"/>
	<path class="st0" d="M250.5,196.3c-0.6-0.8-1-1.8-1-2.9v-28.4h6.5v26.3h1.6v6.1h-4.9C251.9,197.5,251.2,197.1,250.5,196.3"/>
	<path class="st0" d="M263.1,196.3c-0.6-0.8-1-1.8-1-2.8v-8.1c0-1.1,0.3-2,1-2.9c0.7-0.8,1.4-1.2,2.3-1.2h6.5v-2h-9.8v-6.1h13.1
		c0.9,0,1.7,0.4,2.3,1.2c0.6,0.8,1,1.8,1,2.8v20.3h-4.1l-0.8-2l-1.6,2h-6.5C264.5,197.5,263.7,197.1,263.1,196.3 M271.9,187.4h-3.3
		v4.1h3.3V187.4z"/>
	<path class="st0" d="M283.8,196.3c-0.7-0.8-1-1.8-1-2.9v-16.2c0-1.1,0.3-2,1-2.9c0.6-0.8,1.4-1.2,2.3-1.2h9.8
		c0.9,0,1.6,0.4,2.3,1.2c0.7,0.8,1,1.8,1,2.9v6.1h-6.6v-4.1h-3.3v12.2h3.3v-4h6.6v6.1c0,1.1-0.3,2-1,2.9c-0.7,0.8-1.4,1.2-2.3,1.2
		h-9.8C285.3,197.5,284.5,197.1,283.8,196.3"/>
	<path class="st0" d="M304.6,196.3c-0.6-0.8-1-1.8-1-2.8v-16.2c0-1.1,0.3-2,1-2.8c0.6-0.8,1.4-1.2,2.3-1.2h9.8
		c0.9,0,1.6,0.4,2.3,1.2c0.6,0.8,1,1.8,1,2.8v10.1h-9.8v4.1h3.3v-2h6.5v4.1c0,1.1-0.3,2-1,2.8c-0.7,0.8-1.4,1.2-2.3,1.2h-9.8
		C306,197.5,305.3,197.1,304.6,196.3 M313.5,179.3h-3.3v2h3.3V179.3z"/>
</g>
</svg>
