<?xml version="1.0" encoding="utf-8"?>
<!-- Generator: Adobe Illustrator 21.1.0, SVG Export Plug-In . SVG Version: 6.00 Build 0)  -->
<svg version="1.1" id="Layer_1" xmlns="http://www.w3.org/2000/svg" xmlns:xlink="http://www.w3.org/1999/xlink" x="0px" y="0px"
	 viewBox="0 0 350 255.1" style="enable-background:new 0 0 350 255.1;" xml:space="preserve">
<style type="text/css">
	.st0{fill:#1F191A;}
</style>
<g>
	<path class="st0" d="M128.1,198.3c-3.8,0-6.9,3-6.9,6.7c0,3.7,3.1,6.7,6.9,6.7c1.3,0,2.5-0.3,3.5-0.9l1.5,1.3l1.4-1.7l-1.2-1
		c1.1-1.2,1.7-2.8,1.7-4.4C135.1,201.3,132,198.3,128.1,198.3 M130.5,206.9l-1.4,1.7l0.6,0.5c-0.5,0.2-1.1,0.3-1.6,0.3
		c-2.6,0-4.7-2-4.7-4.4c0-2.5,2.1-4.5,4.7-4.5c2.6,0,4.6,2,4.6,4.5c0,1.1-0.4,2.1-1.1,2.9L130.5,206.9z"/>
	<path class="st0" d="M146.6,206c0,2.1-1.2,3.4-3.2,3.4c-2,0-3.2-1.3-3.2-3.4v-7.7h-2.2v7.8c0,3.3,2.2,5.6,5.5,5.6
		c3.3,0,5.5-2.2,5.5-5.6v-7.8h-2.3V206z"/>
	<polygon class="st0" points="156.9,204.5 153.2,198.3 150.6,198.3 155.8,207 155.8,211.6 158.1,211.6 158.1,207 163.3,198.3 
		160.7,198.3 	"/>
	<polygon class="st0" points="181.2,207.3 173.9,198.3 173.1,198.3 172.9,198 172.9,198.3 172.3,198.3 172.3,211.6 174.5,211.6 
		174.5,202.6 181.8,211.6 182.6,211.6 182.8,211.9 182.8,211.6 183.4,211.6 183.4,198.3 181.2,198.3 	"/>
	<polygon class="st0" points="195.1,204.5 189.2,204.5 189.2,198.3 186.9,198.3 186.9,211.6 189.2,211.6 189.2,206.7 195.1,206.7 
		195.1,211.6 197.4,211.6 197.4,198.3 195.1,198.3 	"/>
	<path class="st0" d="M207.2,198.3c-3.8,0-6.9,3-6.9,6.7c0,3.7,3.1,6.7,6.9,6.7c3.8,0,6.9-3,6.9-6.7
		C214.1,201.3,211,198.3,207.2,198.3 M207.2,209.4c-2.6,0-4.7-2-4.7-4.4c0-2.5,2.1-4.5,4.7-4.5c2.6,0,4.6,2,4.6,4.5
		C211.8,207.4,209.7,209.4,207.2,209.4"/>
	<polygon class="st0" points="225.9,198.3 225.9,207.3 218.6,198.3 217.8,198.3 217.6,198 217.6,198.3 217,198.3 217,211.6 
		219.2,211.6 219.2,202.6 226.5,211.6 227.3,211.6 227.5,211.9 227.5,211.6 228.1,211.6 228.1,198.3 	"/>
	<path class="st0" d="M180.3,42.7c2.4,3.1,1.9,7.6-1.2,10c-1,0.8-2.2,1.3-3.4,1.4c-0.3,0-0.5,0-0.8,0.1c0,0-0.1,0-0.1,0
		c-2.1,0.3-4.2,1.1-6,2.5c-4.5,3.5-5.9,9.6-3.7,14.6c0,0,0,0,0,0c0.3,0.7,0,1.5-0.6,2c-0.7,0.5-1.6,0.5-2.2,0c0,0,0,0,0,0
		c-0.1-0.1-0.2-0.2-0.2-0.2l0,0c-0.3-0.3-0.5-0.6-0.8-0.9c-6.8-8.7-5.3-21.3,3.4-28.1c2.5-1.9,5.2-3.2,8.1-3.8c0,0,0.1,0,0.1,0
		c0.4-0.1,0.9-0.2,1.3-0.2c0,0,0,0,0.1,0C176.4,39.8,178.7,40.7,180.3,42.7"/>
	<path class="st0" d="M206.7,76.5c-3.1,2.4-7.6,1.9-10-1.2c-0.8-1-1.3-2.2-1.5-3.4c0-0.3,0-0.5-0.1-0.8c0,0,0,0,0-0.1
		c-0.3-2.1-1.1-4.2-2.5-6c-3.5-4.5-9.6-5.9-14.6-3.7c0,0,0,0,0,0c-0.7,0.2-1.5,0-2-0.6c-0.5-0.7-0.5-1.6,0-2.3c0,0,0,0,0,0
		c0.1-0.1,0.2-0.2,0.2-0.2l0,0c0.3-0.3,0.6-0.5,0.9-0.8c8.7-6.8,21.3-5.3,28.1,3.4c1.9,2.5,3.2,5.2,3.8,8.1c0,0,0,0.1,0,0.1
		c0.1,0.4,0.2,0.9,0.2,1.3c0,0,0,0,0,0.1C209.6,72.7,208.7,75,206.7,76.5"/>
	<path class="st0" d="M173,102.5c-2.5-3.2-2.1-7.8,1-10.2c1-0.8,2.2-1.3,3.4-1.4c0.3,0,0.5,0,0.8,0c0,0,0.1,0,0.1,0
		c2.1-0.2,4.2-1,6-2.4c4.5-3.5,5.7-9.6,3.4-14.7c0,0,0,0,0,0c-0.3-0.7-0.1-1.5,0.5-2c0.7-0.5,1.6-0.5,2.3,0.1c0,0,0,0,0,0
		c0.1,0.1,0.2,0.2,0.2,0.3l0,0c0.3,0.3,0.5,0.6,0.8,0.9c7.1,9,5.8,21.8-2.8,28.5c-2.4,1.9-5.2,3.1-8,3.7c0,0-0.1,0-0.1,0
		c-0.4,0.1-0.9,0.2-1.3,0.2c0,0,0,0-0.1,0C176.9,105.5,174.5,104.5,173,102.5"/>
	<path class="st0" d="M146.4,69.1c3.1-2.4,7.6-1.9,10,1.2c0.8,1,1.3,2.2,1.5,3.4c0,0.3,0,0.5,0.1,0.8c0,0,0,0.1,0,0.1
		c0.3,2.1,1.1,4.2,2.5,6c3.5,4.5,9.6,5.9,14.6,3.7c0,0,0,0,0,0c0.7-0.3,1.5,0,2,0.6c0.5,0.7,0.5,1.6,0,2.3c0,0,0,0,0,0
		c-0.1,0.1-0.2,0.2-0.2,0.2l0,0c-0.3,0.3-0.6,0.5-0.9,0.8c-8.7,6.8-21.3,5.3-28.1-3.4c-1.9-2.5-3.2-5.2-3.8-8c0,0,0-0.1,0-0.1
		c-0.1-0.4-0.2-0.9-0.2-1.3c0,0,0,0,0-0.1C143.5,73,144.5,70.7,146.4,69.1"/>
	<path class="st0" d="M222.3,54.1c-2,3.4-6.4,4.5-9.8,2.5c-1.1-0.7-2-1.6-2.6-2.6c-0.1-0.2-0.2-0.5-0.3-0.7c0,0,0,0,0-0.1
		c-1-1.9-2.5-3.5-4.5-4.7c-4.9-2.9-11-2.1-14.9,1.8c0,0,0,0,0,0c-0.6,0.5-1.4,0.6-2.1,0.2c-0.7-0.4-1-1.3-0.8-2.1c0,0,0,0,0,0
		c0-0.1,0.1-0.2,0.1-0.3l0,0c0.2-0.4,0.4-0.7,0.6-1c5.7-9.5,18-12.6,27.5-6.9c2.7,1.6,4.8,3.7,6.4,6.1c0,0,0,0,0.1,0.1
		c0.2,0.4,0.5,0.8,0.7,1.1c0,0,0,0,0,0.1C223.6,49.5,223.5,52,222.3,54.1"/>
	<path class="st0" d="M198.6,117.5c-3.6-1.5-5.3-5.7-3.8-9.4c0.5-1.2,1.3-2.2,2.3-2.9c0.2-0.1,0.4-0.3,0.7-0.4c0,0,0,0,0.1,0
		c1.7-1.3,3.2-3,4.1-5.1c2.2-5.3,0.5-11.2-3.8-14.5c0,0,0,0,0,0c-0.6-0.5-0.8-1.3-0.5-2c0.3-0.8,1.2-1.2,2-1c0,0,0,0,0,0
		c0.1,0,0.2,0.1,0.3,0.1l0,0c0.4,0.1,0.7,0.3,1.1,0.4c10.2,4.3,14.9,16.1,10.6,26.3c-1.2,2.9-3,5.3-5.2,7.2c0,0,0,0-0.1,0.1
		c-0.3,0.3-0.7,0.6-1,0.8c0,0,0,0-0.1,0C203.4,118.2,200.9,118.5,198.6,117.5"/>
	<path class="st0" d="M132.8,97.9c1.4-3.7,5.5-5.6,9.2-4.2c1.2,0.4,2.2,1.2,3,2.1c0.1,0.2,0.3,0.4,0.5,0.6c0,0,0,0,0,0.1
		c1.4,1.7,3.2,3,5.3,3.8c5.4,2,11.2,0,14.3-4.5c0,0,0,0,0,0c0.5-0.6,1.3-0.8,2-0.6c0.8,0.3,1.3,1.1,1.1,1.9c0,0,0,0,0,0
		c0,0.1-0.1,0.2-0.1,0.3l0,0c-0.1,0.4-0.2,0.7-0.4,1.1c-3.8,10.4-15.3,15.7-25.7,11.9c-2.9-1.1-5.4-2.8-7.5-4.9c0,0,0,0-0.1-0.1
		c-0.3-0.3-0.6-0.7-0.9-1c0,0,0,0,0,0C132.4,102.7,132,100.2,132.8,97.9"/>
	<path class="st0" d="M151.4,29.3c3.7,1.4,5.5,5.6,4.1,9.2c-0.5,1.2-1.2,2.2-2.2,3c-0.2,0.1-0.4,0.3-0.6,0.5c0,0,0,0-0.1,0
		c-1.7,1.3-3.1,3.1-3.9,5.3c-2.1,5.3-0.2,11.2,4.3,14.4c0,0,0,0,0,0c0.6,0.5,0.8,1.3,0.5,2c-0.3,0.8-1.1,1.2-2,1.1c0,0,0,0,0,0
		c-0.1,0-0.2-0.1-0.3-0.1l0,0c-0.4-0.1-0.7-0.2-1.1-0.4c-10.3-4-15.4-15.6-11.4-25.9c1.1-2.9,2.9-5.4,5-7.4c0,0,0,0,0.1-0.1
		c0.3-0.3,0.7-0.6,1-0.9c0,0,0,0,0.1,0C146.6,28.8,149.1,28.4,151.4,29.3"/>
	<path class="st0" d="M217.2,94.6c-3.9-0.6-6.6-4.3-5.9-8.2c0.2-1.3,0.7-2.4,1.5-3.4c0.2-0.2,0.4-0.4,0.5-0.6c0,0,0,0,0-0.1
		c1.4-1.6,2.4-3.7,2.7-6c0.9-5.7-2.2-11-7.2-13.2c0,0,0,0,0,0c-0.7-0.3-1.1-1.1-0.9-1.8c0.1-0.8,0.9-1.5,1.7-1.5c0,0,0,0,0,0
		c0.1,0,0.2,0,0.3,0l0.1,0c0.4,0,0.8,0.1,1.2,0.2c10.9,1.7,18.4,12,16.6,22.9c-0.5,3.1-1.7,5.9-3.3,8.3c0,0,0,0,0,0.1
		c-0.3,0.4-0.5,0.7-0.8,1.1c0,0,0,0,0,0C222,94.1,219.7,95,217.2,94.6"/>
	<path class="st0" d="M160.3,117.5c-0.2-3.9,2.9-7.3,6.8-7.5c1.3-0.1,2.5,0.2,3.6,0.8c0.2,0.1,0.5,0.3,0.7,0.4c0,0,0,0,0.1,0
		c1.9,1,4.1,1.6,6.4,1.5c5.7-0.3,10.3-4.4,11.5-9.7c0,0,0,0,0,0c0.2-0.7,0.8-1.2,1.6-1.3c0.9,0,1.6,0.5,1.8,1.3c0,0,0,0,0,0
		c0,0.1,0,0.2,0,0.3v0.1c0,0.4,0.1,0.8,0.1,1.2c0.5,11-8.1,20.4-19.1,20.9c-3.1,0.1-6.1-0.4-8.8-1.6c0,0-0.1,0-0.1,0
		c-0.4-0.2-0.8-0.4-1.2-0.6c0,0,0,0-0.1,0C161.7,122.1,160.4,120,160.3,117.5"/>
	<path class="st0" d="M132.4,56.3c3.9,0,7.2,3.2,7.2,7.1c0,1.3-0.3,2.5-0.9,3.6c-0.1,0.2-0.3,0.4-0.4,0.7c0,0,0,0,0,0.1
		c-1.1,1.9-1.7,4-1.7,6.3c0,5.7,3.9,10.5,9.2,11.9c0,0,0,0,0,0c0.7,0.2,1.2,0.9,1.2,1.7c0,0.9-0.6,1.6-1.4,1.7c0,0,0,0,0,0
		c-0.1,0-0.2,0-0.3,0h-0.1c-0.4,0-0.8,0-1.2,0c-11.1,0-20.1-8.9-20.1-19.9c0-3.1,0.7-6.1,1.9-8.7c0,0,0-0.1,0-0.1
		c0.2-0.4,0.4-0.8,0.6-1.2c0,0,0,0,0-0.1C127.8,57.5,130,56.3,132.4,56.3"/>
	<path class="st0" d="M195.7,30.8c-0.4,3.9-4,6.7-7.9,6.3c-1.3-0.1-2.5-0.6-3.4-1.3c-0.2-0.2-0.4-0.3-0.6-0.5c0,0,0,0-0.1,0
		c-1.7-1.3-3.8-2.2-6.1-2.4c-5.7-0.6-10.9,2.7-12.8,7.8c0,0,0,0,0,0c-0.3,0.7-1,1.1-1.8,1c-0.8-0.1-1.5-0.8-1.6-1.6c0,0,0,0,0,0
		c0-0.1,0-0.2,0-0.3l0-0.1c0-0.4,0.1-0.8,0.1-1.2c1.2-11,11.1-18.9,22.1-17.7c3.1,0.3,5.9,1.4,8.4,2.9c0,0,0,0,0.1,0
		c0.4,0.2,0.7,0.5,1.1,0.7c0,0,0,0,0,0C195,26.1,196,28.4,195.7,30.8"/>
	<polygon class="st0" points="122,171.4 106.9,146.7 103.9,146.7 103.9,183.9 108,183.9 108,156 122,179 136,156 136,183.9 
		140,183.9 140,146.7 137.1,146.7 	"/>
	<path class="st0" d="M166.9,146.7l-16.8,37.2h4.4l4.5-10.1h18.6l4.5,10.1h4.4l-16.7-37.2H166.9z M160.7,169.9l7.6-17.2l7.7,17.2
		H160.7z"/>
	<rect x="196.6" y="146.7" class="st0" width="4" height="37.2"/>
	<path class="st0" d="M231.3,146.7h-2.8l-16.8,37.2h4.4l4.5-10.1h18.6l4.5,10.1h4.4L231.3,146.7z M222.2,169.9l7.6-17.2l7.7,17.2
		H222.2z"/>
	<path class="st0" d="M121.9,233.3L121.9,233.3c0-1.6,1.2-2.3,2.8-2.3c0.7,0,1.2,0.1,1.7,0.3v-0.1c0-0.8-0.5-1.3-1.5-1.3
		c-0.8,0-1.3,0.1-2,0.4l-0.5-1.5c0.8-0.3,1.5-0.6,2.7-0.6c1.1,0,1.9,0.3,2.4,0.8c0.5,0.5,0.8,1.3,0.8,2.3v4.1h-1.9v-0.8
		c-0.5,0.5-1.1,0.9-2.1,0.9C123,235.4,121.9,234.7,121.9,233.3 M126.5,232.8v-0.4c-0.4-0.2-0.8-0.3-1.3-0.3c-0.9,0-1.4,0.3-1.4,1v0
		c0,0.5,0.4,0.9,1.1,0.9C125.9,234,126.5,233.5,126.5,232.8"/>
	<path class="st0" d="M136,229.9h-0.8v-1.6h0.8v-0.4c0-0.8,0.2-1.3,0.6-1.7c0.4-0.4,0.9-0.6,1.6-0.6c0.6,0,1.1,0.1,1.4,0.2v1.7
		c-0.3-0.1-0.6-0.2-0.9-0.2c-0.5,0-0.7,0.3-0.7,0.8v0.3h1.6v1.6H138v5.4h-2V229.9z"/>
	<path class="st0" d="M141.4,232.8v-4.6h2v3.9c0,1,0.4,1.4,1.2,1.4c0.8,0,1.3-0.5,1.3-1.4v-3.9h2v7.1h-2v-1
		c-0.5,0.6-1.1,1.1-2.1,1.1C142.3,235.4,141.4,234.4,141.4,232.8"/>
	<path class="st0" d="M149.9,234.3l0.9-1.3c0.8,0.6,1.6,0.8,2.2,0.8c0.6,0,0.8-0.2,0.8-0.5v0c0-0.4-0.7-0.6-1.5-0.8
		c-1-0.3-2.1-0.8-2.1-2.1v0c0-1.4,1.2-2.2,2.6-2.2c0.9,0,1.9,0.3,2.6,0.8l-0.8,1.4c-0.7-0.4-1.4-0.7-1.9-0.7c-0.5,0-0.7,0.2-0.7,0.5
		v0c0,0.4,0.7,0.6,1.4,0.8c1,0.3,2.1,0.8,2.1,2.1v0c0,1.6-1.2,2.3-2.7,2.3C151.9,235.4,150.9,235.1,149.9,234.3"/>
	<path class="st0" d="M157.9,225.7h2.1v1.8h-2.1V225.7z M158,228.2h2v7.1h-2V228.2z"/>
	<path class="st0" d="M162.3,231.8L162.3,231.8c0-2.1,1.6-3.7,3.8-3.7c2.2,0,3.8,1.6,3.8,3.7v0c0,2-1.6,3.7-3.8,3.7
		C163.9,235.4,162.3,233.8,162.3,231.8 M168,231.8L168,231.8c0-1.1-0.8-2-1.9-2c-1.1,0-1.8,0.9-1.8,1.9v0c0,1,0.8,2,1.9,2
		C167.3,233.7,168,232.8,168,231.8"/>
	<path class="st0" d="M172.2,228.2h2v1c0.5-0.6,1.1-1.1,2.1-1.1c1.5,0,2.4,1,2.4,2.6v4.6h-2v-3.9c0-1-0.4-1.4-1.2-1.4
		c-0.8,0-1.3,0.5-1.3,1.4v3.9h-2V228.2z"/>
	<path class="st0" d="M185.9,228.2h2v1.4c0.4-1,1.1-1.6,2.3-1.6v2.1h-0.1c-1.3,0-2.1,0.8-2.1,2.5v2.6h-2V228.2z"/>
	<path class="st0" d="M191.9,231.8L191.9,231.8c0-2,1.4-3.7,3.5-3.7c2.4,0,3.4,1.8,3.4,3.8c0,0.2,0,0.3,0,0.5h-4.9
		c0.2,0.9,0.8,1.4,1.7,1.4c0.7,0,1.1-0.2,1.7-0.7l1.1,1c-0.7,0.8-1.6,1.3-2.9,1.3C193.5,235.4,191.9,234,191.9,231.8 M196.9,231.2
		c-0.1-0.9-0.6-1.5-1.5-1.5c-0.8,0-1.4,0.6-1.5,1.5H196.9z"/>
	<path class="st0" d="M200.6,234.3l0.9-1.3c0.8,0.6,1.6,0.8,2.2,0.8c0.6,0,0.8-0.2,0.8-0.5v0c0-0.4-0.7-0.6-1.5-0.8
		c-1-0.3-2.1-0.8-2.1-2.1v0c0-1.4,1.2-2.2,2.6-2.2c0.9,0,1.9,0.3,2.6,0.8l-0.8,1.4c-0.7-0.4-1.4-0.7-1.9-0.7c-0.5,0-0.7,0.2-0.7,0.5
		v0c0,0.4,0.7,0.6,1.4,0.8c1,0.3,2.1,0.8,2.1,2.1v0c0,1.6-1.2,2.3-2.7,2.3C202.6,235.4,201.5,235.1,200.6,234.3"/>
	<path class="st0" d="M208.2,231.8L208.2,231.8c0-2.1,1.6-3.7,3.8-3.7c2.2,0,3.8,1.6,3.8,3.7v0c0,2-1.6,3.7-3.8,3.7
		C209.8,235.4,208.2,233.8,208.2,231.8 M213.8,231.8L213.8,231.8c0-1.1-0.8-2-1.9-2c-1.1,0-1.8,0.9-1.8,1.9v0c0,1,0.7,2,1.9,2
		C213.2,233.7,213.8,232.8,213.8,231.8"/>
	<path class="st0" d="M218.1,228.2h2v1.4c0.4-1,1.1-1.6,2.3-1.6v2.1h-0.1c-1.3,0-2.1,0.8-2.1,2.5v2.6h-2V228.2z"/>
	<path class="st0" d="M224.7,233.3v-3.3h-0.8v-1.7h0.8v-1.8h2v1.8h1.7v1.7h-1.7v3c0,0.5,0.2,0.7,0.6,0.7c0.4,0,0.7-0.1,1-0.2v1.6
		c-0.4,0.3-0.9,0.4-1.6,0.4C225.5,235.4,224.7,234.9,224.7,233.3"/>
</g>
</svg>
