<?xml version="1.0" encoding="utf-8"?>
<!-- Generator: Adobe Illustrator 21.1.0, SVG Export Plug-In . SVG Version: 6.00 Build 0)  -->
<svg version="1.1" id="Layer_1" xmlns="http://www.w3.org/2000/svg" xmlns:xlink="http://www.w3.org/1999/xlink" x="0px" y="0px"
	 viewBox="0 0 350 255.1" style="enable-background:new 0 0 350 255.1;" xml:space="preserve">
<style type="text/css">
	.st0{fill:#1F191A;}
</style>
<g>
	<path class="st0" d="M108,149.4v4.5c-2.2-1.8-4.4-2.7-6.8-2.7c-2.6,0-4.7,0.9-6.5,2.8c-1.8,1.8-2.7,4.1-2.7,6.7
		c0,2.6,0.9,4.8,2.7,6.6c1.8,1.8,3.9,2.7,6.5,2.7c1.3,0,2.5-0.2,3.4-0.6c0.5-0.2,1.1-0.5,1.6-0.9c0.6-0.4,1.1-0.8,1.8-1.3v4.5
		c-2.2,1.2-4.4,1.8-6.8,1.8c-3.6,0-6.6-1.2-9.1-3.7c-2.5-2.5-3.8-5.5-3.8-9.1c0-3.2,1.1-6,3.2-8.5c2.6-3.1,5.9-4.6,10-4.6
		C103.8,147.6,106,148.2,108,149.4"/>
	<path class="st0" d="M136,167h-10.7l-2.8,6.1h-4.1l12.4-26.5l11.9,26.5h-4.1L136,167z M134.5,163.4l-3.7-8.5l-3.9,8.5H134.5z"/>
	<path class="st0" d="M157.6,162.9V173h-3.8v-25h4.3c2.1,0,3.7,0.1,4.7,0.4c1.1,0.3,2,0.8,2.8,1.6c1.4,1.4,2.2,3.2,2.2,5.3
		c0,2.3-0.8,4.1-2.3,5.4c-1.5,1.3-3.6,2-6.2,2H157.6z M157.6,159.4h1.4c3.5,0,5.2-1.3,5.2-4c0-2.6-1.8-3.9-5.4-3.9h-1.2V159.4z"/>
	<rect x="179.7" y="148.1" class="st0" width="3.8" height="25"/>
	<polygon class="st0" points="204.3,151.6 204.3,173 200.5,173 200.5,151.6 194.8,151.6 194.8,148.1 210,148.1 210,151.6 	"/>
	<path class="st0" d="M234.7,167H224l-2.8,6.1h-4.1l12.4-26.5l11.9,26.5h-4.1L234.7,167z M233.1,163.4l-3.7-8.5l-3.9,8.5H233.1z"/>
	<polygon class="st0" points="256.2,148.1 256.2,169.5 263.6,169.5 263.6,173 252.5,173 252.5,148.1 	"/>
	<polygon class="st0" points="29.9,135.1 40,83.8 56.3,120.9 73.3,83.8 82.3,135.1 74.9,135.1 70.3,106.3 56.2,137.3 42.5,106.3 
		37.4,135.1 	"/>
	<polygon class="st0" points="118.7,94.2 99.6,94.2 99.6,105.6 118.2,105.6 118.2,112.4 99.6,112.4 99.6,128.3 118.7,128.3 
		118.7,135.1 92.4,135.1 92.4,87.4 118.7,87.4 	"/>
	<polygon class="st0" points="135.4,106.4 153.9,87.4 163.5,87.4 142,109 163.7,135.1 154,135.1 136.8,113.9 135.4,115.4 
		135.4,135.1 128.2,135.1 128.2,87.4 135.4,87.4 	"/>
	<polygon class="st0" points="223.9,135.1 223.9,84.2 258.7,120.5 258.7,87.4 265.9,87.4 265.9,138 231.1,101.7 231.1,135.1 	"/>
	<path class="st0" d="M302.3,110.3H322v1.6c0,3.6-0.4,6.8-1.3,9.5c-0.8,2.6-2.2,4.9-4.2,7.2c-4.4,5-10.1,7.5-16.9,7.5
		c-6.7,0-12.4-2.4-17.1-7.2c-4.8-4.8-7.1-10.6-7.1-17.4c0-6.9,2.4-12.8,7.3-17.6c4.8-4.8,10.7-7.3,17.7-7.3c3.7,0,7.2,0.8,10.4,2.3
		c3.1,1.5,6.1,4,9.1,7.4l-5.1,4.9c-3.9-5.2-8.7-7.8-14.3-7.8c-5,0-9.3,1.7-12.7,5.2c-3.4,3.4-5.1,7.7-5.1,12.8
		c0,5.3,1.9,9.7,5.7,13.1c3.6,3.2,7.4,4.8,11.6,4.8c3.5,0,6.7-1.2,9.5-3.6c2.8-2.4,4.4-5.3,4.7-8.6h-11.9V110.3z"/>
	<path class="st0" d="M201.5,106.8c0,0-3.4,1.9,1.8,3.3c5.2,1.4,13.2,5.7,7.7,10.8c-4.8,4.5-19.1,7.5-25.7,16.5
		c1.9,0.4,3.9,0.7,6,0.7c14.5,0,26.3-11.8,26.3-26.3c0-2.4-0.3-4.7-0.9-6.9C212.8,104.7,206.4,104.9,201.5,106.8"/>
	<path class="st0" d="M188,119.7c12.5-0.8,16-3.9,10.6-6.5c0,0-5.1-2.2-7.3-3.7c-2.1-1.5-3.7-6,24-8.7c-4.1-9.2-13.3-15.5-24-15.5
		c-14.5,0-26.3,11.8-26.3,26.3c0,5.1,1.5,9.8,3.9,13.8C172,123.6,178.9,120.3,188,119.7"/>
</g>
</svg>
