<?xml version="1.0" encoding="utf-8"?>
<!-- Generator: Adobe Illustrator 21.1.0, SVG Export Plug-In . SVG Version: 6.00 Build 0)  -->
<svg version="1.1" id="Layer_1" xmlns="http://www.w3.org/2000/svg" xmlns:xlink="http://www.w3.org/1999/xlink" x="0px" y="0px"
	 viewBox="0 0 350 255.1" style="enable-background:new 0 0 350 255.1;" xml:space="preserve">
<style type="text/css">
	.st0{fill:#1F191A;}
</style>
<g>
	<polygon class="st0" points="25.1,150.8 25.1,142.1 26.4,142.1 26.4,149.8 32.3,149.8 32.3,150.8 	"/>
	<path class="st0" d="M39.3,150.9c-0.7,0-1.4-0.1-2-0.4c-0.6-0.2-1.1-0.6-1.6-1c-0.4-0.4-0.8-0.9-1-1.4c-0.2-0.5-0.4-1.1-0.4-1.6
		c0-0.6,0.1-1.1,0.4-1.7c0.3-0.5,0.6-1,1-1.4c0.4-0.4,1-0.7,1.6-1c0.6-0.2,1.3-0.4,2-0.4c0.7,0,1.4,0.1,2,0.4c0.6,0.3,1.1,0.6,1.6,1
		c0.4,0.4,0.8,0.9,1,1.4c0.2,0.5,0.4,1.1,0.4,1.6c0,0.6-0.1,1.1-0.4,1.7c-0.3,0.5-0.6,1-1,1.4c-0.4,0.4-1,0.7-1.6,1
		C40.7,150.8,40,150.9,39.3,150.9 M35.7,146.5c0,0.4,0.1,0.9,0.3,1.3c0.2,0.4,0.4,0.8,0.7,1.1c0.3,0.3,0.7,0.6,1.1,0.8
		c0.4,0.2,0.9,0.3,1.5,0.3c0.6,0,1.1-0.1,1.5-0.3c0.4-0.2,0.8-0.5,1.1-0.8c0.3-0.3,0.5-0.7,0.7-1.1c0.2-0.4,0.2-0.8,0.2-1.2
		c0-0.4-0.1-0.9-0.3-1.3c-0.2-0.4-0.4-0.8-0.7-1.1c-0.3-0.3-0.7-0.6-1.1-0.7c-0.4-0.2-0.9-0.3-1.5-0.3c-0.6,0-1.1,0.1-1.5,0.3
		c-0.4,0.2-0.8,0.4-1.1,0.8c-0.3,0.3-0.6,0.7-0.7,1.1C35.8,145.6,35.7,146,35.7,146.5"/>
	<polygon class="st0" points="49.2,144.2 49.2,150.8 47.9,150.8 47.9,142.1 48.9,142.1 55.4,148.9 55.4,142.1 56.8,142.1 
		56.8,150.8 55.7,150.8 	"/>
	<path class="st0" d="M68.5,149.6c-0.9,0.8-2,1.2-3.2,1.2c-0.7,0-1.3-0.1-1.9-0.4c-0.6-0.3-1.1-0.6-1.5-1c-0.4-0.4-0.8-0.9-1-1.4
		c-0.2-0.5-0.4-1.1-0.4-1.6c0-0.6,0.1-1.1,0.4-1.7c0.2-0.5,0.6-1,1-1.4c0.4-0.4,1-0.7,1.6-1c0.6-0.2,1.3-0.4,2-0.4
		c1,0,1.9,0.2,2.5,0.5c0.7,0.4,1.2,0.8,1.5,1.4l-1,0.6c-0.3-0.5-0.7-0.9-1.3-1.1c-0.5-0.2-1.1-0.4-1.8-0.4c-0.5,0-1,0.1-1.5,0.3
		c-0.4,0.2-0.8,0.4-1.1,0.8c-0.3,0.3-0.5,0.7-0.7,1.1c-0.2,0.4-0.3,0.8-0.3,1.3c0,0.5,0.1,0.9,0.3,1.3c0.2,0.4,0.4,0.8,0.8,1.1
		c0.3,0.3,0.7,0.6,1.2,0.7c0.4,0.2,0.9,0.3,1.4,0.3c1.1,0,2.2-0.5,3.1-1.4v-1.2h-2.3v-0.8h3.4v4.3h-1.1V149.6z"/>
	<polygon class="st0" points="87.4,142.1 87.4,150.8 86.1,150.8 86.1,146.9 80.3,146.9 80.3,150.8 79,150.8 79,142.1 80.3,142.1 
		80.3,145.9 86.1,145.9 86.1,142.1 	"/>
	<path class="st0" d="M90.6,150.8l4.3-8.7H96l4.3,8.7h-1.4l-1.2-2.5h-4.4l-1.2,2.5H90.6z M95.5,143.4l-2,4h3.9L95.5,143.4z"/>
	<rect x="103.5" y="142.1" class="st0" width="1.3" height="8.7"/>
	<rect x="119.8" y="142.1" class="st0" width="0.8" height="8.7"/>
	<polygon class="st0" points="136.1,142.1 139.6,149.4 143,142.1 144.4,142.1 140.2,150.8 139,150.8 134.7,142.1 	"/>
	<rect x="147.6" y="142.1" class="st0" width="1.3" height="8.7"/>
	<polygon class="st0" points="153.2,150.8 153.2,142.1 154.6,142.1 154.6,149.8 160.4,149.8 160.4,150.8 	"/>
	<polygon class="st0" points="163.8,150.8 163.8,142.1 165.1,142.1 165.1,149.8 171,149.8 171,150.8 	"/>
	<path class="st0" d="M173.2,150.8l4.3-8.7h1.1l4.3,8.7h-1.4l-1.2-2.5h-4.4l-1.2,2.5H173.2z M178,143.4l-2,4h3.9L178,143.4z"/>
	<path class="st0" d="M192.1,143.9c-0.1-0.1-0.3-0.2-0.5-0.3c-0.2-0.1-0.4-0.2-0.7-0.3c-0.2-0.1-0.5-0.1-0.8-0.2
		c-0.3-0.1-0.6-0.1-0.9-0.1c-0.8,0-1.4,0.1-1.8,0.4c-0.4,0.3-0.6,0.6-0.6,1c0,0.2,0.1,0.4,0.2,0.6c0.1,0.2,0.3,0.3,0.5,0.4
		c0.2,0.1,0.5,0.2,0.9,0.3c0.3,0.1,0.8,0.2,1.2,0.3c0.5,0.1,1,0.2,1.5,0.3c0.4,0.1,0.8,0.3,1.1,0.5c0.3,0.2,0.6,0.4,0.7,0.7
		c0.2,0.3,0.2,0.6,0.2,1c0,0.4-0.1,0.8-0.3,1.1c-0.2,0.3-0.5,0.6-0.8,0.8c-0.3,0.2-0.7,0.3-1.2,0.4c-0.5,0.1-1,0.1-1.5,0.1
		c-0.8,0-1.6-0.1-2.3-0.3c-0.7-0.2-1.4-0.5-2-0.9l0.6-0.9c0.2,0.1,0.4,0.3,0.6,0.4c0.3,0.1,0.5,0.3,0.9,0.4c0.3,0.1,0.7,0.2,1,0.3
		c0.4,0.1,0.8,0.1,1.2,0.1c0.8,0,1.3-0.1,1.7-0.3c0.4-0.2,0.6-0.6,0.6-1c0-0.2-0.1-0.4-0.2-0.6c-0.1-0.2-0.3-0.3-0.6-0.4
		c-0.3-0.1-0.6-0.2-1-0.3c-0.4-0.1-0.8-0.2-1.3-0.3c-0.5-0.1-1-0.2-1.4-0.3c-0.4-0.1-0.7-0.3-1-0.4c-0.3-0.2-0.5-0.4-0.6-0.6
		c-0.1-0.3-0.2-0.5-0.2-0.9c0-0.4,0.1-0.8,0.3-1.1c0.2-0.3,0.4-0.6,0.8-0.8c0.3-0.2,0.7-0.4,1.2-0.5c0.5-0.1,1-0.2,1.5-0.2
		c0.7,0,1.4,0.1,1.9,0.3c0.6,0.2,1.1,0.4,1.5,0.7L192.1,143.9z"/>
	<path class="st0" d="M209.3,150.8l-1.1-0.9c-0.4,0.3-0.9,0.6-1.4,0.8c-0.5,0.2-1.1,0.3-1.7,0.3c-0.5,0-0.9-0.1-1.3-0.2
		c-0.4-0.1-0.8-0.3-1.1-0.5c-0.3-0.2-0.5-0.5-0.7-0.8c-0.2-0.3-0.3-0.6-0.3-1c0-0.3,0.1-0.5,0.2-0.8c0.1-0.2,0.3-0.5,0.5-0.7
		c0.2-0.2,0.4-0.4,0.7-0.6c0.3-0.2,0.5-0.3,0.8-0.5c-0.2-0.2-0.5-0.4-0.6-0.6c-0.2-0.2-0.3-0.4-0.4-0.5c-0.1-0.2-0.2-0.3-0.2-0.5
		c-0.1-0.1-0.1-0.3-0.1-0.4c0-0.3,0.1-0.5,0.2-0.8c0.1-0.2,0.3-0.4,0.6-0.6c0.2-0.2,0.5-0.3,0.9-0.4c0.3-0.1,0.7-0.1,1.1-0.1
		c0.4,0,0.7,0,1,0.1c0.3,0.1,0.6,0.2,0.8,0.4c0.2,0.2,0.4,0.3,0.5,0.6c0.1,0.2,0.2,0.5,0.2,0.7c0,0.2-0.1,0.5-0.2,0.7
		c-0.1,0.2-0.3,0.4-0.5,0.6c-0.2,0.2-0.4,0.4-0.7,0.5c-0.3,0.2-0.5,0.3-0.8,0.5l2.7,2.3c0.2-0.3,0.3-0.6,0.4-1
		c0.1-0.4,0.2-0.7,0.2-1.1h1.1c0,0.5-0.1,1-0.2,1.5c-0.2,0.5-0.4,0.9-0.7,1.3l2,1.7H209.3z M205.2,150.1c0.4,0,0.9-0.1,1.2-0.2
		c0.4-0.1,0.7-0.4,1-0.6l-3-2.6c-0.5,0.3-0.8,0.6-1.1,0.9c-0.3,0.3-0.4,0.6-0.4,1c0,0.2,0.1,0.5,0.2,0.7c0.1,0.2,0.3,0.4,0.5,0.5
		c0.2,0.1,0.5,0.2,0.7,0.3C204.7,150.1,204.9,150.1,205.2,150.1 M203.7,143.9c0,0.1,0,0.2,0.1,0.3c0,0.1,0.1,0.2,0.2,0.3
		c0.1,0.1,0.2,0.2,0.3,0.4c0.1,0.1,0.3,0.3,0.6,0.5c0.5-0.3,0.9-0.5,1.2-0.8c0.3-0.2,0.5-0.5,0.5-0.8c0-0.3-0.1-0.5-0.4-0.7
		c-0.3-0.2-0.6-0.3-1-0.3c-0.4,0-0.8,0.1-1.1,0.3C203.8,143.4,203.7,143.6,203.7,143.9"/>
	<path class="st0" d="M227.8,148.6c0,0.3-0.1,0.6-0.2,0.9c-0.2,0.3-0.4,0.5-0.7,0.7c-0.3,0.2-0.6,0.3-1,0.5
		c-0.4,0.1-0.8,0.2-1.2,0.2h-5v-8.7h5.2c0.4,0,0.7,0.1,1,0.2c0.3,0.1,0.6,0.3,0.8,0.5c0.2,0.2,0.4,0.4,0.5,0.7
		c0.1,0.3,0.2,0.5,0.2,0.8c0,0.4-0.1,0.8-0.4,1.2c-0.3,0.4-0.6,0.6-1.1,0.8c0.6,0.2,1.1,0.4,1.4,0.8
		C227.6,147.6,227.8,148,227.8,148.6 M221,143.1v2.9h3.3c0.2,0,0.5,0,0.7-0.1c0.2-0.1,0.4-0.2,0.5-0.3c0.1-0.1,0.3-0.3,0.3-0.5
		c0.1-0.2,0.1-0.4,0.1-0.6c0-0.2,0-0.4-0.1-0.6c-0.1-0.2-0.2-0.3-0.3-0.5c-0.1-0.1-0.3-0.2-0.5-0.3c-0.2-0.1-0.4-0.1-0.6-0.1H221z
		 M226.4,148.4c0-0.2,0-0.4-0.1-0.6c-0.1-0.2-0.2-0.3-0.3-0.5c-0.1-0.1-0.3-0.3-0.5-0.3c-0.2-0.1-0.4-0.1-0.7-0.1H221v3h3.7
		c0.2,0,0.5,0,0.7-0.1c0.2-0.1,0.4-0.2,0.5-0.3c0.2-0.1,0.3-0.3,0.4-0.5C226.4,148.8,226.4,148.6,226.4,148.4"/>
	<polygon class="st0" points="238.6,149.8 238.6,150.8 231.4,150.8 231.4,142.1 238.4,142.1 238.4,143.1 232.8,143.1 232.8,145.9 
		237.7,145.9 237.7,146.8 232.8,146.8 232.8,149.8 	"/>
	<path class="st0" d="M241.1,150.8l4.3-8.7h1.1l4.3,8.7h-1.4l-1.2-2.5h-4.4l-1.2,2.5H241.1z M246,143.4l-2,4h3.9L246,143.4z"/>
	<path class="st0" d="M253.4,146.4c0-0.5,0.1-1,0.3-1.6c0.2-0.5,0.5-1,1-1.4c0.4-0.4,1-0.7,1.6-1c0.6-0.3,1.3-0.4,2.1-0.4
		c0.9,0,1.7,0.2,2.4,0.5c0.7,0.4,1.2,0.8,1.5,1.4l-1,0.6c-0.2-0.3-0.4-0.5-0.6-0.7c-0.2-0.2-0.5-0.3-0.7-0.5
		c-0.3-0.1-0.5-0.2-0.8-0.2c-0.3-0.1-0.5-0.1-0.8-0.1c-0.6,0-1.1,0.1-1.5,0.3c-0.4,0.2-0.8,0.5-1.1,0.8c-0.3,0.3-0.5,0.7-0.7,1.1
		s-0.2,0.8-0.2,1.2c0,0.5,0.1,0.9,0.3,1.3c0.2,0.4,0.4,0.8,0.8,1.1c0.3,0.3,0.7,0.6,1.2,0.8c0.4,0.2,0.9,0.3,1.4,0.3
		c0.3,0,0.6,0,0.9-0.1c0.3-0.1,0.6-0.1,0.8-0.3c0.3-0.1,0.5-0.3,0.7-0.5c0.2-0.2,0.4-0.4,0.6-0.7l1.1,0.5c-0.2,0.3-0.4,0.6-0.7,0.9
		c-0.3,0.3-0.6,0.5-1,0.6c-0.4,0.2-0.8,0.3-1.2,0.4c-0.4,0.1-0.8,0.1-1.2,0.1c-0.7,0-1.4-0.1-2-0.4c-0.6-0.3-1.1-0.6-1.6-1
		c-0.4-0.4-0.8-0.9-1-1.4C253.5,147.5,253.4,147,253.4,146.4"/>
	<polygon class="st0" points="274.4,142.1 274.4,150.8 273.1,150.8 273.1,146.9 267.3,146.9 267.3,150.8 265.9,150.8 265.9,142.1 
		267.3,142.1 267.3,145.9 273.1,145.9 273.1,142.1 	"/>
	<path class="st0" d="M283.5,146.4c0-0.5,0.1-1,0.3-1.6c0.2-0.5,0.5-1,1-1.4c0.4-0.4,1-0.7,1.6-1c0.6-0.3,1.3-0.4,2.1-0.4
		c0.9,0,1.7,0.2,2.4,0.5c0.7,0.4,1.2,0.8,1.5,1.4l-1,0.6c-0.2-0.3-0.4-0.5-0.6-0.7c-0.2-0.2-0.5-0.3-0.7-0.5
		c-0.3-0.1-0.5-0.2-0.8-0.2c-0.3-0.1-0.5-0.1-0.8-0.1c-0.6,0-1.1,0.1-1.5,0.3c-0.4,0.2-0.8,0.5-1.1,0.8c-0.3,0.3-0.5,0.7-0.7,1.1
		s-0.2,0.8-0.2,1.2c0,0.5,0.1,0.9,0.3,1.3c0.2,0.4,0.4,0.8,0.8,1.1c0.3,0.3,0.7,0.6,1.2,0.8c0.4,0.2,0.9,0.3,1.4,0.3
		c0.3,0,0.6,0,0.9-0.1c0.3-0.1,0.6-0.1,0.8-0.3c0.3-0.1,0.5-0.3,0.7-0.5c0.2-0.2,0.4-0.4,0.6-0.7l1.1,0.5c-0.2,0.3-0.4,0.6-0.7,0.9
		c-0.3,0.3-0.6,0.5-1,0.6c-0.4,0.2-0.8,0.3-1.2,0.4c-0.4,0.1-0.8,0.1-1.2,0.1c-0.7,0-1.4-0.1-2-0.4c-0.6-0.3-1.1-0.6-1.6-1
		c-0.4-0.4-0.8-0.9-1-1.4C283.6,147.5,283.5,147,283.5,146.4"/>
	<polygon class="st0" points="296.1,150.8 296.1,142.1 297.4,142.1 297.4,149.8 303.3,149.8 303.3,150.8 	"/>
	<path class="st0" d="M310.3,149.9c0.6,0,1.1-0.1,1.5-0.3c0.4-0.2,0.7-0.5,1-0.8c0.2-0.3,0.4-0.7,0.5-1.1c0.1-0.4,0.1-0.8,0.1-1.2
		v-4.4h1.3v4.4c0,0.6-0.1,1.1-0.2,1.7c-0.2,0.5-0.4,1-0.8,1.4c-0.4,0.4-0.8,0.7-1.4,1c-0.6,0.2-1.3,0.4-2.1,0.4
		c-0.8,0-1.5-0.1-2.1-0.4c-0.6-0.2-1-0.6-1.4-1c-0.4-0.4-0.6-0.9-0.8-1.4c-0.2-0.5-0.2-1.1-0.2-1.6v-4.4h1.3v4.4
		c0,0.4,0.1,0.9,0.2,1.3c0.1,0.4,0.3,0.8,0.5,1.1c0.2,0.3,0.6,0.6,1,0.8C309.2,149.8,309.7,149.9,310.3,149.9"/>
	<path class="st0" d="M327,148.6c0,0.3-0.1,0.6-0.2,0.9c-0.2,0.3-0.4,0.5-0.7,0.7c-0.3,0.2-0.6,0.3-1,0.5c-0.4,0.1-0.8,0.2-1.2,0.2
		h-5v-8.7h5.2c0.4,0,0.7,0.1,1,0.2c0.3,0.1,0.5,0.3,0.8,0.5c0.2,0.2,0.4,0.4,0.5,0.7c0.1,0.3,0.2,0.5,0.2,0.8c0,0.4-0.1,0.8-0.4,1.2
		c-0.3,0.4-0.6,0.6-1.1,0.8c0.6,0.2,1.1,0.4,1.4,0.8C326.8,147.6,327,148,327,148.6 M320.3,143.1v2.9h3.3c0.2,0,0.5,0,0.7-0.1
		c0.2-0.1,0.4-0.2,0.5-0.3c0.1-0.1,0.3-0.3,0.3-0.5c0.1-0.2,0.1-0.4,0.1-0.6c0-0.2,0-0.4-0.1-0.6c-0.1-0.2-0.2-0.3-0.3-0.5
		c-0.1-0.1-0.3-0.2-0.5-0.3c-0.2-0.1-0.4-0.1-0.6-0.1H320.3z M325.7,148.4c0-0.2,0-0.4-0.1-0.6c-0.1-0.2-0.2-0.3-0.3-0.5
		c-0.1-0.1-0.3-0.3-0.5-0.3c-0.2-0.1-0.4-0.1-0.6-0.1h-3.8v3h3.7c0.2,0,0.5,0,0.7-0.1c0.2-0.1,0.4-0.2,0.5-0.3s0.3-0.3,0.4-0.5
		C325.6,148.8,325.7,148.6,325.7,148.4"/>
	<path class="st0" d="M116.9,124.8l23.8,0c0.9,0,2.3-0.1,3.4-1c1-0.9,1-2.6,1-2.9c0,0,0-9.2,0-9.2c0-3.5-2.8-6.5-6.3-6.5h0
		c0,0-23.7,0-23.7,0c-3.5,0-6.2,3-6.3,6.5v0.1V131l0,0.1c0,3.5,2.8,6.5,6.3,6.5h0h29.4l0-5.7v0c0-0.1,0-0.9-0.6-1.4
		c-0.5-0.3-1.2-0.3-1.2-0.3l-25.8,0L116.9,124.8z M116.9,112.5h18.8c1.5,0,2.1,1.2,2.2,2.8c0,1.6-0.7,2.7-2.2,2.8h-18.8V112.5z"/>
	<path class="st0" d="M179,117.9l-23.8,0c-0.9,0-2.3,0.1-3.4,1c-1,0.9-1,2.6-1,2.9l0,9.2c0,3.5,2.8,6.5,6.3,6.5h0c0,0,23.7,0,23.7,0
		c3.5,0,6.2-3,6.3-6.5v-0.1l0-19.3v-0.1c0-3.5-2.8-6.5-6.3-6.5h0h-29.4l0,5.7v0c0,0.1,0,0.9,0.6,1.4c0.5,0.3,1.2,0.3,1.2,0.3l25.8,0
		L179,117.9z M179,130.2h-18.8c-1.5,0-2.1-1.2-2.2-2.8c0-1.6,0.7-2.7,2.2-2.8H179V130.2z"/>
	<path class="st0" d="M263,117.9l-23.8,0c-0.9,0-2.3,0.1-3.4,1c-1,0.9-1,2.6-1,2.9l0,9.2c0,3.5,2.8,6.5,6.3,6.5h0
		c0.1,0,23.7,0,23.7,0c3.5,0,6.2-3,6.3-6.5v-0.1l0-19.3v-0.1c0-3.5-2.8-6.5-6.3-6.5h0h-29.4l0,5.7v0c0,0.1,0,0.9,0.6,1.4
		c0.5,0.3,1.2,0.3,1.2,0.3l25.8,0L263,117.9z M263,130.2h-18.8c-1.5,0-2.1-1.2-2.2-2.8c0-1.6,0.7-2.7,2.2-2.8H263V130.2z"/>
	<path class="st0" d="M291,125.6c0,4.4,0,9.5,0,9.9c0,0.3,0,2,1.6,2l0.2,0h0.4h5.9v-11.8v-12.2v-0.1c0,0,0-1,0.9-0.9h0.1h5l0,24.2
		c0,0.9,0.9,0.9,0.9,0.9h0.1h7v-25.7l0-0.1c0-3.5-2.8-6.5-6.3-6.5c0,0-23.6,0-23.7,0h0c-3.5,0-6.2,3-6.3,6.5v0.1v25.7h7h0.1
		c0,0,1,0,0.9-0.9l0-24.2h5h0.1c0.9,0,0.9,0.9,0.9,0.9v0.1v4.3V125.6z"/>
	<path class="st0" d="M24.9,125.6c0,1.9,0,3.9,0,5.7c0.1,3.4,2.9,6.1,6.4,6.2H43h11.8c3.4-0.1,6.3-2.8,6.4-6.2v-5.7v-7.3v-6.7l0-0.1
		c0-3.5-2.8-6.5-6.3-6.5h-0.3H43H31.5h-0.3c-3.5,0-6.2,3-6.3,6.5l0,0.1l0,6.7L24.9,125.6z M32.9,114.1c0-1,0.8-1.8,1.8-1.8h0.2
		c0.1,0,0.1,0,0.2,0c0.1,0,3.9,0,8,0c4.1,0,7.9,0,8,0c0,0,0.1,0,0.2,0h0.2c1,0,1.8,0.8,1.8,1.8v14c0,0.4-0.2,0.8-0.4,1.2
		c-0.2,0.3-0.4,0.5-0.7,0.6c-0.2,0.1-0.5,0.2-0.8,0.2h-0.1c-0.1,0-0.1,0-0.2,0c-0.2,0-3.5,0-3.5,0h-9.1c0,0-3.3,0-3.5,0
		c0,0-0.1,0-0.2,0h-0.1c-1,0-1.8-0.8-1.8-1.8V114.1z"/>
	<path class="st0" d="M325.3,105.1h-6.5v8.1c0,0,0,0.1,0,0.1c0,0,0,0.1,0,0.1v4.3l0,7.9c0,4.4,0,9.5,0,9.9c0,0.3,0.1,2,1.6,2l0.2,0
		h0.4h5.9v-11.8v-10.7v-1.6c0,0,0-0.1,0-0.1v0v-6.5C326.9,105.8,326.2,105.1,325.3,105.1"/>
	<path class="st0" d="M229,111.6c0-3.5-2.8-6.5-6.3-6.5c0,0-23.6,0-23.7,0h0c-3.4,0-6.2,3-6.3,6.5l0,0.1v25.7h7h0.1
		c0,0,0.9,0,0.9-0.9l0-24.2h4.9h0.1l0.1,0l0,0h9.8c0,0,0,0,0.1,0h0.1h3.3c1,0,1.8,0.8,1.8,1.8l0,22.4c0,0.9,0.9,0.9,0.9,0.9h0.1h7
		L229,111.6L229,111.6z"/>
	<path class="st0" d="M103.1,134.9v-3.5c0-0.7-0.6-1.3-1.3-1.3h-7.4v0c-3.5,0-17.2,0-17.3,0c-0.3,0-2,0-2-1.6l0-0.3l0-1.8v-1.4v-7.9
		v-1.4l0-1.8l0-0.2c0-1.5,1.6-1.6,2-1.6c0.1,0,13.8,0,17.3,0v0h7.4c0.7,0,1.3-0.6,1.3-1.3v-3.5c0-1.3-1.1-2.4-2.4-2.4l-17.2,0l-10,0
		l-0.2,0c-1.7,0-3.2,0.7-4.3,1.7c-1.3,1.2-2.1,2.9-2.1,4.8v0.1v9.6v9.6v0.1c0,1.9,0.8,3.6,2.1,4.8c1.1,1,2.7,1.7,4.3,1.7h0.2h10
		l17.2,0C102,137.3,103.1,136.2,103.1,134.9"/>
</g>
</svg>
