<?xml version="1.0" encoding="utf-8"?>
<!-- Generator: Adobe Illustrator 21.1.0, SVG Export Plug-In . SVG Version: 6.00 Build 0)  -->
<svg version="1.1" id="Layer_1" xmlns="http://www.w3.org/2000/svg" xmlns:xlink="http://www.w3.org/1999/xlink" x="0px" y="0px"
	 viewBox="0 0 350 255.1" style="enable-background:new 0 0 350 255.1;" xml:space="preserve">
<style type="text/css">
	.st0{clip-path:url(#SVGID_2_);}
	.st1{clip-path:url(#SVGID_4_);fill:#FFFFFF;}
	.st2{clip-path:url(#SVGID_4_);}
</style>
<g>
	<defs>
		<rect id="SVGID_1_" x="49.9" y="2.4" width="252.1" height="252.1"/>
	</defs>
	<clipPath id="SVGID_2_">
		<use xlink:href="#SVGID_1_"  style="overflow:visible;"/>
	</clipPath>
	<g class="st0">
		<defs>
			<rect id="SVGID_3_" x="49.9" y="2.4" width="252.1" height="252.1"/>
		</defs>
		<clipPath id="SVGID_4_">
			<use xlink:href="#SVGID_3_"  style="overflow:visible;"/>
		</clipPath>
		<path class="st1" d="M49.9,2.4H302v252.1H49.9V2.4z M227.7,135.9c0.6,0.2,1.3,0.4,1.8,0.5c0.4-0.1,0.8-0.2,1.2-0.2
			c3.2,0,5.9-1.1,8.2-3.3c0.2-0.2,0.4-0.3,0.6-0.4c0.3-0.1,0.6-0.2,0.8-0.4c1-1,1.5-2.3,2-3.6c0.6-1.5,1-3.1,0.8-4.8
			c-0.1-0.8-0.4-1.6-0.5-2.5c-0.2-1.6-0.9-2.9-1.8-4.2c-0.7-1.1-1.6-1.9-2.7-2.6c-0.9-0.6-1.9-1-3.1-1c-1.7,0-3.4,0.2-5.1,0.6
			c-3.3,0.9-5.9,2.6-7.5,5.7c0,0.1-0.2,0.2-0.2,0.2c0.6-2.8,1.9-5.1,3.9-7.2c-1.4,0.1-1.5,0.2-2.1,1c-0.2,0.3-0.5,0.6-0.8,0.8
			c-1.5,0.8-2.3,2.4-3.7,3.4c-0.1,0.1-0.1,0.2-0.1,0.3c-1,2.5-1.3,5.1-1.3,7.7c0,2.2,1.2,4.1,2.1,6c0.1,0.3,0.4,0.5,0.7,0.7
			c0.9,0.7,1.8,1.4,2.7,2.1c0.9,0.7,1.8,1.2,2.9,1.1c0.1,0.8,0.7,0.6,1.2,0.6C227.7,136.2,227.7,136.1,227.7,135.9 M129.3,134.4
			L129.3,134.4c0.7-0.2,1.3-0.5,1.8-0.7c0.3-0.4,0.5-0.8,0.7-1.1c1.8-1.9,2.9-4.1,3.3-6.7c0.1-0.8-0.1-1.8,0.5-2.5
			c0.1-0.1,0-0.4,0-0.5c0.1-1.1-0.4-2.1-0.8-3.1c-0.7-1.9-1.7-3.6-3.3-4.9c-1.3-1-2.6-1.7-4.2-1.5c-1.7,0.2-3.3,0.3-5,0.7
			c-3.2,0.8-5.7,2.6-7.2,5.7c-0.1,0.1-0.1,0.3-0.1,0.4c-0.1-0.1-0.2-0.2-0.3-0.3c0.8-2.8,2.1-5.4,4.3-7.4c-1.5,0.4-2.6,1.4-3.8,2.3
			c-0.5,0.4-1,1-1.4,1.5c-0.8,1.1-1.6,2.3-2.3,3.5c-0.3,0.5-0.4,1-0.3,1.6c0.1,0.4,0,0.9,0,1.3c0,0.3-0.1,0.7-0.1,1
			c0,1-0.3,2.1,0.1,3.1c0,0.1-0.1,0.2-0.1,0.3c0,0.3,0,0.6,0.1,0.8c0.7,1.8,1.7,3.3,2.9,4.7c1,1.1,2.1,2.3,3.6,2.9
			c1,0.4,1.9,0.8,2.9,1.1c0.5,0.2,1.1,0.4,1.7,0.3c1.1-0.1,2.2-0.4,3.3-0.4c1.5,0.1,2.5-1.1,3.9-1.4c0.2,0,0.3-0.3,0.4-0.4
			C129.7,134.7,129.5,134.6,129.3,134.4 M210,78.8c-0.3-0.2-0.6-0.4-0.9-0.6c-1-0.7-2-1.5-3.1-2.2c-0.3-0.2-0.8-0.3-1.3-0.3
			c-1.6,0.1-3.1,0.2-4.6,0.6c-3.5,0.8-6.2,2.6-7.8,5.9c0,0.1-0.1,0.1-0.3,0.2c0.3-1.4,0.8-2.7,1.5-3.8c0.7-1.2,1.5-2.2,2.4-3.5
			c-1.4,0.7-2.7,1.2-3.7,2.2c-0.8,0.8-1.5,1.8-2.1,2.8c-0.7,1.2-1.4,2.5-1.7,3.8c-0.4,1.9-0.5,3.7,0.3,5.5c0.1,0.1,0.1,0.4,0,0.5
			c-0.2,0.5-0.1,0.9,0.2,1.4c0.7,1,1.3,2.1,2,3.1c0.4,0.6,0.9,1,1.5,1.5c1.1,0.8,2.2,1.5,3.3,2.3c0.6,0.4,1.2,0.7,2,0.4
			c0.3-0.1,0.7,0,1.1,0c1,0.1,2,0.2,3,0.3c0.4,0,0.9-0.3,1.3-0.2c0.7,0.3,1.2,0,1.8-0.3c1.3-0.8,2.6-1.5,3.7-2.4
			c1.2-1,2.3-2,3.1-3.4c0.6-1,0.7-2.2,1.3-3.2c0.3-0.5,0.4-1.3,0.4-1.9c0-1.2-0.4-2.4-0.4-3.5c0-1.3-1.1-2.2-1.3-3.4
			c0-0.2-0.3-0.3-0.4-0.4c-0.1,0-0.1,0.1-0.2,0.1c0.2,0.4,0.3,0.8,0.5,1.2c-0.1,0-0.2,0.1-0.2,0.1C210.9,80.6,210.5,79.7,210,78.8
			 M165.3,44.2c0.1,0,0.2,0,0.3,0c-0.3,1-0.2,2-0.9,2.6c0.1,0.6,0.3,1,0.3,1.4c0,3.1,1.1,5.7,3.2,8c0.2,0.2,0.5,0.5,0.5,0.7
			c-0.1,0.5,0.2,0.6,0.5,0.9c1.1,1,2.5,1.6,3.9,2.1c1.6,0.6,3.3,1,5,0.6c0.7-0.2,1.4-0.3,2-0.5c1.1-0.3,2.2-0.5,3.1-1.1
			c1.5-0.9,2.8-1.9,3.7-3.4c0.4-0.7,0.4-1.6,1.4-2c0.1,0,0.2-0.4,0.2-0.6c0.3-1.3,0.5-2.7,0.7-4c0.1-0.5,0.1-1.1,0-1.7
			c-0.2-1.3-0.5-2.6-0.8-3.9c-0.2-0.8-0.4-1.5-1.2-1.9c-0.3-0.1-0.5-0.5-0.7-0.7c-0.7-0.8-1.2-1.7-2-2.3c-0.6-0.5-1.1-1.1-1.9-1.2
			c-2.7-0.1-5.4,0.1-7.9,1.1c-2.6,0.9-4.6,2.5-5.9,5c-0.1,0.2-0.2,0.3-0.3,0.5c0.6-2.9,1.9-5.4,4.1-7.5c-0.3,0-0.5,0-0.7,0.1
			c-0.6,0.3-1.1,0.6-1.7,0.8c-0.8,0.3-1.5,0.7-2,1.4c-0.6,0.9-1.3,1.7-2,2.6c-0.5,0.7-1.1,1.3-1,2.3c0,0.2-0.2,0.4-0.4,0.6
			c-0.3,0.4-0.3,0.5,0,1.2C165.1,44.9,165.2,44.5,165.3,44.2 M157.5,97.7c1.1-0.1,1.8-0.3,2.2-1.2c0.1-0.3,0.4-0.5,0.7-0.7
			c0.7-0.6,1.4-1.1,2-1.7c0.5-0.4,0.9-1,1.3-1.5c0.2-0.2,0.4-0.4,0.5-0.6c0.5-1.4,1-2.8,1.1-4.3c0-1,0.2-2,0.2-3
			c0-1.3-0.4-2.5-0.8-3.7c-0.2-0.7-0.6-1.3-0.9-1.9c-0.3-0.6-0.7-1.2-1.1-1.6c-0.9-0.8-1.9-1.5-2.9-2.3c-0.6-0.4-1.2-0.9-2-0.8
			c-0.2,0-0.5-0.2-0.7-0.3c-0.4-0.4-0.7-0.3-1.2-0.2c0.1,0.6,1,0,1,0.9c-1-0.3-1.9-0.6-2.8-0.9c-0.4,0.1-0.8,0.3-1.2,0.3
			c-3.1,0.1-5.7,1.2-8,3.2c-0.2,0.2-0.4,0.4-0.6,0.4c-0.5,0-0.7,0.3-1,0.6c-0.9,0.9-1.3,2-1.7,3.1c-0.6,1.5-1.1,3.1-0.9,4.9
			c0.1,0.9,0.3,1.7,0.5,2.6c0.4,2,1.2,3.7,2.5,5.2c1.5,1.7,3.3,3,5.7,2.8c1.2-0.1,2.4-0.2,3.5-0.4c3.7-0.8,6.8-2.5,8.5-6.1
			c0-0.1,0.1-0.1,0.4-0.4C161,93.1,159.7,95.5,157.5,97.7 M184.1,132.6c0.2-0.4,0.4-0.7,0.7-1c2.2-2.3,3.3-5,3.5-8.1
			c0-0.2,0-0.5,0.1-0.6c0.7-0.8,0.3-1.6,0.1-2.4c-0.4-1.5-1-2.9-1.8-4.2c-0.8-1.3-1.8-2.3-3-3c-1.1-0.7-2.2-1.4-3.5-1.8
			c-1.3-0.4-2.6-0.7-4-0.7c-1.4,0-2.7,0.9-4.2,0.7c-0.1,0-0.3,0.1-0.4,0.2c-2,1.1-3.9,2.3-5.2,4.2c-0.7,1-1.4,2.1-2,3.2
			c-0.2,0.3-0.1,0.8-0.2,1.3c0,0.5,0,1,0,1.5c-0.1,1-0.1,2-0.2,3c0,0.4,0.3,0.8,0.2,1.2c-0.2,0.5,0,0.8,0.2,1.2
			c0.3,0.6,0.6,1.1,0.9,1.7c0.7,1.4,1.8,2.5,2.9,3.6c0.9,0.9,1.6,1.6,3.1,1.6c2.2,0,4.4-0.1,6.5-0.7c3-0.9,5.4-2.5,6.8-5.4
			c0.1-0.2,0.2-0.3,0.3-0.5c-0.4,2.3-1.4,4.2-2.6,6.2C182.8,133.3,183.5,132.9,184.1,132.6 M209.6,162.5l0,0.2
			c0.3,0.1,0.5,0.2,0.8,0.2c0.8,0.2,1.2,0.6,1.4,1.4c0.1,0.3,0.1,0.7,0.1,1c0.1,3.9,0.2,7.8,0.2,11.7c0,0.7,0,1.4,0,2.3
			c-0.4-0.3-0.6-0.4-0.8-0.6c-3.3-3.3-6.7-6.7-10-10.1c-1.9-1.9-3.7-3.9-5.5-5.9c-0.2-0.2-0.4-0.7-0.9-0.5c0,0.2,0,0.4,0,0.6
			c0,2.8,0,5.5,0,8.3c-0.1,3.2-0.1,6.4-0.3,9.6c-0.1,2.1-0.2,2.1-2,3.1c1.2,0.3,2.3,0,3.4,0c1.1,0,2.2,0.3,3.5,0
			c-0.3-0.1-0.4-0.2-0.5-0.2c-2.1-0.5-2.5-0.9-2.6-3c-0.1-4.3-0.2-8.7-0.3-13.1c0-0.1,0.1-0.3,0.1-0.4c0.1,0,0.2,0,0.3,0.1
			c0.3,0.3,0.6,0.5,0.9,0.8c5.1,5.2,10.3,10.3,15.1,15.8c0.2,0.2,0.4,0.3,0.7,0.6c0-0.5,0.1-0.8,0.1-1.1c0-2.2,0-4.4,0.1-6.6
			c0.1-3.8,0.2-7.6,0.3-11.4c0-1.3,0.3-2.4,1.7-2.8c0,0,0-0.1,0-0.2H209.6z M125.2,184c0-0.1,0.1-0.2,0.1-0.3
			c-1.6-0.1-2.4-1.2-3.2-2.4c-0.9-1.3-1.7-2.6-2.6-3.9c-1.1-1.7-2.2-3.4-3.3-5.3c1.9-2.7,3.7-5.4,5.6-8.1c0.5-0.7,1.1-1.1,1.9-1.3
			c0.2,0,0.3-0.2,0.6-0.3c-1.6-0.2-5.3-0.1-5.8,0.1c0.1,0,0.2,0.1,0.3,0.1c0.9,0.4,1,0.5,0.6,1.4c-0.1,0.1-0.1,0.3-0.2,0.4
			c-1.2,2.1-2.3,4.2-3.5,6.2c-0.1,0.1-0.2,0.2-0.4,0.3c-1.3-2.3-2.6-4.6-3.8-6.9c-0.4-0.8-0.3-1.1,0.6-1.4c0.2-0.1,0.4-0.2,0.5-0.2
			c0-0.1,0-0.1,0-0.2h-2.3c-0.8,0-1.6,0-2.3,0c-0.7,0-1.5-0.2-2.2,0.2c1.1,0.2,1.9,0.8,2.5,1.7c1.8,2.9,3.7,5.8,5.6,8.8
			c0,0.1,0,0.1,0.1,0.4c-1.8,2.7-3.7,5.4-5.6,8.2c-0.7,1.1-1.7,1.9-3,2.1c-0.1,0-0.1,0.1-0.4,0.3h6.7c-0.2-0.2-0.3-0.3-0.4-0.3
			c-1.6-0.4-1.6-0.6-0.9-2.1c0-0.1,0.1-0.1,0.1-0.2c1.2-2.1,2.4-4.1,3.6-6.2c0.2-0.3,0.4-0.5,0.6-0.9c1.6,2.6,3,5.1,4.5,7.6
			c0.1,0.1,0.1,0.3,0.2,0.4c0.3,0.7,0.2,0.9-0.5,1.2c-0.2,0.1-0.3,0.2-0.7,0.4H125.2z M259.6,166.7c0.1,0,0.1,0,0.2,0
			c0.1-0.2,0.2-0.4,0.2-0.6c0.1-0.5,0.1-1.1,0.2-1.7c0.2-2.1,0.2-2.1-1.8-2.1c-3.5,0-7,0-10.5,0c-0.2,0-0.4,0.1-0.5,0.1
			c0.3,0.2,0.6,0.3,0.8,0.4c0.9,0.2,1.4,0.7,1.5,1.6c0.1,0.5,0.1,1,0.1,1.6c0,4.1,0.1,8.3,0,12.4c0,1.2-0.1,2.5-0.2,3.7
			c-0.1,0.9-0.6,1.3-1.4,1.5c-0.3,0.1-0.5,0.1-0.8,0.2c0.3,0.2,0.6,0.3,1,0.3c2.7,0,5.5,0,8.2,0c1.2,0,2.4,0.1,3.6,0
			c1.2,0,1.5-0.4,1.6-1.6c0.1-1.1,0.1-2.2,0.1-3.2c0-0.2-0.1-0.4-0.1-0.6c-0.4,0.7-0.6,1.4-0.8,2c-0.4,1-1,1.8-2.1,2
			c-1.8,0.4-3.6,0.3-5.4,0.1c-0.6-0.1-0.9-0.4-1-0.9c-0.1-0.4-0.1-0.7-0.1-1.1c0-2.2-0.1-4.5-0.1-6.7c0-0.2,0.1-0.4,0.1-0.7
			c1.4,0,2.9,0,4.3,0c1.4,0,1.5,0.1,2,1.4c0,0,0.1,0,0.3,0.1c0.3-1,0.4-2,0.5-3c-1.7,0.5-6,0.5-7,0.1v-8.5c1.9-0.1,3.6-0.1,5.4,0.2
			c1,0.2,1.5,0.9,1.7,1.9C259.5,165.9,259.5,166.3,259.6,166.7 M183.1,178.8c-0.1,0-0.1,0-0.2,0c-0.1,0.5-0.3,1.1-0.4,1.6
			c-0.3,1.1-1,2.1-2.2,2.4c-1.8,0.5-3.7,0.3-5.5,0.1c-0.6-0.1-0.9-0.5-1-1.1c0-0.3-0.1-0.6-0.1-0.9c0-2.2-0.1-4.5-0.1-6.7
			c0-0.2,0.1-0.5,0.1-0.8c1.7,0,3.3,0,4.8,0c0.7,0,1.1,0.3,1.3,1c0,0.2,0.1,0.3,0.2,0.5c0.6-1,0.6-2,0.7-3c-2.4,0.5-4.7,0.3-6.9,0.3
			c-0.3-1.3-0.2-7.8,0-8.7c1.4,0,2.8,0,4.2,0c1.9,0.1,2.5,0.7,2.8,2.5c0,0.2,0.1,0.4,0.2,0.6c0.1,0,0.2,0,0.3,0
			c0.1-0.9,0.2-1.7,0.3-2.6c0.1-1.5,0-1.6-1.5-1.6c-3.6,0-7.2,0-10.8,0c-0.2,0-0.4,0.1-0.6,0.1c0.2,0.2,0.5,0.3,0.7,0.4
			c1,0.2,1.5,0.7,1.6,1.7c0,0.5,0.1,1,0.1,1.6c0,4.7,0,9.5,0,14.2c0,0.5-0.1,1-0.1,1.4c-0.1,1.1-0.6,1.7-1.7,1.9
			c-0.2,0-0.4,0.1-0.5,0.2c0,0.1,0,0.2,0,0.2c0.4,0,0.8,0,1.2,0c1,0,2-0.1,3-0.1c2.5,0,5.1,0.1,7.6,0.1c0.5,0,1,0,1.6-0.1
			c0.6-0.1,1-0.5,1-1C183.2,181.6,183.1,180.2,183.1,178.8 M68.9,178.1c-0.4,0.8-0.6,1.9-0.6,3.2c0,1.5,0.5,2.3,1.9,2.8
			c2.1,0.7,4.2,0.8,6.3,0.1c2.5-0.8,4-2.7,4.2-5.2c0.1-2.1-0.6-3.8-2.2-5.1c-1.1-0.8-2.3-1.5-3.5-2.2c-0.9-0.6-1.9-1.2-2.7-1.9
			c-1.2-1.1-1.6-2.5-1.3-4c0.2-1.5,1.1-2.4,2.5-2.8c2.6-0.7,4.7,0.5,5.4,3.2c0.1,0.3,0.2,0.6,0.3,0.9c0.1,0,0.2,0,0.3,0
			c0.1-0.9,0.3-1.9,0.3-2.8c0-1-0.3-1.5-1.3-1.8c-1.7-0.5-3.4-0.6-5.1-0.2c-2.2,0.5-3.8,1.8-4.2,4.1c-0.4,2.1,0,4,1.6,5.6
			c0.8,0.8,1.8,1.4,2.8,2c0.8,0.5,1.7,0.9,2.4,1.4c0.7,0.5,1.5,1.1,2,1.8c1.8,2.5,0.8,5.8-2.1,6.6c-3.3,0.9-5.6-0.6-6.3-3.5
			c-0.1-0.4-0.1-0.8-0.2-1.2C69,178.6,68.9,178.4,68.9,178.1 M282.2,167l0.3,0c0.1-0.9,0.3-1.8,0.3-2.7c0.1-1.1-0.3-1.6-1.4-2
			c-1.6-0.5-3.3-0.6-5-0.2c-2.3,0.5-3.8,1.8-4.2,4.2c-0.4,2.3,0.2,4.3,2,5.9c0.7,0.6,1.6,1.1,2.4,1.7c0.8,0.5,1.6,0.8,2.3,1.3
			c0.8,0.6,1.6,1.2,2.1,1.9c1.8,2.5,0.6,5.8-2.3,6.6c-0.7,0.2-1.4,0.2-2.1,0.1c-1.6-0.1-2.8-0.9-3.5-2.4c-0.4-0.8-0.5-1.7-0.7-2.5
			c-0.1-0.2-0.1-0.4-0.3-0.8c-0.5,1.2-0.5,2.3-0.5,3.3c0,1.6,0.5,2.3,2,2.8c2,0.7,4.1,0.8,6.1,0.1c4.5-1.4,5.7-6.8,2.3-10
			c-0.8-0.8-1.8-1.3-2.7-1.9c-0.9-0.6-1.8-1-2.7-1.5c-0.9-0.6-1.7-1.3-2.2-2.4c-0.8-1.7-0.4-3.9,1-4.9c2.3-1.6,5.5-0.6,6.4,2
			C281.9,166,282,166.5,282.2,167 M236.3,167c0.1,0,0.2,0,0.3,0c0.1-0.9,0.3-1.9,0.3-2.8c0.1-1.1-0.3-1.6-1.3-1.9
			c-1.9-0.5-3.8-0.6-5.7,0c-2,0.7-3.2,2.1-3.6,4.2c-0.3,2.1,0.2,4,1.7,5.4c0.9,0.8,1.9,1.4,2.9,2.1c0.8,0.5,1.8,1,2.6,1.5
			c0.5,0.4,1.1,0.8,1.5,1.3c1,1.4,1.3,2.9,0.6,4.5c-0.7,1.6-2,2.2-3.6,2.4c-0.4,0-0.9,0-1.3,0c-1.5-0.1-2.6-0.8-3.3-2.1
			c-0.4-0.7-0.6-1.5-0.8-2.3c-0.1-0.4-0.2-0.7-0.2-1.1c-0.6,1-0.6,2.1-0.6,3.2c0,1.5,0.5,2.2,2,2.7c2,0.7,4,0.7,6,0.2
			c3-0.8,4.6-3.3,4.3-6.3c-0.1-1.6-0.8-3-2.1-3.9c-1.1-0.9-2.4-1.5-3.5-2.3c-1-0.7-2.1-1.2-2.9-2c-1.2-1.2-1.5-2.7-1.1-4.3
			c0.3-1.2,1.1-2,2.3-2.4c2.6-0.8,4.8,0.4,5.5,3C236.1,166.3,236.2,166.7,236.3,167 M157.7,167c0.1,0,0.2,0,0.3,0
			c0.1-0.9,0.2-1.8,0.3-2.8c0.1-1.2-0.3-1.6-1.4-1.9c-1.6-0.4-3.2-0.6-4.8-0.2c-2.1,0.4-3.7,1.5-4.3,3.7c-0.7,2.4-0.1,4.7,1.8,6.4
			c0.8,0.7,1.7,1.2,2.6,1.8c0.7,0.4,1.5,0.8,2.1,1.2c0.7,0.5,1.3,1,1.9,1.5c1.7,1.8,1.8,6-2,6.9c-3.2,0.8-5.5-0.6-6.3-3.7
			c-0.1-0.4-0.1-0.7-0.2-1.1c0-0.2-0.1-0.4-0.2-0.8c-0.2,0.3-0.3,0.4-0.3,0.6c-0.1,0.9-0.2,1.8-0.3,2.8c0,1.6,0.5,2.3,2,2.8
			c2,0.6,4,0.7,5.9,0.1c4.6-1.3,5.9-6.7,2.5-10c-1.1-1.1-2.4-1.8-3.8-2.5c-0.8-0.4-1.6-0.9-2.4-1.5c-0.9-0.6-1.4-1.5-1.7-2.5
			c-0.6-2.3,0.4-4.3,2.6-4.8c2.5-0.6,4.4,0.5,5.2,3C157.5,166.2,157.6,166.6,157.7,167 M97.6,184c0-0.1,0-0.1,0-0.2
			c-0.2,0-0.4-0.1-0.6-0.2c-1.3-0.3-1.6-0.6-1.8-1.9c-0.1-0.6-0.1-1.2-0.1-1.8c0-3.6-0.1-7.1-0.1-10.7c0-1.6,0.1-3.3,0.2-4.9
			c0-0.9,0.5-1.4,1.4-1.6c0.1,0,0.3-0.1,0.4-0.2c0,0,0-0.1,0-0.1h-6.8c0.1,0.2,0.3,0.3,0.4,0.3c1,0.1,1.5,0.8,1.6,1.7
			c0.1,1,0.2,2,0.2,3c0,3.9,0,7.8,0,11.7c0,0.9-0.1,1.8-0.2,2.7c-0.1,0.9-0.6,1.6-1.6,1.8c-0.2,0-0.4,0.1-0.6,0.2c0,0.1,0,0.1,0,0.2
			H97.6z M181.5,210c0.2,0.6,0.4,1.2,0.4,1.7c0,2.3,0,4.5,0,6.8c0,1.1-0.1,1.1-0.9,1.8c1.5,0.1,3,0.2,4.4,0.2c0.8,0,1.6-0.1,2.3-0.4
			c2.3-0.7,3.6-2.8,3.5-5.4c-0.1-2.4-1.5-4.1-3.8-4.6C185.5,209.7,183.5,210,181.5,210 M157.8,216.1c0-4.3-2.2-6.5-5.3-6.4
			c-0.9,0-1.9,0.2-2.7,0.6c-3.6,1.5-4.3,6.9-1.2,9.2c1.9,1.4,4.1,1.6,6.2,0.6C156.9,219.1,157.8,217.3,157.8,216.1 M210.9,220.6
			c3.2,0,5.7-2.3,5.7-5.5c0.1-3.1-2.2-5.4-5.3-5.4c-3.4,0-5.8,2.2-5.9,5.4C205.5,218.4,207.5,220.5,210.9,220.6 M162.3,209.9
			c-0.1,0-0.2,0-0.3,0.1c0,0.4,0,0.8,0,1.2c0,2.4-0.1,4.8-0.1,7.2c0,0.6-0.3,1.3-0.4,1.9h2.3c-1-0.7-1-0.7-1.1-1.9
			c-0.1-1-0.1-1.9-0.1-2.9c0-1,0-2,0-3.1c2.9,2.5,5.5,5.2,8.2,8.1c0-0.5,0.1-0.7,0.1-0.9c0.1-2.6,0.1-5.3,0.2-7.9
			c0-0.6,0.2-1.2,0.4-1.8h-1.6c0.1,0.6,0.3,1.2,0.4,1.8c0.1,0.9,0.1,1.9,0.1,2.8c0,1.1,0,2.1,0,3.2c-0.1,0-0.2,0.1-0.2,0.1
			C167.4,215.4,164.9,212.6,162.3,209.9 M203.4,220.3c-0.7-0.4-1-1.1-1.2-1.8c-1-2.6-1.9-5.1-2.9-7.7c-0.1-0.3-0.3-0.6-0.5-1.2
			c-0.3,0.6-0.4,0.9-0.6,1.2c-0.8,1.9-1.5,3.8-2.3,5.7c-0.6,1.3-0.9,2.8-2.3,3.8h2.3c-0.1-0.4-0.3-0.8-0.2-1.1c0.3-1,0.6-1.9,1-2.9
			h3.4c0.3,1.3,1.2,2.5,0.9,4H203.4z M143.7,212.8c0.1-0.6,0.1-0.9,0.2-1.2c0.1-1.1-0.1-1.3-1.1-1.6c-1.5-0.4-2.9-0.4-4.4,0
			c-2.2,0.6-3.5,2-3.8,4.2c-0.1,0.7-0.1,1.3,0,2c0.2,2,1.3,3.3,3.1,4c1.6,0.6,3.2,0.6,4.8,0.3c1.5-0.3,1.9-1.2,1.3-2.7
			c-0.3,1-0.7,1.8-1.8,2.2c-2.2,0.8-4.8-0.3-5.7-2.4c-0.5-1.2-0.5-2.5-0.4-3.7c0.2-2,1.5-3.3,3.5-3.6
			C141.6,209.9,142.7,210.5,143.7,212.8 M183.1,134c-0.1-0.1-0.2-0.2-0.3-0.3c-0.8,0.6-1.9,0.5-2.4,1.6c0.6-0.5,1.2-0.8,1.9-0.8
			C182.7,134.4,182.9,134.1,183.1,134"/>
		<path class="st2" d="M210,78.8c0.5,0.9,0.9,1.8,1.3,2.6c0.1,0,0.2-0.1,0.2-0.1c-0.2-0.4-0.3-0.8-0.5-1.2c0.1,0,0.1-0.1,0.2-0.1
			c0.2,0.1,0.4,0.3,0.4,0.4c0.1,1.2,1.3,2.1,1.3,3.4c0,1.2,0.3,2.4,0.4,3.5c0,0.6-0.1,1.4-0.4,1.9c-0.6,1-0.7,2.1-1.3,3.2
			c-0.8,1.4-1.9,2.4-3.1,3.4c-1.1,0.9-2.5,1.6-3.7,2.4c-0.5,0.3-1,0.6-1.8,0.3c-0.3-0.1-0.9,0.2-1.3,0.2c-1,0-2-0.2-3-0.3
			c-0.4,0-0.8-0.1-1.1,0c-0.8,0.2-1.4,0-2-0.4c-1.1-0.8-2.2-1.5-3.3-2.3c-0.6-0.4-1.1-0.9-1.5-1.5c-0.7-1-1.3-2-2-3.1
			c-0.3-0.4-0.4-0.9-0.2-1.4c0.1-0.1,0.1-0.4,0-0.5c-0.9-1.8-0.8-3.7-0.3-5.5c0.3-1.4,0.9-2.6,1.7-3.8c0.6-1,1.3-2,2.1-2.8
			c1-1,2.3-1.5,3.7-2.2c-0.9,1.2-1.7,2.3-2.4,3.5c-0.7,1.1-1.2,2.4-1.5,3.8c0.2-0.1,0.3-0.1,0.3-0.2c1.6-3.3,4.3-5.1,7.8-5.9
			c1.5-0.3,3.1-0.4,4.6-0.6c0.4,0,0.9,0.1,1.3,0.3c1.1,0.7,2,1.5,3.1,2.2C209.4,78.4,209.7,78.6,210,78.8 M212.4,84.6
			c0.1,0,0.2,0,0.3,0c-0.2-0.6,0-1.3-0.5-1.9C212.2,83.4,212.3,84,212.4,84.6"/>
		<path class="st2" d="M165.3,44.2c-0.1,0.4-0.2,0.7-0.3,1.1c-0.3-0.7-0.3-0.7,0-1.2c0.1-0.2,0.4-0.4,0.4-0.6c-0.1-1,0.5-1.6,1-2.3
			c0.6-0.9,1.3-1.7,2-2.6c0.5-0.7,1.2-1.1,2-1.4c0.6-0.2,1.1-0.5,1.7-0.8c0.2-0.1,0.4-0.1,0.7-0.1c-2.1,2.1-3.5,4.6-4.1,7.5
			c0.1-0.2,0.2-0.3,0.3-0.5c1.3-2.5,3.3-4.1,5.9-5c2.5-0.9,5.2-1.2,7.9-1.1c0.9,0,1.4,0.7,1.9,1.2c0.8,0.6,1.3,1.5,2,2.3
			c0.2,0.3,0.4,0.6,0.7,0.7c0.8,0.4,1,1.1,1.2,1.9c0.3,1.3,0.6,2.6,0.8,3.9c0.1,0.5,0.1,1.1,0,1.6c-0.2,1.4-0.5,2.7-0.7,4
			c0,0.2-0.1,0.5-0.2,0.6c-0.9,0.3-1,1.3-1.4,2c-0.9,1.5-2.2,2.6-3.7,3.4c-0.9,0.5-2.1,0.8-3.1,1.1c-0.7,0.2-1.4,0.3-2,0.5
			c-1.7,0.4-3.4,0-5-0.6c-1.4-0.5-2.8-1-3.9-2.1c-0.3-0.2-0.6-0.4-0.5-0.9c0-0.2-0.3-0.5-0.5-0.7c-2.1-2.3-3.1-4.9-3.2-8
			c0-0.4-0.2-0.8-0.3-1.4c0.6-0.6,0.6-1.7,0.9-2.6C165.5,44.2,165.4,44.2,165.3,44.2 M167.2,41.2c-0.1,0-0.2-0.1-0.3-0.1
			c-0.1,0.7-1,1-0.9,1.8C166.4,42.3,166.8,41.7,167.2,41.2"/>
		<path class="st2" d="M129.3,134.4c0.2,0.1,0.4,0.2,0.6,0.4c-0.2,0.2-0.3,0.4-0.4,0.4c-1.4,0.2-2.4,1.4-3.9,1.4
			c-1.1,0-2.2,0.3-3.3,0.4c-0.6,0-1.2-0.1-1.7-0.3c-1-0.3-1.9-0.8-2.9-1.1c-1.5-0.6-2.5-1.8-3.6-2.9c-1.3-1.4-2.3-2.9-2.9-4.7
			c-0.1-0.2-0.1-0.5-0.1-0.8c0-0.1,0.1-0.2,0.1-0.3c-0.4-1-0.1-2.1-0.1-3.1c0-0.3,0.1-0.7,0.1-1c0-0.4,0.1-0.9,0-1.3
			c-0.2-0.6-0.1-1.1,0.3-1.6c0.8-1.2,1.5-2.3,2.3-3.5c0.4-0.6,0.9-1.1,1.4-1.5c1.2-0.9,2.3-1.9,3.8-2.3c-2.2,2.1-3.5,4.6-4.3,7.4
			c0.1,0.1,0.2,0.2,0.3,0.2c0-0.1,0.1-0.3,0.1-0.4c1.4-3.1,4-4.9,7.2-5.7c1.6-0.4,3.3-0.5,5-0.7c1.7-0.2,3,0.5,4.2,1.5
			c1.6,1.3,2.6,3,3.3,4.9c0.4,1,0.9,2,0.8,3.1c0,0.2,0.1,0.4,0,0.5c-0.6,0.8-0.4,1.7-0.5,2.5c-0.4,2.6-1.5,4.8-3.3,6.7
			c-0.3,0.3-0.4,0.7-0.7,1.1C130.6,133.9,129.9,134.2,129.3,134.4c-0.2,0.2-0.5,0.5-0.7,0.7C129,135.1,129.5,135.1,129.3,134.4
			 M127.3,136l-0.1-0.3l-1.9,0.4c0,0.1,0,0.1,0,0.2C126,136.2,126.6,136.1,127.3,136"/>
		<path class="st2" d="M157.5,97.7c2.2-2.2,3.5-4.6,4.2-7.6c-0.3,0.2-0.4,0.3-0.4,0.4c-1.7,3.6-4.7,5.3-8.5,6.1
			c-1.2,0.2-2.4,0.3-3.5,0.4c-2.5,0.2-4.3-1.1-5.7-2.8c-1.3-1.5-2.1-3.3-2.5-5.2c-0.2-0.9-0.4-1.7-0.5-2.6c-0.2-1.7,0.3-3.3,0.9-4.9
			c0.4-1.1,0.8-2.2,1.7-3.1c0.3-0.3,0.5-0.6,1-0.6c0.2,0,0.4-0.3,0.6-0.4c2.3-2.1,4.9-3.1,8-3.2c0.4,0,0.9-0.2,1.2-0.3
			c0.9,0.3,1.8,0.6,2.8,0.9c0-0.9-0.9-0.2-1-0.9c0.5-0.1,0.8-0.1,1.2,0.2c0.2,0.2,0.5,0.4,0.7,0.3c0.8-0.1,1.4,0.4,2,0.8
			c1,0.7,2,1.4,2.9,2.3c0.5,0.4,0.8,1,1.1,1.6c0.3,0.6,0.7,1.2,0.9,1.9c0.4,1.2,0.9,2.4,0.8,3.7c0,1-0.1,2-0.2,3
			c-0.1,1.5-0.5,2.9-1.1,4.3c-0.1,0.2-0.3,0.4-0.5,0.6c-0.4,0.5-0.8,1-1.3,1.5c-0.6,0.6-1.3,1.1-2,1.7c-0.2,0.2-0.5,0.4-0.7,0.7
			C159.3,97.4,158.6,97.6,157.5,97.7 M160,76.3c0-0.1,0.1-0.1,0.1-0.2c-0.3-0.2-0.6-0.3-0.9-0.6c-0.2-0.2-0.3-0.7-0.9-0.4
			C159,75.6,159.5,76,160,76.3"/>
		<path class="st2" d="M226.6,135.9c-1.1,0.1-2.1-0.3-2.9-1.1c-0.9-0.7-1.8-1.4-2.7-2.1c-0.3-0.2-0.5-0.5-0.7-0.7
			c-0.8-2-2-3.8-2.1-6c-0.1-2.6,0.2-5.2,1.3-7.7c0-0.1,0-0.2,0.1-0.3c1.3-1,2.1-2.6,3.7-3.4c0.3-0.2,0.6-0.5,0.8-0.8
			c0.6-0.8,0.7-0.9,2.1-1c-2.1,2.1-3.3,4.4-3.9,7.2c0.1-0.1,0.2-0.1,0.2-0.2c1.5-3.1,4.2-4.8,7.5-5.7c1.7-0.4,3.4-0.6,5.1-0.6
			c1.2,0,2.2,0.4,3.1,1c1.1,0.7,2,1.5,2.7,2.6c0.8,1.3,1.5,2.7,1.8,4.2c0.1,0.8,0.4,1.6,0.5,2.5c0.3,1.7-0.2,3.2-0.8,4.8
			c-0.5,1.3-1,2.6-2,3.6c-0.2,0.2-0.5,0.3-0.8,0.4c-0.2,0.1-0.4,0.2-0.6,0.4c-2.3,2.1-5,3.3-8.2,3.3c-0.4,0-0.7,0.1-1.2,0.2
			c-0.5-0.2-1.2-0.3-1.8-0.5l0,0c-0.3-0.1-0.5-0.2-0.8-0.3C226.8,135.6,226.6,135.8,226.6,135.9L226.6,135.9z M223.6,134l-0.1,0.2
			c0.2,0.1,0.4,0.2,0.6,0.3l0.1-0.1C224,134.3,223.8,134.1,223.6,134 M224.7,134.8c0,0-0.1,0.1-0.1,0.1c0.1,0.1,0.1,0.2,0.2,0.3
			c0.1,0.1,0.3,0,0.4,0l0-0.2C225,135,224.9,134.9,224.7,134.8"/>
		<path class="st2" d="M184.1,132.6c-0.7,0.3-1.3,0.6-2,1c1.2-1.9,2.2-3.9,2.6-6.2c-0.1,0.2-0.3,0.3-0.3,0.5
			c-1.4,2.9-3.8,4.5-6.8,5.4c-2.1,0.6-4.3,0.8-6.5,0.7c-1.4,0-2.2-0.7-3.1-1.6c-1.1-1.1-2.1-2.3-2.9-3.6c-0.3-0.6-0.6-1.1-0.9-1.7
			c-0.2-0.4-0.3-0.7-0.2-1.2c0.1-0.3-0.2-0.8-0.2-1.2c0-1,0.1-2,0.2-3c0-0.5,0-1,0-1.5c0-0.4,0-0.9,0.2-1.3c0.6-1.1,1.3-2.2,2-3.2
			c1.3-1.9,3.2-3.1,5.2-4.2c0.1-0.1,0.3-0.2,0.4-0.2c1.5,0.2,2.8-0.7,4.2-0.7c1.4,0,2.7,0.3,4,0.7c1.3,0.4,2.4,1.1,3.5,1.8
			c1.2,0.7,2.3,1.8,3,3c0.8,1.3,1.3,2.7,1.8,4.2c0.2,0.8,0.5,1.6-0.1,2.4c-0.1,0.1-0.1,0.4-0.1,0.6c-0.2,3.1-1.3,5.9-3.5,8.1
			C184.6,131.9,184.4,132.3,184.1,132.6"/>
		<path class="st2" d="M209.6,162.5h5.8c0,0.1,0,0.2,0,0.2c-1.4,0.4-1.7,1.6-1.7,2.8c-0.1,3.8-0.2,7.6-0.3,11.4c0,2.2,0,4.4-0.1,6.6
			c0,0.3,0,0.6-0.1,1.1c-0.3-0.3-0.6-0.4-0.7-0.6c-4.8-5.5-10-10.6-15.1-15.8c-0.3-0.3-0.6-0.6-0.9-0.8c0,0-0.1,0-0.3-0.1
			c0,0.1-0.1,0.3-0.1,0.4c0.1,4.4,0.1,8.7,0.3,13.1c0.1,2.1,0.5,2.5,2.6,3c0.1,0,0.2,0.1,0.5,0.2c-1.3,0.3-2.4,0.1-3.5,0
			c-1.1,0-2.2,0.3-3.4,0c1.9-1,1.9-1,2-3.1c0.2-3.2,0.2-6.4,0.3-9.6c0-2.8,0-5.5,0-8.3c0-0.2,0-0.4,0-0.6c0.5-0.2,0.7,0.2,0.9,0.5
			c1.8,1.9,3.6,3.9,5.5,5.9c3.3,3.4,6.7,6.7,10,10c0.2,0.2,0.4,0.3,0.8,0.6c0-0.9,0-1.6,0-2.3c-0.1-3.9-0.1-7.8-0.2-11.7
			c0-0.3-0.1-0.7-0.1-1c-0.1-0.8-0.6-1.3-1.4-1.4c-0.3-0.1-0.5-0.2-0.8-0.2L209.6,162.5z"/>
		<path class="st2" d="M125.2,184h-6.9c0.4-0.2,0.5-0.3,0.7-0.4c0.7-0.3,0.8-0.6,0.5-1.2c-0.1-0.1-0.1-0.3-0.2-0.4
			c-1.5-2.5-3-5-4.5-7.6c-0.3,0.3-0.5,0.6-0.6,0.9c-1.2,2.1-2.4,4.1-3.6,6.2c0,0.1-0.1,0.1-0.1,0.2c-0.7,1.4-0.6,1.6,0.9,2.1
			c0.1,0,0.1,0.1,0.4,0.3H105c0.2-0.2,0.3-0.3,0.4-0.3c1.4-0.2,2.3-1,3-2.1c1.9-2.8,3.8-5.5,5.6-8.2c0-0.2,0-0.3-0.1-0.4
			c-1.8-2.9-3.7-5.8-5.5-8.8c-0.6-0.9-1.4-1.5-2.5-1.7c0.7-0.4,1.5-0.2,2.2-0.2c0.8,0,1.6,0,2.3,0h2.3c0,0.1,0,0.1,0,0.2
			c-0.2,0.1-0.3,0.2-0.5,0.2c-0.9,0.3-1.1,0.6-0.6,1.4c1.2,2.3,2.5,4.6,3.8,6.9c0.2-0.1,0.3-0.2,0.4-0.3c1.2-2.1,2.3-4.2,3.5-6.2
			c0.1-0.1,0.1-0.3,0.2-0.4c0.4-0.9,0.3-1-0.6-1.4c-0.1,0-0.2-0.1-0.3-0.1c0.5-0.2,4.3-0.3,5.8-0.1c-0.3,0.2-0.5,0.3-0.6,0.3
			c-0.8,0.1-1.4,0.6-1.9,1.3c-1.9,2.7-3.7,5.4-5.6,8.1c1.1,1.8,2.2,3.6,3.3,5.3c0.8,1.3,1.7,2.6,2.6,3.9c0.8,1.2,1.6,2.3,3.2,2.4
			C125.3,183.9,125.2,183.9,125.2,184"/>
		<path class="st2" d="M259.6,166.7c-0.1-0.4-0.1-0.8-0.2-1.1c-0.2-1-0.7-1.7-1.7-1.9c-1.8-0.3-3.5-0.3-5.4-0.2v8.5
			c1.1,0.4,5.3,0.3,7-0.1c0,1.1-0.2,2.1-0.5,3c-0.1,0-0.2,0-0.3-0.1c-0.5-1.3-0.6-1.4-2-1.4c-1.4,0-2.8,0-4.3,0
			c0,0.3-0.1,0.5-0.1,0.7c0,2.2,0.1,4.5,0.1,6.7c0,0.4,0,0.7,0.1,1.1c0.1,0.5,0.4,0.9,1,0.9c1.8,0.2,3.6,0.3,5.4-0.1
			c1.1-0.2,1.7-1,2.1-2c0.2-0.7,0.4-1.4,0.8-2c0,0.2,0.1,0.4,0.1,0.6c0,1.1,0,2.2-0.1,3.2c-0.1,1.2-0.4,1.5-1.6,1.6
			c-1.2,0-2.4,0-3.6,0c-2.7,0-5.5,0-8.2,0c-0.3,0-0.6,0-1-0.3c0.3-0.1,0.5-0.1,0.8-0.2c0.8-0.2,1.3-0.7,1.4-1.5
			c0.1-1.2,0.2-2.4,0.2-3.7c0-4.1,0-8.3,0-12.4c0-0.5-0.1-1-0.1-1.6c-0.1-0.9-0.6-1.4-1.5-1.6c-0.3-0.1-0.6-0.2-0.8-0.4
			c0.2,0,0.4-0.1,0.5-0.1c3.5,0,7,0,10.5,0c2,0,2.1,0,1.8,2.1c-0.1,0.6-0.1,1.1-0.2,1.7c0,0.2-0.1,0.4-0.2,0.6
			C259.7,166.7,259.7,166.7,259.6,166.7"/>
		<path class="st2" d="M183.1,178.8c0,1.4,0,2.8,0,4.2c0,0.6-0.4,1-1,1c-0.5,0.1-1,0.1-1.5,0.1c-2.5,0-5.1-0.1-7.6-0.1
			c-1,0-2,0.1-3,0.1c-0.4,0-0.8,0-1.2,0c0-0.1,0-0.1,0-0.2c0.2-0.1,0.3-0.2,0.5-0.2c1.1-0.2,1.6-0.8,1.7-1.9c0-0.5,0.1-1,0.1-1.4
			c0-4.7,0-9.5,0-14.2c0-0.5-0.1-1-0.1-1.6c-0.1-1-0.6-1.6-1.6-1.7c-0.2,0-0.5-0.1-0.7-0.4c0.2,0,0.4-0.1,0.5-0.1
			c3.6,0,7.2,0,10.8,0c1.6,0,1.7,0.1,1.5,1.6c-0.1,0.9-0.2,1.7-0.3,2.6c-0.1,0-0.2,0-0.3,0c-0.1-0.2-0.2-0.4-0.2-0.6
			c-0.3-1.8-0.9-2.4-2.8-2.5c-1.4-0.1-2.8,0-4.2,0c-0.3,0.9-0.3,7.4,0,8.7c2.3,0,4.5,0.2,6.9-0.3c-0.1,1-0.1,2-0.7,3
			c-0.1-0.1-0.1-0.3-0.2-0.5c-0.1-0.7-0.6-1-1.3-1c-1.6,0-3.2,0-4.9,0c0,0.3-0.1,0.5-0.1,0.8c0,2.2,0.1,4.5,0.1,6.7
			c0,0.3,0.1,0.6,0.1,0.9c0.1,0.6,0.4,1,1,1.1c1.9,0.2,3.7,0.4,5.5-0.1c1.2-0.3,1.8-1.3,2.1-2.4c0.2-0.5,0.3-1.1,0.4-1.6
			C183,178.8,183.1,178.8,183.1,178.8"/>
		<path class="st2" d="M68.9,178.1c0.1,0.3,0.2,0.5,0.2,0.7c0.1,0.4,0.1,0.8,0.2,1.2c0.7,2.9,3,4.4,6.3,3.5c2.9-0.8,3.9-4.1,2.1-6.5
			c-0.5-0.7-1.3-1.3-2-1.8c-0.8-0.5-1.6-0.9-2.4-1.4c-1-0.6-2-1.3-2.8-2c-1.6-1.5-2-3.5-1.6-5.6c0.4-2.3,2-3.6,4.2-4.1
			c1.7-0.4,3.4-0.3,5.1,0.2c1,0.3,1.4,0.8,1.3,1.8c-0.1,1-0.2,1.9-0.3,2.8c-0.1,0-0.2,0-0.3,0c-0.1-0.3-0.2-0.6-0.3-0.8
			c-0.7-2.7-2.8-4-5.4-3.2c-1.4,0.4-2.3,1.3-2.5,2.8c-0.2,1.6,0.1,3,1.3,4c0.8,0.7,1.8,1.3,2.7,1.9c1.2,0.8,2.4,1.4,3.5,2.2
			c1.6,1.3,2.4,3,2.2,5.1c-0.2,2.6-1.6,4.4-4.2,5.2c-2.1,0.7-4.2,0.6-6.3-0.1c-1.4-0.5-1.9-1.3-1.9-2.8
			C68.2,180,68.4,179,68.9,178.1"/>
		<path class="st2" d="M282.2,167c-0.1-0.5-0.3-1-0.4-1.5c-0.9-2.6-4.1-3.6-6.4-2c-1.3,1-1.8,3.2-1,4.9c0.5,1,1.2,1.8,2.2,2.4
			c0.9,0.5,1.8,1,2.7,1.5c0.9,0.6,1.9,1.2,2.7,1.9c3.4,3.2,2.2,8.6-2.3,10c-2,0.6-4.1,0.6-6.1-0.1c-1.5-0.5-2-1.3-2-2.8
			c0-1,0.1-2.1,0.5-3.3c0.1,0.4,0.2,0.6,0.3,0.8c0.2,0.9,0.4,1.8,0.7,2.5c0.7,1.5,1.9,2.3,3.5,2.4c0.7,0,1.4,0,2.1-0.1
			c3-0.7,4.2-4.1,2.3-6.6c-0.6-0.8-1.4-1.4-2.1-1.9c-0.7-0.5-1.6-0.9-2.3-1.3c-0.8-0.5-1.7-1-2.4-1.6c-1.8-1.6-2.4-3.6-2-5.9
			c0.4-2.4,2-3.7,4.2-4.2c1.7-0.4,3.3-0.3,5,0.2c1.1,0.3,1.5,0.8,1.4,2c-0.1,0.9-0.2,1.8-0.3,2.7L282.2,167z"/>
		<path class="st2" d="M236.3,167c-0.1-0.3-0.2-0.7-0.3-1c-0.7-2.6-2.9-3.9-5.5-3c-1.2,0.4-2,1.1-2.3,2.4c-0.4,1.7-0.1,3.2,1.1,4.3
			c0.9,0.8,1.9,1.4,2.9,2c1.2,0.8,2.4,1.5,3.5,2.3c1.3,1,2,2.3,2.1,3.9c0.3,3.1-1.3,5.5-4.3,6.3c-2,0.6-4.1,0.5-6-0.2
			c-1.5-0.5-1.9-1.2-1.9-2.7c0-1.1,0-2.1,0.6-3.1c0.1,0.4,0.1,0.7,0.2,1.1c0.2,0.8,0.4,1.6,0.8,2.3c0.7,1.3,1.8,2,3.3,2.1
			c0.4,0,0.9,0,1.3,0c1.6-0.2,2.9-0.8,3.6-2.4c0.7-1.6,0.5-3.1-0.6-4.5c-0.4-0.5-0.9-1-1.5-1.3c-0.8-0.6-1.7-1-2.6-1.5
			c-1-0.6-2-1.3-2.9-2.1c-1.5-1.4-2.1-3.3-1.7-5.4c0.3-2.1,1.6-3.5,3.6-4.2c1.9-0.6,3.8-0.5,5.7,0c1.1,0.3,1.4,0.8,1.3,1.9
			c-0.1,0.9-0.2,1.9-0.3,2.8C236.5,167,236.4,167,236.3,167"/>
		<path class="st2" d="M157.7,167c-0.1-0.4-0.2-0.8-0.3-1.1c-0.7-2.4-2.7-3.6-5.2-3c-2.1,0.5-3.2,2.5-2.6,4.8c0.3,1,0.9,1.9,1.7,2.5
			c0.7,0.5,1.5,1,2.4,1.5c1.3,0.7,2.7,1.5,3.8,2.5c3.4,3.3,2.1,8.7-2.5,10c-2,0.6-4,0.5-5.9-0.1c-1.5-0.5-2-1.2-2-2.8
			c0-0.9,0.2-1.8,0.3-2.8c0-0.1,0.1-0.2,0.3-0.6c0.1,0.4,0.1,0.6,0.2,0.8c0.1,0.4,0.1,0.7,0.2,1.1c0.8,3.1,3,4.5,6.2,3.7
			c3.8-0.9,3.7-5.1,2-6.9c-0.6-0.6-1.2-1.1-1.9-1.5c-0.7-0.5-1.4-0.8-2.1-1.2c-0.9-0.6-1.8-1.1-2.6-1.8c-1.9-1.7-2.5-4-1.8-6.4
			c0.6-2.1,2.2-3.2,4.3-3.7c1.6-0.3,3.2-0.2,4.7,0.2c1.2,0.3,1.5,0.8,1.4,1.9c0,0.9-0.2,1.8-0.3,2.8C157.9,167,157.8,167,157.7,167"
			/>
		<path class="st2" d="M97.6,184h-7.4c0-0.1,0-0.1,0-0.2c0.2-0.1,0.4-0.1,0.6-0.2c1-0.2,1.5-0.8,1.6-1.8c0.1-0.9,0.2-1.8,0.2-2.7
			c0-3.9,0-7.8,0-11.7c0-1-0.1-2-0.2-3c-0.1-0.9-0.6-1.6-1.6-1.7c-0.2,0-0.3-0.1-0.4-0.3H97c0,0,0,0.1,0.1,0.1
			c-0.1,0.1-0.3,0.2-0.4,0.2c-0.9,0.1-1.4,0.7-1.4,1.6c-0.1,1.6-0.2,3.3-0.2,4.9c0,3.6,0,7.1,0.1,10.7c0,0.6,0.1,1.2,0.1,1.8
			c0.2,1.3,0.5,1.6,1.8,1.9c0.2,0,0.4,0.1,0.6,0.2C97.6,183.9,97.6,184,97.6,184"/>
		<path class="st2" d="M181.5,210c1.9,0.1,4-0.3,6,0.1c2.3,0.5,3.7,2.2,3.8,4.6c0.1,2.6-1.2,4.6-3.5,5.4c-0.7,0.2-1.5,0.4-2.3,0.4
			c-1.5,0-3-0.1-4.4-0.2c0.8-0.7,0.8-0.7,0.9-1.8c0-2.3,0-4.5,0-6.8C182,211.2,181.7,210.6,181.5,210 M183.2,210.4
			c0,0.8,0,1.6,0,2.3c0,2,0,4,0,6c0,0.5,0,0.9,0.6,1.1c1.8,0.5,3.9,0.2,5-1.2c1.5-1.7,1.5-5.1,0-6.7c-0.1-0.1-0.2-0.3-0.4-0.4
			C186.9,210.3,185.2,210.3,183.2,210.4"/>
		<path class="st2" d="M157.8,216.1c0,1.1-0.9,2.9-3,3.9c-2.1,1-4.3,0.9-6.2-0.6c-3.1-2.3-2.3-7.7,1.2-9.2c0.8-0.4,1.8-0.6,2.7-0.6
			C155.6,209.6,157.8,211.8,157.8,216.1 M156.5,215.7c0-1.5-0.3-2.8-1.2-3.9c-1.7-2.3-5.4-2.2-6.6,0.3c-1,2-1,4,0.1,6
			c1.4,2.6,5.1,2.8,6.9,0.4C156.3,217.7,156.5,216.7,156.5,215.7"/>
		<path class="st2" d="M210.9,220.6c-3.4-0.1-5.5-2.2-5.4-5.6c0-3.2,2.5-5.4,5.9-5.4c3.1,0,5.4,2.3,5.3,5.4
			C216.6,218.3,214.2,220.7,210.9,220.6 M206.8,214.9c0,1.1,0.2,2.2,0.8,3.1c0.9,1.5,2.2,2.2,3.9,2.1c1.6-0.1,2.9-0.9,3.4-2.4
			c0.9-2.3,0.5-4.4-1.1-6.3c-1.1-1.3-2.6-1.5-4.2-1.1c-1.4,0.4-2.2,1.5-2.5,2.8C207,213.8,206.9,214.3,206.8,214.9"/>
		<path class="st2" d="M162.4,209.9c2.6,2.7,5.1,5.5,7.8,8c0.1,0,0.2-0.1,0.2-0.1c0-1.1,0-2.1,0-3.2c0-0.9,0-1.9-0.1-2.8
			c-0.1-0.6-0.2-1.2-0.4-1.8h1.6c-0.1,0.6-0.3,1.2-0.4,1.8c-0.1,2.6-0.1,5.3-0.2,7.9c0,0.2,0,0.4-0.1,0.9c-2.7-2.9-5.3-5.6-8.2-8.1
			c0,1,0,2,0,3.1c0,1,0.1,1.9,0.1,2.9c0.1,1.2,0.1,1.2,1.1,1.9h-2.3c0.1-0.6,0.4-1.3,0.4-1.9c0.1-2.4,0.1-4.8,0.1-7.2
			c0-0.4,0-0.8,0-1.2C162.2,210,162.3,209.9,162.4,209.9"/>
		<path class="st2" d="M203.4,220.3h-2.4c0.3-1.5-0.6-2.6-0.9-4h-3.4c-0.3,0.9-0.7,1.9-1,2.9c-0.1,0.3,0.1,0.7,0.2,1.1h-2.3
			c1.4-1,1.7-2.5,2.3-3.8c0.8-1.9,1.5-3.8,2.3-5.7c0.1-0.3,0.3-0.7,0.6-1.2c0.2,0.5,0.3,0.8,0.5,1.2c1,2.6,1.9,5.1,2.9,7.7
			C202.4,219.2,202.6,219.9,203.4,220.3 M199.8,215.8c-0.5-1.3-0.8-2.4-1.5-3.7c-0.5,1.3-0.9,2.5-1.4,3.7H199.8z"/>
		<path class="st2" d="M143.7,212.8c-1-2.3-2.1-2.9-4.3-2.6c-2,0.3-3.3,1.6-3.5,3.6c-0.1,1.3-0.1,2.5,0.4,3.7
			c0.9,2.1,3.5,3.2,5.7,2.4c1-0.4,1.5-1.2,1.8-2.2c0.6,1.5,0.2,2.4-1.3,2.7c-1.6,0.4-3.3,0.3-4.8-0.3c-1.8-0.7-2.9-2.1-3.1-4
			c-0.1-0.7-0.1-1.3,0-2c0.3-2.2,1.6-3.6,3.8-4.2c1.5-0.4,2.9-0.3,4.4,0c1,0.3,1.2,0.5,1.1,1.6C143.8,211.9,143.8,212.2,143.7,212.8
			"/>
		<path class="st2" d="M183.1,134c-0.2,0.1-0.5,0.4-0.7,0.4c-0.8,0-1.4,0.4-1.9,0.8c0.5-1.1,1.6-1,2.4-1.6
			C183,133.7,183.1,133.9,183.1,134"/>
		<path class="st2" d="M227.7,135.9c0,0.2,0.1,0.3,0.1,0.6c-0.5,0-1.1,0.2-1.2-0.6l0,0C226.9,135.9,227.3,135.9,227.7,135.9
			L227.7,135.9z"/>
		<path class="st1" d="M212.4,84.6c-0.1-0.6-0.2-1.2-0.3-1.9c0.5,0.6,0.3,1.3,0.5,1.9C212.5,84.6,212.5,84.6,212.4,84.6"/>
		<path class="st1" d="M167.2,41.2c-0.4,0.5-0.8,1.1-1.2,1.6c-0.1-0.8,0.8-1.1,0.9-1.8C167,41.1,167.1,41.1,167.2,41.2"/>
		<path class="st1" d="M127.3,136c-0.7,0.1-1.3,0.2-2,0.3c0-0.1,0-0.1,0-0.2l1.9-0.4L127.3,136z"/>
		<path class="st1" d="M129.3,134.4c0.2,0.6-0.2,0.7-0.7,0.7C128.8,134.9,129.1,134.7,129.3,134.4
			C129.3,134.5,129.3,134.4,129.3,134.4"/>
		<path class="st1" d="M160,76.3c-0.5-0.4-1-0.7-1.6-1.1c0.6-0.3,0.7,0.2,0.9,0.4c0.3,0.2,0.6,0.4,0.9,0.6
			C160.1,76.2,160.1,76.3,160,76.3"/>
		<path class="st1" d="M227.7,135.9c-0.4,0-0.8,0-1.2,0c0.1-0.1,0.2-0.3,0.3-0.3C227.1,135.7,227.4,135.8,227.7,135.9"/>
		<path class="st1" d="M223.6,134c0.2,0.1,0.4,0.3,0.6,0.4l-0.1,0.1c-0.2-0.1-0.4-0.2-0.6-0.3L223.6,134z"/>
		<path class="st1" d="M224.7,134.8c0.2,0.1,0.4,0.2,0.6,0.3l0,0.2c-0.1,0-0.3,0-0.4,0c-0.1,0-0.1-0.2-0.2-0.3
			C224.6,134.9,224.6,134.9,224.7,134.8"/>
		<path class="st1" d="M183.2,210.4c1.9-0.2,3.7-0.1,5.3,1.1c0.1,0.1,0.3,0.2,0.4,0.4c1.5,1.7,1.5,5,0,6.7c-1.2,1.4-3.3,1.7-5,1.2
			c-0.5-0.2-0.6-0.6-0.6-1.1c0-2,0-4,0-6C183.2,212,183.2,211.3,183.2,210.4"/>
		<path class="st1" d="M156.5,215.7c0,1-0.2,2-0.8,2.8c-1.7,2.4-5.4,2.2-6.9-0.4c-1.1-2-1.1-4-0.1-6c1.2-2.5,4.9-2.7,6.6-0.3
			C156.2,212.9,156.5,214.3,156.5,215.7"/>
		<path class="st1" d="M206.8,214.9c0.1-0.6,0.1-1.2,0.3-1.8c0.3-1.4,1.1-2.5,2.5-2.8c1.6-0.4,3.1-0.2,4.2,1.1
			c1.6,1.8,1.9,4,1.1,6.3c-0.6,1.5-1.8,2.3-3.4,2.4c-1.7,0.1-3-0.6-3.9-2.1C207,217.1,206.8,216,206.8,214.9"/>
		<path class="st1" d="M199.8,215.8h-2.9c0.5-1.2,0.9-2.4,1.4-3.7C199,213.3,199.3,214.5,199.8,215.8"/>
	</g>
</g>
</svg>
