<?xml version="1.0" encoding="utf-8"?>
<!-- Generator: Adobe Illustrator 21.1.0, SVG Export Plug-In . SVG Version: 6.00 Build 0)  -->
<svg version="1.1" id="Layer_1" xmlns="http://www.w3.org/2000/svg" xmlns:xlink="http://www.w3.org/1999/xlink" x="0px" y="0px"
	 viewBox="0 0 350 255.1" style="enable-background:new 0 0 350 255.1;" xml:space="preserve">
<style type="text/css">
	.st0{fill:#1F191A;}
</style>
<g>
	<polygon class="st0" points="118.1,163.1 122.9,163.1 122.9,158.8 124.5,158.8 124.5,169.8 122.9,169.8 122.9,164.7 118.1,164.7 
		118.1,169.8 116.4,169.8 116.4,158.8 118.1,158.8 	"/>
	<path class="st0" d="M128.9,164.3c0-1.6,0.6-2.9,1.7-4c1.1-1.1,2.5-1.7,4.1-1.7c1.6,0,2.9,0.6,4,1.7c1.1,1.1,1.7,2.5,1.7,4
		c0,1.6-0.6,2.9-1.7,4c-1.1,1.1-2.5,1.7-4.1,1.7c-1.4,0-2.7-0.5-3.8-1.5C129.6,167.5,128.9,166,128.9,164.3 M130.6,164.3
		c0,1.2,0.4,2.2,1.2,3c0.8,0.8,1.8,1.2,2.8,1.2c1.2,0,2.1-0.4,2.9-1.2c0.8-0.8,1.2-1.8,1.2-3c0-1.2-0.4-2.2-1.2-3
		c-0.8-0.8-1.7-1.2-2.9-1.2c-1.1,0-2.1,0.4-2.9,1.2C131,162.2,130.6,163.1,130.6,164.3"/>
	<polygon class="st0" points="147.5,160.4 147.5,169.8 145.9,169.8 145.9,160.4 143.3,160.4 143.3,158.8 150.1,158.8 150.1,160.4 	
		"/>
	<path class="st0" d="M166.9,160.5l-1.4,0.8c-0.3-0.4-0.5-0.7-0.7-0.9c-0.2-0.2-0.5-0.2-0.9-0.2c-0.5,0-0.8,0.1-1.1,0.4
		c-0.3,0.3-0.5,0.6-0.5,1c0,0.5,0.4,1,1.2,1.3l1.1,0.4c0.9,0.4,1.5,0.8,2,1.3c0.4,0.5,0.6,1.2,0.6,1.9c0,1-0.3,1.9-1,2.5
		c-0.7,0.7-1.5,1-2.5,1c-1,0-1.7-0.3-2.4-0.9c-0.6-0.6-1-1.4-1.2-2.4l1.7-0.4c0.1,0.6,0.2,1.1,0.4,1.3c0.3,0.5,0.8,0.7,1.5,0.7
		c0.5,0,1-0.2,1.3-0.5c0.3-0.3,0.5-0.8,0.5-1.3c0-0.2,0-0.4-0.1-0.6c-0.1-0.2-0.2-0.3-0.3-0.5c-0.1-0.2-0.3-0.3-0.5-0.4
		c-0.2-0.1-0.4-0.3-0.7-0.4l-1.1-0.4c-1.5-0.6-2.3-1.6-2.3-2.8c0-0.8,0.3-1.5,1-2.1c0.6-0.6,1.4-0.8,2.4-0.8
		C165.2,158.6,166.2,159.2,166.9,160.5"/>
	<path class="st0" d="M173.2,165.4v4.5h-1.7v-11h1.9c0.9,0,1.6,0.1,2.1,0.2c0.5,0.1,0.9,0.4,1.3,0.7c0.6,0.6,1,1.4,1,2.3
		c0,1-0.3,1.8-1,2.4c-0.7,0.6-1.6,0.9-2.7,0.9H173.2z M173.2,163.8h0.6c1.5,0,2.3-0.6,2.3-1.8c0-1.1-0.8-1.7-2.4-1.7h-0.5V163.8z"/>
	<path class="st0" d="M185.5,165.1l3.4,4.7h-2l-3.1-4.5h-0.3v4.5h-1.7v-11h2c1.5,0,2.5,0.3,3.2,0.8c0.7,0.6,1.1,1.4,1.1,2.4
		c0,0.8-0.2,1.4-0.7,2C186.8,164.6,186.2,165,185.5,165.1 M183.4,163.9h0.5c1.6,0,2.4-0.6,2.4-1.8c0-1.1-0.8-1.7-2.3-1.7h-0.6V163.9
		z"/>
	<rect x="192.9" y="158.8" class="st0" width="1.7" height="11"/>
	<polygon class="st0" points="199.5,169.8 199.5,158.1 207.6,166.5 207.6,158.8 209.2,158.8 209.2,170.5 201.2,162.1 201.2,169.8 	
		"/>
	<path class="st0" d="M220,164.1h4.6v0.4c0,0.8-0.1,1.6-0.3,2.2c-0.2,0.6-0.5,1.1-1,1.7c-1,1.2-2.3,1.7-3.9,1.7
		c-1.5,0-2.9-0.6-4-1.7c-1.1-1.1-1.6-2.5-1.6-4c0-1.6,0.6-3,1.7-4.1c1.1-1.1,2.5-1.7,4.1-1.7c0.9,0,1.7,0.2,2.4,0.5
		c0.7,0.4,1.4,0.9,2.1,1.7l-1.2,1.1c-0.9-1.2-2-1.8-3.3-1.8c-1.2,0-2.1,0.4-2.9,1.2c-0.8,0.8-1.2,1.8-1.2,3c0,1.2,0.4,2.2,1.3,3
		c0.8,0.7,1.7,1.1,2.7,1.1c0.8,0,1.6-0.3,2.2-0.8c0.7-0.6,1-1.2,1.1-2H220V164.1z"/>
	<path class="st0" d="M235.2,160.5l-1.4,0.8c-0.3-0.4-0.5-0.7-0.7-0.9c-0.2-0.2-0.5-0.2-0.9-0.2c-0.5,0-0.8,0.1-1.2,0.4
		c-0.3,0.3-0.5,0.6-0.5,1c0,0.5,0.4,1,1.2,1.3l1.1,0.4c0.9,0.4,1.5,0.8,2,1.3c0.4,0.5,0.6,1.2,0.6,1.9c0,1-0.3,1.9-1,2.5
		c-0.7,0.7-1.5,1-2.5,1c-1,0-1.7-0.3-2.4-0.9c-0.6-0.6-1-1.4-1.2-2.4l1.7-0.4c0.1,0.6,0.2,1.1,0.4,1.3c0.3,0.5,0.8,0.7,1.5,0.7
		c0.5,0,1-0.2,1.3-0.5c0.3-0.3,0.5-0.8,0.5-1.3c0-0.2,0-0.4-0.1-0.6c-0.1-0.2-0.2-0.3-0.3-0.5c-0.1-0.2-0.3-0.3-0.5-0.4
		c-0.2-0.1-0.4-0.3-0.7-0.4l-1.1-0.4c-1.5-0.6-2.3-1.6-2.3-2.8c0-0.8,0.3-1.5,1-2.1c0.6-0.6,1.4-0.8,2.4-0.8
		C233.5,158.6,234.5,159.2,235.2,160.5"/>
	<path class="st0" d="M147.4,194.7h-0.6V186h0.6v4c0.7-1,1.5-1.5,2.5-1.5c0.8,0,1.5,0.3,2,0.8c0.6,0.6,0.9,1.4,0.9,2.3v0
		c0,0.9-0.3,1.7-0.9,2.3c-0.6,0.6-1.3,0.8-2,0.8c-1,0-1.9-0.5-2.5-1.4V194.7z M152.3,191.7L152.3,191.7c0-0.8-0.2-1.4-0.7-1.9
		c-0.5-0.5-1-0.7-1.7-0.7c-0.7,0-1.2,0.2-1.7,0.7c-0.5,0.5-0.8,1.1-0.8,1.9v0c0,0.7,0.2,1.4,0.8,1.9c0.5,0.5,1.1,0.7,1.7,0.7
		c0.7,0,1.3-0.2,1.7-0.7C152,193.2,152.3,192.5,152.3,191.7"/>
	<path class="st0" d="M159.9,188.7h0.6l-2.6,6.3c-0.5,1.2-1.2,1.7-2,1.7c-0.4,0-0.8-0.1-1.2-0.3l0.2-0.5c0.3,0.2,0.7,0.2,1,0.2
		c0.6,0,1.1-0.5,1.5-1.4l-2.9-6h0.7l2.5,5.4L159.9,188.7z"/>
	<path class="st0" d="M167.4,189.7h-0.8v-1.2h0.8V188c0-0.7,0.2-1.2,0.5-1.5c0.3-0.3,0.8-0.5,1.4-0.5c0.4,0,0.8,0.1,1.2,0.2v1.2
		c-0.3-0.1-0.6-0.2-0.8-0.2c-0.6,0-0.8,0.3-0.8,1v0.3h1.7v1.2h-1.6v5.1h-1.4V189.7z"/>
	<path class="st0" d="M172.2,192.4v-4h1.4v3.6c0,1,0.4,1.5,1.3,1.5c0.4,0,0.8-0.1,1-0.4c0.3-0.3,0.4-0.7,0.4-1.1v-3.5h1.5v6.3h-1.5
		v-1c-0.5,0.7-1.2,1.1-2,1.1c-0.7,0-1.2-0.2-1.7-0.6C172.4,193.8,172.2,193.2,172.2,192.4"/>
	<path class="st0" d="M180.5,192.9c0.7,0.5,1.4,0.8,2.1,0.8c0.7,0,1-0.2,1-0.7v0c0-0.2-0.1-0.4-0.4-0.5c-0.1-0.1-0.5-0.2-1-0.3
		c-0.6-0.2-1-0.4-1.3-0.6c-0.4-0.3-0.6-0.7-0.6-1.3v0c0-0.6,0.2-1,0.7-1.4c0.4-0.3,0.9-0.5,1.6-0.5c0.8,0,1.6,0.2,2.3,0.7l-0.6,1
		c-0.7-0.4-1.2-0.6-1.8-0.6c-0.6,0-0.9,0.2-0.9,0.6v0c0,0.2,0.1,0.4,0.4,0.5c0.2,0.1,0.5,0.2,1,0.4c1.3,0.4,2,1,2,1.8v0
		c0,0.6-0.2,1.1-0.7,1.5c-0.4,0.3-1,0.5-1.7,0.5c-1,0-1.9-0.3-2.7-0.9L180.5,192.9z"/>
	<path class="st0" d="M187.1,186.1h1.5v1.4h-1.5V186.1z M187.1,188.4h1.4v6.3h-1.4V188.4z"/>
	<path class="st0" d="M190.5,191.6L190.5,191.6c0-0.9,0.3-1.7,1-2.3c0.7-0.6,1.5-1,2.4-1c1,0,1.8,0.3,2.4,1c0.6,0.6,1,1.4,1,2.3v0
		c0,0.9-0.3,1.7-1,2.3c-0.7,0.6-1.5,1-2.4,1c-1,0-1.8-0.3-2.4-1C190.8,193.3,190.5,192.5,190.5,191.6 M195.8,191.6L195.8,191.6
		c0-0.6-0.2-1.1-0.5-1.5c-0.4-0.4-0.8-0.6-1.4-0.6c-0.6,0-1,0.2-1.4,0.6c-0.3,0.4-0.5,0.9-0.5,1.4v0c0,0.6,0.2,1,0.5,1.4
		c0.4,0.4,0.8,0.6,1.4,0.6c0.6,0,1-0.2,1.4-0.6C195.6,192.7,195.8,192.2,195.8,191.6"/>
	<path class="st0" d="M199.4,188.4h1.4v1c0.5-0.7,1.2-1.1,2-1.1c0.7,0,1.3,0.2,1.7,0.7c0.4,0.4,0.6,1,0.6,1.8v4h-1.4v-3.6
		c0-1-0.5-1.5-1.3-1.5c-0.4,0-0.8,0.1-1,0.4c-0.3,0.3-0.4,0.7-0.4,1.1v3.6h-1.4V188.4z"/>
	<path class="st0" d="M264.7,118.6c-3.5,1.6-7.1,3.5-7.1,7.3c0,3.9,3,6.5,7.1,6.5c3.8,0,7.6-2.6,7.6-8V115
		C267.1,117.5,265.8,118.1,264.7,118.6 M271.6,118.8c0,1.4-1,2.1-2,2.1c-1.1,0-1.9-0.7-1.9-1.7c0-1,1-1.5,1.9-2c0.3-0.1,0.6-0.3,2-1
		V118.8z"/>
	<path class="st0" d="M263.3,142.2c-9.8,0-17.4-5.8-17.4-15.6c0-4.4,2.9-8.4,8.5-11.7c5.4-3.2,13.5-6.1,16.7-7.9
		c3.7-2.1,4.1-3.4,4.1-5.9c0-4.7-5.6-9-11.4-9c-5,0-8.7,2.9-10.1,6.4h-6.5c1.7-6.6,8.4-11.3,16.6-11.3c9.6,0,17.6,6.7,17.6,14.7
		v22.8C281.5,136.2,272.9,142.2,263.3,142.2 M263.4,115.7c-5.4,2.5-11.1,5.4-11.1,11.4c0,6.1,4.6,10.2,11,10.2c6,0,12-4.3,12-12.6
		v-14.6C267.2,114,269.2,113,263.4,115.7"/>
	<path class="st0" d="M110.2,142.2c-9.8,0-17.4-5.8-17.4-15.6c0-4.4,2.9-8.4,8.6-11.7c5.4-3.2,13.5-6.1,16.7-7.9
		c3.8-2.1,4.1-3.4,4.1-5.9c0-4.7-5.6-9-11.4-9c-5,0-8.7,2.9-10.1,6.4h-6.5c1.7-6.6,8.4-11.3,16.6-11.3c9.6,0,17.6,6.7,17.6,14.7
		v22.9C128.4,136.2,119.8,142.2,110.2,142.2 M110.3,115.7c-5.4,2.5-11.1,5.4-11.1,11.4c0,6.1,4.6,10.2,11,10.2c6,0,12-4.3,12-12.6
		v-14.6C114,114,116.1,113,110.3,115.7"/>
	<path class="st0" d="M168.4,98.4L168.4,98.4c-0.1-0.2-0.1-0.4-0.2-0.6c-1.9-6.2-8.5-10.7-16.4-10.7h-0.5c-7.9,0-14.4,4.5-16.4,10.7
		c-0.1,0.2-0.1,0.4-0.2,0.6c-0.3,1.1-0.5,2.2-0.5,3.4v40.4h6.2v-32.1v-9c0-0.9,0.2-1.8,0.6-2.6c0.4-0.9,0.9-1.7,1.6-2.5
		c1.8-2,4.9-3.9,8.7-3.9h0.5c3.8,0,6.7,1.7,8.7,3.9c0.7,0.7,1.2,1.6,1.6,2.5c0.4,0.8,0.6,1.7,0.6,2.6v9v32.1h6.2v-40.4
		C168.9,100.6,168.7,99.5,168.4,98.4"/>
	<path class="st0" d="M321.5,98.4L321.5,98.4c-0.1-0.2-0.1-0.4-0.2-0.6c-1.9-6.2-8.5-10.7-16.4-10.7h-0.5c-7.9,0-14.5,4.5-16.4,10.7
		c-0.1,0.2-0.1,0.4-0.2,0.6c-0.3,1.1-0.5,2.2-0.5,3.4v40.4h6.2v-32.1v-9c0-0.9,0.2-1.8,0.6-2.6c0.4-0.9,0.9-1.7,1.6-2.5
		c1.8-2,4.9-3.9,8.7-3.9h0.5c3.8,0,6.7,1.7,8.7,3.9c0.7,0.7,1.2,1.6,1.6,2.5c0.4,0.8,0.6,1.7,0.6,2.6v9v32.1h6.2v-40.4
		C322,100.6,321.8,99.5,321.5,98.4"/>
	<path class="st0" d="M209.1,98.4L209.1,98.4c-0.1-0.2-0.1-0.4-0.2-0.6c-1.9-6.2-8.5-10.7-16.4-10.7H192c-4.2,0-7.9,1.2-10.9,3.3
		V59.3h-6.2v42.5v40.4h6.2v-32.1v-9c0-0.9,0.2-1.8,0.6-2.6c0.4-0.9,0.9-1.7,1.6-2.5c1.8-2,4.9-3.9,8.7-3.9h0.5
		c3.8,0,6.7,1.7,8.7,3.9c0.7,0.7,1.2,1.6,1.6,2.5c0.4,0.8,0.6,1.7,0.6,2.6v9v32.1h6.2v-40.4C209.6,100.6,209.4,99.5,209.1,98.4"/>
	<path class="st0" d="M87.6,98.4L87.6,98.4c-0.1-0.2-0.1-0.4-0.2-0.6c-1.9-6.2-8.5-10.7-16.4-10.7h-0.5c-4.2,0-7.9,1.2-10.9,3.3
		V59.3h-6.2v42.5v40.4h6.2v-32.1v-9c0-0.9,0.2-1.8,0.6-2.6c0.4-0.9,0.9-1.7,1.6-2.5c1.8-2,4.9-3.9,8.7-3.9h0.5
		c3.8,0,6.7,1.7,8.7,3.9c0.7,0.7,1.2,1.6,1.6,2.5c0.4,0.8,0.6,1.7,0.6,2.6v9v32.1h6.2v-40.4C88.1,100.6,88,99.5,87.6,98.4"/>
	<path class="st0" d="M47.5,92.1v-5H36.4V59.3h-6.5v68.4v0.1c0.2,7.9,8.2,14.4,17.6,14.4v-5c-5.8,0-11-4.6-11-9.4L36.4,109V92.1
		H47.5z"/>
	<path class="st0" d="M243.6,92.1v-5h-11.1V59.3H226v68.4v0.1c0.2,7.9,8.2,14.4,17.6,14.4v-5c-5.8,0-11-4.6-11-9.4l-0.1-18.8V92.1
		H243.6z"/>
</g>
</svg>
