<?xml version="1.0" encoding="utf-8"?>
<!-- Generator: Adobe Illustrator 21.1.0, SVG Export Plug-In . SVG Version: 6.00 Build 0)  -->
<svg version="1.1" id="Layer_1" xmlns="http://www.w3.org/2000/svg" xmlns:xlink="http://www.w3.org/1999/xlink" x="0px" y="0px"
	 viewBox="0 0 350 255.1" style="enable-background:new 0 0 350 255.1;" xml:space="preserve">
<style type="text/css">
	.st0{fill:#BDBDBD;}
	.st1{fill:#535353;}
	.st2{fill:#202020;}
	.st3{fill:none;stroke:#202020;stroke-width:4.400000e-02;}
</style>
<g>
	<polygon class="st0" points="62.7,108.3 46.2,141.4 29.6,108.3 	"/>
	<path class="st1" d="M29.6,141.4h16.5l-16.5-33.1V141.4z M46.2,141.4h16.5v-33.1L46.2,141.4z"/>
	<path class="st2" d="M104.5,110.2c-0.4,0-0.9,0.1-1.5,0.3c-0.6,0.2-1,0.4-1.4,0.6c-0.5,0.3-0.9,0.7-1.3,1.3
		c-0.3,0.5-0.6,1.1-0.9,1.8c-1,2.5-2.6,6.3-4.7,11.5c-2.1,5.2-4.2,10.7-6.4,16.3h-1.9c-2.2-6-4.4-11.8-6.5-17.3
		c-2.1-5.6-3.5-9.3-4.2-11.3c-0.2-0.5-0.4-0.9-0.7-1.3c-0.3-0.4-0.7-0.7-1.2-1c-0.4-0.3-0.9-0.5-1.4-0.6c-0.5-0.1-1-0.2-1.4-0.2
		v-1.7h13.7v1.7c-1.2,0.1-2.1,0.2-2.9,0.3c-0.8,0.2-1.2,0.5-1.2,0.9c0,0.2,0,0.4,0.1,0.6c0.1,0.2,0.1,0.4,0.2,0.6
		c0.6,1.5,1.5,4,2.8,7.4c1.3,3.4,3.1,8.3,5.5,14.7c1.2-2.9,2.5-6.3,4.1-10.2c1.5-3.9,2.6-6.6,3.1-8.1c0.5-1.4,0.8-2.4,0.9-2.9
		c0.1-0.5,0.1-1,0.1-1.3c0-0.4-0.2-0.7-0.5-0.9c-0.3-0.2-0.7-0.4-1.3-0.6c-0.5-0.2-1-0.3-1.6-0.3c-0.5-0.1-1.1-0.1-1.6-0.2v-1.7
		h12.3V110.2z"/>
	<path class="st3" d="M104.5,110.2c-0.4,0-0.9,0.1-1.5,0.3c-0.6,0.2-1,0.4-1.4,0.6c-0.5,0.3-0.9,0.7-1.3,1.3
		c-0.3,0.5-0.6,1.1-0.9,1.8c-1,2.5-2.6,6.3-4.7,11.5c-2.1,5.2-4.2,10.7-6.4,16.3h-1.9c-2.2-6-4.4-11.8-6.5-17.3
		c-2.1-5.6-3.5-9.3-4.2-11.3c-0.2-0.5-0.4-0.9-0.7-1.3c-0.3-0.4-0.7-0.7-1.2-1c-0.4-0.3-0.9-0.5-1.4-0.6c-0.5-0.1-1-0.2-1.4-0.2
		v-1.7h13.7v1.7c-1.2,0.1-2.1,0.2-2.9,0.3c-0.8,0.2-1.2,0.5-1.2,0.9c0,0.2,0,0.4,0.1,0.6c0.1,0.2,0.1,0.4,0.2,0.6
		c0.6,1.5,1.5,4,2.8,7.4c1.3,3.4,3.1,8.3,5.5,14.7c1.2-2.9,2.5-6.3,4.1-10.2c1.5-3.9,2.6-6.6,3.1-8.1c0.5-1.4,0.8-2.4,0.9-2.9
		c0.1-0.5,0.1-1,0.1-1.3c0-0.4-0.2-0.7-0.5-0.9c-0.3-0.2-0.7-0.4-1.3-0.6c-0.5-0.2-1-0.3-1.6-0.3c-0.5-0.1-1.1-0.1-1.6-0.2v-1.7
		h12.3V110.2z"/>
	<path class="st2" d="M116.7,141.5h-11.1V140c0.4,0,0.7-0.1,1.1-0.1c0.4,0,0.7-0.1,1-0.2c0.4-0.1,0.8-0.4,1-0.7
		c0.2-0.3,0.3-0.8,0.3-1.4v-14.1c0-0.5-0.1-0.9-0.3-1.4c-0.2-0.4-0.5-0.8-0.9-1c-0.3-0.2-0.7-0.3-1.3-0.5c-0.6-0.1-1.1-0.2-1.5-0.2
		v-1.5l8.1-0.5l0.3,0.3v18.7c0,0.5,0.1,1,0.3,1.3c0.2,0.4,0.5,0.6,1,0.8c0.3,0.1,0.7,0.3,1,0.3c0.3,0.1,0.7,0.1,1.1,0.2V141.5z
		 M113.8,111.6c0,0.9-0.3,1.7-0.9,2.3c-0.6,0.7-1.3,1-2.2,1c-0.8,0-1.5-0.3-2.1-0.9c-0.6-0.6-0.9-1.3-0.9-2.2c0-0.9,0.3-1.6,0.9-2.2
		c0.6-0.6,1.3-1,2.1-1c0.9,0,1.6,0.3,2.2,0.9C113.5,110.1,113.8,110.8,113.8,111.6"/>
	<path class="st3" d="M116.7,141.5h-11.1V140c0.4,0,0.7-0.1,1.1-0.1c0.4,0,0.7-0.1,1-0.2c0.4-0.1,0.8-0.4,1-0.7
		c0.2-0.3,0.3-0.8,0.3-1.4v-14.1c0-0.5-0.1-0.9-0.3-1.4c-0.2-0.4-0.5-0.8-0.9-1c-0.3-0.2-0.7-0.3-1.3-0.5c-0.6-0.1-1.1-0.2-1.5-0.2
		v-1.5l8.1-0.5l0.3,0.3v18.7c0,0.5,0.1,1,0.3,1.3c0.2,0.4,0.5,0.6,1,0.8c0.3,0.1,0.7,0.3,1,0.3c0.3,0.1,0.7,0.1,1.1,0.2V141.5z
		 M113.8,111.6c0,0.9-0.3,1.7-0.9,2.3c-0.6,0.7-1.3,1-2.2,1c-0.8,0-1.5-0.3-2.1-0.9c-0.6-0.6-0.9-1.3-0.9-2.2c0-0.9,0.3-1.6,0.9-2.2
		c0.6-0.6,1.3-1,2.1-1c0.9,0,1.6,0.3,2.2,0.9C113.5,110.1,113.8,110.8,113.8,111.6z"/>
	<path class="st2" d="M263.5,111.6c0,0.9-0.3,1.7-0.9,2.3c-0.6,0.7-1.3,1-2.2,1c-0.8,0-1.5-0.3-2.1-0.9c-0.6-0.6-0.9-1.3-0.9-2.2
		c0-0.9,0.3-1.6,0.9-2.2c0.6-0.6,1.3-1,2.1-1c0.9,0,1.6,0.3,2.2,0.9C263.3,110.1,263.5,110.8,263.5,111.6"/>
	<path class="st3" d="M263.5,111.6c0,0.9-0.3,1.7-0.9,2.3c-0.6,0.7-1.3,1-2.2,1c-0.8,0-1.5-0.3-2.1-0.9c-0.6-0.6-0.9-1.3-0.9-2.2
		c0-0.9,0.3-1.6,0.9-2.2c0.6-0.6,1.3-1,2.1-1c0.9,0,1.6,0.3,2.2,0.9C263.3,110.1,263.5,110.8,263.5,111.6z"/>
	<path class="st2" d="M145.1,141.5h-11.2V140c0.4,0,0.7-0.1,1.2-0.1c0.4,0,0.8-0.1,1.1-0.2c0.4-0.1,0.8-0.4,1-0.7
		c0.2-0.3,0.3-0.8,0.3-1.4v-11.8c0-1.6-0.4-2.9-1.2-3.8c-0.8-0.9-1.7-1.3-2.8-1.3c-0.8,0-1.6,0.1-2.3,0.4c-0.7,0.3-1.3,0.6-1.8,0.9
		c-0.5,0.4-0.9,0.7-1.2,1.2c-0.3,0.4-0.5,0.7-0.7,1v13.2c0,0.5,0.1,1,0.3,1.3c0.2,0.3,0.5,0.6,1,0.8c0.3,0.2,0.7,0.3,1.1,0.3
		c0.4,0.1,0.8,0.1,1.2,0.2v1.5h-11.2V140c0.4,0,0.7-0.1,1.1-0.1c0.4,0,0.7-0.1,1-0.2c0.4-0.1,0.8-0.4,1-0.7c0.2-0.3,0.3-0.8,0.3-1.4
		v-14.1c0-0.5-0.1-1-0.3-1.5c-0.2-0.4-0.5-0.8-0.9-1.1c-0.3-0.2-0.6-0.3-1-0.4c-0.4-0.1-0.8-0.1-1.3-0.2v-1.5l7.6-0.5l0.3,0.3v3.2
		h0.1c0.4-0.4,0.8-0.8,1.4-1.3c0.6-0.5,1.1-0.9,1.6-1.3c0.6-0.4,1.3-0.7,2-0.9c0.8-0.2,1.7-0.4,2.7-0.4c2.2,0,3.8,0.7,4.9,2.1
		c1.1,1.4,1.6,3.2,1.6,5.5v11.9c0,0.5,0.1,1,0.3,1.3c0.2,0.3,0.5,0.6,1,0.8c0.4,0.2,0.7,0.3,1,0.3c0.3,0.1,0.6,0.1,1.1,0.1V141.5z"
		/>
	<path class="st3" d="M145.1,141.5h-11.2V140c0.4,0,0.7-0.1,1.2-0.1c0.4,0,0.8-0.1,1.1-0.2c0.4-0.1,0.8-0.4,1-0.7
		c0.2-0.3,0.3-0.8,0.3-1.4v-11.8c0-1.6-0.4-2.9-1.2-3.8c-0.8-0.9-1.7-1.3-2.8-1.3c-0.8,0-1.6,0.1-2.3,0.4c-0.7,0.3-1.3,0.6-1.8,0.9
		c-0.5,0.4-0.9,0.7-1.2,1.2c-0.3,0.4-0.5,0.7-0.7,1v13.2c0,0.5,0.1,1,0.3,1.3c0.2,0.3,0.5,0.6,1,0.8c0.3,0.2,0.7,0.3,1.1,0.3
		c0.4,0.1,0.8,0.1,1.2,0.2v1.5h-11.2V140c0.4,0,0.7-0.1,1.1-0.1c0.4,0,0.7-0.1,1-0.2c0.4-0.1,0.8-0.4,1-0.7c0.2-0.3,0.3-0.8,0.3-1.4
		v-14.1c0-0.5-0.1-1-0.3-1.5c-0.2-0.4-0.5-0.8-0.9-1.1c-0.3-0.2-0.6-0.3-1-0.4c-0.4-0.1-0.8-0.1-1.3-0.2v-1.5l7.6-0.5l0.3,0.3v3.2
		h0.1c0.4-0.4,0.8-0.8,1.4-1.3c0.6-0.5,1.1-0.9,1.6-1.3c0.6-0.4,1.3-0.7,2-0.9c0.8-0.2,1.7-0.4,2.7-0.4c2.2,0,3.8,0.7,4.9,2.1
		c1.1,1.4,1.6,3.2,1.6,5.5v11.9c0,0.5,0.1,1,0.3,1.3c0.2,0.3,0.5,0.6,1,0.8c0.4,0.2,0.7,0.3,1,0.3c0.3,0.1,0.6,0.1,1.1,0.1V141.5z"
		/>
	<path class="st2" d="M170,141.1c-0.7,0.3-1.4,0.5-1.9,0.6c-0.6,0.2-1.2,0.2-1.9,0.2c-1.2,0-2.2-0.3-2.9-0.9
		c-0.7-0.6-1.2-1.4-1.4-2.5h-0.1c-1,1.1-2.1,2-3.2,2.6c-1.2,0.6-2.5,0.9-4.2,0.9c-1.7,0-3.1-0.5-4.2-1.6c-1.1-1.1-1.7-2.4-1.7-4.1
		c0-0.9,0.1-1.7,0.4-2.4c0.2-0.7,0.6-1.3,1.1-1.9c0.4-0.5,0.9-0.9,1.5-1.2c0.6-0.4,1.2-0.7,1.8-0.9c0.7-0.3,2.1-0.7,4.2-1.5
		c2.1-0.7,3.6-1.3,4.3-1.7v-2.3c0-0.2,0-0.6-0.1-1.2c-0.1-0.6-0.3-1.1-0.5-1.6c-0.3-0.6-0.7-1.1-1.3-1.5c-0.6-0.4-1.4-0.6-2.4-0.6
		c-0.7,0-1.4,0.1-2,0.4c-0.6,0.2-1,0.5-1.3,0.8c0,0.3,0.1,0.8,0.2,1.4c0.1,0.6,0.2,1.2,0.2,1.7c0,0.5-0.2,1-0.7,1.5
		c-0.5,0.5-1.2,0.7-2,0.7c-0.8,0-1.3-0.3-1.7-0.8c-0.4-0.6-0.5-1.2-0.5-1.9c0-0.7,0.3-1.4,0.8-2c0.5-0.7,1.2-1.2,2-1.7
		c0.7-0.4,1.5-0.8,2.5-1.1c1-0.3,2-0.5,2.9-0.5c1.3,0,2.4,0.1,3.4,0.3c1,0.2,1.8,0.6,2.6,1.1c0.8,0.6,1.4,1.4,1.8,2.3
		c0.4,1,0.6,2.3,0.6,3.8c0,2.2,0,4.2-0.1,5.9c0,1.7-0.1,3.6-0.1,5.6c0,0.6,0.1,1.1,0.3,1.4c0.2,0.4,0.5,0.7,1,0.9
		c0.2,0.1,0.6,0.2,1.1,0.2c0.5,0,1,0,1.5,0V141.1z M161.9,128.8c-1.3,0.4-2.5,0.8-3.5,1.1c-1,0.4-1.9,0.8-2.8,1.4
		c-0.8,0.5-1.4,1.2-1.8,1.9c-0.4,0.7-0.7,1.6-0.7,2.6c0,1.3,0.3,2.2,1,2.8c0.7,0.6,1.5,0.9,2.6,0.9c1.1,0,2.1-0.3,2.9-0.8
		c0.8-0.5,1.5-1.2,2.1-1.9L161.9,128.8z"/>
	<path class="st3" d="M170,141.1c-0.7,0.3-1.4,0.5-1.9,0.6c-0.6,0.2-1.2,0.2-1.9,0.2c-1.2,0-2.2-0.3-2.9-0.9
		c-0.7-0.6-1.2-1.4-1.4-2.5h-0.1c-1,1.1-2.1,2-3.2,2.6c-1.2,0.6-2.5,0.9-4.2,0.9c-1.7,0-3.1-0.5-4.2-1.6c-1.1-1.1-1.7-2.4-1.7-4.1
		c0-0.9,0.1-1.7,0.4-2.4c0.2-0.7,0.6-1.3,1.1-1.9c0.4-0.5,0.9-0.9,1.5-1.2c0.6-0.4,1.2-0.7,1.8-0.9c0.7-0.3,2.1-0.7,4.2-1.5
		c2.1-0.7,3.6-1.3,4.3-1.7v-2.3c0-0.2,0-0.6-0.1-1.2c-0.1-0.6-0.3-1.1-0.5-1.6c-0.3-0.6-0.7-1.1-1.3-1.5c-0.6-0.4-1.4-0.6-2.4-0.6
		c-0.7,0-1.4,0.1-2,0.4c-0.6,0.2-1,0.5-1.3,0.8c0,0.3,0.1,0.8,0.2,1.4c0.1,0.6,0.2,1.2,0.2,1.7c0,0.5-0.2,1-0.7,1.5
		c-0.5,0.5-1.2,0.7-2,0.7c-0.8,0-1.3-0.3-1.7-0.8c-0.4-0.6-0.5-1.2-0.5-1.9c0-0.7,0.3-1.4,0.8-2c0.5-0.7,1.2-1.2,2-1.7
		c0.7-0.4,1.5-0.8,2.5-1.1c1-0.3,2-0.5,2.9-0.5c1.3,0,2.4,0.1,3.4,0.3c1,0.2,1.8,0.6,2.6,1.1c0.8,0.6,1.4,1.4,1.8,2.3
		c0.4,1,0.6,2.3,0.6,3.8c0,2.2,0,4.2-0.1,5.9c0,1.7-0.1,3.6-0.1,5.6c0,0.6,0.1,1.1,0.3,1.4c0.2,0.4,0.5,0.7,1,0.9
		c0.2,0.1,0.6,0.2,1.1,0.2c0.5,0,1,0,1.5,0V141.1z M161.9,128.8c-1.3,0.4-2.5,0.8-3.5,1.1c-1,0.4-1.9,0.8-2.8,1.4
		c-0.8,0.5-1.4,1.2-1.8,1.9c-0.4,0.7-0.7,1.6-0.7,2.6c0,1.3,0.3,2.2,1,2.8c0.7,0.6,1.5,0.9,2.6,0.9c1.1,0,2.1-0.3,2.9-0.8
		c0.8-0.5,1.5-1.2,2.1-1.9L161.9,128.8z"/>
	<path class="st2" d="M187.7,142.3c-2,0-3.9-0.4-5.7-1.2c-1.8-0.8-3.4-1.9-4.8-3.3c-1.4-1.5-2.5-3.2-3.3-5.3
		c-0.8-2.1-1.2-4.5-1.2-7.1c0-2.6,0.4-5,1.2-7.2c0.8-2.1,1.9-4,3.3-5.5c1.4-1.5,3.1-2.7,5-3.6c1.9-0.8,4-1.3,6.2-1.3
		c1.6,0,3.1,0.2,4.4,0.6c1.3,0.4,2.6,1,3.8,1.7l1-1.6h1.9l0.2,11.8h-1.9c-0.2-1.1-0.6-2.4-1.1-3.7c-0.5-1.3-1.1-2.5-1.7-3.4
		c-0.7-1.1-1.6-1.9-2.6-2.5c-1-0.6-2.2-0.9-3.5-0.9c-1.5,0-2.9,0.3-4.2,1c-1.3,0.7-2.4,1.7-3.4,3c-0.9,1.3-1.6,2.9-2.1,4.8
		c-0.5,1.9-0.8,4.1-0.8,6.5c0,2.1,0.3,4,0.8,5.8c0.5,1.8,1.3,3.3,2.3,4.6c1,1.3,2.2,2.4,3.5,3.1c1.4,0.7,2.9,1.1,4.5,1.1
		c1.3,0,2.4-0.2,3.5-0.6c1.1-0.4,2-0.9,2.7-1.6c0.8-0.7,1.5-1.5,2-2.3c0.6-0.9,1.1-1.8,1.4-2.8l1.7,0.8c-1.3,3.3-3.1,5.6-5.3,7
		C193.4,141.6,190.8,142.3,187.7,142.3"/>
	<path class="st3" d="M187.7,142.3c-2,0-3.9-0.4-5.7-1.2c-1.8-0.8-3.4-1.9-4.8-3.3c-1.4-1.5-2.5-3.2-3.3-5.3
		c-0.8-2.1-1.2-4.5-1.2-7.1c0-2.6,0.4-5,1.2-7.2c0.8-2.1,1.9-4,3.3-5.5c1.4-1.5,3.1-2.7,5-3.6c1.9-0.8,4-1.3,6.2-1.3
		c1.6,0,3.1,0.2,4.4,0.6c1.3,0.4,2.6,1,3.8,1.7l1-1.6h1.9l0.2,11.8h-1.9c-0.2-1.1-0.6-2.4-1.1-3.7c-0.5-1.3-1.1-2.5-1.7-3.4
		c-0.7-1.1-1.6-1.9-2.6-2.5c-1-0.6-2.2-0.9-3.5-0.9c-1.5,0-2.9,0.3-4.2,1c-1.3,0.7-2.4,1.7-3.4,3c-0.9,1.3-1.6,2.9-2.1,4.8
		c-0.5,1.9-0.8,4.1-0.8,6.5c0,2.1,0.3,4,0.8,5.8c0.5,1.8,1.3,3.3,2.3,4.6c1,1.3,2.2,2.4,3.5,3.1c1.4,0.7,2.9,1.1,4.5,1.1
		c1.3,0,2.4-0.2,3.5-0.6c1.1-0.4,2-0.9,2.7-1.6c0.8-0.7,1.5-1.5,2-2.3c0.6-0.9,1.1-1.8,1.4-2.8l1.7,0.8c-1.3,3.3-3.1,5.6-5.3,7
		C193.4,141.6,190.8,142.3,187.7,142.3z"/>
	<path class="st2" d="M225.2,141.1c-0.7,0.3-1.4,0.5-1.9,0.6c-0.6,0.2-1.2,0.2-1.9,0.2c-1.2,0-2.2-0.3-2.9-0.9
		c-0.7-0.6-1.2-1.4-1.4-2.5H217c-1,1.1-2.1,2-3.2,2.6c-1.2,0.6-2.5,0.9-4.2,0.9c-1.7,0-3.1-0.5-4.2-1.6s-1.7-2.4-1.7-4.1
		c0-0.9,0.1-1.7,0.4-2.4c0.3-0.7,0.6-1.3,1.1-1.9c0.4-0.5,0.9-0.9,1.5-1.2c0.6-0.4,1.2-0.7,1.8-0.9c0.7-0.3,2.1-0.7,4.2-1.5
		c2.1-0.7,3.6-1.3,4.3-1.7v-2.3c0-0.2,0-0.6-0.1-1.2c-0.1-0.6-0.3-1.1-0.5-1.6c-0.3-0.6-0.7-1.1-1.3-1.5c-0.6-0.4-1.4-0.6-2.4-0.6
		c-0.7,0-1.4,0.1-2,0.4c-0.6,0.2-1,0.5-1.3,0.8c0,0.3,0.1,0.8,0.2,1.4c0.1,0.6,0.2,1.2,0.2,1.7c0,0.5-0.2,1-0.7,1.5
		c-0.5,0.5-1.2,0.7-2,0.7c-0.8,0-1.3-0.3-1.7-0.8c-0.4-0.6-0.5-1.2-0.5-1.9c0-0.7,0.3-1.4,0.8-2c0.5-0.7,1.2-1.2,2-1.7
		c0.7-0.4,1.5-0.8,2.5-1.1c1-0.3,2-0.5,2.9-0.5c1.3,0,2.4,0.1,3.4,0.3c1,0.2,1.8,0.6,2.6,1.1c0.8,0.6,1.4,1.4,1.8,2.3
		c0.4,1,0.6,2.3,0.6,3.8c0,2.2,0,4.2-0.1,5.9c0,1.7-0.1,3.6-0.1,5.6c0,0.6,0.1,1.1,0.3,1.4c0.2,0.4,0.5,0.7,1,0.9
		c0.2,0.1,0.6,0.2,1.1,0.2c0.5,0,1,0,1.5,0V141.1z M217.1,128.8c-1.3,0.4-2.5,0.8-3.5,1.1c-1,0.4-1.9,0.8-2.8,1.4
		c-0.8,0.5-1.4,1.2-1.8,1.9c-0.5,0.7-0.7,1.6-0.7,2.6c0,1.3,0.3,2.2,1,2.8c0.7,0.6,1.5,0.9,2.6,0.9c1.1,0,2.1-0.3,2.9-0.8
		c0.8-0.5,1.5-1.2,2.1-1.9L217.1,128.8z"/>
	<path class="st3" d="M225.2,141.1c-0.7,0.3-1.4,0.5-1.9,0.6c-0.6,0.2-1.2,0.2-1.9,0.2c-1.2,0-2.2-0.3-2.9-0.9
		c-0.7-0.6-1.2-1.4-1.4-2.5H217c-1,1.1-2.1,2-3.2,2.6c-1.2,0.6-2.5,0.9-4.2,0.9c-1.7,0-3.1-0.5-4.2-1.6s-1.7-2.4-1.7-4.1
		c0-0.9,0.1-1.7,0.4-2.4c0.3-0.7,0.6-1.3,1.1-1.9c0.4-0.5,0.9-0.9,1.5-1.2c0.6-0.4,1.2-0.7,1.8-0.9c0.7-0.3,2.1-0.7,4.2-1.5
		c2.1-0.7,3.6-1.3,4.3-1.7v-2.3c0-0.2,0-0.6-0.1-1.2c-0.1-0.6-0.3-1.1-0.5-1.6c-0.3-0.6-0.7-1.1-1.3-1.5c-0.6-0.4-1.4-0.6-2.4-0.6
		c-0.7,0-1.4,0.1-2,0.4c-0.6,0.2-1,0.5-1.3,0.8c0,0.3,0.1,0.8,0.2,1.4c0.1,0.6,0.2,1.2,0.2,1.7c0,0.5-0.2,1-0.7,1.5
		c-0.5,0.5-1.2,0.7-2,0.7c-0.8,0-1.3-0.3-1.7-0.8c-0.4-0.6-0.5-1.2-0.5-1.9c0-0.7,0.3-1.4,0.8-2c0.5-0.7,1.2-1.2,2-1.7
		c0.7-0.4,1.5-0.8,2.5-1.1c1-0.3,2-0.5,2.9-0.5c1.3,0,2.4,0.1,3.4,0.3c1,0.2,1.8,0.6,2.6,1.1c0.8,0.6,1.4,1.4,1.8,2.3
		c0.4,1,0.6,2.3,0.6,3.8c0,2.2,0,4.2-0.1,5.9c0,1.7-0.1,3.6-0.1,5.6c0,0.6,0.1,1.1,0.3,1.4c0.2,0.4,0.5,0.7,1,0.9
		c0.2,0.1,0.6,0.2,1.1,0.2c0.5,0,1,0,1.5,0V141.1z M217.1,128.8c-1.3,0.4-2.5,0.8-3.5,1.1c-1,0.4-1.9,0.8-2.8,1.4
		c-0.8,0.5-1.4,1.2-1.8,1.9c-0.5,0.7-0.7,1.6-0.7,2.6c0,1.3,0.3,2.2,1,2.8c0.7,0.6,1.5,0.9,2.6,0.9c1.1,0,2.1-0.3,2.9-0.8
		c0.8-0.5,1.5-1.2,2.1-1.9L217.1,128.8z"/>
	<path class="st2" d="M248.8,121.3c0.9,1.1,1.6,2.3,2.1,3.8c0.5,1.4,0.8,3.1,0.8,4.9c0,1.8-0.3,3.5-0.9,5c-0.6,1.5-1.4,2.8-2.4,3.8
		c-1,1.1-2.2,1.9-3.5,2.5c-1.3,0.6-2.6,0.9-4,0.9c-1.4,0-2.5-0.2-3.4-0.5c-0.9-0.3-1.6-0.7-2.2-1.1h-0.2v6.9c0,0.6,0.1,1,0.3,1.4
		c0.2,0.4,0.6,0.6,1,0.8c0.4,0.1,0.9,0.3,1.6,0.4c0.7,0.1,1.3,0.2,1.7,0.2v1.5h-12.8v-1.5c0.5,0,0.9-0.1,1.4-0.1
		c0.4,0,0.9-0.1,1.2-0.2c0.5-0.2,0.8-0.4,1-0.8c0.2-0.4,0.3-0.8,0.3-1.4v-24.4c0-0.5-0.1-0.9-0.3-1.3c-0.2-0.4-0.5-0.8-0.9-1
		c-0.3-0.2-0.7-0.3-1.2-0.4c-0.5-0.1-1-0.2-1.4-0.2v-1.5l7.8-0.5l0.3,0.3v2.6l0.2,0c0.8-0.9,1.8-1.7,3-2.3c1.2-0.6,2.4-0.9,3.6-0.9
		c1.4,0,2.7,0.3,3.9,0.9C246.9,119.5,247.9,120.3,248.8,121.3 M245,137.8c0.6-1,1.1-2.1,1.4-3.3c0.3-1.3,0.4-2.7,0.4-4.3
		c0-1.1-0.1-2.3-0.4-3.5c-0.2-1.2-0.6-2.2-1.2-3.1c-0.5-0.9-1.2-1.6-2.1-2.2c-0.9-0.6-1.9-0.8-3.1-0.8c-1.1,0-2.1,0.3-2.9,0.8
		c-0.8,0.5-1.5,1.1-2.1,1.8v13.6c0.1,0.4,0.4,0.9,0.7,1.3c0.3,0.5,0.7,0.8,1.1,1.2c0.5,0.4,1,0.7,1.6,0.9c0.6,0.2,1.2,0.4,2,0.4
		c0.9,0,1.7-0.2,2.5-0.7C243.8,139.3,244.5,138.6,245,137.8"/>
	<path class="st3" d="M248.8,121.3c0.9,1.1,1.6,2.3,2.1,3.8c0.5,1.4,0.8,3.1,0.8,4.9c0,1.8-0.3,3.5-0.9,5c-0.6,1.5-1.4,2.8-2.4,3.8
		c-1,1.1-2.2,1.9-3.5,2.5c-1.3,0.6-2.6,0.9-4,0.9c-1.4,0-2.5-0.2-3.4-0.5c-0.9-0.3-1.6-0.7-2.2-1.1h-0.2v6.9c0,0.6,0.1,1,0.3,1.4
		c0.2,0.4,0.6,0.6,1,0.8c0.4,0.1,0.9,0.3,1.6,0.4c0.7,0.1,1.3,0.2,1.7,0.2v1.5h-12.8v-1.5c0.5,0,0.9-0.1,1.4-0.1
		c0.4,0,0.9-0.1,1.2-0.2c0.5-0.2,0.8-0.4,1-0.8c0.2-0.4,0.3-0.8,0.3-1.4v-24.4c0-0.5-0.1-0.9-0.3-1.3c-0.2-0.4-0.5-0.8-0.9-1
		c-0.3-0.2-0.7-0.3-1.2-0.4c-0.5-0.1-1-0.2-1.4-0.2v-1.5l7.8-0.5l0.3,0.3v2.6l0.2,0c0.8-0.9,1.8-1.7,3-2.3c1.2-0.6,2.4-0.9,3.6-0.9
		c1.4,0,2.7,0.3,3.9,0.9C246.9,119.5,247.9,120.3,248.8,121.3z M245,137.8c0.6-1,1.1-2.1,1.4-3.3c0.3-1.3,0.4-2.7,0.4-4.3
		c0-1.1-0.1-2.3-0.4-3.5c-0.2-1.2-0.6-2.2-1.2-3.1c-0.5-0.9-1.2-1.6-2.1-2.2c-0.9-0.6-1.9-0.8-3.1-0.8c-1.1,0-2.1,0.3-2.9,0.8
		c-0.8,0.5-1.5,1.1-2.1,1.8v13.6c0.1,0.4,0.4,0.9,0.7,1.3c0.3,0.5,0.7,0.8,1.1,1.2c0.5,0.4,1,0.7,1.6,0.9c0.6,0.2,1.2,0.4,2,0.4
		c0.9,0,1.7-0.2,2.5-0.7C243.8,139.3,244.5,138.6,245,137.8z"/>
	<path class="st2" d="M266.5,141.5h-11.1V140c0.4,0,0.7-0.1,1.1-0.1c0.4,0,0.7-0.1,1-0.2c0.4-0.1,0.8-0.4,1-0.7
		c0.2-0.3,0.3-0.8,0.3-1.4v-14.1c0-0.5-0.1-0.9-0.3-1.4c-0.2-0.4-0.5-0.8-0.9-1c-0.3-0.2-0.7-0.3-1.3-0.5c-0.6-0.1-1.1-0.2-1.5-0.2
		v-1.5l8.1-0.5l0.3,0.3v18.7c0,0.5,0.1,1,0.3,1.3c0.2,0.4,0.5,0.6,1,0.8c0.3,0.1,0.7,0.3,1,0.3c0.3,0.1,0.7,0.1,1.1,0.2V141.5z"/>
	<path class="st3" d="M266.5,141.5h-11.1V140c0.4,0,0.7-0.1,1.1-0.1c0.4,0,0.7-0.1,1-0.2c0.4-0.1,0.8-0.4,1-0.7
		c0.2-0.3,0.3-0.8,0.3-1.4v-14.1c0-0.5-0.1-0.9-0.3-1.4c-0.2-0.4-0.5-0.8-0.9-1c-0.3-0.2-0.7-0.3-1.3-0.5c-0.6-0.1-1.1-0.2-1.5-0.2
		v-1.5l8.1-0.5l0.3,0.3v18.7c0,0.5,0.1,1,0.3,1.3c0.2,0.4,0.5,0.6,1,0.8c0.3,0.1,0.7,0.3,1,0.3c0.3,0.1,0.7,0.1,1.1,0.2V141.5z"/>
	<path class="st2" d="M283.8,140.5c-1,0.4-2,0.8-2.9,1.1c-0.9,0.3-2,0.4-3.3,0.4c-1.9,0-3.3-0.5-4.1-1.5c-0.8-1-1.2-2.3-1.2-4.1
		v-15.5h-4.1v-2.2h4.2v-7.1h4.2v7.1h6.6v2.2h-6.5v12.8c0,1,0,1.8,0.1,2.4c0.1,0.6,0.2,1.2,0.5,1.7c0.2,0.4,0.6,0.8,1.1,1
		c0.5,0.2,1.2,0.3,2,0.3c0.4,0,1,0,1.7-0.1c0.7-0.1,1.3-0.2,1.6-0.3V140.5z"/>
	<path class="st3" d="M283.8,140.5c-1,0.4-2,0.8-2.9,1.1c-0.9,0.3-2,0.4-3.3,0.4c-1.9,0-3.3-0.5-4.1-1.5c-0.8-1-1.2-2.3-1.2-4.1
		v-15.5h-4.1v-2.2h4.2v-7.1h4.2v7.1h6.6v2.2h-6.5v12.8c0,1,0,1.8,0.1,2.4c0.1,0.6,0.2,1.2,0.5,1.7c0.2,0.4,0.6,0.8,1.1,1
		c0.5,0.2,1.2,0.3,2,0.3c0.4,0,1,0,1.7-0.1c0.7-0.1,1.3-0.2,1.6-0.3V140.5z"/>
	<path class="st2" d="M308.1,141.1c-0.7,0.3-1.4,0.5-1.9,0.6c-0.6,0.2-1.2,0.2-1.9,0.2c-1.2,0-2.2-0.3-2.9-0.9
		c-0.7-0.6-1.2-1.4-1.4-2.5h-0.1c-1,1.1-2.1,2-3.2,2.6c-1.2,0.6-2.5,0.9-4.2,0.9c-1.7,0-3.1-0.5-4.2-1.6c-1.1-1.1-1.7-2.4-1.7-4.1
		c0-0.9,0.1-1.7,0.4-2.4c0.2-0.7,0.6-1.3,1.1-1.9c0.4-0.5,0.9-0.9,1.5-1.2c0.6-0.4,1.2-0.7,1.8-0.9c0.7-0.3,2.1-0.7,4.2-1.5
		c2.1-0.7,3.6-1.3,4.3-1.7v-2.3c0-0.2,0-0.6-0.1-1.2c-0.1-0.6-0.3-1.1-0.5-1.6c-0.3-0.6-0.7-1.1-1.3-1.5c-0.6-0.4-1.4-0.6-2.4-0.6
		c-0.7,0-1.4,0.1-2,0.4c-0.6,0.2-1,0.5-1.3,0.8c0,0.3,0.1,0.8,0.2,1.4c0.1,0.6,0.2,1.2,0.2,1.7c0,0.5-0.2,1-0.7,1.5
		c-0.5,0.5-1.2,0.7-2,0.7c-0.8,0-1.3-0.3-1.7-0.8c-0.4-0.6-0.5-1.2-0.5-1.9c0-0.7,0.3-1.4,0.8-2c0.5-0.7,1.2-1.2,2-1.7
		c0.7-0.4,1.5-0.8,2.5-1.1c1-0.3,2-0.5,2.9-0.5c1.3,0,2.4,0.1,3.4,0.3c1,0.2,1.8,0.6,2.6,1.1c0.8,0.6,1.4,1.4,1.8,2.3
		c0.4,1,0.6,2.3,0.6,3.8c0,2.2,0,4.2-0.1,5.9c0,1.7-0.1,3.6-0.1,5.6c0,0.6,0.1,1.1,0.3,1.4s0.5,0.7,1,0.9c0.2,0.1,0.6,0.2,1.1,0.2
		c0.5,0,1,0,1.5,0V141.1z M300,128.8c-1.3,0.4-2.5,0.8-3.5,1.1c-1,0.4-1.9,0.8-2.8,1.4c-0.8,0.5-1.4,1.2-1.8,1.9
		c-0.4,0.7-0.7,1.6-0.7,2.6c0,1.3,0.3,2.2,1,2.8c0.7,0.6,1.5,0.9,2.6,0.9c1.1,0,2.1-0.3,2.9-0.8c0.8-0.5,1.5-1.2,2.1-1.9L300,128.8z
		"/>
	<path class="st3" d="M308.1,141.1c-0.7,0.3-1.4,0.5-1.9,0.6c-0.6,0.2-1.2,0.2-1.9,0.2c-1.2,0-2.2-0.3-2.9-0.9
		c-0.7-0.6-1.2-1.4-1.4-2.5h-0.1c-1,1.1-2.1,2-3.2,2.6c-1.2,0.6-2.5,0.9-4.2,0.9c-1.7,0-3.1-0.5-4.2-1.6c-1.1-1.1-1.7-2.4-1.7-4.1
		c0-0.9,0.1-1.7,0.4-2.4c0.2-0.7,0.6-1.3,1.1-1.9c0.4-0.5,0.9-0.9,1.5-1.2c0.6-0.4,1.2-0.7,1.8-0.9c0.7-0.3,2.1-0.7,4.2-1.5
		c2.1-0.7,3.6-1.3,4.3-1.7v-2.3c0-0.2,0-0.6-0.1-1.2c-0.1-0.6-0.3-1.1-0.5-1.6c-0.3-0.6-0.7-1.1-1.3-1.5c-0.6-0.4-1.4-0.6-2.4-0.6
		c-0.7,0-1.4,0.1-2,0.4c-0.6,0.2-1,0.5-1.3,0.8c0,0.3,0.1,0.8,0.2,1.4c0.1,0.6,0.2,1.2,0.2,1.7c0,0.5-0.2,1-0.7,1.5
		c-0.5,0.5-1.2,0.7-2,0.7c-0.8,0-1.3-0.3-1.7-0.8c-0.4-0.6-0.5-1.2-0.5-1.9c0-0.7,0.3-1.4,0.8-2c0.5-0.7,1.2-1.2,2-1.7
		c0.7-0.4,1.5-0.8,2.5-1.1c1-0.3,2-0.5,2.9-0.5c1.3,0,2.4,0.1,3.4,0.3c1,0.2,1.8,0.6,2.6,1.1c0.8,0.6,1.4,1.4,1.8,2.3
		c0.4,1,0.6,2.3,0.6,3.8c0,2.2,0,4.2-0.1,5.9c0,1.7-0.1,3.6-0.1,5.6c0,0.6,0.1,1.1,0.3,1.4s0.5,0.7,1,0.9c0.2,0.1,0.6,0.2,1.1,0.2
		c0.5,0,1,0,1.5,0V141.1z M300,128.8c-1.3,0.4-2.5,0.8-3.5,1.1c-1,0.4-1.9,0.8-2.8,1.4c-0.8,0.5-1.4,1.2-1.8,1.9
		c-0.4,0.7-0.7,1.6-0.7,2.6c0,1.3,0.3,2.2,1,2.8c0.7,0.6,1.5,0.9,2.6,0.9c1.1,0,2.1-0.3,2.9-0.8c0.8-0.5,1.5-1.2,2.1-1.9L300,128.8z
		"/>
	<path class="st2" d="M321.5,141.5h-11.2V140c0.4,0,0.7-0.1,1.1-0.1c0.4,0,0.7-0.1,1-0.2c0.4-0.1,0.8-0.4,1-0.7
		c0.2-0.3,0.3-0.8,0.3-1.4V111c0-0.6-0.1-1.1-0.4-1.6c-0.2-0.5-0.6-0.9-0.9-1.2c-0.3-0.2-0.8-0.4-1.5-0.5c-0.7-0.2-1.3-0.3-1.8-0.3
		V106l8.6-0.5l0.3,0.3v31.5c0,0.5,0.1,1,0.3,1.3c0.2,0.3,0.5,0.6,1,0.8c0.3,0.2,0.7,0.3,1,0.3c0.3,0.1,0.7,0.1,1.1,0.2V141.5z"/>
	<path class="st3" d="M321.5,141.5h-11.2V140c0.4,0,0.7-0.1,1.1-0.1c0.4,0,0.7-0.1,1-0.2c0.4-0.1,0.8-0.4,1-0.7
		c0.2-0.3,0.3-0.8,0.3-1.4V111c0-0.6-0.1-1.1-0.4-1.6c-0.2-0.5-0.6-0.9-0.9-1.2c-0.3-0.2-0.8-0.4-1.5-0.5c-0.7-0.2-1.3-0.3-1.8-0.3
		V106l8.6-0.5l0.3,0.3v31.5c0,0.5,0.1,1,0.3,1.3c0.2,0.3,0.5,0.6,1,0.8c0.3,0.2,0.7,0.3,1,0.3c0.3,0.1,0.7,0.1,1.1,0.2V141.5z"/>
</g>
</svg>
